<svg width="208" height="71" viewBox="0 0 208 71" fill="none" xmlns="http://www.w3.org/2000/svg">
<path d="M166.3 10.3C147.3 8 127.3 13 115.1 17C114.1 16.4 113.1 15.6 112.1 14.6C108.2 10.5 113.8 0 113.8 0C113.8 0 112.8 1.5 109.9 2.4C106.9 3.2 101.6 3.1 98.6 3C95.6 2.9 93.4 0.599998 93.4 0.599998C93.4 0.599998 96.4 5.7 96.6 11.7C96.8 15.6 92.9 16.3 90.2 16.3C77.9 12.5 59.3 8.3 41.6 10.5C11.6 14 0 22.1 0 22.1C0 22.1 24 26.3 30.1 41.3C30.1 41.3 52.6 39.9 59.6 53.4C59.6 53.4 94.3 52.9 103.5 69.1V70.6C103.6 70.3 103.8 70.1 103.9 69.9C104 70.2 104.2 70.4 104.3 70.6V69.1C113.5 52.9 148.2 53.4 148.2 53.4C155.2 39.9 177.7 41.3 177.7 41.3C184 26.3 208 22.1 208 22.1C208 22.1 196.4 14 166.3 10.3Z" fill="#091F35"/>
</svg>
