<svg width="588" height="174" viewBox="0 0 588 174" fill="none" xmlns="http://www.w3.org/2000/svg">
<path d="M62.8996 173.2H53.5996V8.5L60.0996 14.9L62.8996 173.2Z" fill="#091F35"/>
<path d="M178.4 173.2H169V8.5L175.6 14.9L178.4 173.2Z" fill="#091F35"/>
<path d="M293.8 173.2H284.4V8.5L295.7 0L293.8 173.2Z" fill="#091F35"/>
<path d="M409.2 173.2H399.9V8.5L406.4 14.9L409.2 173.2Z" fill="#091F35"/>
<path d="M524.6 173.2H515.3V8.5L521.8 14.9L524.6 173.2Z" fill="#091F35"/>
<path d="M88.3002 31.6001L28.9002 31.1001L17.2002 43.9001L88.3002 44.3001V31.6001Z" fill="#091F35"/>
<path d="M129.5 32V44.6L445.1 46.6V34.9L129.5 32Z" fill="#091F35"/>
<path d="M493.4 35.3999V46.8999L570.6 47.3999L587.9 36.1999L493.4 35.3999Z" fill="#091F35"/>
<path d="M205.6 77L17.2 78.9L0 90.1L205.6 89.1V77Z" fill="#091F35"/>
<path d="M268.3 76.3999V88.7999L561.6 87.4999L567.5 73.3999L268.3 76.3999Z" fill="#091F35"/>
<path d="M487.1 130.5L570.6 131L563.4 116H487.1V130.5Z" fill="#091F35"/>
<path d="M341.2 116H23.6002L17.2002 127.5L341.2 129.6V116Z" fill="#091F35"/>
<path d="M379.3 116V129.8L446.7 130.3V116H379.3Z" fill="#091F35"/>
</svg>
