<svg width="462" height="247" viewBox="0 0 462 247" fill="none" xmlns="http://www.w3.org/2000/svg">
<path d="M115.6 235.1L99.7996 239.6L32.0996 0L45.7996 6.20001L115.6 235.1Z" fill="#091F35"/>
<path d="M105.6 55.9999L6.8 73.4999L0 60.6999L99.9 24.3999L105.6 55.9999Z" fill="#091F35"/>
<path d="M442.999 221.6L428.799 223L407.399 16.6001L418.199 23.6001L442.999 221.6Z" fill="#091F35"/>
<path d="M461.5 72.9001L374.9 73.4001L371.1 62.0001L461.4 46.1001L461.5 72.9001Z" fill="#091F35"/>
<path d="M204.6 246.5L204.3 165.8C204.2 133.3 195.1 119.8 180 119.8C164.9 119.9 149.3 133.4 149.4 166L149.7 246.7L204.6 246.5Z" fill="#091F35"/>
<path d="M314.7 223V143.9C314.7 124.2 297.7 104.2 286.7 106.6L267 105.2C256.7 101.8 246.9 125.7 246.9 145.5L252 223H314.7Z" fill="#091F35"/>
</svg>
