<svg width="20" height="20" viewBox="0 0 20 20" fill="none" xmlns="http://www.w3.org/2000/svg">
<path d="M9.99166 1.66669C5.39166 1.66669 1.66666 5.40002 1.66666 10C1.66666 14.6 5.39166 18.3334 9.99166 18.3334C14.6 18.3334 18.3333 14.6 18.3333 10C18.3333 5.40002 14.6 1.66669 9.99166 1.66669ZM10 16.6667C6.31666 16.6667 3.33333 13.6834 3.33333 10C3.33333 6.31669 6.31666 3.33335 10 3.33335C13.6833 3.33335 16.6667 6.31669 16.6667 10C16.6667 13.6834 13.6833 16.6667 10 16.6667ZM12.9167 9.16669C13.6083 9.16669 14.1667 8.60835 14.1667 7.91669C14.1667 7.22502 13.6083 6.66669 12.9167 6.66669C12.225 6.66669 11.6667 7.22502 11.6667 7.91669C11.6667 8.60835 12.225 9.16669 12.9167 9.16669ZM7.08333 9.16669C7.775 9.16669 8.33333 8.60835 8.33333 7.91669C8.33333 7.22502 7.775 6.66669 7.08333 6.66669C6.39166 6.66669 5.83333 7.22502 5.83333 7.91669C5.83333 8.60835 6.39166 9.16669 7.08333 9.16669ZM10 14.5834C11.9417 14.5834 13.5917 13.3667 14.2583 11.6667H5.74166C6.40833 13.3667 8.05833 14.5834 10 14.5834Z" fill="#C1DEF2"/>
</svg>
