<svg width="20" height="20" viewBox="0 0 20 20" fill="none" xmlns="http://www.w3.org/2000/svg">
<path fill-rule="evenodd" clip-rule="evenodd" d="M7.95794 0.262591C4.25392 1.07803 1.32181 3.83901 0.322619 7.45234C-0.258599 9.55434 -0.0433039 12.1825 0.878127 14.2359C1.40146 15.402 1.72448 15.644 2.7579 15.644C4.16891 15.644 4.1656 15.6515 4.21859 12.1475C4.27159 8.63954 4.24446 8.70405 5.67092 8.70405C7.13115 8.70405 7.12247 8.68559 7.17578 11.9232C7.20102 13.4636 7.26458 14.7665 7.31695 14.8189C7.36915 14.8713 7.6059 14.846 7.8428 14.7629L8.27339 14.6116L8.35225 10.893C8.41219 8.06542 8.48301 7.11197 8.64752 6.91402C8.80934 6.71939 9.12811 6.65425 9.90932 6.65598C10.4844 6.6574 11.0612 6.7257 11.1913 6.80772C11.385 6.92995 11.4422 7.55644 11.5068 10.2621L11.5856 13.5672L12.0982 13.3514L12.6108 13.1357V9.10593C12.6108 5.2169 12.6225 5.06469 12.9436 4.74357C13.2305 4.45666 13.4174 4.41991 14.3032 4.47638C15.7814 4.57038 15.7653 4.52953 15.7653 8.18213C15.7653 9.85718 15.8119 11.2277 15.8688 11.2277C16.1065 11.2277 17.1805 10.3212 18.2449 9.22202C19.755 7.66274 19.8085 7.38499 18.9367 5.62588C16.9131 1.54222 12.3255 -0.698902 7.95794 0.262591ZM19.0315 10.5677C16.3242 13.9241 11.4046 16.6222 5.96461 17.734C5.02236 17.9266 4.2514 18.1212 4.2514 18.1665C4.2514 18.3594 5.80057 19.1604 6.91191 19.5421C7.92214 19.8893 8.39468 19.9563 9.85064 19.9587C12.8801 19.9639 14.9709 19.1216 17.042 17.0614C17.9618 16.1465 18.3927 15.5599 18.8982 14.5345C19.6148 13.0816 20.0662 11.2707 19.9921 10.1475L19.9451 9.43542L19.0315 10.5677Z" fill="#C1DEF2"/>
</svg>
