<svg width="22" height="20" viewBox="0 0 22 20" fill="none" xmlns="http://www.w3.org/2000/svg">
<path d="M12.5714 0.5C7.36476 0.5 3.14286 4.75389 3.14286 10H0L4.07524 14.1061L4.14857 14.2539L8.38095 10H5.2381C5.2381 5.915 8.51714 2.61111 12.5714 2.61111C16.6257 2.61111 19.9048 5.915 19.9048 10C19.9048 14.085 16.6257 17.3889 12.5714 17.3889C10.5495 17.3889 8.71619 16.555 7.39619 15.2144L5.90857 16.7133C7.61619 18.4339 9.96286 19.5 12.5714 19.5C17.7781 19.5 22 15.2461 22 10C22 4.75389 17.7781 0.5 12.5714 0.5ZM11.5238 5.77778V11.0556L16.0076 13.7367L16.7619 12.4594L13.0952 10.2639V5.77778H11.5238Z" fill="#C1DEF2"/>
</svg>
