<svg width="20" height="18" viewBox="0 0 20 18" fill="none" xmlns="http://www.w3.org/2000/svg">
<path fill-rule="evenodd" clip-rule="evenodd" d="M13.4912 0.983212C13.0635 1.0106 12.6279 1.10713 12.2307 1.26253C12.1689 1.28671 12.0424 1.34328 11.9497 1.38824C11.4077 1.65097 10.9383 2.02354 10.5601 2.49114C9.83414 3.38863 9.52629 4.55168 9.71372 5.6887C9.72268 5.74311 9.73717 5.8202 9.7459 5.86002C9.75465 5.89985 9.76179 5.93572 9.76179 5.93975C9.76179 5.94828 9.65442 5.94283 9.38443 5.92061C7.23603 5.74386 5.17719 4.96977 3.44304 3.68677C2.71758 3.15004 2.0227 2.49458 1.44951 1.80633C1.41018 1.75911 1.3756 1.72048 1.37265 1.72048C1.3697 1.72048 1.33602 1.77887 1.2978 1.85025C0.712262 2.94389 0.662724 4.24147 1.16297 5.38213C1.45543 6.04899 1.94463 6.64604 2.53979 7.06247C2.57954 7.09027 2.6146 7.11531 2.61771 7.11811C2.62583 7.12541 2.43091 7.11374 2.29893 7.09903C1.82382 7.04608 1.35302 6.90537 0.922756 6.68775L0.783037 6.61708L0.788007 6.79822C0.820741 7.99226 1.38545 9.10184 2.3471 9.86171C2.46044 9.95127 2.72675 10.1279 2.86095 10.2025C3.08772 10.3285 3.35705 10.4456 3.60362 10.5252C3.72493 10.5644 3.98564 10.633 4.01324 10.633C4.04386 10.633 4.02879 10.6463 3.987 10.6562C3.39932 10.7951 2.88647 10.8173 2.32872 10.7279C2.27004 10.7185 2.22025 10.7126 2.21808 10.7148C2.21185 10.721 2.28724 10.929 2.34332 11.0603C2.68801 11.8674 3.29838 12.5495 4.06999 12.9899C4.62847 13.3086 5.24113 13.4859 5.90987 13.5224L6.01218 13.528L5.86571 13.6366C5.45014 13.9446 5.07941 14.1718 4.61526 14.4028C3.69795 14.8595 2.69068 15.1418 1.66866 15.2286C1.17605 15.2705 0.577778 15.2645 0.107348 15.2132C0.0501184 15.2069 0.00186466 15.2032 0.000122386 15.205C-0.00805104 15.2131 0.395016 15.4542 0.654133 15.5962C2.18515 16.4352 3.86154 16.9097 5.63494 17.0061C6.06452 17.0294 6.66102 17.0244 7.1243 16.9935C9.70954 16.8212 12.0287 15.8693 13.8889 14.217C14.7041 13.4928 15.4082 12.6557 16.0097 11.6952C16.4015 11.0696 16.7702 10.3281 17.0383 9.62676C17.4581 8.52843 17.7104 7.41141 17.7943 6.28057C17.8167 5.97811 17.8249 5.68434 17.821 5.32376L17.8173 4.96989L17.9505 4.86928C18.5338 4.42882 19.0399 3.93319 19.4859 3.36563C19.6411 3.16815 19.8436 2.88432 19.8321 2.8805C19.8284 2.87925 19.7912 2.89301 19.7494 2.91107C19.2346 3.13366 18.6232 3.31906 18.0557 3.42468C17.8634 3.46045 17.526 3.51124 17.5194 3.5054C17.5181 3.50427 17.5343 3.49331 17.5555 3.48106C17.6814 3.40819 17.9206 3.234 18.0717 3.10512C18.1914 3.00306 18.4002 2.79539 18.5005 2.67882C18.7783 2.35588 19.0103 1.98276 19.1746 1.59448C19.2207 1.48553 19.2945 1.28094 19.2894 1.27593C19.2878 1.27427 19.2416 1.29859 19.1869 1.33C18.4904 1.7296 17.7038 2.03271 16.8995 2.21152L16.7108 2.25347L16.5823 2.12872C15.8874 1.45391 14.9962 1.05626 14.0211 0.985936C13.9191 0.978572 13.59 0.976887 13.4912 0.983212Z" fill="#C1DEF2"/>
</svg>
