<svg width="732" height="375" viewBox="0 0 732 375" fill="none" xmlns="http://www.w3.org/2000/svg">
<path d="M482.23 172.61L520.9 220.31H486.17V366.07H34.76V220.31H0L38.68 172.61L119 73.49L125.33 65.67L260.46 0L395.55 65.67L401.89 73.49L482.23 172.6V172.61ZM386.15 352.93V200.25H273.55V352.93H386.15ZM196.83 119.65H324.07C324.22 111.2 322.685 102.806 319.555 94.9556C316.425 87.1056 311.763 79.9578 305.84 73.9294C299.918 67.9009 292.854 63.1126 285.06 59.844C277.267 56.5754 268.901 54.8919 260.45 54.8919C251.999 54.8919 243.633 56.5754 235.84 59.844C228.046 63.1126 220.982 67.9009 215.06 73.9294C209.137 79.9578 204.475 87.1056 201.345 94.9556C198.215 102.806 196.68 111.2 196.83 119.65V119.65ZM247.35 352.93V200.25H134.75V352.93H247.35Z" fill="#A83022"/>
<path d="M387.12 200.25H274.52V352.93H387.12V200.25Z" fill="#813022"/>
<path d="M325 119.65H197.8C197.65 111.2 199.185 102.806 202.315 94.9556C205.445 87.1057 210.107 79.9578 216.03 73.9294C221.952 67.9009 229.016 63.1126 236.81 59.844C244.603 56.5754 252.969 54.892 261.42 54.892C269.871 54.892 278.237 56.5754 286.03 59.844C293.824 63.1126 300.888 67.9009 306.81 73.9294C312.733 79.9578 317.395 87.1057 320.525 94.9556C323.655 102.806 325.19 111.2 325.04 119.65H325Z" fill="#813022"/>
<path d="M248.32 200.25H135.71V352.93H248.32V200.25Z" fill="#813022"/>
<path d="M196.83 119.65C196.68 111.2 198.215 102.806 201.345 94.9556C204.475 87.1057 209.138 79.9578 215.06 73.9294C220.983 67.9009 228.047 63.1126 235.84 59.844C243.633 56.5754 251.999 54.892 260.45 54.892C268.901 54.892 277.268 56.5754 285.061 59.844C292.854 63.1126 299.918 67.9009 305.841 73.9294C311.763 79.9578 316.425 87.1057 319.555 94.9556C322.685 102.806 324.22 111.2 324.07 119.65H196.83Z" stroke="#FFD6BF" stroke-width="3" stroke-miterlimit="10"/>
<path d="M247.35 200.25H134.75V352.93H247.35V200.25Z" stroke="#FFD6BF" stroke-width="4" stroke-miterlimit="10"/>
<path d="M386.16 200.25H273.55V352.93H386.16V200.25Z" stroke="#FFD6BF" stroke-width="4" stroke-miterlimit="10"/>
<path d="M134.75 200.24L247.35 352.93" stroke="#BABABA" stroke-width="3" stroke-miterlimit="10"/>
<path d="M247.35 200.24L134.75 352.93" stroke="#BABABA" stroke-width="3" stroke-miterlimit="10"/>
<path d="M386.16 200.24L273.55 352.93" stroke="#BABABA" stroke-width="3" stroke-miterlimit="10"/>
<path d="M273.55 200.24L386.16 352.93" stroke="#BABABA" stroke-width="3" stroke-miterlimit="10"/>
<path fill-rule="evenodd" clip-rule="evenodd" d="M530.386 309.713C548.324 309.713 562.937 324.33 562.937 342.359C562.937 360.388 548.324 375 530.386 375C521.731 375 513.43 371.561 507.31 365.439C501.19 359.317 497.752 351.014 497.752 342.357C497.752 333.699 501.19 325.396 507.31 319.274C513.43 313.152 521.731 309.713 530.386 309.713V309.713ZM530.386 311.828C534.389 311.832 538.353 312.624 542.05 314.161C545.747 315.698 549.105 317.948 551.932 320.783C554.759 323.619 556.999 326.984 558.525 330.686C560.051 334.388 560.833 338.355 560.826 342.359C560.826 359.163 547.188 372.89 530.386 372.89C522.291 372.89 514.528 369.674 508.803 363.948C503.079 358.222 499.864 350.457 499.864 342.359C499.864 334.262 503.079 326.496 508.803 320.771C514.528 315.045 522.291 311.828 530.386 311.828V311.828Z" fill="black"/>
<path fill-rule="evenodd" clip-rule="evenodd" d="M530.386 311.828C534.389 311.832 538.353 312.624 542.05 314.161C545.746 315.698 549.104 317.948 551.931 320.783C554.758 323.619 556.999 326.984 558.525 330.686C560.051 334.388 560.833 338.355 560.825 342.359C560.825 359.164 547.188 372.89 530.386 372.89C522.291 372.89 514.527 369.674 508.803 363.948C503.079 358.222 499.863 350.457 499.863 342.359C499.863 334.262 503.079 326.496 508.803 320.771C514.527 315.045 522.291 311.828 530.386 311.828V311.828ZM530.386 312.632C546.783 312.632 560.013 325.949 560.013 342.354C560.013 358.759 546.789 372.076 530.386 372.076C522.506 372.076 514.949 368.945 509.377 363.371C503.805 357.798 500.675 350.239 500.675 342.357C500.675 334.475 503.805 326.916 509.377 321.342C514.949 315.769 522.506 312.638 530.386 312.638V312.632Z" fill="black"/>
<path fill-rule="evenodd" clip-rule="evenodd" d="M530.385 312.477C536.294 312.477 542.069 314.23 546.982 317.514C551.894 320.798 555.723 325.465 557.984 330.926C560.244 336.386 560.835 342.394 559.682 348.191C558.529 353.987 555.684 359.312 551.506 363.49C547.328 367.669 542.005 370.515 536.21 371.668C530.415 372.821 524.409 372.229 518.95 369.967C513.491 367.705 508.826 363.875 505.543 358.961C502.261 354.047 500.509 348.269 500.509 342.359C500.514 334.435 503.664 326.838 509.266 321.235C514.868 315.632 522.464 312.482 530.385 312.477V312.477ZM530.546 314.099C538.057 314.106 545.258 317.093 550.569 322.405C555.881 327.717 558.868 334.919 558.877 342.432C558.877 358.022 546.132 370.77 530.546 370.77C523.08 370.698 515.944 367.68 510.69 362.373C505.436 357.066 502.489 349.899 502.489 342.43C502.489 334.962 505.436 327.795 510.69 322.488C515.944 317.181 523.08 314.163 530.546 314.091V314.099Z" fill="#B4B5B5"/>
<path fill-rule="evenodd" clip-rule="evenodd" d="M530.386 344.142C530.86 344.142 531.314 343.954 531.648 343.619C531.983 343.284 532.171 342.83 532.171 342.357C532.171 341.883 531.983 341.429 531.648 341.094C531.314 340.76 530.86 340.572 530.386 340.572C530.144 340.558 529.901 340.595 529.673 340.678C529.445 340.762 529.236 340.891 529.06 341.058C528.883 341.225 528.743 341.427 528.647 341.65C528.551 341.873 528.501 342.114 528.501 342.357C528.501 342.6 528.551 342.84 528.647 343.064C528.743 343.287 528.883 343.488 529.06 343.655C529.236 343.822 529.445 343.952 529.673 344.035C529.901 344.119 530.144 344.155 530.386 344.142V344.142Z" fill="#0F0C0F"/>
<path fill-rule="evenodd" clip-rule="evenodd" d="M427.694 309.713C445.715 309.713 460.245 324.33 460.245 342.359C460.245 360.388 445.715 375 427.694 375C419.039 375 410.738 371.561 404.618 365.439C398.498 359.317 395.06 351.014 395.06 342.357C395.06 333.699 398.498 325.396 404.618 319.274C410.738 313.152 419.039 309.713 427.694 309.713V309.713ZM427.694 311.828C431.697 311.832 435.661 312.624 439.357 314.161C443.054 315.698 446.412 317.948 449.239 320.783C452.066 323.619 454.307 326.984 455.833 330.686C457.359 334.388 458.141 338.355 458.133 342.359C458.133 359.163 444.496 372.89 427.694 372.89C419.599 372.89 411.835 369.674 406.111 363.948C400.387 358.222 397.171 350.457 397.171 342.359C397.171 334.262 400.387 326.496 406.111 320.771C411.835 315.045 419.599 311.828 427.694 311.828V311.828Z" fill="black"/>
<path fill-rule="evenodd" clip-rule="evenodd" d="M427.127 346.578C427.881 346.578 428.619 346.355 429.247 345.935C429.874 345.515 430.364 344.919 430.652 344.222C430.941 343.524 431.016 342.756 430.869 342.016C430.722 341.275 430.358 340.595 429.824 340.061C429.29 339.528 428.61 339.164 427.869 339.017C427.129 338.87 426.362 338.946 425.664 339.236C424.967 339.525 424.371 340.015 423.952 340.643C423.533 341.271 423.31 342.009 423.311 342.764C423.31 343.265 423.409 343.762 423.6 344.225C423.792 344.688 424.073 345.109 424.428 345.463C424.782 345.817 425.203 346.098 425.666 346.29C426.129 346.481 426.625 346.579 427.127 346.578V346.578Z" fill="#0F0C0F"/>
<path fill-rule="evenodd" clip-rule="evenodd" d="M427.694 311.828C431.698 311.832 435.661 312.624 439.358 314.161C443.055 315.698 446.413 317.948 449.24 320.783C452.067 323.619 454.307 326.984 455.833 330.686C457.36 334.388 458.141 338.355 458.134 342.359C458.134 359.164 444.497 372.89 427.694 372.89C419.599 372.89 411.836 369.674 406.112 363.948C400.388 358.222 397.172 350.457 397.172 342.359C397.172 334.262 400.388 326.496 406.112 320.771C411.836 315.045 419.599 311.828 427.694 311.828V311.828ZM427.694 312.632C433.57 312.632 439.314 314.375 444.2 317.64C449.086 320.906 452.894 325.547 455.143 330.977C457.392 336.406 457.98 342.382 456.835 348.146C455.689 353.911 452.86 359.206 448.706 363.363C444.551 367.52 439.258 370.351 433.496 371.498C427.733 372.646 421.759 372.058 416.33 369.81C410.901 367.562 406.26 363.754 402.995 358.868C399.729 353.982 397.985 348.237 397.984 342.359C397.987 334.478 401.119 326.921 406.69 321.348C412.261 315.775 419.816 312.642 427.694 312.638V312.632Z" fill="black"/>
<path fill-rule="evenodd" clip-rule="evenodd" d="M427.694 312.477C433.603 312.477 439.379 314.23 444.291 317.513C449.204 320.797 453.033 325.464 455.294 330.924C457.555 336.384 458.147 342.393 456.994 348.189C455.842 353.986 452.996 359.31 448.818 363.489C444.641 367.669 439.317 370.515 433.522 371.668C427.727 372.821 421.721 372.229 416.262 369.967C410.803 367.705 406.138 363.875 402.855 358.961C399.572 354.047 397.82 348.27 397.82 342.359C397.827 334.436 400.976 326.839 406.577 321.236C412.178 315.634 419.773 312.483 427.694 312.477V312.477ZM427.855 314.099C433.459 314.098 438.938 315.76 443.598 318.874C448.258 321.988 451.89 326.415 454.034 331.594C456.179 336.773 456.74 342.472 455.646 347.97C454.553 353.468 451.854 358.518 447.89 362.482C443.927 366.445 438.878 369.144 433.381 370.237C427.885 371.33 422.187 370.768 417.01 368.622C411.833 366.475 407.408 362.841 404.296 358.18C401.183 353.518 399.523 348.038 399.525 342.432C399.522 338.71 400.253 335.024 401.676 331.585C403.099 328.146 405.186 325.021 407.817 322.39C410.449 319.758 413.573 317.671 417.011 316.249C420.449 314.826 424.134 314.095 427.855 314.099V314.099Z" fill="#B4B5B5"/>
<path fill-rule="evenodd" clip-rule="evenodd" d="M530.386 342.359C530.386 342.359 527.382 340.084 522.834 332.369C518.287 324.655 516.585 320.433 515.934 319.457C515.61 318.889 514.473 315.643 513.661 313.292C501.404 319.95 495.072 334.484 497.583 349.264C497.583 349.264 497.907 349.752 497.987 350.969C498.068 352.186 497.258 354.301 497.183 354.545C491.336 330.753 503.028 318.004 513.262 312.075C513.018 311.18 512.855 310.614 512.855 310.614L511.962 311.016L511.635 310.287L512.287 310.043L510.907 307.609C510.907 307.609 502.138 315.404 501.259 316.785C500.364 318.245 495.412 324.094 494.112 327.096C492.735 330.104 491.352 333.838 491.516 337.896C491.596 341.955 491.352 350.32 491.352 350.32C491.352 350.32 483.479 349.996 475.767 349.672V349.184C475.782 348.497 475.661 347.814 475.409 347.174C475.157 346.535 474.78 345.953 474.299 345.461C473.819 344.97 473.246 344.58 472.612 344.313C471.979 344.046 471.299 343.909 470.612 343.909C469.925 343.909 469.245 344.046 468.612 344.313C467.979 344.58 467.405 344.97 466.925 345.461C466.445 345.953 466.068 346.535 465.816 347.174C465.564 347.814 465.442 348.497 465.458 349.184V349.264C463.582 349.184 462.21 349.104 461.398 349.023C456.69 348.779 426.328 344.23 426.328 344.23L425.987 343.504C425.987 343.504 427.451 344.15 427.936 343.745C428.421 343.34 428.18 342.204 427.611 342.04C427.238 341.947 426.848 341.947 426.475 342.04C426.475 342.04 425.583 341.472 425.746 340.579C425.975 339.887 426.244 339.209 426.55 338.548L416.635 310.373C415.499 310.938 412.007 312.726 410.472 313.619C408.684 314.758 405.112 317.436 402.92 319.953C400.728 322.389 397.807 328.075 397.644 328.319C397.483 328.643 396.751 330.024 397.075 330.107C397.4 330.268 394.479 331.983 394.479 331.983L396.02 328.41C396.02 328.41 394.071 329.059 394.071 328.086C394.071 327.029 393.911 326.461 394.071 324.837C394.315 323.293 394.64 322.96 395.535 322.96C396.339 323.041 397.156 322.716 397.41 323.041C397.665 323.365 397.41 324.504 397.981 324.019C398.466 323.529 400.902 318.899 404.311 315.978C406.774 313.839 409.471 311.987 412.35 310.456C413.569 309.807 415.274 308.914 416.003 308.51L415.274 306.314L413.813 307.119C413.813 307.119 413.406 306.794 413.406 305.985C413.406 305.175 413.326 303.789 413.326 303.789C413.326 303.789 410.241 303.87 410.241 303.709C410.161 303.545 409.997 303.141 410.161 302.98C410.405 302.816 412.757 302.245 412.757 302.245H424.771C424.771 302.245 425.663 301.441 426.475 301.441H435.318C435.887 301.524 435.482 302.009 435.97 302.09C436.535 302.17 445.467 302.417 445.467 302.417L445.711 303.221L446.683 300.868C446.683 300.868 447.576 300.704 447.251 302.001C446.847 303.221 446.847 303.789 446.279 304.033C445.791 304.275 441.326 304.438 441.326 304.438L454.725 314.423L456.513 312.48C456.513 312.48 455.213 308.663 454.564 307.199C453.913 305.821 453.345 303.382 453.345 303.382C453.345 303.382 452.289 303.953 452.129 303.465C451.885 302.897 451.325 302.409 452.209 302.082C453.184 301.688 455.945 300.616 456.43 300.945C456.837 301.27 457.081 301.749 456.837 301.918C456.624 302.086 456.372 302.197 456.105 302.243L465.86 328.635C465.86 328.635 472.272 329.12 478.455 331.637C484.543 334.157 487.871 335.698 487.871 335.698C487.871 335.698 487.547 329.608 492.743 321.248C497.936 312.962 508.977 301.68 508.977 301.68L505.242 290.8C505.085 290.8 504.933 290.753 504.803 290.666C504.673 290.58 504.572 290.456 504.513 290.312C504.352 289.827 504.513 289.663 504.513 289.663L507.76 288.202C507.893 288.18 508.028 288.19 508.155 288.233C508.282 288.276 508.397 288.349 508.489 288.446C508.653 288.851 508.246 289.583 508.246 289.583L515.066 308.421C515.066 308.421 515.634 309.314 516.202 310.45C520.91 308.175 524.806 307.365 525.862 307.526C525.862 307.526 524.402 309.153 523.67 309.963C521.315 310.365 519.004 310.993 516.77 311.839C517.909 314.841 520.993 324.668 522.129 326.453C523.349 328.482 531.222 341.636 531.222 341.636C531.222 341.636 531.468 342.708 530.418 342.37L530.386 342.359ZM435.811 309.552L435.728 310.121C442.144 311.745 447.096 315.157 451.317 319.457L451.721 318.889C447.257 314.6 442.224 311.174 435.811 309.552ZM417.466 310.121L417.71 310.769L418.682 310.365L418.358 309.796L417.466 310.121ZM419.17 309.633L419.334 310.121C424.118 308.92 429.111 308.809 433.944 309.796V309.148C429.038 308.297 424.01 308.462 419.17 309.633V309.633ZM428.26 334.725L432.899 314.503C431.233 314.244 429.551 314.109 427.866 314.099C425.623 314.089 423.387 314.331 421.199 314.822L428.26 334.725ZM430.615 336.602C430.615 336.602 429.723 337.087 429.884 335.953C430.047 334.894 433.78 318.575 434.595 314.919C440.876 316.435 446.44 320.078 450.341 325.231C450.341 325.314 449.773 326.858 449.773 327.426C449.749 327.965 449.695 328.502 449.612 329.034C449.612 329.034 441.98 330.415 430.615 336.588V336.602ZM433.215 337.331C433.215 337.331 434.348 337.006 437.108 336.926C439.869 336.846 455.701 337.25 455.701 337.25L454.897 333.921C454.897 333.921 452.949 333.758 452.949 334.165C452.868 334.487 452.868 335.299 452.145 334.894C451.341 334.487 450.925 334.165 450.925 333.758C450.925 333.35 450.585 333.264 450.585 333.02C450.585 332.776 450.505 332.94 450.665 332.53C450.826 332.12 451.156 331.232 451.156 331.232C444.939 332.499 438.906 334.545 433.201 337.323L433.215 337.331ZM432.483 340.904C432.514 341.052 432.583 341.189 432.682 341.303C432.782 341.416 432.909 341.502 433.051 341.552C433.539 341.716 445.148 343.096 449.532 343.828C453.819 344.557 456.025 344.962 456.025 344.962C456.079 344.778 456.106 344.586 456.105 344.394V343.665C453.632 342.578 451.001 341.891 448.313 341.628C444.025 341.223 432.483 340.898 432.483 340.898V340.904ZM414.866 305.818L414.14 306.143L414.057 303.626H414.789L414.866 305.818ZM415.598 303.706L416.166 303.626L417.954 308.089L417.058 308.499L415.598 303.706ZM418.696 307.928L417.316 304.191C417.316 304.191 418.208 304.111 418.615 304.111C418.94 304.111 419.184 303.218 420.644 303.706C422.024 304.111 422.268 304.272 422.916 304.111C423.648 303.95 423.08 303.543 425.272 303.543C427.464 303.543 435.187 303.462 435.187 303.462L434.292 307.521C434.292 307.521 428.204 305.738 418.707 307.928H418.696ZM436.149 307.928L437.122 303.95C437.122 303.95 438.585 304.031 439.317 304.435C440.046 304.76 450.036 312.396 450.762 312.882C451.389 313.37 454.069 316.128 454.069 316.128C454.069 316.128 453.176 316.452 453.093 316.696C452.996 316.989 452.915 317.287 452.852 317.589C452.852 317.589 446.276 310.121 436.128 307.939L436.149 307.928ZM460.747 330.664H462.856L465.699 338.052H462.518L460.747 330.664ZM454.069 318.889C454.069 318.889 455.041 318.972 455.041 318.567C455.033 318.24 455.006 317.913 454.961 317.589L456.99 314.343L461.618 328.147H459.833C459.833 328.147 456.748 321.569 454.069 318.889ZM468.923 338.379L466.57 330.989C466.57 330.989 472.414 331.72 476.962 333.589C481.587 335.465 482.97 336.025 483.699 336.43C484.428 336.835 487.432 338.379 487.432 338.379L487.515 346.174H480.279C480.279 346.174 479.304 338.459 468.912 338.379H468.923Z" fill="#F4D262"/>
<path fill-rule="evenodd" clip-rule="evenodd" d="M480.378 350.235C480.054 352.722 478.794 354.992 476.856 356.583C474.919 358.175 472.448 358.968 469.946 358.803C467.444 358.637 465.099 357.525 463.388 355.692C461.676 353.859 460.727 351.443 460.733 348.935C460.708 347.998 460.845 347.064 461.137 346.174C454.32 340.976 440.927 341.301 432.483 340.896L427.927 340.488C427.927 340.488 427.362 339.435 428.578 339.03C429.795 338.54 432.635 336.998 434.911 336.838C440.27 336.594 466.894 337.242 472.25 338.714C474.126 339.204 476.881 340.18 478.414 342.199C480.038 344.308 480.29 345.933 480.29 345.933C480.29 345.933 480.694 348.937 480.37 350.237L480.378 350.235ZM470.554 343.981C471.574 343.973 472.573 344.267 473.426 344.827C474.279 345.386 474.946 346.187 475.344 347.126C475.742 348.065 475.852 349.101 475.662 350.103C475.471 351.105 474.987 352.028 474.272 352.756C473.557 353.483 472.642 353.981 471.643 354.188C470.645 354.395 469.607 354.301 468.662 353.919C467.716 353.536 466.906 352.881 466.333 352.037C465.759 351.194 465.449 350.199 465.441 349.179C465.432 348.501 465.558 347.828 465.811 347.198C466.063 346.569 466.438 345.996 466.914 345.513C467.389 345.03 467.956 344.646 468.581 344.383C469.206 344.12 469.876 343.983 470.554 343.981V343.981Z" fill="#9B7642"/>
<path fill-rule="evenodd" clip-rule="evenodd" d="M473.966 345.201C474.502 345.644 474.943 346.191 475.263 346.809C474.21 347.538 473.071 348.353 473.071 348.841C472.991 349.406 474.371 350.138 475.51 350.717C475.263 351.303 474.934 351.851 474.534 352.344C473.731 351.856 472.83 351.369 472.506 351.208C471.855 350.798 471.287 351.125 470.882 351.773C470.718 352.181 470.638 353.234 470.718 354.21H470.638C469.847 354.195 469.07 354.001 468.366 353.642L468.931 350.798C469.011 350.637 468.77 350.149 468.446 349.993C468.202 349.91 466.822 349.83 465.605 349.83V348.289C466.373 348.215 467.133 348.078 467.878 347.881C468.77 347.637 468.682 347.554 468.682 346.908C468.682 346.581 468.197 345.608 467.792 344.876C468.538 344.364 469.404 344.057 470.306 343.984C470.55 345.123 471.037 346.581 471.362 346.664C471.605 346.747 472.905 345.935 473.961 345.206L473.966 345.201Z" fill="#3E3938"/>
<path fill-rule="evenodd" clip-rule="evenodd" d="M484.191 347.793C484.191 347.793 485.735 345.683 487.115 346.412C488.495 347.141 489.956 348.2 490.687 348.2C491.336 348.281 491.987 349.254 491.823 349.822C491.66 350.471 490.687 351.446 489.631 351.446C488.575 351.446 488.575 351.122 488.007 351.366C487.439 351.61 485.167 352.17 484.355 351.446C483.626 350.642 483.787 349.985 483.551 349.985C483.315 349.985 470.393 350.473 470.393 350.473C469.011 350.393 468.686 348.039 470.393 347.956C474.777 348.203 479.973 347.876 484.191 347.795V347.793Z" fill="black"/>
<path fill-rule="evenodd" clip-rule="evenodd" d="M453.02 301.758L449.204 291.687C449.124 291.363 449.204 290.306 448.88 290.306C448.556 290.306 446.2 290.875 445.632 290.55C444.984 290.226 444.416 289.009 444.416 289.009C444.416 289.009 441.412 288.285 440.6 288.285C439.707 288.205 438.724 288.124 438.724 288.124C438.724 288.124 437.507 284.712 439.78 283.983C442.052 283.254 447.897 283.495 450.332 283.495C452.771 283.415 460.481 281.707 462.185 283.088C463.889 284.388 463.648 285.605 463.648 285.605C463.648 285.605 460.805 286.012 458.94 286.497C457.075 286.983 453.5 287.878 452.776 288.205C452.053 288.532 450.901 289.339 451.233 289.91C451.557 290.558 452.286 292.427 452.937 293.968C453.505 295.188 454.966 299.246 455.534 300.953C454.676 301.158 453.835 301.427 453.018 301.758H453.02Z" fill="#07193B"/>
<path fill-rule="evenodd" clip-rule="evenodd" d="M507.493 288.285L505.617 284.063C505.617 284.063 508.458 279.354 508.621 279.354C508.702 279.354 510.082 278.55 510.325 278.054C510.65 277.649 511.057 276.673 510.974 276.349C510.891 276.025 510.65 275.861 510.65 275.293C510.569 274.724 511.706 271.232 511.869 270.664C512.032 270.095 512.517 268.307 512.517 267.093C512.437 265.873 511.622 264.737 510.489 264.656C509.433 264.493 508.214 264.656 508.133 264.737C507.973 264.817 507.405 265.061 507.405 265.061C507.405 265.061 506.601 264.737 506.349 264.817C506.093 264.935 505.823 265.018 505.545 265.061C505.464 265.061 505.22 264.576 504.741 264.656C504.173 264.817 504.009 264.981 503.937 264.9C503.865 264.82 504.017 263.925 503.288 264.005C502.637 264.088 499.716 265.142 499.309 265.386C498.904 265.713 499.309 266.278 499.229 266.522C499.229 266.686 499.145 267.254 498.336 267.578C497.527 267.903 493.781 269.122 493.628 269.366C493.475 269.61 493.708 269.61 493.301 269.934C492.977 270.178 489.568 271.639 489.568 271.639C489.568 271.639 489.163 272.288 489.729 273.424C490.216 274.644 490.868 274.564 490.868 274.564C490.868 274.564 494.113 273.02 496.141 272.532C498.092 272.044 499.797 270.583 499.96 270.907C500.204 271.232 499.96 271.639 500.284 272.207C500.559 272.584 500.964 272.845 501.421 272.939C501.664 272.856 500.204 273.424 499.389 273.832C498.497 274.237 496.956 275.537 496.793 276.429C496.629 277.322 496.712 277.893 497.28 277.893C497.848 277.893 497.929 277.566 497.765 277.161C497.524 276.837 497.361 276.673 497.929 276.268C498.417 275.861 499.145 274.805 500.445 274.644C501.745 274.483 503.449 274.481 503.854 274.076C504.181 273.668 505.073 272.695 505.397 272.368C505.805 271.964 506.938 271.803 507.021 271.72C507.185 271.639 504.098 274.564 504.017 274.885C503.854 275.293 503.773 276.349 504.098 276.512C504.425 276.754 505.073 277.161 505.073 276.593C505.073 276.025 504.749 275.861 505.153 274.968C505.558 274.076 506.938 272.939 506.938 272.939C506.938 272.939 507.102 274.317 506.858 274.564C506.697 274.805 505.965 275.293 505.965 275.861C505.965 276.429 506.29 276.593 505.885 277.405C505.48 278.217 504.181 280.086 504.181 280.086C504.181 280.086 503.693 279.032 503.288 279.113C502.964 279.113 501.908 279.356 501.908 280.005C501.908 280.573 504.829 288.047 504.829 288.047C504.829 288.047 504.505 288.612 504.585 288.851C504.585 288.931 504.749 289.256 504.829 289.5L507.493 288.285Z" fill="#6E6F71"/>
<path fill-rule="evenodd" clip-rule="evenodd" d="M516.178 310.445C516.178 309.392 516.261 307.681 516.586 307.116C517.154 306.384 518.209 305.087 518.534 304.516C518.858 303.867 519.265 303.543 519.59 303.626C519.994 303.787 520.887 304.111 520.97 304.516C521.053 304.921 521.294 305.899 521.455 305.982C521.508 306.006 521.565 306.018 521.623 306.019C521.681 306.019 521.739 306.007 521.792 305.984C521.845 305.962 521.894 305.928 521.933 305.885C521.973 305.843 522.003 305.793 522.023 305.738C522.186 305.408 522.35 301.35 522.267 300.457C522.186 299.484 521.463 298.428 521.211 298.581C520.97 298.825 520.97 299.637 520.479 300.042C520.075 300.53 518.37 300.449 517.885 301.181C517.4 301.913 515.53 305.486 515.286 306.215C515.205 306.62 515.122 307.513 515.042 308.325V308.408C515.042 308.408 515.61 309.301 516.178 310.437V310.445Z" fill="black"/>
<path d="M633.639 288.488L633.789 288.537L633.639 288.488Z" fill="url(#paint0_linear_81:655)"/>
<path d="M635.238 363.139L635.147 363.109L635.238 363.139Z" fill="url(#paint1_linear_81:655)"/>
<path d="M633.777 363.097L633.663 363.139L633.777 363.097Z" fill="url(#paint2_linear_81:655)"/>
<path d="M635.13 288.537L635.274 288.488L635.13 288.537Z" fill="url(#paint3_linear_81:655)"/>
<path d="M643.73 285.61C641.561 285.61 639.433 286.71 637.354 287.641C641.056 292.912 643.73 307.985 643.73 325.793C643.73 343.601 641.056 358.668 637.36 363.945C639.433 364.87 641.567 365.976 643.73 365.976C654.387 365.976 664.608 361.742 672.144 354.207C679.68 346.671 683.913 336.45 683.913 325.793C683.913 315.136 679.68 304.915 672.144 297.379C664.608 289.843 654.387 285.61 643.73 285.61V285.61ZM640.857 365.423C640.497 365.297 640.136 365.165 639.782 365.014C650.882 361.054 659.188 345.013 659.188 325.793C659.188 306.573 650.876 290.532 639.782 286.565C640.136 286.421 640.497 286.289 640.857 286.163C650.282 287.672 658.86 292.49 665.053 299.753C671.245 307.016 674.647 316.248 674.647 325.793C674.647 335.337 671.245 344.57 665.053 351.833C658.86 359.096 650.282 363.914 640.857 365.423V365.423Z" fill="#FF7E16"/>
<path d="M631.56 287.665C629.486 286.734 627.353 285.634 625.183 285.634C614.526 285.634 604.305 289.867 596.769 297.403C589.234 304.939 585 315.16 585 325.817C585 336.474 589.234 346.695 596.769 354.231C604.305 361.766 614.526 366 625.183 366C627.359 366 629.486 364.894 631.56 363.969C627.858 358.686 625.183 343.619 625.183 325.817C625.183 308.015 627.858 292.936 631.56 287.665ZM629.156 365.038C628.801 365.189 628.441 365.321 628.086 365.447C618.661 363.938 610.083 359.12 603.891 351.857C597.698 344.594 594.297 335.361 594.297 325.817C594.297 316.272 597.698 307.04 603.891 299.777C610.083 292.514 618.661 287.696 628.086 286.187C628.447 286.313 628.807 286.445 629.162 286.589C618.061 290.556 609.755 306.597 609.755 325.817C609.755 345.037 618.037 361.078 629.132 365.038H629.156Z" fill="#FF7E16"/>
<path d="M635.274 288.489L635.876 288.284L635.274 288.489Z" fill="url(#paint4_linear_81:655)"/>
<path d="M635.148 363.103C634.913 363.031 634.684 362.965 634.462 362.911C634.684 362.965 634.913 363.031 635.148 363.103Z" fill="url(#paint5_linear_81:655)"/>
<path d="M631.56 363.969C632.046 363.752 632.533 363.548 633.008 363.368C632.527 363.548 632.046 363.752 631.56 363.969Z" fill="url(#paint6_linear_81:655)"/>
<path d="M633.664 363.139L633.026 363.356L633.664 363.139Z" fill="url(#paint7_linear_81:655)"/>
<path d="M634.439 362.911C634.21 362.965 633.982 363.025 633.753 363.097C634.006 363.025 634.234 362.965 634.439 362.911Z" fill="url(#paint8_linear_81:655)"/>
<path d="M631.56 287.659C632.04 287.869 632.515 288.074 632.984 288.26C632.515 288.08 632.034 287.875 631.56 287.659Z" fill="url(#paint9_linear_81:655)"/>
<path d="M634.438 288.729C634.661 288.669 634.884 288.609 635.106 288.537C634.908 288.615 634.685 288.669 634.438 288.729Z" fill="url(#paint10_linear_81:655)"/>
<path d="M637.353 287.659C636.878 287.875 636.404 288.08 635.929 288.26C636.404 288.08 636.878 287.875 637.353 287.659Z" fill="url(#paint11_linear_81:655)"/>
<path d="M633.057 288.284L633.658 288.489L633.057 288.284Z" fill="url(#paint12_linear_81:655)"/>
<path d="M637.353 363.969C636.662 363.651 635.954 363.372 635.231 363.133C635.953 363.373 636.661 363.652 637.353 363.969V363.969Z" fill="url(#paint13_linear_81:655)"/>
<path d="M633.789 288.537C634.012 288.609 634.234 288.669 634.463 288.729C634.234 288.669 634.012 288.615 633.789 288.537Z" fill="url(#paint14_linear_81:655)"/>
<path d="M637.354 287.665C636.879 287.875 636.404 288.08 635.929 288.266H635.869L635.268 288.47L635.124 288.518C634.901 288.591 634.679 288.651 634.457 288.711C634.228 288.651 634.006 288.591 633.784 288.518L633.633 288.47L633.032 288.266H632.96C632.491 288.086 632.017 287.881 631.536 287.665C627.834 292.936 625.159 308.009 625.159 325.817C625.159 343.625 627.834 358.686 631.536 363.969C632.023 363.752 632.503 363.548 632.984 363.368L633.621 363.151L633.736 363.109C633.964 363.037 634.192 362.977 634.421 362.923C634.643 362.977 634.871 363.043 635.106 363.115L635.196 363.145C635.918 363.384 636.626 363.663 637.317 363.981C641.014 358.704 643.688 343.631 643.688 325.829C643.688 308.027 641.05 292.936 637.354 287.665Z" fill="url(#paint15_linear_81:655)"/>
<path d="M637.354 287.665C636.879 287.875 636.404 288.08 635.929 288.266H635.869L635.268 288.47L635.124 288.518C634.901 288.591 634.679 288.651 634.457 288.711C634.228 288.651 634.006 288.591 633.784 288.518L633.633 288.47L633.032 288.266H632.96C632.491 288.086 632.017 287.881 631.536 287.665C627.834 292.936 625.159 308.009 625.159 325.817C625.159 343.625 627.834 358.686 631.536 363.969C632.023 363.752 632.503 363.548 632.984 363.368L633.621 363.151L633.736 363.109C633.964 363.037 634.192 362.977 634.421 362.923C634.643 362.977 634.871 363.043 635.106 363.115L635.196 363.145C635.918 363.384 636.626 363.663 637.317 363.981C641.014 358.704 643.688 343.631 643.688 325.829C643.688 308.027 641.05 292.936 637.354 287.665Z" fill="#FF8A16"/>
<path d="M609.731 325.817C609.731 306.585 618.037 290.556 629.138 286.589C628.783 286.445 628.422 286.313 628.062 286.187C618.637 287.696 610.059 292.514 603.866 299.777C597.674 307.04 594.272 316.272 594.272 325.817C594.272 335.361 597.674 344.594 603.866 351.857C610.059 359.12 618.637 363.938 628.062 365.447C628.416 365.321 628.777 365.189 629.132 365.038C618.037 361.078 609.731 345.037 609.731 325.817Z" fill="url(#paint16_linear_81:655)"/>
<path d="M609.731 325.817C609.731 306.585 618.037 290.556 629.138 286.589C628.783 286.445 628.422 286.313 628.062 286.187C618.637 287.696 610.059 292.514 603.866 299.777C597.674 307.04 594.272 316.272 594.272 325.817C594.272 335.361 597.674 344.594 603.866 351.857C610.059 359.12 618.637 363.938 628.062 365.447C628.416 365.321 628.777 365.189 629.132 365.038C618.037 361.078 609.731 345.037 609.731 325.817Z" fill="#FF8A16"/>
<path d="M640.858 286.211C640.497 286.337 640.137 286.469 639.782 286.613C650.877 290.58 659.189 306.621 659.189 325.841C659.189 345.061 650.883 361.102 639.782 365.062C640.137 365.213 640.497 365.345 640.858 365.471C650.283 363.962 658.861 359.144 665.053 351.881C671.246 344.618 674.647 335.385 674.647 325.841C674.647 316.296 671.246 307.064 665.053 299.801C658.861 292.538 650.283 287.72 640.858 286.211V286.211Z" fill="url(#paint17_linear_81:655)"/>
<path d="M640.858 286.211C640.497 286.337 640.137 286.469 639.782 286.613C650.877 290.58 659.189 306.621 659.189 325.841C659.189 345.061 650.883 361.102 639.782 365.062C640.137 365.213 640.497 365.345 640.858 365.471C650.283 363.962 658.861 359.144 665.053 351.881C671.246 344.618 674.647 335.385 674.647 325.841C674.647 316.296 671.246 307.064 665.053 299.801C658.861 292.538 650.283 287.72 640.858 286.211V286.211Z" fill="#FF8A16"/>
<path d="M627.827 271.144C627.827 271.144 632.509 280.922 628.29 287.148C628.29 287.148 635.039 291.307 640.719 286.601C640.695 286.601 639.751 269.256 627.827 271.144Z" fill="#814D23"/>
<path d="M695.815 309.518L695.923 309.552L695.815 309.518Z" fill="url(#paint18_linear_81:655)"/>
<path d="M696.96 362.952L696.896 362.931L696.96 362.952Z" fill="url(#paint19_linear_81:655)"/>
<path d="M695.915 362.922L695.833 362.952L695.915 362.922Z" fill="url(#paint20_linear_81:655)"/>
<path d="M696.883 309.552L696.986 309.518L696.883 309.552Z" fill="url(#paint21_linear_81:655)"/>
<path d="M703.039 307.458C701.486 307.458 699.963 308.245 698.475 308.912C701.125 312.684 703.039 323.474 703.039 336.22C703.039 348.967 701.125 359.752 698.479 363.529C699.963 364.191 701.49 364.983 703.039 364.983C710.667 364.983 717.983 361.953 723.377 356.558C728.771 351.164 731.802 343.849 731.802 336.22C731.802 328.592 728.771 321.276 723.377 315.882C717.983 310.488 710.667 307.458 703.039 307.458V307.458ZM700.983 364.587C700.725 364.497 700.466 364.402 700.213 364.295C708.158 361.46 714.103 349.978 714.103 336.22C714.103 322.463 708.154 310.981 700.213 308.142C700.466 308.038 700.725 307.944 700.983 307.853C707.729 308.933 713.869 312.382 718.301 317.581C722.734 322.78 725.169 329.388 725.169 336.22C725.169 343.052 722.734 349.66 718.301 354.859C713.869 360.058 707.729 363.507 700.983 364.587V364.587Z" fill="#FF7E16"/>
<path d="M694.327 308.929C692.843 308.262 691.316 307.475 689.763 307.475C682.134 307.475 674.818 310.505 669.424 315.899C664.03 321.293 661 328.609 661 336.237C661 343.866 664.03 351.182 669.424 356.576C674.818 361.97 682.134 365 689.763 365C691.32 365 692.843 364.208 694.327 363.546C691.677 359.765 689.763 348.98 689.763 336.237C689.763 323.495 691.677 312.701 694.327 308.929ZM692.606 364.312C692.352 364.419 692.094 364.514 691.841 364.604C685.095 363.524 678.954 360.075 674.522 354.876C670.089 349.677 667.654 343.069 667.654 336.237C667.654 329.405 670.089 322.797 674.522 317.598C678.954 312.4 685.095 308.951 691.841 307.87C692.099 307.961 692.357 308.055 692.611 308.159C684.665 310.998 678.72 322.48 678.72 336.237C678.72 349.995 684.648 361.477 692.589 364.312H692.606Z" fill="#FF7E16"/>
<path d="M696.985 309.518L697.416 309.372L696.985 309.518Z" fill="url(#paint22_linear_81:655)"/>
<path d="M696.895 362.926C696.727 362.875 696.563 362.828 696.404 362.789C696.563 362.828 696.727 362.875 696.895 362.926Z" fill="url(#paint23_linear_81:655)"/>
<path d="M694.327 363.546C694.676 363.391 695.024 363.245 695.364 363.116C695.02 363.245 694.676 363.391 694.327 363.546Z" fill="url(#paint24_linear_81:655)"/>
<path d="M695.833 362.952L695.377 363.107L695.833 362.952Z" fill="url(#paint25_linear_81:655)"/>
<path d="M696.388 362.789C696.224 362.828 696.061 362.871 695.897 362.922C696.078 362.871 696.242 362.828 696.388 362.789Z" fill="url(#paint26_linear_81:655)"/>
<path d="M694.327 308.924C694.671 309.075 695.011 309.221 695.347 309.355C695.011 309.226 694.667 309.079 694.327 308.924Z" fill="url(#paint27_linear_81:655)"/>
<path d="M696.388 309.69C696.547 309.647 696.706 309.604 696.865 309.552C696.723 309.608 696.564 309.647 696.388 309.69Z" fill="url(#paint28_linear_81:655)"/>
<path d="M698.474 308.924C698.134 309.079 697.794 309.226 697.454 309.355C697.794 309.226 698.134 309.079 698.474 308.924Z" fill="url(#paint29_linear_81:655)"/>
<path d="M695.398 309.372L695.829 309.518L695.398 309.372Z" fill="url(#paint30_linear_81:655)"/>
<path d="M698.474 363.546C697.979 363.318 697.472 363.119 696.955 362.948C697.472 363.12 697.979 363.319 698.474 363.546V363.546Z" fill="url(#paint31_linear_81:655)"/>
<path d="M695.923 309.552C696.082 309.604 696.241 309.647 696.405 309.69C696.241 309.647 696.082 309.608 695.923 309.552Z" fill="url(#paint32_linear_81:655)"/>
<path d="M698.474 308.929C698.134 309.079 697.794 309.226 697.454 309.359H697.411L696.981 309.505L696.878 309.54C696.719 309.591 696.559 309.634 696.4 309.677C696.237 309.634 696.078 309.591 695.918 309.54L695.811 309.505L695.381 309.359H695.329C694.993 309.23 694.654 309.084 694.309 308.929C691.659 312.701 689.745 323.491 689.745 336.237C689.745 348.984 691.659 359.765 694.309 363.546C694.658 363.391 695.002 363.245 695.346 363.116L695.802 362.961L695.884 362.931C696.047 362.879 696.211 362.836 696.374 362.797C696.534 362.836 696.697 362.883 696.865 362.935L696.929 362.957C697.446 363.127 697.953 363.327 698.448 363.555C701.094 359.777 703.008 348.988 703.008 336.246C703.008 323.504 701.119 312.701 698.474 308.929Z" fill="url(#paint33_linear_81:655)"/>
<path d="M698.474 308.929C698.134 309.079 697.794 309.226 697.454 309.359H697.411L696.981 309.505L696.878 309.54C696.719 309.591 696.559 309.634 696.4 309.677C696.237 309.634 696.078 309.591 695.918 309.54L695.811 309.505L695.381 309.359H695.329C694.993 309.23 694.654 309.084 694.309 308.929C691.659 312.701 689.745 323.491 689.745 336.237C689.745 348.984 691.659 359.765 694.309 363.546C694.658 363.391 695.002 363.245 695.346 363.116L695.802 362.961L695.884 362.931C696.047 362.879 696.211 362.836 696.374 362.797C696.534 362.836 696.697 362.883 696.865 362.935L696.929 362.957C697.446 363.127 697.953 363.327 698.448 363.555C701.094 359.777 703.008 348.988 703.008 336.246C703.008 323.504 701.119 312.701 698.474 308.929Z" fill="#FF8A16"/>
<path d="M678.702 336.237C678.702 322.471 684.647 310.998 692.593 308.159C692.339 308.055 692.081 307.961 691.823 307.87C685.077 308.951 678.937 312.4 674.504 317.598C670.071 322.797 667.637 329.405 667.637 336.237C667.637 343.069 670.071 349.678 674.504 354.876C678.937 360.075 685.077 363.524 691.823 364.604C692.077 364.514 692.335 364.419 692.588 364.312C684.647 361.477 678.702 349.995 678.702 336.237Z" fill="url(#paint34_linear_81:655)"/>
<path d="M678.702 336.237C678.702 322.471 684.647 310.998 692.593 308.159C692.339 308.055 692.081 307.961 691.823 307.87C685.077 308.951 678.937 312.4 674.504 317.598C670.071 322.797 667.637 329.405 667.637 336.237C667.637 343.069 670.071 349.678 674.504 354.876C678.937 360.075 685.077 363.524 691.823 364.604C692.077 364.514 692.335 364.419 692.588 364.312C684.647 361.477 678.702 349.995 678.702 336.237Z" fill="#FF8A16"/>
<path d="M700.982 307.888C700.724 307.978 700.466 308.073 700.212 308.176C708.153 311.015 714.103 322.497 714.103 336.255C714.103 350.012 708.158 361.494 700.212 364.329C700.466 364.437 700.724 364.531 700.982 364.621C707.728 363.541 713.868 360.092 718.301 354.894C722.733 349.695 725.168 343.086 725.168 336.255C725.168 329.423 722.733 322.814 718.301 317.616C713.868 312.417 707.728 308.968 700.982 307.888V307.888Z" fill="url(#paint35_linear_81:655)"/>
<path d="M700.982 307.888C700.724 307.978 700.466 308.073 700.212 308.176C708.153 311.015 714.103 322.497 714.103 336.255C714.103 350.012 708.158 361.494 700.212 364.329C700.466 364.437 700.724 364.531 700.982 364.621C707.728 363.541 713.868 360.092 718.301 354.894C722.733 349.695 725.168 343.086 725.168 336.255C725.168 329.423 722.733 322.814 718.301 317.616C713.868 312.417 707.728 308.968 700.982 307.888V307.888Z" fill="#FF8A16"/>
<path d="M691.655 297.103C691.655 297.103 695.006 304.102 691.987 308.559C691.987 308.559 696.818 311.536 700.883 308.167C700.866 308.167 700.19 295.752 691.655 297.103Z" fill="#814D23"/>
<defs>
<linearGradient id="paint0_linear_81:655" x1="647.184" y1="292.234" x2="671.834" y2="292.234" gradientUnits="userSpaceOnUse">
<stop stop-color="#FFAA05"/>
<stop offset="1" stop-color="#FFC898"/>
</linearGradient>
<linearGradient id="paint1_linear_81:655" x1="643.215" y1="369.184" x2="658.126" y2="369.184" gradientUnits="userSpaceOnUse">
<stop stop-color="#FFAA05"/>
<stop offset="1" stop-color="#FFC898"/>
</linearGradient>
<linearGradient id="paint2_linear_81:655" x1="644.051" y1="371.602" x2="662.592" y2="371.602" gradientUnits="userSpaceOnUse">
<stop stop-color="#FFAA05"/>
<stop offset="1" stop-color="#FFC898"/>
</linearGradient>
<linearGradient id="paint3_linear_81:655" x1="648.11" y1="292.234" x2="671.823" y2="292.234" gradientUnits="userSpaceOnUse">
<stop stop-color="#FFAA05"/>
<stop offset="1" stop-color="#FFC898"/>
</linearGradient>
<linearGradient id="paint4_linear_81:655" x1="594.184" y1="288.386" x2="674.735" y2="288.386" gradientUnits="userSpaceOnUse">
<stop stop-color="#FF7B0D"/>
<stop offset="1" stop-color="#FFAA05"/>
</linearGradient>
<linearGradient id="paint5_linear_81:655" x1="706.65" y1="401.752" x2="798.218" y2="401.752" gradientUnits="userSpaceOnUse">
<stop stop-color="#FF7B0D"/>
<stop offset="1" stop-color="#FFAA05"/>
</linearGradient>
<linearGradient id="paint6_linear_81:655" x1="783.875" y1="485.299" x2="977.6" y2="485.299" gradientUnits="userSpaceOnUse">
<stop stop-color="#FF7B0D"/>
<stop offset="1" stop-color="#FFAA05"/>
</linearGradient>
<linearGradient id="paint7_linear_81:655" x1="699.926" y1="406.922" x2="785.522" y2="406.922" gradientUnits="userSpaceOnUse">
<stop stop-color="#FF7B0D"/>
<stop offset="1" stop-color="#FFAA05"/>
</linearGradient>
<linearGradient id="paint8_linear_81:655" x1="705.818" y1="400.537" x2="797.632" y2="400.537" gradientUnits="userSpaceOnUse">
<stop stop-color="#FF7B0D"/>
<stop offset="1" stop-color="#FFAA05"/>
</linearGradient>
<linearGradient id="paint9_linear_81:655" x1="781.361" y1="333.882" x2="971.858" y2="333.882" gradientUnits="userSpaceOnUse">
<stop stop-color="#FF7B0D"/>
<stop offset="1" stop-color="#FFAA05"/>
</linearGradient>
<linearGradient id="paint10_linear_81:655" x1="704.7" y1="303.557" x2="793.912" y2="303.557" gradientUnits="userSpaceOnUse">
<stop stop-color="#FF7B0D"/>
<stop offset="1" stop-color="#FFAA05"/>
</linearGradient>
<linearGradient id="paint11_linear_81:655" x1="785.646" y1="333.882" x2="976.286" y2="333.882" gradientUnits="userSpaceOnUse">
<stop stop-color="#FF7B0D"/>
<stop offset="1" stop-color="#FFAA05"/>
</linearGradient>
<linearGradient id="paint12_linear_81:655" x1="696.362" y1="304.159" x2="776.714" y2="304.159" gradientUnits="userSpaceOnUse">
<stop stop-color="#FF7B0D"/>
<stop offset="1" stop-color="#FFAA05"/>
</linearGradient>
<linearGradient id="paint13_linear_81:655" x1="858.397" y1="532.451" x2="1142.03" y2="532.451" gradientUnits="userSpaceOnUse">
<stop stop-color="#FF7B0D"/>
<stop offset="1" stop-color="#FFAA05"/>
</linearGradient>
<linearGradient id="paint14_linear_81:655" x1="704.542" y1="303.557" x2="794.84" y2="303.557" gradientUnits="userSpaceOnUse">
<stop stop-color="#FF7B0D"/>
<stop offset="1" stop-color="#FFAA05"/>
</linearGradient>
<linearGradient id="paint15_linear_81:655" x1="2287.95" y1="10964.2" x2="5337.63" y2="10964.2" gradientUnits="userSpaceOnUse">
<stop stop-color="#FFAA05"/>
<stop offset="1" stop-color="#FFC898"/>
</linearGradient>
<linearGradient id="paint16_linear_81:655" x1="3723.06" y1="11374.7" x2="9461.51" y2="11374.7" gradientUnits="userSpaceOnUse">
<stop stop-color="#FFAA05"/>
<stop offset="1" stop-color="#FFC898"/>
</linearGradient>
<linearGradient id="paint17_linear_81:655" x1="3768.57" y1="11374.7" x2="9506.67" y2="11374.7" gradientUnits="userSpaceOnUse">
<stop stop-color="#FFAA05"/>
<stop offset="1" stop-color="#FFC898"/>
</linearGradient>
<linearGradient id="paint18_linear_81:655" x1="705.502" y1="312.197" x2="723.132" y2="312.197" gradientUnits="userSpaceOnUse">
<stop stop-color="#FFAA05"/>
<stop offset="1" stop-color="#FFC898"/>
</linearGradient>
<linearGradient id="paint19_linear_81:655" x1="702.665" y1="367.275" x2="713.329" y2="367.275" gradientUnits="userSpaceOnUse">
<stop stop-color="#FFAA05"/>
<stop offset="1" stop-color="#FFC898"/>
</linearGradient>
<linearGradient id="paint20_linear_81:655" x1="703.262" y1="369.005" x2="716.522" y2="369.005" gradientUnits="userSpaceOnUse">
<stop stop-color="#FFAA05"/>
<stop offset="1" stop-color="#FFC898"/>
</linearGradient>
<linearGradient id="paint21_linear_81:655" x1="706.166" y1="312.197" x2="723.124" y2="312.197" gradientUnits="userSpaceOnUse">
<stop stop-color="#FFAA05"/>
<stop offset="1" stop-color="#FFC898"/>
</linearGradient>
<linearGradient id="paint22_linear_81:655" x1="667.599" y1="309.445" x2="725.206" y2="309.445" gradientUnits="userSpaceOnUse">
<stop stop-color="#FF7B0D"/>
<stop offset="1" stop-color="#FFAA05"/>
</linearGradient>
<linearGradient id="paint23_linear_81:655" x1="748.031" y1="390.567" x2="813.516" y2="390.567" gradientUnits="userSpaceOnUse">
<stop stop-color="#FF7B0D"/>
<stop offset="1" stop-color="#FFAA05"/>
</linearGradient>
<linearGradient id="paint24_linear_81:655" x1="803.353" y1="450.393" x2="942.019" y2="450.393" gradientUnits="userSpaceOnUse">
<stop stop-color="#FF7B0D"/>
<stop offset="1" stop-color="#FFAA05"/>
</linearGradient>
<linearGradient id="paint25_linear_81:655" x1="743.221" y1="394.264" x2="804.436" y2="394.264" gradientUnits="userSpaceOnUse">
<stop stop-color="#FF7B0D"/>
<stop offset="1" stop-color="#FFAA05"/>
</linearGradient>
<linearGradient id="paint26_linear_81:655" x1="747.436" y1="389.698" x2="813.098" y2="389.698" gradientUnits="userSpaceOnUse">
<stop stop-color="#FF7B0D"/>
<stop offset="1" stop-color="#FFAA05"/>
</linearGradient>
<linearGradient id="paint27_linear_81:655" x1="801.554" y1="342.011" x2="937.909" y2="342.011" gradientUnits="userSpaceOnUse">
<stop stop-color="#FF7B0D"/>
<stop offset="1" stop-color="#FFAA05"/>
</linearGradient>
<linearGradient id="paint28_linear_81:655" x1="746.636" y1="320.294" x2="810.437" y2="320.294" gradientUnits="userSpaceOnUse">
<stop stop-color="#FF7B0D"/>
<stop offset="1" stop-color="#FFAA05"/>
</linearGradient>
<linearGradient id="paint29_linear_81:655" x1="804.62" y1="342.011" x2="941.078" y2="342.011" gradientUnits="userSpaceOnUse">
<stop stop-color="#FF7B0D"/>
<stop offset="1" stop-color="#FFAA05"/>
</linearGradient>
<linearGradient id="paint30_linear_81:655" x1="740.672" y1="320.725" x2="798.137" y2="320.725" gradientUnits="userSpaceOnUse">
<stop stop-color="#FF7B0D"/>
<stop offset="1" stop-color="#FFAA05"/>
</linearGradient>
<linearGradient id="paint31_linear_81:655" x1="856.694" y1="484.144" x2="1059.71" y2="484.144" gradientUnits="userSpaceOnUse">
<stop stop-color="#FF7B0D"/>
<stop offset="1" stop-color="#FFAA05"/>
</linearGradient>
<linearGradient id="paint32_linear_81:655" x1="746.523" y1="320.294" x2="811.1" y2="320.294" gradientUnits="userSpaceOnUse">
<stop stop-color="#FF7B0D"/>
<stop offset="1" stop-color="#FFAA05"/>
</linearGradient>
<linearGradient id="paint33_linear_81:655" x1="1879.95" y1="7951.08" x2="4062.88" y2="7951.08" gradientUnits="userSpaceOnUse">
<stop stop-color="#FFAA05"/>
<stop offset="1" stop-color="#FFC898"/>
</linearGradient>
<linearGradient id="paint34_linear_81:655" x1="2907.19" y1="8244.93" x2="7014.71" y2="8244.93" gradientUnits="userSpaceOnUse">
<stop stop-color="#FFAA05"/>
<stop offset="1" stop-color="#FFC898"/>
</linearGradient>
<linearGradient id="paint35_linear_81:655" x1="2939.77" y1="8244.95" x2="7047.04" y2="8244.95" gradientUnits="userSpaceOnUse">
<stop stop-color="#FFAA05"/>
<stop offset="1" stop-color="#FFC898"/>
</linearGradient>
</defs>
</svg>
