<svg width="1367" height="173" viewBox="0 0 1367 173" fill="none" xmlns="http://www.w3.org/2000/svg">
<path d="M462.92 35.73V20.01L307.23 20.01V35.73L462.92 35.73Z" fill="#A6835C"/>
<path d="M462.93 63.49V47.77L307.24 47.77V63.49L462.93 63.49Z" fill="#A6835C"/>
<path d="M462.92 91.26V75.54L307.23 75.54V91.26L462.92 91.26Z" fill="#A6835C"/>
<path d="M462.93 119.02V103.3L307.24 103.3V119.02L462.93 119.02Z" fill="#A6835C"/>
<path d="M462.92 146.79V131.07H307.23V146.79H462.92Z" fill="#A6835C"/>
<path d="M162.51 35.73V20.01L6.81979 20.01V35.73L162.51 35.73Z" fill="#A6835C"/>
<path d="M162.52 63.49V47.77L6.82956 47.77V63.49L162.52 63.49Z" fill="#A6835C"/>
<path d="M162.51 91.26V75.54L6.81976 75.54V91.26L162.51 91.26Z" fill="#A6835C"/>
<path d="M162.52 119.02V103.3L6.82953 103.3V119.02L162.52 119.02Z" fill="#A6835C"/>
<path d="M162.52 146.79V131.07H6.82956V146.79H162.52Z" fill="#A6835C"/>
<path d="M311.33 35.73V20.01L155.64 20.01V35.73L311.33 35.73Z" fill="#A6835C"/>
<path d="M311.34 63.49V47.77L155.65 47.77V63.49L311.34 63.49Z" fill="#A6835C"/>
<path d="M311.33 91.26V75.54L155.64 75.54V91.26L311.33 91.26Z" fill="#A6835C"/>
<path d="M311.34 119.02V103.3L155.65 103.3V119.02L311.34 119.02Z" fill="#A6835C"/>
<path d="M311.34 146.79V131.07H155.65V146.79H311.34Z" fill="#A6835C"/>
<path d="M23.22 0H0V172.64H23.22V0Z" fill="#C3996B"/>
<path d="M171.03 0H147.81V172.64H171.03V0Z" fill="#C3996B"/>
<path d="M318.84 0H295.62V172.64H318.84V0Z" fill="#C3996B"/>
<path d="M914.23 35.73V20.01L758.54 20.01V35.73L914.23 35.73Z" fill="#A6835C"/>
<path d="M914.24 63.49V47.77L758.55 47.77V63.49L914.24 63.49Z" fill="#A6835C"/>
<path d="M914.23 91.26V75.54L758.54 75.54V91.26L914.23 91.26Z" fill="#A6835C"/>
<path d="M914.24 119.02V103.3L758.55 103.3V119.02L914.24 119.02Z" fill="#A6835C"/>
<path d="M914.23 146.79V131.07H758.54V146.79H914.23Z" fill="#A6835C"/>
<path d="M613.82 35.72V20L458.13 20V35.72L613.82 35.72Z" fill="#A6835C"/>
<path d="M613.83 63.4901V47.77L458.14 47.77V63.4901L613.83 63.4901Z" fill="#A6835C"/>
<path d="M613.83 91.2601V75.54L458.14 75.54V91.2601L613.83 91.2601Z" fill="#A6835C"/>
<path d="M613.83 119.02V103.3L458.14 103.3V119.02L613.83 119.02Z" fill="#A6835C"/>
<path d="M613.83 146.79V131.07H458.14V146.79H613.83Z" fill="#A6835C"/>
<path d="M762.641 35.72V20L606.951 20V35.72L762.641 35.72Z" fill="#A6835C"/>
<path d="M762.65 63.4901V47.77L606.96 47.77V63.4901L762.65 63.4901Z" fill="#A6835C"/>
<path d="M762.641 91.2601V75.54L606.951 75.54V91.2601L762.641 91.2601Z" fill="#A6835C"/>
<path d="M762.65 119.02V103.3L606.96 103.3V119.02L762.65 119.02Z" fill="#A6835C"/>
<path d="M762.65 146.79V131.07H606.96V146.79H762.65Z" fill="#A6835C"/>
<path d="M474.531 0H451.311V172.64H474.531V0Z" fill="#C3996B"/>
<path d="M622.34 0H599.12V172.64H622.34V0Z" fill="#C3996B"/>
<path d="M770.151 0H746.931V172.64H770.151V0Z" fill="#C3996B"/>
<path d="M1366.52 35.73V20.01L1210.83 20.01V35.73L1366.52 35.73Z" fill="#A6835C"/>
<path d="M1366.52 63.5V47.78L1210.83 47.78V63.5L1366.52 63.5Z" fill="#A6835C"/>
<path d="M1366.52 91.26V75.54L1210.83 75.54V91.26L1366.52 91.26Z" fill="#A6835C"/>
<path d="M1366.52 119.03V103.31L1210.83 103.31V119.03L1366.52 119.03Z" fill="#A6835C"/>
<path d="M1366.52 146.79V131.07H1210.83V146.79H1366.52Z" fill="#A6835C"/>
<path d="M1066.11 35.73V20.01L910.419 20.01V35.73L1066.11 35.73Z" fill="#A6835C"/>
<path d="M1066.12 63.49V47.77L910.429 47.77V63.49L1066.12 63.49Z" fill="#A6835C"/>
<path d="M1066.11 91.26V75.54L910.419 75.54V91.26L1066.11 91.26Z" fill="#A6835C"/>
<path d="M1066.12 119.03V103.31L910.429 103.31V119.03L1066.12 119.03Z" fill="#A6835C"/>
<path d="M1066.11 146.79V131.07H910.419V146.79H1066.11Z" fill="#A6835C"/>
<path d="M1214.93 35.73V20.01L1059.24 20.01V35.73L1214.93 35.73Z" fill="#A6835C"/>
<path d="M1214.94 63.49V47.77L1059.25 47.77V63.49L1214.94 63.49Z" fill="#A6835C"/>
<path d="M1214.93 91.2599V75.5399L1059.24 75.5399V91.2599L1214.93 91.2599Z" fill="#A6835C"/>
<path d="M1214.94 119.03V103.31L1059.25 103.31V119.03L1214.94 119.03Z" fill="#A6835C"/>
<path d="M1214.93 146.79V131.07H1059.24V146.79H1214.93Z" fill="#A6835C"/>
<path d="M926.82 0H903.6V172.64H926.82V0Z" fill="#C3996B"/>
<path d="M1074.63 0H1051.41V172.64H1074.63V0Z" fill="#C3996B"/>
<path d="M1222.44 0H1199.22V172.64H1222.44V0Z" fill="#C3996B"/>
</svg>
