<svg width="155" height="169" viewBox="0 0 155 169" fill="none" xmlns="http://www.w3.org/2000/svg">
<path d="M62.1078 139.078C62.0126 144.873 62.0009 150.67 62.0726 156.47C62.0931 158.109 62.1195 159.749 62.1517 161.391C62.1671 162.096 63.2655 162.098 63.2501 161.391C63.1359 155.594 63.1008 149.797 63.1447 144.001C63.1608 142.359 63.1813 140.719 63.2062 139.08C63.2062 138.372 62.1078 138.372 62.1078 139.08V139.078Z" fill="#5B1609"/>
<path d="M62.7152 161.07C59.4187 161.73 56.0582 162.015 52.6977 161.92C51.9903 161.901 51.9925 162.999 52.6977 163.019C56.1568 163.111 59.6152 162.813 63.0074 162.129C63.077 162.11 63.142 162.077 63.1989 162.033C63.2558 161.989 63.3034 161.933 63.339 161.871C63.3746 161.808 63.3975 161.739 63.4064 161.667C63.4153 161.596 63.41 161.523 63.3908 161.454C63.3716 161.384 63.3389 161.319 63.2946 161.262C63.2502 161.205 63.1951 161.158 63.1324 161.122C63.0697 161.086 63.0005 161.063 62.929 161.055C62.8574 161.046 62.7848 161.051 62.7152 161.07V161.07Z" fill="#5B1609"/>
<path d="M62.891 161.481C61.9771 161.74 61.228 162.329 60.4547 162.852C59.6404 163.405 58.8137 163.942 57.9745 164.462C57.1353 164.982 56.2895 165.484 55.4371 165.969C54.6617 166.408 53.8774 166.813 52.9899 166.964C52.85 167.004 52.7313 167.098 52.6595 167.224C52.5876 167.351 52.5682 167.5 52.6054 167.641C52.6474 167.78 52.741 167.897 52.8669 167.968C52.9929 168.04 53.1415 168.06 53.282 168.025C54.1822 167.834 55.0432 167.491 55.8282 167.01C56.6806 166.536 57.5219 166.035 58.3523 165.521C59.1827 165.007 60.0219 164.469 60.8392 163.919C61.5795 163.421 62.3154 162.788 63.1876 162.54C63.8664 162.347 63.5764 161.288 62.8954 161.481H62.891Z" fill="#5B1609"/>
<path d="M62.9075 162.502C63.6149 162.502 63.6149 161.404 62.9075 161.404C62.2001 161.404 62.2001 162.502 62.9075 162.502Z" fill="#5B1609"/>
<path d="M47.7824 134.291C47.6901 140.089 47.6784 145.886 47.7472 151.683C47.7663 153.325 47.7934 154.965 47.8285 156.604C47.8417 157.311 48.9401 157.314 48.9269 156.604C48.8083 150.809 48.7732 145.012 48.8215 139.214C48.8347 137.572 48.8544 135.931 48.8808 134.291C48.8808 133.583 47.7824 133.583 47.7824 134.291Z" fill="#5B1609"/>
<path d="M48.3928 156.283C45.0962 156.942 41.7358 157.228 38.3753 157.133C37.6679 157.114 37.6679 158.212 38.3753 158.232C41.834 158.327 45.2924 158.033 48.685 157.353C48.8254 157.314 48.9447 157.221 49.0166 157.095C49.0885 156.968 49.1071 156.818 49.0684 156.678C49.0296 156.537 48.9367 156.418 48.81 156.346C48.6833 156.274 48.5333 156.255 48.3928 156.294V156.283Z" fill="#5B1609"/>
<path d="M48.5664 156.694C47.6547 156.953 46.9056 157.542 46.1323 158.065C45.3151 158.619 44.4876 159.155 43.6499 159.675C42.8121 160.195 41.9656 160.697 41.1103 161.182C40.3349 161.622 39.5506 162.026 38.6631 162.177C38.5234 162.217 38.405 162.31 38.3334 162.436C38.2619 162.562 38.243 162.712 38.2808 162.852C38.3223 162.99 38.4155 163.107 38.5411 163.179C38.6666 163.251 38.815 163.271 38.9552 163.236C39.8533 163.045 40.7127 162.703 41.497 162.226C42.3494 161.749 43.1907 161.248 44.0233 160.736C44.8559 160.224 45.6907 159.684 46.5102 159.133C47.2483 158.634 47.9842 158.001 48.8564 157.753C49.5352 157.562 49.2474 156.501 48.5642 156.694H48.5664Z" fill="#5B1609"/>
<path d="M48.5792 157.718C49.2866 157.718 49.2888 156.619 48.5792 156.619C47.8696 156.619 47.8718 157.718 48.5792 157.718Z" fill="#5B1609"/>
<path d="M54.7121 59.1195C54.7121 59.1195 39.9933 44.8818 42.4691 33.0365C44.945 21.1911 50.1581 23.5329 52.8821 24.9653C52.8821 24.9653 51.4498 5.82865 70.7182 10.2465C70.7182 10.2465 76.966 -5.76624 89.7253 4.84228C89.7253 4.84228 99.3584 -6.67793 107.689 5.81987C107.689 5.81987 120.639 0.351945 121.968 14.2821C121.968 14.2821 141.01 8.2935 137.755 27.9508C137.755 27.9508 154.288 33.0804 145.958 47.8936C145.958 47.8936 155.857 56.0703 148.304 65.0531C148.304 65.0531 154.941 66.7447 154.941 72.8629C154.941 78.9811 150.123 82.1072 145.437 81.8457C145.437 81.8457 150.773 87.184 148.431 92.7816C146.089 98.3791 142.181 100.723 131.116 99.1524C131.116 99.1524 99.2222 91.0812 93.8839 87.9485C88.5456 84.8159 54.7121 59.1195 54.7121 59.1195Z" fill="#AF2814"/>
<path d="M39.6053 134.579C39.6053 134.579 38.564 140.567 45.2028 144.212C51.8416 147.856 55.6993 142 59.5635 135.873L39.6053 134.579Z" fill="#5B1609"/>
<path d="M53.6434 62.5817C53.6434 62.5817 40.1834 49.561 42.4395 38.7262C44.6957 27.8915 49.4694 30.0356 51.9628 31.3449C51.9628 31.3449 50.6447 13.8427 68.2743 17.8915C68.2743 17.8915 73.9861 3.24736 85.6579 12.9508C85.6579 12.9508 94.4672 2.40597 102.088 13.8427C102.088 13.8427 113.931 8.8427 115.153 21.5821C115.153 21.5821 132.567 16.1054 129.59 34.0843C129.59 34.0843 144.711 38.7746 137.092 52.3181C137.092 52.3181 146.146 59.7873 139.239 68.01C139.239 68.01 145.306 69.5478 145.306 75.152C145.306 80.7561 140.913 83.6054 136.616 83.3681C136.616 83.3681 141.497 88.2495 139.355 93.3681C137.213 98.4867 133.643 100.631 123.518 99.2029C123.518 99.2029 94.3485 91.8215 89.4672 88.9634C84.5858 86.1054 53.6434 62.5817 53.6434 62.5817Z" fill="#F9B05E"/>
<path d="M52.9599 64.7916C52.9599 64.7916 40.3018 52.5487 42.4283 42.3598C44.5548 32.1708 49.0342 34.1875 51.3848 35.4178C51.3848 35.4178 50.1524 18.9613 66.7231 22.7684C66.7231 22.7684 72.0965 8.99643 83.0697 18.1221C83.0697 18.1221 91.354 8.21216 98.5179 18.9613C98.5179 18.9613 109.656 14.2579 110.805 26.2372C110.805 26.2372 127.18 21.0878 124.381 37.9946C124.381 37.9946 138.601 42.4059 131.435 55.1453C131.435 55.1453 139.95 62.1752 133.452 69.9015C133.452 69.9015 139.164 71.358 139.164 76.6194C139.164 81.8808 135.023 84.5698 130.991 84.3457C130.991 84.3457 135.581 88.9349 133.566 93.7503C131.552 98.5658 128.193 100.578 118.676 99.2424C118.676 99.2424 91.2464 92.3004 86.655 89.6137C82.0636 86.9269 52.9599 64.7916 52.9599 64.7916Z" fill="#A22610"/>
<path d="M52.2766 67.0039C52.2766 67.0039 40.4137 55.5364 42.415 45.9934C44.4163 36.4503 48.6013 38.333 50.8025 39.493C50.8025 39.493 49.6491 24.0778 65.1676 27.6432C65.1676 27.6432 70.2005 14.7456 80.4773 23.2913C80.4773 23.2913 88.2365 14.0119 94.9479 24.0778C94.9479 24.0778 105.378 19.6841 106.455 30.888C106.455 30.888 121.791 26.0549 119.17 41.8985C119.17 41.8985 132.487 46.0285 125.776 57.9618C125.776 57.9618 133.751 64.5523 127.665 71.782C127.665 71.782 133.01 73.1463 133.01 78.0738C133.01 83.0013 129.131 85.5189 125.356 85.308C125.356 85.308 129.656 89.6072 127.773 94.1173C125.89 98.6274 122.74 100.512 113.827 99.2557C113.827 99.2557 88.1245 92.753 83.8363 90.2377C79.5481 87.7223 52.2766 67.0039 52.2766 67.0039Z" fill="#C13726"/>
<path d="M51.5993 69.1897C51.5993 69.1897 40.5405 58.4911 42.399 49.5895C44.2575 40.688 48.1701 42.4476 50.2241 43.5241C50.2241 43.5241 49.1499 29.1414 63.6248 32.4696C63.6248 32.4696 68.3216 20.4353 77.9042 28.4077C77.9042 28.4077 85.1538 19.7499 91.406 29.1414C91.406 29.1414 101.138 25.0333 102.142 35.5012C102.142 35.5012 116.45 31.0021 114.005 45.7736C114.005 45.7736 126.428 49.6291 120.167 60.7604C120.167 60.7604 127.608 66.9116 121.924 73.6559C121.924 73.6559 126.911 74.9278 126.911 79.5258C126.911 84.1238 123.291 86.47 119.769 86.2745C119.769 86.2745 123.781 90.2859 122.019 94.4929C120.257 98.6998 117.324 100.462 109.007 99.2864C109.007 99.2864 85.0396 93.2209 81.0281 90.8725C77.0167 88.524 51.5993 69.1897 51.5993 69.1897Z" fill="#A22311"/>
<path d="M32.4455 66.6238C32.4455 66.6238 45.2025 59.0733 60.9538 58.5439C76.7051 58.0144 85.4288 59.2029 93.3703 65.1827C101.312 71.1625 107.689 81.0658 105.607 94.6049C103.524 108.144 98.9679 118.687 92.329 124.025C85.6902 129.363 75.934 135.361 69.2293 136.532C69.2293 136.532 71.2438 144.732 63.1726 146.685C63.1726 146.685 55.1652 147.467 52.9529 138.355C52.9529 138.355 4.52372 137.507 6.08787 91.4239C6.08348 91.4239 15.0641 67.5992 32.4455 66.6238Z" fill="#711609"/>
<path d="M15.5545 76.8743C15.5545 76.8743 8.96403 92.8475 6.3476 90.7671C3.73117 88.6867 5.59408 79.6094 5.59408 79.6094C5.59408 79.6094 7.15603 72.4806 9.93942 67.5026C12.7228 62.5246 15.359 58.7548 15.5545 58.4407C15.75 58.1265 24.6824 46.558 24.6824 46.558C24.6824 46.558 31.2729 39.0887 30.3941 36.1604C29.5154 33.232 27.8063 32.9376 26.1477 32.9376C24.4891 32.9376 20.2733 31.67 19.4275 26.5931C18.5818 21.5163 16.7584 18.9767 16.7584 18.9767C16.7584 18.9767 17.7338 14.616 19.7527 12.2061C21.7716 9.79615 26.0005 4.91698 37.3911 4.85107C37.3911 4.85107 43.4785 4.91698 48.0677 9.60283C52.6569 14.2887 52.167 21.4504 52.2988 21.971C52.4306 22.4917 51.3212 33.4912 45.2689 44.6226C39.2166 55.7539 34.3968 63.3769 32.2505 66.0373L31.9803 66.6546C31.9803 66.6546 39.4759 63.5637 44.2276 67.1445C44.2276 67.1445 41.0378 76.4525 29.3858 71.8304C29.3858 71.8304 31.0137 76.257 29.2562 78.0804C29.2562 78.0804 26.196 80.9363 23.4631 75.6638C23.4631 75.6638 24.8955 83.6713 19.232 83.2803C13.5686 82.8892 15.5545 76.8743 15.5545 76.8743Z" fill="#FBB154"/>
<path d="M0.0951927 28.2847C0.0951927 28.2847 12.0064 19.4974 17.3425 19.9521C17.3425 19.9521 21.042 24.8994 19.8755 28.2847C19.8755 28.2847 16.9098 31.5228 4.9546 29.5699C4.9546 29.5699 -0.803313 28.9262 0.0951927 28.2847Z" fill="#F9A303"/>
<path d="M14.774 20.253C14.774 20.253 17.6299 16.1625 21.1031 22.63C23.7942 27.619 23.5636 38.6427 20.6747 46.3229C17.7859 54.003 8.73714 55.2398 9.84434 44.1744C9.84434 44.1744 10.5034 38.902 15.2464 34.3457C19.9893 29.7895 21.202 21.7183 14.774 20.253Z" fill="#BE1E2D"/>
<path d="M71.6948 80.8791C71.6948 80.8791 85.4623 88.3066 88.7818 94.6488C92.1012 100.991 93.5665 104.994 88.7818 104.994H88.0656C88.0656 104.994 90.9632 110.787 84.7462 110.561C84.7462 110.561 67.3341 127.419 41.5586 106.068C41.5498 106.068 65.1218 78.3395 71.6948 80.8791Z" fill="#C13726"/>
<path d="M72.0526 91.1626C72.0526 91.1626 76.8703 91.7162 77.3579 88.3968C77.8456 85.0773 76.4792 82.9288 76.4792 82.9288C76.4792 82.9288 73.9397 78.2913 65.104 75.6068C57.5645 73.3155 48.6036 73.5066 43.7222 75.2157C38.8408 76.9249 31.8593 81.2043 30.7609 88.0387C29.6625 94.873 32.3228 103.66 38.2389 109.071C44.155 114.482 56.3123 117.859 62.2349 113.177C62.2349 113.177 63.6563 111.969 63.1686 109.267C63.1686 109.267 67.0746 111.611 69.1572 108.975C71.2398 106.338 68.7002 102.074 67.3338 100.675C67.3338 100.675 71.8241 100.895 73.0302 98.9503C74.2362 97.0061 74.3966 93.5066 72.0526 91.1626Z" fill="#F9B05E"/>
<path d="M38.3021 9.99386C38.3021 9.99386 22.2301 6.71618 22.1817 20.8001C22.1334 34.884 39.8245 30.4332 42.1883 27.3071C44.5521 24.181 49.3544 15.3453 38.3021 9.99386Z" fill="#F79D32"/>
<path d="M30.5057 23.0145C31.5843 23.0145 32.4587 21.3238 32.4587 19.2382C32.4587 17.1525 31.5843 15.4618 30.5057 15.4618C29.4271 15.4618 28.5527 17.1525 28.5527 19.2382C28.5527 21.3238 29.4271 23.0145 30.5057 23.0145Z" fill="#531108"/>
</svg>
