<svg width="300" height="300" viewBox="0 0 300 300" fill="none" xmlns="http://www.w3.org/2000/svg">
<path d="M300 0H0V300H300V0Z" fill="white"/>
<path d="M61.4162 93.9252C110.34 46.0249 189.661 46.0249 238.584 93.9252L244.472 99.69C246.918 102.085 246.918 105.968 244.472 108.363L224.33 128.084C223.107 129.281 221.124 129.281 219.901 128.084L211.799 120.15C177.668 86.7341 122.332 86.7341 88.2018 120.15L79.5245 128.646C78.3014 129.844 76.3184 129.844 75.0954 128.646L54.9536 108.926C52.5074 106.531 52.5074 102.648 54.9536 100.253L61.4162 93.9252ZM280.239 134.709L298.165 152.261C300.612 154.656 300.612 158.539 298.165 160.934L217.335 240.075C214.889 242.47 210.923 242.47 208.476 240.075C208.476 240.075 208.476 240.075 208.476 240.075L151.108 183.906C150.496 183.307 149.505 183.307 148.893 183.906C148.893 183.906 148.893 183.906 148.893 183.906L91.5259 240.075C89.0797 242.47 85.1137 242.47 82.6675 240.075C82.6674 240.075 82.6674 240.075 82.6674 240.075L1.83463 160.933C-0.611544 158.538 -0.611544 154.654 1.83463 152.259L19.7609 134.708C22.2071 132.313 26.1731 132.313 28.6193 134.708L85.9887 190.878C86.6002 191.476 87.5917 191.476 88.2033 190.878C88.2033 190.878 88.2033 190.878 88.2033 190.878L145.57 134.708C148.016 132.313 151.982 132.313 154.428 134.708C154.428 134.708 154.428 134.708 154.428 134.708L211.798 190.878C212.409 191.476 213.401 191.476 214.012 190.878L271.381 134.709C273.827 132.314 277.793 132.314 280.239 134.709Z" fill="#3B99FC"/>
</svg>
