<svg width="1136" height="736" viewBox="0 0 1136 736" fill="none" xmlns="http://www.w3.org/2000/svg">
<path d="M239.621 0H153.359V22.7735H239.621V0Z" fill="#313335"/>
<path d="M243.187 0H149.793V4.46426H243.187V0Z" fill="#525557"/>
<path d="M346.009 168.595V651C346.011 653.612 345.863 656.222 345.564 658.817C344.48 668.449 341.265 677.718 336.151 685.952C334.642 688.379 332.964 690.698 331.131 692.89C328.217 696.391 324.909 699.543 321.272 702.284C317.087 705.447 312.473 707.999 307.569 709.862C307.084 710.05 306.6 710.224 306.115 710.392C305.631 710.56 305.049 710.754 304.513 710.915C302.34 711.593 300.126 712.131 297.885 712.524C296.231 712.813 294.555 713.028 292.858 713.17C291.495 713.28 290.125 713.332 288.736 713.332H103.492C100.624 713.296 97.763 713.026 94.9385 712.524C93.9759 712.356 93.0003 712.162 92.0764 711.936C82.9668 709.768 74.5571 705.322 67.6361 699.015C65.8564 697.415 64.1777 695.706 62.6098 693.898C52.385 681.975 46.814 666.758 46.9235 651.052V168.595C46.9145 162.189 47.8217 155.815 49.6175 149.666C56.9826 124.469 78.6384 106.276 104.196 106.276H288.736C317.938 106.276 342.043 130.064 345.589 160.81C345.88 163.395 346.02 165.994 346.009 168.595Z" fill="#B36940"/>
<path d="M346.007 168.595V650.999C346.009 653.611 345.86 656.222 345.561 658.817C343.487 676.822 334.352 692.412 321.27 702.283V160.81H345.561C345.86 163.394 346.009 165.993 346.007 168.595Z" fill="#C58257"/>
<path d="M179.409 411.501L220.963 299.804C220.963 299.804 134.152 328.805 179.409 411.501Z" fill="#CE9D83"/>
<path d="M218.64 324.78L189.742 405.537C189.742 405.537 270.222 375.321 218.64 324.78Z" fill="#CE9D83"/>
<path d="M45.9425 152.303C45.9425 151.566 45.9102 150.824 45.9102 150.074C45.9102 73.4904 113.313 11.4043 196.474 11.4043C279.634 11.4043 347.005 73.4904 347.005 150.074C347.005 150.824 347.005 151.566 347.005 152.303H45.9425Z" fill="#E2DBD6"/>
<path d="M45.9102 150.098C45.9102 73.5144 113.313 11.4282 196.474 11.4282C217.688 11.3752 238.702 15.5184 258.308 23.6194C240.341 18.7029 216.121 15.8667 191.958 24.6272C134.149 45.5724 127.242 141.15 127.242 141.15V152.327H45.9425C45.9425 151.565 45.9102 150.822 45.9102 150.098Z" fill="#B6A7A4"/>
<g style="mix-blend-mode:screen" opacity="0.7">
<path d="M338.866 132.171H322.979C322.979 132.171 309.535 50.4383 237.105 25.6104C237.105 25.6104 321.345 43.4997 338.866 132.171Z" fill="#A2A4A6"/>
</g>
<path d="M46.9219 149.666V651.007C46.9219 685.422 72.5639 713.326 104.195 713.326H127.24V149.666H46.9219Z" fill="#885031"/>
<path d="M355.183 137.461H37.7617V160.641H355.183V137.461Z" fill="#373738"/>
<g style="mix-blend-mode:multiply">
<path d="M355.183 156.818H37.7617V160.811H355.183V156.818Z" fill="#999B9E"/>
</g>
<path d="M355.183 140.381H37.7617V143.094H355.183V140.381Z" fill="#A2A4A6"/>
<path d="M36.5128 193.959H358.805C359.783 194.037 360.767 193.912 361.694 193.592C362.621 193.271 363.472 192.762 364.192 192.097C364.913 191.431 365.488 190.624 365.882 189.725C366.275 188.827 366.478 187.856 366.478 186.875C366.478 185.894 366.275 184.924 365.882 184.025C365.488 183.127 364.913 182.319 364.192 181.654C363.472 180.988 362.621 180.479 361.694 180.159C360.767 179.838 359.783 179.713 358.805 179.791H36.5128C34.7318 179.934 33.0697 180.742 31.8577 182.054C30.6457 183.367 29.9727 185.088 29.9727 186.875C29.9727 188.662 30.6457 190.383 31.8577 191.696C33.0697 193.009 34.7318 193.817 36.5128 193.959Z" fill="#373738"/>
<path d="M36.5141 536.253H358.806C359.302 536.274 359.796 536.194 360.26 536.019C360.724 535.844 361.147 535.577 361.505 535.234C361.863 534.891 362.147 534.479 362.342 534.023C362.536 533.567 362.637 533.076 362.637 532.58C362.637 532.085 362.536 531.594 362.342 531.138C362.147 530.682 361.863 530.27 361.505 529.927C361.147 529.584 360.724 529.317 360.26 529.142C359.796 528.966 359.302 528.887 358.806 528.908H36.5141C35.5667 528.947 34.6712 529.352 34.0149 530.036C33.3586 530.721 32.9922 531.632 32.9922 532.58C32.9922 533.529 33.3586 534.44 34.0149 535.125C34.6712 535.809 35.5667 536.213 36.5141 536.253Z" fill="#373738"/>
<path d="M36.516 598.042H358.808C359.289 598.042 359.764 597.947 360.208 597.764C360.651 597.58 361.055 597.31 361.394 596.971C361.734 596.631 362.003 596.228 362.187 595.785C362.37 595.341 362.465 594.865 362.465 594.385C362.465 593.905 362.37 593.43 362.187 592.986C362.003 592.542 361.734 592.139 361.394 591.799C361.055 591.46 360.651 591.191 360.208 591.007C359.764 590.823 359.289 590.729 358.808 590.729H36.516C35.5462 590.729 34.6161 591.114 33.9304 591.799C33.2446 592.485 32.8594 593.415 32.8594 594.385C32.8594 595.355 33.2446 596.285 33.9304 596.971C34.6161 597.657 35.5462 598.042 36.516 598.042Z" fill="#373738"/>
<path d="M358.825 708.241C360.71 708.241 362.518 707.493 363.851 706.16C365.183 704.827 365.932 703.02 365.932 701.135V115.516C365.932 113.631 365.183 111.823 363.851 110.491C362.518 109.158 360.71 108.409 358.825 108.409C356.941 108.409 355.133 109.158 353.8 110.491C352.467 111.823 351.719 113.631 351.719 115.516V701.148C351.722 703.03 352.472 704.835 353.805 706.164C355.137 707.494 356.943 708.241 358.825 708.241Z" fill="#462718"/>
<path d="M34.1105 708.241C35.9953 708.241 37.803 707.493 39.1357 706.16C40.4685 704.827 41.2172 703.02 41.2172 701.135V115.516C41.2172 113.631 40.4685 111.823 39.1357 110.491C37.803 109.158 35.9953 108.409 34.1105 108.409C32.2257 108.409 30.4181 109.158 29.0854 110.491C27.7526 111.823 27.0039 113.631 27.0039 115.516V701.148C27.0073 703.03 27.7576 704.835 29.09 706.164C30.4223 707.494 32.228 708.241 34.1105 708.241Z" fill="#462718"/>
<g style="mix-blend-mode:multiply">
<path d="M116.46 566.806V562.716H67.8437V584.992H100.315C98.5767 587.001 96.8453 589.03 95.1461 591.091H67.8309V615.641H76.0552L71.3389 621.74H67.8309V626.314C64.8784 630.229 61.9776 634.215 59.2383 638.324V115.903C59.2383 115.339 59.3494 114.78 59.5653 114.259C59.7812 113.737 60.0977 113.264 60.4966 112.865C60.8956 112.466 61.3692 112.149 61.8904 111.933C62.4117 111.718 62.9704 111.606 63.5346 111.606C64.0988 111.606 64.6574 111.718 65.1787 111.933C65.6999 112.149 66.1736 112.466 66.5725 112.865C66.9715 113.264 67.2879 113.737 67.5038 114.259C67.7197 114.78 67.8309 115.339 67.8309 115.903V143.567H116.447V115.903C116.447 114.763 116.899 113.67 117.705 112.865C118.511 112.059 119.603 111.606 120.743 111.606C121.882 111.606 122.975 112.059 123.781 112.865C124.587 113.67 125.039 114.763 125.039 115.903V555.945C122.345 559.699 119.464 563.291 116.46 566.806ZM116.46 149.685H67.8437V171.961H116.46V149.685ZM116.46 178.047H67.8437V202.597H116.46V178.047ZM116.46 208.69H67.8437V230.959H116.46V208.69ZM116.46 237.071H67.8437V261.621H116.46V237.071ZM116.46 267.688H67.8437V289.964H116.46V267.688ZM116.46 296.062H67.8437V320.613H116.46V296.062ZM116.46 326.711H67.8437V348.962H116.46V326.711ZM116.46 355.054H67.8437V379.604H116.46V355.054ZM116.46 385.703H67.8437V407.972H116.46V385.703ZM116.46 414.078H67.8437V438.628H116.46V414.078ZM116.46 444.714H67.8437V466.996H116.46V444.714ZM116.46 473.076H67.8437V497.626H116.46V473.076ZM116.46 503.725H67.8437V525.988H116.46V503.725ZM116.46 532.08H67.8437V556.63H116.46V532.08Z" fill="#999B9E"/>
</g>
<path d="M66.6666 149.667H121.581C122.39 149.667 123.166 149.346 123.738 148.774C124.31 148.202 124.631 147.426 124.631 146.618C124.631 145.809 124.31 145.033 123.738 144.461C123.166 143.89 122.39 143.568 121.581 143.568H66.6666C65.8578 143.568 65.0822 143.89 64.5103 144.461C63.9385 145.033 63.6172 145.809 63.6172 146.618C63.6172 147.426 63.9385 148.202 64.5103 148.774C65.0822 149.346 65.8578 149.667 66.6666 149.667Z" fill="#373738"/>
<path d="M66.6646 150.273H121.58C122.524 150.234 123.416 149.831 124.07 149.149C124.724 148.467 125.089 147.558 125.089 146.613C125.089 145.668 124.724 144.76 124.07 144.078C123.416 143.396 122.524 142.993 121.58 142.953H66.6646C66.1711 142.933 65.6784 143.012 65.2163 143.187C64.7541 143.361 64.3321 143.627 63.9756 143.969C63.619 144.311 63.3353 144.722 63.1414 145.176C62.9476 145.63 62.8477 146.119 62.8477 146.613C62.8477 147.107 62.9476 147.596 63.1414 148.051C63.3353 148.505 63.619 148.915 63.9756 149.257C64.3321 149.599 64.7541 149.866 65.2163 150.04C65.6784 150.215 66.1711 150.294 66.6646 150.273ZM121.58 144.168C122.205 144.2 122.794 144.471 123.225 144.925C123.656 145.379 123.896 145.981 123.896 146.607C123.896 147.233 123.656 147.835 123.225 148.289C122.794 148.743 122.205 149.014 121.58 149.046H66.6646C66.3338 149.063 66.0029 149.012 65.6922 148.897C65.3815 148.783 65.0974 148.606 64.8572 148.378C64.617 148.149 64.4258 147.875 64.2951 147.57C64.1644 147.266 64.0969 146.938 64.0969 146.607C64.0969 146.276 64.1644 145.948 64.2951 145.643C64.4258 145.339 64.617 145.064 64.8572 144.836C65.0974 144.608 65.3815 144.431 65.6922 144.316C66.0029 144.201 66.3338 144.151 66.6646 144.168H121.58Z" fill="#373738"/>
<path d="M66.6679 178.027H121.583C121.982 178.027 122.378 177.949 122.747 177.796C123.117 177.643 123.452 177.419 123.734 177.136C124.017 176.853 124.241 176.518 124.394 176.149C124.547 175.78 124.626 175.384 124.626 174.984C124.626 174.585 124.547 174.189 124.394 173.82C124.241 173.451 124.017 173.115 123.734 172.833C123.452 172.55 123.117 172.326 122.747 172.173C122.378 172.02 121.982 171.941 121.583 171.941H66.6679C66.2683 171.941 65.8726 172.02 65.5034 172.173C65.1342 172.326 64.7988 172.55 64.5162 172.833C64.2337 173.115 64.0095 173.451 63.8566 173.82C63.7037 174.189 63.625 174.585 63.625 174.984C63.625 175.384 63.7037 175.78 63.8566 176.149C64.0095 176.518 64.2337 176.853 64.5162 177.136C64.7988 177.419 65.1342 177.643 65.5034 177.796C65.8726 177.949 66.2683 178.027 66.6679 178.027Z" fill="#373738"/>
<path d="M66.6684 178.635H121.583C122.553 178.635 123.483 178.249 124.169 177.564C124.855 176.878 125.24 175.948 125.24 174.978C125.24 174.008 124.855 173.078 124.169 172.392C123.483 171.707 122.553 171.321 121.583 171.321H66.6684C65.6986 171.321 64.7685 171.707 64.0828 172.392C63.397 173.078 63.0117 174.008 63.0117 174.978C63.0117 175.948 63.397 176.878 64.0828 177.564C64.7685 178.249 65.6986 178.635 66.6684 178.635ZM121.583 172.529C122.21 172.562 122.801 172.833 123.233 173.288C123.665 173.743 123.906 174.347 123.906 174.975C123.906 175.602 123.665 176.206 123.233 176.661C122.801 177.116 122.21 177.388 121.583 177.42H66.6684C66.3367 177.437 66.005 177.387 65.6935 177.271C65.382 177.156 65.0972 176.979 64.8564 176.75C64.6155 176.521 64.4237 176.246 64.2927 175.941C64.1617 175.636 64.0941 175.307 64.0941 174.975C64.0941 174.643 64.1617 174.314 64.2927 174.009C64.4237 173.704 64.6155 173.428 64.8564 173.199C65.0972 172.971 65.382 172.793 65.6935 172.678C66.005 172.563 66.3367 172.512 66.6684 172.529H121.583Z" fill="#373738"/>
<path d="M66.665 208.671H121.58C122.365 208.635 123.106 208.297 123.649 207.729C124.192 207.16 124.495 206.404 124.495 205.618C124.495 204.832 124.192 204.076 123.649 203.508C123.106 202.939 122.365 202.602 121.58 202.566H66.665C66.2524 202.547 65.8401 202.612 65.4532 202.756C65.0663 202.901 64.7128 203.123 64.414 203.408C64.1153 203.694 63.8774 204.037 63.715 204.417C63.5525 204.796 63.4688 205.205 63.4688 205.618C63.4688 206.031 63.5525 206.44 63.715 206.82C63.8774 207.2 64.1153 207.543 64.414 207.828C64.7128 208.114 65.0663 208.335 65.4532 208.48C65.8401 208.625 66.2524 208.69 66.665 208.671Z" fill="#373738"/>
<path d="M66.6646 209.264H121.58C122.524 209.225 123.416 208.822 124.07 208.14C124.724 207.458 125.089 206.549 125.089 205.605C125.089 204.66 124.724 203.751 124.07 203.069C123.416 202.387 122.524 201.984 121.58 201.945H66.6646C66.1711 201.924 65.6784 202.003 65.2163 202.178C64.7541 202.352 64.3321 202.619 63.9756 202.96C63.619 203.302 63.3353 203.713 63.1414 204.167C62.9476 204.622 62.8477 205.111 62.8477 205.605C62.8477 206.099 62.9476 206.587 63.1414 207.042C63.3353 207.496 63.619 207.907 63.9756 208.249C64.3321 208.59 64.7541 208.857 65.2163 209.031C65.6784 209.206 66.1711 209.285 66.6646 209.264ZM121.58 203.185C122.225 203.185 122.845 203.442 123.302 203.898C123.759 204.355 124.015 204.975 124.015 205.621C124.015 206.267 123.759 206.886 123.302 207.343C122.845 207.8 122.225 208.056 121.58 208.056H66.6646C66.0186 208.056 65.3991 207.8 64.9424 207.343C64.4856 206.886 64.229 206.267 64.229 205.621C64.229 204.975 64.4856 204.355 64.9424 203.898C65.3991 203.442 66.0186 203.185 66.6646 203.185H121.58Z" fill="#373738"/>
<path d="M66.6652 237.051H121.58C122.391 237.051 123.168 236.729 123.741 236.156C124.314 235.583 124.636 234.806 124.636 233.995C124.636 233.185 124.314 232.408 123.741 231.834C123.168 231.261 122.391 230.939 121.58 230.939H66.6652C65.8548 230.939 65.0775 231.261 64.5044 231.834C63.9313 232.408 63.6094 233.185 63.6094 233.995C63.6094 234.806 63.9313 235.583 64.5044 236.156C65.0775 236.729 65.8548 237.051 66.6652 237.051Z" fill="#373738"/>
<path d="M66.6684 237.633H121.583C122.553 237.633 123.483 237.247 124.169 236.562C124.855 235.876 125.24 234.946 125.24 233.976C125.24 233.006 124.855 232.076 124.169 231.39C123.483 230.705 122.553 230.319 121.583 230.319H66.6684C65.6986 230.319 64.7685 230.705 64.0828 231.39C63.397 232.076 63.0117 233.006 63.0117 233.976C63.0117 234.946 63.397 235.876 64.0828 236.562C64.7685 237.247 65.6986 237.633 66.6684 237.633ZM121.583 231.54C122.208 231.573 122.797 231.844 123.228 232.297C123.66 232.751 123.9 233.353 123.9 233.979C123.9 234.605 123.66 235.207 123.228 235.661C122.797 236.115 122.208 236.386 121.583 236.418H66.6684C66.3376 236.435 66.0067 236.385 65.696 236.27C65.3853 236.155 65.1012 235.978 64.861 235.75C64.6208 235.522 64.4296 235.247 64.2989 234.943C64.1682 234.638 64.1008 234.311 64.1008 233.979C64.1008 233.648 64.1682 233.32 64.2989 233.016C64.4296 232.711 64.6208 232.437 64.861 232.209C65.1012 231.98 65.3853 231.804 65.696 231.689C66.0067 231.574 66.3376 231.523 66.6684 231.54H121.583Z" fill="#373738"/>
<path d="M66.6663 267.681H121.581C122.365 267.644 123.104 267.308 123.646 266.74C124.188 266.173 124.49 265.419 124.49 264.634C124.49 263.85 124.188 263.096 123.646 262.528C123.104 261.961 122.365 261.624 121.581 261.588H66.6663C66.2545 261.569 65.8431 261.634 65.457 261.778C65.0709 261.923 64.7181 262.144 64.4199 262.429C64.1218 262.714 63.8844 263.056 63.7223 263.435C63.5602 263.814 63.4766 264.222 63.4766 264.634C63.4766 265.047 63.5602 265.455 63.7223 265.834C63.8844 266.213 64.1218 266.555 64.4199 266.84C64.7181 267.124 65.0709 267.346 65.457 267.49C65.8431 267.635 66.2545 267.699 66.6663 267.681Z" fill="#373738"/>
<path d="M66.6684 268.288H121.583C122.553 268.288 123.483 267.903 124.169 267.217C124.855 266.531 125.24 265.601 125.24 264.631C125.24 263.662 124.855 262.731 124.169 262.046C123.483 261.36 122.553 260.975 121.583 260.975H66.6684C65.6986 260.975 64.7685 261.36 64.0828 262.046C63.397 262.731 63.0117 263.662 63.0117 264.631C63.0117 265.601 63.397 266.531 64.0828 267.217C64.7685 267.903 65.6986 268.288 66.6684 268.288ZM121.583 262.183C122.207 262.215 122.794 262.485 123.224 262.938C123.654 263.39 123.894 263.991 123.894 264.615C123.894 265.239 123.654 265.84 123.224 266.292C122.794 266.745 122.207 267.015 121.583 267.048H66.6684C66.3385 267.065 66.0085 267.014 65.6986 266.9C65.3886 266.785 65.1052 266.609 64.8657 266.381C64.6261 266.154 64.4354 265.88 64.305 265.576C64.1747 265.273 64.1074 264.946 64.1074 264.615C64.1074 264.285 64.1747 263.958 64.305 263.654C64.4354 263.351 64.6261 263.077 64.8657 262.849C65.1052 262.622 65.3886 262.445 65.6986 262.331C66.0085 262.216 66.3385 262.166 66.6684 262.183H121.583Z" fill="#373738"/>
<path d="M66.6666 296.042H121.581C122.39 296.042 123.166 295.721 123.738 295.149C124.31 294.577 124.631 293.801 124.631 292.993C124.631 292.184 124.31 291.408 123.738 290.836C123.166 290.265 122.39 289.943 121.581 289.943H66.6666C65.8578 289.943 65.0822 290.265 64.5103 290.836C63.9385 291.408 63.6172 292.184 63.6172 292.993C63.6172 293.801 63.9385 294.577 64.5103 295.149C65.0822 295.721 65.8578 296.042 66.6666 296.042Z" fill="#373738"/>
<path d="M66.6671 296.657H121.582C122.554 296.657 123.485 296.271 124.172 295.584C124.859 294.897 125.245 293.966 125.245 292.994C125.245 292.023 124.859 291.091 124.172 290.404C123.485 289.717 122.554 289.331 121.582 289.331H66.6671C65.6956 289.331 64.7638 289.717 64.0769 290.404C63.3899 291.091 63.0039 292.023 63.0039 292.994C63.0039 293.966 63.3899 294.897 64.0769 295.584C64.7638 296.271 65.6956 296.657 66.6671 296.657ZM121.582 290.552C122.207 290.584 122.796 290.855 123.227 291.309C123.658 291.763 123.899 292.365 123.899 292.991C123.899 293.617 123.658 294.219 123.227 294.673C122.796 295.127 122.207 295.398 121.582 295.43H66.6671C66.3362 295.447 66.0054 295.396 65.6947 295.282C65.384 295.167 65.0999 294.99 64.8597 294.762C64.6195 294.533 64.4282 294.259 64.2975 293.954C64.1668 293.65 64.0994 293.322 64.0994 292.991C64.0994 292.66 64.1668 292.332 64.2975 292.027C64.4282 291.723 64.6195 291.448 64.8597 291.22C65.0999 290.992 65.384 290.815 65.6947 290.7C66.0054 290.586 66.3362 290.535 66.6671 290.552H121.582Z" fill="#373738"/>
<path d="M66.6663 326.692H121.581C122.37 326.655 123.114 326.317 123.66 325.746C124.205 325.175 124.509 324.416 124.509 323.626C124.509 322.837 124.205 322.077 123.66 321.507C123.114 320.936 122.37 320.597 121.581 320.561H66.6663C65.8776 320.597 65.1332 320.936 64.5879 321.507C64.0426 322.077 63.7383 322.837 63.7383 323.626C63.7383 324.416 64.0426 325.175 64.5879 325.746C65.1332 326.317 65.8776 326.655 66.6663 326.692Z" fill="#373738"/>
<path d="M66.6646 327.287H121.58C122.524 327.247 123.416 326.844 124.07 326.162C124.724 325.48 125.089 324.572 125.089 323.627C125.089 322.682 124.724 321.774 124.07 321.092C123.416 320.41 122.524 320.007 121.58 319.967H66.6646C66.1711 319.946 65.6784 320.026 65.2163 320.2C64.7541 320.375 64.3321 320.641 63.9756 320.983C63.619 321.325 63.3353 321.735 63.1414 322.19C62.9476 322.644 62.8477 323.133 62.8477 323.627C62.8477 324.121 62.9476 324.61 63.1414 325.064C63.3353 325.519 63.619 325.929 63.9756 326.271C64.3321 326.613 64.7541 326.879 65.2163 327.054C65.6784 327.228 66.1711 327.308 66.6646 327.287ZM121.58 321.182C122.206 321.214 122.797 321.486 123.229 321.941C123.661 322.396 123.902 322.999 123.902 323.627C123.902 324.255 123.661 324.858 123.229 325.313C122.797 325.768 122.206 326.04 121.58 326.072H66.6646C66.3329 326.089 66.0012 326.039 65.6897 325.924C65.3782 325.808 65.0934 325.631 64.8525 325.402C64.6117 325.174 64.4199 324.898 64.2889 324.593C64.1579 324.288 64.0903 323.959 64.0903 323.627C64.0903 323.295 64.1579 322.966 64.2889 322.661C64.4199 322.356 64.6117 322.08 64.8525 321.852C65.0934 321.623 65.3782 321.446 65.6897 321.33C66.0012 321.215 66.3329 321.165 66.6646 321.182H121.58Z" fill="#373738"/>
<path d="M66.6663 355.035H121.581C122.365 354.999 123.104 354.662 123.646 354.095C124.188 353.528 124.49 352.773 124.49 351.989C124.49 351.204 124.188 350.45 123.646 349.883C123.104 349.315 122.365 348.979 121.581 348.943H66.6663C66.2545 348.924 65.8431 348.988 65.457 349.133C65.0709 349.277 64.7181 349.499 64.4199 349.784C64.1218 350.068 63.8844 350.41 63.7223 350.79C63.5602 351.169 63.4766 351.577 63.4766 351.989C63.4766 352.401 63.5602 352.809 63.7223 353.188C63.8844 353.567 64.1218 353.909 64.4199 354.194C64.7181 354.479 65.0709 354.7 65.457 354.845C65.8431 354.989 66.2545 355.054 66.6663 355.035Z" fill="#373738"/>
<path d="M66.6659 355.648H121.581C122.549 355.648 123.477 355.264 124.162 354.579C124.846 353.894 125.231 352.966 125.231 351.998C125.231 351.03 124.846 350.101 124.162 349.417C123.477 348.732 122.549 348.348 121.581 348.348H66.6659C65.6978 348.348 64.7693 348.732 64.0848 349.417C63.4002 350.101 63.0156 351.03 63.0156 351.998C63.0156 352.966 63.4002 353.894 64.0848 354.579C64.7693 355.264 65.6978 355.648 66.6659 355.648ZM121.581 349.562C122.227 349.562 122.846 349.819 123.303 350.276C123.76 350.732 124.016 351.352 124.016 351.998C124.016 352.644 123.76 353.263 123.303 353.72C122.846 354.177 122.227 354.434 121.581 354.434H66.6659C66.0199 354.434 65.4004 354.177 64.9436 353.72C64.4869 353.263 64.2302 352.644 64.2302 351.998C64.2302 351.352 64.4869 350.732 64.9436 350.276C65.4004 349.819 66.0199 349.562 66.6659 349.562H121.581Z" fill="#373738"/>
<path d="M66.6652 385.682H121.58C122.391 385.682 123.168 385.36 123.741 384.787C124.314 384.214 124.636 383.437 124.636 382.626C124.636 381.816 124.314 381.038 123.741 380.465C123.168 379.892 122.391 379.57 121.58 379.57H66.6652C65.8548 379.57 65.0775 379.892 64.5044 380.465C63.9313 381.038 63.6094 381.816 63.6094 382.626C63.6094 383.437 63.9313 384.214 64.5044 384.787C65.0775 385.36 65.8548 385.682 66.6652 385.682Z" fill="#373738"/>
<path d="M66.6646 386.292H121.58C122.524 386.252 123.416 385.849 124.07 385.167C124.724 384.485 125.089 383.577 125.089 382.632C125.089 381.687 124.724 380.779 124.07 380.097C123.416 379.415 122.524 379.012 121.58 378.972H66.6646C66.1711 378.951 65.6784 379.031 65.2163 379.205C64.7541 379.38 64.3321 379.646 63.9756 379.988C63.619 380.33 63.3353 380.74 63.1414 381.195C62.9476 381.649 62.8477 382.138 62.8477 382.632C62.8477 383.126 62.9476 383.615 63.1414 384.069C63.3353 384.524 63.619 384.934 63.9756 385.276C64.3321 385.618 64.7541 385.884 65.2163 386.059C65.6784 386.233 66.1711 386.313 66.6646 386.292ZM121.58 380.187C122.229 380.187 122.852 380.445 123.311 380.904C123.77 381.363 124.028 381.986 124.028 382.635C124.028 383.285 123.77 383.907 123.311 384.367C122.852 384.826 122.229 385.084 121.58 385.084H66.6646C66.0152 385.084 65.3924 384.826 64.9332 384.367C64.474 383.907 64.216 383.285 64.216 382.635C64.216 381.986 64.474 381.363 64.9332 380.904C65.3924 380.445 66.0152 380.187 66.6646 380.187H121.58Z" fill="#373738"/>
<path d="M66.665 414.058H121.58C122.365 414.022 123.106 413.684 123.649 413.116C124.192 412.547 124.495 411.791 124.495 411.005C124.495 410.219 124.192 409.463 123.649 408.895C123.106 408.326 122.365 407.989 121.58 407.952H66.665C66.2524 407.933 65.8401 407.998 65.4532 408.143C65.0663 408.288 64.7128 408.51 64.414 408.795C64.1153 409.08 63.8774 409.423 63.715 409.803C63.5525 410.183 63.4688 410.592 63.4688 411.005C63.4688 411.418 63.5525 411.827 63.715 412.207C63.8774 412.587 64.1153 412.93 64.414 413.215C64.7128 413.5 65.0663 413.722 65.4532 413.867C65.8401 414.012 66.2524 414.077 66.665 414.058Z" fill="#373738"/>
<path d="M66.6646 414.666H121.58C122.524 414.626 123.416 414.223 124.07 413.541C124.724 412.859 125.089 411.951 125.089 411.006C125.089 410.061 124.724 409.153 124.07 408.471C123.416 407.789 122.524 407.386 121.58 407.346H66.6646C66.1711 407.325 65.6784 407.405 65.2163 407.579C64.7541 407.754 64.3321 408.02 63.9756 408.362C63.619 408.704 63.3353 409.114 63.1414 409.569C62.9476 410.023 62.8477 410.512 62.8477 411.006C62.8477 411.5 62.9476 411.989 63.1414 412.443C63.3353 412.898 63.619 413.308 63.9756 413.65C64.3321 413.992 64.7541 414.258 65.2163 414.433C65.6784 414.607 66.1711 414.687 66.6646 414.666ZM121.58 408.554C122.229 408.554 122.852 408.812 123.311 409.271C123.77 409.731 124.028 410.353 124.028 411.003C124.028 411.652 123.77 412.275 123.311 412.734C122.852 413.193 122.229 413.451 121.58 413.451H66.6646C66.0152 413.451 65.3924 413.193 64.9332 412.734C64.474 412.275 64.216 411.652 64.216 411.003C64.216 410.353 64.474 409.731 64.9332 409.271C65.3924 408.812 66.0152 408.554 66.6646 408.554H121.58Z" fill="#373738"/>
<path d="M66.665 444.701H121.58C122.365 444.665 123.106 444.328 123.649 443.759C124.192 443.191 124.495 442.435 124.495 441.649C124.495 440.863 124.192 440.107 123.649 439.538C123.106 438.97 122.365 438.632 121.58 438.596H66.665C66.2524 438.577 65.8401 438.642 65.4532 438.787C65.0663 438.932 64.7128 439.153 64.414 439.439C64.1153 439.724 63.8774 440.067 63.715 440.447C63.5525 440.827 63.4688 441.236 63.4688 441.649C63.4688 442.062 63.5525 442.471 63.715 442.85C63.8774 443.23 64.1153 443.573 64.414 443.859C64.7128 444.144 65.0663 444.366 65.4532 444.511C65.8401 444.655 66.2524 444.72 66.665 444.701Z" fill="#373738"/>
<path d="M66.6659 445.282H121.581C122.549 445.282 123.477 444.897 124.162 444.213C124.846 443.528 125.231 442.6 125.231 441.632C125.231 440.664 124.846 439.735 124.162 439.051C123.477 438.366 122.549 437.981 121.581 437.981H66.6659C65.6978 437.981 64.7693 438.366 64.0848 439.051C63.4002 439.735 63.0156 440.664 63.0156 441.632C63.0156 442.6 63.4002 443.528 64.0848 444.213C64.7693 444.897 65.6978 445.282 66.6659 445.282ZM121.581 439.203C122.227 439.203 122.846 439.459 123.303 439.916C123.76 440.373 124.016 440.992 124.016 441.638C124.016 442.284 123.76 442.904 123.303 443.36C122.846 443.817 122.227 444.074 121.581 444.074H66.6659C66.0199 444.074 65.4004 443.817 64.9436 443.36C64.4869 442.904 64.2302 442.284 64.2302 441.638C64.2302 440.992 64.4869 440.373 64.9436 439.916C65.4004 439.459 66.0199 439.203 66.6659 439.203H121.581Z" fill="#373738"/>
<path d="M66.6675 473.056H121.582C121.993 473.075 122.404 473.011 122.789 472.866C123.174 472.722 123.527 472.501 123.824 472.217C124.122 471.933 124.358 471.592 124.52 471.213C124.682 470.835 124.766 470.428 124.766 470.017C124.766 469.605 124.682 469.198 124.52 468.82C124.358 468.442 124.122 468.1 123.824 467.816C123.527 467.532 123.174 467.311 122.789 467.167C122.404 467.022 121.993 466.958 121.582 466.977H66.6675C66.2565 466.958 65.846 467.022 65.4607 467.167C65.0754 467.311 64.7233 467.532 64.4258 467.816C64.1282 468.1 63.8914 468.442 63.7296 468.82C63.5678 469.198 63.4844 469.605 63.4844 470.017C63.4844 470.428 63.5678 470.835 63.7296 471.213C63.8914 471.592 64.1282 471.933 64.4258 472.217C64.7233 472.501 65.0754 472.722 65.4607 472.866C65.846 473.011 66.2565 473.075 66.6675 473.056Z" fill="#373738"/>
<path d="M66.6665 473.684H121.581C122.529 473.644 123.424 473.239 124.081 472.555C124.737 471.871 125.103 470.959 125.103 470.011C125.103 469.062 124.737 468.151 124.081 467.466C123.424 466.782 122.529 466.378 121.581 466.338H66.6665C65.7191 466.378 64.8237 466.782 64.1673 467.466C63.511 468.151 63.1445 469.062 63.1445 470.011C63.1445 470.959 63.511 471.871 64.1673 472.555C64.8237 473.239 65.7191 473.644 66.6665 473.684ZM121.581 467.565C122.229 467.565 122.85 467.823 123.308 468.281C123.766 468.739 124.024 469.36 124.024 470.008C124.024 470.655 123.766 471.276 123.308 471.734C122.85 472.192 122.229 472.45 121.581 472.45H66.6665C66.3458 472.45 66.0283 472.386 65.732 472.264C65.4357 472.141 65.1665 471.961 64.9397 471.734C64.713 471.508 64.533 471.238 64.4103 470.942C64.2876 470.646 64.2244 470.328 64.2244 470.008C64.2244 469.687 64.2876 469.369 64.4103 469.073C64.533 468.777 64.713 468.507 64.9397 468.281C65.1665 468.054 65.4357 467.874 65.732 467.751C66.0283 467.629 66.3458 467.565 66.6665 467.565H121.581Z" fill="#373738"/>
<path d="M66.6652 503.704H121.58C122.391 503.704 123.168 503.383 123.741 502.809C124.314 502.236 124.636 501.459 124.636 500.649C124.636 499.838 124.314 499.061 123.741 498.488C123.168 497.915 122.391 497.593 121.58 497.593H66.6652C65.8548 497.593 65.0775 497.915 64.5044 498.488C63.9313 499.061 63.6094 499.838 63.6094 500.649C63.6094 501.459 63.9313 502.236 64.5044 502.809C65.0775 503.383 65.8548 503.704 66.6652 503.704Z" fill="#373738"/>
<path d="M66.6673 504.32H121.582C122.528 504.281 123.422 503.877 124.077 503.194C124.732 502.511 125.098 501.601 125.098 500.654C125.098 499.707 124.732 498.797 124.077 498.114C123.422 497.431 122.528 497.027 121.582 496.988H66.6673C66.1729 496.967 65.6794 497.046 65.2165 497.221C64.7535 497.396 64.3307 497.663 63.9736 498.005C63.6164 498.348 63.3322 498.759 63.1381 499.214C62.9439 499.669 62.8438 500.159 62.8438 500.654C62.8438 501.149 62.9439 501.639 63.1381 502.094C63.3322 502.549 63.6164 502.96 63.9736 503.303C64.3307 503.645 64.7535 503.912 65.2165 504.087C65.6794 504.262 66.1729 504.341 66.6673 504.32ZM121.582 498.202C122.23 498.202 122.851 498.459 123.309 498.917C123.767 499.375 124.024 499.997 124.024 500.644C124.024 501.292 123.767 501.913 123.309 502.371C122.851 502.829 122.23 503.086 121.582 503.086H66.6673C66.0197 503.086 65.3985 502.829 64.9405 502.371C64.4825 501.913 64.2252 501.292 64.2252 500.644C64.2252 499.997 64.4825 499.375 64.9405 498.917C65.3985 498.459 66.0197 498.202 66.6673 498.202H121.582Z" fill="#373738"/>
<path d="M66.6663 532.06H121.581C122.365 532.024 123.104 531.688 123.646 531.12C124.188 530.553 124.49 529.799 124.49 529.014C124.49 528.23 124.188 527.475 123.646 526.908C123.104 526.341 122.365 526.004 121.581 525.968H66.6663C66.2545 525.949 65.8431 526.014 65.457 526.158C65.0709 526.303 64.7181 526.524 64.4199 526.809C64.1218 527.094 63.8844 527.436 63.7223 527.815C63.5602 528.194 63.4766 528.602 63.4766 529.014C63.4766 529.426 63.5602 529.834 63.7223 530.214C63.8844 530.593 64.1218 530.935 64.4199 531.22C64.7181 531.504 65.0709 531.726 65.457 531.87C65.8431 532.015 66.2545 532.079 66.6663 532.06Z" fill="#373738"/>
<path d="M66.6671 532.669H121.582C122.554 532.669 123.485 532.283 124.172 531.596C124.859 530.909 125.245 529.977 125.245 529.006C125.245 528.034 124.859 527.103 124.172 526.416C123.485 525.729 122.554 525.343 121.582 525.343H66.6671C65.6956 525.343 64.7638 525.729 64.0769 526.416C63.3899 527.103 63.0039 528.034 63.0039 529.006C63.0039 529.977 63.3899 530.909 64.0769 531.596C64.7638 532.283 65.6956 532.669 66.6671 532.669ZM121.582 526.557C122.212 526.59 122.806 526.863 123.24 527.32C123.675 527.778 123.917 528.385 123.917 529.016C123.917 529.647 123.675 530.254 123.24 530.711C122.806 531.168 122.212 531.442 121.582 531.474H66.6671C66.3337 531.491 66.0002 531.44 65.6871 531.324C65.374 531.208 65.0877 531.03 64.8456 530.8C64.6036 530.57 64.4108 530.293 64.2791 529.987C64.1474 529.68 64.0795 529.35 64.0795 529.016C64.0795 528.682 64.1474 528.351 64.2791 528.045C64.4108 527.738 64.6036 527.461 64.8456 527.231C65.0877 527.001 65.374 526.823 65.6871 526.707C66.0002 526.591 66.3337 526.54 66.6671 526.557H121.582Z" fill="#373738"/>
<path d="M66.6675 562.696H121.582C121.993 562.715 122.404 562.65 122.789 562.506C123.174 562.362 123.527 562.141 123.824 561.857C124.122 561.573 124.358 561.231 124.52 560.853C124.682 560.475 124.766 560.068 124.766 559.656C124.766 559.245 124.682 558.838 124.52 558.459C124.358 558.081 124.122 557.74 123.824 557.456C123.527 557.171 123.174 556.951 122.789 556.806C122.404 556.662 121.993 556.598 121.582 556.617H66.6675C66.2565 556.598 65.846 556.662 65.4607 556.806C65.0754 556.951 64.7233 557.171 64.4258 557.456C64.1282 557.74 63.8914 558.081 63.7296 558.459C63.5678 558.838 63.4844 559.245 63.4844 559.656C63.4844 560.068 63.5678 560.475 63.7296 560.853C63.8914 561.231 64.1282 561.573 64.4258 561.857C64.7233 562.141 65.0754 562.362 65.4607 562.506C65.846 562.65 66.2565 562.715 66.6675 562.696Z" fill="#373738"/>
<path d="M66.6671 563.305H121.582C122.554 563.305 123.485 562.919 124.172 562.232C124.859 561.545 125.245 560.613 125.245 559.642C125.245 558.67 124.859 557.738 124.172 557.051C123.485 556.364 122.554 555.979 121.582 555.979H66.6671C66.186 555.979 65.7097 556.073 65.2653 556.257C64.8208 556.441 64.417 556.711 64.0769 557.051C63.7367 557.392 63.4669 557.795 63.2828 558.24C63.0987 558.684 63.0039 559.161 63.0039 559.642C63.0039 560.123 63.0987 560.599 63.2828 561.044C63.4669 561.488 63.7367 561.892 64.0769 562.232C64.417 562.572 64.8208 562.842 65.2653 563.026C65.7097 563.21 66.186 563.305 66.6671 563.305ZM121.582 557.213C122.207 557.245 122.796 557.516 123.227 557.97C123.658 558.423 123.899 559.025 123.899 559.651C123.899 560.277 123.658 560.879 123.227 561.333C122.796 561.787 122.207 562.058 121.582 562.09H66.6671C66.3362 562.107 66.0054 562.057 65.6947 561.942C65.384 561.827 65.0999 561.65 64.8597 561.422C64.6195 561.194 64.4282 560.919 64.2975 560.615C64.1668 560.31 64.0994 559.983 64.0994 559.651C64.0994 559.32 64.1668 558.992 64.2975 558.688C64.4282 558.384 64.6195 558.109 64.8597 557.881C65.0999 557.653 65.384 557.476 65.6947 557.361C66.0054 557.246 66.3362 557.195 66.6671 557.213H121.582Z" fill="#373738"/>
<path d="M66.6666 591.071H121.581C122.39 591.071 123.166 590.749 123.738 590.177C124.31 589.605 124.631 588.83 124.631 588.021C124.631 587.212 124.31 586.437 123.738 585.865C123.166 585.293 122.39 584.972 121.581 584.972H66.6666C65.8578 584.972 65.0822 585.293 64.5103 585.865C63.9385 586.437 63.6172 587.212 63.6172 588.021C63.6172 588.83 63.9385 589.605 64.5103 590.177C65.0822 590.749 65.8578 591.071 66.6666 591.071Z" fill="#373738"/>
<path d="M66.6684 591.679H121.583C122.553 591.679 123.483 591.293 124.169 590.608C124.855 589.922 125.24 588.992 125.24 588.022C125.24 587.052 124.855 586.122 124.169 585.436C123.483 584.75 122.553 584.365 121.583 584.365H66.6684C65.6986 584.365 64.7685 584.75 64.0828 585.436C63.397 586.122 63.0117 587.052 63.0117 588.022C63.0117 588.992 63.397 589.922 64.0828 590.608C64.7685 591.293 65.6986 591.679 66.6684 591.679ZM121.583 585.58C122.231 585.58 122.852 585.837 123.31 586.295C123.768 586.753 124.025 587.374 124.025 588.022C124.025 588.67 123.768 589.291 123.31 589.749C122.852 590.207 122.231 590.464 121.583 590.464H66.6684C66.0207 590.464 65.3996 590.207 64.9416 589.749C64.4836 589.291 64.2263 588.67 64.2263 588.022C64.2263 587.374 64.4836 586.753 64.9416 586.295C65.3996 585.837 66.0207 585.58 66.6684 585.58H121.583Z" fill="#373738"/>
<path d="M66.6666 621.721H121.581C122.39 621.721 123.166 621.4 123.738 620.828C124.31 620.256 124.631 619.48 124.631 618.671C124.631 617.863 124.31 617.087 123.738 616.515C123.166 615.943 122.39 615.622 121.581 615.622H66.6666C65.8578 615.622 65.0822 615.943 64.5103 616.515C63.9385 617.087 63.6172 617.863 63.6172 618.671C63.6172 619.48 63.9385 620.256 64.5103 620.828C65.0822 621.4 65.8578 621.721 66.6666 621.721Z" fill="#373738"/>
<path d="M66.6673 622.315H121.582C122.528 622.275 123.422 621.871 124.077 621.188C124.732 620.505 125.098 619.595 125.098 618.648C125.098 617.702 124.732 616.792 124.077 616.108C123.422 615.425 122.528 615.021 121.582 614.982H66.6673C66.1729 614.961 65.6794 615.04 65.2165 615.215C64.7535 615.39 64.3307 615.657 63.9736 615.999C63.6164 616.342 63.3322 616.753 63.1381 617.208C62.9439 617.664 62.8438 618.153 62.8438 618.648C62.8438 619.143 62.9439 619.633 63.1381 620.088C63.3322 620.543 63.6164 620.954 63.9736 621.297C64.3307 621.639 64.7535 621.906 65.2165 622.081C65.6794 622.256 66.1729 622.335 66.6673 622.315ZM121.582 616.216C121.9 616.217 122.215 616.28 122.509 616.403C122.803 616.525 123.069 616.704 123.293 616.93C123.518 617.156 123.696 617.423 123.817 617.717C123.938 618.012 123.999 618.327 123.998 618.645C124 619.29 123.748 619.909 123.295 620.369C122.843 620.829 122.227 621.091 121.582 621.1H66.6673C66.0166 621.095 65.3937 620.835 64.9323 620.376C64.4709 619.917 64.2079 619.296 64.1994 618.645C64.2079 617.997 64.4719 617.378 64.934 616.923C65.3961 616.468 66.019 616.214 66.6673 616.216H121.582Z" fill="#373738"/>
<path d="M66.6652 650.077H121.58C122.391 650.077 123.168 649.755 123.741 649.181C124.314 648.608 124.636 647.831 124.636 647.021C124.636 646.21 124.314 645.433 123.741 644.86C123.168 644.287 122.391 643.965 121.58 643.965H66.6652C65.8548 643.965 65.0775 644.287 64.5044 644.86C63.9313 645.433 63.6094 646.21 63.6094 647.021C63.6094 647.831 63.9313 648.608 64.5044 649.181C65.0775 649.755 65.8548 650.077 66.6652 650.077Z" fill="#373738"/>
<path d="M66.6684 650.683H121.583C122.553 650.683 123.483 650.298 124.169 649.612C124.855 648.927 125.24 647.997 125.24 647.027C125.24 646.057 124.855 645.127 124.169 644.441C123.483 643.755 122.553 643.37 121.583 643.37H66.6684C66.1882 643.37 65.7127 643.465 65.2691 643.648C64.8254 643.832 64.4223 644.102 64.0828 644.441C63.7432 644.781 63.4739 645.184 63.2901 645.627C63.1063 646.071 63.0117 646.547 63.0117 647.027C63.0117 647.507 63.1063 647.982 63.2901 648.426C63.4739 648.87 63.7432 649.273 64.0828 649.612C64.4223 649.952 64.8254 650.221 65.2691 650.405C65.7127 650.589 66.1882 650.683 66.6684 650.683ZM121.583 644.572C122.208 644.604 122.797 644.875 123.228 645.329C123.66 645.783 123.9 646.385 123.9 647.011C123.9 647.637 123.66 648.239 123.228 648.693C122.797 649.146 122.208 649.417 121.583 649.45H66.6684C66.3376 649.467 66.0067 649.416 65.696 649.301C65.3853 649.186 65.1012 649.009 64.861 648.781C64.6208 648.553 64.4296 648.279 64.2989 647.974C64.1682 647.67 64.1008 647.342 64.1008 647.011C64.1008 646.679 64.1682 646.352 64.2989 646.047C64.4296 645.743 64.6208 645.468 64.861 645.24C65.1012 645.012 65.3853 644.835 65.696 644.72C66.0067 644.605 66.3376 644.555 66.6684 644.572H121.583Z" fill="#373738"/>
<path d="M122.318 707.885C122.883 707.884 123.442 707.772 123.964 707.555C124.485 707.338 124.958 707.02 125.357 706.62C125.755 706.22 126.071 705.745 126.286 705.223C126.5 704.7 126.61 704.141 126.608 703.576V115.903C126.608 115.339 126.497 114.78 126.281 114.259C126.065 113.737 125.749 113.264 125.35 112.865C124.951 112.466 124.477 112.149 123.956 111.933C123.435 111.718 122.876 111.606 122.312 111.606C121.748 111.606 121.189 111.718 120.668 111.933C120.147 112.149 119.673 112.466 119.274 112.865C118.875 113.264 118.559 113.737 118.343 114.259C118.127 114.78 118.016 115.339 118.016 115.903V703.576C118.014 704.142 118.124 704.703 118.34 705.226C118.555 705.749 118.872 706.224 119.272 706.625C119.672 707.025 120.146 707.343 120.669 707.559C121.192 707.775 121.753 707.886 122.318 707.885Z" fill="#373738"/>
<path d="M122.319 708.493C123.623 708.489 124.872 707.97 125.794 707.049C126.717 706.128 127.237 704.88 127.242 703.576V115.903C127.266 115.241 127.157 114.581 126.92 113.962C126.683 113.344 126.324 112.779 125.864 112.302C125.404 111.826 124.853 111.446 124.244 111.187C123.634 110.928 122.978 110.795 122.316 110.795C121.654 110.795 120.998 110.928 120.389 111.187C119.779 111.446 119.228 111.826 118.768 112.302C118.308 112.779 117.949 113.344 117.712 113.962C117.476 114.581 117.366 115.241 117.39 115.903V703.576C117.391 704.223 117.519 704.863 117.767 705.46C118.015 706.057 118.379 706.599 118.836 707.055C119.294 707.512 119.837 707.874 120.435 708.12C121.033 708.367 121.673 708.494 122.319 708.493ZM122.319 112.227C123.296 112.227 124.232 112.614 124.923 113.303C125.615 113.992 126.005 114.927 126.008 115.903V703.576C126.029 704.075 125.949 704.573 125.773 705.04C125.596 705.507 125.327 705.933 124.981 706.293C124.636 706.653 124.221 706.94 123.762 707.136C123.303 707.332 122.809 707.433 122.31 707.433C121.811 707.433 121.317 707.332 120.857 707.136C120.398 706.94 119.983 706.653 119.638 706.293C119.292 705.933 119.023 705.507 118.847 705.04C118.67 704.573 118.59 704.075 118.611 703.576V115.903C118.613 115.418 118.71 114.938 118.897 114.491C119.085 114.043 119.358 113.637 119.703 113.296C120.047 112.954 120.456 112.684 120.905 112.501C121.354 112.317 121.834 112.224 122.319 112.227Z" fill="#373738"/>
<path d="M65.1088 707.886C66.2523 707.886 67.349 707.432 68.1582 706.624C68.9674 705.816 69.4228 704.72 69.4245 703.577V115.903C69.3814 114.79 68.9089 113.737 68.1061 112.964C67.3033 112.192 66.2325 111.761 65.1185 111.761C64.0045 111.761 62.9339 112.192 62.1311 112.964C61.3282 113.737 60.8556 114.79 60.8125 115.903V703.577C60.8108 704.142 60.9207 704.702 61.1359 705.225C61.351 705.747 61.6672 706.223 62.0663 706.623C62.4654 707.023 62.9396 707.341 63.4617 707.558C63.9838 707.774 64.5435 707.886 65.1088 707.886Z" fill="#373738"/>
<path d="M65.1079 708.493C66.4147 708.495 67.6689 707.978 68.5954 707.056C69.5219 706.135 70.0451 704.883 70.0503 703.576V115.903C70.0503 114.596 69.5309 113.342 68.6065 112.417C67.682 111.493 66.4282 110.974 65.1208 110.974C63.8135 110.974 62.5596 111.493 61.6352 112.417C60.7107 113.342 60.1914 114.596 60.1914 115.903V703.576C60.1906 704.222 60.3172 704.862 60.564 705.459C60.8107 706.056 61.1728 706.598 61.6295 707.055C62.0862 707.512 62.6286 707.874 63.2255 708.12C63.8224 708.367 64.462 708.494 65.1079 708.493ZM65.1079 112.227C66.0858 112.225 67.0244 112.611 67.7183 113.3C68.4122 113.989 68.8047 114.925 68.8098 115.903V703.576C68.8306 704.074 68.7506 704.571 68.5745 705.037C68.3983 705.504 68.1296 705.929 67.7847 706.289C67.4398 706.648 67.0258 706.935 66.5674 707.13C66.1091 707.326 65.6159 707.426 65.1176 707.426C64.6193 707.426 64.1262 707.326 63.6678 707.13C63.2095 706.935 62.7954 706.648 62.4505 706.289C62.1056 705.929 61.837 705.504 61.6608 705.037C61.4847 704.571 61.4046 704.074 61.4254 703.576V115.903C61.4254 115.42 61.5207 114.941 61.7058 114.495C61.891 114.048 62.1623 113.643 62.5043 113.301C62.8464 112.96 63.2524 112.689 63.6991 112.505C64.1459 112.321 64.6246 112.226 65.1079 112.227Z" fill="#373738"/>
<path d="M414.517 720.943C409.297 721.589 400.737 722.616 389.573 723.831C304.732 733.037 69.2315 753.194 0 702.285C0 702.285 43.2858 689.157 58.83 666.105C62.7063 660.355 64.8642 653.985 64.1987 647.053C60.8716 612.276 81.2159 661.066 99.9192 682.341C118.623 703.615 149.31 669.814 178.021 668.612C206.732 667.41 217.075 692.678 263.017 681.191C308.958 669.704 343.412 634.1 384.76 686.934C400.601 707.169 409.536 716.789 414.517 720.943Z" fill="white"/>
<path d="M414.516 720.942C418.308 720.476 420.33 720.205 420.33 720.205C420.33 720.205 422.527 727.622 414.516 720.942Z" fill="white"/>
<path d="M182.595 707.278C223.73 709.061 324.224 719.424 389.573 723.83C304.732 733.036 69.2315 753.193 0 702.284C0 702.284 43.2858 689.156 58.83 666.104C58.8946 678.967 52.7377 695.507 34.1312 702.284C-2.31937 715.612 122.874 704.681 182.595 707.278Z" fill="#DAE9EE"/>
<path d="M340.202 100.998C336.158 103.724 328.877 100.087 321.001 86.1384C296.626 42.9172 190.924 32.5156 189.748 45.4368C188.572 58.358 169.391 71.2791 144.408 71.2791C119.425 71.2791 108.229 99.7056 92.1547 111.6C76.0808 123.493 109.094 55.7737 68.8126 106.276C61.5057 115.437 55.2454 119.811 50.4775 120.599C29.0284 124.165 38.6806 54.7013 125.233 22.7731C230.96 -16.2552 298.602 36.8249 298.602 36.8249C342.909 61.7433 348.665 95.3254 340.202 100.998Z" fill="white"/>
<path d="M340.201 101C336.157 103.726 328.876 100.089 321 86.1408C296.625 42.9195 190.923 32.518 189.747 45.4392C188.571 58.3603 169.39 71.2815 144.407 71.2815C119.424 71.2815 108.228 99.708 92.1537 111.602C76.0798 123.496 109.093 55.7761 68.8117 106.278C61.5048 115.44 55.2445 119.813 50.4766 120.602C55.645 115.523 63.766 106.957 67.8426 99.9923C74.0577 89.3711 96.0366 75.2999 94.0919 87.6461C92.1473 99.9923 87.8446 115.498 101.341 96.2645C114.837 77.0314 120.865 69.2722 147.857 65.538C174.849 61.8038 183.745 52.9076 185.47 43.7142C187.195 34.5208 208.153 31.6588 223.375 35.1022C238.596 38.5457 285.9 41.7308 314.682 66.3068C336.461 84.9068 334.484 97.7182 340.201 101Z" fill="#DAE9EE"/>
<path d="M158.097 141.74C158.097 141.74 150.441 135.215 164.222 134.071C178.002 132.928 187.002 133.335 207.295 132.172C227.587 131.009 251.13 124.878 276.423 129.859C301.716 134.84 315.47 135.609 326.576 134.84C337.682 134.071 351.462 143.472 328.514 146.618C305.566 149.764 311.672 138.096 290.617 146.618C269.562 155.139 285.636 145.558 261.544 139.434C237.453 133.309 191.02 153.628 158.097 141.74Z" fill="white"/>
<path d="M1112.97 481.696H1041.25V437.901L842.039 194.183L863.033 179.751L1048.14 299.525L1084.03 437.901L1112.97 481.696Z" fill="#9F4006"/>
<path d="M1112.97 481.696L1076.42 442.296H1041.25V481.696H1112.97Z" fill="#773005"/>
<path d="M642.582 437.902L676.482 299.527L846.009 182.324L1032.11 312.46L1062.84 437.902V677.401H642.582V437.902Z" fill="#E44C2D"/>
<path d="M654.838 437.902H319.18V677.401H654.838V437.902Z" fill="#A41811"/>
<g opacity="0.14">
<path opacity="0.14" d="M1033.71 318.999H654.836V307.214H1024.62L1032.11 312.457L1033.71 318.999Z" fill="#590F0F"/>
<path opacity="0.14" d="M1003.82 284.469H654.836V296.254H1003.82V284.469Z" fill="#590F0F"/>
<path opacity="0.14" d="M968.451 259.925H654.836V271.71H968.451V259.925Z" fill="#590F0F"/>
<path opacity="0.14" d="M941.241 239.651H654.836V251.437H941.241V239.651Z" fill="#590F0F"/>
<path opacity="0.14" d="M935.575 219.126H654.836V230.911H935.575V219.126Z" fill="#590F0F"/>
<path opacity="0.14" d="M1038.8 339.798H654.836V328.013H1035.93L1038.8 339.798Z" fill="#590F0F"/>
<path opacity="0.14" d="M1043.89 360.622H654.836V348.812H1041.02L1043.89 360.622Z" fill="#590F0F"/>
<path opacity="0.14" d="M1048.98 381.421H654.836V369.636H1046.11L1048.98 381.421Z" fill="#590F0F"/>
<path opacity="0.14" d="M1054.08 402.245H654.836V390.435H1051.2L1054.08 402.245Z" fill="#590F0F"/>
<path opacity="0.14" d="M1059.17 423.043H654.836V411.258H1056.3L1059.17 423.043Z" fill="#590F0F"/>
<path opacity="0.14" d="M1062.81 430.71H654.836V442.495H1062.81V430.71Z" fill="#590F0F"/>
<path opacity="0.14" d="M1062.81 450.159H654.836V461.944H1062.81V450.159Z" fill="#590F0F"/>
<path opacity="0.14" d="M1062.81 467.714H654.836V479.499H1062.81V467.714Z" fill="#590F0F"/>
</g>
<path d="M314.336 437.902L348.236 299.526H688.737L654.837 437.902H314.336Z" fill="#C7AE92"/>
<path d="M348.188 299.525L522.507 179.751H863.033L688.738 299.525H348.188Z" fill="#EADCC3"/>
<path d="M612.399 481.697H271.898L314.336 437.902H654.837L612.399 481.697Z" fill="#EADBC5"/>
<path d="M883.626 179.751L703.989 304.119L670.239 442.296L633.717 481.696H612.398L654.836 437.901L688.737 299.525L863.031 179.751H883.626Z" fill="#E1F3F9"/>
<path d="M863.031 179.751L1042.67 304.119L1076.42 442.296L1112.97 481.696H1134.26L1091.82 437.901L1057.92 299.525L883.626 179.751H863.031Z" fill="#E1F3F9"/>
<path d="M1032.11 312.459L1042.67 304.12L874.241 186.418L862.883 194.108L1032.11 312.459Z" fill="#A3440A"/>
<path d="M704.138 156.207H696V149.066L704.138 156.207Z" fill="#878752"/>
<path d="M637.713 144.62H567.191V203.871H637.713V144.62Z" fill="#BF1811"/>
<path d="M637.711 203.871L675.331 179.752H696.001V144.621L666.868 118.953L637.711 144.621V203.871Z" fill="#E44C2D"/>
<path d="M549.441 151.662L586.737 118.953H666.869L629.574 151.662H549.441Z" fill="#EADCC3"/>
<path d="M629.574 151.661H549.441V156.205H629.574V151.661Z" fill="#E1F3F9"/>
<path d="M629.574 156.206L666.87 123.497V118.953L629.574 151.662V156.206Z" fill="#E1F3F9"/>
<path d="M704.142 156.206L666.871 123.497V118.953L704.142 151.662V156.206Z" fill="#E1F3F9"/>
<g opacity="0.14">
<path opacity="0.14" d="M654.838 489.912H319.18V501.697H654.838V489.912Z" fill="#590F0F"/>
<path opacity="0.14" d="M654.838 510.711H319.18V522.496H654.838V510.711Z" fill="#590F0F"/>
<path opacity="0.14" d="M654.838 531.534H319.18V543.319H654.838V531.534Z" fill="#590F0F"/>
<path opacity="0.14" d="M654.838 552.333H319.18V564.118H654.838V552.333Z" fill="#590F0F"/>
<path opacity="0.14" d="M654.838 573.157H319.18V584.942H654.838V573.157Z" fill="#590F0F"/>
<path opacity="0.14" d="M654.838 593.956H319.18V605.741H654.838V593.956Z" fill="#590F0F"/>
<path opacity="0.14" d="M654.838 613.408H319.18V625.193H654.838V613.408Z" fill="#590F0F"/>
<path opacity="0.14" d="M654.838 632.857H319.18V644.643H654.838V632.857Z" fill="#590F0F"/>
<path opacity="0.14" d="M654.838 650.409H319.18V662.194H654.838V650.409Z" fill="#590F0F"/>
</g>
<g opacity="0.14">
<path opacity="0.14" d="M1062.81 489.912H654.836V501.697H1062.81V489.912Z" fill="#590F0F"/>
<path opacity="0.14" d="M1062.81 510.711H654.836V522.496H1062.81V510.711Z" fill="#590F0F"/>
<path opacity="0.14" d="M1062.81 531.534H654.836V543.319H1062.81V531.534Z" fill="#590F0F"/>
<path opacity="0.14" d="M1062.81 552.333H654.836V564.118H1062.81V552.333Z" fill="#590F0F"/>
<path opacity="0.14" d="M1062.81 573.157H654.836V584.942H1062.81V573.157Z" fill="#590F0F"/>
<path opacity="0.14" d="M1062.81 593.956H654.836V605.741H1062.81V593.956Z" fill="#590F0F"/>
<path opacity="0.14" d="M1062.81 613.408H654.836V625.193H1062.81V613.408Z" fill="#590F0F"/>
<path opacity="0.14" d="M1062.81 632.857H654.836V644.643H1062.81V632.857Z" fill="#590F0F"/>
<path opacity="0.14" d="M1062.81 650.409H654.836V662.194H1062.81V650.409Z" fill="#590F0F"/>
</g>
<path d="M850.101 474.307H688.938V656.303H850.101V474.307Z" fill="#FFD312"/>
<path d="M699.347 479.5H688.938V656.302H699.347V479.5Z" fill="#722828"/>
<path d="M850.125 479.5H839.715V656.302H850.125V479.5Z" fill="#722828"/>
<path d="M688.938 479.5V489.912H850.101V479.5H688.938Z" fill="#722828"/>
<path d="M839.718 479.5L764.328 570.51H774.713L850.102 479.5H839.718Z" fill="#722828"/>
<path d="M699.347 479.5L774.712 570.51H764.327L688.938 479.5H699.347Z" fill="#722828"/>
<path d="M835.399 656.301L764.328 570.509H774.713L845.809 656.301H835.399Z" fill="#722828"/>
<path d="M703.643 656.301L774.713 570.509H764.329L693.258 656.301H703.643Z" fill="#722828"/>
<path d="M699.347 474.307H688.938V656.303H699.347V474.307Z" fill="#FCF9DE"/>
<path d="M850.125 474.307H839.715V656.303H850.125V474.307Z" fill="#FCF9DE"/>
<path d="M688.938 474.306V484.718H850.101V474.306H688.938Z" fill="#FCF9DE"/>
<path d="M688.938 656.303V666.715H850.101V656.303H688.938Z" fill="#FCF9DE"/>
<path d="M839.718 474.307L764.328 565.317H774.713L850.102 474.307H839.718Z" fill="#FCF9DE"/>
<path d="M699.347 474.307L774.712 565.317H764.327L688.938 474.307H699.347Z" fill="#FCF9DE"/>
<path d="M839.718 656.301L764.328 565.315H774.713L850.102 656.301H839.718Z" fill="#FCF9DE"/>
<path d="M699.347 656.301L774.712 565.315H764.327L688.938 656.301H699.347Z" fill="#FCF9DE"/>
<path d="M1038.97 474.307H877.809V656.303H1038.97V474.307Z" fill="#FFD312"/>
<path d="M887.996 477.003H877.586V653.805H887.996V477.003Z" fill="#722828"/>
<path d="M1038.78 477.003H1028.37V653.805H1038.78V477.003Z" fill="#722828"/>
<path d="M877.586 477.003V487.415H1038.75V477.003H877.586Z" fill="#722828"/>
<path d="M1028.37 477.003L952.977 568.013H963.386L1038.75 477.003H1028.37Z" fill="#722828"/>
<path d="M887.996 477.003L963.385 568.013H952.975L877.586 477.003H887.996Z" fill="#722828"/>
<path d="M1024.05 653.805L952.977 568.013H963.386L1034.46 653.805H1024.05Z" fill="#722828"/>
<path d="M892.316 653.805L963.387 568.013H952.977L881.906 653.805H892.316Z" fill="#722828"/>
<path d="M888.218 474.307H877.809V656.303H888.218V474.307Z" fill="#FCF9DE"/>
<path d="M1038.98 474.307H1028.57V656.303H1038.98V474.307Z" fill="#FCF9DE"/>
<path d="M877.809 474.306V484.718H1038.97V474.306H877.809Z" fill="#FCF9DE"/>
<path d="M877.785 656.303V666.715H1038.95V656.303H877.785Z" fill="#FCF9DE"/>
<path d="M1028.57 474.307L953.176 565.317H963.586L1038.98 474.307H1028.57Z" fill="#FCF9DE"/>
<path d="M888.193 474.307L963.583 565.317H953.173L877.809 474.307H888.193Z" fill="#FCF9DE"/>
<path d="M1028.57 656.301L953.176 565.315H963.586L1038.98 656.301H1028.57Z" fill="#FCF9DE"/>
<path d="M888.193 656.301L963.583 565.315H953.173L877.809 656.301H888.193Z" fill="#FCF9DE"/>
<path d="M339.199 600.073V665.516H406.675V600.073H339.199Z" fill="#FECF05"/>
<path d="M401.957 666.487H409.82V601.045H401.957V666.487Z" fill="#722828"/>
<path d="M342.394 666.487H350.258V601.045H342.394V666.487Z" fill="#722828"/>
<path d="M409.82 666.466V658.601H342.344V666.466H409.82Z" fill="#722828"/>
<path d="M409.82 608.887V601.021H347.037V608.887H409.82Z" fill="#722828"/>
<path d="M401.308 665.54H409.172V600.097H401.308V665.54Z" fill="#FCF9DE"/>
<path d="M341.695 665.54H349.559V600.097H341.695V665.54Z" fill="#FCF9DE"/>
<path d="M409.148 665.516V657.65H341.672V665.516H409.148Z" fill="#FCF9DE"/>
<path d="M409.148 607.936V600.071H341.672V607.936H409.148Z" fill="#FCF9DE"/>
<path d="M339.199 542.495V607.938H406.675V542.495H339.199Z" fill="#FECF05"/>
<path d="M401.957 605.44H409.82V543.444H401.957V605.44Z" fill="#722828"/>
<path d="M342.394 605.44H350.258V543.444H342.394V605.44Z" fill="#722828"/>
<path d="M409.82 551.308V543.443H342.344V551.308H409.82Z" fill="#722828"/>
<path d="M401.308 607.938H409.172V542.495H401.308V607.938Z" fill="#FCF9DE"/>
<path d="M341.695 607.938H349.559V542.495H341.695V607.938Z" fill="#FCF9DE"/>
<path d="M409.148 607.936V600.071H341.672V607.936H409.148Z" fill="#FCF9DE"/>
<path d="M409.148 550.361V542.496H341.672V550.361H409.148Z" fill="#FCF9DE"/>
<path d="M863.183 330.264H867.601C879.272 330.264 890.828 332.563 901.61 337.03C912.393 341.497 922.19 348.044 930.442 356.298C938.694 364.552 945.24 374.351 949.706 385.136C954.172 395.92 956.471 407.479 956.471 419.152V426.018H774.238V419.152C774.238 407.473 776.539 395.908 781.01 385.118C785.481 374.329 792.034 364.527 800.294 356.272C808.554 348.017 818.36 341.471 829.151 337.008C839.942 332.546 851.506 330.254 863.183 330.264Z" fill="#FFD312"/>
<path d="M868.175 327.767H872.594C884.264 327.767 895.82 330.066 906.603 334.533C917.385 339 927.182 345.547 935.434 353.801C943.686 362.055 950.232 371.854 954.699 382.639C959.165 393.423 961.463 404.982 961.463 416.655V423.521H779.23V416.655C779.23 404.975 781.532 393.411 786.002 382.621C790.473 371.832 797.026 362.03 805.286 353.775C813.547 345.52 823.352 338.974 834.143 334.511C844.934 330.049 856.498 327.757 868.175 327.767V327.767Z" stroke="#FCF9DE" stroke-width="4" stroke-miterlimit="10"/>
<path opacity="0.29" d="M1060.84 429.837L1058.07 423.045L1053.25 411.26L1049.56 402.246L1044.74 390.436L1041.04 381.423L1036.23 369.637L1032.53 360.624L1027.71 348.814L1024.02 339.8L1019.2 328.015L1015.53 319.001L1012.84 312.459L1004.37 307.216L862.881 219.676L729.826 307.216L721.862 312.459L720.14 319.001L717.793 328.015L714.723 339.8L712.376 348.814L709.306 360.624L706.959 369.637L703.864 381.423L701.517 390.436L698.447 402.246L696.1 411.26L693.029 423.045L685.49 451.959L654.835 484.718L633.691 481.696L670.238 442.296L674.931 423.045L677.802 411.26L680.023 402.246L682.894 390.436L685.091 381.423L687.962 369.637L690.159 360.624L693.054 348.814L695.251 339.8L698.122 328.015L700.319 319.001L703.214 307.216L703.963 304.095L862.881 194.108L1024.62 307.216L1032.11 312.459L1033.71 319.001L1035.93 328.015L1038.8 339.8L1041.02 348.814L1043.89 360.624L1046.11 369.637L1048.98 381.423L1051.2 390.436L1054.08 402.246L1056.3 411.26L1059.17 423.045L1060.84 429.837Z" fill="#590F0F"/>
<path d="M567.192 203.871L489.156 202.672L522.507 179.751H567.192V203.871Z" fill="#F2EADB"/>
<path d="M675.331 179.751L637.711 203.871H827.957L863.031 179.751H675.331Z" fill="#F2EADB"/>
<path d="M1124.32 489.884C1124.14 488.927 1123.89 487.984 1123.57 487.063C1118.33 471.782 1090.95 436.751 1078.29 419.947C1064.76 401.97 1056.65 320.073 1048.98 302.795C1042.62 288.463 961.612 239.874 918.725 212.134C910.238 206.641 903.248 201.972 898.754 198.526L898.28 198.176C871.27 177.827 866.102 188.563 852.797 195.679C850.45 196.928 846.281 199.55 840.74 203.17C814.902 220.249 759.359 259.749 721.964 284.493C714.558 289.387 707.942 295.382 702.342 302.27C701.593 303.194 700.869 304.118 700.171 305.067C677.104 336.003 677.703 376.876 674.159 396.377C669.715 420.696 663.799 440.147 633.793 473.779L633.069 474.529C601.64 506.988 461.296 481.869 386.43 481.869C310.991 481.869 293.242 506.089 271.973 495.977C269.943 495.086 268.268 493.545 267.21 491.596C266.152 489.648 265.773 487.403 266.132 485.215C266.339 483.077 266.809 480.972 267.53 478.948C273.346 461.72 294.839 437.475 298.409 426.164C303.602 409.86 326.144 339.648 331.71 310.26C332.454 306.332 333.819 302.548 335.755 299.049C336.329 298.001 336.928 296.977 337.602 295.978C350.733 275.879 380.764 264.243 400.01 251.584C420.705 237.951 472.404 212.009 494.747 193.258C497.254 191.229 499.584 188.99 501.711 186.566C517.638 167.864 533.14 174.406 533.14 174.406H567.091C566.292 186.067 570.236 192.434 576.602 195.655C585.414 200.149 598.944 198.551 610.951 196.653C620.437 195.13 628.975 193.407 633.593 194.281C648.322 197.053 677.653 173.208 688.837 166.541L689.661 166.117H689.861C704.165 160.524 802.496 155.18 855.992 159.076C863.2 159.482 870.377 160.315 877.486 161.572C879.283 161.922 881.08 162.346 882.928 162.821C924.966 173.807 978.213 218.551 1038.65 265.966C1101.73 315.454 1099.26 404.567 1104.25 423.268C1109.25 441.97 1127.57 444.017 1134.21 477.225C1140.85 510.433 1126.55 503.168 1124.32 489.884Z" fill="white"/>
<path d="M962.237 390.683C959.017 387.737 953.65 379.098 948.058 369.635C935.776 348.836 906.045 334.254 888.146 330.709C870.247 327.163 868.175 332.456 862.833 336.901C857.491 341.345 845.234 328.012 825.837 338.424C806.441 348.836 792.661 369.635 784.847 385.49C784.272 386.696 783.604 387.857 782.85 388.96C777.133 397.225 777.558 378.124 777.558 378.124C782.001 346.838 810.01 334.304 826.761 318.998C843.511 303.693 837.121 314.704 877.736 313.081C918.352 311.458 951.528 330.234 961.513 368.611C966.955 389.659 966.107 394.229 962.237 390.683Z" fill="white"/>
<path d="M962.239 390.686C959.018 387.74 953.651 379.101 948.059 369.638C935.777 348.839 906.046 334.257 888.147 330.712C870.248 327.166 868.177 332.459 862.834 336.904C857.492 341.348 845.235 328.015 825.839 338.427C806.442 348.839 792.662 369.638 784.849 385.493C784.273 386.699 783.605 387.86 782.852 388.963C785.897 374.581 796.906 340.549 833.602 331.985C880.484 321.049 920.7 331.436 938.723 351.261C952.778 366.691 961.065 381.098 962.239 390.686Z" fill="#E1F3F9"/>
<path d="M709.109 157.503C708.185 158.777 706.113 158.003 703.342 155.955C692.858 148.24 672.413 122.498 666.846 123.496C662.777 124.195 655.313 132.036 648.473 140.275C645.477 143.871 642.631 147.541 640.235 150.712C638.687 152.784 637.314 154.632 636.241 156.13C629.576 165.369 602.39 151.561 583.244 152.56C579.635 152.708 576.056 153.286 572.584 154.283H572.459C562.749 157.229 559.478 162.547 549.518 161.274C549.047 161.286 548.579 161.195 548.147 161.007C547.715 160.82 547.328 160.541 547.015 160.189C546.701 159.838 546.468 159.422 546.331 158.971C546.194 158.52 546.157 158.045 546.223 157.578C546.672 148.715 567.417 126.642 579.374 117.404C594.078 106.043 665.074 113.259 665.074 113.259L666.921 113.534C682.298 115.032 713.553 151.386 709.109 157.503Z" fill="white"/>
<path d="M572.381 154.407C562.67 157.354 559.4 162.672 549.44 161.398C548.969 161.41 548.501 161.319 548.069 161.132C547.637 160.945 547.25 160.666 546.937 160.314C546.623 159.962 546.39 159.547 546.253 159.096C546.116 158.645 546.079 158.17 546.145 157.703C551.162 160.574 562.695 157.578 572.381 154.407Z" fill="#E1F3F9"/>
<path d="M640.159 150.787C638.611 152.859 637.238 154.707 636.165 156.205C629.499 165.443 602.314 151.636 583.167 152.634C579.558 152.783 575.98 153.361 572.508 154.357C576.702 152.984 580.521 151.561 583.317 150.562C593.502 146.916 622.559 156.38 631.571 156.205C634.242 156.155 637.163 153.883 640.159 150.787Z" fill="#E1F3F9"/>
<path d="M703.342 155.955C692.858 148.24 672.413 122.497 666.846 123.496C662.777 124.195 655.313 132.035 648.473 140.275C652.916 134.107 657.235 127.79 660.954 124.769C669.267 117.853 673.835 124.769 673.835 124.769C673.835 124.769 687.016 136.704 694.355 142.822C698.379 146.399 701.464 150.909 703.342 155.955Z" fill="#E1F3F9"/>
<path d="M1123.57 487.065C1118.33 471.785 1090.95 436.754 1078.29 419.95C1064.76 401.972 1056.65 320.075 1048.98 302.797C1041.32 285.519 925.164 218.528 898.178 198.179C871.193 177.83 866 188.566 852.695 195.682C839.389 202.798 767.27 254.408 721.862 284.445C714.456 289.34 707.84 295.335 702.24 302.223C696.524 301.574 690.008 300.95 682.844 300.4C686.156 294.718 690.641 289.807 696 285.993C729.351 264.021 844.756 196.606 854.467 185.645C864.178 174.684 881.752 179.178 894.409 191.812C907.065 204.446 955.145 227.692 955.145 227.692C955.145 227.692 1044.09 286.218 1048.88 296.206C1053.68 306.193 1059.39 307.916 1060.74 336.505C1062.09 365.094 1095.56 445.243 1107.6 453.857C1117.46 460.998 1125.62 474.231 1123.57 487.065Z" fill="#E1F3F9"/>
<path d="M314.336 679.621C314.336 679.621 313.837 667.96 346.29 669.059C378.742 670.157 430.916 674.602 463.368 656.3C495.82 637.998 515.217 651.306 538.533 658.572C561.849 665.838 648.547 675.151 651.692 656.3C654.837 637.449 656.135 661.543 661.677 666.687C667.219 671.83 773.189 664.19 810.334 670.732C847.48 677.273 883.577 669.633 909.09 671.281C934.602 672.929 1035.7 667.935 1062.81 677.373C1089.92 686.811 1063.41 682.941 952.975 686.262C842.537 689.583 332.01 682.392 314.336 679.621Z" fill="#E1F3F9"/>
<path d="M850.201 475.802C849.227 482.719 825.237 477.55 819.221 480.122C813.205 482.694 744.056 476.801 725.459 477.001C706.861 477.2 704.939 481.071 695.502 487.388C691.533 490.034 689.262 490.009 688.013 489.036C687.415 488.484 686.941 487.811 686.623 487.062C686.304 486.313 686.149 485.505 686.166 484.691C683.969 462.219 713.751 467.712 722.762 470.084C731.774 472.456 794.482 469.885 806.665 471.957C818.847 474.03 847.854 465.166 850.176 474.304C850.292 474.796 850.301 475.307 850.201 475.802Z" fill="white"/>
<path d="M850.199 475.802C849.225 482.719 825.236 477.55 819.219 480.122C813.203 482.694 744.055 476.801 725.457 477.001C706.859 477.201 704.937 481.071 695.501 487.388C691.532 490.035 689.26 490.01 688.012 489.036C692.443 488.039 696.435 485.64 699.395 482.194C704.837 475.228 720.739 474.354 738.488 475.802C756.237 477.251 795.904 477.825 804.865 477.001C812.629 476.252 839.789 480.072 850.199 475.802Z" fill="#E1F3F9"/>
<path d="M1044.49 475.976C1044.29 481.769 1035.15 480.495 1028.34 476.925C1020.3 472.68 980.083 479.222 958.44 479.422C936.797 479.621 920.546 475.626 905.268 478.598C896.878 480.436 888.222 480.715 879.731 479.422C878.086 478.675 876.536 477.736 875.112 476.625C871.368 473.479 875.262 471.631 880.305 467.636C886.695 462.643 911.11 465.14 920.746 463.142C930.381 461.145 928.859 459.247 943.837 461.844C958.815 464.44 989.045 465.639 1010.74 460.645C1032.43 455.652 1039.52 461.844 1043.67 472.006C1044.2 473.26 1044.48 474.611 1044.49 475.976Z" fill="white"/>
<path d="M1044.49 475.978C1044.29 481.771 1035.15 480.497 1028.34 476.927C1020.3 472.682 980.084 479.224 958.441 479.424C936.798 479.624 920.547 475.629 905.269 478.6C896.879 480.438 888.222 480.717 879.731 479.424C878.087 478.677 876.537 477.738 875.113 476.627C881.928 477.503 888.821 477.604 895.658 476.927C908.989 475.529 924.141 471.708 934.676 473.531C945.211 475.354 980.908 477.027 994.588 473.032C1008.27 469.037 1021.77 468.512 1031.01 472.208C1038.12 475.154 1041.67 478.7 1044.49 475.978Z" fill="#E1F3F9"/>
<path d="M702.244 302.222C701.495 303.145 700.771 304.069 700.072 305.018C699.523 305.792 698.974 306.541 698.45 307.315V307.44C698.15 307.864 697.851 308.289 697.601 308.713C697.351 309.138 696.627 310.162 696.178 310.886C695.729 311.61 695.279 312.309 694.855 313.033C693.981 314.506 693.133 316.004 692.359 317.502C692.009 318.152 691.66 318.826 691.335 319.5C690.037 321.997 688.839 324.668 687.815 327.265C687.416 328.289 686.992 329.337 686.617 330.361C686.243 331.385 686.043 331.934 685.768 332.858C685.494 333.782 685.019 334.98 684.695 336.054C683.472 339.849 682.423 343.545 681.55 347.39C681.3 348.363 681.075 349.362 680.875 350.336C679.428 356.928 678.379 363.345 677.63 369.362C677.447 370.544 677.297 371.692 677.181 372.808C677.031 373.981 676.881 375.105 676.757 376.228C675.833 384.094 675.184 390.985 674.26 396.203C669.817 420.523 663.9 439.973 633.894 473.606L633.17 474.355C601.741 506.814 461.397 481.696 386.532 481.696C311.092 481.696 293.343 505.915 272.075 495.803C270.045 494.912 268.369 493.371 267.312 491.423C266.254 489.474 265.875 487.229 266.233 485.041C285.006 484.792 312.415 482.869 326.819 474.305C350.11 460.447 408.924 461.097 454.957 467.713C500.989 474.33 610.354 489.286 633.894 447.738C653.865 412.283 660.855 335.904 683.047 300.424C690.012 300.948 696.528 301.572 702.244 302.222Z" fill="#E1F3F9"/>
<path opacity="0.4" d="M682.845 300.397C660.653 335.853 653.738 412.232 633.692 447.712C610.152 489.31 500.787 474.329 454.755 467.687C408.722 461.045 349.908 460.421 326.617 474.279C312.214 482.843 284.804 484.765 266.031 485.015C266.239 482.877 266.708 480.772 267.429 478.748C273.246 461.52 294.739 437.275 298.309 425.964C303.501 409.66 326.043 339.448 331.61 310.06C332.354 306.132 333.719 302.348 335.654 298.849C336.228 297.801 336.828 296.777 337.502 295.778C412.616 294.979 596.297 293.706 682.845 300.397Z" fill="#E1F3F9"/>
</svg>
