<svg width="440" height="260" viewBox="0 0 440 260" fill="none" xmlns="http://www.w3.org/2000/svg">
<path d="M66.6501 23.85C66.6501 22.2166 66.0834 20.8333 64.95 19.7C63.7834 18.5333 62.4 17.95 60.8 17.95C59.1667 17.95 57.7667 18.5333 56.6 19.7C55.5334 20.7666 54.9667 22.0499 54.9001 23.5499C54.8667 23.5166 54.8334 23.4833 54.8 23.45C54.1 22.75 53.25 22.4 52.25 22.4C51.2167 22.4 50.3501 22.75 49.6501 23.45C49.2501 23.8833 48.9667 24.3666 48.8 24.9C47.7667 24.2333 46.6 23.9 45.3 23.9C43.5667 23.9 42.0834 24.5 40.85 25.7C39.85 26.7333 39.2667 27.9166 39.1 29.25H39.05C38.0167 29.25 37.1501 29.6166 36.4501 30.35C35.7167 31.0833 35.35 31.95 35.35 32.95C35.35 33.2833 35.3834 33.5833 35.4501 33.8499C35.1167 33.9166 34.8167 34.0333 34.55 34.2C34.15 34.4666 33.9501 34.8 33.9501 35.2C33.9501 35.4333 34.0167 35.6333 34.1501 35.7999V35.8499C33.9501 35.8499 33.7667 35.9 33.6 36C33.4 36.1333 33.3 36.2833 33.3 36.45C33.3 36.6166 33.4 36.7499 33.6 36.8499C33.7667 36.9499 33.9501 37.0166 34.1501 37.0499H78.1C78.3334 37.0166 78.55 36.9333 78.75 36.7999C78.9834 36.5999 79.1 36.3666 79.1 36.0999C79.1 35.8333 78.9834 35.6 78.75 35.4C78.6501 35.3333 78.55 35.2999 78.45 35.2999C78.7834 34.8333 78.95 34.3333 78.95 33.7999C78.95 32.9999 78.5667 32.3 77.8001 31.7C77.0667 31.1333 76.1501 30.85 75.0501 30.85C74.1501 30.85 73.3667 31.05 72.7 31.45C72.8667 30.9833 72.95 30.4833 72.95 29.95C72.95 28.75 72.5334 27.7333 71.7 26.9C70.8667 26.0666 69.8501 25.65 68.6501 25.65C67.6834 25.65 66.8334 25.9333 66.1 26.5C66.4667 25.6666 66.6501 24.7833 66.6501 23.85ZM409.4 79.05H409.35C409.217 77.95 408.733 76.9833 407.9 76.15C406.9 75.15 405.683 74.65 404.25 74.65C403.183 74.65 402.233 74.9166 401.4 75.4499C401.267 75.0499 401.033 74.6666 400.7 74.3C400.1 73.7333 399.383 73.4499 398.55 73.4499C397.717 73.4499 397 73.7333 396.4 74.3C396.4 74.3333 396.383 74.3666 396.35 74.4C396.283 73.1333 395.817 72.0666 394.95 71.1999C393.983 70.2333 392.833 69.75 391.5 69.75C390.167 69.75 389.017 70.2333 388.05 71.1999C387.117 72.1333 386.65 73.2666 386.65 74.5999C386.65 75.3999 386.817 76.1333 387.15 76.8C386.55 76.3333 385.85 76.0999 385.05 76.0999C384.05 76.0999 383.217 76.4333 382.55 77.0999C381.85 77.7999 381.5 78.6333 381.5 79.5999C381.5 80.0666 381.567 80.5 381.7 80.9C381.133 80.5666 380.483 80.4 379.75 80.4C378.85 80.4 378.1 80.6166 377.5 81.05C376.867 81.55 376.55 82.1333 376.55 82.8C376.55 83.2333 376.683 83.65 376.95 84.05C376.883 84.05 376.817 84.0833 376.75 84.1499C376.517 84.2833 376.4 84.4666 376.4 84.7C376.4 84.9333 376.517 85.1166 376.75 85.25C376.883 85.35 377.05 85.4333 377.25 85.5H413.4C413.567 85.4666 413.717 85.4 413.85 85.3C414.017 85.2 414.1 85.1 414.1 85C414.1 84.8666 414.017 84.7333 413.85 84.5999C413.717 84.5333 413.567 84.5 413.4 84.5V84.45C413.533 84.3166 413.6 84.1499 413.6 83.95C413.6 83.6166 413.433 83.3499 413.1 83.1499C412.867 83.0166 412.617 82.9166 412.35 82.8499C412.417 82.6166 412.45 82.3666 412.45 82.0999C412.45 81.2666 412.15 80.5499 411.55 79.9499C410.95 79.3499 410.233 79.05 409.4 79.05Z" fill="white"/>
<path d="M283.9 239.85C283.9 239.55 283.817 239.4 283.65 239.4L283.4 239.55C283.267 239.817 283.133 240.183 283 240.65C282.733 241.883 282.517 243.317 282.35 244.95C282.283 245.483 282.233 246.017 282.2 246.55C281.933 245.417 281.65 244.417 281.35 243.55C280.683 241.517 279.817 239.317 278.75 236.95C278.683 236.683 278.55 236.567 278.35 236.6C278.317 236.6 278.283 236.7 278.25 236.9C278.15 237.2 278.2 237.767 278.4 238.6C279.433 241.933 280.233 245 280.8 247.8C280.667 248.7 280.633 249.633 280.7 250.6C280.533 249.833 280.4 249.15 280.3 248.55C279.967 246.817 279.583 245.25 279.15 243.85C279.117 243.583 279.083 243.3 279.05 243L278.75 240.65C278.717 240.517 278.683 240.45 278.65 240.45C278.617 240.383 278.517 240.4 278.35 240.5C278.183 240.633 278.067 240.9 278 241.3L277.7 240.65C277.6 240.45 277.483 240.383 277.35 240.45L277.25 240.65C277.183 241.017 277.267 241.6 277.5 242.4C277.6 242.767 277.7 243.15 277.8 243.55L276.9 254L276.8 254.05L276.9 238.3C276.9 238.133 276.85 238.033 276.75 238C276.65 237.967 276.55 237.967 276.45 238C276.25 238.067 276.117 238.4 276.05 239C275.917 239.633 275.8 240.467 275.7 241.5C275.6 241.5 275.517 241.55 275.45 241.65C275.217 241.917 275.067 242.433 275 243.2C274.667 246.7 274.467 250.2 274.4 253.7C274.267 252.767 274.15 251.483 274.05 249.85C273.95 248.183 273.85 247 273.75 246.3C273.917 244.233 274.233 242.233 274.7 240.3V240C274.567 239.867 274.417 239.85 274.25 239.95C274.05 240.083 273.917 240.317 273.85 240.65C273.017 242.883 272.5 245.017 272.3 247.05C272.167 246.55 272.067 246.1 272 245.7C272 245.467 271.933 245.333 271.8 245.3C271.667 245.233 271.517 245.3 271.35 245.5C271.217 245.633 271.15 245.95 271.15 246.45L271.55 248.85L271.05 247.7C270.95 247.533 270.867 247.433 270.8 247.4C270.733 247.367 270.683 247.367 270.65 247.4C270.483 245.967 270.283 244.783 270.05 243.85C269.417 240.783 268.65 238.1 267.75 235.8C267.617 235.467 267.45 235.367 267.25 235.5C267.183 236.033 267.367 237.067 267.8 238.6C268.133 240.167 268.433 242.183 268.7 244.65V244.75L268.4 245.45C268.2 246.217 268.017 246.933 267.85 247.6L268.1 244.15C268.167 244.083 268.167 244 268.1 243.9C268.033 243.8 267.967 243.75 267.9 243.75C267.833 243.817 267.717 243.967 267.55 244.2L267.8 240.85C267.4 240.983 267.117 241.45 266.95 242.25L265.7 249.45C265.167 251.917 264.933 253.883 265 255.35C265 256.15 265.15 256.767 265.45 257.2H262.65C262.783 256.9 262.883 256.533 262.95 256.1C263.617 253.467 264.033 251.283 264.2 249.55L265.05 246.4C265.817 243.633 266.217 241.433 266.25 239.8C266.25 239.567 266.2 239.417 266.1 239.35C265.933 239.283 265.8 239.367 265.7 239.6C265.5 239.8 265.35 240.15 265.25 240.65L263.9 244.75C263.867 244.183 263.817 243.6 263.75 243C263.75 242.8 263.683 242.7 263.55 242.7C263.517 242.7 263.45 242.733 263.35 242.8C263.183 243.2 263.05 243.633 262.95 244.1V246.2C262.95 247.533 262.7 249.25 262.2 251.35C261.467 254.383 261.083 256.067 261.05 256.4C261.017 256.767 261 257.033 261 257.2H260.35C260.983 254.933 261.45 253.167 261.75 251.9C262.217 249.633 262.467 247.567 262.5 245.7C262.533 244.233 262.467 242.5 262.3 240.5C262.3 240.3 262.267 240.167 262.2 240.1C262.067 240 261.933 240.033 261.8 240.2L261.7 240.65L261.4 245.2C261.333 245.7 261.267 246.267 261.2 246.9C261.167 246.833 261.15 246.783 261.15 246.75L260.75 242.7L260.7 242.6C260.667 242.5 260.583 242.45 260.45 242.45C260.35 242.45 260.283 242.5 260.25 242.6C260.15 242.667 260.1 242.817 260.1 243.05V244.85C260.2 247.317 260.15 249.183 259.95 250.45C259.817 251.283 259.583 252.3 259.25 253.5C259.117 254 258.933 254.683 258.7 255.55C258.7 255.45 258.7 255.367 258.7 255.3L258.6 247.45C258.333 243.517 257.367 239.833 255.7 236.4C255.667 236.233 255.567 236.15 255.4 236.15L255.25 236.4C255.15 236.8 255.2 237.433 255.4 238.3C256.267 241.167 256.733 243.933 256.8 246.6C256.833 247.3 256.8 248.917 256.7 251.45C256.667 253.517 256.717 255.183 256.85 256.45C256.883 256.717 256.95 256.967 257.05 257.2H256.65C256.75 255.867 256.683 253.983 256.45 251.55C256.417 251.183 256.383 250.833 256.35 250.5C256.417 248.033 256.35 245.833 256.15 243.9C255.917 242.233 255.433 239.783 254.7 236.55C253.933 232.85 253.167 230.133 252.4 228.4C252.233 228.067 252.017 227.917 251.75 227.95C251.55 228.017 251.467 228.283 251.5 228.75C251.9 230.983 252.5 234.35 253.3 238.85C253.6 240.783 253.833 242.617 254 244.35C253.733 243.217 253.383 241.817 252.95 240.15L252.35 237.95L252.2 237.65C252 237.517 251.867 237.567 251.8 237.8C251.7 237.967 251.683 238.133 251.75 238.3C251.817 239.033 252.017 240.067 252.35 241.4C252.617 242.8 252.783 243.833 252.85 244.5L253.05 246.7C253.117 248.6 253.167 250.683 253.2 252.95C253.033 251.35 252.717 249.983 252.25 248.85C251.95 248.05 251.433 247.067 250.7 245.9L249.95 244.75L248.8 243.4C248.467 243.033 248.2 242.817 248 242.75C247.833 242.683 247.683 242.7 247.55 242.8C247.517 242.833 247.517 242.917 247.55 243.05C247.617 243.15 247.867 243.533 248.3 244.2C248.667 244.667 249.1 245.45 249.6 246.55C250.5 248.217 251.05 249.55 251.25 250.55L251.45 251.85L251.5 253.9C251.6 255.533 251.667 256.45 251.7 256.65C251.733 256.783 251.783 256.917 251.85 257.05C251.817 257.083 251.783 257.117 251.75 257.15V257.2H251.05V255.85C251.05 255.45 251.017 255.15 250.95 254.95C250.983 254.55 251 254.183 251 253.85C251 251.617 250.517 249.383 249.55 247.15C249.083 245.983 248.417 244.617 247.55 243.05C247.483 242.917 247.417 242.783 247.35 242.65C247.117 242.283 246.917 242.067 246.75 242C246.683 241.967 246.583 241.967 246.45 242C246.383 242.1 246.35 242.233 246.35 242.4C246.35 242.833 246.533 243.483 246.9 244.35C247.833 246.417 248.467 248.133 248.8 249.5C249.267 251.3 249.4 253.033 249.2 254.7C249.067 254.8 248.983 254.9 248.95 255C248.85 255.2 248.75 255.483 248.65 255.85C248.317 255.85 248.117 255.867 248.05 255.9L247.7 256.05C247.567 256.083 247.333 256.083 247 256.05C246.667 256.017 246.433 256.033 246.3 256.1C246.133 256.167 246.033 256.233 246 256.3C245.8 256.267 245.6 256.233 245.4 256.2C245.1 256.133 244.717 256.167 244.25 256.3C243.55 256.433 243.15 256.5 243.05 256.5C242.583 256.567 242.3 256.633 242.2 256.7C241.933 256.867 241.8 257.033 241.8 257.2H241.55V259.55H296.7V257.2H294.2C294.2 257.067 294.2 256.883 294.2 256.65L293.85 253.25C293.783 252.25 293.717 251.333 293.65 250.5C293.65 250.333 293.667 250.15 293.7 249.95C294.133 247.583 294.4 245.767 294.5 244.5C294.567 244.2 294.5 243.983 294.3 243.85C294.167 243.783 294 243.833 293.8 244L293.15 246.75C292.917 245.583 292.733 244.583 292.6 243.75C292.6 243.55 292.483 243.417 292.25 243.35C292.017 243.317 291.883 243.467 291.85 243.8C291.75 244.433 291.767 245.267 291.9 246.3C292 247.267 292.083 248.833 292.15 251C291.95 251.933 291.783 252.733 291.65 253.4C291.383 251.933 291.15 250.783 290.95 249.95C290.817 249.117 290.633 248.367 290.4 247.7L290.35 241.4C289.95 241.8 289.717 242.5 289.65 243.5L289.5 245.7L289.4 245.55C289.2 245.483 289.083 245.45 289.05 245.45C289.017 245.483 289 245.567 289 245.7C289 246.067 289.05 246.533 289.15 247.1C289.183 247.233 289.233 247.417 289.3 247.65L289 251.3C288.933 252.267 288.917 253.15 288.95 253.95C288.983 255.117 289.133 256.133 289.4 257C289.433 257.067 289.467 257.133 289.5 257.2H288.5C288.533 257.1 288.55 256.933 288.55 256.7C288.617 255.733 288.667 254.817 288.7 253.95C288.767 250.05 288.533 246.75 288 244.05V243.75C288 243.617 287.983 243.533 287.95 243.5C287.883 243.433 287.767 243.45 287.6 243.55C287.367 243.683 287.25 244 287.25 244.5L287.15 245.85C286.983 248.817 286.867 251.083 286.8 252.65C286.4 251.517 286.117 250.333 285.95 249.1C286.283 247.6 286.533 246.467 286.7 245.7C287.067 244.033 287.233 242.65 287.2 241.55C287.033 241.75 286.833 242.117 286.6 242.65C286.233 243.483 285.9 244.333 285.6 245.2C285.567 243.133 285.683 240.85 285.95 238.35C286.017 237.85 286.067 237.55 286.1 237.45C286.267 237.183 286.3 237.017 286.2 236.95C286.1 236.883 285.967 236.9 285.8 237C285.433 237.233 285.217 237.667 285.15 238.3C284.45 242 284.233 245.433 284.5 248.6C284.3 249.267 284.167 249.9 284.1 250.5C283.933 251.4 283.85 252.25 283.85 253.05C283.85 253.117 283.85 253.183 283.85 253.25C283.75 252.217 283.7 250.25 283.7 247.35L283.9 239.85ZM273.6 257.1C273.6 257.134 273.6 257.168 273.6 257.2H273.55C273.582 257.168 273.599 257.134 273.6 257.1ZM279.85 257.05C279.917 257.117 279.967 257.167 280 257.2H279.35C279.35 257.133 279.35 257.083 279.35 257.05C279.383 256.75 279.417 256.4 279.45 256C279.583 256.4 279.717 256.75 279.85 257.05ZM267.9 257.2C267.867 257.133 267.85 257.083 267.85 257.05C267.817 254.717 268.167 251.617 268.9 247.75L269 246.8L269.7 251.6V253.8L269.3 256.3L269.2 256.6C269.1 256.733 269.05 256.933 269.05 257.2H267.9ZM285.5 253.75C285.533 253.817 285.567 253.883 285.6 253.95C285.767 254.317 285.917 254.717 286.05 255.15C286.383 255.983 286.717 256.667 287.05 257.2H285.9C285.867 256.867 285.817 256.483 285.75 256.05C285.617 255.35 285.533 254.65 285.5 253.95C285.5 253.883 285.5 253.817 285.5 253.75ZM284.3 257.2C284.3 257.133 284.317 257.083 284.35 257.05C284.35 257.083 284.367 257.133 284.4 257.2H284.3ZM290.35 257.2L290.4 257.15C290.4 257.182 290.417 257.199 290.45 257.2H290.35ZM149.35 242.6V242.65H149.9C149.667 242.517 149.483 242.5 149.35 242.6ZM144.4 241.9L145.15 242.65H146.25C145.683 242.217 145.167 241.883 144.7 241.65C144.567 241.583 144.467 241.567 144.4 241.6C144.267 241.633 144.267 241.733 144.4 241.9ZM153.2 231.1C153.2 231.133 153.217 231.167 153.25 231.2H153.7C153.567 230.833 153.483 230.533 153.45 230.3C153.217 230.4 153.133 230.667 153.2 231.1ZM153.7 232.85H153.25C153.383 233.45 154.033 235.867 155.2 240.1C156 243.1 156.417 245.617 156.45 247.65C156.45 247.95 156.45 248.3 156.45 248.7C156.317 247.267 156.033 245.783 155.6 244.25C154.9 241.417 153.617 238.133 151.75 234.4C151.65 234.867 151.733 235.567 152 236.5C153.567 241.3 154.467 244.933 154.7 247.4C154.733 247.833 154.767 248.267 154.8 248.7C154.9 250.133 154.867 251.533 154.7 252.9C154.7 252.967 154.7 253.033 154.7 253.1C154.533 251.5 154.2 250.033 153.7 248.7C153.367 247.9 152.983 247.15 152.55 246.45C152.217 245.95 151.833 245.467 151.4 245C150.733 244.3 149.983 243.617 149.15 242.95C148.917 242.783 148.733 242.683 148.6 242.65H149.25C148.517 241.817 147.667 240.917 146.7 239.95C146.167 239.45 145.767 239.167 145.5 239.1C145.7 239.533 146.033 240.017 146.5 240.55C147.1 241.283 147.65 241.983 148.15 242.65H148C148.033 242.717 148.1 242.833 148.2 243C148.1 242.867 148 242.75 147.9 242.65H146.8C148 244.15 148.85 245.483 149.35 246.65C149.65 247.317 149.917 248 150.15 248.7C150.517 250 150.767 251.383 150.9 252.85C150.6 251.25 150.2 249.867 149.7 248.7C149.467 248.1 149.167 247.583 148.8 247.15L147.7 245.55C146.733 244.317 145.783 243.35 144.85 242.65H143.75L144.15 243C144.85 243.667 145.633 244.6 146.5 245.8C147.233 246.933 147.733 247.8 148 248.4C148.033 248.467 148.083 248.567 148.15 248.7C148.883 250.2 149.417 252.3 149.75 255C149.85 255.867 150.017 256.6 150.25 257.2H147.6V259.55H198.15L190.25 257.2H189.4C189.4 257.1 189.433 257.017 189.5 256.95L189.65 255.55C189.817 251.75 189.65 248.05 189.15 244.45C189.15 244.25 189.067 244.117 188.9 244.05C188.6 244.15 188.45 244.45 188.45 244.95C188.383 244.983 188.317 245.067 188.25 245.2C188.15 245.4 188.1 245.7 188.1 246.1L187.85 250.5C187.817 251 187.783 251.65 187.75 252.45L187.65 252.35C187.217 250.95 186.917 249.867 186.75 249.1V249.05C186.917 247.85 187.167 246.417 187.5 244.75L188.2 241.6C187.967 241.633 187.817 241.817 187.75 242.15C187.25 243.417 186.833 244.55 186.5 245.55L186.3 246.35C185.967 243.417 186.15 240.183 186.85 236.65C186.417 236.883 186.083 237.417 185.85 238.25C185.55 239.483 185.35 240.95 185.25 242.65L185.05 244.4C185.017 245.933 185.2 247.567 185.6 249.3C185.1 251.9 185.017 254.533 185.35 257.2H184.75V257.15C184.417 253.983 184.217 251.117 184.15 248.55C184.05 247.283 184.017 246.067 184.05 244.9C184.383 242.233 184.65 240.467 184.85 239.6C184.883 239.533 184.883 239.483 184.85 239.45C184.85 239.283 184.817 239.183 184.75 239.15C184.717 239.05 184.6 239.05 184.4 239.15C184.367 239.183 184.317 239.3 184.25 239.5L183.85 240.8C183.383 242.467 183.017 244.05 182.75 245.55C182.483 244.85 182.167 244.1 181.8 243.3C180.633 240.5 179.883 238.467 179.55 237.2C179.55 237.1 179.5 237.033 179.4 237V236.95C179.4 236.817 179.35 236.717 179.25 236.65C179.183 236.65 179.117 236.733 179.05 236.9C178.983 237.033 178.983 237.25 179.05 237.55C179.15 238.617 179.383 239.883 179.75 241.35C180.017 242.25 180.4 243.517 180.9 245.15C181.567 247.417 182.05 249.967 182.35 252.8L180.3 246.05C180 245.183 179.683 244.233 179.35 243.2C178.85 241.867 178.483 240.767 178.25 239.9C178.117 239.933 178 240.05 177.9 240.25L177.95 240.85C178.183 241.783 178.5 243.033 178.9 244.6C178.233 242.533 177.783 240.85 177.55 239.55C177.55 239.35 177.5 239.25 177.4 239.25C177.233 239.15 177.117 239.267 177.05 239.6L177.1 240.65C177.3 241.75 177.633 243.117 178.1 244.75C178.367 245.583 178.767 246.9 179.3 248.7C179.9 250.9 180.4 253.717 180.8 257.15V257.2H179.2C179.2 256.967 179.183 256.667 179.15 256.3L179.1 255.3C179.2 251.767 178.683 248.25 177.55 244.75C176.917 242.817 176.583 241.7 176.55 241.4C176.517 241.233 176.467 241.117 176.4 241.05C176.3 240.95 176.183 240.933 176.05 241L176 241.3C175.967 241.867 176.017 242.55 176.15 243.35C176.283 243.783 176.45 244.433 176.65 245.3C177.05 246.967 177.35 248.967 177.55 251.3C177.35 249.8 177.017 248.3 176.55 246.8L176.1 245.75C175.833 244.95 175.683 244.5 175.65 244.4L175.6 243.8C175.433 243.867 175.35 244 175.35 244.2V244.75L176.15 248.8C176.417 250.1 176.567 251.4 176.6 252.7C176.4 251.267 176.233 250.4 176.1 250.1L175.8 248.85C175.133 246.817 174.733 245.517 174.6 244.95C174.6 244.85 174.583 244.783 174.55 244.75H174.5C175.067 241.017 175.533 238.2 175.9 236.3C175.9 236.1 175.833 236 175.7 236C175.467 236.2 175.233 236.633 175 237.3C174.3 239.533 173.6 242.883 172.9 247.35C172.833 247.35 172.767 247.333 172.7 247.3L172 249.1C171.9 249.4 171.817 249.667 171.75 249.9V249.35C171.75 249.183 171.717 249.05 171.65 248.95C171.617 248.883 171.583 248.85 171.55 248.85C171.683 247.583 171.85 246.333 172.05 245.1V244.85C171.983 244.717 171.883 244.717 171.75 244.85C171.717 244.883 171.65 245 171.55 245.2C171.25 246.1 171.033 246.967 170.9 247.8C170.833 247.7 170.8 247.567 170.8 247.4C170.667 245.267 170.133 242.783 169.2 239.95C168.967 240.317 168.917 240.85 169.05 241.55C169.583 244.45 169.8 247.233 169.7 249.9C169.7 250.233 169.617 251.433 169.45 253.5C169.417 254.067 169.4 254.567 169.4 255L169.15 254.8C169.117 254.733 169.083 254.683 169.05 254.65C168.983 254.45 168.95 254.25 168.95 254.05L168.7 248.95C168.433 245.983 168.15 243.35 167.85 241.05C167.85 240.917 167.817 240.867 167.75 240.9C167.617 240.967 167.533 241.1 167.5 241.3L167.35 237.8C167.317 237.6 167.25 237.483 167.15 237.45C167.017 237.583 166.9 237.883 166.8 238.35C166.767 239.35 166.767 240.833 166.8 242.8C166.8 243.833 166.767 244.8 166.7 245.7C166.633 246.6 166.583 247.383 166.55 248.05C166.45 247.35 166.367 246.633 166.3 245.9C166.233 244.7 166 242.883 165.6 240.45C165.2 240.683 165.05 241.183 165.15 241.95L165.25 245.95C165.217 245.883 165.183 245.833 165.15 245.8V245.75C165.083 245.717 165.033 245.683 165 245.65C164.967 245.283 164.883 244.8 164.75 244.2C164.683 243.667 164.517 243.3 164.25 243.1C164.25 243.133 164.2 243.15 164.1 243.15C164.067 243.317 164.05 243.717 164.05 244.35L164.1 245.85C164.1 245.917 164.1 245.983 164.1 246.05C163.933 246.683 163.717 247.267 163.45 247.8C163.517 247.1 163.6 246.4 163.7 245.7C163.733 244.7 163.733 243.967 163.7 243.5C163.3 242.167 163.1 241.15 163.1 240.45C162.833 240.683 162.717 241.05 162.75 241.55C162.95 242.983 163.05 243.8 163.05 244C163.05 244.233 163.05 244.483 163.05 244.75C162.917 244.25 162.783 243.833 162.65 243.5C162.517 243.233 162.367 243.133 162.2 243.2L162.15 243.45C162.117 243.65 162.117 243.9 162.15 244.2C162.217 244.567 162.25 245 162.25 245.5C162.217 245.233 162.183 244.95 162.15 244.65L161.9 243.6C161.733 243.167 161.633 242.9 161.6 242.8C161.367 243.133 161.25 243.683 161.25 244.45C161.25 247.45 160.9 250 160.2 252.1C160.133 252.333 160.05 252.567 159.95 252.8C159.917 251.733 159.8 250.733 159.6 249.8L159.15 248.05C159.117 247.55 159.083 247.067 159.05 246.6C158.817 245.033 158.383 243.35 157.75 241.55C157.583 240.95 157.333 240.183 157 239.25C156.7 238.483 156.35 237.6 155.95 236.6C155.783 237.233 155.883 238.117 156.25 239.25C156.483 240.317 156.733 241.317 157 242.25C157.029 242.309 157.046 242.342 157.05 242.35C157.046 242.346 157.029 242.329 157 242.3C156.633 241.133 156.167 239.783 155.6 238.25C154.7 235.783 154.067 233.983 153.7 232.85ZM148.4 243.2C148.533 243.333 148.65 243.467 148.75 243.6C149.817 244.533 150.7 245.6 151.4 246.8C151.733 247.4 152.033 248.033 152.3 248.7C152.733 249.767 153.033 250.9 153.2 252.1C153.3 252.6 153.383 253.333 153.45 254.3C153.45 254.567 153.483 254.817 153.55 255.05C153.517 255.483 153.55 256.117 153.65 256.95C153.65 257.017 153.65 257.1 153.65 257.2H152.2C152.367 256.367 152.433 255.35 152.4 254.15C152.3 252.117 151.983 250.3 151.45 248.7C151.417 248.6 151.4 248.5 151.4 248.4C151.067 247.333 150.633 246.383 150.1 245.55C149.7 244.883 149.133 244.1 148.4 243.2ZM161.45 255.65L161.55 255.6L161.65 255.15C161.683 255.017 161.733 254.867 161.8 254.7C161.8 254.767 161.8 254.833 161.8 254.9L161.9 255.4C161.933 255.733 161.833 256.3 161.6 257.1C161.6 257.133 161.6 257.167 161.6 257.2H161.15L161.25 256.85L161.35 256.2L161.4 256.1L161.45 255.65ZM175.45 256.05C175.45 256.383 175.5 256.633 175.6 256.8C175.667 257 175.8 257.117 176 257.15V257.2H173.95C173.983 257.1 174 256.9 174 256.6C174 254.8 174 252.967 174 251.1L174.25 247.05L174.9 250.9C175.233 252.633 175.417 254.35 175.45 256.05ZM164.6 251.55C164.7 251.183 164.8 250.75 164.9 250.25C164.867 250.717 164.85 251.3 164.85 252V256.05C164.85 256.217 164.883 256.383 164.95 256.55C164.95 256.85 164.967 257.067 165 257.2H162.45L162.75 256.05C162.983 255.817 163.25 255.467 163.55 255L163.95 254.1L164.6 251.55Z" fill="#00892C"/>
<path d="M231.86 80.2197V74.2H209.402V80.2197H231.86Z" fill="#313335"/>
<path d="M232.786 75.3577V74.2H208.476V75.3577H232.786Z" fill="#525557"/>
<path d="M259.643 116.107C259.18 112.093 257.56 108.698 254.781 105.919C251.849 103.295 248.53 101.983 244.826 101.983H196.668C193.272 101.983 190.262 103.064 187.638 105.225C185.014 107.231 183.239 109.855 182.313 113.097C181.85 114.795 181.619 116.492 181.619 118.19V243.447C181.619 247.614 183.008 251.319 185.786 254.56L186.944 255.718C188.796 257.261 190.957 258.419 193.427 259.191H194.121L196.436 259.422H245.752L248.762 258.959L249.225 258.728H249.688L253.161 256.644L255.708 254.329L257.097 252.476C258.177 250.778 259.026 248.386 259.643 245.299V116.107Z" fill="#B36940"/>
<path d="M259.643 116.107H253.161V256.644C256.711 254.02 258.872 250.238 259.643 245.299V116.107Z" fill="#C58257"/>
<path d="M217.042 158.708C211.486 164.727 211.177 172.213 216.116 181.166L226.998 152.225C223.294 153.46 219.975 155.621 217.042 158.708Z" fill="#CE9D83"/>
<path d="M227.693 173.988C232.477 169.204 232.014 164.11 226.303 158.708L218.895 179.545C222.445 178.31 225.377 176.458 227.693 173.988Z" fill="#CE9D83"/>
<path d="M181.387 113.791H259.875V113.328C259.875 103.45 256.016 94.9603 248.298 87.8601C240.735 80.7599 231.551 77.2098 220.747 77.2098C209.942 77.2098 200.681 80.7599 192.963 87.8601C185.246 94.8059 181.387 103.295 181.387 113.328V113.791Z" fill="#E2DBD6"/>
<path d="M192.963 87.8601C185.246 94.8059 181.387 103.295 181.387 113.328V113.791H202.456V111.013C202.765 106.845 203.691 102.524 205.234 98.0473C208.321 88.7862 213.029 82.998 219.358 80.6828C224.451 78.8305 230.239 78.7534 236.722 80.4512C231.474 78.2903 226.149 77.2098 220.747 77.2098C209.942 77.2098 200.681 80.7599 192.963 87.8601Z" fill="#B6A7A4"/>
<path d="M257.726 108.733C255.874 99.1635 250.857 91.6775 242.676 86.2751C238.663 83.4968 234.805 81.7218 231.1 80.95C238.972 83.7283 245.069 89.2078 249.391 97.3885C251.552 101.402 252.941 105.183 253.558 108.733H257.726Z" fill="#A2A4A6"/>
<path d="M202.688 113.097H181.619V243.447C181.619 247.923 183.085 251.705 186.018 254.792C188.95 257.879 192.5 259.422 196.668 259.422H202.688V113.097Z" fill="#885031"/>
<path d="M261.959 116.107V110.087H179.303V116.107H261.959Z" fill="#373738"/>
<path d="M261.959 116.106V114.949H179.303V116.106H261.959Z" fill="#999B9E"/>
<path d="M261.959 111.476V110.781H179.303V111.476H261.959Z" fill="#A2A4A6"/>
<path d="M177.219 123.052C177.219 124.133 177.76 124.673 178.84 124.673H262.885C264.274 124.673 264.968 124.133 264.968 123.052C264.968 121.663 264.428 120.969 263.348 120.969H178.84C177.451 120.969 176.911 121.663 177.219 123.052Z" fill="#373738"/>
<path d="M177.914 212.654C177.914 213.271 178.223 213.58 178.84 213.58H262.885C263.656 213.58 264.042 213.271 264.042 212.654C264.042 212.036 263.734 211.727 263.116 211.727H178.84C178.223 211.727 177.914 212.036 177.914 212.654Z" fill="#373738"/>
<path d="M177.914 228.629C177.914 229.246 178.223 229.555 178.84 229.555H262.885C263.656 229.555 264.042 229.246 264.042 228.629C264.042 228.012 263.734 227.703 263.116 227.703H178.84C178.223 227.703 177.914 228.012 177.914 228.629Z" fill="#373738"/>
<path d="M261.033 256.412C261.033 257.647 261.65 258.265 262.885 258.265C264.12 258.265 264.737 257.647 264.737 256.412V104.299C264.737 103.064 264.12 102.446 262.885 102.446C261.65 102.446 261.033 103.064 261.033 104.299V256.412Z" fill="#462718"/>
<path d="M176.525 256.412C176.525 257.647 177.142 258.265 178.377 258.265C179.612 258.265 180.229 257.647 180.229 256.412V104.299C180.229 103.064 179.612 102.446 178.377 102.446C177.142 102.446 176.525 103.064 176.525 104.299V256.412Z" fill="#462718"/>
<path d="M200.141 104.299V111.476H187.407V104.299C187.407 103.681 187.021 103.372 186.249 103.372C185.477 103.372 185.092 103.681 185.092 104.299V239.974L187.407 236.964V235.806H188.333L189.491 234.186H187.407V227.703H194.584L195.973 226.314H187.407V220.526H200.141V221.452L202.456 218.673V104.299C202.456 103.681 202.07 103.372 201.298 103.372C200.527 103.372 200.141 103.681 200.141 104.299ZM187.407 126.988V120.506H200.141V126.988H187.407ZM200.141 113.097V118.885H187.407V113.097H200.141ZM187.407 128.609H200.141V134.397H187.407V128.609ZM200.141 135.786V142.269H187.407V135.786H200.141ZM187.407 157.55V151.299H200.141V157.55H187.407ZM187.407 159.171H200.141V164.959H187.407V159.171ZM200.141 143.89V149.678H187.407V143.89H200.141ZM200.141 166.58V172.831H187.407V166.58H200.141ZM187.407 188.112V181.86H200.141V188.112H187.407ZM200.141 174.451V180.24H187.407V174.451H200.141ZM200.141 189.732V195.521H187.407V189.732H200.141ZM187.407 210.801V205.013H200.141V210.801H187.407ZM200.141 197.141V203.624H187.407V197.141H200.141ZM187.407 212.422H200.141V218.905H187.407V212.422Z" fill="#999B9E"/>
<path d="M186.018 112.402C186.018 112.865 186.249 113.097 186.712 113.097H201.067C201.684 113.097 201.993 112.865 201.993 112.402C201.993 111.939 201.684 111.708 201.067 111.708H186.712C186.249 111.708 186.018 111.939 186.018 112.402Z" fill="#373738"/>
<path d="M186.018 119.811C186.018 120.274 186.249 120.506 186.712 120.506H201.067C201.684 120.506 201.993 120.274 201.993 119.811C201.993 119.194 201.684 118.885 201.067 118.885H186.712C186.249 118.885 186.018 119.194 186.018 119.811Z" fill="#373738"/>
<path d="M186.018 127.683C186.018 128.146 186.249 128.455 186.712 128.609H201.067C201.53 128.455 201.761 128.146 201.761 127.683C201.761 127.22 201.53 126.988 201.067 126.988H186.712C186.249 126.988 186.018 127.22 186.018 127.683Z" fill="#373738"/>
<path d="M186.018 135.092C186.018 135.555 186.249 135.786 186.712 135.786H201.067C201.684 135.786 201.993 135.555 201.993 135.092C201.993 134.629 201.684 134.397 201.067 134.397H186.712C186.249 134.397 186.018 134.629 186.018 135.092Z" fill="#373738"/>
<path d="M186.018 142.964C186.018 143.581 186.249 143.89 186.712 143.89H201.067C201.53 143.89 201.761 143.581 201.761 142.964C201.761 142.501 201.53 142.269 201.067 142.269H186.712C186.249 142.269 186.018 142.501 186.018 142.964Z" fill="#373738"/>
<path d="M186.018 150.373C186.018 150.836 186.249 151.067 186.712 151.067H201.067C201.684 151.067 201.993 150.836 201.993 150.373C201.993 149.91 201.684 149.678 201.067 149.678H186.712C186.249 149.678 186.018 149.91 186.018 150.373Z" fill="#373738"/>
<path d="M186.018 158.476C186.018 158.939 186.249 159.171 186.712 159.171H201.067C201.53 159.171 201.761 158.862 201.761 158.245C201.761 157.782 201.53 157.55 201.067 157.55H186.712C186.249 157.55 186.018 157.859 186.018 158.476Z" fill="#373738"/>
<path d="M186.018 165.653C186.018 166.271 186.249 166.58 186.712 166.58H201.067C201.53 166.58 201.761 166.271 201.761 165.653C201.761 165.19 201.53 164.959 201.067 164.959H186.712C186.249 164.959 186.018 165.19 186.018 165.653Z" fill="#373738"/>
<path d="M186.018 173.757C186.018 174.22 186.249 174.452 186.712 174.452H201.067C201.684 174.452 201.993 174.22 201.993 173.757C201.993 173.14 201.684 172.831 201.067 172.831H186.712C186.249 172.831 186.018 173.14 186.018 173.757Z" fill="#373738"/>
<path d="M186.018 180.934C186.018 181.552 186.249 181.86 186.712 181.86H201.067C201.53 181.86 201.761 181.552 201.761 180.934C201.761 180.471 201.53 180.24 201.067 180.24H186.712C186.249 180.24 186.018 180.471 186.018 180.934Z" fill="#373738"/>
<path d="M186.018 189.038C186.018 189.501 186.249 189.732 186.712 189.732H201.067C201.53 189.732 201.761 189.501 201.761 189.038C201.761 188.42 201.53 188.112 201.067 188.112H186.712C186.249 188.112 186.018 188.42 186.018 189.038Z" fill="#373738"/>
<path d="M186.018 196.215C186.018 196.832 186.249 197.141 186.712 197.141H201.067C201.684 197.141 201.993 196.91 201.993 196.447C201.993 195.829 201.684 195.521 201.067 195.521H186.712C186.249 195.521 186.018 195.752 186.018 196.215Z" fill="#373738"/>
<path d="M186.018 204.319C186.018 204.782 186.249 205.013 186.712 205.013H201.067C201.684 205.013 201.993 204.782 201.993 204.319C201.993 203.856 201.684 203.624 201.067 203.624H186.712C186.249 203.624 186.018 203.856 186.018 204.319Z" fill="#373738"/>
<path d="M186.018 211.727C186.018 212.191 186.249 212.422 186.712 212.422H201.067C201.53 212.422 201.761 212.191 201.761 211.727C201.761 211.11 201.53 210.801 201.067 210.801H186.712C186.249 210.801 186.018 211.11 186.018 211.727Z" fill="#373738"/>
<path d="M186.018 219.599C186.018 220.062 186.249 220.371 186.712 220.525H201.067C201.684 220.525 201.993 220.217 201.993 219.599C201.993 219.136 201.684 218.905 201.067 218.905H186.712C186.249 218.905 186.018 219.136 186.018 219.599Z" fill="#373738"/>
<path d="M186.018 227.008C186.018 227.471 186.249 227.703 186.712 227.703H201.067C201.684 227.703 201.993 227.471 201.993 227.008C201.993 226.545 201.684 226.314 201.067 226.314H186.712C186.249 226.314 186.018 226.545 186.018 227.008Z" fill="#373738"/>
<path d="M186.018 234.88C186.018 235.498 186.249 235.806 186.712 235.806H201.067C201.684 235.806 201.993 235.498 201.993 234.88C201.993 234.417 201.684 234.186 201.067 234.186H186.712C186.249 234.186 186.018 234.417 186.018 234.88Z" fill="#373738"/>
<path d="M186.018 242.289C186.018 242.752 186.249 242.984 186.712 242.984H201.067C201.684 242.984 201.993 242.752 201.993 242.289C201.993 241.826 201.684 241.595 201.067 241.595H186.712C186.249 241.595 186.018 241.826 186.018 242.289Z" fill="#373738"/>
<path d="M200.141 256.875C200.141 257.647 200.527 258.033 201.299 258.033C202.07 258.033 202.456 257.647 202.456 256.875V104.299C202.456 103.681 202.07 103.372 201.299 103.372C200.527 103.372 200.141 103.681 200.141 104.299V256.875Z" fill="#373738"/>
<path d="M185.323 256.875C185.323 257.647 185.632 258.033 186.249 258.033C187.021 258.033 187.407 257.647 187.407 256.875V104.299C187.407 103.681 187.021 103.372 186.249 103.372C185.632 103.372 185.323 103.681 185.323 104.299V256.875Z" fill="#373738"/>
<path d="M118.75 209.65L118.25 210.15C116.883 211.55 115.683 213.017 114.65 214.55L115.2 217H121.1C121.067 216.933 121 216.817 120.9 216.65C120 214.483 119.283 212.15 118.75 209.65ZM119.25 184.65L119.55 184.35L119.8 183C119.767 183.067 119.733 183.1 119.7 183.1C119.3 183.367 118.9 183.717 118.5 184.15C117.867 184.883 117.25 185.933 116.65 187.3C115.95 188.933 115.567 190.267 115.5 191.3C115.5 191.567 115.517 191.883 115.55 192.25C115.617 193.05 115.833 194.183 116.2 195.65C116.367 196.15 116.467 196.6 116.5 197C116.8 198.167 116.967 199.05 117 199.65C117 199.783 117 199.9 117 200C117 200.733 116.583 201.933 115.75 203.6C115.617 203.867 115.467 204.133 115.3 204.4C114.267 206.567 113.75 208.067 113.75 208.9C113.783 209.2 113.8 209.517 113.8 209.85L114.1 212.2C114.267 212.767 114.417 213.35 114.55 213.95C115.45 212.583 116.45 211.233 117.55 209.9L118.65 208.5C118.917 206.867 119.333 205.233 119.9 203.6C119.933 203.5 119.967 203.383 120 203.25C120.233 202.35 120.417 201.45 120.55 200.55V199.95C120.517 199.317 120.333 198.5 120 197.5C119.933 197.333 119.867 197.167 119.8 197C119.4 195.967 119.133 195.15 119 194.55C118.667 193.817 118.383 193.167 118.15 192.6C117.783 191.667 117.567 190.817 117.5 190.05C117.5 189.917 117.5 189.783 117.5 189.65C117.5 189.517 117.5 189.4 117.5 189.3C117.5 189.233 117.5 189.15 117.5 189.05C117.5 188.983 117.5 188.9 117.5 188.8C117.5 188.567 117.533 188.333 117.6 188.1C117.733 187.633 117.9 187.183 118.1 186.75C118.367 186.117 118.75 185.417 119.25 184.65ZM89.6001 140.05L89.1001 140.55C87.7334 141.95 86.5334 143.433 85.5001 145L86.0501 147.45H91.9001C91.8668 147.35 91.8168 147.233 91.7501 147.1C90.8501 144.9 90.1334 142.55 89.6001 140.05ZM88.9501 117.2C89.2168 116.567 89.6001 115.867 90.1001 115.1L90.3501 114.8L90.6501 113.4C90.6168 113.467 90.5834 113.517 90.5501 113.55C90.1501 113.783 89.7334 114.117 89.3001 114.55C88.7001 115.317 88.1001 116.383 87.5001 117.75C86.8001 119.35 86.4168 120.683 86.3501 121.75C86.3501 121.983 86.3668 122.283 86.4001 122.65C86.4668 123.483 86.6834 124.633 87.0501 126.1C87.1834 126.567 87.2834 127.017 87.3501 127.45C87.6168 128.583 87.7668 129.467 87.8001 130.1C87.8001 130.2 87.8001 130.3 87.8001 130.4C87.8001 131.133 87.4001 132.333 86.6001 134C86.4668 134.267 86.3168 134.533 86.1501 134.8C85.1168 136.967 84.6001 138.483 84.6001 139.35C84.6001 139.65 84.6001 139.967 84.6001 140.3L84.9501 142.6C85.0834 143.2 85.2334 143.8 85.4001 144.4C86.2668 143.033 87.2668 141.683 88.4001 140.35L89.5001 138.95C89.7668 137.283 90.1834 135.633 90.7501 134C90.7834 133.9 90.8001 133.8 90.8001 133.7C91.0668 132.767 91.2501 131.85 91.3501 130.95V130.35C91.3168 129.75 91.1334 128.95 90.8001 127.95C90.7668 127.75 90.7168 127.583 90.6501 127.45C90.2501 126.383 89.9668 125.567 89.8001 125C89.4668 124.267 89.2001 123.6 89.0001 123C88.6334 122.067 88.4168 121.217 88.3501 120.45C88.3168 120.35 88.3001 120.217 88.3001 120.05C88.3334 119.95 88.3501 119.85 88.3501 119.75C88.3501 119.65 88.3334 119.55 88.3001 119.45C88.3334 119.417 88.3334 119.35 88.3001 119.25C88.3334 119.017 88.3834 118.767 88.4501 118.5C88.5834 118.067 88.7501 117.633 88.9501 117.2ZM117.85 74.8L117.35 75.3C115.983 76.7 114.783 78.1834 113.75 79.75L114.3 82.2H120.15C120.117 82.1 120.067 81.9834 120 81.85C119.1 79.65 118.383 77.3 117.85 74.8ZM118.9 48.15C118.867 48.2167 118.833 48.2667 118.8 48.3C118.4 48.5334 117.983 48.8667 117.55 49.3C116.95 50.0667 116.35 51.1334 115.75 52.5C115.05 54.1 114.667 55.4334 114.6 56.5C114.6 56.7334 114.617 57.0334 114.65 57.4C114.717 58.2334 114.933 59.3834 115.3 60.85C115.433 61.3167 115.533 61.7667 115.6 62.2C115.867 63.3667 116.017 64.25 116.05 64.85C116.05 64.95 116.05 65.05 116.05 65.15C116.05 65.8834 115.65 67.0834 114.85 68.75C114.717 69.0167 114.567 69.3 114.4 69.6C113.367 71.7334 112.85 73.2334 112.85 74.1C112.85 74.4 112.85 74.7167 112.85 75.05L113.2 77.35C113.333 77.95 113.483 78.55 113.65 79.15C114.517 77.7834 115.517 76.4334 116.65 75.1L117.75 73.7C118.017 72.0334 118.433 70.3834 119 68.75C119.033 68.65 119.05 68.55 119.05 68.45C119.317 67.5167 119.5 66.6 119.6 65.7V65.1C119.567 64.5 119.383 63.7 119.05 62.7C119.017 62.5 118.967 62.3334 118.9 62.2C118.5 61.1334 118.217 60.3167 118.05 59.75C117.717 59.0167 117.45 58.3667 117.25 57.8C116.883 56.8334 116.667 55.9667 116.6 55.2C116.567 55.1 116.55 54.9667 116.55 54.8C116.583 54.7 116.6 54.6 116.6 54.5C116.6 54.4 116.583 54.3 116.55 54.2C116.583 54.1667 116.583 54.1 116.55 54C116.583 53.7667 116.633 53.5167 116.7 53.25C116.833 52.8167 117 52.3834 117.2 51.95C117.467 51.3167 117.85 50.6167 118.35 49.85L118.6 49.55L118.9 48.15ZM329.4 209.65L328.9 210.15C327.533 211.55 326.333 213.017 325.3 214.55L325.85 217H331.7C331.667 216.933 331.617 216.817 331.55 216.65C330.65 214.483 329.933 212.15 329.4 209.65ZM330.15 184.35L330.45 183C330.417 183.067 330.383 183.1 330.35 183.1C329.95 183.367 329.533 183.717 329.1 184.15C328.5 184.883 327.9 185.933 327.3 187.3C326.6 188.933 326.217 190.267 326.15 191.3C326.15 191.567 326.167 191.883 326.2 192.25C326.267 193.05 326.483 194.183 326.85 195.65C326.983 196.15 327.083 196.6 327.15 197C327.417 198.167 327.567 199.05 327.6 199.65C327.6 199.783 327.6 199.9 327.6 200C327.6 200.733 327.2 201.933 326.4 203.6C326.267 203.867 326.117 204.133 325.95 204.4C324.917 206.567 324.4 208.067 324.4 208.9C324.433 209.2 324.45 209.517 324.45 209.85L324.75 212.2C324.917 212.767 325.067 213.35 325.2 213.95C326.1 212.583 327.1 211.233 328.2 209.9L329.3 208.5C329.567 206.867 329.983 205.233 330.55 203.6C330.583 203.5 330.617 203.383 330.65 203.25C330.883 202.35 331.05 201.45 331.15 200.55V199.95C331.15 199.317 330.983 198.5 330.65 197.5C330.583 197.333 330.517 197.167 330.45 197C330.05 195.967 329.767 195.15 329.6 194.55C329.267 193.817 329 193.167 328.8 192.6C328.433 191.667 328.217 190.817 328.15 190.05C328.117 189.917 328.1 189.783 328.1 189.65C328.133 189.517 328.15 189.4 328.15 189.3C328.15 189.233 328.133 189.15 328.1 189.05C328.133 188.983 328.133 188.9 328.1 188.8C328.133 188.567 328.183 188.333 328.25 188.1C328.383 187.633 328.55 187.183 328.75 186.75C329.017 186.117 329.4 185.417 329.9 184.65L330.15 184.35ZM360.2 148.2C359.333 146.033 358.617 143.7 358.05 141.2L357.55 141.7C356.183 143.1 354.983 144.567 353.95 146.1L354.5 148.6H360.4C360.367 148.5 360.3 148.367 360.2 148.2ZM358.55 116.25L358.85 115.9L359.1 114.55C359.067 114.617 359.033 114.667 359 114.7C358.6 114.933 358.2 115.267 357.8 115.7C357.167 116.467 356.55 117.533 355.95 118.9C355.25 120.5 354.867 121.833 354.8 122.9C354.8 123.133 354.817 123.433 354.85 123.8C354.917 124.633 355.133 125.767 355.5 127.2C355.667 127.7 355.767 128.167 355.8 128.6C356.1 129.733 356.267 130.617 356.3 131.25C356.3 131.35 356.3 131.45 356.3 131.55C356.3 132.283 355.883 133.483 355.05 135.15C354.917 135.417 354.767 135.683 354.6 135.95C353.567 138.117 353.05 139.617 353.05 140.45C353.083 140.783 353.1 141.117 353.1 141.45L353.4 143.75C353.567 144.317 353.717 144.917 353.85 145.55C354.75 144.183 355.75 142.833 356.85 141.5L357.95 140.05C358.217 138.417 358.633 136.783 359.2 135.15C359.233 135.05 359.267 134.933 359.3 134.8C359.533 133.9 359.717 133 359.85 132.1V131.5C359.817 130.9 359.633 130.1 359.3 129.1C359.233 128.9 359.167 128.733 359.1 128.6C358.7 127.533 358.433 126.7 358.3 126.1C357.967 125.4 357.683 124.75 357.45 124.15C357.083 123.217 356.883 122.367 356.85 121.6C356.817 121.5 356.8 121.367 356.8 121.2C356.833 121.067 356.85 120.967 356.85 120.9C356.85 120.8 356.833 120.7 356.8 120.6C356.833 120.533 356.833 120.467 356.8 120.4C356.833 120.133 356.867 119.883 356.9 119.65C357.033 119.183 357.2 118.75 357.4 118.35C357.7 117.683 358.083 116.983 358.55 116.25ZM329.95 74.8L329.45 75.3C328.083 76.7 326.883 78.1834 325.85 79.75L326.4 82.2H332.25C332.217 82.1 332.167 81.9834 332.1 81.85C331.2 79.65 330.483 77.3 329.95 74.8ZM331 48.15C330.967 48.2167 330.933 48.2667 330.9 48.3C330.5 48.5334 330.083 48.8667 329.65 49.3C329.05 50.0667 328.45 51.1334 327.85 52.5C327.15 54.1 326.767 55.4334 326.7 56.5C326.7 56.7334 326.717 57.0334 326.75 57.4C326.817 58.2334 327.033 59.3834 327.4 60.85C327.533 61.3167 327.633 61.7667 327.7 62.2C327.967 63.3667 328.117 64.25 328.15 64.85C328.15 64.95 328.15 65.05 328.15 65.15C328.15 65.8834 327.75 67.0834 326.95 68.75C326.817 69.0167 326.667 69.3 326.5 69.6C325.467 71.7334 324.95 73.2334 324.95 74.1C324.983 74.4 325 74.7167 325 75.05L325.3 77.35C325.433 77.95 325.583 78.55 325.75 79.15C326.617 77.7834 327.617 76.4334 328.75 75.1L329.85 73.7C330.117 72.0334 330.533 70.3834 331.1 68.75C331.133 68.65 331.15 68.55 331.15 68.45C331.417 67.5167 331.6 66.6 331.7 65.7V65.1C331.667 64.5 331.483 63.7 331.15 62.7C331.117 62.5 331.067 62.3334 331 62.2C330.6 61.1334 330.317 60.3167 330.15 59.75C329.817 59.0167 329.55 58.3667 329.35 57.8C328.983 56.8334 328.767 55.9667 328.7 55.2C328.667 55.1 328.65 54.9667 328.65 54.8C328.683 54.7 328.7 54.6 328.7 54.5C328.7 54.4 328.683 54.3 328.65 54.2C328.683 54.1667 328.683 54.1 328.65 54C328.683 53.7667 328.733 53.5167 328.8 53.25C328.933 52.8167 329.1 52.3834 329.3 51.95C329.567 51.3167 329.95 50.6167 330.45 49.85L330.7 49.55L331 48.15Z" fill="black"/>
<mask id="mask0_14069_46425" style="mask-type:alpha" maskUnits="userSpaceOnUse" x="274" y="80" width="31" height="28">
<path d="M304.9 94.8296L296.758 80.7276L274.55 93.55L282.692 107.652L304.9 94.8296Z" fill="white"/>
</mask>
<g mask="url(#mask0_14069_46425)">
<path d="M288.046 85.8014L289.838 88.9059C287.396 90.2067 284.286 91.6392 280.508 93.2035C278.621 93.9849 276.977 94.637 275.576 95.1599L279.914 102.673C282.49 101.186 285.347 99.6394 288.486 98.0325C291.594 96.4374 293.333 95.6263 293.702 95.5991L296.169 99.8709L300.756 87.6764L288.046 85.8014Z" fill="#FFFF00"/>
</g>
<mask id="mask1_14069_46425" style="mask-type:alpha" maskUnits="userSpaceOnUse" x="273" y="78" width="31" height="28">
<path d="M303.637 92.6709L295.699 78.923L273.05 92L280.988 105.748L303.637 92.6709Z" fill="white"/>
</mask>
<g mask="url(#mask1_14069_46425)">
<path d="M287.7 83.5465L289.49 86.6473C286.151 88.2313 282.743 90.1735 279.265 92.4738C277.526 93.6228 276.12 94.6139 275.05 95.4472L279.388 102.961C280.805 101.988 282.47 100.892 284.381 99.6734C288.203 97.2352 291.353 95.3989 293.83 94.1645L295.621 97.2654L299.568 85.8404L287.7 83.5465Z" fill="#80D670"/>
</g>
<mask id="mask2_14069_46425" style="mask-type:alpha" maskUnits="userSpaceOnUse" x="282" y="130" width="27" height="18">
<path d="M308.592 146.892L308.381 130.617L282.75 130.95L282.961 147.225L308.592 146.892Z" fill="white"/>
</mask>
<g mask="url(#mask2_14069_46425)">
<path d="M298.304 130.786L298.351 134.368C295.586 134.31 292.174 134.04 288.115 133.559C286.088 133.318 284.335 133.083 282.858 132.855L282.971 141.527C285.943 141.488 289.191 141.535 292.714 141.667C296.203 141.794 298.115 141.936 298.451 142.093L298.515 147.023L308.472 138.63L298.304 130.786Z" fill="#FFFF00"/>
</g>
<mask id="mask3_14069_46425" style="mask-type:alpha" maskUnits="userSpaceOnUse" x="282" y="128" width="27" height="17">
<path d="M308.546 144.377L308.34 128.511L282.2 128.85L282.406 144.716L308.546 144.377Z" fill="white"/>
</mask>
<g mask="url(#mask3_14069_46425)">
<path d="M299.105 128.635L299.151 132.213C295.466 131.964 291.545 131.992 287.388 132.299C285.31 132.451 283.601 132.629 282.26 132.833L282.373 141.505C284.084 141.349 286.07 141.206 288.333 141.077C292.857 140.818 296.501 140.755 299.264 140.889L299.311 144.468L308.334 136.433L299.105 128.635Z" fill="#80D670"/>
</g>
<mask id="mask4_14069_46425" style="mask-type:alpha" maskUnits="userSpaceOnUse" x="272" y="169" width="31" height="28">
<path d="M294.605 196.761L302.744 182.668L280.55 169.85L272.411 183.943L294.605 196.761Z" fill="white"/>
</mask>
<g mask="url(#mask4_14069_46425)">
<path d="M294 177.661L292.208 180.763C289.862 179.299 287.068 177.323 283.827 174.834C282.207 173.591 280.821 172.494 279.669 171.542L275.333 179.051C277.906 180.538 280.673 182.238 283.632 184.153C286.566 186.046 288.136 187.146 288.345 187.452L285.879 191.721L298.726 189.6L294 177.661Z" fill="#FFFF00"/>
</g>
<mask id="mask5_14069_46425" style="mask-type:alpha" maskUnits="userSpaceOnUse" x="273" y="167" width="31" height="28">
<path d="M295.8 194.561L303.735 180.822L281.1 167.75L273.165 181.489L295.8 194.561Z" fill="white"/>
</mask>
<g mask="url(#mask5_14069_46425)">
<path d="M295.736 176.208L293.947 179.307C290.908 177.208 287.524 175.228 283.795 173.367C281.931 172.435 280.371 171.714 279.115 171.203L274.779 178.712C276.329 179.453 278.109 180.346 280.119 181.392C284.139 183.482 287.302 185.291 289.608 186.819L287.818 189.918L299.68 187.627L295.736 176.208Z" fill="#80D670"/>
</g>
<mask id="mask6_14069_46425" style="mask-type:alpha" maskUnits="userSpaceOnUse" x="136" y="80" width="31" height="28">
<path d="M136.507 94.7313L144.646 80.6323L166.85 93.45L158.711 107.549L136.507 94.7313Z" fill="white"/>
</mask>
<g mask="url(#mask6_14069_46425)">
<path d="M153.357 85.7043L151.566 88.8081C154.007 90.1084 157.116 91.5404 160.893 93.104C162.78 93.8851 164.424 94.5369 165.825 95.0595L161.488 102.572C158.913 101.085 156.056 99.5386 152.918 97.9323C149.811 96.3378 148.072 95.527 147.703 95.4999L145.237 99.7708L140.65 87.5797L153.357 85.7043Z" fill="#FFFF00"/>
</g>
<mask id="mask7_14069_46425" style="mask-type:alpha" maskUnits="userSpaceOnUse" x="137" y="78" width="32" height="28">
<path d="M137.771 92.5728L145.706 78.8278L168.35 91.9L160.415 105.645L137.771 92.5728Z" fill="white"/>
</mask>
<g mask="url(#mask7_14069_46425)">
<path d="M153.703 83.4496L151.914 86.5498C155.252 88.1332 158.659 90.0746 162.137 92.3741C163.876 93.5227 165.281 94.5135 166.351 95.3465L162.014 102.859C160.597 101.886 158.933 100.791 157.023 99.5722C153.201 97.1349 150.052 95.2993 147.575 94.0654L145.785 97.1656L141.839 85.7437L153.703 83.4496Z" fill="#80D670"/>
</g>
<mask id="mask8_14069_46425" style="mask-type:alpha" maskUnits="userSpaceOnUse" x="132" y="130" width="27" height="18">
<path d="M132.863 146.739L133.074 130.467L158.7 130.8L158.489 147.072L132.863 146.739Z" fill="white"/>
</mask>
<g mask="url(#mask8_14069_46425)">
<path d="M143.149 130.636L143.102 134.218C145.867 134.159 149.278 133.889 153.336 133.408C155.363 133.167 157.115 132.933 158.592 132.705L158.479 141.375C155.507 141.336 152.26 141.383 148.738 141.515C145.25 141.642 143.337 141.784 143.002 141.941L142.938 146.87L132.982 138.478L143.149 130.636Z" fill="#FFFF00"/>
</g>
<mask id="mask9_14069_46425" style="mask-type:alpha" maskUnits="userSpaceOnUse" x="132" y="128" width="28" height="17">
<path d="M132.909 144.224L133.115 128.361L159.25 128.7L159.044 144.564L132.909 144.224Z" fill="white"/>
</mask>
<g mask="url(#mask9_14069_46425)">
<path d="M142.348 128.485L142.302 132.063C145.986 131.813 149.907 131.842 154.063 132.149C156.14 132.301 157.85 132.479 159.19 132.682L159.077 141.352C157.367 141.197 155.38 141.054 153.119 140.925C148.595 140.666 144.952 140.603 142.189 140.737L142.142 144.315L133.121 136.281L142.348 128.485Z" fill="#80D670"/>
</g>
<mask id="mask10_14069_46425" style="mask-type:alpha" maskUnits="userSpaceOnUse" x="138" y="169" width="32" height="28">
<path d="M146.846 196.703L138.71 182.613L160.9 169.8L169.036 183.89L146.846 196.703Z" fill="white"/>
</mask>
<g mask="url(#mask10_14069_46425)">
<path d="M147.453 177.608L149.244 180.71C151.59 179.246 154.383 177.271 157.624 174.783C159.243 173.54 160.628 172.443 161.781 171.492L166.116 178.999C163.542 180.485 160.776 182.185 157.817 184.099C154.885 185.991 153.314 187.091 153.106 187.397L155.571 191.665L142.727 189.543L147.453 177.608Z" fill="#FFFF00"/>
</g>
<mask id="mask11_14069_46425" style="mask-type:alpha" maskUnits="userSpaceOnUse" x="137" y="167" width="32" height="28">
<path d="M145.652 194.504L137.72 180.767L160.35 167.7L168.282 181.436L145.652 194.504Z" fill="white"/>
</mask>
<g mask="url(#mask11_14069_46425)">
<path d="M145.717 176.155L147.506 179.253C150.544 177.155 153.928 175.176 157.656 173.315C159.519 172.384 161.078 171.663 162.334 171.153L166.669 178.66C165.119 179.401 163.34 180.293 161.33 181.338C157.311 183.428 154.149 185.237 151.843 186.764L153.632 189.862L141.774 187.571L145.717 176.155Z" fill="#80D670"/>
</g>
</svg>
