<svg width="14" height="14" viewBox="0 0 14 14" fill="none" xmlns="http://www.w3.org/2000/svg">
<path d="M7.39083 0.724651C7.14084 0.474585 6.80176 0.33406 6.44816 0.333984H1.66683C1.31321 0.333984 0.974069 0.47446 0.72402 0.724509C0.473972 0.974557 0.333496 1.3137 0.333496 1.66732V6.44865C0.333572 6.80224 0.474097 7.14133 0.724163 7.39132L6.0575 12.7247C6.30753 12.9746 6.64661 13.115 7.00016 13.115C7.35371 13.115 7.69279 12.9746 7.94283 12.7247L12.7242 7.94332C12.9741 7.69328 13.1145 7.3542 13.1145 7.00065C13.1145 6.6471 12.9741 6.30802 12.7242 6.05798L7.39083 0.724651ZM3.66683 5.00065C3.31312 5.00056 2.97393 4.85997 2.72388 4.60979C2.47383 4.35962 2.33341 4.02036 2.3335 3.66665C2.33358 3.31294 2.47418 2.97375 2.72435 2.7237C2.97453 2.47366 3.31379 2.33323 3.6675 2.33332C4.02121 2.33341 4.36039 2.474 4.61044 2.72418C4.86049 2.97435 5.00092 3.31361 5.00083 3.66732C5.00074 4.02103 4.86015 4.36022 4.60997 4.61026C4.3598 4.86031 4.02054 5.00074 3.66683 5.00065Z" fill="black"/>
</svg>
