<svg width="14" height="16" viewBox="0 0 14 16" fill="none" xmlns="http://www.w3.org/2000/svg">
<path d="M9.33317 2.66797H10.9998C11.3535 2.66797 11.6926 2.80844 11.9426 3.05849C12.1927 3.30854 12.3332 3.64768 12.3332 4.0013V12.668C12.3332 13.0216 12.1927 13.3607 11.9426 13.6108C11.6926 13.8608 11.3535 14.0013 10.9998 14.0013H2.99984C2.64622 14.0013 2.30708 13.8608 2.05703 13.6108C1.80698 13.3607 1.6665 13.0216 1.6665 12.668V4.0013C1.6665 3.64768 1.80698 3.30854 2.05703 3.05849C2.30708 2.80844 2.64622 2.66797 2.99984 2.66797H4.6665" stroke="#9E9E9E" stroke-width="2" stroke-linecap="round" stroke-linejoin="round"/>
<path d="M4.74701 2.34398C4.81911 2.05553 4.98556 1.79946 5.21989 1.61645C5.45423 1.43345 5.74301 1.33403 6.04034 1.33398H7.95834C8.25567 1.33403 8.54445 1.43345 8.77879 1.61645C9.01313 1.79946 9.17957 2.05553 9.25167 2.34398L9.66634 4.00065H4.33301L4.74701 2.34398Z" stroke="#9E9E9E" stroke-width="2" stroke-linecap="round" stroke-linejoin="round"/>
<path d="M5 8H9M5 10.6667H9" stroke="#9E9E9E" stroke-width="2" stroke-linecap="round"/>
</svg>
