<svg id="Layer_1" data-name="Layer 1" xmlns="http://www.w3.org/2000/svg" viewBox="0 0 2566.68 1149.59"><defs><style>.cls-1{fill:#ff3e35;}.cls-2{fill:#ffa200;}.cls-3{fill:#ffe40a;}.cls-4{fill:#6abf30;}.cls-5{fill:#30cef5;}.cls-6{fill:#024ddc;}.cls-7{fill:#723ef8;}</style></defs><title>Rainbow</title><path d="M2533.72,837.73l-5.8-5.64-7.12-6.92c-.71-.68-1.45-1.42-2.2-2.12l-2.34-2.2-5.15-4.87-5.8-5.46c-2-1.92-4.27-3.92-6.56-6s-4.71-4.3-7.21-6.6q-1.87-1.73-3.87-3.48l-4.05-3.59-8.56-7.59-9.28-8c-6.35-5.55-13.29-11.23-20.55-17.31-14.65-12-31.08-25-49.37-38.73s-38.47-28-60.47-42.56-45.86-29.49-71.54-44.31-53.22-29.48-82.47-43.75-60.29-28-92.91-41l-3.06-1.24-3.08-1.19-6.18-2.38-6.21-2.4-3.11-1.2-3.14-1.16-12.61-4.65-3.17-1.17-3.2-1.13-6.4-2.25c-8.53-3.08-17.22-5.93-25.94-8.87-4.37-1.46-8.78-2.83-13.19-4.26l-6.64-2.12c-2.21-.71-4.45-1.36-6.68-2a1373.64,1373.64,0,0,0-481.08-58.26,1388.59,1388.59,0,0,0-257.26,38.88,1421.52,1421.52,0,0,0-246.11,86A1480.39,1480.39,0,0,0,781,702.44c-16.94,11.64-33.62,23.39-49.8,35.49-8.16,6-16.11,12.12-24.06,18.19l-3,2.28-2.94,2.32-5.87,4.63L689.53,770c-1.95,1.54-3.9,3.07-5.81,4.64-30.85,24.85-60.17,50.27-87.84,76A1729.85,1729.85,0,0,0,449.44,1005c-21.2,25.29-40.82,50.11-58.95,74.13q-3.39,4.52-6.73,9l-3.34,4.44-3.25,4.45-12.78,17.52-12.18,17.2c-1,1.41-2,2.82-3,4.22l-2.9,4.23-5.76,8.36-5.66,8.22q-2.75,4.11-5.47,8.16l-10.62,15.92-10.06,15.5c-1.63,2.54-3.29,5-4.87,7.54l-4.69,7.44q-4.63,7.38-9.1,14.45l-8.52,13.94c-5.61,9.06-10.74,17.82-15.67,26.11-19.59,33.22-34.08,59.85-43.88,78-1.24,2.26-2.37,4.42-3.43,6.44s-2,3.9-3,5.64l-4.61,8.79c-2.48,4.73-3.77,7.17-3.77,7.17l3.64-7.24,4.45-8.87,2.86-5.7c1-2,2.11-4.21,3.31-6.5,9.46-18.38,23.48-45.27,42.48-78.88,4.78-8.39,9.75-17.26,15.2-26.43l8.29-14.11q4.32-7.17,8.84-14.63l4.57-7.55c1.53-2.54,3.14-5.06,4.74-7.64q4.8-7.69,9.79-15.7l10.35-16.15c1.77-2.74,3.54-5.5,5.34-8.28s3.66-5.54,5.52-8.34,3.72-5.63,5.61-8.48q1.41-2.14,2.84-4.29l2.92-4.29q5.85-8.61,11.9-17.47l12.49-17.8c1.05-1.51,2.11-3,3.18-4.53l3.26-4.51,6.59-9.12c17.75-24.43,37-49.7,57.82-75.49a1738.73,1738.73,0,0,1,144.44-158c27.4-26.38,56.48-52.53,87.14-78.17,1.9-1.62,3.84-3.2,5.78-4.78l5.82-4.77,5.84-4.78,2.93-2.39,3-2.35c7.92-6.28,15.83-12.64,24-18.81,16.11-12.52,32.75-24.68,49.66-36.76a1499.44,1499.44,0,0,1,220.8-130,1444.69,1444.69,0,0,1,248.53-91.89,1411.31,1411.31,0,0,1,756,6.41c2.31.67,4.63,1.3,6.92,2l6.87,2.07c4.57,1.38,9.13,2.7,13.65,4.12,9,2.87,18,5.65,26.87,8.65l6.64,2.2,3.31,1.1,3.28,1.14,13.08,4.56,3.26,1.14,3.23,1.18,6.44,2.35,6.41,2.34,3.2,1.17,3.17,1.21c33.85,12.8,66.14,26.33,96.58,40.55s59.16,28.84,86,43.63,51.77,29.78,74.82,44.48,44.2,29.11,63.41,42.93,36.49,27,51.91,39.21c7.65,6.17,14.94,11.93,21.64,17.56l9.78,8.12,9,7.72,4.27,3.65q2.1,1.77,4.08,3.54l7.61,6.71c2.42,2.15,4.74,4.16,6.94,6.14l6.24,5.68c2,1.78,3.82,3.47,5.55,5.05.87.78,1.71,1.55,2.51,2.28l2.26,2.11,7.25,6.79,5.9,5.53Z" transform="translate(-2.53 -418.89)"/><path class="cls-1" d="M2533.72,837.73l-5.8-5.64-7.12-6.92c-.71-.68-1.45-1.42-2.2-2.12l-2.34-2.2-5.15-4.87-5.8-5.46c-2-1.92-4.27-3.92-6.56-6s-4.71-4.3-7.21-6.6q-1.87-1.73-3.87-3.48l-4.05-3.59-8.56-7.59-9.28-8c-6.35-5.55-13.29-11.23-20.55-17.31-14.65-12-31.08-25-49.37-38.73s-38.47-28-60.47-42.56-45.86-29.49-71.54-44.31-53.22-29.48-82.47-43.75-60.29-28-92.91-41l-3.06-1.24-3.08-1.19-6.18-2.38-6.21-2.4-3.11-1.2-3.14-1.16-12.61-4.66-3.17-1.16-3.2-1.13-6.4-2.25c-8.53-3.08-17.22-5.93-25.94-8.87-4.37-1.46-8.78-2.83-13.19-4.26l-6.64-2.12c-2.21-.71-4.45-1.36-6.68-2a1373.64,1373.64,0,0,0-481.08-58.26,1388.59,1388.59,0,0,0-257.26,38.88,1421.52,1421.52,0,0,0-246.11,86A1480.39,1480.39,0,0,0,781,702.44c-16.94,11.64-33.62,23.39-49.8,35.49-8.16,6-16.11,12.12-24.06,18.19l-3,2.28-2.94,2.32-5.87,4.63L689.53,770c-1.95,1.54-3.9,3.07-5.81,4.64-30.85,24.85-60.17,50.27-87.84,76A1728.49,1728.49,0,0,0,449.44,1005c-21.2,25.29-40.82,50.11-58.95,74.13l-6.74,9-3.33,4.44-3.25,4.45-12.78,17.52-12.18,17.2c-1,1.41-2,2.82-3,4.22l-2.91,4.23-5.75,8.36-5.66,8.22q-2.75,4.11-5.47,8.16l-10.62,15.93q-5.13,7.88-10.06,15.49c-1.63,2.54-3.29,5-4.87,7.54l-4.69,7.44q-4.63,7.38-9.1,14.45l-8.52,13.94c-5.61,9.06-10.74,17.82-15.67,26.11-19.59,33.22-34.08,59.85-43.88,78-1.24,2.26-2.37,4.42-3.43,6.44s-2,3.9-3,5.64l-4.61,8.79c-2.48,4.73-3.77,7.17-3.77,7.17l3.64-7.24,4.45-8.87,2.86-5.7c1-2,2.11-4.21,3.31-6.5,9.46-18.38,23.48-45.28,42.48-78.88,4.78-8.39,9.75-17.26,15.2-26.43l8.29-14.11q4.32-7.17,8.84-14.63l4.57-7.55c1.53-2.54,3.14-5.06,4.74-7.64q4.8-7.69,9.79-15.7l10.35-16.15c1.77-2.74,3.54-5.5,5.34-8.28s3.66-5.54,5.52-8.34,3.72-5.63,5.61-8.48q1.41-2.14,2.84-4.29l2.92-4.29q5.85-8.61,11.9-17.47l12.49-17.8c1.05-1.51,2.11-3,3.18-4.53l3.26-4.51,6.59-9.12c17.75-24.43,37-49.7,57.82-75.49a1738.73,1738.73,0,0,1,144.44-158c27.4-26.38,56.48-52.53,87.14-78.17,1.9-1.62,3.84-3.2,5.78-4.78l5.82-4.77,5.84-4.78,2.93-2.39,3-2.35c7.92-6.28,15.83-12.64,24-18.81,16.11-12.52,32.75-24.68,49.65-36.76a1500.07,1500.07,0,0,1,220.81-130,1444.69,1444.69,0,0,1,248.53-91.89,1411.31,1411.31,0,0,1,756,6.41c2.31.67,4.63,1.3,6.92,2l6.87,2.05c4.57,1.39,9.13,2.71,13.65,4.13,9,2.87,18,5.65,26.87,8.65l6.64,2.2,3.31,1.1,3.28,1.14,13.08,4.56,3.26,1.14,3.23,1.18,6.44,2.35,6.41,2.34,3.2,1.17,3.17,1.21c33.85,12.8,66.14,26.33,96.58,40.55s59.16,28.84,86,43.63,51.77,29.78,74.82,44.48,44.2,29.11,63.41,42.93,36.49,27,51.91,39.21c7.65,6.17,14.94,11.93,21.64,17.56l9.78,8.12,9,7.72,4.27,3.65q2.1,1.77,4.08,3.54l7.61,6.71c2.42,2.15,4.74,4.16,6.94,6.14l6.24,5.68c2,1.78,3.82,3.47,5.55,5.05.87.78,1.71,1.55,2.51,2.28l2.26,2.11,7.25,6.78,5.9,5.54Z" transform="translate(-2.53 -418.89)"/><path class="cls-2" d="M2499.07,870.92l-5.81-5.64-7.12-6.92c-.7-.68-1.44-1.41-2.2-2.12l-2.33-2.2-5.16-4.86-5.8-5.47c-2-1.92-4.27-3.92-6.56-6l-7.21-6.59q-1.87-1.74-3.87-3.48T2449,824l-8.55-7.6q-4.5-3.85-9.28-8c-6.36-5.55-13.29-11.23-20.55-17.31-14.66-12-31.09-25-49.38-38.72s-38.46-28-60.46-42.57-45.87-29.49-71.54-44.31-53.22-29.47-82.48-43.74-60.29-28-92.91-41l-3-1.23-3.08-1.19-6.19-2.39-6.21-2.4-3.11-1.2-3.14-1.16-12.61-4.65-3.17-1.17-3.19-1.13-6.4-2.25c-8.54-3.07-17.22-5.93-26-8.87-4.36-1.46-8.78-2.83-13.19-4.25l-6.63-2.13c-2.22-.71-4.46-1.36-6.69-2a1373.32,1373.32,0,0,0-481.07-58.25,1387,1387,0,0,0-257.27,38.88,1420.65,1420.65,0,0,0-246.11,85.95A1481.17,1481.17,0,0,0,746.39,735.63c-16.95,11.65-33.63,23.39-49.81,35.49-8.16,6-16.1,12.12-24.06,18.19l-3,2.28-2.94,2.32-5.87,4.63-5.85,4.62c-2,1.53-3.91,3.06-5.82,4.64-30.85,24.85-60.16,50.26-87.84,76A1729.85,1729.85,0,0,0,414.78,1038.2c-21.2,25.29-40.82,50.11-58.95,74.13l-6.73,9-3.34,4.44c-1.08,1.49-2.17,3-3.25,4.45l-12.77,17.53q-6.18,8.71-12.19,17.19l-3,4.23q-1.47,2.11-2.91,4.22l-5.75,8.36q-2.87,4.14-5.66,8.22l-5.47,8.16L284.15,1214l-10,15.49c-1.64,2.54-3.3,5-4.87,7.54l-4.7,7.45L255.44,1259l-8.53,13.94c-5.61,9.06-10.74,17.83-15.67,26.11-19.58,33.23-34.08,59.85-43.88,78-1.24,2.27-2.36,4.42-3.42,6.44l-3,5.64-4.61,8.79-3.76,7.17s1.23-2.46,3.63-7.23q1.8-3.58,4.45-8.87l2.86-5.7c1-2,2.11-4.22,3.31-6.51,9.47-18.38,23.48-45.27,42.48-78.88,4.78-8.38,9.76-17.26,15.21-26.42l8.28-14.12,8.85-14.63c1.5-2.49,3-5,4.56-7.54s3.15-5.07,4.74-7.65l9.79-15.7,10.36-16.15,5.33-8.28,5.52-8.34,5.61-8.48,2.84-4.29,2.92-4.29,11.9-17.46,12.49-17.81,3.18-4.52c1.09-1.5,2.17-3,3.26-4.52q3.29-4.53,6.59-9.12c17.75-24.42,37-49.7,57.82-75.48A1739.1,1739.1,0,0,1,553,875.09c27.39-26.38,56.47-52.53,87.13-78.16,1.9-1.63,3.84-3.21,5.78-4.79l5.83-4.77,5.84-4.77,2.92-2.4,3-2.35c7.92-6.27,15.83-12.64,24-18.81,16.12-12.52,32.75-24.68,49.66-36.76A1498.11,1498.11,0,0,1,957.91,592.33a1443.48,1443.48,0,0,1,248.52-91.9,1411.37,1411.37,0,0,1,756,6.41c2.31.67,4.62,1.3,6.92,2l6.86,2.06c4.57,1.38,9.14,2.71,13.66,4.13,9,2.86,18,5.64,26.87,8.64l6.63,2.2,3.31,1.1,3.29,1.15,13.08,4.55,3.25,1.14,3.23,1.18,6.44,2.35,6.41,2.34,3.2,1.17,3.17,1.21c33.86,12.8,66.15,26.33,96.59,40.56s59.16,28.83,86,43.62,51.77,29.79,74.82,44.48,44.2,29.11,63.42,42.93,36.48,27,51.91,39.21c7.64,6.17,14.94,11.93,21.64,17.56q5,4.2,9.78,8.12l9,7.72,4.27,3.65q2.1,1.79,4.08,3.54l7.61,6.71c2.43,2.15,4.75,4.16,6.94,6.15l6.24,5.67,5.55,5,2.52,2.28c.78.73,1.53,1.44,2.26,2.11l7.24,6.79,5.91,5.53Z" transform="translate(-2.53 -418.89)"/><path class="cls-3" d="M2464.41,904.12l-5.81-5.65-7.11-6.91c-.71-.68-1.45-1.42-2.2-2.13l-2.34-2.2-5.16-4.86L2436,876.9c-2.05-1.92-4.27-3.92-6.56-6l-7.22-6.6q-1.86-1.72-3.86-3.48l-4.05-3.59q-4.12-3.66-8.56-7.6l-9.28-8c-6.35-5.54-13.29-11.22-20.55-17.3-14.65-12-31.08-25-49.37-38.73s-38.47-28-60.47-42.57-45.86-29.49-71.54-44.31-53.22-29.47-82.47-43.74-60.3-28-92.91-41l-3.06-1.23-3.08-1.19-6.18-2.39-6.21-2.39-3.12-1.2-3.13-1.16-12.62-4.66-3.17-1.17-3.19-1.12-6.4-2.26c-8.54-3.07-17.22-5.93-25.94-8.87-4.37-1.46-8.78-2.83-13.19-4.25l-6.64-2.13c-2.22-.7-4.45-1.36-6.69-2a1366.18,1366.18,0,0,0-229.63-49.48,1386,1386,0,0,0-508.71,30.1,1420.14,1420.14,0,0,0-246.11,86A1479.89,1479.89,0,0,0,711.73,768.83c-16.94,11.64-33.62,23.38-49.81,35.48-8.15,6-16.1,12.13-24,18.2l-3,2.28L632,827.1l-5.87,4.63-5.86,4.62c-2,1.53-3.9,3.06-5.81,4.64-30.85,24.85-60.17,50.26-87.84,76a1728.41,1728.41,0,0,0-146.44,154.45c-21.21,25.29-40.83,50.12-59,74.14q-3.37,4.52-6.73,9l-3.33,4.44-3.25,4.46-12.78,17.52-12.18,17.2-3,4.22-2.91,4.23-5.75,8.35-5.66,8.23-5.47,8.15-10.62,15.93-10.06,15.49c-1.64,2.54-3.29,5-4.87,7.54l-4.69,7.45-9.1,14.44-8.53,13.95c-5.61,9.05-10.73,17.82-15.66,26.11-19.59,33.22-34.09,59.85-43.88,78-1.24,2.27-2.37,4.42-3.43,6.44s-2.05,3.9-3,5.65l-4.62,8.79-3.76,7.17,3.63-7.24,4.46-8.87q1.32-2.64,2.86-5.7c1-2,2.11-4.22,3.31-6.5,9.46-18.38,23.48-45.28,42.47-78.89,4.79-8.38,9.76-17.25,15.21-26.42l8.28-14.12,8.85-14.63,4.57-7.54c1.53-2.54,3.14-5.07,4.73-7.64l9.8-15.71,10.35-16.15,5.33-8.27,5.53-8.35,5.61-8.48,2.84-4.29,2.91-4.29,11.91-17.46,12.48-17.81,3.19-4.52,3.26-4.52,6.59-9.11c17.75-24.43,37-49.71,57.82-75.49a1737.4,1737.4,0,0,1,144.44-158c27.4-26.38,56.47-52.54,87.14-78.17,1.9-1.62,3.84-3.2,5.78-4.79l5.82-4.76,5.84-4.78,2.92-2.39,3-2.36c7.91-6.27,15.82-12.63,23.95-18.81,16.11-12.51,32.74-24.68,49.65-36.76a1498.63,1498.63,0,0,1,220.81-130,1443.28,1443.28,0,0,1,248.53-91.9,1411.41,1411.41,0,0,1,756,6.42c2.31.66,4.62,1.29,6.92,2l6.87,2.06c4.56,1.38,9.13,2.71,13.65,4.13,9,2.86,18,5.64,26.87,8.64l6.64,2.21,3.31,1.1,3.28,1.14,13.08,4.56,3.25,1.13,3.23,1.18,6.44,2.35c2.15.78,4.28,1.57,6.42,2.34L2031,574l3.17,1.22c33.85,12.8,66.14,26.33,96.58,40.55s59.16,28.83,86,43.63,51.77,29.78,74.82,44.47,44.2,29.12,63.41,42.94,36.49,27,51.91,39.21c7.64,6.16,14.94,11.92,21.64,17.56l9.78,8.12,9,7.71,4.27,3.65q2.11,1.78,4.08,3.54l7.62,6.71c2.42,2.15,4.74,4.16,6.94,6.15l6.24,5.67,5.55,5.05,2.51,2.29,2.26,2.1,7.24,6.79,5.91,5.54Z" transform="translate(-2.53 -418.89)"/><path class="cls-4" d="M2429.75,937.31l-5.8-5.64-7.12-6.92c-.7-.68-1.45-1.42-2.2-2.13l-2.33-2.2-5.16-4.86-5.8-5.47c-2.05-1.92-4.27-3.92-6.56-6l-7.21-6.6q-1.87-1.72-3.87-3.48l-4-3.59-8.56-7.59-9.28-8c-6.35-5.54-13.28-11.22-20.55-17.3-14.65-12-31.08-25-49.37-38.73s-38.47-28-60.47-42.56-45.86-29.5-71.54-44.32-53.22-29.47-82.47-43.74-60.29-28-92.91-41l-3.06-1.23-3.08-1.19-6.18-2.38-6.21-2.4-3.11-1.2-3.14-1.16-12.61-4.66-3.17-1.17-3.19-1.12-6.41-2.26c-8.53-3.07-17.21-5.92-25.94-8.87-4.37-1.46-8.78-2.82-13.19-4.25l-6.64-2.12c-2.21-.71-4.45-1.37-6.68-2a1373.62,1373.62,0,0,0-481.07-58.26,1388.7,1388.7,0,0,0-257.27,38.88,1420.68,1420.68,0,0,0-246.11,86A1479.77,1479.77,0,0,0,677.08,802c-17,11.64-33.63,23.38-49.81,35.48-8.16,6-16.11,12.13-24.06,18.2l-3,2.28-2.94,2.32q-2.94,2.31-5.87,4.63l-5.86,4.61c-1.95,1.54-3.9,3.07-5.81,4.64-30.85,24.85-60.17,50.27-87.84,76a1728.49,1728.49,0,0,0-146.44,154.45c-21.2,25.28-40.82,50.11-59,74.13l-6.73,9-3.34,4.43-3.25,4.46q-6.48,8.88-12.77,17.52l-12.19,17.2-3,4.22q-1.47,2.12-2.91,4.23l-5.76,8.35q-2.85,4.15-5.66,8.23l-5.46,8.16-10.63,15.92-10.06,15.49c-1.63,2.54-3.29,5-4.87,7.55l-4.69,7.44q-4.64,7.38-9.1,14.45l-8.52,13.94c-5.61,9-10.74,17.82-15.67,26.11-19.58,33.22-34.08,59.85-43.88,78-1.24,2.27-2.37,4.43-3.42,6.45l-3,5.64-4.61,8.79-3.76,7.17s1.23-2.47,3.63-7.24l4.45-8.87,2.86-5.7c1-2,2.11-4.21,3.31-6.5,9.46-18.38,23.48-45.28,42.48-78.89,4.78-8.38,9.76-17.25,15.2-26.42l8.29-14.12q4.34-7.15,8.85-14.63l4.56-7.54c1.53-2.54,3.15-5.07,4.74-7.64l9.79-15.7q5.09-7.93,10.36-16.15,2.64-4.11,5.33-8.28l5.52-8.35q2.79-4.2,5.61-8.48l2.84-4.29,2.92-4.28,11.9-17.47,12.49-17.8q1.57-2.27,3.18-4.53l3.26-4.51,6.59-9.12c17.75-24.43,37-49.7,57.82-75.49a1738.86,1738.86,0,0,1,144.44-158c27.4-26.38,56.48-52.53,87.14-78.17,1.9-1.62,3.84-3.2,5.78-4.79l5.82-4.76,5.84-4.78,2.93-2.39,3-2.36c7.92-6.27,15.83-12.63,24-18.81,16.12-12.51,32.75-24.68,49.66-36.75a1498.15,1498.15,0,0,1,220.81-130,1444.31,1444.31,0,0,1,248.52-91.9,1411.46,1411.46,0,0,1,756,6.42c2.31.66,4.62,1.3,6.91,2l6.87,2.06c4.57,1.39,9.13,2.71,13.66,4.13,9,2.87,18,5.64,26.87,8.65l6.63,2.2,3.31,1.1,3.29,1.14,13.07,4.56,3.26,1.14,3.23,1.17,6.44,2.35,6.41,2.35,3.2,1.17,3.17,1.21c33.85,12.8,66.14,26.33,96.58,40.55s59.16,28.83,86,43.63,51.77,29.78,74.82,44.47,44.2,29.12,63.41,42.94,36.49,27,51.91,39.21c7.65,6.16,15,11.93,21.64,17.56l9.78,8.12,9,7.71,4.27,3.65q2.1,1.79,4.08,3.54,4,3.51,7.61,6.71c2.42,2.15,4.75,4.17,6.94,6.15s4.27,3.89,6.24,5.67l5.55,5,2.52,2.29,2.25,2.11,7.25,6.78,5.91,5.54Z" transform="translate(-2.53 -418.89)"/><path class="cls-5" d="M2395.1,969.22l-5.81-5.65-7.12-6.91c-.7-.68-1.44-1.42-2.19-2.13l-2.34-2.2-5.16-4.86-5.8-5.47c-2-1.92-4.27-3.92-6.56-6l-7.21-6.6q-1.87-1.73-3.87-3.48l-4-3.59q-4.14-3.66-8.56-7.6t-9.28-8c-6.36-5.54-13.29-11.22-20.55-17.3-14.65-12-31.09-25-49.37-38.73s-38.47-28-60.47-42.57-45.87-29.49-71.54-44.31-53.22-29.47-82.48-43.74-60.29-28-92.91-41l-3-1.23-3.08-1.19-6.19-2.39-6.2-2.39-3.12-1.2-3.14-1.16-12.61-4.66-3.17-1.17-3.19-1.12-6.4-2.26c-8.54-3.07-17.22-5.93-26-8.87-4.36-1.46-8.78-2.83-13.19-4.25l-6.63-2.13c-2.22-.7-4.46-1.36-6.69-2a1366.08,1366.08,0,0,0-229.64-49.48,1385.92,1385.92,0,0,0-508.7,30.1,1419.84,1419.84,0,0,0-246.11,86A1479.39,1479.39,0,0,0,642.42,833.93c-16.95,11.64-33.63,23.38-49.81,35.48-8.15,6-16.1,12.13-24.06,18.2l-3,2.28-2.94,2.31-5.87,4.63-5.85,4.62c-1.95,1.53-3.91,3.06-5.82,4.64-30.85,24.85-60.16,50.26-87.83,75.95a1728.59,1728.59,0,0,0-146.45,154.45c-21.2,25.29-40.82,50.12-58.95,74.14l-6.73,9L241.8,1224l-3.26,4.46L225.77,1246q-6.18,8.73-12.19,17.19c-1,1.42-2,2.83-3,4.23l-2.91,4.23-5.75,8.35-5.66,8.23-5.47,8.15-10.63,15.93-10.05,15.49c-1.64,2.54-3.29,5-4.87,7.54s-3.15,5-4.69,7.45l-9.1,14.44-8.53,14c-5.61,9-10.74,17.82-15.66,26.11-19.59,33.22-34.09,59.85-43.88,78-1.25,2.27-2.37,4.42-3.43,6.44s-2,3.9-3,5.65q-2.76,5.23-4.62,8.79l-3.76,7.17,3.63-7.24q1.8-3.59,4.45-8.87,1.33-2.64,2.86-5.7c1-2,2.11-4.22,3.31-6.5,9.47-18.38,23.49-45.28,42.48-78.89,4.79-8.38,9.76-17.25,15.21-26.42l8.28-14.12L157.7,1341c1.5-2.49,3-5,4.56-7.54s3.15-5.07,4.74-7.64q4.8-7.71,9.79-15.71L187.15,1294l5.33-8.27q2.75-4.14,5.52-8.35l5.62-8.48,2.83-4.29,2.92-4.29q5.87-8.6,11.9-17.46T233.76,1225l3.18-4.52c1.09-1.5,2.17-3,3.27-4.52l6.59-9.11c17.74-24.43,37-49.71,57.81-75.49a1739,1739,0,0,1,144.45-158c27.39-26.38,56.47-52.54,87.13-78.17,1.9-1.62,3.84-3.2,5.78-4.79l5.83-4.76,5.84-4.78,2.92-2.39,3-2.36c7.92-6.27,15.83-12.64,24-18.81,16.12-12.51,32.75-24.68,49.66-36.76a1498.11,1498.11,0,0,1,220.81-130,1443.28,1443.28,0,0,1,248.53-91.9,1411.44,1411.44,0,0,1,756,6.42c2.31.66,4.62,1.29,6.92,2l6.86,2.06c4.57,1.38,9.14,2.71,13.66,4.13,9,2.86,18,5.64,26.87,8.64l6.63,2.21,3.31,1.1,3.29,1.14L1939.1,631l3.25,1.13,3.23,1.18,6.44,2.35c2.14.78,4.28,1.57,6.42,2.34l3.19,1.17,3.18,1.22c33.85,12.8,66.14,26.33,96.58,40.55s59.16,28.83,86,43.62,51.78,29.79,74.82,44.48,44.2,29.12,63.42,42.94,36.49,27,51.91,39.2c7.64,6.17,14.94,11.93,21.64,17.57l9.78,8.12,9,7.71,4.27,3.65q2.1,1.78,4.08,3.54l7.61,6.71c2.43,2.15,4.75,4.16,6.94,6.15l6.24,5.67,5.56,5,2.51,2.29,2.26,2.1,7.24,6.79,5.91,5.54Z" transform="translate(-2.53 -418.89)"/><path class="cls-6" d="M2362.37,1002.41l-5.81-5.64c-1.91-1.86-4.29-4.18-7.12-6.92-.7-.68-1.44-1.42-2.19-2.13l-2.34-2.2-5.16-4.86-5.79-5.47c-2.05-1.92-4.27-3.92-6.56-6l-7.22-6.6q-1.87-1.73-3.86-3.48l-4.05-3.59-8.56-7.59-9.28-8c-6.36-5.54-13.29-11.22-20.55-17.3-14.65-12-31.09-25-49.37-38.73s-38.47-28-60.47-42.56-45.86-29.5-71.54-44.32-53.22-29.47-82.47-43.74-60.3-28-92.91-41l-3.06-1.23-3.08-1.19-6.19-2.38-6.2-2.4-3.12-1.2-3.13-1.16L1879.72,698l-3.17-1.17-3.19-1.12-6.4-2.26c-8.54-3.07-17.22-5.92-25.94-8.87-4.37-1.46-8.78-2.82-13.2-4.25l-6.63-2.12c-2.22-.71-4.45-1.37-6.69-2.05a1367.16,1367.16,0,0,0-229.63-49.48,1386,1386,0,0,0-508.71,30.1,1420.68,1420.68,0,0,0-246.11,86A1480.28,1480.28,0,0,0,609.69,867.12c-16.94,11.64-33.63,23.38-49.81,35.48-8.15,6-16.1,12.13-24.06,18.2l-3,2.28-2.94,2.32L524,930l-5.85,4.61c-1.95,1.54-3.9,3.07-5.82,4.64-30.85,24.85-60.16,50.27-87.83,76a1725.63,1725.63,0,0,0-146.44,154.45c-21.21,25.28-40.83,50.11-59,74.13q-3.37,4.52-6.73,9l-3.33,4.43-3.26,4.46L193,1279.2l-12.18,17.2-3,4.22-2.91,4.23-5.75,8.35-5.66,8.23-5.47,8.16-10.63,15.92q-5.12,7.89-10,15.49c-1.64,2.54-3.29,5-4.87,7.55l-4.69,7.44-9.1,14.45-8.53,13.94c-5.61,9-10.73,17.82-15.66,26.11-19.59,33.22-34.09,59.85-43.88,78-1.24,2.27-2.37,4.43-3.43,6.45l-3,5.64c-1.83,3.49-3.38,6.42-4.62,8.79l-3.76,7.17,3.63-7.24,4.46-8.87q1.32-2.64,2.86-5.7c1-2,2.11-4.21,3.31-6.5,9.46-18.38,23.48-45.28,42.47-78.89,4.79-8.38,9.76-17.25,15.21-26.42l8.28-14.12,8.85-14.63q2.27-3.72,4.56-7.54c1.54-2.54,3.15-5.07,4.74-7.64l9.79-15.7q5.1-7.93,10.36-16.15l5.33-8.28q2.75-4.14,5.52-8.35l5.62-8.48,2.84-4.29,2.91-4.28,11.9-17.47,12.49-17.8,3.18-4.53,3.27-4.51,6.59-9.12c17.74-24.43,37-49.71,57.81-75.49a1739,1739,0,0,1,144.45-158c27.4-26.38,56.47-52.53,87.14-78.17,1.9-1.62,3.84-3.2,5.78-4.79l5.82-4.76,5.84-4.78,2.92-2.39,3-2.36c7.91-6.27,15.82-12.63,24-18.81,16.11-12.51,32.74-24.68,49.65-36.75a1498.15,1498.15,0,0,1,220.81-130,1444.11,1444.11,0,0,1,248.53-91.9,1411.44,1411.44,0,0,1,756,6.42c2.31.66,4.62,1.3,6.92,2l6.86,2.06c4.57,1.39,9.14,2.71,13.66,4.13,9,2.87,18,5.64,26.87,8.65l6.64,2.2,3.3,1.1,3.29,1.14,13.08,4.56,3.25,1.14,3.23,1.17,6.44,2.35,6.42,2.35,3.19,1.17,3.18,1.21c33.85,12.8,66.14,26.33,96.58,40.55s59.16,28.83,86,43.63,51.77,29.78,74.82,44.47,44.2,29.12,63.41,42.94,36.49,27,51.91,39.21c7.64,6.16,14.94,11.93,21.64,17.56l9.78,8.12,9,7.71,4.27,3.65q2.1,1.79,4.08,3.54l7.61,6.71c2.43,2.15,4.75,4.17,7,6.15s4.27,3.89,6.24,5.67,3.81,3.48,5.55,5l2.51,2.29,2.26,2.11,7.24,6.78,5.91,5.54Z" transform="translate(-2.53 -418.89)"/><path class="cls-7" d="M2329,1034.32l-5.81-5.65-7.12-6.91c-.7-.68-1.44-1.42-2.19-2.13l-2.34-2.2-5.16-4.86-5.79-5.47c-2.05-1.92-4.28-3.92-6.57-6l-7.21-6.6q-1.87-1.72-3.87-3.48l-4-3.59q-4.14-3.66-8.56-7.6t-9.28-8c-6.36-5.55-13.29-11.22-20.55-17.3-14.65-12-31.09-25-49.37-38.73s-38.47-28-60.47-42.57-45.87-29.49-71.54-44.31-53.22-29.47-82.48-43.74-60.29-28-92.91-41l-3-1.23-3.08-1.19-6.19-2.39-6.2-2.39-3.12-1.2-3.14-1.16-12.61-4.66-3.17-1.17-3.19-1.12-6.4-2.26c-8.54-3.07-17.22-5.93-25.94-8.87-4.37-1.46-8.78-2.83-13.2-4.25l-6.63-2.13c-2.22-.7-4.46-1.36-6.69-2a1366.08,1366.08,0,0,0-229.64-49.48,1385.92,1385.92,0,0,0-508.7,30.1,1419.84,1419.84,0,0,0-246.11,86A1479.39,1479.39,0,0,0,576.32,899c-16.94,11.64-33.63,23.38-49.81,35.48-8.15,6-16.1,12.13-24.06,18.2l-3,2.28-3,2.31-5.87,4.63-5.85,4.62c-1.95,1.53-3.9,3.06-5.82,4.64-30.85,24.85-60.16,50.26-87.83,76a1728.59,1728.59,0,0,0-146.45,154.45c-21.2,25.29-40.82,50.12-59,74.14l-6.73,9-3.33,4.44-3.26,4.46-12.77,17.52-12.18,17.19-3,4.23-2.91,4.23-5.75,8.35-5.66,8.23-5.47,8.15-10.63,15.93-10,15.49c-1.64,2.54-3.29,5-4.87,7.54s-3.15,5-4.69,7.45l-9.1,14.44-8.53,14c-5.61,9-10.73,17.82-15.66,26.11-19.59,33.22-34.09,59.85-43.88,78-1.25,2.27-2.37,4.42-3.43,6.44s-2,3.9-3,5.65q-2.76,5.23-4.62,8.79l-3.76,7.17,3.63-7.24q1.8-3.59,4.45-8.87l2.87-5.7c1-2,2.1-4.22,3.3-6.5,9.47-18.38,23.49-45.28,42.48-78.89,4.79-8.38,9.76-17.25,15.21-26.42l8.28-14.12,8.85-14.63q2.27-3.73,4.56-7.54c1.54-2.54,3.15-5.07,4.74-7.64q4.81-7.71,9.79-15.71l10.36-16.15,5.33-8.27q2.75-4.14,5.52-8.35l5.62-8.48,2.84-4.29,2.91-4.29q5.86-8.6,11.9-17.46t12.49-17.81l3.18-4.52c1.09-1.5,2.17-3,3.27-4.52l6.59-9.11c17.74-24.43,37-49.71,57.81-75.49a1739,1739,0,0,1,144.45-158c27.39-26.38,56.47-52.54,87.13-78.17,1.91-1.62,3.84-3.2,5.78-4.79l5.83-4.76,5.84-4.78,2.92-2.39,3-2.36c7.91-6.27,15.82-12.64,23.94-18.81,16.12-12.51,32.75-24.68,49.66-36.76A1498.11,1498.11,0,0,1,787.84,755.72a1443.28,1443.28,0,0,1,248.53-91.9,1411.44,1411.44,0,0,1,756,6.42c2.31.66,4.62,1.29,6.92,2l6.86,2.06c4.57,1.38,9.14,2.71,13.66,4.13,9,2.86,18,5.64,26.87,8.64l6.64,2.21,3.3,1.1,3.29,1.14,13.08,4.56,3.25,1.13,3.23,1.18,6.44,2.35,6.42,2.34,3.19,1.17,3.18,1.22c33.85,12.8,66.14,26.33,96.58,40.55s59.16,28.83,86,43.62,51.78,29.79,74.82,44.48,44.21,29.12,63.42,42.94,36.49,27,51.91,39.2c7.64,6.17,14.94,11.93,21.64,17.57l9.78,8.12,9,7.71,4.27,3.65q2.1,1.79,4.08,3.54l7.61,6.71c2.43,2.15,4.75,4.16,6.94,6.15l6.24,5.67,5.56,5,2.51,2.29,2.26,2.1,7.24,6.79,5.91,5.54Z" transform="translate(-2.53 -418.89)"/></svg>