<svg width="1009" height="2770" viewBox="0 0 1009 2770" fill="none" xmlns="http://www.w3.org/2000/svg">
<path d="M981.117 2697.39C981.123 2697.45 981.123 2697.5 981.117 2697.55C979.312 2707.02 977.187 2716.63 974.674 2726.36C973.151 2732.25 971.489 2738.19 969.689 2744.17H462.321C462.321 2744.17 455.505 2713.14 452.738 2667.16C452.056 2655.74 451.628 2643.41 451.602 2630.4C451.602 2623.33 451.709 2616.06 451.976 2608.64C454.168 2546.76 466.679 2473.8 505.147 2412.6C569.304 2310.27 673.694 2182.35 684.628 1882.42C685.739 1884.5 686.726 1886.65 687.582 1888.86C690.8 1896.96 692.372 1905.63 692.206 1914.35C692.07 1923.08 690.122 1931.68 686.486 1939.62C687.582 1937.76 688.745 1935.92 689.787 1933.98L691.124 1930.99C691.63 1930 692.076 1928.98 692.46 1927.94C697.172 1914.81 697.467 1900.51 693.303 1887.2C691.392 1880.98 688.606 1875.06 685.029 1869.62C687.702 1772.05 680.591 1656.66 659.352 1518.63C570.815 943.226 682.436 1008.92 742.223 686.421C808.853 326.657 590.864 339.662 633.703 114.348C633.703 114.348 644.917 76.7489 670.74 64.1178L671.783 63.6233C685.229 57.5015 702.525 58.1565 724.165 74.0756C725.404 74.9667 726.66 75.9291 727.934 76.9627C795.046 130.601 731.436 94.8333 710.558 91.2245C709.609 91.0623 708.645 91.0129 707.685 91.0774C707.399 91.0774 707.119 91.1042 706.842 91.1576L706 91.2913L705.158 91.4784C704.428 91.6626 703.713 91.9039 703.02 92.2002L702.472 92.4274C702.057 92.6146 701.656 92.815 701.255 93.0423C699.872 93.8005 698.569 94.6961 697.366 95.7155C696.724 96.2501 696.029 96.8383 695.468 97.4531C694.906 98.068 694.225 98.7897 693.623 99.4313C693.022 100.073 692.434 100.848 691.859 101.61C691.565 101.984 691.284 102.372 691.004 102.773C690.429 103.561 689.881 104.39 689.346 105.246C689.092 105.633 688.865 106.021 688.638 106.408C688.518 106.583 688.411 106.767 688.317 106.956C687.684 108.026 687.083 109.135 686.512 110.285L685.831 111.621C685.67 111.955 685.523 112.29 685.376 112.624C685.002 113.439 684.641 114.268 684.307 115.11V115.19C678.092 130.601 676.448 150.41 684.454 165.447C684.989 166.463 685.577 167.465 686.218 168.441C705.252 197.7 712.871 215.036 753.798 255.134C794.725 295.233 826.149 340.678 835.666 372.155C836.325 374.321 837.029 376.548 837.778 378.838C838.072 379.721 838.353 380.616 838.66 381.512C839.622 384.479 840.652 387.566 841.707 390.868L842.148 392.205C842.322 392.726 842.496 393.26 842.656 393.808L843.579 396.696L844.22 398.794L844.742 400.505C844.929 401.08 845.102 401.668 845.276 402.256C845.797 404.007 846.332 405.825 846.853 407.683L847.375 409.554L847.896 411.452L848.417 413.39L848.939 415.368L849.46 417.386C849.62 418.055 849.794 418.723 849.968 419.431C850.302 420.768 850.636 422.212 850.97 423.628C851.131 424.35 851.304 425.072 851.465 425.794C852.36 429.804 853.216 433.92 854.031 438.291C854.232 439.36 854.419 440.456 854.619 441.552C854.766 442.354 854.9 443.156 855.034 443.972C855.247 445.201 855.448 446.445 855.648 447.701C855.795 448.69 855.956 449.679 856.103 450.682C856.343 452.352 856.584 454.037 856.825 455.761C856.958 456.723 857.079 457.685 857.199 458.661C857.413 460.332 857.613 462.016 857.814 463.74C858.068 465.959 858.295 468.231 858.522 470.544C858.616 471.506 858.709 472.482 858.789 473.471C859.217 478.256 859.574 483.251 859.859 488.455C859.859 489.35 859.952 490.232 860.006 491.128C860.229 495.904 860.393 500.854 860.5 505.978C860.5 508.103 860.5 510.268 860.581 512.46C860.661 525.051 860.313 538.711 859.444 553.575C853.269 658.673 845.169 705.816 797.572 872.693C749.975 1039.57 734.751 1241.12 797.572 1418.82C800.727 1427.73 803.752 1436.33 806.648 1444.61V1444.69C818.677 1479.22 828.729 1508.68 836.896 1534.99C857.092 1600.05 866.101 1645.93 867.919 1701.99C868.721 1726.39 868.146 1752.78 866.582 1783.4C860.474 1899.98 821.137 2073.44 896.79 2299.73C897.084 2300.63 897.391 2301.53 897.698 2302.41L897.859 2302.89C909.453 2337.02 922.929 2370.49 938.225 2403.14C938.318 2403.34 938.399 2403.54 938.505 2403.74C941.098 2409.32 943.772 2414.92 946.525 2420.55C946.525 2420.67 946.645 2420.79 946.712 2420.91C947.26 2421.96 948.971 2425.28 951.39 2430.66L951.751 2431.43C961.402 2452.94 981.585 2504.95 987.466 2574.64V2574.72C990.919 2615.71 988.783 2656.98 981.117 2697.39V2697.39Z" fill="#91AD2D"/>
<path d="M974.646 2726.36H482.769C482.769 2726.36 475.953 2695.32 473.199 2649.33C472.518 2637.93 472.076 2625.59 472.063 2612.58C471.97 2546.62 482.596 2463.32 525.608 2394.72C611.272 2258.19 768.338 2076.15 679.814 1500.74C591.29 925.343 702.897 991.051 762.684 668.538C829.315 308.787 611.326 321.792 654.164 96.4647C657.932 84.8578 663.517 73.922 670.712 64.0651L671.754 63.5705C685.201 57.4488 702.496 58.1037 724.136 74.0229C725.375 74.914 726.631 75.8763 727.906 76.91C795.017 130.549 731.408 94.7806 710.53 91.1717C709.581 91.0096 708.616 90.9602 707.656 91.0247C703.79 91.4348 700.156 93.0692 697.284 95.6895C692.151 100.007 687.54 106.944 684.225 115.137V115.217C677.809 130.214 676.098 150.077 684.372 165.474C684.906 166.49 685.495 167.493 686.136 168.468C705.17 197.727 712.788 215.063 753.716 255.162C794.643 295.26 826.067 340.705 835.584 372.183C839.794 386.084 846.143 402.644 851.383 425.888C857.985 455.173 862.811 495.085 859.402 553.682C853.227 658.781 845.127 705.923 797.53 872.8C749.933 1039.68 734.709 1241.23 797.53 1418.93C860.351 1596.63 873.717 1647.04 866.553 1783.56C859.389 1920.08 806.579 2134.65 946.51 2420.73C946.336 2420.73 1018.83 2555.15 974.646 2726.36Z" fill="#91AD2D"/>
<path opacity="0.17" d="M981.117 2697.39C981.123 2697.44 981.123 2697.5 981.117 2697.55C979.717 2707.3 977.562 2716.93 974.674 2726.36L969.689 2744.17H462.321C462.321 2744.17 455.505 2713.14 452.738 2667.16C452.056 2655.74 451.628 2643.4 451.602 2630.4C451.602 2623.33 451.709 2616.06 451.976 2608.64C457.425 2589.36 465.18 2570.82 475.073 2553.4C501.217 2506.74 547.143 2455.52 624.226 2403.19C768.34 2305.36 927.558 1846.32 806.487 1444.83C807.824 1448.12 822.126 1483.87 836.735 1535.13C850.101 1582.1 863.708 1642.06 867.758 1702.13C869.81 1729.25 869.363 1756.5 866.422 1783.54C858.495 1850.59 850.542 1923.41 850.235 2000.7C850.128 2029.05 851.037 2058.01 853.349 2087.49C856.24 2125.02 861.499 2162.32 869.095 2199.18C876.143 2233.29 885.339 2266.93 896.629 2299.88C896.923 2300.78 897.231 2301.67 897.538 2302.55L897.698 2303.03C899.035 2306.7 907.696 2330.77 919.165 2359.17C919.298 2359.51 919.432 2359.85 919.579 2360.2C919.9 2361 920.22 2361.82 920.555 2362.62C925.981 2375.99 931.969 2390.06 938.064 2403.33C938.158 2403.53 938.238 2403.74 938.345 2403.94C941.018 2409.75 943.692 2415.4 946.365 2420.75C946.365 2420.87 946.485 2420.99 946.552 2421.11C948.129 2424.29 949.693 2427.55 951.23 2430.86L951.591 2431.63C953.275 2435.27 954.924 2438.97 956.536 2442.74C975.075 2485.99 988.415 2536.37 987.279 2574.84V2574.92C987.346 2577.59 989.016 2646.91 981.117 2697.39Z" fill="#4E4700"/>
<path opacity="0.17" d="M797.357 1418.93C797.357 1418.93 688.289 1264.99 730.526 1036.87C772.764 808.749 843.257 773.743 853.121 434.816C853.121 434.816 887.953 606.773 797.357 872.8C797.357 872.8 702.003 1161.79 797.357 1418.93Z" fill="#4E4700"/>
<path opacity="0.17" d="M974.647 2726.36L969.661 2744.17L902.136 2746.91C911.652 2693.29 920.327 2590.02 879.64 2474.48C822.326 2311.67 767.872 2145.96 850.235 2000.72C853.211 1995.45 856.379 1990.21 859.738 1985C859.431 1986.1 849.74 2021.17 853.349 2087.51C855.587 2125.1 860.852 2162.45 869.094 2199.19C879.213 2245.44 895.025 2298.87 919.164 2359.15C919.298 2359.48 919.431 2359.83 919.578 2360.18C919.725 2360.52 919.779 2360.7 919.886 2360.96C920.1 2361.51 920.327 2362.05 920.554 2362.6C933.84 2395.53 945.95 2421.41 956.549 2442.71C975.088 2485.97 988.428 2536.34 987.292 2574.81C987.278 2574.81 990.045 2678.83 974.647 2726.36Z" fill="#4E4700"/>
<path d="M812.597 2129.77C587.417 2383.98 501.82 2386.6 454.958 2627.95C453.871 2633.51 452.81 2639.2 451.776 2645.02C451.776 2645.02 420.847 2601.24 410.983 2534.23C401.466 2469.59 411.571 2383.34 487.999 2293.95C599.7 2163.29 661.385 2086.5 687.316 2053.56C697.514 2040.59 702.179 2034.41 702.179 2034.41C702.179 2034.41 869.711 1837.2 883.037 1746.19C896.363 1655.18 864.792 1656.47 864.792 1656.47C864.792 1656.47 854.607 1594.44 845.05 1562.99C848.124 1573.88 866.115 1586.21 883.892 1609.29C892.714 1620.74 900.466 1630.89 903.942 1635.65C935.486 1678.54 1042.96 1869.72 812.597 2129.77Z" fill="#779D15"/>
<path d="M824.345 1071.74C824.345 1070.86 824.345 1069.98 824.278 1069.07C824.211 1068.16 824.278 1067.33 824.158 1066.4C824.037 1065.46 824.064 1064.67 823.997 1063.83C823.93 1062.99 823.877 1062.13 823.797 1061.29C823.65 1059.61 823.476 1057.96 823.262 1056.33C823.168 1055.56 823.062 1054.78 822.955 1054.02C822.962 1053.98 822.962 1053.95 822.955 1053.91V1053.91C822.794 1052.84 822.634 1051.8 822.46 1050.77C822.286 1049.74 822.113 1048.75 821.925 1047.78C821.925 1047.78 821.925 1047.7 821.925 1047.66C821.725 1046.57 821.498 1045.51 821.271 1044.45C821.083 1043.62 820.896 1042.78 820.696 1041.96C820.495 1041.15 820.281 1040.25 820.068 1039.42C819.934 1038.92 819.8 1038.41 819.653 1037.91C819.506 1037.42 819.332 1036.71 819.145 1036.11C818.958 1035.51 818.784 1034.87 818.597 1034.25C818.343 1033.41 818.076 1032.59 817.809 1031.78C817.007 1029.33 816.138 1026.95 815.229 1024.67C814.935 1023.92 814.627 1023.17 814.32 1022.44C813.839 1021.29 813.344 1020.15 812.836 1019.04C812.636 1018.59 812.422 1018.13 812.208 1017.7C811.634 1016.46 811.032 1015.24 810.431 1014.05C809.094 1011.38 807.757 1008.96 806.287 1006.61C805.846 1005.86 805.392 1005.14 804.95 1004.42L803.694 1002.48C802.945 1001.33 802.184 1000.21 801.422 999.125C801.128 998.697 800.82 998.283 800.526 997.868C798.936 995.663 797.332 993.605 795.741 991.68C795.3 991.145 794.872 990.624 794.404 990.116C792.622 988.031 790.889 986.119 789.205 984.382L788.082 983.246C786.064 981.214 784.166 979.463 782.468 977.979L781.773 977.378C779.354 975.293 777.349 973.782 775.999 972.793L775.264 972.272L774.168 971.537L774.021 971.443C768.942 996.759 767.338 1010.7 767.338 1010.7L776.427 1021.21C785.235 1033.49 814.975 1068.35 712.162 1162.62C663.095 1207.61 621.86 1238.9 591.198 1273.81C570.066 1297.87 553.96 1323.67 543.815 1356.84C537.827 1376.39 533.924 1398.49 532.253 1424.32C523.886 1554.56 667.867 1632.44 674.443 1635.93L674.67 1636.05C674.676 1636.02 674.676 1635.99 674.67 1635.96C674.376 1633.14 673.521 1625.91 672.384 1616.54C671.89 1612.53 671.355 1608 670.781 1603.32C669.257 1590.94 667.559 1577.08 666.102 1565.26L662.627 1537.19L635.547 1514.2C506.563 1362.71 708.847 1333.25 791.664 1183.71C792.426 1182.38 793.161 1181.04 793.883 1179.7C795.336 1177.03 796.726 1174.36 798.053 1171.68C799.39 1169.01 800.727 1166.43 801.876 1163.85C806.455 1154.2 810.472 1144.3 813.906 1134.19C814.307 1133.01 814.694 1131.84 815.055 1130.67C822.032 1108.58 824.666 1089 824.345 1071.74ZM808.519 1024.96C808.519 1025.15 808.519 1025.32 808.519 1025.51C808.6 1027.48 808.873 1029.43 809.334 1031.35C809.441 1031.87 809.575 1032.37 809.722 1032.86C810.332 1034.76 811.148 1036.59 812.155 1038.31C812.912 1041.92 813.491 1045.54 813.892 1049.17C811.723 1047.56 809.8 1045.64 808.185 1043.47C806.408 1041.05 804.977 1038.39 803.935 1035.57C802.925 1032.63 802.297 1029.56 802.063 1026.46C801.95 1024.83 801.95 1023.2 802.063 1021.57C802.265 1018.65 802.803 1015.76 803.667 1012.96C805.503 1016.85 807.118 1020.84 808.506 1024.91L808.519 1024.96Z" fill="#779D15"/>
<path d="M886.846 582.418C864.952 665.836 806.876 689.348 806.876 689.348C634.265 794.82 695.027 864.712 690.269 875.539C688.932 878.599 687.369 882.502 685.845 886.526C684.321 890.549 682.744 894.839 681.461 898.435C679.509 903.781 678.146 907.791 678.146 907.791C678.146 907.791 619.629 836.87 662.026 768.622C673.401 750.297 692.047 732.173 721.065 715.652C721.065 715.652 801.168 665.863 823.985 647.485C846.801 629.106 888.316 575.989 859.953 500.136L854.78 448.475V448.248C854.78 448.248 911.921 486.836 886.846 582.418Z" fill="#9EB52C"/>
<path d="M627.114 1154.72C626.873 1172.1 626.927 1185.8 626.927 1185.8C594.554 1088.22 426.581 1094.06 276.184 1122.24C125.788 1150.42 81.987 1091.9 49.6274 1046.39L43.5859 1037.89C10.558 991.491 -38.1083 922.735 49.6274 1023.77C69.2356 1046.35 91.878 1059.95 116.619 1067.26C123.974 1069.43 131.473 1071.06 139.061 1072.16C157.065 1074.83 175.965 1074.83 195.453 1073.04C200.309 1072.61 205.21 1072.07 210.155 1071.41C283.843 1061.74 364.535 1030.61 436.165 1024.71C567.528 1013.88 630.362 1090.45 630.362 1090.45C628.237 1102.47 627.421 1131.77 627.114 1154.72Z" fill="#779D15"/>
<path opacity="0.7" d="M627.248 1186.18C594.876 1088.61 426.903 1094.45 276.506 1122.63C126.11 1150.8 82.3086 1092.29 49.949 1046.78L43.9609 1038.27C76.3205 1073.82 116.272 1102.51 172.37 1110.92C267.43 1125.18 271.828 1094.29 452.419 1093.1C554.777 1092.43 604.031 1125.94 627.516 1155.11C627.195 1172.44 627.248 1186.18 627.248 1186.18Z" fill="#ECDE76"/>
<path opacity="0.7" d="M681.047 2061.5C651.641 2128.93 610.273 2183.57 504.199 2303.42C434.828 2381.79 414.779 2469.87 410.983 2534.26C401.466 2469.62 411.571 2383.37 487.999 2293.97C599.7 2163.29 655.116 2094.44 681.047 2061.5Z" fill="#ECDE76"/>
<path opacity="0.17" d="M812.597 2129.77C587.416 2383.98 501.819 2386.6 454.957 2627.95C445.361 2379.48 631.552 2274.94 808.213 2063.9C1001.72 1832.67 883.892 1609.32 883.892 1609.32C892.714 1620.77 900.466 1630.92 903.941 1635.67C935.486 1678.54 1042.96 1869.72 812.597 2129.77Z" fill="#4E4700"/>
<path opacity="0.7" d="M674.657 1636H674.443C667.867 1632.51 523.886 1554.62 532.253 1424.38C533.924 1398.56 537.827 1376.45 543.815 1356.91C540.26 1392.4 542.706 1442.68 562.02 1499.46C579.169 1549.85 635.534 1592.92 672.371 1616.6C673.507 1625.94 674.363 1633.18 674.657 1636Z" fill="#ECDE76"/>
<path opacity="0.17" d="M815.001 1130.7C814.64 1131.86 814.253 1133.04 813.852 1134.21C810.43 1144.33 806.413 1154.23 801.822 1163.87C800.606 1166.45 799.336 1169.07 798 1171.71C796.663 1174.34 795.326 1177.05 793.829 1179.73C793.107 1181.06 792.372 1182.4 791.61 1183.74C708.74 1333.28 506.509 1362.74 635.493 1514.23L662.573 1537.22L666.048 1565.29C642.551 1549.25 614.976 1525.51 602.626 1496.42C579.008 1440.81 577.524 1409.33 602.626 1361.8C623.477 1322.33 828.662 1180.02 813.812 1049.1C813.411 1045.48 812.831 1041.86 812.074 1038.25C811.124 1033.72 809.905 1029.26 808.425 1024.88C807.045 1020.78 805.434 1016.77 803.6 1012.85C797.051 998.721 787.333 984.86 773.914 971.414L774.061 971.508L775.157 972.243L775.892 972.764C777.228 973.753 779.247 975.263 781.666 977.349L782.361 977.95C784.059 979.434 785.957 981.185 787.975 983.216L789.098 984.353C790.782 986.09 792.515 988.001 794.297 990.087C794.738 990.595 795.166 991.116 795.634 991.65C797.224 993.575 798.828 995.66 800.419 997.839C800.713 998.253 801.02 998.668 801.314 999.095C802.076 1000.18 802.838 1001.3 803.587 1002.45L804.843 1004.39C805.284 1005.11 805.739 1005.83 806.18 1006.58C807.596 1008.93 808.986 1011.42 810.323 1014.03C810.925 1015.22 811.526 1016.43 812.101 1017.67C812.315 1018.12 812.529 1018.57 812.729 1019.01C813.237 1020.12 813.732 1021.26 814.213 1022.41C814.52 1023.14 814.828 1023.89 815.122 1024.64C816.031 1026.92 816.899 1029.3 817.701 1031.75C817.969 1032.56 818.236 1033.38 818.49 1034.22C818.677 1034.84 818.864 1035.45 819.038 1036.08C819.212 1036.71 819.385 1037.28 819.546 1037.88C819.706 1038.49 819.826 1038.89 819.96 1039.39C820.174 1040.22 820.388 1041.08 820.588 1041.93C820.789 1042.79 820.976 1043.59 821.163 1044.42C821.39 1045.48 821.618 1046.55 821.818 1047.63C821.818 1047.63 821.818 1047.71 821.818 1047.75C822.005 1048.72 822.192 1049.73 822.353 1050.74C822.513 1051.76 822.687 1052.81 822.847 1053.88C822.855 1053.92 822.855 1053.96 822.847 1053.99C822.954 1054.75 823.061 1055.53 823.155 1056.3C823.369 1057.93 823.556 1059.58 823.689 1061.26C823.769 1062.1 823.836 1062.95 823.89 1063.8C823.943 1064.66 824.01 1065.5 824.05 1066.37C824.09 1067.24 824.144 1068.11 824.17 1069.04C824.197 1069.98 824.237 1070.79 824.237 1071.71C824.665 1089 822.032 1108.58 815.001 1130.7Z" fill="#4E4700"/>
<path opacity="0.7" d="M681.527 898.395C679.576 903.741 678.212 907.751 678.212 907.751C678.212 907.751 619.695 836.83 662.093 768.582C643.487 813.025 665.247 867.519 681.527 898.395Z" fill="#ECDE76"/>
<path opacity="0.17" d="M886.846 582.42C864.953 665.838 806.876 689.349 806.876 689.349C634.265 794.822 695.028 864.714 690.27 875.54C688.933 878.601 687.369 882.504 685.845 886.528C674.725 869.312 663.283 838.543 681.622 796.974C704.224 745.675 746.582 721.335 775.88 702.729C805.179 684.123 847.296 654.517 868.561 612.026C889.827 569.535 887.568 540.744 884.4 516.591C881.433 493.869 865.34 463.902 854.808 448.517V448.29C854.808 448.29 911.921 486.838 886.846 582.42Z" fill="#4E4700"/>
<path opacity="0.21" d="M851.277 425.874C850.515 424.23 800.899 318.945 753.703 284.794C708.138 251.78 624.185 135.013 697.178 95.6758C692.045 99.9931 687.434 106.93 684.119 115.124V115.204C677.703 130.201 675.992 150.063 684.266 165.461C684.801 166.477 685.389 167.479 686.03 168.455C705.064 197.713 712.683 215.049 753.61 255.148C794.537 295.246 825.961 340.692 835.478 372.169C839.648 386.07 845.997 402.631 851.277 425.874Z" fill="#ECDE76"/>
<path d="M208.846 1072.96C201.723 1080.65 192.825 1086.48 182.929 1089.93L179.199 1091.27C177.939 1091.63 176.658 1091.92 175.363 1092.14L171.474 1092.93L167.464 1093.27C162.024 1093.83 156.53 1093.53 151.184 1092.38C145.653 1091.15 140.321 1089.15 135.345 1086.44C130.26 1083.52 125.567 1079.95 121.377 1075.84C119.2 1073.66 117.177 1071.33 115.322 1068.87C109.829 1061.68 105.747 1053.52 103.293 1044.81C102.433 1041.88 101.772 1038.9 101.315 1035.88C101.061 1034.4 100.967 1032.87 100.82 1031.36C100.615 1029.85 100.517 1028.32 100.526 1026.79C100.526 1025.25 100.432 1023.7 100.526 1022.18L100.927 1017.57L101.729 1013.06C101.996 1011.57 102.477 1010.12 102.852 1008.65C106.159 997.257 113.351 987.378 123.182 980.731C127.95 977.589 133.27 975.375 138.86 974.208C140.264 973.968 141.667 973.66 143.097 973.527L147.388 973.286C148.858 973.286 150.369 973.42 151.866 973.527C153.365 973.681 154.852 973.935 156.316 974.289C162.347 975.771 167.975 978.569 172.797 982.482C177.822 986.538 181.966 991.577 184.974 997.292C187.955 1003.03 189.802 1009.3 190.414 1015.74C191.144 1022.16 190.295 1028.66 187.941 1034.68C185.694 1040.41 181.945 1045.43 177.088 1049.21C172.326 1052.8 166.602 1054.89 160.647 1055.21C157.556 1055.41 154.454 1055.03 151.505 1054.08C146.909 1052.63 142.766 1050.01 139.475 1046.49C136.043 1042.85 133.524 1038.44 132.124 1033.63C131.215 1030.5 130.765 1027.26 130.787 1024C130.831 1020.75 131.507 1017.55 132.779 1014.56C133.961 1011.73 135.739 1009.19 137.991 1007.1C140.176 1005.09 142.791 1003.59 145.637 1002.73C148.507 1001.91 151.535 1001.79 154.459 1002.4C157.529 1003.11 160.347 1004.64 162.612 1006.84C164.894 1009.04 166.608 1011.76 167.609 1014.77C168.61 1017.78 168.867 1020.99 168.359 1024.12C167.796 1027.03 166.322 1029.68 164.149 1031.7C162.105 1033.57 159.438 1034.62 156.664 1034.65C155.281 1034.68 153.909 1034.39 152.654 1033.81C151.347 1033.22 150.177 1032.36 149.219 1031.3C148.272 1030.25 147.537 1029.04 147.054 1027.71C146.572 1026.39 146.336 1024.99 146.359 1023.58C146.52 1024.91 146.909 1026.19 147.508 1027.38C148.116 1028.54 148.932 1029.58 149.914 1030.44C150.802 1031.24 151.857 1031.83 153.002 1032.16C154.095 1032.51 155.254 1032.58 156.383 1032.39C158.588 1032.08 160.606 1030.97 162.064 1029.29C163.499 1027.57 164.371 1025.44 164.563 1023.21C164.698 1020.92 164.295 1018.63 163.387 1016.53C162.495 1014.45 161.12 1012.62 159.377 1011.18C157.765 1009.9 155.832 1009.1 153.79 1008.85C151.8 1008.67 149.795 1008.97 147.949 1009.74C146.106 1010.48 144.452 1011.62 143.111 1013.09C141.727 1014.61 140.671 1016.4 140.01 1018.34C139.363 1020.32 139.082 1022.4 139.181 1024.48C139.332 1026.66 139.781 1028.81 140.518 1030.87C142.007 1034.83 144.657 1038.26 148.123 1040.69C149.755 1041.78 151.565 1042.57 153.469 1043.03C155.329 1043.5 157.262 1043.61 159.163 1043.35C163.11 1042.94 166.838 1041.34 169.856 1038.77C172.956 1036.13 175.295 1032.72 176.633 1028.88C176.985 1027.9 177.275 1026.91 177.502 1025.9C177.689 1024.88 177.849 1023.85 177.956 1022.81L178.063 1021.22C178.063 1020.7 178.063 1020.16 178.063 1019.65C178.048 1018.55 177.959 1017.45 177.796 1016.37C177.293 1011.94 175.93 1007.65 173.786 1003.75C171.707 999.964 168.878 996.644 165.472 993.99C162.214 991.412 158.425 989.586 154.378 988.644L151.411 988.163C150.409 988.163 149.42 988.042 148.404 988.029L145.276 988.243C144.247 988.336 143.231 988.604 142.255 988.737C138.205 989.61 134.352 991.228 130.894 993.509C123.684 998.369 118.387 1005.58 115.91 1013.92C115.63 1015 115.229 1016.04 115.015 1017.14L114.373 1020.47L114.039 1023.86C113.919 1024.99 114.039 1026.16 113.946 1027.29C113.919 1028.46 113.973 1029.63 114.106 1030.79C114.226 1031.98 114.253 1033.19 114.44 1034.37C114.775 1036.74 115.244 1039.09 115.844 1041.41C119.045 1054.47 126.853 1065.93 137.831 1073.68C138.633 1074.27 139.448 1074.82 140.277 1075.34C144.213 1077.72 148.453 1079.55 152.881 1080.79C157.266 1081.97 161.802 1082.5 166.341 1082.34L169.79 1082.26L173.171 1081.78C174.316 1081.67 175.454 1081.5 176.58 1081.27L179.921 1080.47C184.935 1079.16 189.747 1077.17 194.223 1074.56C199.062 1074.17 203.936 1073.64 208.846 1072.96Z" fill="#779D15"/>
<path d="M813.852 1049.11C811.682 1047.5 809.76 1045.58 808.144 1043.42C806.367 1041 804.937 1038.34 803.894 1035.52C802.885 1032.57 802.256 1029.51 802.023 1026.4C801.909 1024.77 801.909 1023.14 802.023 1021.51C802.224 1018.59 802.762 1015.7 803.627 1012.9C805.46 1016.82 807.071 1020.84 808.452 1024.93C808.452 1025.12 808.452 1025.29 808.452 1025.48C808.533 1027.45 808.806 1029.41 809.267 1031.32C809.374 1031.84 809.508 1032.34 809.655 1032.83C810.265 1034.73 811.081 1036.56 812.087 1038.29C812.898 1041.88 813.486 1045.49 813.852 1049.11Z" fill="#9B8E00"/>
<path d="M822.447 1050.82C822.62 1051.85 822.781 1052.89 822.941 1053.96C822.527 1053.82 822.112 1053.67 821.698 1053.5L819.76 1052.71C819.127 1052.41 818.511 1052.07 817.915 1051.71L816.098 1050.66L814.387 1049.42L813.906 1049.07C813.505 1045.45 812.925 1041.84 812.168 1038.22C812.395 1038.61 812.622 1038.98 812.863 1039.35C814.203 1041.37 815.834 1043.17 817.702 1044.7L819.038 1045.86L820.562 1046.85C820.976 1047.13 821.377 1047.44 821.818 1047.7C821.818 1047.7 821.818 1047.78 821.818 1047.82C822.099 1048.8 822.286 1049.81 822.447 1050.82Z" fill="#8E8200"/>
<path d="M854.873 1017.25C854.061 1020.58 852.608 1023.73 850.596 1026.51C848.65 1029.32 846.044 1031.62 843.004 1033.19C840.121 1034.69 836.891 1035.38 833.648 1035.21C830.493 1034.98 827.478 1033.82 824.987 1031.87C823.681 1030.87 822.574 1029.63 821.725 1028.22C820.398 1026.03 819.652 1023.54 819.56 1020.98C819.473 1018.32 820.009 1015.69 821.124 1013.28C821.859 1011.71 822.818 1010.26 823.971 1008.97C825.121 1007.7 826.51 1006.66 828.061 1005.91C829.518 1005.19 831.114 1004.79 832.739 1004.75C834.317 1004.71 835.884 1005.03 837.324 1005.67C838.756 1006.35 840.003 1007.36 840.959 1008.63C841.935 1009.98 842.526 1011.57 842.67 1013.24C842.813 1014.91 842.547 1016.6 841.895 1018.15C841.243 1019.71 840.225 1021.08 838.928 1022.15C837.684 1023.11 836.168 1023.66 834.597 1023.7C833.13 1023.73 831.703 1023.23 830.587 1022.27C830.017 1021.8 829.56 1021.21 829.25 1020.53C828.937 1019.84 828.769 1019.09 828.756 1018.33C828.744 1017.59 828.876 1016.85 829.144 1016.15C829.415 1015.45 829.808 1014.81 830.306 1014.25C829.91 1014.84 829.616 1015.49 829.438 1016.18C829.276 1016.85 829.24 1017.55 829.331 1018.24C829.412 1018.86 829.626 1019.46 829.959 1020C830.282 1020.55 830.743 1021.01 831.295 1021.34C832.288 1021.98 833.479 1022.25 834.65 1022.09C835.826 1021.9 836.917 1021.36 837.778 1020.53C838.615 1019.67 839.246 1018.62 839.623 1017.47C839.996 1016.33 840.088 1015.12 839.89 1013.93C839.695 1012.86 839.204 1011.87 838.473 1011.06C837.734 1010.29 836.816 1009.71 835.8 1009.37C834.806 1009.03 833.746 1008.91 832.699 1009.03C831.615 1009.14 830.568 1009.48 829.625 1010.03C828.679 1010.6 827.842 1011.33 827.152 1012.19C826.452 1013.12 825.876 1014.13 825.441 1015.2C824.656 1017.31 824.521 1019.61 825.053 1021.79C825.333 1022.79 825.785 1023.74 826.39 1024.58C826.973 1025.42 827.707 1026.14 828.555 1026.71C830.277 1027.92 832.321 1028.58 834.423 1028.61C836.582 1028.63 838.709 1028.09 840.585 1027.02C841.047 1026.75 841.493 1026.45 841.922 1026.14C842.349 1025.79 842.764 1025.44 843.178 1025.05L843.78 1024.46C843.967 1024.26 844.14 1024.04 844.314 1023.84C844.697 1023.4 845.045 1022.93 845.357 1022.43C846.699 1020.48 847.648 1018.29 848.15 1015.98C848.642 1013.74 848.674 1011.42 848.244 1009.17C847.834 1007.01 846.958 1004.96 845.678 1003.17L844.662 1001.94C844.261 1001.58 843.9 1001.21 843.499 1000.85L842.162 999.844C841.721 999.51 841.227 999.269 840.826 998.975C838.9 997.92 836.798 997.222 834.624 996.917C830.047 996.342 825.413 997.371 821.511 999.831C821.017 1000.16 820.496 1000.45 820.028 1000.81L818.611 1001.92L817.274 1003.15C816.847 1003.56 816.459 1004.05 816.045 1004.48C815.628 1004.94 815.244 1005.43 814.895 1005.94C814.521 1006.46 814.107 1006.95 813.772 1007.49C813.078 1008.55 812.444 1009.66 811.874 1010.79C811.33 1011.88 810.848 1013 810.431 1014.15C809.16 1017.61 808.527 1021.27 808.56 1024.96C807.179 1020.86 805.568 1016.85 803.734 1012.93C804.297 1011.15 804.981 1009.41 805.779 1007.72C805.94 1007.37 806.114 1007.02 806.287 1006.67C806.836 1005.57 807.443 1004.5 808.105 1003.47C808.52 1002.78 809.014 1002.13 809.442 1001.49C809.887 1000.81 810.383 1000.17 810.925 999.563C811.46 998.949 811.968 998.227 812.543 997.719L814.307 996.021L816.205 994.498C816.833 994.003 817.542 993.589 818.197 993.161C823.486 989.798 829.78 988.381 836 989.151C838.996 989.574 841.884 990.558 844.515 992.051C845.17 992.439 845.851 992.813 846.453 993.254L848.244 994.658C848.832 995.166 849.393 995.754 849.955 996.315C850.495 996.904 850.999 997.524 851.465 998.173C853.352 1000.88 854.62 1003.96 855.181 1007.21C855.75 1010.54 855.646 1013.95 854.873 1017.25V1017.25Z" fill="#8E8200"/>
<path d="M631.738 1597.54C637.173 1599.86 641.692 1603.9 644.596 1609.05C646.048 1611.65 647.085 1614.46 647.671 1617.39C648.234 1620.28 648.256 1623.25 647.737 1626.14C647.259 1629.03 646.224 1631.79 644.69 1634.28C643.068 1636.82 640.864 1638.94 638.261 1640.46C635.553 1642.02 632.538 1642.96 629.426 1643.24C626.184 1643.51 622.919 1643.13 619.829 1642.12C618.24 1641.6 616.708 1640.92 615.258 1640.1C612.966 1638.84 610.916 1637.19 609.203 1635.22C607.508 1633.25 606.193 1630.98 605.327 1628.54C604.466 1626.23 604.08 1623.78 604.19 1621.32C604.289 1618.95 604.9 1616.63 605.981 1614.51C606.675 1613.1 607.622 1611.83 608.775 1610.76C611.137 1608.58 614.199 1607.31 617.41 1607.19C620.678 1607.07 623.906 1607.95 626.659 1609.72C628.025 1610.58 629.221 1611.69 630.188 1612.99C631.13 1614.26 631.816 1615.71 632.206 1617.24C632.565 1618.6 632.62 1620.03 632.366 1621.41C632.124 1622.75 631.555 1624.02 630.709 1625.09C631.107 1623.89 631.262 1622.62 631.163 1621.36C631.064 1620.1 630.715 1618.87 630.134 1617.75C629.612 1616.68 628.901 1615.72 628.036 1614.9C627.159 1614.08 626.146 1613.43 625.042 1612.96C623.054 1612.06 620.839 1611.79 618.693 1612.19C616.662 1612.56 614.818 1613.61 613.467 1615.17C612.869 1615.91 612.416 1616.76 612.13 1617.67C611.74 1618.61 611.496 1619.6 611.408 1620.61C611.221 1622.66 611.547 1624.72 612.357 1626.61C613.152 1628.56 614.404 1630.29 616.006 1631.66C616.823 1632.37 617.72 1632.97 618.679 1633.47C619.649 1634.01 620.67 1634.46 621.727 1634.8C623.801 1635.49 625.988 1635.78 628.169 1635.65C630.267 1635.52 632.316 1634.96 634.184 1634C636.043 1633.06 637.669 1631.72 638.943 1630.07C640.251 1628.3 641.238 1626.32 641.856 1624.2C644.449 1615.69 640.787 1604.61 631.738 1597.54Z" fill="#C9CA59"/>
<path d="M692.45 1927.94C692.065 1928.98 691.619 1930 691.113 1930.99L689.777 1933.98C688.734 1935.92 687.571 1937.76 686.475 1939.62C690.111 1931.68 692.059 1923.08 692.196 1914.35C692.361 1905.63 690.789 1896.96 687.571 1888.86C686.715 1886.65 685.729 1884.5 684.617 1882.41C684.778 1878.19 684.916 1873.93 685.032 1869.62C688.609 1875.06 691.395 1880.98 693.305 1887.2C697.466 1900.51 697.165 1914.81 692.45 1927.94Z" fill="#91AD2D"/>
<path d="M685.014 1871.57C684.934 1874.62 684.84 1877.63 684.72 1880.62C682.648 1876.69 679.999 1873.08 676.86 1869.93L675.216 1868.34C674.682 1867.82 674.053 1867.38 673.479 1866.88L671.741 1865.45L669.87 1864.2C667.451 1862.56 664.832 1861.24 662.077 1860.27C659.388 1859.36 656.594 1858.81 653.764 1858.62C650.993 1858.51 648.22 1858.77 645.517 1859.38C640.224 1860.65 635.418 1863.43 631.696 1867.4C630.768 1868.38 629.906 1869.41 629.116 1870.5C628.729 1871.04 628.395 1871.64 628.034 1872.22C627.658 1872.76 627.327 1873.34 627.045 1873.94C626.791 1874.53 626.443 1875.09 626.216 1875.72L625.548 1877.56L625.053 1879.49C624.879 1880.13 624.853 1880.82 624.719 1881.44C624.018 1886.85 625.082 1892.35 627.753 1897.12C629.085 1899.51 630.785 1901.67 632.792 1903.53C633.287 1903.95 633.781 1904.43 634.316 1904.87L635.987 1906.06C636.548 1906.42 637.109 1906.71 637.671 1907.05L639.422 1907.85C641.792 1908.77 644.33 1909.17 646.867 1909.03C649.355 1908.89 651.779 1908.18 653.949 1906.95C656.119 1905.73 657.977 1904.02 659.377 1901.95C659.742 1901.45 660.064 1900.92 660.34 1900.36C660.473 1900.11 660.634 1899.86 660.767 1899.58L661.102 1898.72C661.316 1898.15 661.494 1897.57 661.636 1896.98C661.771 1896.38 661.865 1895.78 661.917 1895.17C662.145 1892.63 661.731 1890.08 660.714 1887.75C659.69 1885.35 658.076 1883.25 656.022 1881.65C655.051 1880.87 653.958 1880.24 652.788 1879.81C651.661 1879.39 650.473 1879.17 649.273 1879.14C646.842 1879.12 644.48 1879.95 642.589 1881.48C641.648 1882.27 640.848 1883.22 640.224 1884.28C639.617 1885.33 639.243 1886.49 639.128 1887.69C638.983 1888.96 639.101 1890.24 639.475 1891.46C639.849 1892.71 640.462 1893.86 641.28 1894.87C642.092 1895.9 643.106 1896.75 644.26 1897.37C645.394 1897.97 646.675 1898.24 647.955 1898.14C649.235 1898.05 650.462 1897.59 651.491 1896.82C652.528 1896.07 653.337 1895.04 653.83 1893.86C654.298 1892.57 654.358 1891.17 654.004 1889.85C653.615 1888.44 652.798 1887.19 651.665 1886.28C651.112 1885.78 650.46 1885.42 649.754 1885.19C649.064 1884.97 648.335 1884.9 647.615 1884.98C646.872 1885.08 646.157 1885.33 645.517 1885.72C644.882 1886.1 644.339 1886.62 643.926 1887.24C644.26 1886.52 644.748 1885.88 645.356 1885.37C645.97 1884.86 646.686 1884.5 647.455 1884.3C648.288 1884.12 649.148 1884.12 649.981 1884.3C650.845 1884.46 651.667 1884.79 652.4 1885.27C653.919 1886.27 655.092 1887.71 655.755 1889.4C656.426 1891.11 656.562 1892.97 656.143 1894.75C655.652 1896.48 654.684 1898.05 653.349 1899.25C652.008 1900.45 650.353 1901.25 648.577 1901.54C646.691 1901.86 644.752 1901.65 642.977 1900.94C641.171 1900.21 639.543 1899.1 638.205 1897.68C636.869 1896.25 635.817 1894.58 635.104 1892.76C634.422 1890.96 634.095 1889.05 634.142 1887.13C634.204 1885.22 634.659 1883.35 635.479 1881.63C636.275 1879.97 637.351 1878.46 638.66 1877.16C640.676 1875.17 643.208 1873.78 645.971 1873.15C648.81 1872.52 651.763 1872.65 654.539 1873.51C656.461 1874.09 658.269 1874.99 659.885 1876.18C663.082 1878.42 665.657 1881.44 667.367 1884.94C669.076 1888.45 669.864 1892.34 669.656 1896.23C669.46 1899.99 668.265 1903.63 666.194 1906.77C664.233 1909.81 661.605 1912.37 658.509 1914.25C655.322 1916.13 651.746 1917.26 648.056 1917.54C644.267 1917.82 640.463 1917.26 636.909 1915.92C635.993 1915.59 635.1 1915.2 634.236 1914.75C633.394 1914.28 632.525 1913.82 631.723 1913.3L629.424 1911.67C628.675 1911.1 627.98 1910.46 627.272 1909.84C624.494 1907.29 622.139 1904.32 620.295 1901.03C616.687 1894.55 615.28 1887.08 616.285 1879.73C616.459 1878.84 616.552 1877.95 616.806 1877.05L617.501 1874.47L618.45 1871.99C618.784 1871.17 619.239 1870.41 619.626 1869.62C620.017 1868.85 620.464 1868.1 620.963 1867.39C621.431 1866.68 621.872 1865.95 622.38 1865.26C627.573 1858.36 635.122 1853.6 643.592 1851.9C647.011 1851.27 650.499 1851.09 653.964 1851.38C657.465 1851.78 660.898 1852.64 664.176 1853.93C667.465 1855.25 670.556 1857.02 673.358 1859.18L675.444 1860.76L677.382 1862.51C678.01 1863.11 678.718 1863.66 679.266 1864.32L680.991 1866.27C682.448 1867.94 683.792 1869.72 685.014 1871.57Z" fill="#B3A500"/>
<path d="M63.6367 950.951C115.618 937.665 118.438 982.375 118.625 986.665C118.634 986.777 118.634 986.888 118.625 986.999C72.445 1003.29 63.9308 952.849 63.6367 950.951Z" fill="#AA9F1E"/>
<path d="M63.6367 950.949L118.585 986.931C118.291 986.931 118.585 986.931 118.585 986.931C72.445 1003.29 63.9308 952.847 63.6367 950.949Z" fill="#CCBE16"/>
<path d="M469.62 960.75C513.969 990.931 482.331 1022.65 479.217 1025.6L478.976 1025.83C436.191 1002 468.39 962.234 469.62 960.75Z" fill="#AA9F1E"/>
<path d="M469.62 960.75L478.976 1025.76C478.775 1025.54 478.976 1025.76 478.976 1025.76C436.191 1002 468.39 962.234 469.62 960.75Z" fill="#CCBE16"/>
<path d="M953.288 1601.47C958.126 1654.94 913.537 1650.59 909.273 1650.07H908.939C900.21 1601.85 951.376 1601.47 953.288 1601.47Z" fill="#AA9F1E"/>
<path d="M953.287 1601.47L909.019 1649.99C909.019 1649.7 909.019 1649.99 909.019 1649.99C900.21 1601.85 951.376 1601.47 953.287 1601.47Z" fill="#CCBE16"/>
<path d="M561.018 2127.24C611.288 2145.95 588.138 2184.33 585.826 2187.94L585.639 2188.22C538.416 2175.27 560.189 2128.97 561.018 2127.24Z" fill="#AA9F1E"/>
<path d="M561.017 2127.24L585.651 2188.13C585.41 2187.96 585.651 2188.13 585.651 2188.13C538.414 2175.27 560.188 2128.97 561.017 2127.24Z" fill="#CCBE16"/>
<path d="M582.778 2190.76C557.382 2207.76 544.43 2178.53 544.016 2177.39C573.421 2161.35 582.029 2187.98 582.778 2190.55" fill="#AA9F1E"/>
<path d="M582.778 2190.76C557.382 2207.76 544.43 2178.53 544.016 2177.39L582.778 2190.76Z" fill="#CCBE16"/>
<path d="M562.125 1629.95C581.827 1598.69 604.442 1619.7 606.541 1621.77L606.715 1621.93C591.33 1651.97 563.181 1630.77 562.125 1629.95Z" fill="#AA9F1E"/>
<path d="M562.125 1629.95L606.661 1621.93C606.501 1622.08 606.661 1621.93 606.661 1621.93C591.33 1651.97 563.181 1630.77 562.125 1629.95Z" fill="#CCBE16"/>
<path d="M588.418 2184.75C569.13 2165.85 592.053 2149.41 592.922 2148.79C612.089 2171.31 590.65 2183.54 588.565 2184.67" fill="#AA9F1E"/>
<path d="M588.418 2184.75C569.13 2165.85 592.053 2149.41 592.922 2148.79L588.418 2184.72" fill="#CCBE16"/>
<path d="M625.657 1864.24C628.81 1862.93 631.327 1860.44 632.674 1857.3C633.381 1855.65 633.806 1853.89 633.93 1852.1C634.05 1850.23 633.832 1848.35 633.289 1846.55C632.758 1844.68 631.913 1842.92 630.789 1841.33C629.609 1839.68 628.106 1838.29 626.371 1837.24C624.636 1836.19 622.706 1835.5 620.698 1835.22C618.745 1834.95 616.758 1835.11 614.87 1835.67C613.933 1835.94 613.034 1836.33 612.197 1836.82C610.887 1837.55 609.747 1838.55 608.855 1839.75C607.947 1840.97 607.305 1842.36 606.971 1843.84C606.619 1845.33 606.573 1846.88 606.837 1848.39C607.099 1849.92 607.652 1851.4 608.468 1852.73C609.008 1853.65 609.684 1854.48 610.473 1855.19C612.019 1856.61 613.984 1857.49 616.073 1857.69C618.003 1857.88 619.942 1857.41 621.567 1856.35C622.342 1855.84 622.995 1855.17 623.478 1854.37C623.975 1853.56 624.29 1852.65 624.4 1851.7C624.522 1850.8 624.445 1849.89 624.173 1849.03C623.893 1848.15 623.439 1847.34 622.836 1846.65C623.504 1848.11 623.581 1849.77 623.05 1851.29C622.821 1851.94 622.452 1852.54 621.968 1853.04C621.496 1853.53 620.921 1853.92 620.283 1854.17C619.069 1854.69 617.718 1854.81 616.434 1854.49C615.107 1854.18 613.906 1853.47 612.985 1852.46C612.59 1851.98 612.266 1851.45 612.023 1850.87C611.716 1850.28 611.491 1849.64 611.355 1848.99C611.073 1847.74 611.115 1846.43 611.475 1845.2C611.805 1844.02 612.446 1842.95 613.333 1842.1C613.771 1841.68 614.266 1841.33 614.803 1841.05C615.362 1840.72 615.959 1840.47 616.581 1840.3C617.843 1839.91 619.172 1839.79 620.484 1839.94C621.827 1840.09 623.129 1840.5 624.32 1841.14C625.552 1841.82 626.644 1842.73 627.541 1843.81C628.475 1844.96 629.236 1846.24 629.8 1847.61C630.955 1850.46 631.176 1853.61 630.432 1856.6C629.687 1859.58 628.016 1862.26 625.657 1864.24V1864.24Z" fill="#B3A500"/>
<path d="M654.26 693.8C703.541 714.999 678.52 752.157 676.02 755.659L675.833 755.926C629.306 740.635 653.351 695.484 654.26 693.8Z" fill="#AA9F1E"/>
<path d="M654.258 693.8L675.845 755.832C675.604 755.645 675.845 755.832 675.845 755.832C629.304 740.635 653.349 695.484 654.258 693.8Z" fill="#CCBE16"/>
<path d="M688.519 707.899C709.905 738.642 681.342 751.5 678.561 752.649L678.347 752.73C656.4 726.478 687.356 708.568 688.519 707.899Z" fill="#AA9F1E"/>
<path d="M688.521 707.898L678.403 752.689C678.323 752.501 678.403 752.689 678.403 752.689C656.402 726.477 687.358 708.567 688.521 707.898Z" fill="#CCBE16"/>
<path d="M143.47 1151.39C137.736 1120.01 164.375 1120.15 166.928 1120.25H167.115C174.948 1148.32 144.607 1151.28 143.47 1151.39Z" fill="#AA9F1E"/>
<path d="M143.469 1151.39L167.073 1120.27C167.073 1120.45 167.073 1120.27 167.073 1120.27C174.946 1148.31 144.605 1151.28 143.469 1151.39Z" fill="#CCBE16"/>
<path d="M674.337 0C718.686 30.1942 687.049 61.9122 683.934 64.8662L683.68 65.0934C640.909 41.2347 673.108 1.48365 674.337 0Z" fill="#AA9F1E"/>
<path d="M674.338 0L683.695 65.0132C683.494 64.786 683.695 65.0132 683.695 65.0132C640.91 41.2347 673.109 1.48365 674.338 0Z" fill="#CCBE16"/>
<path d="M630.444 1100.52C629.602 1127.07 617.359 1108.89 608.764 1093.53C599.247 1076.52 549.351 1061.83 549.351 1061.83C538.257 1059.3 529.195 1056.67 524.57 1053.63C518.315 1049.5 520.213 1044.64 536.279 1038.26C564.201 1027.18 628.359 1049.94 630.31 1090.46C630.498 1094.35 630.538 1097.7 630.444 1100.52Z" fill="white"/>
<path d="M472.079 1159.84C471.302 1162.34 470.08 1164.68 468.471 1166.74C451.629 1186.07 427.57 1055.33 427.57 1055.33C428.158 1102.31 406.184 1069.54 375.295 1064.79C344.406 1060.05 276.091 1074.89 229.75 1086.18C198.393 1093.81 161.863 1084.04 153.683 1076.74C149.767 1073.25 152.347 1070.33 165.004 1070.14C204.207 1069.54 301.032 1040.44 376.484 1025.8C451.937 1011.17 464.995 1028.56 464.995 1028.56C509.251 1077.26 472.079 1159.84 472.079 1159.84Z" fill="white"/>
<path d="M671.971 1248.35C577.993 1325.11 595.784 1407.65 558.853 1386.17C558.211 1385.8 557.61 1385.41 557.008 1385.01C523.112 1361.86 558.439 1281.03 602.667 1247.76C647.671 1213.89 720.29 1155.11 720.29 1155.11C733.389 1139.34 742.852 1136.16 745.98 1141.82C752.035 1152.93 734.057 1197.64 671.971 1248.35Z" fill="white"/>
<path d="M138.568 967.661C138.568 967.661 171.529 962.916 183.719 983.7C195.909 1004.48 180.685 997.066 166.49 982.216C152.295 967.367 144.502 976.576 134.705 980.439C124.907 984.302 117.182 975.386 138.568 967.661Z" fill="#F0FDFF"/>
<path d="M859.713 452.221C859.713 452.221 926.544 493.91 878.052 592.566C843.954 661.83 874.897 577.703 871.369 528.996C867.84 480.29 839.784 426.037 859.713 452.221Z" fill="#F0FDFF"/>
<path d="M848.753 1974.69C826.579 2072.9 790.931 2000.08 757.663 2118.63C724.394 2237.17 771.136 2289.14 768.757 2350.92C767.179 2391.84 743.013 2391.75 727.843 2362.84C720.104 2348.14 714.717 2325.92 715.813 2297.87C719.115 2214.72 653.887 2055.47 690.417 2038.05C726.947 2020.64 786.988 1885.97 824.387 1842.41C861.785 1798.85 884.414 1821.03 884.414 1821.03C889.988 1825.48 893.156 1830.1 894.466 1835.26C900.44 1859.01 866.971 1893.99 848.753 1974.69Z" fill="white"/>
<path d="M622.425 1485.68C622.425 1485.68 595.787 1470.9 622.425 1510.93C649.064 1550.96 673.711 1651.52 663.406 1673.69C653.101 1695.87 678.964 1728.21 669.675 1592.75C660.385 1457.28 651.203 1544.07 622.425 1485.68Z" fill="#F0FDFF"/>
<path d="M533.914 2219.03C530.679 2220.97 391.31 2342.59 436.488 2442.41C481.666 2542.23 488.055 2586.16 480.69 2415.07C473.325 2243.99 643.209 2153.7 533.914 2219.03Z" fill="white"/>
<path d="M468.471 1166.74C451.629 1186.07 427.57 1055.33 427.57 1055.33C428.158 1102.31 406.184 1069.54 375.295 1064.79C344.406 1060.05 276.091 1074.89 229.751 1086.18C198.394 1093.81 161.864 1084.04 153.684 1076.74C157.814 1076.21 165.553 1076.74 179.895 1080.53C211.172 1088.8 274.113 1068.5 283.616 1065.38C293.12 1062.27 366.554 1051.17 396.08 1062.62C425.606 1074.06 422.625 1072.52 425.793 1051.13C428.586 1032.3 443.864 1147.53 468.471 1166.74Z" fill="#DAE9EE"/>
<path d="M630.444 1100.52C629.602 1127.07 617.358 1108.89 608.764 1093.53C599.247 1076.52 549.351 1061.83 549.351 1061.83C538.257 1059.3 529.195 1056.67 524.57 1053.63C533.659 1051.53 549.659 1052.07 575.87 1064.79C623.547 1087.93 621.382 1121.08 630.444 1100.52Z" fill="#DAE9EE"/>
<path d="M671.974 1248.35C577.997 1325.12 595.787 1407.65 558.856 1386.17C558.215 1385.8 557.613 1385.41 557.012 1385.01C562.826 1384.88 569.763 1375.73 577.515 1349.74C598.54 1279.24 678.858 1230.54 710.148 1204.39C734.207 1184.24 743.136 1154.43 745.943 1141.84C752.038 1152.93 734.06 1197.64 671.974 1248.35Z" fill="#DAE9EE"/>
<path d="M921.226 1728.95C920.005 1730.15 918.661 1731.22 917.217 1732.14C900.723 1742.49 885.138 1718.17 881.649 1685.12C880.748 1676.59 880.672 1667.99 881.422 1659.44C885.579 1611.91 845.494 1685.15 845.039 1562.99C845.039 1562.99 908.742 1597.66 905.187 1655.29C901.632 1712.91 943.214 1707.56 921.226 1728.95Z" fill="#F0FDFF"/>
<path d="M917.228 1732.14C900.734 1742.49 885.149 1718.17 881.66 1685.12C888.771 1704.23 900.146 1725.11 917.228 1732.14Z" fill="#DAE9EE"/>
<path d="M1008.56 2708.61C1008.56 2772.34 920.129 2782.41 600.623 2755.58C299.042 2730.18 345.422 2800.53 368.051 2690.09C369.388 2683.51 370.644 2676.3 371.754 2668.4C371.754 2668.4 422.545 2512.65 537.495 2510.76C659.341 2508.77 831.431 2695.22 916.36 2668.4C994.672 2643.65 1006.96 2644.57 1008.4 2694.87C1008.52 2699.07 1008.56 2703.64 1008.56 2708.61Z" fill="white"/>
<path d="M1008.56 2708.61C1008.56 2772.34 920.129 2782.4 600.623 2755.58C299.042 2730.18 345.422 2800.53 368.051 2690.08C497.102 2716.32 813.279 2774.92 882.236 2733.79C927.507 2706.79 976.347 2692.44 1008.37 2694.87C1008.52 2699.07 1008.56 2703.64 1008.56 2708.61Z" fill="#DAE9EE"/>
<path d="M848.754 1974.68C826.58 2072.9 790.932 2000.08 757.664 2118.62C724.395 2237.17 771.137 2289.14 768.758 2350.92C767.18 2391.84 743.014 2391.75 727.844 2362.84C742.974 2373.84 753.694 2364.17 760.243 2353.29C769.159 2338.44 731.132 2220.22 740.635 2140.63C750.138 2061.03 804.793 2019.43 826.78 2009.34C848.768 1999.25 839.839 1926.77 866.384 1892.9C882.424 1872.51 890.51 1849.96 894.453 1835.26C900.441 1859.01 866.972 1893.99 848.754 1974.68Z" fill="#DAE9EE"/>
<path d="M988.953 2655.08C988.953 2655.08 331.951 2576.66 657.471 2088.35" stroke="#006A02" stroke-width="5" stroke-miterlimit="10" stroke-linecap="round"/>
<path d="M866.383 1783.56C866.383 1783.56 600.168 1654.86 650.465 1458.33" stroke="#006A02" stroke-width="5" stroke-miterlimit="10" stroke-linecap="round"/>
<path d="M678.148 907.779C611.504 946.207 647.179 999.912 720.786 1078.69C794.394 1157.47 762.636 1270.78 762.636 1270.78" stroke="#006A02" stroke-width="5" stroke-miterlimit="10" stroke-linecap="round"/>
<path d="M817.557 808.052C817.557 808.052 704.532 746.969 755.257 546.182" stroke="#006A02" stroke-width="5" stroke-miterlimit="10" stroke-linecap="round"/>
<path d="M627.435 1200.83C627.435 1200.83 618.266 1004.6 509.812 1029.45" stroke="#006A02" stroke-width="5" stroke-miterlimit="10" stroke-linecap="round"/>
<path d="M426.584 1104.93C426.584 1104.93 405.813 1151.38 272.191 1059.49" stroke="#006A02" stroke-width="5" stroke-miterlimit="10" stroke-linecap="round"/>
<path d="M218.176 1129.7C218.176 1129.7 199.904 1048.82 137.805 1073.73" stroke="#006A02" stroke-width="5" stroke-miterlimit="10" stroke-linecap="round"/>
<path d="M845.052 402.336C845.052 402.336 883.226 364.403 763.024 346.198C642.822 327.993 638.264 281.533 641.726 247.729" stroke="#006A02" stroke-width="5" stroke-miterlimit="10" stroke-linecap="round"/>
<g opacity="0.1">
<path opacity="0.1" d="M752.956 1221.04C777.453 1214.3 791.846 1188.97 785.103 1164.48C778.36 1139.98 753.034 1125.59 728.536 1132.33C704.039 1139.07 689.646 1164.4 696.389 1188.89C703.132 1213.39 728.458 1227.79 752.956 1221.04Z" fill="#FE6600"/>
</g>
<path d="M738.872 1185.85C738.275 1185.95 737.661 1185.86 737.121 1185.58C736.583 1185.31 736.143 1184.87 735.865 1184.34C734.21 1181.17 732.932 1177.81 732.055 1174.34C731.706 1172.89 731.456 1171.42 731.307 1169.93C730.809 1166.06 731.435 1162.13 733.111 1158.61C736.56 1151.71 745.02 1152.03 746.705 1151.35C748.389 1150.67 749.685 1147.72 749.685 1147.72L759.87 1152.79C759.87 1152.79 758.266 1155.63 758.748 1157.38C758.961 1158.19 760.245 1160.05 761.194 1162.53C761.201 1162.57 761.201 1162.61 761.194 1162.65C761.884 1164.22 762.229 1165.92 762.206 1167.64C762.182 1169.36 761.792 1171.05 761.06 1172.6C756.382 1182.09 743.791 1185.03 738.872 1185.85Z" fill="#509CE8"/>
<g opacity="0.3">
<path opacity="0.3" d="M751.154 1180.5C746.543 1183.82 741.504 1184.7 739.9 1182.46C738.296 1180.21 740.729 1175.77 745.34 1172.4C749.951 1169.04 754.99 1168.22 756.594 1170.45C758.198 1172.68 755.766 1177.22 751.154 1180.5Z" fill="white"/>
</g>
<path d="M759.911 1153.64L749.672 1148.52L749.004 1148.18L751.677 1142.73C752.017 1141.99 752.504 1141.32 753.108 1140.77C753.712 1140.21 754.422 1139.79 755.194 1139.52C755.966 1139.24 756.785 1139.13 757.602 1139.18C758.419 1139.23 759.217 1139.45 759.95 1139.81C760.682 1140.18 761.332 1140.69 761.863 1141.31C762.393 1141.94 762.793 1142.66 763.038 1143.44C763.282 1144.22 763.367 1145.05 763.287 1145.86C763.207 1146.68 762.963 1147.47 762.571 1148.18L762.263 1148.81L759.911 1153.64Z" fill="#338835"/>
<g opacity="0.1">
<path opacity="0.1" d="M656.623 396.4C681.121 389.657 695.514 364.332 688.771 339.834C682.028 315.337 656.702 300.944 632.204 307.687C607.707 314.43 593.314 339.756 600.057 364.253C606.8 388.751 632.126 403.144 656.623 396.4Z" fill="#FDD100"/>
</g>
<path d="M642.54 361.182C641.943 361.284 641.329 361.19 640.789 360.914C640.252 360.646 639.812 360.216 639.533 359.685C637.873 356.509 636.594 353.149 635.723 349.673C635.374 348.226 635.124 346.757 634.975 345.276C634.477 341.407 635.103 337.477 636.779 333.955C640.228 327.044 648.688 327.365 650.373 326.697C652.057 326.028 653.353 323.048 653.353 323.048L663.538 328.14C663.538 328.14 661.934 330.961 662.416 332.712C662.629 333.527 663.899 335.385 664.862 337.858V337.978C665.554 339.553 665.9 341.258 665.877 342.978C665.854 344.698 665.462 346.393 664.728 347.949C660.036 357.439 647.459 360.38 642.54 361.182Z" fill="#FE6600"/>
<g opacity="0.3">
<path opacity="0.3" d="M654.796 355.849C650.185 359.164 645.146 360.033 643.542 357.8C641.938 355.568 644.357 351.117 648.969 347.749C653.58 344.381 658.632 343.552 660.236 345.798C661.84 348.043 659.434 352.521 654.796 355.849Z" fill="white"/>
</g>
<path d="M663.565 328.983L653.34 323.863L652.672 323.529L655.345 318.076C656.075 316.639 657.344 315.551 658.876 315.05C660.407 314.549 662.074 314.675 663.512 315.402C663.889 315.59 664.247 315.814 664.581 316.071C665.683 316.939 666.45 318.161 666.752 319.531C667.054 320.9 666.873 322.332 666.239 323.583L665.931 324.211L663.565 328.983Z" fill="#338835"/>
<g opacity="0.1">
<path opacity="0.1" d="M621.225 1279.78C645.723 1273.03 660.115 1247.71 653.372 1223.21C646.629 1198.71 621.303 1184.32 596.806 1191.06C572.308 1197.81 557.916 1223.13 564.659 1247.63C571.402 1272.13 596.727 1286.52 621.225 1279.78Z" fill="#FDD100"/>
</g>
<path d="M607.122 1244.58C606.527 1244.68 605.918 1244.58 605.38 1244.31C604.842 1244.04 604.404 1243.61 604.128 1243.07C602.462 1239.9 601.183 1236.55 600.318 1233.07C599.962 1231.62 599.712 1230.15 599.57 1228.66C599.059 1224.79 599.671 1220.85 601.334 1217.31C604.796 1210.4 613.257 1210.72 614.941 1210.06C616.625 1209.39 617.908 1206.41 617.908 1206.41L628.107 1211.49C628.107 1211.49 626.489 1214.32 626.984 1216.07C627.198 1216.89 628.467 1218.74 629.43 1221.22V1221.34C630.122 1222.91 630.468 1224.62 630.445 1226.34C630.422 1228.06 630.03 1229.75 629.296 1231.31C624.631 1240.83 612.027 1243.77 607.122 1244.58Z" fill="#FE6600"/>
<g opacity="0.3">
<path opacity="0.3" d="M619.419 1239.23C614.808 1242.55 609.769 1243.43 608.151 1241.19C606.534 1238.94 608.98 1234.5 613.591 1231.13C618.203 1227.77 623.242 1226.95 624.859 1229.18C626.476 1231.42 624.057 1235.92 619.419 1239.23Z" fill="white"/>
</g>
<path d="M628.161 1212.37L617.936 1207.26L617.254 1206.93L619.927 1201.46C620.662 1200.03 621.934 1198.94 623.467 1198.44C624.999 1197.94 626.667 1198.06 628.107 1198.79C628.485 1198.97 628.844 1199.2 629.177 1199.46C630.272 1200.33 631.035 1201.55 631.336 1202.92C631.638 1204.29 631.461 1205.72 630.834 1206.97L630.527 1207.58L628.161 1212.37Z" fill="#338835"/>
<g opacity="0.1">
<path opacity="0.1" d="M745.488 1071.39C768.583 1060.79 778.717 1033.48 768.124 1010.39C757.531 987.294 730.221 977.16 707.126 987.753C684.031 998.346 673.896 1025.66 684.489 1048.75C695.083 1071.85 722.392 1081.98 745.488 1071.39Z" fill="#509CE8"/>
</g>
<path d="M726.734 1020.15C727.306 1019.95 727.926 1019.95 728.498 1020.15C729.077 1020.32 729.583 1020.68 729.942 1021.16C732.088 1024.03 733.883 1027.14 735.288 1030.43C735.874 1031.8 736.361 1033.21 736.745 1034.65C737.835 1038.39 737.835 1042.36 736.745 1046.11C734.446 1053.48 726.052 1054.53 724.489 1055.46C722.925 1056.4 722.136 1059.54 722.136 1059.54L711.269 1056.16C711.269 1056.16 712.392 1053.11 711.644 1051.45C711.296 1050.69 709.732 1049.05 708.396 1046.77C708.393 1046.73 708.393 1046.69 708.396 1046.65C707.456 1045.21 706.838 1043.59 706.584 1041.89C706.33 1040.19 706.447 1038.45 706.925 1036.8C710.066 1026.67 722.016 1021.74 726.734 1020.15Z" fill="#6FDD66"/>
<g opacity="0.3">
<path opacity="0.3" d="M715.467 1027.39C719.477 1023.38 724.315 1021.71 726.267 1023.65C728.218 1025.59 726.534 1030.44 722.511 1034.45C718.488 1038.46 713.663 1040.14 711.711 1038.19C709.76 1036.24 711.444 1031.4 715.467 1027.39Z" fill="white"/>
</g>
<path d="M711.147 1055.31L722.067 1058.72L722.789 1058.94L720.971 1064.76C720.735 1065.53 720.35 1066.24 719.838 1066.86C719.326 1067.47 718.698 1067.98 717.989 1068.36C717.279 1068.73 716.504 1068.96 715.706 1069.03C714.908 1069.1 714.104 1069.01 713.339 1068.77C712.939 1068.66 712.554 1068.5 712.19 1068.29C710.965 1067.61 710.013 1066.53 709.495 1065.22C708.976 1063.92 708.923 1062.48 709.343 1061.14L709.543 1060.49L711.147 1055.31Z" fill="#338835"/>
<g opacity="0.1">
<path opacity="0.1" d="M539.55 1036.12C562.645 1025.53 572.78 998.22 562.187 975.125C551.593 952.03 524.284 941.895 501.188 952.488C478.093 963.081 467.959 990.391 478.552 1013.49C489.145 1036.58 516.455 1046.72 539.55 1036.12Z" fill="#509CE8"/>
</g>
<path d="M520.8 984.902C521.372 984.705 521.992 984.696 522.569 984.876C523.146 985.056 523.651 985.417 524.008 985.904C526.155 988.767 527.949 991.877 529.355 995.167C529.94 996.539 530.427 997.95 530.812 999.391C531.901 1003.13 531.901 1007.11 530.812 1010.85C528.513 1018.22 520.119 1019.27 518.555 1020.2C516.991 1021.14 516.202 1024.28 516.202 1024.28L505.336 1020.9C505.336 1020.9 506.459 1017.85 505.71 1016.19C505.363 1015.43 503.799 1013.79 502.462 1011.51C502.46 1011.47 502.46 1011.43 502.462 1011.39C501.522 1009.95 500.904 1008.33 500.65 1006.63C500.397 1004.93 500.513 1003.19 500.992 1001.54C504.133 991.424 516.082 986.492 520.8 984.902Z" fill="#6FDD66"/>
<g opacity="0.3">
<path opacity="0.3" d="M509.533 992.148C513.543 988.138 518.382 986.468 520.333 988.406C522.285 990.344 520.601 995.196 516.577 999.206C512.554 1003.22 507.729 1004.9 505.778 1002.95C503.826 1001 505.51 996.158 509.533 992.148Z" fill="white"/>
</g>
<path d="M505.214 1020.07L516.134 1023.48L516.856 1023.69L515.038 1029.52C514.802 1030.28 514.417 1031 513.905 1031.61C513.393 1032.23 512.764 1032.74 512.055 1033.11C511.346 1033.48 510.57 1033.71 509.772 1033.78C508.974 1033.85 508.17 1033.77 507.406 1033.53C507.006 1033.41 506.62 1033.25 506.256 1033.05C505.032 1032.36 504.08 1031.28 503.561 1029.98C503.043 1028.68 502.989 1027.23 503.409 1025.9L503.61 1025.24L505.214 1020.07Z" fill="#338835"/>
<g opacity="0.1">
<path opacity="0.1" d="M277.322 1180.03C286.137 1156.2 273.965 1129.73 250.134 1120.92C226.304 1112.1 199.839 1124.28 191.024 1148.11C182.209 1171.94 194.381 1198.4 218.211 1207.22C242.042 1216.03 268.507 1203.86 277.322 1180.03Z" fill="#FDD100"/>
</g>
<path d="M240.445 1170.85C240.181 1171.39 239.75 1171.83 239.215 1172.11C238.683 1172.39 238.075 1172.5 237.478 1172.42C233.933 1171.91 230.461 1170.99 227.132 1169.68C225.754 1169.11 224.414 1168.46 223.122 1167.71C219.704 1165.86 216.881 1163.08 214.982 1159.69C211.387 1152.86 216.586 1146.17 217.027 1144.42C217.468 1142.66 215.798 1139.87 215.798 1139.87L225.876 1134.52C225.876 1134.52 227.212 1137.48 228.937 1138.11C229.725 1138.41 231.984 1138.47 234.537 1139.12H234.671C236.353 1139.48 237.939 1140.19 239.323 1141.21C240.706 1142.23 241.855 1143.54 242.69 1145.04C247.663 1154.49 242.717 1166.39 240.445 1170.85Z" fill="#FE6600"/>
<g opacity="0.3">
<path opacity="0.3" d="M243.331 1157.75C243.331 1163.43 241.098 1168.03 238.345 1168.05C235.592 1168.06 233.359 1163.43 233.359 1157.75C233.359 1152.07 235.592 1147.48 238.345 1147.48C241.098 1147.48 243.331 1152.07 243.331 1157.75Z" fill="white"/>
</g>
<path d="M226.611 1134.98L216.493 1140.32L215.824 1140.68L212.991 1135.34C212.241 1133.91 212.089 1132.24 212.567 1130.69C213.045 1129.15 214.116 1127.86 215.544 1127.1C215.913 1126.91 216.303 1126.75 216.706 1126.64C218.054 1126.25 219.494 1126.34 220.783 1126.89C222.071 1127.45 223.129 1128.43 223.777 1129.67L224.098 1130.29L226.611 1134.98Z" fill="#338835"/>
<g opacity="0.1">
<path opacity="0.1" d="M792.613 742.391C815.708 731.798 825.842 704.488 815.249 681.393C804.656 658.298 777.346 648.163 754.251 658.757C731.156 669.35 721.021 696.66 731.614 719.755C742.208 742.85 769.517 752.985 792.613 742.391Z" fill="#FE6600"/>
</g>
<path d="M773.824 691.167C774.396 690.976 775.014 690.97 775.59 691.15C776.165 691.33 776.67 691.687 777.032 692.169C779.171 695.037 780.965 698.146 782.378 701.432C782.957 702.805 783.439 704.216 783.822 705.656C784.919 709.4 784.919 713.38 783.822 717.124C781.523 724.489 773.129 725.531 771.565 726.48C770.001 727.429 769.213 730.557 769.213 730.557L758.333 727.175C758.333 727.175 759.469 724.128 758.707 722.484C758.359 721.709 756.809 720.078 755.472 717.792C755.468 717.757 755.468 717.721 755.472 717.686C754.536 716.242 753.92 714.615 753.667 712.913C753.413 711.211 753.527 709.475 754.002 707.821C757.156 697.69 769.106 692.758 773.824 691.167Z" fill="#509CE8"/>
<g opacity="0.3">
<path opacity="0.3" d="M762.556 698.41C766.566 694.4 771.418 692.729 773.356 694.681C775.294 696.632 773.623 701.457 769.613 705.481C765.603 709.504 760.751 711.161 758.813 709.21C756.875 707.258 758.533 702.433 762.556 698.41Z" fill="white"/>
</g>
<path d="M758.253 726.347L769.173 729.742L769.895 729.969L768.077 735.783C767.594 737.325 766.52 738.613 765.09 739.364C763.659 740.116 761.989 740.27 760.445 739.793C760.042 739.667 759.653 739.501 759.282 739.299C758.246 738.726 757.4 737.861 756.85 736.812C756.081 735.372 755.913 733.685 756.382 732.121L756.583 731.453L758.253 726.347Z" fill="#338835"/>
<g opacity="0.1">
<path opacity="0.1" d="M641.171 1485.45C664.293 1474.78 674.386 1447.39 663.715 1424.27C653.043 1401.14 625.648 1391.05 602.526 1401.72C579.404 1412.39 569.311 1439.79 579.983 1462.91C590.654 1486.03 618.05 1496.13 641.171 1485.45Z" fill="#509CE8"/>
</g>
<path d="M606.292 1444.42C606.106 1443.85 606.106 1443.23 606.292 1442.65C606.466 1442.08 606.823 1441.57 607.308 1441.21C610.174 1439.07 613.283 1437.28 616.571 1435.86C617.943 1435.28 619.355 1434.79 620.795 1434.41C624.535 1433.32 628.509 1433.32 632.25 1434.41C639.628 1436.71 640.67 1445.1 641.606 1446.66C642.542 1448.23 645.616 1449.02 645.616 1449.02L642.234 1459.9C642.234 1459.9 639.187 1458.76 637.543 1459.51C636.767 1459.86 635.123 1461.42 632.851 1462.76H632.731C631.29 1463.69 629.665 1464.31 627.966 1464.57C626.267 1464.82 624.533 1464.71 622.88 1464.24C612.815 1461.1 607.883 1449.15 606.292 1444.42Z" fill="#6FDD66"/>
<g opacity="0.3">
<path opacity="0.3" d="M613.533 1455.7C609.523 1451.69 607.852 1446.84 609.804 1444.89C611.755 1442.94 616.58 1444.62 620.604 1448.64C624.627 1452.67 626.284 1457.49 624.333 1459.44C622.381 1461.39 617.556 1459.71 613.533 1455.7Z" fill="white"/>
</g>
<path d="M641.43 1460L644.825 1449.08L645.052 1448.36L650.866 1450.18C651.631 1450.42 652.341 1450.8 652.956 1451.32C653.572 1451.83 654.08 1452.46 654.452 1453.16C654.825 1453.87 655.054 1454.65 655.126 1455.45C655.199 1456.24 655.114 1457.05 654.876 1457.81C654.75 1458.21 654.584 1458.59 654.382 1458.96C653.703 1460.19 652.622 1461.14 651.321 1461.66C650.02 1462.18 648.579 1462.23 647.244 1461.81L646.576 1461.61L641.43 1460Z" fill="#338835"/>
<g opacity="0.1">
<path opacity="0.1" d="M551.772 2430.94C576.994 2427.87 594.952 2404.94 591.882 2379.71C588.812 2354.49 565.876 2336.53 540.654 2339.6C515.431 2342.67 497.473 2365.61 500.543 2390.83C503.613 2416.06 526.549 2434.01 551.772 2430.94Z" fill="#FDD100"/>
</g>
<path d="M542.802 2394.14C542.199 2394.15 541.608 2393.97 541.118 2393.62C540.633 2393.29 540.259 2392.83 540.049 2392.28C538.881 2388.9 538.11 2385.39 537.75 2381.83C537.622 2380.34 537.596 2378.84 537.67 2377.35C537.738 2373.46 538.931 2369.66 541.105 2366.43C545.529 2360.11 553.856 2361.66 555.621 2361.24C557.385 2360.83 559.109 2358.08 559.109 2358.08L568.466 2364.61C568.466 2364.61 566.461 2367.17 566.674 2368.97C566.768 2369.81 567.757 2371.84 568.345 2374.42C568.345 2374.42 568.345 2374.42 568.345 2374.54C568.798 2376.2 568.891 2377.94 568.617 2379.64C568.342 2381.33 567.707 2382.95 566.755 2384.38C560.673 2393 547.788 2394.06 542.802 2394.14Z" fill="#FE6600"/>
<g opacity="0.3">
<path opacity="0.3" d="M555.737 2390.66C550.685 2393.34 545.579 2393.34 544.309 2390.94C543.039 2388.55 546.127 2384.4 551.166 2381.79C556.205 2379.18 561.337 2379.12 562.594 2381.52C563.85 2383.93 560.789 2388.07 555.737 2390.66Z" fill="white"/>
</g>
<path d="M568.346 2365.38L558.99 2358.81L558.375 2358.38L561.877 2353.39C562.336 2352.73 562.92 2352.17 563.595 2351.74C564.271 2351.31 565.024 2351.02 565.813 2350.88C566.601 2350.74 567.409 2350.76 568.19 2350.94C568.971 2351.11 569.71 2351.44 570.365 2351.9C570.711 2352.14 571.029 2352.41 571.313 2352.72C572.277 2353.74 572.858 2355.06 572.955 2356.46C573.053 2357.86 572.662 2359.25 571.848 2360.39L571.461 2360.95L568.346 2365.38Z" fill="#338835"/>
<g opacity="0.1">
<path opacity="0.1" d="M825.929 1312C833.154 1287.64 819.264 1262.03 794.904 1254.81C770.544 1247.58 744.94 1261.47 737.715 1285.83C730.49 1310.19 744.38 1335.8 768.74 1343.02C793.1 1350.25 818.704 1336.36 825.929 1312Z" fill="#FF0A0A"/>
</g>
<path d="M788.579 1305.29C788.345 1305.85 787.941 1306.32 787.425 1306.63C786.909 1306.94 786.307 1307.09 785.705 1307.04C782.138 1306.78 778.615 1306.09 775.213 1304.98C773.792 1304.52 772.408 1303.95 771.069 1303.29C767.523 1301.67 764.517 1299.06 762.408 1295.79C758.398 1289.21 763.116 1282.19 763.437 1280.4C763.758 1278.61 761.913 1275.95 761.913 1275.95L771.617 1269.99C771.617 1269.99 773.168 1272.85 774.919 1273.36C775.72 1273.61 777.979 1273.52 780.572 1274H780.706C782.403 1274.24 784.029 1274.85 785.474 1275.77C786.92 1276.69 788.151 1277.91 789.087 1279.35C794.647 1288.45 790.49 1300.68 788.579 1305.29Z" fill="#6FDD66"/>
<path d="M788.579 1305.29C788.345 1305.85 787.941 1306.32 787.425 1306.63C786.909 1306.94 786.307 1307.09 785.705 1307.04C782.138 1306.78 778.615 1306.09 775.213 1304.98C773.792 1304.52 772.408 1303.95 771.069 1303.29C767.523 1301.67 764.517 1299.06 762.408 1295.79C758.398 1289.21 763.116 1282.19 763.437 1280.4C763.758 1278.61 761.913 1275.95 761.913 1275.95L771.617 1269.99C771.617 1269.99 773.168 1272.85 774.919 1273.36C775.72 1273.61 777.979 1273.52 780.572 1274H780.706C782.403 1274.24 784.029 1274.85 785.474 1275.77C786.92 1276.69 788.151 1277.91 789.087 1279.35C794.647 1288.45 790.49 1300.68 788.579 1305.29Z" fill="#FDD100"/>
<g opacity="0.3">
<path opacity="0.3" d="M790.542 1292.03C790.916 1297.7 788.992 1302.44 786.238 1302.62C783.485 1302.79 780.892 1298.35 780.584 1292.68C780.277 1287.02 782.121 1282.29 784.875 1282.1C787.628 1281.91 790.154 1286.36 790.542 1292.03Z" fill="white"/>
</g>
<path d="M772.421 1270.4L762.678 1276.38L762.036 1276.78L758.841 1271.58C758.424 1270.9 758.144 1270.14 758.02 1269.35C757.895 1268.56 757.927 1267.75 758.115 1266.97C758.302 1266.19 758.641 1265.46 759.112 1264.81C759.583 1264.17 760.177 1263.62 760.86 1263.2C761.215 1262.98 761.591 1262.8 761.982 1262.65C763.303 1262.18 764.746 1262.18 766.068 1262.64C767.39 1263.11 768.51 1264.02 769.24 1265.22L769.601 1265.81L772.421 1270.4Z" fill="#338835"/>
<g opacity="0.1">
<path opacity="0.1" d="M198.832 1118.66C206.057 1094.3 192.166 1068.7 167.806 1061.47C143.447 1054.25 117.842 1068.14 110.617 1092.5C103.392 1116.86 117.283 1142.46 141.642 1149.69C166.002 1156.91 191.607 1143.02 198.832 1118.66Z" fill="#509CE8"/>
</g>
<path d="M161.478 1111.95C161.252 1112.51 160.848 1112.98 160.329 1113.28C159.818 1113.6 159.218 1113.75 158.618 1113.7C155.046 1113.44 151.519 1112.74 148.112 1111.64C146.694 1111.17 145.31 1110.61 143.969 1109.96C140.426 1108.33 137.424 1105.72 135.321 1102.44C131.311 1095.87 136.016 1088.85 136.337 1087.06C136.657 1085.27 134.826 1082.61 134.826 1082.61L144.517 1076.65C144.517 1076.65 146.067 1079.51 147.818 1080.03C148.62 1080.27 150.879 1080.18 153.472 1080.67C153.516 1080.66 153.562 1080.66 153.606 1080.67C155.303 1080.91 156.929 1081.52 158.374 1082.44C159.819 1083.36 161.051 1084.58 161.986 1086.02C167.547 1095.11 163.39 1107.35 161.478 1111.95Z" fill="#6FDD66"/>
<path d="M161.478 1111.95C161.252 1112.51 160.848 1112.98 160.329 1113.28C159.818 1113.6 159.218 1113.75 158.618 1113.7C155.046 1113.44 151.519 1112.74 148.112 1111.64C146.694 1111.17 145.31 1110.61 143.969 1109.96C140.426 1108.33 137.424 1105.72 135.321 1102.44C131.311 1095.87 136.016 1088.85 136.337 1087.06C136.657 1085.27 134.826 1082.61 134.826 1082.61L144.517 1076.65C144.517 1076.65 146.067 1079.51 147.818 1080.03C148.62 1080.27 150.879 1080.18 153.472 1080.67C153.516 1080.66 153.562 1080.66 153.606 1080.67C155.303 1080.91 156.929 1081.52 158.374 1082.44C159.819 1083.36 161.051 1084.58 161.986 1086.02C167.547 1095.11 163.39 1107.35 161.478 1111.95Z" fill="#6FDD66"/>
<g opacity="0.3">
<path opacity="0.3" d="M163.442 1098.69C163.816 1104.36 161.891 1109.1 159.138 1109.29C156.385 1109.47 153.858 1105.02 153.484 1099.36C153.11 1093.69 155.034 1088.94 157.775 1088.76C160.515 1088.57 163.068 1093.01 163.442 1098.69Z" fill="white"/>
</g>
<path d="M145.252 1077.06L135.508 1083.05L134.867 1083.44L131.672 1078.24C130.832 1076.86 130.573 1075.2 130.951 1073.63C131.329 1072.06 132.314 1070.7 133.691 1069.86C134.049 1069.64 134.424 1069.46 134.813 1069.31C136.134 1068.84 137.577 1068.84 138.899 1069.3C140.221 1069.77 141.341 1070.68 142.071 1071.88L142.432 1072.46L145.252 1077.06Z" fill="#338835"/>
<g opacity="0.1">
<path opacity="0.1" d="M737.976 623.168C763.232 620.393 781.457 597.668 778.682 572.412C775.907 547.155 753.183 528.93 727.927 531.705C702.67 534.48 684.445 557.204 687.22 582.461C689.995 607.717 712.719 625.942 737.976 623.168Z" fill="#6FDD66"/>
</g>
<path d="M729.646 586.241C729.053 586.228 728.477 586.032 727.999 585.681C727.521 585.329 727.162 584.838 726.973 584.276C725.838 580.88 725.106 577.363 724.794 573.797C724.694 572.31 724.694 570.819 724.794 569.332C724.92 565.435 726.158 561.655 728.363 558.439C732.867 552.17 741.181 553.828 742.945 553.427C744.71 553.026 746.461 550.299 746.461 550.299L755.724 556.982C755.724 556.982 753.679 559.508 753.879 561.326C753.973 562.168 754.922 564.2 755.483 566.793C755.483 566.793 755.483 566.86 755.483 566.913C755.917 568.578 755.989 570.316 755.693 572.011C755.398 573.705 754.743 575.317 753.772 576.737C747.477 585.305 734.592 586.214 729.646 586.241Z" fill="#6FDD66"/>
<path d="M729.646 586.241C729.053 586.228 728.477 586.032 727.999 585.681C727.521 585.329 727.162 584.838 726.973 584.276C725.838 580.88 725.106 577.363 724.794 573.797C724.694 572.31 724.694 570.819 724.794 569.332C724.92 565.435 726.158 561.655 728.363 558.439C732.867 552.17 741.181 553.828 742.945 553.427C744.71 553.026 746.461 550.299 746.461 550.299L755.724 556.982C755.724 556.982 753.679 559.508 753.879 561.326C753.973 562.168 754.922 564.2 755.483 566.793C755.483 566.793 755.483 566.86 755.483 566.913C755.917 568.578 755.989 570.316 755.693 572.011C755.398 573.705 754.743 575.317 753.772 576.737C747.477 585.305 734.592 586.214 729.646 586.241Z" fill="#FF0A0A"/>
<g opacity="0.3">
<path opacity="0.3" d="M742.587 582.914C737.508 585.454 732.389 585.587 731.159 583.061C729.929 580.535 733.044 576.539 738.123 573.999C743.202 571.459 748.321 571.326 749.551 573.852C750.78 576.378 747.666 580.375 742.587 582.914Z" fill="white"/>
</g>
<path d="M755.483 557.773L746.127 551.09L745.512 550.649L749.067 545.703C750.019 544.397 751.451 543.523 753.047 543.272C754.644 543.021 756.275 543.415 757.581 544.367C757.917 544.61 758.23 544.883 758.517 545.182C759.465 546.215 760.029 547.544 760.111 548.944C760.194 550.344 759.792 551.73 758.971 552.868L758.571 553.429L755.483 557.773Z" fill="#338835"/>
<g opacity="0.1">
<path opacity="0.1" d="M720.403 1635.02C738.37 1617.06 738.37 1587.93 720.403 1569.96C702.436 1551.99 673.307 1551.99 655.34 1569.96C637.373 1587.93 637.373 1617.06 655.34 1635.02C673.307 1652.99 702.436 1652.99 720.403 1635.02Z" fill="#FE6600"/>
</g>
<path d="M684.203 1593.95C684.638 1593.53 685.193 1593.26 685.789 1593.17C686.386 1593.09 686.995 1593.19 687.531 1593.47C690.702 1595.12 693.667 1597.15 696.366 1599.49C697.486 1600.48 698.535 1601.55 699.507 1602.69C702.121 1605.58 703.852 1609.16 704.493 1613.01C705.602 1620.64 698.478 1625.21 697.475 1626.73C696.473 1628.26 697.114 1631.43 697.114 1631.43L685.847 1633.07C685.847 1633.07 685.553 1629.83 684.163 1628.67C683.508 1628.12 681.409 1627.34 679.217 1625.85C679.176 1625.83 679.14 1625.81 679.11 1625.77C677.642 1624.87 676.384 1623.67 675.42 1622.25C674.457 1620.82 673.81 1619.21 673.523 1617.51C671.959 1607.03 680.607 1597.42 684.203 1593.95Z" fill="#6FDD66"/>
<path d="M684.203 1593.95C684.638 1593.53 685.193 1593.26 685.789 1593.17C686.386 1593.09 686.995 1593.19 687.531 1593.47C690.702 1595.12 693.667 1597.15 696.366 1599.49C697.486 1600.48 698.535 1601.55 699.507 1602.69C702.121 1605.58 703.852 1609.16 704.493 1613.01C705.602 1620.64 698.478 1625.21 697.475 1626.73C696.473 1628.26 697.114 1631.43 697.114 1631.43L685.847 1633.07C685.847 1633.07 685.553 1629.83 684.163 1628.67C683.508 1628.12 681.409 1627.34 679.217 1625.85C679.176 1625.83 679.14 1625.81 679.11 1625.77C677.642 1624.87 676.384 1623.67 675.42 1622.25C674.457 1620.82 673.81 1619.21 673.523 1617.51C671.959 1607.03 680.607 1597.42 684.203 1593.95Z" fill="#509CE8"/>
<g opacity="0.3">
<path opacity="0.3" d="M677.144 1605.35C679.028 1600 682.664 1596.4 685.27 1597.33C687.877 1598.25 688.438 1603.33 686.607 1608.69C684.776 1614.05 681.073 1617.64 678.48 1616.71C675.887 1615.77 675.246 1610.71 677.144 1605.35Z" fill="white"/>
</g>
<path d="M685.312 1632.4L696.634 1630.76L697.382 1630.64L698.264 1636.68C698.494 1638.28 698.079 1639.91 697.112 1641.2C696.145 1642.5 694.704 1643.35 693.105 1643.59C692.687 1643.63 692.266 1643.63 691.849 1643.59C690.662 1643.52 689.523 1643.1 688.574 1642.39C687.284 1641.42 686.429 1639.97 686.195 1638.38L686.088 1637.7L685.312 1632.4Z" fill="#338835"/>
<g opacity="0.1">
<path opacity="0.1" d="M657.648 2234.38C672.269 2213.6 667.276 2184.9 646.496 2170.28C625.715 2155.66 597.017 2160.66 582.396 2181.44C567.775 2202.22 572.768 2230.92 593.548 2245.54C614.329 2260.16 643.027 2255.16 657.648 2234.38Z" fill="#FF0A0A"/>
</g>
<path d="M624.376 2216.12C623.983 2216.57 623.453 2216.89 622.866 2217.03C622.275 2217.16 621.658 2217.1 621.101 2216.87C617.782 2215.46 614.641 2213.66 611.745 2211.52C610.553 2210.63 609.428 2209.65 608.377 2208.59C605.53 2205.93 603.512 2202.5 602.562 2198.71C600.838 2191.19 607.575 2186.06 608.443 2184.47C609.312 2182.88 608.443 2179.76 608.443 2179.76L619.537 2177.21C619.537 2177.21 620.099 2180.42 621.582 2181.46C622.264 2181.95 624.429 2182.58 626.742 2183.86L626.849 2183.94C628.381 2184.72 629.73 2185.81 630.804 2187.15C631.878 2188.49 632.654 2190.05 633.077 2191.71C635.497 2202.1 627.664 2212.37 624.376 2216.12Z" fill="#6FDD66"/>
<path d="M624.376 2216.12C623.983 2216.57 623.453 2216.89 622.866 2217.03C622.275 2217.16 621.658 2217.1 621.101 2216.87C617.782 2215.46 614.641 2213.66 611.745 2211.52C610.553 2210.63 609.428 2209.65 608.377 2208.59C605.53 2205.93 603.512 2202.5 602.562 2198.71C600.838 2191.19 607.575 2186.06 608.443 2184.47C609.312 2182.88 608.443 2179.76 608.443 2179.76L619.537 2177.21C619.537 2177.21 620.099 2180.42 621.582 2181.46C622.264 2181.95 624.429 2182.58 626.742 2183.86L626.849 2183.94C628.381 2184.72 629.73 2185.81 630.804 2187.15C631.878 2188.49 632.654 2190.05 633.077 2191.71C635.497 2202.1 627.664 2212.37 624.376 2216.12Z" fill="#509CE8"/>
<g opacity="0.3">
<path opacity="0.3" d="M630.469 2204.18C629.012 2209.67 625.683 2213.54 623.01 2212.85C620.337 2212.17 619.375 2207.12 620.818 2201.63C622.262 2196.13 625.603 2192.27 628.276 2192.97C630.95 2193.66 631.925 2198.7 630.469 2204.18Z" fill="white"/>
</g>
<path d="M620.138 2177.89L608.99 2180.44L608.255 2180.61L606.918 2174.67C606.559 2173.09 606.84 2171.44 607.7 2170.07C608.559 2168.7 609.927 2167.73 611.503 2167.37C611.911 2167.28 612.328 2167.22 612.746 2167.21C613.932 2167.18 615.1 2167.51 616.101 2168.14C617.462 2169.01 618.423 2170.38 618.774 2171.95L618.935 2172.62L620.138 2177.89Z" fill="#338835"/>
<g opacity="0.1">
<path opacity="0.1" d="M633.996 1023.89C659.361 1022.41 678.72 1000.64 677.236 975.274C675.751 949.909 653.984 930.549 628.619 932.034C603.254 933.519 583.895 955.285 585.38 980.651C586.865 1006.02 608.631 1025.37 633.996 1023.89Z" fill="#6FDD66"/>
</g>
<path d="M622.825 974.183C622.853 973.581 623.073 973.005 623.453 972.539C623.83 972.069 624.344 971.728 624.924 971.563C628.371 970.601 631.92 970.054 635.496 969.932C636.987 969.889 638.479 969.951 639.961 970.119C643.847 970.434 647.56 971.864 650.654 974.236C656.695 979.048 654.664 987.255 654.918 989.046C655.172 990.837 657.871 992.762 657.871 992.762L650.787 1001.62C650.787 1001.62 648.355 999.458 646.537 999.565C645.695 999.565 643.61 1000.46 641.003 1000.9H640.87C639.186 1001.25 637.448 1001.23 635.772 1000.85C634.096 1000.47 632.521 999.737 631.152 998.696C622.852 992.093 622.598 979.168 622.825 974.183Z" fill="#6FDD66"/>
<path d="M622.825 974.183C622.853 973.581 623.073 973.005 623.453 972.539C623.83 972.069 624.344 971.728 624.924 971.563C628.371 970.601 631.92 970.054 635.496 969.932C636.987 969.889 638.479 969.951 639.961 970.119C643.847 970.434 647.56 971.864 650.654 974.236C656.695 979.048 654.664 987.255 654.918 989.046C655.172 990.837 657.871 992.762 657.871 992.762L650.787 1001.62C650.787 1001.62 648.355 999.458 646.537 999.565C645.695 999.565 643.61 1000.46 641.003 1000.9H640.87C639.186 1001.25 637.448 1001.23 635.772 1000.85C634.096 1000.47 632.521 999.737 631.152 998.696C622.852 992.093 622.598 979.168 622.825 974.183Z" fill="#FF0A0A"/>
<g opacity="0.3">
<path opacity="0.3" d="M625.486 987.321C623.201 982.122 623.401 977.002 625.928 975.906C628.454 974.81 632.343 978.112 634.629 983.311C636.914 988.511 636.714 993.63 634.188 994.739C631.662 995.849 627.772 992.52 625.486 987.321Z" fill="white"/>
</g>
<path d="M649.945 1001.48L657.07 992.535L657.537 991.947L662.309 995.757C663.57 996.767 664.379 998.236 664.56 999.842C664.74 1001.45 664.277 1003.06 663.271 1004.32C663.005 1004.65 662.71 1004.95 662.389 1005.22C661.474 1005.97 660.359 1006.43 659.181 1006.56C657.571 1006.72 655.961 1006.24 654.704 1005.22L654.156 1004.79L649.945 1001.48Z" fill="#338835"/>
<g opacity="0.1">
<path opacity="0.1" d="M420.798 1190.78C438.764 1172.81 438.764 1143.68 420.798 1125.71C402.831 1107.75 373.701 1107.75 355.735 1125.71C337.768 1143.68 337.768 1172.81 355.735 1190.78C373.701 1208.74 402.831 1208.74 420.798 1190.78Z" fill="#FF0A0A"/>
</g>
<path d="M390.75 1167.22C390.266 1167.58 389.681 1167.77 389.079 1167.78C388.476 1167.78 387.887 1167.59 387.395 1167.24C384.473 1165.17 381.808 1162.77 379.456 1160.07C378.478 1158.94 377.584 1157.74 376.782 1156.48C374.581 1153.27 373.348 1149.49 373.227 1145.59C373.16 1137.86 380.846 1134.31 382.035 1132.95C383.225 1131.58 383.038 1128.33 383.038 1128.33L394.426 1128.23C394.426 1128.23 394.279 1131.48 395.495 1132.83C396.07 1133.45 398.048 1134.54 400.026 1136.29L400.106 1136.38C401.439 1137.47 402.523 1138.83 403.286 1140.37C404.05 1141.91 404.474 1143.59 404.531 1145.31C404.638 1155.91 394.76 1164.26 390.75 1167.22Z" fill="#6FDD66"/>
<path d="M390.75 1167.22C390.266 1167.58 389.681 1167.77 389.079 1167.78C388.476 1167.78 387.887 1167.59 387.395 1167.24C384.473 1165.17 381.808 1162.77 379.456 1160.07C378.478 1158.94 377.584 1157.74 376.782 1156.48C374.581 1153.27 373.348 1149.49 373.227 1145.59C373.16 1137.86 380.846 1134.31 382.035 1132.95C383.225 1131.58 383.038 1128.33 383.038 1128.33L394.426 1128.23C394.426 1128.23 394.279 1131.48 395.495 1132.83C396.07 1133.45 398.048 1134.54 400.026 1136.29L400.106 1136.38C401.439 1137.47 402.523 1138.83 403.286 1140.37C404.05 1141.91 404.474 1143.59 404.531 1145.31C404.638 1155.91 394.76 1164.26 390.75 1167.22Z" fill="#FDD100"/>
<g opacity="0.3">
<path opacity="0.3" d="M399.262 1156.87C396.669 1161.93 392.579 1165 390.119 1163.73C387.66 1162.46 387.794 1157.35 390.387 1152.3C392.98 1147.25 397.07 1144.19 399.529 1145.44C401.989 1146.7 401.868 1151.82 399.262 1156.87Z" fill="white"/>
</g>
<path d="M394.826 1128.96L383.465 1129.1H382.703V1123C382.693 1121.38 383.324 1119.83 384.459 1118.68C385.594 1117.52 387.14 1116.87 388.758 1116.85C389.175 1116.85 389.592 1116.89 390.001 1116.97C391.167 1117.2 392.238 1117.76 393.075 1118.6C393.648 1119.17 394.104 1119.84 394.416 1120.57C394.728 1121.31 394.89 1122.11 394.893 1122.91V1123.59L394.826 1128.96Z" fill="#338835"/>
<g opacity="0.1">
<path opacity="0.1" d="M735.595 1768.82C759.425 1760.01 771.598 1733.54 762.783 1709.71C753.967 1685.88 727.503 1673.71 703.672 1682.53C679.842 1691.34 667.67 1717.8 676.485 1741.64C685.3 1765.47 711.764 1777.64 735.595 1768.82Z" fill="#FDD100"/>
</g>
<path d="M718.446 1735.05C717.861 1735.21 717.244 1735.17 716.682 1734.95C716.131 1734.72 715.664 1734.33 715.345 1733.82C713.42 1730.8 711.859 1727.56 710.694 1724.17C710.219 1722.77 709.853 1721.34 709.598 1719.88C708.775 1716.07 709.058 1712.11 710.413 1708.45C713.26 1701.29 721.721 1700.88 723.351 1700.06C724.982 1699.25 726.025 1696.18 726.025 1696.18L736.611 1700.37C736.611 1700.37 735.274 1703.34 735.889 1705.03C736.17 1705.83 737.6 1707.57 738.763 1709.95C738.765 1709.99 738.765 1710.03 738.763 1710.07C739.585 1711.58 740.075 1713.25 740.199 1714.96C740.324 1716.67 740.08 1718.39 739.484 1720C735.568 1729.83 723.271 1733.84 718.446 1735.05Z" fill="#6FDD66"/>
<path d="M718.446 1735.05C717.861 1735.21 717.244 1735.17 716.682 1734.95C716.131 1734.72 715.664 1734.33 715.345 1733.82C713.42 1730.8 711.859 1727.56 710.694 1724.17C710.219 1722.77 709.853 1721.34 709.598 1719.88C708.775 1716.07 709.058 1712.11 710.413 1708.45C713.26 1701.29 721.721 1700.88 723.351 1700.06C724.982 1699.25 726.025 1696.18 726.025 1696.18L736.611 1700.37C736.611 1700.37 735.274 1703.34 735.889 1705.03C736.17 1705.83 737.6 1707.57 738.763 1709.95C738.765 1709.99 738.765 1710.03 738.763 1710.07C739.585 1711.58 740.075 1713.25 740.199 1714.96C740.324 1716.67 740.08 1718.39 739.484 1720C735.568 1729.83 723.271 1733.84 718.446 1735.05Z" fill="#FE6600"/>
<g opacity="0.3">
<path opacity="0.3" d="M730.234 1728.69C725.93 1732.38 720.971 1733.69 719.18 1731.59C717.389 1729.49 719.434 1724.82 723.738 1721.11C728.042 1717.41 733.001 1716.11 734.792 1718.2C736.583 1720.29 734.551 1724.99 730.234 1728.69Z" fill="white"/>
</g>
<path d="M736.651 1701.17L725.958 1696.95L725.25 1696.68L727.509 1691C728.107 1689.5 729.276 1688.3 730.76 1687.66C732.244 1687.02 733.92 1686.99 735.422 1687.59C735.81 1687.74 736.182 1687.94 736.531 1688.16C737.705 1688.93 738.576 1690.08 738.995 1691.42C739.414 1692.76 739.356 1694.2 738.83 1695.5L738.576 1696.16L736.651 1701.17Z" fill="#338835"/>
<g opacity="0.1">
<path opacity="0.1" d="M682.006 2072.85C689.554 2048.58 676.004 2022.8 651.742 2015.25C627.48 2007.7 601.694 2021.25 594.146 2045.51C586.599 2069.78 600.149 2095.56 624.41 2103.11C648.672 2110.66 674.459 2097.11 682.006 2072.85Z" fill="#509CE8"/>
</g>
<path d="M631.406 2052.7C631.631 2052.14 632.041 2051.67 632.569 2051.37C633.085 2051.05 633.69 2050.91 634.293 2050.96C637.855 2051.29 641.367 2052.02 644.759 2053.16C646.17 2053.64 647.546 2054.23 648.876 2054.91C652.397 2056.58 655.366 2059.23 657.43 2062.54C661.44 2069.22 656.548 2076.12 656.2 2077.9C655.853 2079.67 657.657 2082.37 657.657 2082.37L647.887 2088.2C647.887 2088.2 646.376 2085.33 644.639 2084.78C643.823 2084.53 641.578 2084.59 638.985 2084.07H638.865C637.165 2083.81 635.543 2083.18 634.107 2082.24C632.67 2081.29 631.453 2080.05 630.537 2078.59C625.111 2069.46 629.401 2057.27 631.406 2052.7Z" fill="#6FDD66"/>
<path d="M631.406 2052.7C631.631 2052.14 632.041 2051.67 632.569 2051.37C633.085 2051.05 633.69 2050.91 634.293 2050.96C637.855 2051.29 641.367 2052.02 644.759 2053.16C646.17 2053.64 647.546 2054.23 648.876 2054.91C652.397 2056.58 655.366 2059.23 657.43 2062.54C661.44 2069.22 656.548 2076.12 656.2 2077.9C655.853 2079.67 657.657 2082.37 657.657 2082.37L647.887 2088.2C647.887 2088.2 646.376 2085.33 644.639 2084.78C643.823 2084.53 641.578 2084.59 638.985 2084.07H638.865C637.165 2083.81 635.543 2083.18 634.107 2082.24C632.67 2081.29 631.453 2080.05 630.537 2078.59C625.111 2069.46 629.401 2057.27 631.406 2052.7Z" fill="#6FDD66"/>
<g opacity="0.3">
<path opacity="0.3" d="M629.251 2065.92C628.957 2060.25 630.949 2055.54 633.689 2055.39C636.429 2055.24 638.915 2059.73 639.223 2065.4C639.53 2071.07 637.539 2075.79 634.785 2075.93C632.032 2076.08 629.559 2071.6 629.251 2065.92Z" fill="white"/>
</g>
<path d="M647.152 2087.79L656.99 2081.95L657.631 2081.55L660.759 2086.8C661.581 2088.19 661.819 2089.84 661.42 2091.41C661.022 2092.97 660.02 2094.31 658.634 2095.14C658.276 2095.36 657.895 2095.54 657.498 2095.67C656.375 2096.07 655.161 2096.12 654.009 2095.82C652.446 2095.42 651.105 2094.41 650.28 2093.03L649.919 2092.43L647.152 2087.79Z" fill="#338835"/>
<g opacity="0.1">
<path opacity="0.1" d="M804.63 876.235C828.461 867.42 840.633 840.955 831.818 817.125C823.003 793.294 796.538 781.122 772.708 789.937C748.877 798.752 736.705 825.217 745.52 849.047C754.335 872.878 780.8 885.05 804.63 876.235Z" fill="#FF0A0A"/>
</g>
<path d="M787.538 842.458C786.953 842.613 786.333 842.571 785.774 842.338C785.221 842.116 784.752 841.722 784.437 841.215C782.513 838.197 780.952 834.963 779.786 831.578C779.31 830.163 778.935 828.716 778.663 827.248C777.839 823.438 778.126 819.471 779.492 815.82C782.339 808.642 790.786 808.241 792.417 807.426C794.048 806.61 795.09 803.536 795.09 803.536L805.69 807.733C805.69 807.733 804.353 810.687 804.955 812.398C805.235 813.187 806.665 814.937 807.828 817.303V817.424C808.653 818.933 809.143 820.602 809.268 822.318C809.392 824.033 809.148 825.755 808.55 827.368C804.661 837.219 792.377 841.229 787.538 842.458Z" fill="#6FDD66"/>
<path d="M787.538 842.458C786.953 842.613 786.333 842.571 785.774 842.338C785.221 842.116 784.752 841.722 784.437 841.215C782.513 838.197 780.952 834.963 779.786 831.578C779.31 830.163 778.935 828.716 778.663 827.248C777.839 823.438 778.126 819.471 779.492 815.82C782.339 808.642 790.786 808.241 792.417 807.426C794.048 806.61 795.09 803.536 795.09 803.536L805.69 807.733C805.69 807.733 804.353 810.687 804.955 812.398C805.235 813.187 806.665 814.937 807.828 817.303V817.424C808.653 818.933 809.143 820.602 809.268 822.318C809.392 824.033 809.148 825.755 808.55 827.368C804.661 837.219 792.377 841.229 787.538 842.458Z" fill="#FDD100"/>
<g opacity="0.3">
<path opacity="0.3" d="M799.328 836.083C795.024 839.785 790.065 841.082 788.274 838.996C786.483 836.911 788.528 832.206 792.832 828.517C797.136 824.828 802.094 823.518 803.886 825.603C805.677 827.689 803.645 832.367 799.328 836.083Z" fill="white"/>
</g>
<path d="M805.741 808.574L795.142 804.297L794.434 804.016L796.692 798.349C797.293 796.85 798.463 795.651 799.946 795.012C801.428 794.373 803.104 794.348 804.605 794.94C804.995 795.091 805.367 795.284 805.715 795.515C806.709 796.166 807.49 797.096 807.96 798.188C808.576 799.682 808.576 801.359 807.96 802.853L807.706 803.495L805.741 808.574Z" fill="#338835"/>
<g opacity="0.1">
<path opacity="0.1" d="M839.626 449.721C863.457 440.906 875.629 414.442 866.814 390.611C857.999 366.781 831.534 354.608 807.704 363.423C783.873 372.239 771.701 398.703 780.516 422.534C789.331 446.364 815.796 458.537 839.626 449.721Z" fill="#509CE8"/>
</g>
<path d="M822.556 415.93C821.976 416.088 821.359 416.046 820.805 415.81C820.254 415.584 819.786 415.192 819.469 414.687C817.549 411.666 815.988 408.432 814.817 405.05C814.347 403.633 813.972 402.186 813.695 400.719C812.87 396.909 813.158 392.943 814.523 389.291C817.37 382.114 825.831 381.713 827.448 380.897C829.066 380.082 830.122 377.008 830.122 377.008L840.708 381.205C840.708 381.205 839.371 384.159 839.972 385.87C840.266 386.658 841.683 388.409 842.846 390.775C842.851 390.815 842.851 390.855 842.846 390.895C843.67 392.405 844.161 394.074 844.286 395.789C844.41 397.505 844.166 399.227 843.568 400.84C839.678 410.691 827.395 414.7 822.556 415.93Z" fill="#6FDD66"/>
<path d="M822.556 415.93C821.976 416.088 821.359 416.046 820.805 415.81C820.254 415.584 819.786 415.192 819.469 414.687C817.549 411.666 815.988 408.432 814.817 405.05C814.347 403.633 813.972 402.186 813.695 400.719C812.87 396.909 813.158 392.943 814.523 389.291C817.37 382.114 825.831 381.713 827.448 380.897C829.066 380.082 830.122 377.008 830.122 377.008L840.708 381.205C840.708 381.205 839.371 384.159 839.972 385.87C840.266 386.658 841.683 388.409 842.846 390.775C842.851 390.815 842.851 390.855 842.846 390.895C843.67 392.405 844.161 394.074 844.286 395.789C844.41 397.505 844.166 399.227 843.568 400.84C839.678 410.691 827.395 414.7 822.556 415.93Z" fill="#6FDD66"/>
<g opacity="0.3">
<path opacity="0.3" d="M834.358 409.555C830.041 413.258 825.096 414.554 823.291 412.469C821.487 410.384 823.545 405.679 827.849 401.99C832.153 398.301 837.112 396.991 838.916 399.076C840.721 401.161 838.662 405.866 834.358 409.555Z" fill="white"/>
</g>
<path d="M840.759 382.047L830.066 377.823L829.371 377.543L831.617 371.875C832.215 370.374 833.384 369.172 834.868 368.533C836.351 367.894 838.028 367.87 839.529 368.467C839.922 368.621 840.298 368.813 840.652 369.042C841.82 369.815 842.685 370.967 843.101 372.304C843.517 373.641 843.46 375.08 842.938 376.38L842.697 377.021L840.759 382.047Z" fill="#338835"/>
<g opacity="0.1">
<path opacity="0.1" d="M697.992 885.285C702.064 860.204 685.032 836.572 659.952 832.501C634.871 828.43 611.239 845.462 607.168 870.542C603.097 895.622 620.129 919.254 645.209 923.326C670.289 927.397 693.921 910.365 697.992 885.285Z" fill="#FDD100"/>
</g>
<path d="M645.053 872.464C645.199 871.88 645.538 871.362 646.016 870.994C646.487 870.611 647.067 870.387 647.673 870.352C651.253 870.172 654.841 870.41 658.366 871.061C659.831 871.345 661.274 871.734 662.683 872.224C666.401 873.379 669.709 875.578 672.213 878.559C677.065 884.574 673.243 892.139 673.162 893.944C673.082 895.748 675.234 898.181 675.234 898.181L666.359 905.318C666.359 905.318 664.461 902.645 662.67 902.391C661.841 902.244 659.609 902.632 656.976 902.471H656.842C655.125 902.444 653.434 902.049 651.883 901.313C650.331 900.578 648.955 899.519 647.847 898.207C641.177 889.84 643.743 877.209 645.053 872.464Z" fill="#6FDD66"/>
<path d="M645.053 872.464C645.199 871.88 645.538 871.362 646.016 870.994C646.487 870.611 647.067 870.387 647.673 870.352C651.253 870.172 654.841 870.41 658.366 871.061C659.831 871.345 661.274 871.734 662.683 872.224C666.401 873.379 669.709 875.578 672.213 878.559C677.065 884.574 673.243 892.139 673.162 893.944C673.082 895.748 675.234 898.181 675.234 898.181L666.359 905.318C666.359 905.318 664.461 902.645 662.67 902.391C661.841 902.244 659.609 902.632 656.976 902.471H656.842C655.125 902.444 653.434 902.049 651.883 901.313C650.331 900.578 648.955 899.519 647.847 898.207C641.177 889.84 643.743 877.209 645.053 872.464Z" fill="#FE6600"/>
<g opacity="0.3">
<path opacity="0.3" d="M644.786 885.833C643.69 880.259 645 875.314 647.7 874.779C650.4 874.245 653.487 878.348 654.583 883.922C655.679 889.495 654.369 894.441 651.656 894.962C648.943 895.484 645.882 891.367 644.786 885.833Z" fill="white"/>
</g>
<path d="M665.57 904.933L674.486 897.768L675.06 897.287L678.896 902.045C679.908 903.306 680.378 904.916 680.203 906.523C680.027 908.13 679.221 909.601 677.961 910.613C677.637 910.874 677.287 911.102 676.918 911.295C675.669 911.932 674.239 912.119 672.868 911.824C671.497 911.53 670.27 910.772 669.393 909.678L668.952 909.143L665.57 904.933Z" fill="#338835"/>
<g opacity="0.1">
<path opacity="0.1" d="M855.469 1831.1C873.436 1813.14 873.436 1784.01 855.469 1766.04C837.503 1748.08 808.373 1748.08 790.406 1766.04C772.44 1784.01 772.44 1813.14 790.407 1831.1C808.373 1849.07 837.503 1849.07 855.469 1831.1Z" fill="#6FDD66"/>
</g>
<path d="M825.949 1807.4C825.487 1807.8 824.91 1808.03 824.305 1808.06C823.702 1808.1 823.104 1807.94 822.594 1807.62C819.561 1805.73 816.761 1803.48 814.254 1800.93C813.219 1799.86 812.259 1798.72 811.38 1797.51C808.99 1794.42 807.542 1790.71 807.21 1786.82C806.688 1779.12 814.147 1775.12 815.229 1773.68C816.312 1772.24 815.951 1769.04 815.951 1769.04L827.312 1768.27C827.312 1768.27 827.312 1771.52 828.649 1772.79C829.25 1773.39 831.322 1774.35 833.354 1775.99C833.391 1776.01 833.423 1776.04 833.447 1776.07C834.841 1777.08 836.002 1778.38 836.853 1779.87C837.704 1781.36 838.224 1783.02 838.38 1784.73C839.155 1795.31 829.785 1804.22 825.949 1807.4Z" fill="#6FDD66"/>
<path d="M825.949 1807.4C825.487 1807.8 824.91 1808.03 824.305 1808.06C823.702 1808.1 823.104 1807.94 822.594 1807.62C819.561 1805.73 816.761 1803.48 814.254 1800.93C813.219 1799.86 812.259 1798.72 811.38 1797.51C808.99 1794.42 807.542 1790.71 807.21 1786.82C806.688 1779.12 814.147 1775.12 815.229 1773.68C816.312 1772.24 815.951 1769.04 815.951 1769.04L827.312 1768.27C827.312 1768.27 827.312 1771.52 828.649 1772.79C829.25 1773.39 831.322 1774.35 833.354 1775.99C833.391 1776.01 833.423 1776.04 833.447 1776.07C834.841 1777.08 836.002 1778.38 836.853 1779.87C837.704 1781.36 838.224 1783.02 838.38 1784.73C839.155 1795.31 829.785 1804.22 825.949 1807.4Z" fill="#FF0A0A"/>
<g opacity="0.3">
<path opacity="0.3" d="M833.904 1796.58C831.605 1801.78 827.702 1805.08 825.176 1803.96C822.649 1802.83 822.502 1797.73 824.788 1792.54C827.074 1787.36 830.99 1784.04 833.516 1785.15C836.042 1786.26 836.149 1791.39 833.904 1796.58Z" fill="white"/>
</g>
<path d="M827.81 1768.98L816.395 1769.74H815.646L815.232 1763.66C815.126 1762.04 815.664 1760.45 816.73 1759.24C817.795 1758.02 819.3 1757.28 820.913 1757.17C821.33 1757.13 821.751 1757.13 822.169 1757.17C823.558 1757.36 824.839 1758.03 825.792 1759.06C826.746 1760.09 827.312 1761.41 827.395 1762.81V1763.5L827.81 1768.98Z" fill="#338835"/>
<g opacity="0.1">
<path opacity="0.1" d="M662.098 2561.22C680.065 2543.25 680.065 2514.12 662.098 2496.15C644.132 2478.19 615.002 2478.19 597.035 2496.15C579.069 2514.12 579.069 2543.25 597.036 2561.22C615.002 2579.18 644.132 2579.18 662.098 2561.22Z" fill="#6FDD66"/>
</g>
<path d="M632.569 2537.49C632.11 2537.88 631.538 2538.11 630.938 2538.15C630.337 2538.19 629.739 2538.04 629.227 2537.72C626.193 2535.82 623.39 2533.58 620.873 2531.04C619.839 2529.96 618.879 2528.82 618 2527.62C615.615 2524.52 614.168 2520.81 613.829 2516.92C613.322 2509.21 620.78 2505.21 621.849 2503.78C622.918 2502.35 622.571 2499.13 622.571 2499.13L633.932 2498.36C633.932 2498.36 633.932 2501.62 635.269 2502.88C635.87 2503.48 637.942 2504.44 639.987 2506.08C639.987 2506.08 639.987 2506.08 640.081 2506.16C641.472 2507.17 642.63 2508.47 643.479 2509.96C644.327 2511.46 644.846 2513.11 644.999 2514.82C645.775 2525.4 636.405 2534.31 632.569 2537.49Z" fill="#6FDD66"/>
<path d="M632.569 2537.49C632.11 2537.88 631.538 2538.11 630.938 2538.15C630.337 2538.19 629.739 2538.04 629.227 2537.72C626.193 2535.82 623.39 2533.58 620.873 2531.04C619.839 2529.96 618.879 2528.82 618 2527.62C615.615 2524.52 614.168 2520.81 613.829 2516.92C613.322 2509.21 620.78 2505.21 621.849 2503.78C622.918 2502.35 622.571 2499.13 622.571 2499.13L633.932 2498.36C633.932 2498.36 633.932 2501.62 635.269 2502.88C635.87 2503.48 637.942 2504.44 639.987 2506.08C639.987 2506.08 639.987 2506.08 640.081 2506.16C641.472 2507.17 642.63 2508.47 643.479 2509.96C644.327 2511.46 644.846 2513.11 644.999 2514.82C645.775 2525.4 636.405 2534.31 632.569 2537.49Z" fill="#FF0A0A"/>
<g opacity="0.3">
<path opacity="0.3" d="M640.479 2526.67C638.167 2531.87 634.264 2535.17 631.751 2534.04C629.238 2532.92 629.078 2527.82 631.35 2522.63C633.622 2517.44 637.565 2514.13 640.078 2515.25C642.591 2516.37 642.765 2521.48 640.479 2526.67Z" fill="white"/>
</g>
<path d="M634.426 2499.13L623.025 2499.89H622.263L621.862 2493.81C621.807 2493.01 621.911 2492.21 622.168 2491.45C622.424 2490.69 622.827 2489.99 623.355 2489.39C623.883 2488.79 624.525 2488.3 625.243 2487.94C625.962 2487.59 626.743 2487.38 627.542 2487.33C627.956 2487.29 628.372 2487.29 628.785 2487.33C630.175 2487.52 631.456 2488.19 632.411 2489.22C633.366 2490.24 633.936 2491.57 634.025 2492.97V2493.65L634.426 2499.13Z" fill="#338835"/>
<g opacity="0.1">
<path opacity="0.1" d="M303.109 1053.74C317.993 1033.15 313.366 1004.39 292.774 989.508C272.181 974.623 243.421 979.25 228.537 999.843C213.652 1020.44 218.279 1049.2 238.872 1064.08C259.464 1078.96 288.224 1074.34 303.109 1053.74Z" fill="#6FDD66"/>
</g>
<path d="M261.55 1018.61C261.943 1018.15 262.48 1017.84 263.073 1017.73C263.661 1017.6 264.274 1017.66 264.824 1017.9C268.107 1019.34 271.208 1021.16 274.06 1023.33C275.246 1024.24 276.363 1025.23 277.402 1026.3C280.208 1029 282.179 1032.45 283.083 1036.24C284.713 1043.79 277.91 1048.83 277.014 1050.41C276.119 1051.99 277.014 1055.12 277.014 1055.12L265.84 1057.53C265.84 1057.53 265.319 1054.33 263.849 1053.26C263.167 1052.76 261.002 1052.09 258.716 1050.78L258.609 1050.7C257.086 1049.91 255.75 1048.8 254.691 1047.45C253.633 1046.09 252.877 1044.53 252.474 1042.86C250.242 1032.5 258.222 1022.32 261.55 1018.61Z" fill="#6FDD66"/>
<path d="M261.55 1018.61C261.943 1018.15 262.48 1017.84 263.073 1017.73C263.661 1017.6 264.274 1017.66 264.824 1017.9C268.107 1019.34 271.208 1021.16 274.06 1023.33C275.246 1024.24 276.363 1025.23 277.402 1026.3C280.208 1029 282.179 1032.45 283.083 1036.24C284.713 1043.79 277.91 1048.83 277.014 1050.41C276.119 1051.99 277.014 1055.12 277.014 1055.12L265.84 1057.53C265.84 1057.53 265.319 1054.33 263.849 1053.26C263.167 1052.76 261.002 1052.09 258.716 1050.78L258.609 1050.7C257.086 1049.91 255.75 1048.8 254.691 1047.45C253.633 1046.09 252.877 1044.53 252.474 1042.86C250.242 1032.5 258.222 1022.32 261.55 1018.61Z" fill="#FF0A0A"/>
<g opacity="0.3">
<path opacity="0.3" d="M255.308 1030.47C256.819 1025 260.214 1021.11 262.86 1021.9C265.507 1022.69 266.442 1027.67 264.919 1033.14C263.395 1038.61 260.013 1042.5 257.353 1041.71C254.694 1040.92 253.811 1035.93 255.308 1030.47Z" fill="white"/>
</g>
<path d="M265.293 1056.92L276.48 1054.51L277.216 1054.35L278.552 1060.31C278.721 1061.1 278.735 1061.9 278.591 1062.69C278.448 1063.48 278.152 1064.23 277.719 1064.9C277.285 1065.57 276.724 1066.15 276.067 1066.6C275.409 1067.06 274.669 1067.38 273.887 1067.55C273.475 1067.64 273.054 1067.69 272.631 1067.69C271.445 1067.71 270.282 1067.37 269.289 1066.72C268.613 1066.29 268.028 1065.72 267.569 1065.07C267.111 1064.41 266.787 1063.67 266.616 1062.88L266.469 1062.2L265.293 1056.92Z" fill="#338835"/>
</svg>
