<svg width="31" height="39" viewBox="0 0 31 39" fill="none" xmlns="http://www.w3.org/2000/svg">
<g clip-path="url(#clip0)">
<path d="M17.072 2.46252C5.12374 10.6636 0.148055 27.0345 7.33025 38.6597Z" fill="#010101"/>
<path d="M28.0604 0.422595C19.0138 -1.06567 10.4194 5.02269 11.7543 15.4718C26.0525 15.1491 27.0785 12.8699 28.0604 0.422595Z" fill="#010101"/>
<path d="M11.5778 15.6696V15.4926C10.949 10.6636 12.3942 6.50059 15.6378 3.54487C17.2958 2.1147 19.2868 1.07197 21.4503 0.500726C23.6139 -0.07052 25.8894 -0.154307 28.0935 0.256117H28.2701V0.422636C27.8067 6.31326 27.3323 10.3409 25.0596 12.6098C22.7869 14.8786 18.4401 15.503 11.8205 15.6487L11.5778 15.6696ZM25.3244 0.381007C21.8357 0.340015 18.4647 1.57025 15.9136 3.81547C12.8024 6.60467 11.4234 10.6636 11.9309 15.2845C25.6443 14.9514 26.8689 12.9012 27.8508 0.578748C27.016 0.446209 26.1709 0.380062 25.3244 0.381007V0.381007Z" fill="#010101"/>
<path d="M24.2321 9.70611C15.0641 9.41471 7.4406 16.5542 10.3201 26.7431C24.3976 24.568 25.0706 22.1742 24.2321 9.70611Z" fill="#010101"/>
<path d="M10.1326 26.9512V26.7846C8.77559 22.1117 9.592 17.7093 12.3832 14.4206C13.8142 12.7834 15.6332 11.4867 17.6934 10.6352C19.7537 9.78368 21.9974 9.4012 24.2432 9.51868H24.4197V9.6852C24.8169 15.5758 24.9383 19.6347 23.0186 22.1741C21.0989 24.7136 16.8624 25.9104 10.3201 26.9199L10.1326 26.9512ZM23.6695 9.89335C21.5674 9.84398 19.481 10.2477 17.5692 11.0737C15.6574 11.8997 13.9705 13.1262 12.637 14.66C9.9671 17.7822 9.16173 22.0284 10.3753 26.5245C23.9012 24.443 24.8169 22.2262 23.9895 9.87253L23.6695 9.89335Z" fill="#010101"/>
<path d="M21.474 21.4249C12.2949 21.1335 4.67142 28.273 7.51781 38.4619C21.6284 36.2868 22.3125 33.8931 21.474 21.4249Z" fill="#010101"/>
<path d="M7.37454 38.67V38.5035C6.01753 33.8201 6.83394 29.3969 9.62518 26.1394C11.0561 24.5023 12.8751 23.2055 14.9354 22.354C16.9956 21.5025 19.2393 21.12 21.4852 21.2375H21.6617V21.404C22.0589 27.2946 22.1692 31.3535 20.2495 33.893C18.3299 36.4324 14.0934 37.6084 7.54002 38.6179L7.37454 38.67ZM20.9115 21.6122C18.8093 21.5628 16.723 21.9665 14.8111 22.7925C12.8993 23.6185 11.2124 24.845 9.87892 26.3788C7.19801 29.501 6.40367 33.7473 7.60622 38.2433C21.1432 36.1618 22.0478 33.945 21.2314 21.5913L20.9115 21.6122Z" fill="#010101"/>
<path d="M27.1224 1.29684C19.1459 -0.0561306 11.4893 5.34534 12.6698 14.608C25.3462 14.3166 26.2508 12.2975 27.1224 1.29684Z" fill="white"/>
<path d="M11.7874 15.5654L11.6881 14.7224C11.3365 12.6926 11.5035 10.6129 12.1751 8.6562C12.8466 6.69947 14.0035 4.92217 15.5495 3.47195C17.1106 2.11772 18.9877 1.12937 21.029 0.586929C23.0704 0.0444913 25.2184 -0.0367748 27.2992 0.349712L28.1818 0.495417L28.1156 1.29679C27.1999 12.9115 25.9091 15.222 12.67 15.5134L11.7874 15.5654ZM24.6624 2.0045C21.7996 1.9841 19.0368 2.99683 16.9396 4.83533C15.7299 5.97922 14.8052 7.36282 14.2327 8.88574C13.6602 10.4087 13.4543 12.0327 13.6299 13.64C24.5742 13.307 25.3464 11.4857 26.1187 2.06694C25.6333 2.02531 25.1479 2.0045 24.6624 2.0045Z" fill="#010101"/>
<path d="M23.8239 10.6636C15.6929 10.4139 8.92996 16.7416 11.4233 25.7753C23.9563 23.8395 24.5631 21.7268 23.8239 10.6636Z" fill="#010101"/>
<path d="M10.7173 26.8367L10.4856 26.0042C9.84518 24.039 9.71128 21.9581 10.0951 19.9343C10.4788 17.9105 11.3692 16.0024 12.6921 14.3686C14.0403 12.8222 15.7557 11.5971 17.6992 10.7925C19.6428 9.98784 21.7599 9.62636 23.8791 9.7373H24.7838L24.839 10.5907C25.6223 22.2054 24.6404 24.6616 11.5999 26.6702L10.7173 26.8367ZM22.8531 11.6106C21.1933 11.6338 19.5588 11.9977 18.0631 12.6771C16.5675 13.3564 15.2467 14.335 14.1926 15.5447C13.1563 16.8341 12.4375 18.325 12.0883 19.9092C11.739 21.4933 11.7682 23.131 12.1736 24.7032C22.9965 22.9444 23.493 21.071 22.8862 11.6106H22.8531Z" fill="#010101"/>
<path d="M20.6134 22.3824C12.5265 22.1118 5.71942 28.4499 8.23485 37.4836C20.7458 35.5478 21.3525 33.4351 20.6134 22.3824Z" fill="white"/>
<path d="M7.50686 38.5451L7.27518 37.7229C6.63473 35.7578 6.50083 33.6768 6.88461 31.6531C7.26839 29.6293 8.15876 27.7212 9.48169 26.0874C10.8287 24.5397 12.5439 23.3136 14.4877 22.5089C16.4316 21.7042 18.5493 21.3434 20.6687 21.4561H21.5623L21.6285 22.3095C22.4008 33.9242 21.4299 36.3803 8.38946 38.389L7.50686 38.5451ZM19.6427 23.319C17.9829 23.3421 16.3483 23.706 14.8527 24.3854C13.3571 25.0648 12.0363 26.0433 10.9821 27.253C9.94587 28.5424 9.22703 30.0333 8.87781 31.6175C8.52859 33.2017 8.55774 34.8394 8.96316 36.4116C19.7751 34.6527 20.2495 32.7586 19.6758 23.319H19.6427Z" fill="#010101"/>
</g>
<defs>
<clipPath id="clip0">
<rect width="31" height="38.67" fill="white"/>
</clipPath>
</defs>
</svg>
