<svg width="732" height="372" viewBox="0 0 732 372" fill="none" xmlns="http://www.w3.org/2000/svg">
<path d="M205.649 57.7767H182.945V55.863C181.916 32.3254 156.838 12.5194 125.432 8.02231L121.16 7.54391C118.786 7.54391 116.413 7.5439 114.04 7.0655H109.451C107.157 7.0655 104.784 7.0655 102.41 7.54391L98.1384 8.02231C66.4944 12.5194 42.0494 32.3254 40.7045 55.863V57.7767H18V55.9587C18 43.0417 25.911 12.5194 97.9011 4.00368C101.682 3.44036 105.484 3.12096 109.293 3.04688H114.277C118.086 3.12096 121.888 3.44036 125.669 4.00368C197.738 12.5194 205.649 43.0417 205.649 55.9587V57.7767ZM187.454 53.9494H200.744C199.479 33.0909 179.306 21.4177 158.183 14.8157C174.638 24.1925 185.793 38.6404 187.454 53.9494ZM22.8257 53.9494H36.1162C37.7775 38.6404 48.932 24.1925 65.2287 14.8157C44.2645 21.4177 24.0915 33.0909 22.8257 53.9494Z" fill="#A83022"/>
<path d="M138.564 57.7764H85.0059V55.9584C85.0059 17.0161 101.223 6.49112 108.185 3.71636C110.52 2.76121 113.049 2.76121 115.384 3.71636C122.346 6.49112 138.564 17.0161 138.564 55.9584V57.7764ZM89.8316 53.9491H133.738C133.738 42.563 131.127 14.337 113.327 7.35225C112.323 6.9703 111.246 6.9703 110.242 7.35225C92.4422 14.337 90.0689 42.563 89.8316 53.9491Z" fill="#A83022"/>
<path opacity="0.5" d="M41.5318 54.3677H36.7852V362.878H41.5318V54.3677Z" fill="#A83022"/>
<path d="M205.57 54.4277H18V60.1686H205.57V54.4277Z" fill="#A83022"/>
<path d="M205.57 360.704H18V366.445H205.57V360.704Z" fill="#A83022"/>
<path d="M22.7466 58.0635H18V363.575H22.7466V58.0635Z" fill="#A83022"/>
<path opacity="0.5" d="M187.532 54.3677H182.785V362.878H187.532V54.3677Z" fill="#A83022"/>
<path opacity="0.5" d="M138.484 53.9492H133.738V362.459H138.484V53.9492Z" fill="#A83022"/>
<path opacity="0.5" d="M89.7525 53.9492H85.0059V362.459H89.7525V53.9492Z" fill="#A83022"/>
<path d="M205.569 58.0635H200.822V363.575H205.569V58.0635Z" fill="#A83022"/>
<path d="M482.23 172.61L520.9 220.31H486.17V366.07H34.76V220.31H0L38.68 172.61L119 73.49L125.33 65.67L260.46 0L395.55 65.67L401.89 73.49L482.23 172.6V172.61ZM386.15 352.93V200.25H273.55V352.93H386.15ZM196.83 119.65H324.07C324.22 111.2 322.685 102.806 319.555 94.9556C316.425 87.1057 311.763 79.9578 305.84 73.9294C299.918 67.9009 292.854 63.1126 285.06 59.844C277.267 56.5754 268.901 54.8919 260.45 54.8919C251.999 54.8919 243.633 56.5754 235.84 59.844C228.046 63.1126 220.982 67.9009 215.06 73.9294C209.137 79.9578 204.475 87.1057 201.345 94.9556C198.215 102.806 196.68 111.2 196.83 119.65ZM247.35 352.93V200.25H134.75V352.93H247.35Z" fill="#A83022"/>
<path d="M387.12 200.25H274.52V352.93H387.12V200.25Z" fill="#813022"/>
<path d="M324.999 119.65H197.799C197.649 111.201 199.184 102.806 202.314 94.9558C205.444 87.1058 210.106 79.9579 216.029 73.9295C221.951 67.901 229.015 63.1127 236.809 59.8441C244.602 56.5755 252.968 54.8921 261.419 54.8921C269.87 54.8921 278.236 56.5755 286.03 59.8441C293.823 63.1127 300.887 67.901 306.809 73.9295C312.732 79.9579 317.394 87.1058 320.524 94.9558C323.654 102.806 325.189 111.201 325.039 119.65H324.999Z" fill="#813022"/>
<path d="M248.321 200.25H135.711V352.93H248.321V200.25Z" fill="#813022"/>
<path d="M196.83 119.65C196.68 111.201 198.215 102.806 201.345 94.9558C204.475 87.1058 209.138 79.9579 215.06 73.9295C220.983 67.901 228.047 63.1127 235.84 59.8441C243.633 56.5755 251.999 54.8921 260.45 54.8921C268.901 54.8921 277.268 56.5755 285.061 59.8441C292.854 63.1127 299.918 67.901 305.841 73.9295C311.763 79.9579 316.425 87.1058 319.555 94.9558C322.685 102.806 324.22 111.201 324.07 119.65H196.83Z" stroke="#FFD6BF" stroke-width="3" stroke-miterlimit="10"/>
<path d="M247.35 200.25H134.75V352.93H247.35V200.25Z" stroke="#FFD6BF" stroke-width="4" stroke-miterlimit="10"/>
<path d="M386.161 200.25H273.551V352.93H386.161V200.25Z" stroke="#FFD6BF" stroke-width="4" stroke-miterlimit="10"/>
<path d="M134.75 200.24L247.35 352.93" stroke="#BABABA" stroke-width="3" stroke-miterlimit="10"/>
<path d="M247.35 200.24L134.75 352.93" stroke="#BABABA" stroke-width="3" stroke-miterlimit="10"/>
<path d="M386.161 200.24L273.551 352.93" stroke="#BABABA" stroke-width="3" stroke-miterlimit="10"/>
<path d="M273.551 200.24L386.161 352.93" stroke="#BABABA" stroke-width="3" stroke-miterlimit="10"/>
<path fill-rule="evenodd" clip-rule="evenodd" d="M546.386 306.713C564.324 306.713 578.937 321.33 578.937 339.359C578.937 357.389 564.324 372 546.386 372C537.731 372 529.43 368.561 523.31 362.439C517.19 356.317 513.752 348.014 513.752 339.357C513.752 330.699 517.19 322.396 523.31 316.274C529.43 310.153 537.731 306.713 546.386 306.713ZM546.386 308.828C550.389 308.832 554.353 309.625 558.05 311.161C561.747 312.698 565.105 314.948 567.932 317.784C570.759 320.619 572.999 323.984 574.525 327.686C576.051 331.388 576.833 335.355 576.826 339.359C576.826 356.164 563.188 369.891 546.386 369.891C538.291 369.891 530.528 366.674 524.803 360.948C519.079 355.222 515.864 347.457 515.864 339.359C515.864 331.262 519.079 323.496 524.803 317.771C530.528 312.045 538.291 308.828 546.386 308.828Z" fill="black"/>
<path fill-rule="evenodd" clip-rule="evenodd" d="M546.386 308.828C550.389 308.832 554.353 309.624 558.05 311.161C561.746 312.698 565.104 314.948 567.931 317.783C570.758 320.619 572.999 323.984 574.525 327.686C576.051 331.388 576.833 335.355 576.825 339.359C576.825 356.163 563.188 369.89 546.386 369.89C538.291 369.89 530.527 366.674 524.803 360.948C519.079 355.222 515.863 347.457 515.863 339.359C515.863 331.262 519.079 323.496 524.803 317.77C530.527 312.045 538.291 308.828 546.386 308.828ZM546.386 309.632C562.783 309.632 576.013 322.949 576.013 339.354C576.013 355.759 562.789 369.075 546.386 369.075C538.506 369.075 530.949 365.944 525.377 360.371C519.805 354.798 516.675 347.239 516.675 339.357C516.675 331.475 519.805 323.915 525.377 318.342C530.949 312.769 538.506 309.638 546.386 309.638V309.632Z" fill="black"/>
<path fill-rule="evenodd" clip-rule="evenodd" d="M546.385 309.477C552.293 309.478 558.069 311.231 562.981 314.514C567.893 317.798 571.722 322.465 573.983 327.926C576.243 333.386 576.835 339.394 575.682 345.191C574.529 350.987 571.683 356.312 567.505 360.491C563.327 364.669 558.004 367.515 552.209 368.668C546.414 369.821 540.408 369.229 534.949 366.967C529.49 364.705 524.825 360.875 521.542 355.961C518.26 351.047 516.508 345.27 516.508 339.359C516.513 331.435 519.663 323.838 525.265 318.235C530.867 312.632 538.463 309.482 546.385 309.477ZM546.545 311.099C554.056 311.106 561.257 314.093 566.568 319.405C571.88 324.717 574.867 331.919 574.876 339.432C574.876 355.022 562.131 367.77 546.545 367.77C539.079 367.698 531.943 364.68 526.689 359.373C521.435 354.066 518.488 346.899 518.488 339.431C518.488 331.962 521.435 324.795 526.689 319.488C531.943 314.181 539.079 311.163 546.545 311.091V311.099Z" fill="#B4B5B5"/>
<path fill-rule="evenodd" clip-rule="evenodd" d="M546.385 341.142C546.859 341.142 547.313 340.954 547.647 340.619C547.982 340.284 548.17 339.83 548.17 339.357C548.17 338.883 547.982 338.429 547.647 338.094C547.313 337.76 546.859 337.572 546.385 337.572C546.143 337.558 545.9 337.595 545.672 337.678C545.444 337.762 545.235 337.891 545.059 338.058C544.882 338.225 544.742 338.427 544.646 338.65C544.55 338.873 544.5 339.114 544.5 339.357C544.5 339.6 544.55 339.84 544.646 340.064C544.742 340.287 544.882 340.488 545.059 340.655C545.235 340.822 545.444 340.952 545.672 341.035C545.9 341.119 546.143 341.155 546.385 341.142Z" fill="#0F0C0F"/>
<path fill-rule="evenodd" clip-rule="evenodd" d="M443.695 306.713C461.716 306.713 476.246 321.33 476.246 339.359C476.246 357.389 461.716 372 443.695 372C435.04 372 426.739 368.561 420.619 362.439C414.499 356.317 411.061 348.014 411.061 339.357C411.061 330.699 414.499 322.396 420.619 316.274C426.739 310.153 435.04 306.713 443.695 306.713ZM443.695 308.828C447.698 308.832 451.662 309.625 455.358 311.161C459.055 312.698 462.413 314.948 465.24 317.784C468.067 320.619 470.308 323.984 471.834 327.686C473.36 331.388 474.142 335.355 474.134 339.359C474.134 356.164 460.497 369.891 443.695 369.891C435.6 369.891 427.836 366.674 422.112 360.948C416.388 355.222 413.172 347.457 413.172 339.359C413.172 331.262 416.388 323.496 422.112 317.771C427.836 312.045 435.6 308.828 443.695 308.828Z" fill="black"/>
<path fill-rule="evenodd" clip-rule="evenodd" d="M443.127 343.578C443.881 343.578 444.619 343.355 445.247 342.935C445.874 342.515 446.364 341.919 446.652 341.222C446.941 340.524 447.016 339.756 446.869 339.016C446.722 338.275 446.358 337.595 445.824 337.061C445.29 336.528 444.61 336.164 443.869 336.017C443.129 335.87 442.362 335.946 441.664 336.236C440.967 336.525 440.371 337.015 439.952 337.643C439.533 338.271 439.31 339.009 439.311 339.764C439.31 340.265 439.409 340.762 439.6 341.225C439.792 341.688 440.073 342.109 440.428 342.463C440.782 342.817 441.203 343.098 441.666 343.29C442.129 343.481 442.625 343.579 443.127 343.578Z" fill="#0F0C0F"/>
<path fill-rule="evenodd" clip-rule="evenodd" d="M443.694 308.828C447.698 308.832 451.661 309.624 455.358 311.161C459.055 312.698 462.413 314.948 465.24 317.783C468.067 320.619 470.307 323.984 471.833 327.686C473.36 331.388 474.141 335.355 474.134 339.359C474.134 356.163 460.497 369.89 443.694 369.89C435.599 369.89 427.836 366.674 422.112 360.948C416.388 355.222 413.172 347.457 413.172 339.359C413.172 331.262 416.388 323.496 422.112 317.77C427.836 312.045 435.599 308.828 443.694 308.828ZM443.694 309.632C449.57 309.632 455.314 311.375 460.2 314.64C465.086 317.905 468.894 322.546 471.143 327.976C473.392 333.406 473.98 339.381 472.835 345.146C471.689 350.911 468.86 356.206 464.706 360.363C460.551 364.519 455.258 367.35 449.496 368.498C443.733 369.646 437.759 369.058 432.33 366.81C426.901 364.562 422.26 360.754 418.995 355.868C415.729 350.982 413.985 345.237 413.984 339.359C413.987 331.478 417.119 323.921 422.69 318.348C428.261 312.775 435.816 309.642 443.694 309.638V309.632Z" fill="black"/>
<path fill-rule="evenodd" clip-rule="evenodd" d="M443.694 309.477C449.603 309.477 455.379 311.23 460.291 314.513C465.204 317.797 469.033 322.464 471.294 327.924C473.555 333.384 474.147 339.393 472.994 345.189C471.842 350.986 468.996 356.31 464.818 360.49C460.64 364.669 455.317 367.515 449.522 368.668C443.727 369.821 437.721 369.229 432.262 366.967C426.803 364.706 422.138 360.875 418.855 355.961C415.572 351.047 413.82 345.27 413.82 339.359C413.827 331.436 416.976 323.839 422.577 318.236C428.178 312.634 435.773 309.483 443.694 309.477ZM443.855 311.099C449.459 311.098 454.938 312.76 459.598 315.874C464.258 318.989 467.89 323.415 470.034 328.594C472.179 333.773 472.74 339.472 471.646 344.97C470.553 350.468 467.854 355.518 463.89 359.482C459.927 363.446 454.878 366.144 449.381 367.237C443.885 368.33 438.187 367.768 433.01 365.622C427.833 363.475 423.408 359.842 420.296 355.18C417.183 350.518 415.523 345.038 415.525 339.432C415.522 335.71 416.253 332.024 417.676 328.585C419.099 325.146 421.186 322.021 423.817 319.39C426.449 316.758 429.573 314.672 433.011 313.249C436.449 311.826 440.134 311.096 443.855 311.099Z" fill="#B4B5B5"/>
<path fill-rule="evenodd" clip-rule="evenodd" d="M546.386 339.359C546.386 339.359 543.382 337.084 538.834 329.369C534.287 321.655 532.585 317.433 531.934 316.457C531.61 315.889 530.473 312.643 529.661 310.292C517.404 316.95 511.072 331.484 513.583 346.264C513.583 346.264 513.907 346.752 513.987 347.969C514.068 349.186 513.258 351.301 513.183 351.545C507.336 327.753 519.028 315.004 529.262 309.075C529.018 308.18 528.855 307.614 528.855 307.614L527.962 308.016L527.635 307.287L528.287 307.043L526.907 304.609C526.907 304.609 518.138 312.404 517.259 313.785C516.364 315.246 511.412 321.094 510.112 324.097C508.735 327.104 507.352 330.838 507.516 334.896C507.596 338.955 507.352 347.321 507.352 347.321C507.352 347.321 499.479 346.996 491.767 346.672V346.184C491.782 345.497 491.661 344.814 491.409 344.175C491.157 343.535 490.78 342.953 490.299 342.462C489.819 341.97 489.246 341.58 488.612 341.313C487.979 341.046 487.299 340.909 486.612 340.909C485.925 340.909 485.245 341.046 484.612 341.313C483.979 341.58 483.405 341.97 482.925 342.462C482.445 342.953 482.068 343.535 481.816 344.175C481.564 344.814 481.442 345.497 481.458 346.184V346.264C479.582 346.184 478.21 346.104 477.398 346.023C472.69 345.779 442.328 341.23 442.328 341.23L441.987 340.504C441.987 340.504 443.451 341.15 443.936 340.745C444.421 340.341 444.18 339.204 443.611 339.04C443.238 338.947 442.848 338.947 442.475 339.04C442.475 339.04 441.583 338.472 441.746 337.58C441.975 336.888 442.244 336.209 442.55 335.548L432.635 307.373C431.499 307.938 428.007 309.726 426.472 310.619C424.684 311.758 421.112 314.436 418.92 316.953C416.728 319.39 413.807 325.075 413.644 325.319C413.483 325.643 412.751 327.024 413.075 327.107C413.4 327.268 410.479 328.983 410.479 328.983L412.02 325.41C412.02 325.41 410.071 326.059 410.071 325.086C410.071 324.03 409.911 323.461 410.071 321.837C410.315 320.293 410.64 319.961 411.535 319.961C412.339 320.041 413.156 319.717 413.41 320.041C413.665 320.365 413.41 321.505 413.981 321.019C414.466 320.529 416.902 315.9 420.311 312.978C422.774 310.839 425.471 308.987 428.35 307.456C429.569 306.807 431.274 305.915 432.003 305.51L431.274 303.315L429.813 304.119C429.813 304.119 429.406 303.794 429.406 302.985C429.406 302.175 429.326 300.789 429.326 300.789C429.326 300.789 426.241 300.87 426.241 300.709C426.161 300.546 425.997 300.141 426.161 299.98C426.405 299.816 428.757 299.245 428.757 299.245H440.771C440.771 299.245 441.663 298.441 442.475 298.441H451.318C451.887 298.524 451.482 299.01 451.97 299.09C452.535 299.17 461.467 299.417 461.467 299.417L461.711 300.221L462.683 297.868C462.683 297.868 463.576 297.704 463.251 299.002C462.847 300.221 462.847 300.789 462.279 301.033C461.791 301.275 457.326 301.438 457.326 301.438L470.725 311.423L472.513 309.48C472.513 309.48 471.213 305.663 470.564 304.199C469.913 302.821 469.345 300.382 469.345 300.382C469.345 300.382 468.289 300.953 468.129 300.465C467.885 299.897 467.325 299.409 468.209 299.082C469.184 298.688 471.945 297.616 472.43 297.945C472.837 298.27 473.081 298.75 472.837 298.918C472.624 299.086 472.372 299.197 472.105 299.243L481.86 325.635C481.86 325.635 488.272 326.12 494.455 328.637C500.543 331.157 503.871 332.698 503.871 332.698C503.871 332.698 503.547 326.608 508.743 318.248C513.936 309.962 524.977 298.68 524.977 298.68L521.242 287.8C521.085 287.8 520.933 287.753 520.803 287.667C520.673 287.58 520.572 287.456 520.513 287.312C520.352 286.827 520.513 286.663 520.513 286.663L523.76 285.202C523.893 285.18 524.028 285.191 524.155 285.233C524.282 285.276 524.397 285.349 524.489 285.446C524.653 285.851 524.246 286.583 524.246 286.583L531.066 305.421C531.066 305.421 531.634 306.314 532.202 307.451C536.91 305.175 540.806 304.365 541.862 304.526C541.862 304.526 540.402 306.153 539.67 306.963C537.315 307.365 535.004 307.993 532.77 308.839C533.909 311.841 536.993 321.668 538.129 323.453C539.349 325.482 547.222 338.636 547.222 338.636C547.222 338.636 547.468 339.708 546.418 339.37L546.386 339.359ZM451.811 306.553L451.728 307.121C458.144 308.745 463.096 312.158 467.317 316.457L467.721 315.889C463.257 311.6 458.224 308.174 451.811 306.553ZM433.466 307.121L433.71 307.77L434.682 307.365L434.358 306.797L433.466 307.121ZM435.17 306.633L435.334 307.121C440.118 305.92 445.111 305.809 449.944 306.797V306.148C445.038 305.297 440.01 305.462 435.17 306.633ZM444.26 331.725L448.899 311.503C447.233 311.244 445.551 311.109 443.866 311.099C441.623 311.089 439.387 311.331 437.199 311.822L444.26 331.725ZM446.615 333.602C446.615 333.602 445.723 334.087 445.884 332.953C446.047 331.894 449.78 315.575 450.595 311.919C456.876 313.435 462.44 317.078 466.341 322.231C466.341 322.314 465.773 323.858 465.773 324.426C465.749 324.965 465.695 325.502 465.612 326.035C465.612 326.035 457.98 327.415 446.615 333.588V333.602ZM449.215 334.331C449.215 334.331 450.348 334.006 453.108 333.926C455.869 333.846 471.701 334.25 471.701 334.25L470.897 330.921C470.897 330.921 468.949 330.758 468.949 331.165C468.868 331.487 468.868 332.299 468.145 331.894C467.341 331.487 466.925 331.165 466.925 330.758C466.925 330.35 466.585 330.264 466.585 330.021C466.585 329.777 466.505 329.94 466.665 329.53C466.826 329.12 467.156 328.233 467.156 328.233C460.939 329.499 454.906 331.545 449.201 334.323L449.215 334.331ZM448.483 337.904C448.514 338.052 448.583 338.189 448.682 338.303C448.782 338.416 448.909 338.502 449.051 338.553C449.539 338.716 461.148 340.097 465.532 340.828C469.819 341.557 472.025 341.962 472.025 341.962C472.079 341.778 472.106 341.586 472.105 341.394V340.665C469.632 339.579 467.001 338.891 464.313 338.628C460.025 338.223 448.483 337.899 448.483 337.899V337.904ZM430.866 302.819L430.14 303.143L430.057 300.626H430.789L430.866 302.819ZM431.598 300.706L432.166 300.626L433.954 305.089L433.058 305.499L431.598 300.706ZM434.696 304.928L433.316 301.192C433.316 301.192 434.208 301.111 434.615 301.111C434.94 301.111 435.184 300.219 436.644 300.706C438.024 301.111 438.268 301.272 438.916 301.111C439.648 300.95 439.08 300.543 441.272 300.543C443.464 300.543 451.187 300.462 451.187 300.462L450.292 304.521C450.292 304.521 444.204 302.738 434.707 304.928H434.696ZM452.149 304.928L453.122 300.95C453.122 300.95 454.585 301.031 455.317 301.435C456.046 301.76 466.036 309.397 466.762 309.882C467.389 310.37 470.069 313.128 470.069 313.128C470.069 313.128 469.176 313.452 469.093 313.696C468.996 313.989 468.915 314.287 468.852 314.589C468.852 314.589 462.276 307.121 452.128 304.939L452.149 304.928ZM476.747 327.664H478.856L481.699 335.052H478.518L476.747 327.664ZM470.069 315.889C470.069 315.889 471.041 315.972 471.041 315.567C471.033 315.24 471.006 314.913 470.961 314.589L472.99 311.343L477.618 325.147H475.833C475.833 325.147 472.748 318.569 470.069 315.889ZM484.923 335.379L482.57 327.989C482.57 327.989 488.414 328.72 492.962 330.589C497.587 332.465 498.97 333.025 499.699 333.43C500.428 333.835 503.432 335.379 503.432 335.379L503.515 343.174H496.279C496.279 343.174 495.304 335.459 484.912 335.379H484.923Z" fill="#F4D262"/>
<path fill-rule="evenodd" clip-rule="evenodd" d="M496.379 347.235C496.054 349.721 494.795 351.991 492.857 353.583C490.92 355.174 488.449 355.968 485.947 355.802C483.445 355.637 481.1 354.524 479.389 352.691C477.677 350.859 476.728 348.442 476.734 345.934C476.709 344.998 476.846 344.064 477.138 343.174C470.321 337.976 456.928 338.3 448.484 337.896L443.928 337.488C443.928 337.488 443.363 336.435 444.579 336.03C445.796 335.539 448.636 333.998 450.912 333.837C456.271 333.593 482.895 334.242 488.251 335.714C490.127 336.204 492.882 337.18 494.415 339.198C496.039 341.308 496.291 342.932 496.291 342.932C496.291 342.932 496.695 345.937 496.371 347.237L496.379 347.235ZM486.555 340.981C487.575 340.972 488.574 341.267 489.427 341.826C490.28 342.386 490.947 343.186 491.345 344.126C491.743 345.065 491.853 346.101 491.663 347.103C491.472 348.105 490.988 349.028 490.273 349.755C489.558 350.482 488.643 350.981 487.644 351.188C486.646 351.395 485.608 351.301 484.663 350.918C483.717 350.535 482.907 349.881 482.334 349.037C481.76 348.193 481.45 347.198 481.442 346.178C481.433 345.5 481.559 344.827 481.812 344.198C482.064 343.569 482.439 342.996 482.915 342.513C483.39 342.03 483.957 341.645 484.582 341.382C485.206 341.119 485.877 340.983 486.555 340.981Z" fill="#9B7642"/>
<path fill-rule="evenodd" clip-rule="evenodd" d="M489.966 342.201C490.502 342.644 490.943 343.191 491.263 343.809C490.21 344.538 489.071 345.353 489.071 345.841C488.991 346.407 490.371 347.138 491.51 347.717C491.263 348.303 490.934 348.851 490.534 349.344C489.731 348.857 488.83 348.369 488.506 348.208C487.855 347.798 487.287 348.125 486.882 348.773C486.718 349.181 486.638 350.234 486.718 351.21H486.638C485.847 351.195 485.07 351.001 484.366 350.642L484.931 347.798C485.011 347.637 484.77 347.149 484.446 346.994C484.202 346.911 482.822 346.83 481.605 346.83V345.289C482.373 345.215 483.133 345.078 483.878 344.881C484.77 344.637 484.682 344.554 484.682 343.908C484.682 343.581 484.197 342.608 483.792 341.877C484.538 341.365 485.404 341.057 486.306 340.984C486.55 342.123 487.037 343.581 487.362 343.664C487.605 343.748 488.905 342.935 489.961 342.206L489.966 342.201Z" fill="#3E3938"/>
<path fill-rule="evenodd" clip-rule="evenodd" d="M500.192 344.793C500.192 344.793 501.736 342.683 503.116 343.413C504.496 344.142 505.957 345.2 506.688 345.2C507.337 345.281 507.988 346.254 507.824 346.822C507.661 347.471 506.688 348.447 505.632 348.447C504.576 348.447 504.576 348.122 504.008 348.366C503.44 348.61 501.168 349.17 500.356 348.447C499.627 347.642 499.788 346.986 499.552 346.986C499.316 346.986 486.394 347.473 486.394 347.473C485.011 347.393 484.687 345.04 486.394 344.956C490.778 345.203 495.974 344.876 500.192 344.796V344.793Z" fill="black"/>
<path fill-rule="evenodd" clip-rule="evenodd" d="M469.02 298.758L465.204 288.687C465.124 288.363 465.204 287.306 464.88 287.306C464.556 287.306 462.2 287.875 461.632 287.55C460.984 287.226 460.416 286.009 460.416 286.009C460.416 286.009 457.412 285.285 456.6 285.285C455.707 285.205 454.724 285.124 454.724 285.124C454.724 285.124 453.507 281.712 455.78 280.983C458.052 280.254 463.897 280.495 466.332 280.495C468.771 280.415 476.481 278.707 478.185 280.088C479.889 281.388 479.648 282.605 479.648 282.605C479.648 282.605 476.805 283.012 474.94 283.497C473.075 283.983 469.5 284.878 468.776 285.205C468.053 285.532 466.901 286.339 467.233 286.91C467.557 287.558 468.286 289.427 468.937 290.968C469.505 292.188 470.966 296.246 471.534 297.953C470.676 298.158 469.835 298.427 469.018 298.758H469.02Z" fill="#07193B"/>
<path fill-rule="evenodd" clip-rule="evenodd" d="M523.493 285.285L521.617 281.063C521.617 281.063 524.458 276.354 524.621 276.354C524.702 276.354 526.082 275.55 526.325 275.054C526.65 274.649 527.057 273.673 526.974 273.349C526.891 273.025 526.65 272.861 526.65 272.293C526.569 271.724 527.706 268.232 527.869 267.664C528.032 267.095 528.517 265.307 528.517 264.093C528.437 262.873 527.622 261.737 526.489 261.656C525.433 261.493 524.214 261.656 524.133 261.737C523.973 261.817 523.405 262.061 523.405 262.061C523.405 262.061 522.601 261.737 522.349 261.817C522.093 261.935 521.823 262.018 521.545 262.061C521.464 262.061 521.22 261.576 520.741 261.656C520.173 261.817 520.009 261.981 519.937 261.9C519.865 261.82 520.017 260.925 519.288 261.005C518.637 261.088 515.716 262.142 515.309 262.386C514.904 262.713 515.309 263.278 515.229 263.522C515.229 263.686 515.145 264.254 514.336 264.578C513.527 264.903 509.781 266.122 509.628 266.366C509.475 266.61 509.708 266.61 509.301 266.934C508.977 267.178 505.568 268.639 505.568 268.639C505.568 268.639 505.163 269.288 505.729 270.424C506.216 271.644 506.868 271.564 506.868 271.564C506.868 271.564 510.113 270.02 512.141 269.532C514.092 269.044 515.797 267.583 515.96 267.907C516.204 268.232 515.96 268.639 516.284 269.207C516.559 269.584 516.964 269.845 517.421 269.939C517.664 269.856 516.204 270.424 515.389 270.832C514.497 271.237 512.956 272.537 512.793 273.429C512.629 274.322 512.712 274.893 513.28 274.893C513.848 274.893 513.929 274.566 513.765 274.161C513.524 273.837 513.361 273.673 513.929 273.268C514.417 272.861 515.145 271.805 516.445 271.644C517.745 271.483 519.449 271.481 519.854 271.076C520.181 270.668 521.073 269.695 521.397 269.368C521.805 268.964 522.938 268.803 523.021 268.72C523.185 268.639 520.098 271.564 520.017 271.885C519.854 272.293 519.773 273.349 520.098 273.512C520.425 273.754 521.073 274.161 521.073 273.593C521.073 273.025 520.749 272.861 521.153 271.968C521.558 271.076 522.938 269.939 522.938 269.939C522.938 269.939 523.102 271.317 522.858 271.564C522.697 271.805 521.965 272.293 521.965 272.861C521.965 273.429 522.29 273.593 521.885 274.405C521.48 275.217 520.181 277.086 520.181 277.086C520.181 277.086 519.693 276.032 519.288 276.113C518.964 276.113 517.908 276.356 517.908 277.005C517.908 277.573 520.829 285.047 520.829 285.047C520.829 285.047 520.505 285.612 520.585 285.851C520.585 285.931 520.749 286.256 520.829 286.5L523.493 285.285Z" fill="#6E6F71"/>
<path fill-rule="evenodd" clip-rule="evenodd" d="M532.177 307.445C532.177 306.392 532.26 304.682 532.585 304.116C533.153 303.384 534.208 302.087 534.533 301.516C534.857 300.867 535.264 300.543 535.589 300.626C535.993 300.787 536.886 301.111 536.969 301.516C537.052 301.921 537.293 302.899 537.454 302.982C537.507 303.006 537.564 303.018 537.622 303.019C537.68 303.019 537.738 303.007 537.791 302.985C537.844 302.962 537.893 302.928 537.932 302.886C537.972 302.843 538.002 302.793 538.022 302.738C538.185 302.409 538.349 298.35 538.266 297.458C538.185 296.485 537.462 295.428 537.21 295.581C536.969 295.825 536.969 296.637 536.478 297.042C536.074 297.53 534.369 297.45 533.884 298.181C533.399 298.913 531.529 302.486 531.285 303.215C531.204 303.62 531.121 304.513 531.041 305.325V305.408C531.041 305.408 531.609 306.301 532.177 307.437V307.445Z" fill="black"/>
<path d="M633.639 288.488L633.789 288.536L633.639 288.488Z" fill="url(#paint0_linear_81_655)"/>
<path d="M635.239 363.139L635.148 363.109L635.239 363.139Z" fill="url(#paint1_linear_81_655)"/>
<path d="M633.778 363.097L633.664 363.139L633.778 363.097Z" fill="url(#paint2_linear_81_655)"/>
<path d="M635.131 288.536L635.275 288.488L635.131 288.536Z" fill="url(#paint3_linear_81_655)"/>
<path d="M643.73 285.61C641.561 285.61 639.433 286.71 637.354 287.641C641.056 292.912 643.73 307.985 643.73 325.793C643.73 343.601 641.056 358.668 637.36 363.945C639.433 364.87 641.567 365.976 643.73 365.976C654.387 365.976 664.608 361.743 672.144 354.207C679.68 346.671 683.913 336.45 683.913 325.793C683.913 315.136 679.68 304.915 672.144 297.379C664.608 289.843 654.387 285.61 643.73 285.61ZM640.857 365.423C640.497 365.297 640.136 365.165 639.782 365.015C650.882 361.054 659.188 345.013 659.188 325.793C659.188 306.573 650.876 290.532 639.782 286.565C640.136 286.421 640.497 286.289 640.857 286.163C650.282 287.672 658.86 292.49 665.053 299.753C671.245 307.016 674.647 316.248 674.647 325.793C674.647 335.338 671.245 344.57 665.053 351.833C658.86 359.096 650.282 363.914 640.857 365.423Z" fill="#FF7E16"/>
<path d="M631.56 287.665C629.486 286.734 627.353 285.634 625.183 285.634C614.526 285.634 604.305 289.867 596.769 297.403C589.234 304.939 585 315.16 585 325.817C585 336.474 589.234 346.695 596.769 354.231C604.305 361.767 614.526 366 625.183 366C627.359 366 629.486 364.894 631.56 363.969C627.858 358.686 625.183 343.619 625.183 325.817C625.183 308.015 627.858 292.936 631.56 287.665ZM629.156 365.038C628.801 365.189 628.441 365.321 628.086 365.447C618.661 363.938 610.083 359.12 603.891 351.857C597.698 344.594 594.297 335.361 594.297 325.817C594.297 316.272 597.698 307.04 603.891 299.777C610.083 292.514 618.661 287.696 628.086 286.187C628.447 286.313 628.807 286.445 629.162 286.589C618.061 290.556 609.755 306.597 609.755 325.817C609.755 345.037 618.037 361.078 629.132 365.038H629.156Z" fill="#FF7E16"/>
<path d="M635.273 288.489L635.875 288.284L635.273 288.489Z" fill="url(#paint4_linear_81_655)"/>
<path d="M635.149 363.103C634.914 363.031 634.685 362.965 634.463 362.911C634.685 362.965 634.914 363.031 635.149 363.103Z" fill="url(#paint5_linear_81_655)"/>
<path d="M631.561 363.969C632.047 363.752 632.534 363.548 633.009 363.368C632.528 363.548 632.047 363.752 631.561 363.969Z" fill="url(#paint6_linear_81_655)"/>
<path d="M633.665 363.139L633.027 363.356L633.665 363.139Z" fill="url(#paint7_linear_81_655)"/>
<path d="M634.44 362.911C634.211 362.965 633.982 363.025 633.754 363.097C634.007 363.025 634.235 362.965 634.44 362.911Z" fill="url(#paint8_linear_81_655)"/>
<path d="M631.561 287.659C632.041 287.87 632.516 288.074 632.985 288.26C632.516 288.08 632.035 287.876 631.561 287.659Z" fill="url(#paint9_linear_81_655)"/>
<path d="M634.439 288.729C634.662 288.669 634.885 288.609 635.107 288.537C634.909 288.615 634.686 288.669 634.439 288.729Z" fill="url(#paint10_linear_81_655)"/>
<path d="M637.354 287.659C636.879 287.876 636.404 288.08 635.93 288.26C636.404 288.08 636.879 287.876 637.354 287.659Z" fill="url(#paint11_linear_81_655)"/>
<path d="M633.057 288.284L633.658 288.489L633.057 288.284Z" fill="url(#paint12_linear_81_655)"/>
<path d="M637.354 363.969C636.663 363.651 635.955 363.372 635.232 363.133C635.954 363.373 636.662 363.652 637.354 363.969Z" fill="url(#paint13_linear_81_655)"/>
<path d="M633.789 288.537C634.012 288.609 634.234 288.669 634.463 288.729C634.234 288.669 634.012 288.615 633.789 288.537Z" fill="url(#paint14_linear_81_655)"/>
<path d="M637.353 287.665C636.878 287.875 636.403 288.08 635.928 288.266H635.868L635.267 288.47L635.123 288.518C634.9 288.591 634.678 288.651 634.456 288.711C634.227 288.651 634.005 288.591 633.783 288.518L633.632 288.47L633.031 288.266H632.959C632.49 288.086 632.016 287.881 631.535 287.665C627.833 292.936 625.158 308.009 625.158 325.817C625.158 343.625 627.833 358.686 631.535 363.969C632.022 363.752 632.502 363.548 632.983 363.368L633.62 363.151L633.735 363.109C633.963 363.037 634.191 362.977 634.42 362.923C634.642 362.977 634.87 363.043 635.105 363.115L635.195 363.145C635.917 363.384 636.625 363.663 637.317 363.981C641.013 358.704 643.687 343.631 643.687 325.829C643.687 308.027 641.049 292.936 637.353 287.665Z" fill="url(#paint15_linear_81_655)"/>
<path d="M637.353 287.665C636.878 287.875 636.403 288.08 635.928 288.266H635.868L635.267 288.47L635.123 288.518C634.9 288.591 634.678 288.651 634.456 288.711C634.227 288.651 634.005 288.591 633.783 288.518L633.632 288.47L633.031 288.266H632.959C632.49 288.086 632.016 287.881 631.535 287.665C627.833 292.936 625.158 308.009 625.158 325.817C625.158 343.625 627.833 358.686 631.535 363.969C632.022 363.752 632.502 363.548 632.983 363.368L633.62 363.151L633.735 363.109C633.963 363.037 634.191 362.977 634.42 362.923C634.642 362.977 634.87 363.043 635.105 363.115L635.195 363.145C635.917 363.384 636.625 363.663 637.317 363.981C641.013 358.704 643.687 343.631 643.687 325.829C643.687 308.027 641.049 292.936 637.353 287.665Z" fill="#FF8A16"/>
<path d="M609.732 325.817C609.732 306.585 618.038 290.556 629.139 286.589C628.784 286.445 628.423 286.313 628.063 286.187C618.638 287.696 610.06 292.514 603.867 299.777C597.675 307.04 594.273 316.272 594.273 325.817C594.273 335.361 597.675 344.593 603.867 351.856C610.06 359.119 618.638 363.938 628.063 365.447C628.417 365.321 628.778 365.189 629.133 365.038C618.038 361.078 609.732 345.037 609.732 325.817Z" fill="url(#paint16_linear_81_655)"/>
<path d="M609.732 325.817C609.732 306.585 618.038 290.556 629.139 286.589C628.784 286.445 628.423 286.313 628.063 286.187C618.638 287.696 610.06 292.514 603.867 299.777C597.675 307.04 594.273 316.272 594.273 325.817C594.273 335.361 597.675 344.593 603.867 351.856C610.06 359.119 618.638 363.938 628.063 365.447C628.417 365.321 628.778 365.189 629.133 365.038C618.038 361.078 609.732 345.037 609.732 325.817Z" fill="#FF8A16"/>
<path d="M640.857 286.211C640.496 286.337 640.136 286.469 639.781 286.614C650.876 290.58 659.188 306.621 659.188 325.841C659.188 345.061 650.882 361.102 639.781 365.063C640.136 365.213 640.496 365.345 640.857 365.471C650.282 363.962 658.86 359.144 665.052 351.881C671.245 344.618 674.646 335.386 674.646 325.841C674.646 316.297 671.245 307.064 665.052 299.801C658.86 292.538 650.282 287.72 640.857 286.211Z" fill="url(#paint17_linear_81_655)"/>
<path d="M640.857 286.211C640.496 286.337 640.136 286.469 639.781 286.614C650.876 290.58 659.188 306.621 659.188 325.841C659.188 345.061 650.882 361.102 639.781 365.063C640.136 365.213 640.496 365.345 640.857 365.471C650.282 363.962 658.86 359.144 665.052 351.881C671.245 344.618 674.646 335.386 674.646 325.841C674.646 316.297 671.245 307.064 665.052 299.801C658.86 292.538 650.282 287.72 640.857 286.211Z" fill="#FF8A16"/>
<path d="M627.828 271.144C627.828 271.144 632.51 280.922 628.291 287.148C628.291 287.148 635.04 291.307 640.72 286.601C640.696 286.601 639.752 269.256 627.828 271.144Z" fill="#814D23"/>
<path d="M695.816 309.518L695.924 309.552L695.816 309.518Z" fill="url(#paint18_linear_81_655)"/>
<path d="M696.959 362.952L696.895 362.931L696.959 362.952Z" fill="url(#paint19_linear_81_655)"/>
<path d="M695.914 362.922L695.832 362.952L695.914 362.922Z" fill="url(#paint20_linear_81_655)"/>
<path d="M696.883 309.552L696.986 309.518L696.883 309.552Z" fill="url(#paint21_linear_81_655)"/>
<path d="M703.039 307.458C701.486 307.458 699.963 308.245 698.475 308.912C701.125 312.684 703.039 323.474 703.039 336.22C703.039 348.967 701.125 359.752 698.479 363.529C699.963 364.191 701.49 364.983 703.039 364.983C710.667 364.983 717.983 361.953 723.377 356.558C728.771 351.164 731.802 343.849 731.802 336.22C731.802 328.592 728.771 321.276 723.377 315.882C717.983 310.488 710.667 307.458 703.039 307.458ZM700.983 364.587C700.725 364.497 700.466 364.402 700.213 364.295C708.158 361.46 714.103 349.978 714.103 336.22C714.103 322.463 708.154 310.981 700.213 308.142C700.466 308.038 700.725 307.944 700.983 307.853C707.729 308.933 713.869 312.382 718.301 317.581C722.734 322.78 725.169 329.388 725.169 336.22C725.169 343.052 722.734 349.66 718.301 354.859C713.869 360.058 707.729 363.507 700.983 364.587Z" fill="#FF7E16"/>
<path d="M694.327 308.929C692.843 308.262 691.316 307.475 689.763 307.475C682.134 307.475 674.818 310.505 669.424 315.899C664.03 321.293 661 328.609 661 336.237C661 343.866 664.03 351.182 669.424 356.576C674.818 361.97 682.134 365 689.763 365C691.32 365 692.843 364.208 694.327 363.546C691.677 359.765 689.763 348.98 689.763 336.237C689.763 323.495 691.677 312.701 694.327 308.929ZM692.606 364.312C692.352 364.419 692.094 364.514 691.84 364.604C685.095 363.524 678.954 360.075 674.522 354.876C670.089 349.677 667.654 343.069 667.654 336.237C667.654 329.405 670.089 322.797 674.522 317.598C678.954 312.4 685.095 308.951 691.84 307.87C692.099 307.961 692.357 308.055 692.611 308.159C684.665 310.998 678.72 322.48 678.72 336.237C678.72 349.995 684.648 361.477 692.589 364.312H692.606Z" fill="#FF7E16"/>
<path d="M696.986 309.518L697.417 309.372L696.986 309.518Z" fill="url(#paint22_linear_81_655)"/>
<path d="M696.895 362.927C696.727 362.875 696.563 362.828 696.404 362.789C696.563 362.828 696.727 362.875 696.895 362.927Z" fill="url(#paint23_linear_81_655)"/>
<path d="M694.328 363.546C694.677 363.391 695.025 363.245 695.365 363.116C695.021 363.245 694.677 363.391 694.328 363.546Z" fill="url(#paint24_linear_81_655)"/>
<path d="M695.833 362.952L695.377 363.107L695.833 362.952Z" fill="url(#paint25_linear_81_655)"/>
<path d="M696.387 362.789C696.223 362.828 696.06 362.871 695.896 362.922C696.077 362.871 696.241 362.828 696.387 362.789Z" fill="url(#paint26_linear_81_655)"/>
<path d="M694.328 308.924C694.672 309.075 695.012 309.221 695.348 309.355C695.012 309.225 694.668 309.079 694.328 308.924Z" fill="url(#paint27_linear_81_655)"/>
<path d="M696.387 309.69C696.546 309.647 696.705 309.604 696.864 309.553C696.722 309.609 696.563 309.647 696.387 309.69Z" fill="url(#paint28_linear_81_655)"/>
<path d="M698.475 308.924C698.135 309.079 697.795 309.225 697.455 309.355C697.795 309.225 698.135 309.079 698.475 308.924Z" fill="url(#paint29_linear_81_655)"/>
<path d="M695.398 309.372L695.829 309.518L695.398 309.372Z" fill="url(#paint30_linear_81_655)"/>
<path d="M698.474 363.546C697.979 363.318 697.472 363.119 696.955 362.948C697.472 363.12 697.979 363.319 698.474 363.546Z" fill="url(#paint31_linear_81_655)"/>
<path d="M695.922 309.553C696.081 309.604 696.24 309.647 696.404 309.69C696.24 309.647 696.081 309.609 695.922 309.553Z" fill="url(#paint32_linear_81_655)"/>
<path d="M698.475 308.929C698.135 309.079 697.795 309.226 697.455 309.359H697.412L696.982 309.505L696.879 309.54C696.72 309.591 696.56 309.634 696.401 309.677C696.238 309.634 696.079 309.591 695.919 309.54L695.812 309.505L695.382 309.359H695.33C694.994 309.23 694.655 309.084 694.31 308.929C691.66 312.701 689.746 323.491 689.746 336.237C689.746 348.984 691.66 359.765 694.31 363.546C694.659 363.391 695.003 363.245 695.347 363.116L695.803 362.961L695.885 362.931C696.048 362.879 696.212 362.836 696.375 362.797C696.535 362.836 696.698 362.883 696.866 362.935L696.93 362.957C697.447 363.127 697.954 363.327 698.449 363.555C701.095 359.777 703.009 348.988 703.009 336.246C703.009 323.504 701.12 312.701 698.475 308.929Z" fill="url(#paint33_linear_81_655)"/>
<path d="M698.475 308.929C698.135 309.079 697.795 309.226 697.455 309.359H697.412L696.982 309.505L696.879 309.54C696.72 309.591 696.56 309.634 696.401 309.677C696.238 309.634 696.079 309.591 695.919 309.54L695.812 309.505L695.382 309.359H695.33C694.994 309.23 694.655 309.084 694.31 308.929C691.66 312.701 689.746 323.491 689.746 336.237C689.746 348.984 691.66 359.765 694.31 363.546C694.659 363.391 695.003 363.245 695.347 363.116L695.803 362.961L695.885 362.931C696.048 362.879 696.212 362.836 696.375 362.797C696.535 362.836 696.698 362.883 696.866 362.935L696.93 362.957C697.447 363.127 697.954 363.327 698.449 363.555C701.095 359.777 703.009 348.988 703.009 336.246C703.009 323.504 701.12 312.701 698.475 308.929Z" fill="#FF8A16"/>
<path d="M678.702 336.237C678.702 322.471 684.647 310.998 692.593 308.159C692.339 308.056 692.081 307.961 691.823 307.871C685.077 308.951 678.937 312.4 674.504 317.599C670.071 322.797 667.637 329.406 667.637 336.237C667.637 343.069 670.071 349.678 674.504 354.876C678.937 360.075 685.077 363.524 691.823 364.604C692.077 364.514 692.335 364.419 692.588 364.312C684.647 361.477 678.702 349.995 678.702 336.237Z" fill="url(#paint34_linear_81_655)"/>
<path d="M678.702 336.237C678.702 322.471 684.647 310.998 692.593 308.159C692.339 308.056 692.081 307.961 691.823 307.871C685.077 308.951 678.937 312.4 674.504 317.599C670.071 322.797 667.637 329.406 667.637 336.237C667.637 343.069 670.071 349.678 674.504 354.876C678.937 360.075 685.077 363.524 691.823 364.604C692.077 364.514 692.335 364.419 692.588 364.312C684.647 361.477 678.702 349.995 678.702 336.237Z" fill="#FF8A16"/>
<path d="M700.983 307.888C700.725 307.978 700.467 308.073 700.213 308.176C708.154 311.015 714.104 322.497 714.104 336.255C714.104 350.012 708.159 361.494 700.213 364.329C700.467 364.437 700.725 364.531 700.983 364.621C707.729 363.541 713.869 360.092 718.302 354.894C722.734 349.695 725.169 343.086 725.169 336.255C725.169 329.423 722.734 322.814 718.302 317.616C713.869 312.417 707.729 308.968 700.983 307.888Z" fill="url(#paint35_linear_81_655)"/>
<path d="M700.983 307.888C700.725 307.978 700.467 308.073 700.213 308.176C708.154 311.015 714.104 322.497 714.104 336.255C714.104 350.012 708.159 361.494 700.213 364.329C700.467 364.437 700.725 364.531 700.983 364.621C707.729 363.541 713.869 360.092 718.302 354.894C722.734 349.695 725.169 343.086 725.169 336.255C725.169 329.423 722.734 322.814 718.302 317.616C713.869 312.417 707.729 308.968 700.983 307.888Z" fill="#FF8A16"/>
<path d="M691.654 297.103C691.654 297.103 695.005 304.102 691.986 308.559C691.986 308.559 696.817 311.536 700.882 308.167C700.865 308.167 700.189 295.752 691.654 297.103Z" fill="#814D23"/>
<defs>
<linearGradient id="paint0_linear_81_655" x1="647.184" y1="292.234" x2="671.834" y2="292.234" gradientUnits="userSpaceOnUse">
<stop stop-color="#FFAA05"/>
<stop offset="1" stop-color="#FFC898"/>
</linearGradient>
<linearGradient id="paint1_linear_81_655" x1="643.216" y1="369.184" x2="658.127" y2="369.184" gradientUnits="userSpaceOnUse">
<stop stop-color="#FFAA05"/>
<stop offset="1" stop-color="#FFC898"/>
</linearGradient>
<linearGradient id="paint2_linear_81_655" x1="644.052" y1="371.602" x2="662.593" y2="371.602" gradientUnits="userSpaceOnUse">
<stop stop-color="#FFAA05"/>
<stop offset="1" stop-color="#FFC898"/>
</linearGradient>
<linearGradient id="paint3_linear_81_655" x1="648.111" y1="292.234" x2="671.824" y2="292.234" gradientUnits="userSpaceOnUse">
<stop stop-color="#FFAA05"/>
<stop offset="1" stop-color="#FFC898"/>
</linearGradient>
<linearGradient id="paint4_linear_81_655" x1="594.183" y1="288.386" x2="674.734" y2="288.386" gradientUnits="userSpaceOnUse">
<stop stop-color="#FF7B0D"/>
<stop offset="1" stop-color="#FFAA05"/>
</linearGradient>
<linearGradient id="paint5_linear_81_655" x1="706.651" y1="401.752" x2="798.218" y2="401.752" gradientUnits="userSpaceOnUse">
<stop stop-color="#FF7B0D"/>
<stop offset="1" stop-color="#FFAA05"/>
</linearGradient>
<linearGradient id="paint6_linear_81_655" x1="783.876" y1="485.299" x2="977.601" y2="485.299" gradientUnits="userSpaceOnUse">
<stop stop-color="#FF7B0D"/>
<stop offset="1" stop-color="#FFAA05"/>
</linearGradient>
<linearGradient id="paint7_linear_81_655" x1="699.927" y1="406.921" x2="785.523" y2="406.921" gradientUnits="userSpaceOnUse">
<stop stop-color="#FF7B0D"/>
<stop offset="1" stop-color="#FFAA05"/>
</linearGradient>
<linearGradient id="paint8_linear_81_655" x1="705.819" y1="400.537" x2="797.633" y2="400.537" gradientUnits="userSpaceOnUse">
<stop stop-color="#FF7B0D"/>
<stop offset="1" stop-color="#FFAA05"/>
</linearGradient>
<linearGradient id="paint9_linear_81_655" x1="781.362" y1="333.882" x2="971.859" y2="333.882" gradientUnits="userSpaceOnUse">
<stop stop-color="#FF7B0D"/>
<stop offset="1" stop-color="#FFAA05"/>
</linearGradient>
<linearGradient id="paint10_linear_81_655" x1="704.701" y1="303.557" x2="793.913" y2="303.557" gradientUnits="userSpaceOnUse">
<stop stop-color="#FF7B0D"/>
<stop offset="1" stop-color="#FFAA05"/>
</linearGradient>
<linearGradient id="paint11_linear_81_655" x1="785.647" y1="333.882" x2="976.287" y2="333.882" gradientUnits="userSpaceOnUse">
<stop stop-color="#FF7B0D"/>
<stop offset="1" stop-color="#FFAA05"/>
</linearGradient>
<linearGradient id="paint12_linear_81_655" x1="696.362" y1="304.159" x2="776.714" y2="304.159" gradientUnits="userSpaceOnUse">
<stop stop-color="#FF7B0D"/>
<stop offset="1" stop-color="#FFAA05"/>
</linearGradient>
<linearGradient id="paint13_linear_81_655" x1="858.398" y1="532.451" x2="1142.03" y2="532.451" gradientUnits="userSpaceOnUse">
<stop stop-color="#FF7B0D"/>
<stop offset="1" stop-color="#FFAA05"/>
</linearGradient>
<linearGradient id="paint14_linear_81_655" x1="704.542" y1="303.557" x2="794.84" y2="303.557" gradientUnits="userSpaceOnUse">
<stop stop-color="#FF7B0D"/>
<stop offset="1" stop-color="#FFAA05"/>
</linearGradient>
<linearGradient id="paint15_linear_81_655" x1="2287.95" y1="10964.2" x2="5337.63" y2="10964.2" gradientUnits="userSpaceOnUse">
<stop stop-color="#FFAA05"/>
<stop offset="1" stop-color="#FFC898"/>
</linearGradient>
<linearGradient id="paint16_linear_81_655" x1="3723.07" y1="11374.7" x2="9461.51" y2="11374.7" gradientUnits="userSpaceOnUse">
<stop stop-color="#FFAA05"/>
<stop offset="1" stop-color="#FFC898"/>
</linearGradient>
<linearGradient id="paint17_linear_81_655" x1="3768.57" y1="11374.7" x2="9506.67" y2="11374.7" gradientUnits="userSpaceOnUse">
<stop stop-color="#FFAA05"/>
<stop offset="1" stop-color="#FFC898"/>
</linearGradient>
<linearGradient id="paint18_linear_81_655" x1="705.503" y1="312.197" x2="723.133" y2="312.197" gradientUnits="userSpaceOnUse">
<stop stop-color="#FFAA05"/>
<stop offset="1" stop-color="#FFC898"/>
</linearGradient>
<linearGradient id="paint19_linear_81_655" x1="702.664" y1="367.275" x2="713.328" y2="367.275" gradientUnits="userSpaceOnUse">
<stop stop-color="#FFAA05"/>
<stop offset="1" stop-color="#FFC898"/>
</linearGradient>
<linearGradient id="paint20_linear_81_655" x1="703.261" y1="369.005" x2="716.521" y2="369.005" gradientUnits="userSpaceOnUse">
<stop stop-color="#FFAA05"/>
<stop offset="1" stop-color="#FFC898"/>
</linearGradient>
<linearGradient id="paint21_linear_81_655" x1="706.166" y1="312.197" x2="723.124" y2="312.197" gradientUnits="userSpaceOnUse">
<stop stop-color="#FFAA05"/>
<stop offset="1" stop-color="#FFC898"/>
</linearGradient>
<linearGradient id="paint22_linear_81_655" x1="667.6" y1="309.445" x2="725.207" y2="309.445" gradientUnits="userSpaceOnUse">
<stop stop-color="#FF7B0D"/>
<stop offset="1" stop-color="#FFAA05"/>
</linearGradient>
<linearGradient id="paint23_linear_81_655" x1="748.031" y1="390.567" x2="813.516" y2="390.567" gradientUnits="userSpaceOnUse">
<stop stop-color="#FF7B0D"/>
<stop offset="1" stop-color="#FFAA05"/>
</linearGradient>
<linearGradient id="paint24_linear_81_655" x1="803.354" y1="450.393" x2="942.02" y2="450.393" gradientUnits="userSpaceOnUse">
<stop stop-color="#FF7B0D"/>
<stop offset="1" stop-color="#FFAA05"/>
</linearGradient>
<linearGradient id="paint25_linear_81_655" x1="743.221" y1="394.264" x2="804.436" y2="394.264" gradientUnits="userSpaceOnUse">
<stop stop-color="#FF7B0D"/>
<stop offset="1" stop-color="#FFAA05"/>
</linearGradient>
<linearGradient id="paint26_linear_81_655" x1="747.435" y1="389.698" x2="813.097" y2="389.698" gradientUnits="userSpaceOnUse">
<stop stop-color="#FF7B0D"/>
<stop offset="1" stop-color="#FFAA05"/>
</linearGradient>
<linearGradient id="paint27_linear_81_655" x1="801.555" y1="342.01" x2="937.91" y2="342.01" gradientUnits="userSpaceOnUse">
<stop stop-color="#FF7B0D"/>
<stop offset="1" stop-color="#FFAA05"/>
</linearGradient>
<linearGradient id="paint28_linear_81_655" x1="746.636" y1="320.294" x2="810.436" y2="320.294" gradientUnits="userSpaceOnUse">
<stop stop-color="#FF7B0D"/>
<stop offset="1" stop-color="#FFAA05"/>
</linearGradient>
<linearGradient id="paint29_linear_81_655" x1="804.621" y1="342.01" x2="941.079" y2="342.01" gradientUnits="userSpaceOnUse">
<stop stop-color="#FF7B0D"/>
<stop offset="1" stop-color="#FFAA05"/>
</linearGradient>
<linearGradient id="paint30_linear_81_655" x1="740.672" y1="320.725" x2="798.137" y2="320.725" gradientUnits="userSpaceOnUse">
<stop stop-color="#FF7B0D"/>
<stop offset="1" stop-color="#FFAA05"/>
</linearGradient>
<linearGradient id="paint31_linear_81_655" x1="856.694" y1="484.144" x2="1059.71" y2="484.144" gradientUnits="userSpaceOnUse">
<stop stop-color="#FF7B0D"/>
<stop offset="1" stop-color="#FFAA05"/>
</linearGradient>
<linearGradient id="paint32_linear_81_655" x1="746.522" y1="320.294" x2="811.099" y2="320.294" gradientUnits="userSpaceOnUse">
<stop stop-color="#FF7B0D"/>
<stop offset="1" stop-color="#FFAA05"/>
</linearGradient>
<linearGradient id="paint33_linear_81_655" x1="1879.95" y1="7951.08" x2="4062.88" y2="7951.08" gradientUnits="userSpaceOnUse">
<stop stop-color="#FFAA05"/>
<stop offset="1" stop-color="#FFC898"/>
</linearGradient>
<linearGradient id="paint34_linear_81_655" x1="2907.19" y1="8244.93" x2="7014.71" y2="8244.93" gradientUnits="userSpaceOnUse">
<stop stop-color="#FFAA05"/>
<stop offset="1" stop-color="#FFC898"/>
</linearGradient>
<linearGradient id="paint35_linear_81_655" x1="2939.77" y1="8244.95" x2="7047.04" y2="8244.95" gradientUnits="userSpaceOnUse">
<stop stop-color="#FFAA05"/>
<stop offset="1" stop-color="#FFC898"/>
</linearGradient>
</defs>
</svg>
