<svg width="732" height="375" viewBox="0 0 732 375" fill="none" xmlns="http://www.w3.org/2000/svg">
<path d="M205.649 57.7767H182.945V55.863C181.916 32.3254 156.838 12.5194 125.432 8.02231L121.16 7.54391C118.786 7.54391 116.413 7.5439 114.04 7.0655H109.451C107.157 7.0655 104.784 7.0655 102.41 7.54391L98.1384 8.02231C66.4944 12.5194 42.0494 32.3254 40.7045 55.863V57.7767H18V55.9587C18 43.0417 25.911 12.5194 97.9011 4.00368C101.682 3.44036 105.484 3.12096 109.293 3.04688H114.277C118.086 3.12096 121.888 3.44036 125.669 4.00368C197.738 12.5194 205.649 43.0417 205.649 55.9587V57.7767ZM187.454 53.9494H200.744C199.479 33.0909 179.306 21.4177 158.183 14.8157C174.638 24.1925 185.793 38.6404 187.454 53.9494ZM22.8257 53.9494H36.1162C37.7775 38.6404 48.932 24.1925 65.2287 14.8157C44.2645 21.4177 24.0915 33.0909 22.8257 53.9494Z" fill="#A83022"/>
<path d="M138.564 57.7764H85.0059V55.9584C85.0059 17.0161 101.223 6.49112 108.185 3.71636C110.52 2.76121 113.049 2.76121 115.384 3.71636C122.346 6.49112 138.564 17.0161 138.564 55.9584V57.7764ZM89.8316 53.9491H133.738C133.738 42.563 131.127 14.337 113.327 7.35225C112.323 6.9703 111.246 6.9703 110.242 7.35225C92.4422 14.337 90.0689 42.563 89.8316 53.9491Z" fill="#A83022"/>
<path opacity="0.5" d="M41.5318 54.3677H36.7852V362.878H41.5318V54.3677Z" fill="#A83022"/>
<path d="M205.57 54.4277H18V60.1686H205.57V54.4277Z" fill="#A83022"/>
<path d="M205.57 360.704H18V366.445H205.57V360.704Z" fill="#A83022"/>
<path d="M22.7466 58.0635H18V363.575H22.7466V58.0635Z" fill="#A83022"/>
<path opacity="0.5" d="M187.532 54.3677H182.785V362.878H187.532V54.3677Z" fill="#A83022"/>
<path opacity="0.5" d="M138.484 53.9492H133.738V362.459H138.484V53.9492Z" fill="#A83022"/>
<path opacity="0.5" d="M89.7525 53.9492H85.0059V362.459H89.7525V53.9492Z" fill="#A83022"/>
<path d="M205.569 58.0635H200.822V363.575H205.569V58.0635Z" fill="#A83022"/>
<path d="M482.23 172.61L520.9 220.31H486.17V366.07H34.76V220.31H0L38.68 172.61L119 73.49L125.33 65.67L260.46 0L395.55 65.67L401.89 73.49L482.23 172.6V172.61ZM386.15 352.93V200.25H273.55V352.93H386.15ZM196.83 119.65H324.07C324.22 111.2 322.685 102.806 319.555 94.9556C316.425 87.1056 311.763 79.9578 305.84 73.9294C299.918 67.9009 292.854 63.1126 285.06 59.844C277.267 56.5754 268.901 54.8919 260.45 54.8919C251.999 54.8919 243.633 56.5754 235.84 59.844C228.046 63.1126 220.982 67.9009 215.06 73.9294C209.137 79.9578 204.475 87.1056 201.345 94.9556C198.215 102.806 196.68 111.2 196.83 119.65V119.65ZM247.35 352.93V200.25H134.75V352.93H247.35Z" fill="#A83022"/>
<path d="M387.12 200.25H274.52V352.93H387.12V200.25Z" fill="#813022"/>
<path d="M324.999 119.65H197.799C197.649 111.201 199.184 102.806 202.314 94.9558C205.444 87.1058 210.106 79.9579 216.029 73.9295C221.951 67.901 229.015 63.1127 236.809 59.8441C244.602 56.5755 252.968 54.8921 261.419 54.8921C269.87 54.8921 278.236 56.5755 286.03 59.8441C293.823 63.1127 300.887 67.901 306.809 73.9295C312.732 79.9579 317.394 87.1058 320.524 94.9558C323.654 102.806 325.189 111.201 325.039 119.65H324.999Z" fill="#813022"/>
<path d="M248.321 200.25H135.711V352.93H248.321V200.25Z" fill="#813022"/>
<path d="M196.83 119.65C196.68 111.201 198.215 102.806 201.345 94.9558C204.475 87.1058 209.138 79.9579 215.06 73.9295C220.983 67.901 228.047 63.1127 235.84 59.8441C243.633 56.5755 251.999 54.8921 260.45 54.8921C268.901 54.8921 277.268 56.5755 285.061 59.8441C292.854 63.1127 299.918 67.901 305.841 73.9295C311.763 79.9579 316.425 87.1058 319.555 94.9558C322.685 102.806 324.22 111.201 324.07 119.65H196.83Z" stroke="#FFD6BF" stroke-width="3" stroke-miterlimit="10"/>
<path d="M247.35 200.25H134.75V352.93H247.35V200.25Z" stroke="#FFD6BF" stroke-width="4" stroke-miterlimit="10"/>
<path d="M386.161 200.25H273.551V352.93H386.161V200.25Z" stroke="#FFD6BF" stroke-width="4" stroke-miterlimit="10"/>
<path d="M134.75 200.24L247.35 352.93" stroke="#BABABA" stroke-width="3" stroke-miterlimit="10"/>
<path d="M247.35 200.24L134.75 352.93" stroke="#BABABA" stroke-width="3" stroke-miterlimit="10"/>
<path d="M386.161 200.24L273.551 352.93" stroke="#BABABA" stroke-width="3" stroke-miterlimit="10"/>
<path d="M273.551 200.24L386.161 352.93" stroke="#BABABA" stroke-width="3" stroke-miterlimit="10"/>
<path fill-rule="evenodd" clip-rule="evenodd" d="M530.386 309.713C548.324 309.713 562.937 324.33 562.937 342.359C562.937 360.389 548.324 375 530.386 375C521.731 375 513.43 371.561 507.31 365.439C501.19 359.317 497.752 351.014 497.752 342.357C497.752 333.699 501.19 325.396 507.31 319.274C513.43 313.153 521.731 309.713 530.386 309.713V309.713ZM530.386 311.828C534.389 311.832 538.353 312.625 542.05 314.161C545.747 315.698 549.105 317.948 551.932 320.784C554.759 323.619 556.999 326.984 558.525 330.686C560.051 334.388 560.833 338.355 560.826 342.359C560.826 359.164 547.188 372.891 530.386 372.891C522.291 372.891 514.528 369.674 508.803 363.948C503.079 358.222 499.864 350.457 499.864 342.359C499.864 334.262 503.079 326.496 508.803 320.771C514.528 315.045 522.291 311.828 530.386 311.828V311.828Z" fill="black"/>
<path fill-rule="evenodd" clip-rule="evenodd" d="M530.386 311.828C534.389 311.832 538.353 312.624 542.05 314.161C545.746 315.698 549.104 317.948 551.931 320.783C554.758 323.619 556.999 326.984 558.525 330.686C560.051 334.388 560.833 338.355 560.825 342.359C560.825 359.163 547.188 372.89 530.386 372.89C522.291 372.89 514.527 369.674 508.803 363.948C503.079 358.222 499.863 350.457 499.863 342.359C499.863 334.262 503.079 326.496 508.803 320.77C514.527 315.045 522.291 311.828 530.386 311.828V311.828ZM530.386 312.632C546.783 312.632 560.013 325.949 560.013 342.354C560.013 358.759 546.789 372.075 530.386 372.075C522.506 372.075 514.949 368.944 509.377 363.371C503.805 357.798 500.675 350.239 500.675 342.357C500.675 334.475 503.805 326.915 509.377 321.342C514.949 315.769 522.506 312.638 530.386 312.638V312.632Z" fill="black"/>
<path fill-rule="evenodd" clip-rule="evenodd" d="M530.385 312.477C536.293 312.478 542.069 314.231 546.981 317.514C551.893 320.798 555.722 325.465 557.983 330.926C560.243 336.386 560.835 342.394 559.682 348.191C558.529 353.987 555.683 359.312 551.505 363.491C547.327 367.669 542.004 370.515 536.209 371.668C530.414 372.821 524.408 372.229 518.949 369.967C513.49 367.705 508.825 363.875 505.542 358.961C502.26 354.047 500.508 348.27 500.508 342.359C500.513 334.435 503.663 326.838 509.265 321.235C514.867 315.632 522.463 312.482 530.385 312.477V312.477ZM530.545 314.099C538.056 314.106 545.257 317.093 550.568 322.405C555.88 327.717 558.867 334.919 558.876 342.432C558.876 358.022 546.131 370.77 530.545 370.77C523.079 370.698 515.943 367.68 510.689 362.373C505.435 357.066 502.488 349.899 502.488 342.431C502.488 334.962 505.435 327.795 510.689 322.488C515.943 317.181 523.079 314.163 530.545 314.091V314.099Z" fill="#B4B5B5"/>
<path fill-rule="evenodd" clip-rule="evenodd" d="M530.385 344.142C530.859 344.142 531.313 343.954 531.647 343.619C531.982 343.284 532.17 342.83 532.17 342.357C532.17 341.883 531.982 341.429 531.647 341.094C531.313 340.76 530.859 340.572 530.385 340.572C530.143 340.558 529.9 340.595 529.672 340.678C529.444 340.762 529.235 340.891 529.059 341.058C528.882 341.225 528.742 341.427 528.646 341.65C528.55 341.873 528.5 342.114 528.5 342.357C528.5 342.6 528.55 342.84 528.646 343.064C528.742 343.287 528.882 343.488 529.059 343.655C529.235 343.822 529.444 343.952 529.672 344.035C529.9 344.119 530.143 344.155 530.385 344.142V344.142Z" fill="#0F0C0F"/>
<path fill-rule="evenodd" clip-rule="evenodd" d="M427.695 309.713C445.716 309.713 460.246 324.33 460.246 342.359C460.246 360.389 445.716 375 427.695 375C419.04 375 410.739 371.561 404.619 365.439C398.499 359.317 395.061 351.014 395.061 342.357C395.061 333.699 398.499 325.396 404.619 319.274C410.739 313.153 419.04 309.713 427.695 309.713V309.713ZM427.695 311.828C431.698 311.832 435.662 312.625 439.358 314.161C443.055 315.698 446.413 317.948 449.24 320.784C452.067 323.619 454.308 326.984 455.834 330.686C457.36 334.388 458.142 338.355 458.134 342.359C458.134 359.164 444.497 372.891 427.695 372.891C419.6 372.891 411.836 369.674 406.112 363.948C400.388 358.222 397.172 350.457 397.172 342.359C397.172 334.262 400.388 326.496 406.112 320.771C411.836 315.045 419.6 311.828 427.695 311.828V311.828Z" fill="black"/>
<path fill-rule="evenodd" clip-rule="evenodd" d="M427.127 346.578C427.881 346.578 428.619 346.355 429.247 345.935C429.874 345.515 430.364 344.919 430.652 344.222C430.941 343.524 431.016 342.756 430.869 342.016C430.722 341.275 430.358 340.595 429.824 340.061C429.29 339.528 428.61 339.164 427.869 339.017C427.129 338.87 426.362 338.946 425.664 339.236C424.967 339.525 424.371 340.015 423.952 340.643C423.533 341.271 423.31 342.009 423.311 342.764C423.31 343.265 423.409 343.762 423.6 344.225C423.792 344.688 424.073 345.109 424.428 345.463C424.782 345.817 425.203 346.098 425.666 346.29C426.129 346.481 426.625 346.579 427.127 346.578V346.578Z" fill="#0F0C0F"/>
<path fill-rule="evenodd" clip-rule="evenodd" d="M427.694 311.828C431.698 311.832 435.661 312.624 439.358 314.161C443.055 315.698 446.413 317.948 449.24 320.783C452.067 323.619 454.307 326.984 455.833 330.686C457.36 334.388 458.141 338.355 458.134 342.359C458.134 359.163 444.497 372.89 427.694 372.89C419.599 372.89 411.836 369.674 406.112 363.948C400.388 358.222 397.172 350.457 397.172 342.359C397.172 334.262 400.388 326.496 406.112 320.77C411.836 315.045 419.599 311.828 427.694 311.828V311.828ZM427.694 312.632C433.57 312.632 439.314 314.375 444.2 317.64C449.086 320.905 452.894 325.546 455.143 330.976C457.392 336.406 457.98 342.381 456.835 348.146C455.689 353.911 452.86 359.206 448.706 363.363C444.551 367.519 439.258 370.35 433.496 371.498C427.733 372.646 421.759 372.058 416.33 369.81C410.901 367.562 406.26 363.754 402.995 358.868C399.729 353.982 397.985 348.237 397.984 342.359C397.987 334.478 401.119 326.921 406.69 321.348C412.261 315.775 419.816 312.642 427.694 312.638V312.632Z" fill="black"/>
<path fill-rule="evenodd" clip-rule="evenodd" d="M427.694 312.477C433.603 312.477 439.379 314.23 444.291 317.513C449.204 320.797 453.033 325.464 455.294 330.924C457.555 336.384 458.147 342.393 456.994 348.189C455.842 353.986 452.996 359.31 448.818 363.49C444.641 367.669 439.317 370.515 433.522 371.668C427.727 372.821 421.721 372.229 416.262 369.967C410.803 367.706 406.138 363.875 402.855 358.961C399.572 354.047 397.82 348.27 397.82 342.359C397.827 334.436 400.976 326.839 406.577 321.236C412.178 315.634 419.773 312.483 427.694 312.477V312.477ZM427.855 314.099C433.459 314.098 438.938 315.76 443.598 318.874C448.258 321.989 451.89 326.415 454.034 331.594C456.179 336.773 456.74 342.472 455.646 347.97C454.553 353.468 451.854 358.518 447.89 362.482C443.927 366.446 438.878 369.144 433.381 370.237C427.885 371.33 422.187 370.768 417.01 368.622C411.833 366.475 407.408 362.842 404.296 358.18C401.183 353.518 399.523 348.038 399.525 342.432C399.522 338.71 400.253 335.024 401.676 331.585C403.099 328.146 405.186 325.021 407.817 322.39C410.449 319.758 413.573 317.672 417.011 316.249C420.449 314.826 424.134 314.096 427.855 314.099V314.099Z" fill="#B4B5B5"/>
<path fill-rule="evenodd" clip-rule="evenodd" d="M530.386 342.359C530.386 342.359 527.382 340.084 522.834 332.369C518.287 324.655 516.585 320.433 515.934 319.457C515.61 318.889 514.473 315.643 513.661 313.292C501.404 319.95 495.072 334.484 497.583 349.264C497.583 349.264 497.907 349.752 497.987 350.969C498.068 352.186 497.258 354.301 497.183 354.545C491.336 330.753 503.028 318.004 513.262 312.075C513.018 311.18 512.855 310.614 512.855 310.614L511.962 311.016L511.635 310.287L512.287 310.043L510.907 307.609C510.907 307.609 502.138 315.404 501.259 316.785C500.364 318.246 495.412 324.094 494.112 327.097C492.735 330.104 491.352 333.838 491.516 337.896C491.596 341.955 491.352 350.321 491.352 350.321C491.352 350.321 483.479 349.996 475.767 349.672V349.184C475.782 348.497 475.661 347.814 475.409 347.175C475.157 346.535 474.78 345.953 474.299 345.462C473.819 344.97 473.246 344.58 472.612 344.313C471.979 344.046 471.299 343.909 470.612 343.909C469.925 343.909 469.245 344.046 468.612 344.313C467.979 344.58 467.405 344.97 466.925 345.462C466.445 345.953 466.068 346.535 465.816 347.175C465.564 347.814 465.442 348.497 465.458 349.184V349.264C463.582 349.184 462.21 349.104 461.398 349.023C456.69 348.779 426.328 344.23 426.328 344.23L425.987 343.504C425.987 343.504 427.451 344.15 427.936 343.745C428.421 343.341 428.18 342.204 427.611 342.04C427.238 341.947 426.848 341.947 426.475 342.04C426.475 342.04 425.583 341.472 425.746 340.58C425.975 339.888 426.244 339.209 426.55 338.548L416.635 310.373C415.499 310.938 412.007 312.726 410.472 313.619C408.684 314.758 405.112 317.436 402.92 319.953C400.728 322.39 397.807 328.075 397.644 328.319C397.483 328.643 396.751 330.024 397.075 330.107C397.4 330.268 394.479 331.983 394.479 331.983L396.02 328.41C396.02 328.41 394.071 329.059 394.071 328.086C394.071 327.03 393.911 326.461 394.071 324.837C394.315 323.293 394.64 322.961 395.535 322.961C396.339 323.041 397.156 322.717 397.41 323.041C397.665 323.365 397.41 324.505 397.981 324.019C398.466 323.529 400.902 318.9 404.311 315.978C406.774 313.839 409.471 311.987 412.35 310.456C413.569 309.807 415.274 308.915 416.003 308.51L415.274 306.315L413.813 307.119C413.813 307.119 413.406 306.794 413.406 305.985C413.406 305.175 413.326 303.789 413.326 303.789C413.326 303.789 410.241 303.87 410.241 303.709C410.161 303.546 409.997 303.141 410.161 302.98C410.405 302.816 412.757 302.245 412.757 302.245H424.771C424.771 302.245 425.663 301.441 426.475 301.441H435.318C435.887 301.524 435.482 302.01 435.97 302.09C436.535 302.17 445.467 302.417 445.467 302.417L445.711 303.221L446.683 300.868C446.683 300.868 447.576 300.704 447.251 302.002C446.847 303.221 446.847 303.789 446.279 304.033C445.791 304.275 441.326 304.438 441.326 304.438L454.725 314.423L456.513 312.48C456.513 312.48 455.213 308.663 454.564 307.199C453.913 305.821 453.345 303.382 453.345 303.382C453.345 303.382 452.289 303.953 452.129 303.465C451.885 302.897 451.325 302.409 452.209 302.082C453.184 301.688 455.945 300.616 456.43 300.945C456.837 301.27 457.081 301.75 456.837 301.918C456.624 302.086 456.372 302.197 456.105 302.243L465.86 328.635C465.86 328.635 472.272 329.12 478.455 331.637C484.543 334.157 487.871 335.698 487.871 335.698C487.871 335.698 487.547 329.608 492.743 321.248C497.936 312.962 508.977 301.68 508.977 301.68L505.242 290.8C505.085 290.8 504.933 290.753 504.803 290.667C504.673 290.58 504.572 290.456 504.513 290.312C504.352 289.827 504.513 289.663 504.513 289.663L507.76 288.202C507.893 288.18 508.028 288.191 508.155 288.233C508.282 288.276 508.397 288.349 508.489 288.446C508.653 288.851 508.246 289.583 508.246 289.583L515.066 308.421C515.066 308.421 515.634 309.314 516.202 310.451C520.91 308.175 524.806 307.365 525.862 307.526C525.862 307.526 524.402 309.153 523.67 309.963C521.315 310.365 519.004 310.993 516.77 311.839C517.909 314.841 520.993 324.668 522.129 326.453C523.349 328.482 531.222 341.636 531.222 341.636C531.222 341.636 531.468 342.708 530.418 342.37L530.386 342.359ZM435.811 309.553L435.728 310.121C442.144 311.745 447.096 315.158 451.317 319.457L451.721 318.889C447.257 314.6 442.224 311.174 435.811 309.553ZM417.466 310.121L417.71 310.77L418.682 310.365L418.358 309.797L417.466 310.121ZM419.17 309.633L419.334 310.121C424.118 308.92 429.111 308.809 433.944 309.797V309.148C429.038 308.297 424.01 308.462 419.17 309.633V309.633ZM428.26 334.725L432.899 314.503C431.233 314.244 429.551 314.109 427.866 314.099C425.623 314.089 423.387 314.331 421.199 314.822L428.26 334.725ZM430.615 336.602C430.615 336.602 429.723 337.087 429.884 335.953C430.047 334.894 433.78 318.575 434.595 314.919C440.876 316.435 446.44 320.078 450.341 325.231C450.341 325.314 449.773 326.858 449.773 327.426C449.749 327.965 449.695 328.502 449.612 329.035C449.612 329.035 441.98 330.415 430.615 336.588V336.602ZM433.215 337.331C433.215 337.331 434.348 337.006 437.108 336.926C439.869 336.846 455.701 337.25 455.701 337.25L454.897 333.921C454.897 333.921 452.949 333.758 452.949 334.165C452.868 334.487 452.868 335.299 452.145 334.894C451.341 334.487 450.925 334.165 450.925 333.758C450.925 333.35 450.585 333.264 450.585 333.021C450.585 332.777 450.505 332.94 450.665 332.53C450.826 332.12 451.156 331.233 451.156 331.233C444.939 332.499 438.906 334.545 433.201 337.323L433.215 337.331ZM432.483 340.904C432.514 341.052 432.583 341.189 432.682 341.303C432.782 341.416 432.909 341.502 433.051 341.553C433.539 341.716 445.148 343.097 449.532 343.828C453.819 344.557 456.025 344.962 456.025 344.962C456.079 344.778 456.106 344.586 456.105 344.394V343.665C453.632 342.579 451.001 341.891 448.313 341.628C444.025 341.223 432.483 340.899 432.483 340.899V340.904ZM414.866 305.819L414.14 306.143L414.057 303.626H414.789L414.866 305.819ZM415.598 303.706L416.166 303.626L417.954 308.089L417.058 308.499L415.598 303.706ZM418.696 307.928L417.316 304.192C417.316 304.192 418.208 304.111 418.615 304.111C418.94 304.111 419.184 303.219 420.644 303.706C422.024 304.111 422.268 304.272 422.916 304.111C423.648 303.95 423.08 303.543 425.272 303.543C427.464 303.543 435.187 303.462 435.187 303.462L434.292 307.521C434.292 307.521 428.204 305.738 418.707 307.928H418.696ZM436.149 307.928L437.122 303.95C437.122 303.95 438.585 304.031 439.317 304.435C440.046 304.76 450.036 312.397 450.762 312.882C451.389 313.37 454.069 316.128 454.069 316.128C454.069 316.128 453.176 316.452 453.093 316.696C452.996 316.989 452.915 317.287 452.852 317.589C452.852 317.589 446.276 310.121 436.128 307.939L436.149 307.928ZM460.747 330.664H462.856L465.699 338.052H462.518L460.747 330.664ZM454.069 318.889C454.069 318.889 455.041 318.972 455.041 318.567C455.033 318.24 455.006 317.913 454.961 317.589L456.99 314.343L461.618 328.147H459.833C459.833 328.147 456.748 321.569 454.069 318.889ZM468.923 338.379L466.57 330.989C466.57 330.989 472.414 331.72 476.962 333.589C481.587 335.465 482.97 336.025 483.699 336.43C484.428 336.835 487.432 338.379 487.432 338.379L487.515 346.174H480.279C480.279 346.174 479.304 338.459 468.912 338.379H468.923Z" fill="#F4D262"/>
<path fill-rule="evenodd" clip-rule="evenodd" d="M480.379 350.235C480.054 352.721 478.795 354.991 476.857 356.583C474.92 358.174 472.449 358.968 469.947 358.802C467.445 358.637 465.1 357.524 463.389 355.691C461.677 353.859 460.728 351.442 460.734 348.934C460.709 347.998 460.846 347.064 461.138 346.174C454.321 340.976 440.928 341.3 432.484 340.896L427.928 340.488C427.928 340.488 427.363 339.435 428.579 339.03C429.796 338.539 432.636 336.998 434.912 336.837C440.271 336.593 466.895 337.242 472.251 338.714C474.127 339.204 476.882 340.18 478.415 342.198C480.039 344.308 480.291 345.932 480.291 345.932C480.291 345.932 480.695 348.937 480.371 350.237L480.379 350.235ZM470.555 343.981C471.575 343.972 472.574 344.267 473.427 344.826C474.28 345.386 474.947 346.186 475.345 347.126C475.743 348.065 475.853 349.101 475.663 350.103C475.472 351.105 474.988 352.028 474.273 352.755C473.558 353.482 472.643 353.981 471.644 354.188C470.646 354.395 469.608 354.301 468.663 353.918C467.717 353.535 466.907 352.881 466.334 352.037C465.76 351.193 465.45 350.198 465.442 349.178C465.433 348.5 465.559 347.827 465.812 347.198C466.064 346.569 466.439 345.996 466.915 345.513C467.39 345.03 467.957 344.645 468.582 344.382C469.206 344.119 469.877 343.983 470.555 343.981V343.981Z" fill="#9B7642"/>
<path fill-rule="evenodd" clip-rule="evenodd" d="M473.966 345.201C474.502 345.644 474.943 346.191 475.263 346.809C474.21 347.538 473.071 348.353 473.071 348.841C472.991 349.407 474.371 350.138 475.51 350.717C475.263 351.303 474.934 351.851 474.534 352.344C473.731 351.857 472.83 351.369 472.506 351.208C471.855 350.798 471.287 351.125 470.882 351.773C470.718 352.181 470.638 353.234 470.718 354.21H470.638C469.847 354.195 469.07 354.001 468.366 353.642L468.931 350.798C469.011 350.637 468.77 350.149 468.446 349.994C468.202 349.911 466.822 349.83 465.605 349.83V348.289C466.373 348.215 467.133 348.078 467.878 347.881C468.77 347.637 468.682 347.554 468.682 346.908C468.682 346.581 468.197 345.608 467.792 344.877C468.538 344.365 469.404 344.057 470.306 343.984C470.55 345.123 471.037 346.581 471.362 346.664C471.605 346.748 472.905 345.935 473.961 345.206L473.966 345.201Z" fill="#3E3938"/>
<path fill-rule="evenodd" clip-rule="evenodd" d="M484.192 347.793C484.192 347.793 485.736 345.683 487.116 346.413C488.496 347.142 489.957 348.2 490.688 348.2C491.337 348.281 491.988 349.254 491.824 349.822C491.661 350.471 490.688 351.447 489.632 351.447C488.576 351.447 488.576 351.122 488.008 351.366C487.44 351.61 485.168 352.17 484.356 351.447C483.627 350.642 483.788 349.986 483.552 349.986C483.316 349.986 470.394 350.473 470.394 350.473C469.011 350.393 468.687 348.04 470.394 347.956C474.778 348.203 479.974 347.876 484.192 347.796V347.793Z" fill="black"/>
<path fill-rule="evenodd" clip-rule="evenodd" d="M453.02 301.758L449.204 291.687C449.124 291.363 449.204 290.306 448.88 290.306C448.556 290.306 446.2 290.875 445.632 290.55C444.984 290.226 444.416 289.009 444.416 289.009C444.416 289.009 441.412 288.285 440.6 288.285C439.707 288.205 438.724 288.124 438.724 288.124C438.724 288.124 437.507 284.712 439.78 283.983C442.052 283.254 447.897 283.495 450.332 283.495C452.771 283.415 460.481 281.707 462.185 283.088C463.889 284.388 463.648 285.605 463.648 285.605C463.648 285.605 460.805 286.012 458.94 286.497C457.075 286.983 453.5 287.878 452.776 288.205C452.053 288.532 450.901 289.339 451.233 289.91C451.557 290.558 452.286 292.427 452.937 293.968C453.505 295.188 454.966 299.246 455.534 300.953C454.676 301.158 453.835 301.427 453.018 301.758H453.02Z" fill="#07193B"/>
<path fill-rule="evenodd" clip-rule="evenodd" d="M507.493 288.285L505.617 284.063C505.617 284.063 508.458 279.354 508.621 279.354C508.702 279.354 510.082 278.55 510.325 278.054C510.65 277.649 511.057 276.673 510.974 276.349C510.891 276.025 510.65 275.861 510.65 275.293C510.569 274.724 511.706 271.232 511.869 270.664C512.032 270.095 512.517 268.307 512.517 267.093C512.437 265.873 511.622 264.737 510.489 264.656C509.433 264.493 508.214 264.656 508.133 264.737C507.973 264.817 507.405 265.061 507.405 265.061C507.405 265.061 506.601 264.737 506.349 264.817C506.093 264.935 505.823 265.018 505.545 265.061C505.464 265.061 505.22 264.576 504.741 264.656C504.173 264.817 504.009 264.981 503.937 264.9C503.865 264.82 504.017 263.925 503.288 264.005C502.637 264.088 499.716 265.142 499.309 265.386C498.904 265.713 499.309 266.278 499.229 266.522C499.229 266.686 499.145 267.254 498.336 267.578C497.527 267.903 493.781 269.122 493.628 269.366C493.475 269.61 493.708 269.61 493.301 269.934C492.977 270.178 489.568 271.639 489.568 271.639C489.568 271.639 489.163 272.288 489.729 273.424C490.216 274.644 490.868 274.564 490.868 274.564C490.868 274.564 494.113 273.02 496.141 272.532C498.092 272.044 499.797 270.583 499.96 270.907C500.204 271.232 499.96 271.639 500.284 272.207C500.559 272.584 500.964 272.845 501.421 272.939C501.664 272.856 500.204 273.424 499.389 273.832C498.497 274.237 496.956 275.537 496.793 276.429C496.629 277.322 496.712 277.893 497.28 277.893C497.848 277.893 497.929 277.566 497.765 277.161C497.524 276.837 497.361 276.673 497.929 276.268C498.417 275.861 499.145 274.805 500.445 274.644C501.745 274.483 503.449 274.481 503.854 274.076C504.181 273.668 505.073 272.695 505.397 272.368C505.805 271.964 506.938 271.803 507.021 271.72C507.185 271.639 504.098 274.564 504.017 274.885C503.854 275.293 503.773 276.349 504.098 276.512C504.425 276.754 505.073 277.161 505.073 276.593C505.073 276.025 504.749 275.861 505.153 274.968C505.558 274.076 506.938 272.939 506.938 272.939C506.938 272.939 507.102 274.317 506.858 274.564C506.697 274.805 505.965 275.293 505.965 275.861C505.965 276.429 506.29 276.593 505.885 277.405C505.48 278.217 504.181 280.086 504.181 280.086C504.181 280.086 503.693 279.032 503.288 279.113C502.964 279.113 501.908 279.356 501.908 280.005C501.908 280.573 504.829 288.047 504.829 288.047C504.829 288.047 504.505 288.612 504.585 288.851C504.585 288.931 504.749 289.256 504.829 289.5L507.493 288.285Z" fill="#6E6F71"/>
<path fill-rule="evenodd" clip-rule="evenodd" d="M516.177 310.445C516.177 309.392 516.26 307.682 516.585 307.116C517.153 306.384 518.208 305.087 518.533 304.516C518.857 303.867 519.264 303.543 519.589 303.626C519.993 303.787 520.886 304.111 520.969 304.516C521.052 304.921 521.293 305.899 521.454 305.982C521.507 306.006 521.564 306.018 521.622 306.019C521.68 306.019 521.738 306.007 521.791 305.985C521.844 305.962 521.893 305.928 521.932 305.886C521.972 305.843 522.002 305.793 522.022 305.738C522.185 305.409 522.349 301.35 522.266 300.458C522.185 299.485 521.462 298.428 521.21 298.581C520.969 298.825 520.969 299.637 520.478 300.042C520.074 300.53 518.369 300.45 517.884 301.181C517.399 301.913 515.529 305.486 515.285 306.215C515.204 306.62 515.121 307.513 515.041 308.325V308.408C515.041 308.408 515.609 309.301 516.177 310.437V310.445Z" fill="black"/>
<path d="M633.639 288.488L633.789 288.536L633.639 288.488Z" fill="url(#paint0_linear_81:655)"/>
<path d="M635.239 363.139L635.148 363.109L635.239 363.139Z" fill="url(#paint1_linear_81:655)"/>
<path d="M633.778 363.097L633.664 363.139L633.778 363.097Z" fill="url(#paint2_linear_81:655)"/>
<path d="M635.131 288.536L635.275 288.488L635.131 288.536Z" fill="url(#paint3_linear_81:655)"/>
<path d="M643.73 285.61C641.561 285.61 639.433 286.71 637.354 287.641C641.056 292.912 643.73 307.985 643.73 325.793C643.73 343.601 641.056 358.668 637.36 363.945C639.433 364.87 641.567 365.976 643.73 365.976C654.387 365.976 664.608 361.743 672.144 354.207C679.68 346.671 683.913 336.45 683.913 325.793C683.913 315.136 679.68 304.915 672.144 297.379C664.608 289.843 654.387 285.61 643.73 285.61V285.61ZM640.857 365.423C640.497 365.297 640.136 365.165 639.782 365.015C650.882 361.054 659.188 345.013 659.188 325.793C659.188 306.573 650.876 290.532 639.782 286.565C640.136 286.421 640.497 286.289 640.857 286.163C650.282 287.672 658.86 292.49 665.053 299.753C671.245 307.016 674.647 316.248 674.647 325.793C674.647 335.338 671.245 344.57 665.053 351.833C658.86 359.096 650.282 363.914 640.857 365.423V365.423Z" fill="#FF7E16"/>
<path d="M631.56 287.665C629.486 286.734 627.353 285.634 625.183 285.634C614.526 285.634 604.305 289.867 596.769 297.403C589.234 304.939 585 315.16 585 325.817C585 336.474 589.234 346.695 596.769 354.231C604.305 361.767 614.526 366 625.183 366C627.359 366 629.486 364.894 631.56 363.969C627.858 358.686 625.183 343.619 625.183 325.817C625.183 308.015 627.858 292.936 631.56 287.665ZM629.156 365.038C628.801 365.189 628.441 365.321 628.086 365.447C618.661 363.938 610.083 359.12 603.891 351.857C597.698 344.594 594.297 335.362 594.297 325.817C594.297 316.272 597.698 307.04 603.891 299.777C610.083 292.514 618.661 287.696 628.086 286.187C628.447 286.313 628.807 286.445 629.162 286.589C618.061 290.556 609.755 306.597 609.755 325.817C609.755 345.037 618.037 361.078 629.132 365.038H629.156Z" fill="#FF7E16"/>
<path d="M635.273 288.489L635.875 288.284L635.273 288.489Z" fill="url(#paint4_linear_81:655)"/>
<path d="M635.149 363.103C634.914 363.031 634.685 362.965 634.463 362.911C634.685 362.965 634.914 363.031 635.149 363.103Z" fill="url(#paint5_linear_81:655)"/>
<path d="M631.561 363.969C632.047 363.752 632.534 363.548 633.009 363.368C632.528 363.548 632.047 363.752 631.561 363.969Z" fill="url(#paint6_linear_81:655)"/>
<path d="M633.665 363.139L633.027 363.356L633.665 363.139Z" fill="url(#paint7_linear_81:655)"/>
<path d="M634.44 362.911C634.211 362.965 633.982 363.025 633.754 363.097C634.007 363.025 634.235 362.965 634.44 362.911Z" fill="url(#paint8_linear_81:655)"/>
<path d="M631.561 287.659C632.041 287.87 632.516 288.074 632.985 288.26C632.516 288.08 632.035 287.876 631.561 287.659Z" fill="url(#paint9_linear_81:655)"/>
<path d="M634.439 288.729C634.662 288.669 634.885 288.609 635.107 288.537C634.909 288.615 634.686 288.669 634.439 288.729Z" fill="url(#paint10_linear_81:655)"/>
<path d="M637.354 287.659C636.879 287.876 636.404 288.08 635.93 288.26C636.404 288.08 636.879 287.876 637.354 287.659Z" fill="url(#paint11_linear_81:655)"/>
<path d="M633.057 288.284L633.658 288.489L633.057 288.284Z" fill="url(#paint12_linear_81:655)"/>
<path d="M637.354 363.969C636.663 363.651 635.955 363.372 635.232 363.133C635.954 363.373 636.662 363.652 637.354 363.969V363.969Z" fill="url(#paint13_linear_81:655)"/>
<path d="M633.789 288.537C634.012 288.609 634.234 288.669 634.463 288.729C634.234 288.669 634.012 288.615 633.789 288.537Z" fill="url(#paint14_linear_81:655)"/>
<path d="M637.353 287.665C636.878 287.875 636.403 288.08 635.928 288.266H635.868L635.267 288.47L635.123 288.518C634.9 288.591 634.678 288.651 634.456 288.711C634.227 288.651 634.005 288.591 633.783 288.518L633.632 288.47L633.031 288.266H632.959C632.49 288.086 632.016 287.881 631.535 287.665C627.833 292.936 625.158 308.009 625.158 325.817C625.158 343.625 627.833 358.686 631.535 363.969C632.022 363.752 632.502 363.548 632.983 363.368L633.62 363.151L633.735 363.109C633.963 363.037 634.191 362.977 634.42 362.923C634.642 362.977 634.87 363.043 635.105 363.115L635.195 363.145C635.917 363.384 636.625 363.663 637.317 363.981C641.013 358.704 643.687 343.631 643.687 325.829C643.687 308.027 641.049 292.936 637.353 287.665Z" fill="url(#paint15_linear_81:655)"/>
<path d="M637.353 287.665C636.878 287.875 636.403 288.08 635.928 288.266H635.868L635.267 288.47L635.123 288.518C634.9 288.591 634.678 288.651 634.456 288.711C634.227 288.651 634.005 288.591 633.783 288.518L633.632 288.47L633.031 288.266H632.959C632.49 288.086 632.016 287.881 631.535 287.665C627.833 292.936 625.158 308.009 625.158 325.817C625.158 343.625 627.833 358.686 631.535 363.969C632.022 363.752 632.502 363.548 632.983 363.368L633.62 363.151L633.735 363.109C633.963 363.037 634.191 362.977 634.42 362.923C634.642 362.977 634.87 363.043 635.105 363.115L635.195 363.145C635.917 363.384 636.625 363.663 637.317 363.981C641.013 358.704 643.687 343.631 643.687 325.829C643.687 308.027 641.049 292.936 637.353 287.665Z" fill="#FF8A16"/>
<path d="M609.732 325.817C609.732 306.585 618.038 290.556 629.139 286.589C628.784 286.445 628.423 286.313 628.063 286.187C618.638 287.696 610.06 292.514 603.867 299.777C597.675 307.04 594.273 316.272 594.273 325.817C594.273 335.361 597.675 344.593 603.867 351.856C610.06 359.119 618.638 363.938 628.063 365.447C628.417 365.321 628.778 365.189 629.133 365.038C618.038 361.078 609.732 345.037 609.732 325.817Z" fill="url(#paint16_linear_81:655)"/>
<path d="M609.732 325.817C609.732 306.585 618.038 290.556 629.139 286.589C628.784 286.445 628.423 286.313 628.063 286.187C618.638 287.696 610.06 292.514 603.867 299.777C597.675 307.04 594.273 316.272 594.273 325.817C594.273 335.361 597.675 344.593 603.867 351.856C610.06 359.119 618.638 363.938 628.063 365.447C628.417 365.321 628.778 365.189 629.133 365.038C618.038 361.078 609.732 345.037 609.732 325.817Z" fill="#FF8A16"/>
<path d="M640.857 286.211C640.496 286.337 640.136 286.469 639.781 286.614C650.876 290.58 659.188 306.621 659.188 325.841C659.188 345.061 650.882 361.102 639.781 365.063C640.136 365.213 640.496 365.345 640.857 365.471C650.282 363.962 658.86 359.144 665.052 351.881C671.245 344.618 674.646 335.386 674.646 325.841C674.646 316.297 671.245 307.064 665.052 299.801C658.86 292.538 650.282 287.72 640.857 286.211V286.211Z" fill="url(#paint17_linear_81:655)"/>
<path d="M640.857 286.211C640.496 286.337 640.136 286.469 639.781 286.614C650.876 290.58 659.188 306.621 659.188 325.841C659.188 345.061 650.882 361.102 639.781 365.063C640.136 365.213 640.496 365.345 640.857 365.471C650.282 363.962 658.86 359.144 665.052 351.881C671.245 344.618 674.646 335.386 674.646 325.841C674.646 316.297 671.245 307.064 665.052 299.801C658.86 292.538 650.282 287.72 640.857 286.211V286.211Z" fill="#FF8A16"/>
<path d="M627.828 271.144C627.828 271.144 632.51 280.922 628.291 287.148C628.291 287.148 635.04 291.307 640.72 286.601C640.696 286.601 639.752 269.256 627.828 271.144Z" fill="#814D23"/>
<path d="M695.816 309.518L695.924 309.552L695.816 309.518Z" fill="url(#paint18_linear_81:655)"/>
<path d="M696.959 362.952L696.895 362.931L696.959 362.952Z" fill="url(#paint19_linear_81:655)"/>
<path d="M695.914 362.922L695.832 362.952L695.914 362.922Z" fill="url(#paint20_linear_81:655)"/>
<path d="M696.883 309.552L696.986 309.518L696.883 309.552Z" fill="url(#paint21_linear_81:655)"/>
<path d="M703.039 307.458C701.486 307.458 699.963 308.245 698.475 308.912C701.125 312.684 703.039 323.474 703.039 336.22C703.039 348.967 701.125 359.752 698.479 363.529C699.963 364.191 701.49 364.983 703.039 364.983C710.667 364.983 717.983 361.953 723.377 356.558C728.771 351.164 731.802 343.849 731.802 336.22C731.802 328.592 728.771 321.276 723.377 315.882C717.983 310.488 710.667 307.458 703.039 307.458V307.458ZM700.983 364.587C700.725 364.497 700.466 364.402 700.213 364.295C708.158 361.46 714.103 349.978 714.103 336.22C714.103 322.463 708.154 310.981 700.213 308.142C700.466 308.038 700.725 307.944 700.983 307.853C707.729 308.933 713.869 312.382 718.301 317.581C722.734 322.78 725.169 329.388 725.169 336.22C725.169 343.052 722.734 349.66 718.301 354.859C713.869 360.058 707.729 363.507 700.983 364.587V364.587Z" fill="#FF7E16"/>
<path d="M694.327 308.929C692.843 308.262 691.316 307.475 689.763 307.475C682.134 307.475 674.818 310.505 669.424 315.899C664.03 321.293 661 328.609 661 336.237C661 343.866 664.03 351.182 669.424 356.576C674.818 361.97 682.134 365 689.763 365C691.32 365 692.843 364.208 694.327 363.546C691.677 359.765 689.763 348.98 689.763 336.237C689.763 323.495 691.677 312.701 694.327 308.929ZM692.606 364.312C692.352 364.419 692.094 364.514 691.841 364.604C685.095 363.524 678.954 360.075 674.522 354.876C670.089 349.677 667.654 343.069 667.654 336.237C667.654 329.405 670.089 322.797 674.522 317.598C678.954 312.4 685.095 308.951 691.841 307.87C692.099 307.961 692.357 308.055 692.611 308.159C684.665 310.998 678.72 322.48 678.72 336.237C678.72 349.995 684.648 361.477 692.589 364.312H692.606Z" fill="#FF7E16"/>
<path d="M696.986 309.518L697.417 309.372L696.986 309.518Z" fill="url(#paint22_linear_81:655)"/>
<path d="M696.895 362.927C696.727 362.875 696.563 362.828 696.404 362.789C696.563 362.828 696.727 362.875 696.895 362.927Z" fill="url(#paint23_linear_81:655)"/>
<path d="M694.328 363.546C694.677 363.391 695.025 363.245 695.365 363.116C695.021 363.245 694.677 363.391 694.328 363.546Z" fill="url(#paint24_linear_81:655)"/>
<path d="M695.833 362.952L695.377 363.107L695.833 362.952Z" fill="url(#paint25_linear_81:655)"/>
<path d="M696.387 362.789C696.223 362.828 696.06 362.871 695.896 362.922C696.077 362.871 696.241 362.828 696.387 362.789Z" fill="url(#paint26_linear_81:655)"/>
<path d="M694.328 308.924C694.672 309.075 695.012 309.221 695.348 309.355C695.012 309.225 694.668 309.079 694.328 308.924Z" fill="url(#paint27_linear_81:655)"/>
<path d="M696.387 309.69C696.546 309.647 696.705 309.604 696.864 309.553C696.722 309.609 696.563 309.647 696.387 309.69Z" fill="url(#paint28_linear_81:655)"/>
<path d="M698.475 308.924C698.135 309.079 697.795 309.225 697.455 309.355C697.795 309.225 698.135 309.079 698.475 308.924Z" fill="url(#paint29_linear_81:655)"/>
<path d="M695.398 309.372L695.829 309.518L695.398 309.372Z" fill="url(#paint30_linear_81:655)"/>
<path d="M698.474 363.546C697.979 363.318 697.472 363.119 696.955 362.948C697.472 363.12 697.979 363.319 698.474 363.546V363.546Z" fill="url(#paint31_linear_81:655)"/>
<path d="M695.922 309.553C696.081 309.604 696.24 309.647 696.404 309.69C696.24 309.647 696.081 309.609 695.922 309.553Z" fill="url(#paint32_linear_81:655)"/>
<path d="M698.475 308.929C698.135 309.079 697.795 309.226 697.455 309.359H697.412L696.982 309.505L696.879 309.54C696.72 309.591 696.56 309.634 696.401 309.677C696.238 309.634 696.079 309.591 695.919 309.54L695.812 309.505L695.382 309.359H695.33C694.994 309.23 694.655 309.084 694.31 308.929C691.66 312.701 689.746 323.491 689.746 336.237C689.746 348.984 691.66 359.765 694.31 363.546C694.659 363.391 695.003 363.245 695.347 363.116L695.803 362.961L695.885 362.931C696.048 362.879 696.212 362.836 696.375 362.797C696.535 362.836 696.698 362.883 696.866 362.935L696.93 362.957C697.447 363.127 697.954 363.327 698.449 363.555C701.095 359.777 703.009 348.988 703.009 336.246C703.009 323.504 701.12 312.701 698.475 308.929Z" fill="url(#paint33_linear_81:655)"/>
<path d="M698.475 308.929C698.135 309.079 697.795 309.226 697.455 309.359H697.412L696.982 309.505L696.879 309.54C696.72 309.591 696.56 309.634 696.401 309.677C696.238 309.634 696.079 309.591 695.919 309.54L695.812 309.505L695.382 309.359H695.33C694.994 309.23 694.655 309.084 694.31 308.929C691.66 312.701 689.746 323.491 689.746 336.237C689.746 348.984 691.66 359.765 694.31 363.546C694.659 363.391 695.003 363.245 695.347 363.116L695.803 362.961L695.885 362.931C696.048 362.879 696.212 362.836 696.375 362.797C696.535 362.836 696.698 362.883 696.866 362.935L696.93 362.957C697.447 363.127 697.954 363.327 698.449 363.555C701.095 359.777 703.009 348.988 703.009 336.246C703.009 323.504 701.12 312.701 698.475 308.929Z" fill="#FF8A16"/>
<path d="M678.702 336.237C678.702 322.471 684.647 310.998 692.593 308.159C692.339 308.056 692.081 307.961 691.823 307.871C685.077 308.951 678.937 312.4 674.504 317.599C670.071 322.797 667.637 329.406 667.637 336.237C667.637 343.069 670.071 349.678 674.504 354.876C678.937 360.075 685.077 363.524 691.823 364.604C692.077 364.514 692.335 364.419 692.588 364.312C684.647 361.477 678.702 349.995 678.702 336.237Z" fill="url(#paint34_linear_81:655)"/>
<path d="M678.702 336.237C678.702 322.471 684.647 310.998 692.593 308.159C692.339 308.056 692.081 307.961 691.823 307.871C685.077 308.951 678.937 312.4 674.504 317.599C670.071 322.797 667.637 329.406 667.637 336.237C667.637 343.069 670.071 349.678 674.504 354.876C678.937 360.075 685.077 363.524 691.823 364.604C692.077 364.514 692.335 364.419 692.588 364.312C684.647 361.477 678.702 349.995 678.702 336.237Z" fill="#FF8A16"/>
<path d="M700.983 307.888C700.725 307.978 700.467 308.073 700.213 308.176C708.154 311.015 714.104 322.497 714.104 336.255C714.104 350.012 708.159 361.494 700.213 364.329C700.467 364.437 700.725 364.531 700.983 364.621C707.729 363.541 713.869 360.092 718.302 354.894C722.734 349.695 725.169 343.086 725.169 336.255C725.169 329.423 722.734 322.814 718.302 317.616C713.869 312.417 707.729 308.968 700.983 307.888V307.888Z" fill="url(#paint35_linear_81:655)"/>
<path d="M700.983 307.888C700.725 307.978 700.467 308.073 700.213 308.176C708.154 311.015 714.104 322.497 714.104 336.255C714.104 350.012 708.159 361.494 700.213 364.329C700.467 364.437 700.725 364.531 700.983 364.621C707.729 363.541 713.869 360.092 718.302 354.894C722.734 349.695 725.169 343.086 725.169 336.255C725.169 329.423 722.734 322.814 718.302 317.616C713.869 312.417 707.729 308.968 700.983 307.888V307.888Z" fill="#FF8A16"/>
<path d="M691.654 297.103C691.654 297.103 695.005 304.102 691.986 308.559C691.986 308.559 696.817 311.536 700.882 308.167C700.865 308.167 700.189 295.752 691.654 297.103Z" fill="#814D23"/>
<defs>
<linearGradient id="paint0_linear_81:655" x1="647.184" y1="292.234" x2="671.834" y2="292.234" gradientUnits="userSpaceOnUse">
<stop stop-color="#FFAA05"/>
<stop offset="1" stop-color="#FFC898"/>
</linearGradient>
<linearGradient id="paint1_linear_81:655" x1="643.216" y1="369.184" x2="658.127" y2="369.184" gradientUnits="userSpaceOnUse">
<stop stop-color="#FFAA05"/>
<stop offset="1" stop-color="#FFC898"/>
</linearGradient>
<linearGradient id="paint2_linear_81:655" x1="644.052" y1="371.602" x2="662.593" y2="371.602" gradientUnits="userSpaceOnUse">
<stop stop-color="#FFAA05"/>
<stop offset="1" stop-color="#FFC898"/>
</linearGradient>
<linearGradient id="paint3_linear_81:655" x1="648.111" y1="292.234" x2="671.824" y2="292.234" gradientUnits="userSpaceOnUse">
<stop stop-color="#FFAA05"/>
<stop offset="1" stop-color="#FFC898"/>
</linearGradient>
<linearGradient id="paint4_linear_81:655" x1="594.183" y1="288.386" x2="674.734" y2="288.386" gradientUnits="userSpaceOnUse">
<stop stop-color="#FF7B0D"/>
<stop offset="1" stop-color="#FFAA05"/>
</linearGradient>
<linearGradient id="paint5_linear_81:655" x1="706.651" y1="401.752" x2="798.218" y2="401.752" gradientUnits="userSpaceOnUse">
<stop stop-color="#FF7B0D"/>
<stop offset="1" stop-color="#FFAA05"/>
</linearGradient>
<linearGradient id="paint6_linear_81:655" x1="783.876" y1="485.299" x2="977.601" y2="485.299" gradientUnits="userSpaceOnUse">
<stop stop-color="#FF7B0D"/>
<stop offset="1" stop-color="#FFAA05"/>
</linearGradient>
<linearGradient id="paint7_linear_81:655" x1="699.927" y1="406.921" x2="785.523" y2="406.921" gradientUnits="userSpaceOnUse">
<stop stop-color="#FF7B0D"/>
<stop offset="1" stop-color="#FFAA05"/>
</linearGradient>
<linearGradient id="paint8_linear_81:655" x1="705.819" y1="400.537" x2="797.633" y2="400.537" gradientUnits="userSpaceOnUse">
<stop stop-color="#FF7B0D"/>
<stop offset="1" stop-color="#FFAA05"/>
</linearGradient>
<linearGradient id="paint9_linear_81:655" x1="781.362" y1="333.882" x2="971.859" y2="333.882" gradientUnits="userSpaceOnUse">
<stop stop-color="#FF7B0D"/>
<stop offset="1" stop-color="#FFAA05"/>
</linearGradient>
<linearGradient id="paint10_linear_81:655" x1="704.701" y1="303.557" x2="793.913" y2="303.557" gradientUnits="userSpaceOnUse">
<stop stop-color="#FF7B0D"/>
<stop offset="1" stop-color="#FFAA05"/>
</linearGradient>
<linearGradient id="paint11_linear_81:655" x1="785.647" y1="333.882" x2="976.287" y2="333.882" gradientUnits="userSpaceOnUse">
<stop stop-color="#FF7B0D"/>
<stop offset="1" stop-color="#FFAA05"/>
</linearGradient>
<linearGradient id="paint12_linear_81:655" x1="696.362" y1="304.159" x2="776.714" y2="304.159" gradientUnits="userSpaceOnUse">
<stop stop-color="#FF7B0D"/>
<stop offset="1" stop-color="#FFAA05"/>
</linearGradient>
<linearGradient id="paint13_linear_81:655" x1="858.398" y1="532.451" x2="1142.03" y2="532.451" gradientUnits="userSpaceOnUse">
<stop stop-color="#FF7B0D"/>
<stop offset="1" stop-color="#FFAA05"/>
</linearGradient>
<linearGradient id="paint14_linear_81:655" x1="704.542" y1="303.557" x2="794.84" y2="303.557" gradientUnits="userSpaceOnUse">
<stop stop-color="#FF7B0D"/>
<stop offset="1" stop-color="#FFAA05"/>
</linearGradient>
<linearGradient id="paint15_linear_81:655" x1="2287.95" y1="10964.2" x2="5337.63" y2="10964.2" gradientUnits="userSpaceOnUse">
<stop stop-color="#FFAA05"/>
<stop offset="1" stop-color="#FFC898"/>
</linearGradient>
<linearGradient id="paint16_linear_81:655" x1="3723.07" y1="11374.7" x2="9461.51" y2="11374.7" gradientUnits="userSpaceOnUse">
<stop stop-color="#FFAA05"/>
<stop offset="1" stop-color="#FFC898"/>
</linearGradient>
<linearGradient id="paint17_linear_81:655" x1="3768.57" y1="11374.7" x2="9506.67" y2="11374.7" gradientUnits="userSpaceOnUse">
<stop stop-color="#FFAA05"/>
<stop offset="1" stop-color="#FFC898"/>
</linearGradient>
<linearGradient id="paint18_linear_81:655" x1="705.503" y1="312.197" x2="723.133" y2="312.197" gradientUnits="userSpaceOnUse">
<stop stop-color="#FFAA05"/>
<stop offset="1" stop-color="#FFC898"/>
</linearGradient>
<linearGradient id="paint19_linear_81:655" x1="702.664" y1="367.275" x2="713.328" y2="367.275" gradientUnits="userSpaceOnUse">
<stop stop-color="#FFAA05"/>
<stop offset="1" stop-color="#FFC898"/>
</linearGradient>
<linearGradient id="paint20_linear_81:655" x1="703.261" y1="369.005" x2="716.521" y2="369.005" gradientUnits="userSpaceOnUse">
<stop stop-color="#FFAA05"/>
<stop offset="1" stop-color="#FFC898"/>
</linearGradient>
<linearGradient id="paint21_linear_81:655" x1="706.166" y1="312.197" x2="723.124" y2="312.197" gradientUnits="userSpaceOnUse">
<stop stop-color="#FFAA05"/>
<stop offset="1" stop-color="#FFC898"/>
</linearGradient>
<linearGradient id="paint22_linear_81:655" x1="667.6" y1="309.445" x2="725.207" y2="309.445" gradientUnits="userSpaceOnUse">
<stop stop-color="#FF7B0D"/>
<stop offset="1" stop-color="#FFAA05"/>
</linearGradient>
<linearGradient id="paint23_linear_81:655" x1="748.031" y1="390.567" x2="813.516" y2="390.567" gradientUnits="userSpaceOnUse">
<stop stop-color="#FF7B0D"/>
<stop offset="1" stop-color="#FFAA05"/>
</linearGradient>
<linearGradient id="paint24_linear_81:655" x1="803.354" y1="450.393" x2="942.02" y2="450.393" gradientUnits="userSpaceOnUse">
<stop stop-color="#FF7B0D"/>
<stop offset="1" stop-color="#FFAA05"/>
</linearGradient>
<linearGradient id="paint25_linear_81:655" x1="743.221" y1="394.264" x2="804.436" y2="394.264" gradientUnits="userSpaceOnUse">
<stop stop-color="#FF7B0D"/>
<stop offset="1" stop-color="#FFAA05"/>
</linearGradient>
<linearGradient id="paint26_linear_81:655" x1="747.435" y1="389.698" x2="813.097" y2="389.698" gradientUnits="userSpaceOnUse">
<stop stop-color="#FF7B0D"/>
<stop offset="1" stop-color="#FFAA05"/>
</linearGradient>
<linearGradient id="paint27_linear_81:655" x1="801.555" y1="342.01" x2="937.91" y2="342.01" gradientUnits="userSpaceOnUse">
<stop stop-color="#FF7B0D"/>
<stop offset="1" stop-color="#FFAA05"/>
</linearGradient>
<linearGradient id="paint28_linear_81:655" x1="746.636" y1="320.294" x2="810.436" y2="320.294" gradientUnits="userSpaceOnUse">
<stop stop-color="#FF7B0D"/>
<stop offset="1" stop-color="#FFAA05"/>
</linearGradient>
<linearGradient id="paint29_linear_81:655" x1="804.621" y1="342.01" x2="941.079" y2="342.01" gradientUnits="userSpaceOnUse">
<stop stop-color="#FF7B0D"/>
<stop offset="1" stop-color="#FFAA05"/>
</linearGradient>
<linearGradient id="paint30_linear_81:655" x1="740.672" y1="320.725" x2="798.137" y2="320.725" gradientUnits="userSpaceOnUse">
<stop stop-color="#FF7B0D"/>
<stop offset="1" stop-color="#FFAA05"/>
</linearGradient>
<linearGradient id="paint31_linear_81:655" x1="856.694" y1="484.144" x2="1059.71" y2="484.144" gradientUnits="userSpaceOnUse">
<stop stop-color="#FF7B0D"/>
<stop offset="1" stop-color="#FFAA05"/>
</linearGradient>
<linearGradient id="paint32_linear_81:655" x1="746.522" y1="320.294" x2="811.099" y2="320.294" gradientUnits="userSpaceOnUse">
<stop stop-color="#FF7B0D"/>
<stop offset="1" stop-color="#FFAA05"/>
</linearGradient>
<linearGradient id="paint33_linear_81:655" x1="1879.95" y1="7951.08" x2="4062.88" y2="7951.08" gradientUnits="userSpaceOnUse">
<stop stop-color="#FFAA05"/>
<stop offset="1" stop-color="#FFC898"/>
</linearGradient>
<linearGradient id="paint34_linear_81:655" x1="2907.19" y1="8244.93" x2="7014.71" y2="8244.93" gradientUnits="userSpaceOnUse">
<stop stop-color="#FFAA05"/>
<stop offset="1" stop-color="#FFC898"/>
</linearGradient>
<linearGradient id="paint35_linear_81:655" x1="2939.77" y1="8244.95" x2="7047.04" y2="8244.95" gradientUnits="userSpaceOnUse">
<stop stop-color="#FFAA05"/>
<stop offset="1" stop-color="#FFC898"/>
</linearGradient>
</defs>
</svg>
