<svg width="521" height="367" viewBox="0 0 521 367" fill="none" xmlns="http://www.w3.org/2000/svg">
<path d="M482.23 172.61L520.9 220.31H486.17V366.07H34.76V220.31H0L38.68 172.61L119 73.49L125.33 65.67L260.46 0L395.55 65.67L401.89 73.49L482.23 172.6V172.61ZM386.15 352.93V200.25H273.55V352.93H386.15ZM196.83 119.65H324.07C324.22 111.2 322.685 102.806 319.555 94.9556C316.425 87.1056 311.763 79.9578 305.84 73.9294C299.918 67.9009 292.854 63.1126 285.06 59.844C277.267 56.5754 268.901 54.8919 260.45 54.8919C251.999 54.8919 243.633 56.5754 235.84 59.844C228.046 63.1126 220.982 67.9009 215.06 73.9294C209.137 79.9578 204.475 87.1056 201.345 94.9556C198.215 102.806 196.68 111.2 196.83 119.65V119.65ZM247.35 352.93V200.25H134.75V352.93H247.35Z" fill="#A83022"/>
<path d="M387.12 200.25H274.52V352.93H387.12V200.25Z" fill="#813022"/>
<path d="M325 119.65H197.8C197.65 111.2 199.185 102.806 202.315 94.9556C205.445 87.1057 210.107 79.9578 216.03 73.9294C221.952 67.9009 229.016 63.1126 236.81 59.844C244.603 56.5754 252.969 54.892 261.42 54.892C269.871 54.892 278.237 56.5754 286.03 59.844C293.824 63.1126 300.888 67.9009 306.81 73.9294C312.733 79.9578 317.395 87.1057 320.525 94.9556C323.655 102.806 325.19 111.2 325.04 119.65H325Z" fill="#813022"/>
<path d="M248.32 200.25H135.71V352.93H248.32V200.25Z" fill="#813022"/>
<path d="M196.83 119.65C196.68 111.2 198.215 102.806 201.345 94.9556C204.475 87.1057 209.138 79.9578 215.06 73.9294C220.983 67.9009 228.047 63.1126 235.84 59.844C243.633 56.5754 251.999 54.892 260.45 54.892C268.901 54.892 277.268 56.5754 285.061 59.844C292.854 63.1126 299.918 67.9009 305.841 73.9294C311.763 79.9578 316.425 87.1057 319.555 94.9556C322.685 102.806 324.22 111.2 324.07 119.65H196.83Z" stroke="#FFD6BF" stroke-width="3" stroke-miterlimit="10"/>
<path d="M247.35 200.25H134.75V352.93H247.35V200.25Z" stroke="#FFD6BF" stroke-width="4" stroke-miterlimit="10"/>
<path d="M386.16 200.25H273.55V352.93H386.16V200.25Z" stroke="#FFD6BF" stroke-width="4" stroke-miterlimit="10"/>
<path d="M134.75 200.24L247.35 352.93" stroke="#BABABA" stroke-width="3" stroke-miterlimit="10"/>
<path d="M247.35 200.24L134.75 352.93" stroke="#BABABA" stroke-width="3" stroke-miterlimit="10"/>
<path d="M386.16 200.24L273.55 352.93" stroke="#BABABA" stroke-width="3" stroke-miterlimit="10"/>
<path d="M273.55 200.24L386.16 352.93" stroke="#BABABA" stroke-width="3" stroke-miterlimit="10"/>
</svg>
