<svg width="192" height="370" viewBox="0 0 192 370" fill="none" xmlns="http://www.w3.org/2000/svg">
<path d="M189.864 57.409H167.16V55.4953C166.131 31.9577 141.053 12.1517 109.647 7.65463L105.375 7.17623C103.001 7.17623 100.628 7.17622 98.2544 6.69782H93.6661C91.3719 6.69782 88.9986 6.69782 86.6253 7.17623L82.3533 7.65463C50.7093 12.1517 26.2643 31.9577 24.9194 55.4953V57.409H2.21484V55.591C2.21484 42.674 10.1259 12.1517 82.116 3.63601C85.8965 3.07268 89.6992 2.75329 93.5078 2.6792H98.4918C102.301 2.75329 106.103 3.07268 109.884 3.63601C181.953 12.1517 189.864 42.674 189.864 55.591V57.409ZM171.669 53.5817H184.959C183.694 32.7232 163.521 21.05 142.398 14.448C158.853 23.8248 170.008 38.2727 171.669 53.5817ZM7.04055 53.5817H20.3311C21.9924 38.2727 33.1469 23.8248 49.4436 14.448C28.4794 21.05 8.30631 32.7232 7.04055 53.5817Z" fill="#A83022"/>
<path d="M122.779 57.4087H69.2217V55.5907C69.2217 16.6484 85.4392 6.12345 92.4009 3.34869C94.7356 2.39354 97.2652 2.39354 99.5999 3.34869C106.561 6.12345 122.779 16.6484 122.779 55.5907V57.4087ZM74.0474 53.5814H117.953C117.953 42.1953 115.342 13.9693 97.543 6.98458C96.5389 6.60263 95.4619 6.60263 94.4577 6.98458C76.658 13.9693 74.2847 42.1953 74.0474 53.5814Z" fill="#A83022"/>
<path opacity="0.5" d="M25.7466 54H21V362.51H25.7466V54Z" fill="#A83022"/>
<path d="M189.785 54.0601H2.21484V59.801H189.785V54.0601Z" fill="#A83022"/>
<path d="M189.785 360.336H2.21484V366.077H189.785V360.336Z" fill="#A83022"/>
<path d="M6.96144 57.6958H2.21484V363.207H6.96144V57.6958Z" fill="#A83022"/>
<path opacity="0.5" d="M171.747 54H167V362.51H171.747V54Z" fill="#A83022"/>
<path opacity="0.5" d="M122.699 53.5815H117.953V362.092H122.699V53.5815Z" fill="#A83022"/>
<path opacity="0.5" d="M73.9683 53.5815H69.2217V362.092H73.9683V53.5815Z" fill="#A83022"/>
<path d="M189.785 57.6958H185.038V363.207H189.785V57.6958Z" fill="#A83022"/>
</svg>
