<svg width="3006" height="725" viewBox="0 0 3006 725" fill="none" xmlns="http://www.w3.org/2000/svg">
<rect x="0.0292969" y="172.57" width="3005.97" height="133.895" fill="#FFD695"/>
<rect x="0.0292969" y="111.201" width="3005.97" height="61.3687" fill="#F4971E"/>
<path d="M2987.92 111.508V104.116C2989.7 102.016 2990.34 99.6648 2989.75 97.361C2989.16 95.0572 2987.36 92.9037 2984.59 91.1727C2983.5 91.4796 2983.74 91.7864 2983.84 92.1212C2984.27 93.4053 2984.11 94.7282 2983.4 95.9707C2981.47 98.6492 2977.96 100.875 2973.46 102.275C2973.41 101.922 2973.41 101.568 2973.46 101.215C2973.64 96.5247 2976.02 91.9443 2980.37 87.9369C2980.59 87.7742 2980.72 87.5727 2980.72 87.3651C2980.72 87.1575 2980.59 86.956 2980.37 86.7933C2975.76 87.9576 2971.63 89.6329 2968.22 91.7184C2964.8 93.8039 2962.17 96.2562 2960.49 98.9275C2960.67 93.9296 2960.17 88.9312 2959 83.9759C2958.28 78.9235 2955.87 73.9925 2951.9 69.4427C2952.77 75.2898 2951.95 81.1779 2949.46 86.877C2947.22 92.1284 2944.42 97.2985 2941.06 102.359H2939.37C2938.52 99.5132 2937.24 96.7136 2935.55 93.9901C2933.64 90.4545 2930.97 87.0633 2927.6 83.8922C2926.1 89.2243 2923.87 94.484 2920.94 99.6249L2909.81 67.2111L2901.66 91.0891C2899.22 82.7663 2893.63 74.8339 2885.27 67.8248C2884.91 68.1979 2884.72 68.6147 2884.72 69.0382C2884.72 69.4616 2884.91 69.8785 2885.27 70.2516C2887.17 73.3859 2888.43 76.6343 2888.99 79.9311C2890.11 86.1282 2888.02 92.3743 2882.98 97.9233V97.2539C2882.63 96.947 2882.09 96.6401 2882.04 96.3333C2880.62 89.8733 2876.6 83.6807 2870.26 78.2296C2864.36 73.0625 2856.16 68.8507 2846.46 66.0116C2843.4 65.0478 2840.02 64.4584 2836.53 64.2821C2850.19 73.6827 2852.87 83.0275 2848.35 92.3164C2845.11 94.2587 2842.36 96.4465 2840.2 98.816C2840.39 93.8112 2839.78 88.8069 2838.36 83.8643C2837.41 78.7074 2834.38 73.7389 2829.52 69.3311C2830.63 75.1959 2829.62 81.1264 2826.54 86.7654C2823.75 92.0606 2820.28 97.2348 2816.15 102.247H2814.07C2812.98 99.3789 2811.4 96.5765 2809.35 93.8785C2806.89 90.27 2803.54 86.8715 2799.41 83.7806C2797.39 89.5015 2794.43 95.1046 2790.57 100.518C2790.7 96.0967 2790.24 91.6765 2789.18 87.2954C2788.24 82.8761 2785.99 78.5764 2782.52 74.5754C2781.87 73.878 2781.37 73.069 2779.54 72.8459C2783.71 83.0554 2778.54 92.0375 2771.54 100.741C2772.69 89.6392 2768.45 78.5704 2759.26 68.7174C2758.98 69.077 2758.83 69.4668 2758.83 69.8611C2758.83 70.2554 2758.98 70.6452 2759.26 71.0048C2760.66 73.9931 2761.39 77.0658 2761.45 80.1543C2761.45 80.6564 2761.45 81.1306 2761.45 81.6327H2761.05C2755.95 87.4289 2752.59 93.6593 2751.12 100.071L2749.77 101.131C2749.97 95.4629 2749.43 89.7941 2748.13 84.1712C2746.89 78.3823 2744.06 72.7365 2739.74 67.4343C2738.88 66.0981 2737.35 64.9334 2735.32 64.0869C2738.78 76.1486 2736.46 88.5099 2728.61 99.9038C2726.99 94.4763 2721.77 89.5938 2714 86.2354C2713.31 86.6259 2714 86.9885 2714 87.3512C2715.51 88.6795 2716.55 90.156 2717.08 91.7027C2718.32 95.6917 2715.24 99.2343 2708.09 102.414C2709.64 95.5451 2707.92 88.5681 2703.12 82.1906C2702.94 82.4189 2702.85 82.666 2702.85 82.9159C2702.85 83.1658 2702.94 83.4129 2703.12 83.6412C2703.65 85.4847 2703.85 87.354 2703.72 89.2202C2703.32 93.9737 2700.32 98.5424 2695.12 102.303H2694.18C2692.68 97.0364 2692 91.7072 2692.14 86.3748H2689.8C2681.31 91.3959 2680.31 96.6959 2676.59 101.884C2676.96 97.2914 2676.31 92.6905 2674.65 88.1881C2673.01 83.8344 2669.61 79.7501 2664.71 76.249C2663.54 75.1847 2661.8 74.355 2659.74 73.878C2664.07 81.7164 2661.09 89.4154 2654.03 97.0586C2654.43 95.4398 2654.2 93.7912 2653.34 92.2294C2652.48 90.6677 2651.02 89.2308 2649.06 88.0206C2647.97 88.3275 2648.22 88.6622 2648.32 88.9969C2648.76 90.2709 2648.61 91.5883 2647.87 92.8185C2645.79 95.7107 2641.93 98.0869 2636.99 99.5134C2637.4 95.4632 2639.72 91.5465 2643.7 88.1601C2643.7 88.1601 2637.14 92.3443 2632.22 96.3054C2632.22 93.3485 2632.91 90.4196 2633.41 87.4907C2634.26 82.107 2636.59 76.779 2638.38 71.4232C2639.27 68.8848 2640.62 66.3743 2641.71 63.8358C2641.71 63.5848 2642.5 63.25 2641.31 63.1105C2640.94 63.0857 2640.57 63.1079 2640.21 63.1755C2639.86 63.2431 2639.54 63.3544 2639.27 63.5011C2637.26 64.3467 2635.44 65.3307 2633.86 66.43C2628.44 70.895 2624.22 75.7822 2621.34 80.9354C2617.97 86.4126 2615.22 92.0024 2613.09 97.6723C2612.74 98.7323 2612.29 99.8202 2611.85 100.88C2609.16 93.2649 2607.72 75.7748 2635.25 50.0837C2635.25 50.0837 2570.31 91.368 2573.09 102.442H2572.6C2573.51 96.8407 2572.85 91.1938 2570.66 85.7054C2569.04 81.0591 2565.46 76.698 2560.22 72.9853C2559.73 72.5214 2559.05 72.1272 2558.24 71.8324C2557.43 71.5376 2556.51 71.3499 2555.55 71.2837C2562.81 82.6369 2551.93 92.456 2539.16 102.135C2538.16 95.9242 2537.72 89.7037 2537.82 83.4738H2535.78C2529.02 89.6107 2527.83 96.0823 2525.1 102.442H2524.5C2524.75 96.8941 2524.2 91.3437 2522.86 85.8448C2521.63 80.4211 2518.79 75.1511 2514.46 70.2516C2513.6 68.9859 2512.06 67.9033 2510.04 67.1553C2514.41 79.1222 2510.04 90.7822 2501.89 102.442H2501.45C2503.13 100.655 2504.02 98.6631 2504.02 96.6402C2504.02 94.6173 2503.13 92.6252 2501.45 90.838C2501.2 90.9172 2501.01 91.0381 2500.89 91.1835C2500.77 91.3288 2500.74 91.4911 2500.8 91.647C2500.95 92.7428 2500.69 93.8438 2500.06 94.8828C2497.77 97.9437 2493.61 100.446 2488.33 101.94C2493.15 95.8097 2495.09 89.0852 2493.94 82.4138C2493.3 82.7992 2492.95 83.3083 2492.95 83.8364C2492.44 85.7365 2491.61 87.6047 2490.47 89.4154C2487.98 93.3162 2484.11 96.8936 2479.09 99.9318C2477.31 97.2596 2476.87 94.367 2477.8 91.5633C2479.93 85.1953 2484.32 79.1333 2490.71 73.7385C2495.98 69.7216 2507.76 65.9001 2515.01 62.0227C2515.56 61.7437 2517.15 61.409 2515.86 61.1579C2514.48 60.9769 2513.04 61.1071 2511.83 61.5205C2504.1 62.8709 2497.02 65.1887 2491.11 68.299C2481.71 72.9688 2474.11 78.6633 2468.75 85.0359C2464.41 89.7281 2460.91 94.6529 2458.32 99.7365L2457.72 100.824C2454.1 94.2691 2446.54 87.9091 2428.96 82.0791C2428.01 82.6091 2428.96 83.0553 2429.6 83.5017C2432.36 85.1168 2434.55 87.0095 2436.06 89.0806C2439.09 93.6554 2436.51 97.8955 2428.66 101.773C2429.65 91.9817 2424.83 82.3859 2404.06 73.2085C2402.27 73.9058 2403.17 74.5753 2403.81 75.2169C2406.4 77.6583 2407.9 80.4142 2408.19 83.2506C2408.63 90.2801 2400.24 96.5565 2383.34 102.108C2386.87 96.0823 2381.95 82.1348 2381.95 82.1348C2381.22 89.6059 2376.12 96.7327 2367.44 102.414C2365.5 97.7847 2364.24 93.0733 2363.67 88.3275C2363 81.1317 2363.45 73.9168 2365.01 66.7647C2365.01 66.179 2365.71 65.5374 2363.47 64.8679C2357.33 69.1222 2352.63 73.9724 2349.61 79.178C2346.48 83.948 2344.64 88.718 2341.81 93.4881C2339.52 81.9675 2324.27 69.7495 2317.31 68.7732C2323.41 74.4235 2326.48 80.9415 2326.16 87.5464C2325.08 92.5102 2322.05 97.276 2317.26 101.494C2319.92 98.3174 2320.73 94.7528 2319.58 91.3039C2318.43 87.8551 2315.38 84.6964 2310.85 82.2743C2309.16 82.7206 2309.51 83.2227 2309.71 83.6969C2310.55 85.5855 2310.41 87.5692 2309.31 89.4154C2306.68 93.9901 2298.58 97.9512 2285.41 101.327C2284.77 97.7002 2285.81 91.2286 2295.35 82.4138C2288.19 87.0192 2281.55 91.8732 2275.48 96.947C2275.3 92.0414 2276.54 87.1524 2279.15 82.4696C2283.49 74.4461 2289.45 66.7255 2296.89 59.4563C2272.84 69.359 2267.48 88.8017 2259.83 99.7644C2258.14 97.6165 2250.68 93.4601 2252.77 88.7459C2252.86 85.0707 2250.6 81.4988 2246.41 78.6759C2241.96 76.2753 2236.56 74.4976 2230.66 73.4874C2244.62 82.358 2236.42 94.3249 2238.41 102.163C2237.57 101.075 2236.77 99.9876 2236.13 98.8997C2236.93 93.756 2236.85 88.5805 2235.88 83.4459C2235.18 85.966 2234.05 88.4418 2232.5 90.838C2232.25 90.057 2232.05 89.248 2231.8 88.4669C2231.41 87.2396 2231.36 86.0123 2231.11 84.7849C2231.11 84.7849 2231.41 84.5059 2230.61 84.4501C2230.38 84.4309 2230.15 84.4438 2229.93 84.4876C2229.72 84.5314 2229.52 84.6049 2229.37 84.7012C2228.38 85.1069 2227.52 85.6073 2226.83 86.1796C2225.52 87.6255 2224.7 89.1954 2224.4 90.8101C2224.07 89.1744 2223.21 87.5863 2221.87 86.1238C2221.18 85.5515 2220.32 85.0511 2219.33 84.6454C2219.18 84.5567 2218.99 84.4881 2218.79 84.4447C2218.58 84.4013 2218.36 84.3841 2218.14 84.3943C2217.3 84.3943 2217.64 84.6175 2217.59 84.729C2217.35 85.9843 2217.3 87.1838 2216.9 88.4112C2216.5 89.6386 2216.45 90.0291 2216.2 90.8659C2214.65 88.4791 2213.52 86.0125 2212.82 83.5017C2211.88 88.6091 2211.79 93.7555 2212.58 98.8717C2211.92 99.9734 2211.16 101.054 2210.29 102.108C2212.33 94.2691 2204.08 82.3022 2218.04 73.4317C2212.12 74.4261 2206.72 76.2057 2202.29 78.6201C2198.09 81.4382 2195.85 85.0156 2195.98 88.6901C2198.02 93.4044 2190.61 97.5607 2188.92 99.7086C2181.27 88.7738 2175.86 69.3032 2151.81 59.4006C2159.26 66.6698 2165.21 74.3903 2169.55 82.4138C2172.17 87.1047 2173.43 92.0029 2173.27 96.9191C2167.21 91.8304 2160.58 86.9666 2153.4 82.358C2162.84 91.1727 2163.88 97.6443 2163.34 101.271C2150.12 97.8675 2142.07 93.9343 2139.39 89.3596C2138.32 87.5107 2138.18 85.5313 2138.99 83.6412C2138.99 83.167 2139.54 82.6648 2137.85 82.2185C2133.32 84.646 2130.28 87.8112 2129.13 91.2658C2127.99 94.7203 2128.82 98.2889 2131.49 101.466C2126.67 97.257 2123.63 92.4869 2122.59 87.5185C2122.22 80.9141 2125.27 74.391 2131.39 68.7453C2124.48 69.7217 2109.23 81.9396 2106.89 93.4601C2103.96 88.6901 2102.27 83.8922 2099.14 79.1501C2096.08 73.9543 2091.38 69.108 2085.28 64.84C2083 65.5095 2083.64 66.1511 2083.69 66.7369C2085.28 73.8878 2085.73 81.1039 2085.03 88.2996C2084.48 93.0466 2083.22 97.7591 2081.26 102.387C2072.61 96.6973 2067.51 89.5748 2066.75 82.1069C2066.75 82.1069 2061.78 96.0543 2065.36 102.08C2048.46 96.5007 2040.07 90.2522 2040.51 83.2227C2040.82 80.3886 2042.32 77.6357 2044.89 75.189C2045.53 74.5475 2046.43 73.878 2044.64 73.1806C2023.87 82.358 2019.05 91.9817 2020.09 101.745C2012.19 97.8396 2009.66 93.6275 2012.69 89.0528C2014.18 86.9827 2016.36 85.0897 2019.1 83.4738C2019.85 83.0275 2020.74 82.5812 2019.8 82.0512C2002.21 87.8812 1994.61 94.2412 1991.03 100.796C1990.78 100.442 1990.58 100.079 1990.43 99.7086C1987.81 94.6358 1984.29 89.7211 1979.95 85.0359C1974.62 78.6547 1967.01 72.9576 1957.59 68.299C1951.69 65.1887 1944.6 62.8709 1936.87 61.5205C1936.28 61.3152 1935.63 61.1775 1934.95 61.1152C1934.27 61.053 1933.57 61.0675 1932.9 61.1579C1931.55 61.409 1933.14 61.7437 1933.69 62.0227C1940.94 65.9001 1952.72 69.6937 1957.99 73.7385C1964.38 79.1333 1968.77 85.1953 1970.91 91.5633C1971.86 94.3641 1971.43 97.2585 1969.66 99.9318C1964.37 96.8612 1960.27 93.2032 1957.64 89.1922C1956.49 87.3837 1955.68 85.5144 1955.2 83.6133C1955.19 83.0877 1954.83 82.5831 1954.21 82.1906C1953.05 88.8596 1954.97 95.584 1959.78 101.717C1954.5 100.223 1950.34 97.7205 1948.05 94.6596C1947.41 93.621 1947.16 92.5197 1947.3 91.4238C1947.36 91.2709 1947.33 91.1122 1947.23 90.968C1947.12 90.8238 1946.94 90.7009 1946.71 90.6149C1945.01 92.3998 1944.12 94.3928 1944.12 96.417C1944.12 98.4412 1945.01 100.434 1946.71 102.219H1946.16C1937.91 90.5591 1933.74 78.899 1938.06 66.9321C1936.06 67.6803 1934.53 68.7638 1933.69 70.0285C1929.35 74.9231 1926.51 80.1953 1925.29 85.6217C1923.93 91.1659 1923.36 96.7632 1923.6 102.359H1922.86C1920.08 95.9986 1918.88 89.527 1912.13 83.3901H1910.09C1910.21 89.6102 1909.77 95.8297 1908.75 102.024C1895.98 92.3723 1885.1 82.4975 1892.4 71.1722C1891.43 71.2485 1890.5 71.4459 1889.69 71.75C1888.87 72.0542 1888.18 72.4572 1887.68 72.9296C1882.45 76.6277 1878.88 80.9824 1877.3 85.6217C1875.1 91.1101 1874.45 96.757 1875.36 102.359H1874.86C1877.65 91.2007 1812.71 50 1812.71 50C1840.23 75.6075 1838.79 93.1812 1836.06 100.796C1835.61 99.7365 1835.16 98.6486 1834.77 97.5886C1832.7 91.9129 1829.97 86.3213 1826.57 80.8517C1823.72 75.6892 1819.5 70.7985 1814.05 66.3463C1812.48 65.2403 1810.66 64.2555 1808.63 63.4174C1808.37 63.269 1808.05 63.1565 1807.69 63.0888C1807.34 63.0211 1806.97 62.9999 1806.6 63.0268C1805.45 63.0268 1806.1 63.529 1806.25 63.7521C1807.34 66.2906 1808.68 68.8011 1809.53 71.3395C1811.32 76.6954 1813.65 82.0232 1814.5 87.4069C1814.94 90.3359 1815.44 93.2648 1815.69 96.2217C1810.72 92.2885 1804.21 88.1043 1804.21 88.1043C1808.17 91.4854 1810.48 95.3903 1810.92 99.4297C1805.99 97.9977 1802.12 95.6372 1799.99 92.7628C1799.27 91.5203 1799.12 90.1974 1799.54 88.9133C1799.62 88.8228 1799.66 88.7236 1799.67 88.6226C1799.67 88.5217 1799.64 88.4213 1799.57 88.3284C1799.5 88.2356 1799.39 88.1525 1799.26 88.0849C1799.12 88.0173 1798.97 87.9668 1798.79 87.9369C1796.84 89.1472 1795.38 90.584 1794.52 92.1458C1793.66 93.7075 1793.42 95.3561 1793.83 96.9749C1786.77 89.3038 1783.89 81.6327 1788.16 73.7664C1786.1 74.2588 1784.37 75.0968 1783.19 76.1653C1778.32 79.6731 1774.92 83.7547 1773.26 88.1043C1771.62 92.6079 1770.98 97.2089 1771.37 101.801C1767.59 96.6122 1766.65 91.3122 1758.15 86.2911H1755.82C1755.93 91.6231 1755.25 96.9511 1753.78 102.219H1752.84C1747.57 98.491 1744.48 93.9419 1743.99 89.1922C1743.8 87.2806 1743.98 85.363 1744.54 83.4738C1744.68 83.2404 1744.73 82.9928 1744.69 82.7474C1744.65 82.5021 1744.51 82.2646 1744.29 82.0512C1739.49 88.429 1737.78 95.4056 1739.32 102.275C1732.17 99.0949 1729.09 95.5523 1730.38 91.5633C1730.89 90.0144 1731.94 88.5365 1733.46 87.2117C1733.86 86.8491 1734.3 86.4865 1733.46 86.0959C1725.72 89.4629 1720.52 94.3429 1718.9 99.7644C1711.02 88.3736 1708.71 76.0088 1712.19 63.9474C1710.12 64.7721 1708.58 65.9441 1707.77 67.2948C1703.44 72.597 1700.59 78.2422 1699.32 84.0317C1698.06 89.6559 1697.51 95.3237 1697.68 100.992C1697.24 100.657 1696.79 100.294 1696.39 99.9318C1694.92 93.5198 1691.56 87.2894 1686.46 81.4932H1686.11C1686.11 80.9911 1686.11 80.5169 1686.11 80.0148C1686.22 76.9285 1686.95 73.8592 1688.29 70.8653C1688.58 70.5057 1688.73 70.1159 1688.73 69.7216C1688.73 69.3273 1688.58 68.9375 1688.29 68.5779C1679.11 78.4307 1674.89 89.5016 1676.07 100.601C1669.07 91.8701 1663.85 82.888 1668.02 72.7064C1666.18 72.9295 1665.69 73.7385 1665.04 74.408C1661.58 78.4085 1659.34 82.7092 1658.43 87.128C1657.36 91.5178 1656.87 95.9473 1656.99 100.378C1653.14 94.9652 1650.19 89.3619 1648.2 83.6412C1644.06 86.7387 1640.71 90.1473 1638.26 93.767C1636.19 96.4603 1634.61 99.264 1633.54 102.135H1631.4C1627.31 97.1258 1623.84 91.9621 1621.02 86.6817C1617.94 81.0328 1616.93 75.0936 1618.04 69.2195C1613.19 73.641 1610.17 78.6168 1609.19 83.7806C1607.78 88.7136 1607.16 93.7088 1607.36 98.7044C1605.19 96.3349 1602.45 94.1471 1599.21 92.2048C1594.69 82.888 1597.37 73.5711 1611.03 64.1705C1607.54 64.3566 1604.16 64.9453 1601.1 65.9C1591.41 68.7313 1583.21 72.9452 1577.35 78.118C1570.97 83.5594 1566.92 89.7557 1565.52 96.2217C1565.52 96.5285 1564.93 96.8354 1564.63 97.1423V97.8117C1559.57 92.2668 1557.48 86.0172 1558.62 79.8196C1559.14 76.5218 1560.38 73.2717 1562.29 70.1401C1562.65 69.767 1562.84 69.35 1562.84 68.9266C1562.84 68.5031 1562.65 68.0863 1562.29 67.7132C1553.94 74.7214 1548.36 82.6551 1545.95 90.9775L1537.7 66.96L1526.57 99.4018C1523.8 94.2346 1521.74 88.9565 1520.41 83.6133C1517.03 86.7958 1514.34 90.1956 1512.41 93.7391C1510.73 96.4665 1509.46 99.265 1508.58 102.108H1506.89C1503.56 97.0551 1500.77 91.8945 1498.55 86.6538C1496.04 80.9473 1495.21 75.0479 1496.11 69.1916C1492.13 73.7533 1489.71 78.6914 1488.96 83.7527C1487.86 88.4781 1487.36 93.2417 1487.47 98.007C1487.24 95.3662 1485.36 92.8553 1482.15 90.9217C1481.11 91.2285 1481.3 91.5354 1481.4 91.8701C1481.45 92.1391 1481.45 92.4101 1481.4 92.6791C1479.83 91.4912 1478 90.4223 1475.94 89.499L1477.58 87.6859C1477.82 87.5254 1477.95 87.3231 1477.95 87.1141C1477.95 86.9051 1477.82 86.7027 1477.58 86.5422C1475.74 87.0722 1474.05 87.6301 1472.61 88.1601C1471 87.5737 1469.35 87.0337 1467.64 86.5422C1467.4 86.7027 1467.27 86.9051 1467.27 87.1141C1467.27 87.3231 1467.4 87.5254 1467.64 87.6859C1468.24 88.2996 1468.78 88.8853 1469.28 89.499C1467.23 90.4296 1465.4 91.4976 1463.82 92.6791C1463.77 92.4101 1463.77 92.1391 1463.82 91.8701C1463.82 91.5354 1464.11 91.2285 1463.07 90.9217C1459.87 92.8691 1457.98 95.3871 1457.75 98.0349C1457.86 93.2604 1457.36 88.4875 1456.26 83.7527C1455.53 78.6891 1453.11 73.7486 1449.11 69.1916C1450.02 75.0464 1449.22 80.9457 1446.72 86.6538C1444.48 91.895 1441.68 97.0556 1438.33 102.108H1436.64C1435.76 99.265 1434.48 96.4665 1432.81 93.7391C1430.9 90.1965 1428.23 86.7966 1424.86 83.6133C1423.34 88.9611 1421.11 94.2383 1418.2 99.4018L1407.07 66.96L1398.83 90.9775C1396.42 82.6526 1390.85 74.7169 1382.48 67.7132C1382.15 68.0916 1381.99 68.5063 1381.99 68.9266C1381.99 69.3468 1382.15 69.7617 1382.48 70.1401C1384.43 73.2697 1385.69 76.5196 1386.26 79.8196C1387.35 86.0193 1385.25 92.265 1380.19 97.8117V97.1423C1379.81 96.861 1379.49 96.5513 1379.25 96.2217C1377.87 89.7575 1373.84 83.561 1367.48 78.118C1361.61 72.9452 1353.42 68.7313 1343.73 65.9C1340.66 64.9453 1337.28 64.3566 1333.79 64.1705C1340.02 67.8474 1344.46 72.3624 1346.69 77.2817C1348.92 82.2009 1348.86 87.3591 1346.51 92.2607C1343.25 94.1955 1340.5 96.3846 1338.36 98.7601C1338.55 93.7645 1337.94 88.7693 1336.52 83.8364C1335.55 78.6725 1332.53 73.6967 1327.68 69.2753C1328.76 75.1494 1327.75 81.0859 1324.7 86.7375C1321.88 92.0178 1318.41 97.1816 1314.31 102.191H1312.18C1311.1 99.3239 1309.54 96.5214 1307.5 93.8228C1305.03 90.2089 1301.69 86.802 1297.57 83.6969C1295.58 89.419 1292.64 95.0228 1288.77 100.434C1288.89 96.0123 1288.41 91.5922 1287.33 87.2117C1286.43 82.7887 1284.18 78.4859 1280.67 74.4917C1280.08 73.8222 1279.58 73.0132 1277.74 72.79C1281.92 82.9996 1276.75 91.9817 1269.74 100.685C1270.9 89.5834 1266.65 78.5147 1257.47 68.6617C1257.18 69.0213 1257.03 69.411 1257.03 69.8053C1257.03 70.1996 1257.18 70.5894 1257.47 70.949C1258.81 73.9429 1259.54 77.0122 1259.66 80.0985C1259.71 80.5909 1259.71 81.0845 1259.66 81.5769H1259.31C1254.21 87.3731 1250.85 93.6035 1249.37 100.015C1248.98 100.378 1248.53 100.741 1248.08 101.075C1248.24 95.4067 1247.67 89.7389 1246.39 84.1153C1245.19 78.322 1242.35 72.6727 1237.99 67.3784C1237.19 66.0351 1235.66 64.8654 1233.62 64.0311C1237.06 76.0953 1234.73 88.4563 1226.87 99.8481C1225.29 94.4179 1220.08 89.5297 1212.31 86.1796C1211.56 86.5702 1212.06 86.9328 1212.31 87.2954C1213.79 88.6273 1214.82 90.1031 1215.34 91.647C1216.63 95.636 1213.55 99.1786 1206.35 102.359C1207.91 95.4893 1206.2 88.5095 1201.38 82.1348C1201.16 82.3493 1201.03 82.5854 1200.98 82.8295C1200.92 83.0736 1200.96 83.321 1201.08 83.5575C1201.67 85.4446 1201.88 87.3622 1201.72 89.2759C1201.28 94.0241 1198.28 98.5851 1193.13 102.359H1192.14C1190.68 97.0898 1190.02 91.7618 1190.15 86.4307H1187.76C1179.27 91.4517 1178.32 96.7518 1174.55 101.94C1174.93 97.3484 1174.3 92.7475 1172.66 88.2438C1171.01 83.8901 1167.62 79.8059 1162.72 76.3048C1161.55 75.2363 1159.81 74.3983 1157.75 73.9058C1162.13 81.7722 1159.14 89.4433 1152.14 97.1144C1152.52 95.4959 1152.27 93.8508 1151.41 92.2911C1150.55 90.7314 1149.11 89.2939 1147.17 88.0765C1147 88.1063 1146.84 88.1568 1146.71 88.2244C1146.57 88.292 1146.47 88.3751 1146.4 88.468C1146.32 88.5608 1146.29 88.6612 1146.3 88.7622C1146.3 88.8631 1146.34 88.9623 1146.42 89.0528C1146.85 90.3369 1146.69 91.6598 1145.98 92.9022C1143.85 95.7695 1140 98.1281 1135.1 99.5691C1135.48 95.5245 1137.8 91.6126 1141.8 88.2438C1141.8 88.2438 1135.25 92.4002 1130.28 96.3612C1130.53 93.4044 1130.97 90.4754 1131.47 87.5464C1132.36 82.1627 1134.7 76.8348 1136.44 71.479C1137.28 68.9406 1138.62 66.43 1139.77 63.8916C1139.77 63.6684 1140.51 63.3058 1139.37 63.1664C1139 63.1373 1138.62 63.1574 1138.27 63.2252C1137.91 63.293 1137.59 63.4067 1137.33 63.5569C1135.3 64.3949 1133.48 65.3798 1131.92 66.4858C1126.46 70.9379 1122.24 75.8286 1119.4 80.9911C1116.02 86.4648 1113.28 92.0555 1111.2 97.728C1110.8 98.7881 1110.3 99.8759 1109.91 100.936C1107.17 93.3206 1105.78 75.8306 1133.31 50.1394C1133.31 50.1394 1068.32 91.4238 1071.1 102.498H1070.6C1071.51 96.8964 1070.86 91.2495 1068.67 85.7611C1067.08 81.1162 1063.5 76.759 1058.23 73.069C1057.75 72.5947 1057.07 72.1895 1056.26 71.8848C1055.45 71.5801 1054.53 71.384 1053.56 71.3116C1060.82 82.6927 1049.99 92.5117 1037.22 102.191C1036.2 95.9877 1035.75 89.7589 1035.87 83.5296H1033.89C1027.03 89.6664 1025.89 96.138 1023.11 102.498H1022.56C1022.79 96.9036 1022.25 91.3074 1020.92 85.7611C1019.64 80.3389 1016.79 75.071 1012.47 70.1679C1011.65 68.8904 1010.09 67.8019 1008.05 67.0716C1012.42 79.0385 1008.05 90.6986 999.952 102.359H999.505C1001.18 100.569 1002.06 98.5781 1002.06 96.5565C1002.06 94.535 1001.18 92.5437 999.505 90.7543C999.253 90.8301 999.053 90.9506 998.936 91.097C998.819 91.2434 998.792 91.4074 998.859 91.5633C999.007 92.6592 998.754 93.7605 998.113 94.7991C995.825 97.86 991.668 100.362 986.388 101.857C991.193 95.7228 993.126 89.0012 992.002 82.3301C991.345 82.7127 990.972 83.2213 990.959 83.7527C990.463 85.6514 989.648 87.5194 988.524 89.3317C985.988 93.2282 982.124 96.8098 977.146 99.8759C975.363 97.205 974.916 94.3108 975.854 91.5075C977.987 85.1394 982.38 79.0775 988.773 73.6827C993.99 69.6379 1005.81 65.8442 1013.07 61.9668C1013.62 61.6879 1015.16 61.3531 1013.86 61.1021C1013.19 61.0117 1012.49 60.9972 1011.81 61.0594C1011.13 61.1217 1010.48 61.2595 1009.89 61.4647C1002.16 62.8223 995.082 65.139 989.17 68.2432C979.78 72.9167 972.174 78.6103 966.812 84.9801C962.444 89.6598 958.932 94.5758 956.328 99.6528C956.328 100.015 955.931 100.378 955.732 100.741C952.154 94.1854 944.553 87.8254 927.014 81.9954C926.02 82.5254 927.014 82.9717 927.659 83.418C930.404 85.0338 932.579 86.9268 934.069 88.9969C937.1 93.5717 934.566 97.7839 926.666 101.689C927.659 91.8981 922.89 82.3022 902.121 73.1248C900.332 73.8221 901.177 74.4916 901.873 75.1332C904.446 77.5763 905.929 80.3325 906.195 83.1669C906.692 90.1964 898.295 96.5007 881.353 102.024C884.88 95.9986 880.011 82.0512 880.011 82.0512C879.249 89.519 874.153 96.6415 865.503 102.331C863.514 97.7059 862.251 92.9923 861.727 88.2438C861.032 81.0481 861.481 73.832 863.068 66.6811C863.068 66.0953 863.764 65.4537 861.478 64.7842C855.375 69.0523 850.681 73.8986 847.616 79.0943C844.486 83.8364 842.648 88.6344 839.865 93.4044C837.53 81.8838 822.277 69.6658 815.37 68.6895C821.486 74.3352 824.542 80.8584 824.165 87.4628C823.104 92.428 820.064 97.1953 815.271 101.41C817.943 98.2332 818.767 94.6646 817.626 91.21C816.484 87.7555 813.436 84.5902 808.911 82.1628C807.222 82.6091 807.57 83.1111 807.768 83.5853C808.557 85.4767 808.42 87.4527 807.371 89.3038C804.688 93.8786 796.639 97.6723 783.472 101.215C782.826 97.5886 783.82 91.117 793.409 82.3022C793.409 82.3022 785.162 87.5465 778.106 92.9581C777.392 92.3303 776.595 91.7335 775.721 91.1727C774.678 91.4796 774.877 91.7864 774.976 92.1212C775.398 93.3071 775.296 94.5331 774.678 95.6917L773.336 96.8633C773.204 91.948 774.462 87.052 777.063 82.358C781.404 74.3345 787.355 66.6139 794.801 59.3447C777.113 66.6253 769.511 79.0664 763.697 89.4712C759.476 91.2572 756.07 93.5804 753.76 96.2496C752.854 95.4522 752.073 94.6122 751.425 93.7391C751.264 90.4826 750.799 87.2331 750.034 84.0038C749.3 78.9442 746.891 74.0059 742.929 69.4427C743.301 72.2841 743.301 75.1371 742.929 77.9785C738.721 75.8461 733.711 74.2729 728.272 73.3758C739.004 80.2101 736.619 88.8575 735.874 96.0543C735.277 97.1143 734.681 98.1743 734.035 99.2622C733.389 98.2022 732.793 97.1423 732.197 96.1102C730.976 93.5628 730.063 90.9719 729.464 88.3554C729.067 87.128 729.017 85.9285 728.769 84.6733C728.769 84.6733 729.067 84.3943 728.272 84.3386C728.044 84.3218 727.812 84.3358 727.596 84.3795C727.38 84.4232 727.186 84.4952 727.03 84.5896C726.029 84.9902 725.17 85.4915 724.496 86.068C723.796 86.8353 723.231 87.6386 722.806 88.4669C721.587 86.8714 720.176 85.3243 718.583 83.8364C717.738 86.8211 716.596 89.8059 715.304 92.7628C712.925 89.7738 711.255 86.6228 710.335 83.3901C709.764 86.5787 709.482 89.7813 709.491 92.9859L700.597 67.0158L692.349 91.0333C689.947 82.7083 684.371 74.7727 676.003 67.769C675.646 68.1421 675.459 68.559 675.459 68.9824C675.459 69.4059 675.646 69.8227 676.003 70.1958C677.91 73.3301 679.161 76.5785 679.729 79.8754C680.825 86.075 678.721 92.3208 673.667 97.8675V97.198C673.369 96.8912 672.823 96.5844 672.773 96.2775C671.372 89.8115 667.325 83.6152 660.948 78.1737C655.079 73.001 646.888 68.7871 637.198 65.9559C634.133 65.0012 630.75 64.4123 627.261 64.2263C633.306 67.9524 637.567 72.4795 639.644 77.3829C641.721 82.2863 641.546 87.4056 639.136 92.2607C635.864 94.1959 633.103 96.3847 630.938 98.7601C631.133 93.7645 630.518 88.7693 629.099 83.8364C628.105 78.6754 625.084 73.7023 620.255 69.2753C621.315 75.1494 620.302 81.0832 617.274 86.7375C614.456 92.0178 610.986 97.1816 606.89 102.191H604.754C603.582 99.3183 601.918 96.5157 599.785 93.8228C597.316 90.2074 593.972 86.8001 589.848 83.6969C587.821 89.4165 584.861 95.0191 581.004 100.434C581.121 96.0123 580.64 91.5922 579.563 87.2117C578.654 82.7928 576.419 78.4922 572.955 74.4917C572.309 73.8222 571.812 73.0132 569.974 72.79C574.147 82.9996 568.93 91.9817 561.925 100.685C563.108 89.5853 558.882 78.5145 549.702 68.6617C549.414 69.0213 549.265 69.411 549.265 69.8053C549.265 70.1996 549.414 70.5894 549.702 70.949C551.042 73.9429 551.775 77.0122 551.888 80.0985C551.888 80.6006 551.888 81.0748 551.888 81.5769H551.54C546.392 87.3628 543.032 93.5977 541.603 100.015L540.262 101.075C540.411 95.4077 539.863 89.7408 538.622 84.1153C537.355 78.3259 534.506 72.6806 530.176 67.3784C529.37 66.0278 527.822 64.8557 525.754 64.0311C529.262 76.0921 526.946 88.4605 519.046 99.8481C517.468 94.4179 512.262 89.5297 504.488 86.1796C503.793 86.5702 504.488 86.9328 504.488 87.2954C505.987 88.6261 507.032 90.1017 507.569 91.647C508.861 95.636 505.78 99.1786 498.625 102.359C500.171 95.4893 498.457 88.5127 493.657 82.1348C493.477 82.3584 493.384 82.6009 493.384 82.8462C493.384 83.0914 493.477 83.3339 493.657 83.5575C494.212 85.4467 494.395 87.3643 494.203 89.2759C493.799 94.0242 490.817 98.5895 485.658 102.359H484.714C483.194 97.0938 482.512 91.7634 482.676 86.4307H480.341C471.845 91.4517 470.851 96.7518 467.075 101.94C467.446 97.3473 466.795 92.7463 465.137 88.2438C463.499 83.8892 460.099 79.8044 455.2 76.3048C454.025 75.2363 452.289 74.3983 450.232 73.9058C454.604 81.7722 451.623 89.4433 444.568 97.1144C444.969 95.4955 444.732 93.847 443.874 92.2852C443.015 90.7234 441.556 89.2867 439.599 88.0765C438.506 88.3833 438.705 88.7181 438.804 89.0528C439.251 90.3361 439.096 91.6623 438.357 92.9022C436.251 95.7688 432.417 98.1287 427.526 99.5691C427.913 95.5289 430.211 91.6196 434.183 88.2438C434.183 88.2438 427.675 92.4002 422.706 96.3612C422.706 93.4044 423.451 90.4754 423.898 87.5464C424.793 82.1627 427.128 76.8348 428.867 71.479C429.712 68.9406 431.103 66.43 432.146 63.8916C432.146 63.6684 432.941 63.3058 431.798 63.1664C431.428 63.1394 431.052 63.1606 430.699 63.2283C430.346 63.2961 430.025 63.4084 429.761 63.5569C427.734 64.3949 425.913 65.3798 424.346 66.4858C418.891 70.9379 414.669 75.8286 411.825 80.9911C408.458 86.4683 405.704 92.0582 403.577 97.728C403.18 98.7881 402.732 99.8759 402.335 100.936C399.602 93.3206 398.161 75.8306 425.737 50.1394C425.737 50.1394 360.748 91.4238 363.531 102.498H363.083C363.95 96.8948 363.28 91.2501 361.096 85.7611C359.513 81.1162 355.931 76.759 350.662 73.069C350.176 72.5947 349.501 72.1895 348.692 71.8848C347.882 71.5801 346.958 71.384 345.992 71.3116C353.295 82.6927 342.414 92.5117 329.645 102.191C328.651 95.9614 328.188 89.7408 328.254 83.5296H326.267C319.509 89.6664 318.317 96.138 315.534 102.498H314.988C315.231 96.9026 314.667 91.3053 313.299 85.7611C312.086 80.3347 309.247 75.0626 304.902 70.1679C304.079 68.8975 302.545 67.811 300.529 67.0716C304.852 79.0385 300.529 90.6986 292.381 102.359H292.182C293.87 100.571 294.753 98.5794 294.753 96.5565C294.753 94.5336 293.87 92.5415 292.182 90.7543C291.94 90.8343 291.75 90.9566 291.642 91.1026C291.535 91.2486 291.515 91.4104 291.586 91.5633C291.709 92.6588 291.456 93.7573 290.841 94.7991C288.54 97.8647 284.364 100.368 279.065 101.857C283.919 95.7308 285.853 89.0021 284.68 82.3301C284.037 82.7155 283.681 83.2246 283.686 83.7527C283.213 85.6538 282.397 87.5231 281.251 89.3317C278.754 93.2384 274.885 96.824 269.874 99.8759C268.065 97.2082 267.617 94.3101 268.582 91.5075C270.714 85.1394 275.107 79.0775 281.5 73.6827C286.468 69.6379 298.542 65.8442 305.796 61.9668C306.343 61.6879 307.933 61.3531 306.591 61.1021C305.233 60.9226 303.803 61.053 302.616 61.4647C294.886 62.8152 287.801 65.1328 281.897 68.2432C272.493 72.9093 264.884 78.6046 259.539 84.9801C255.192 89.6653 251.681 94.58 249.055 99.6528C249.055 100.015 248.708 100.378 248.509 100.741C244.882 94.1854 237.28 87.8254 219.691 81.9954C218.747 82.5254 219.691 82.9717 220.387 83.418C223.131 85.0338 225.306 86.9268 226.796 88.9969C229.827 93.5717 227.293 97.7839 219.393 101.689C220.387 91.8981 215.617 82.3022 194.848 73.1248C193.01 73.8221 193.954 74.4916 194.55 75.1332C197.173 77.5675 198.692 80.3262 198.972 83.1669C199.42 90.1964 191.023 96.5007 174.13 102.024C177.657 95.9986 172.788 82.0512 172.788 82.0512C172.026 89.519 166.93 96.6415 158.28 102.331C156.291 97.7059 155.028 92.9923 154.504 88.2438C153.809 81.0481 154.258 73.832 155.845 66.6811C155.845 66.0953 156.541 65.4537 154.255 64.7842C148.133 69.0452 143.437 73.8935 140.393 79.0943C137.263 83.8364 135.425 88.6344 132.642 93.4044C130.307 81.8838 115.054 69.6658 108.147 68.6895C114.263 74.3352 117.319 80.8584 116.942 87.4628C115.881 92.428 112.841 97.1953 108.048 101.41C110.72 98.2332 111.544 94.6646 110.403 91.21C109.261 87.7555 106.213 84.5902 101.688 82.1628C99.9989 82.6091 100.347 83.1111 100.545 83.5853C101.334 85.4767 101.197 87.4527 100.148 89.3038C97.4649 93.8786 89.4159 97.6723 76.1996 101.215C75.653 97.5886 76.6467 91.117 86.1367 82.3022C78.9744 86.917 72.3366 91.7803 66.2625 96.8633C66.1055 91.9471 67.3638 87.0489 69.9889 82.358C74.3301 74.3345 80.2808 66.6139 87.7266 59.3447C63.6788 69.2474 58.2631 88.718 50.6116 99.6528C48.9719 97.5049 41.5191 93.3485 43.5562 88.6343C43.6633 84.9622 41.4249 81.3899 37.2462 78.5643C32.8037 76.1434 27.3822 74.3631 21.4462 73.3758C35.4575 82.2464 27.2097 94.2133 29.2468 102.052C27.5565 100.07 26.096 98.0299 24.8745 95.9428C23.6301 93.3985 22.7168 90.8067 22.1418 88.1881C21.6946 86.9607 21.6946 85.7612 21.4462 84.5059C21.4462 84.5059 21.7443 84.227 20.8996 84.1712C20.6802 84.161 20.4594 84.1782 20.2533 84.2216C20.0471 84.265 19.8606 84.3335 19.7072 84.4222C18.7149 84.828 17.8572 85.3284 17.1732 85.9007C15.2162 88.1287 14.2286 90.5857 14.2915 93.0697C14.1853 95.175 14.3514 97.2819 14.7883 99.3738C8.6996 94.5799 4.71579 89.0456 3.16193 83.2227C3.16193 83.2227 -2.94938 98.0349 1.82042 103.865V499.972H3003.67L3001.88 111.508H2987.92ZM2224.05 98.9833C2224.08 99.1038 2224.08 99.2256 2224.05 99.346C2224 99.1228 2224.05 99.0112 2224.05 98.8717V98.9833ZM1472.91 94.2691C1474.14 96.3472 1474.78 98.5223 1474.8 100.713C1474.2 101.014 1473.57 101.293 1472.91 101.55C1472.21 101.299 1471.62 100.992 1470.97 100.713C1470.98 98.4834 1471.64 96.2698 1472.91 94.1575V94.2691Z" fill="#F4971E"/>
<path d="M3003.71 172.82H1.86328V499.915H3003.71V172.82Z" fill="#FFD695"/>
<rect x="0.0292969" y="306.465" width="3005.97" height="418.423" fill="#FFAB41"/>
<path d="M2988.86 305.322V297.344C2990.61 295.067 2991.22 292.564 2990.62 290.107C2990.03 287.649 2988.25 285.329 2985.48 283.397C2984.39 283.731 2984.64 284.066 2984.74 284.401C2985.18 285.796 2985.03 287.23 2984.29 288.585C2982.42 291.413 2978.93 293.81 2974.35 295.391C2974.35 295.029 2974.35 294.638 2974.35 294.248C2974.54 289.224 2976.91 284.302 2981.26 279.91C2981.49 279.732 2981.62 279.517 2981.62 279.296C2981.62 279.075 2981.49 278.86 2981.26 278.683C2976.56 280.007 2972.37 281.847 2968.96 284.094C2965.55 286.341 2962.97 288.949 2961.38 291.765C2961.56 286.379 2961.08 280.992 2959.94 275.642C2959.2 270.214 2956.78 264.9 2952.79 259.937C2953.66 266.247 2952.84 272.594 2950.35 278.766C2948.12 284.43 2945.32 290.018 2941.96 295.503H2940.27C2939.42 292.429 2938.14 289.397 2936.44 286.437C2934.54 282.643 2931.87 278.984 2928.49 275.53C2926.99 281.28 2924.78 286.966 2921.88 292.546L2910.75 257.51L2902.51 283.481C2900.13 274.575 2894.55 266.033 2886.11 258.375C2885.77 258.79 2885.59 259.242 2885.59 259.7C2885.59 260.158 2885.77 260.61 2886.11 261.025C2888.02 264.426 2889.25 267.934 2889.79 271.486C2890.94 278.179 2888.87 284.924 2883.78 291.012V290.036C2883.48 289.729 2882.88 289.366 2882.83 289.059C2881.45 282.152 2877.43 275.492 2871.06 269.533C2865.32 264.048 2857.11 259.508 2847.26 256.367C2844.26 255.3 2840.85 254.649 2837.32 254.47C2843.43 258.63 2847.7 263.546 2849.76 268.813C2851.83 274.08 2851.63 279.547 2849.19 284.764C2845.89 286.868 2843.13 289.226 2841 291.765C2841.23 286.372 2840.63 280.977 2839.21 275.642C2838.23 270.12 2835.22 264.772 2830.36 259.937C2831.43 266.265 2830.4 272.649 2827.33 278.766C2824.56 284.472 2821.09 290.064 2816.95 295.503H2814.86C2813.75 292.396 2812.08 289.359 2809.89 286.437C2807.45 282.573 2804.11 278.906 2799.96 275.53C2797.94 281.651 2794.98 287.661 2791.11 293.495C2791.25 288.721 2790.78 283.949 2789.72 279.213C2788.82 274.459 2786.57 269.816 2783.06 265.46C2782.47 264.735 2781.92 263.842 2780.08 263.591C2784.26 274.749 2779.09 284.317 2772.08 293.774C2773.29 281.84 2769.08 269.929 2759.86 259.156C2759.27 259.96 2759.27 260.863 2759.86 261.667C2761.26 264.901 2761.99 268.214 2762.05 271.541C2762.1 272.071 2762.1 272.602 2762.05 273.131H2761.7C2756.55 279.448 2753.2 286.178 2751.76 293.076C2751.36 293.467 2750.87 293.829 2750.47 294.22C2750.63 288.097 2750.06 281.974 2748.78 275.893C2747.56 269.653 2744.73 263.546 2740.38 257.761C2739.58 256.333 2738.04 255.07 2735.96 254.135C2739.58 267.127 2737.41 280.418 2729.65 292.825C2728.12 287.077 2722.93 281.835 2715.04 278.069C2714.4 278.487 2715.04 278.878 2715.04 279.268C2716.56 280.725 2717.6 282.321 2718.12 283.983C2718.66 286.183 2718.11 288.423 2716.53 290.459C2714.95 292.495 2712.41 294.25 2709.18 295.531C2710.75 288.132 2709.05 280.629 2704.21 273.689C2703.77 274.171 2703.68 274.733 2703.96 275.251C2704.54 277.29 2704.73 279.355 2704.56 281.416C2704.2 286.49 2701.21 291.394 2695.96 295.531H2695.02C2693.55 289.841 2692.87 284.097 2692.98 278.348H2690.65C2682.15 283.759 2681.21 289.506 2677.43 295.085C2677.83 290.122 2677.18 285.15 2675.49 280.273C2673.88 275.633 2670.49 271.246 2665.56 267.413C2664.45 266.268 2662.7 265.357 2660.59 264.819C2664.42 273.288 2662.4 282.259 2654.92 289.924C2655.32 288.197 2655.08 286.443 2654.22 284.77C2653.37 283.096 2651.92 281.537 2649.96 280.189C2648.91 280.524 2649.11 280.858 2649.21 281.221C2649.68 282.597 2649.53 284.016 2648.76 285.349C2646.77 288.403 2642.91 290.962 2637.88 292.574C2638.28 288.243 2640.58 284.035 2644.59 280.328C2644.59 280.328 2638.33 284.652 2633.36 288.92C2633.36 285.74 2634.06 282.56 2634.55 279.38C2635.45 273.578 2637.73 267.831 2639.52 262.057C2640.42 259.268 2641.76 256.478 2642.85 253.856C2642.85 253.577 2643.65 253.215 2642.5 253.075C2642.13 253.039 2641.74 253.059 2641.39 253.132C2641.03 253.206 2640.71 253.33 2640.47 253.493C2638.34 254.36 2636.45 255.394 2634.85 256.562C2629.36 261.427 2625.13 266.706 2622.28 272.239C2618.9 278.128 2616.17 284.127 2614.08 290.203C2613.69 291.347 2613.24 292.518 2612.84 293.662C2610.11 285.294 2608.67 266.437 2636.19 238.793C2636.19 238.793 2571.25 283.425 2574.04 295.336H2573.74C2574.64 289.317 2573.98 283.257 2571.8 277.344C2570.25 272.371 2566.68 267.665 2561.37 263.591C2560.91 263.097 2560.24 262.672 2559.43 262.352C2558.62 262.032 2557.68 261.825 2556.7 261.75C2564 273.996 2553.07 284.624 2540.3 295.057C2539.31 288.334 2538.86 281.639 2538.96 274.917H2536.97C2530.16 281.556 2528.97 288.529 2526.24 295.391H2525.64C2525.92 289.407 2525.37 283.42 2524 277.483C2522.77 271.693 2519.93 266.047 2515.61 260.746C2514.79 259.399 2513.24 258.229 2511.18 257.399C2515.56 270.314 2511.18 282.923 2503.09 295.503H2502.59C2504.29 293.554 2505.18 291.412 2505.18 289.241C2505.18 287.07 2504.29 284.928 2502.59 282.978C2502.34 283.074 2502.14 283.211 2502.02 283.37C2501.91 283.528 2501.88 283.703 2501.94 283.871C2502.08 285.047 2501.84 286.228 2501.25 287.358C2499.05 290.583 2494.9 293.269 2489.52 294.945C2494.38 288.251 2496.29 280.998 2495.09 273.801C2494.43 274.226 2494.08 274.773 2494.09 275.335C2493.62 277.412 2492.78 279.457 2491.61 281.444C2489.17 285.608 2485.3 289.465 2480.23 292.797C2478.47 289.911 2478.03 286.823 2478.94 283.815C2481.02 276.992 2485.43 270.458 2491.91 264.568C2497.12 260.216 2508.9 256.199 2516.2 251.931C2516.75 251.625 2518.29 251.262 2517 250.983C2516.32 250.888 2515.62 250.874 2514.94 250.941C2514.25 251.009 2513.6 251.156 2513.02 251.374C2505.19 252.875 2498.08 255.376 2492.25 258.682C2482.77 263.827 2475.17 269.969 2469.9 276.758C2465.53 281.85 2462.03 287.165 2459.46 292.63C2459.46 292.993 2459.06 293.411 2458.92 293.801C2454.32 285.216 2444 277.959 2430.1 273.55C2429.15 274.108 2430.1 274.61 2430.74 275.084C2433.56 276.845 2435.75 278.889 2437.2 281.109C2440.23 286.047 2437.65 290.622 2429.8 294.806C2430.79 284.262 2425.97 273.857 2405.21 263.954C2403.42 264.735 2404.31 265.432 2405.21 266.13C2407.79 268.803 2409.27 271.768 2409.53 274.805C2410.02 282.42 2401.58 289.199 2384.69 295.168C2388.21 288.669 2383.29 273.606 2383.29 273.606C2382.63 281.575 2377.56 289.23 2368.79 295.503V295.503C2366.83 290.499 2365.59 285.415 2365.06 280.3C2364.35 272.53 2364.78 264.739 2366.35 257.008C2366.35 256.367 2367.05 255.669 2364.81 254.944C2358.64 259.621 2353.96 264.857 2350.95 270.426C2347.82 275.558 2345.98 280.719 2343.2 285.852C2340.86 273.438 2325.61 260.244 2318.7 259.156C2324.82 265.351 2327.86 272.355 2327.5 279.436C2326.44 284.742 2323.41 289.864 2318.6 294.471C2321.26 291.033 2322.07 287.235 2320.93 283.542C2319.79 279.85 2316.75 276.425 2312.19 273.689C2311.92 273.736 2311.68 273.815 2311.47 273.923C2311.26 274.03 2311.1 274.162 2310.99 274.309C2310.89 274.457 2310.84 274.615 2310.86 274.773C2310.88 274.932 2310.96 275.085 2311.1 275.224C2311.9 277.275 2311.74 279.407 2310.65 281.416C2308.02 286.326 2299.97 290.622 2286.75 294.276C2286.16 290.371 2287.15 283.369 2296.69 273.829C2289.5 278.839 2282.86 284.093 2276.82 289.562C2276.63 284.269 2277.89 278.992 2280.54 273.913C2284.83 265.291 2290.78 256.957 2298.28 249.058C2274.23 259.742 2268.82 280.775 2261.17 292.574C2259.48 290.259 2252.02 285.796 2254.11 280.691C2254.22 276.771 2252 272.943 2247.8 269.812C2243.43 267.249 2238.01 265.333 2232 264.233C2245.96 273.829 2237.77 286.744 2239.8 295.196C2238.92 294.048 2238.14 292.875 2237.47 291.682C2238.28 286.11 2238.19 280.508 2237.22 274.945C2236.58 277.671 2235.45 280.354 2233.84 282.95C2233.84 282.086 2233.39 281.249 2233.14 280.384C2232.75 279.073 2232.7 277.595 2232.5 276.423C2232.5 276.423 2232.8 276.116 2231.95 276.06C2231.73 276.041 2231.51 276.054 2231.3 276.098C2231.09 276.142 2230.9 276.215 2230.76 276.312C2229.74 276.753 2228.87 277.303 2228.23 277.929C2226.86 279.485 2226.02 281.168 2225.74 282.895C2225.42 281.152 2224.56 279.453 2223.21 277.874C2222.56 277.247 2221.7 276.697 2220.67 276.256C2220.53 276.157 2220.35 276.082 2220.14 276.038C2219.93 275.994 2219.7 275.982 2219.48 276.005C2218.64 276.005 2218.98 276.228 2218.93 276.367C2218.93 277.678 2218.64 279.017 2218.29 280.328L2217.54 282.95C2215.98 280.377 2214.86 277.723 2214.21 275.028C2213.24 280.545 2213.14 286.099 2213.92 291.626C2213.27 292.797 2212.52 293.941 2211.63 295.141C2213.67 286.772 2205.47 273.717 2219.43 264.149C2213.42 265.245 2207.99 267.162 2203.63 269.728C2199.38 272.846 2197.16 276.683 2197.32 280.607C2199.36 285.712 2191.96 290.175 2190.27 292.49C2182.61 280.691 2177.2 259.658 2153.15 248.975C2160.66 256.871 2166.61 265.206 2170.89 273.829C2173.52 278.911 2174.78 284.186 2174.61 289.478C2168.57 284.01 2161.93 278.755 2154.74 273.745C2164.18 283.285 2165.17 290.259 2164.68 294.192C2151.46 290.51 2143.41 286.242 2140.78 281.333C2139.66 279.326 2139.52 277.187 2140.38 275.14C2140.38 274.61 2140.88 274.108 2139.19 273.606C2134.64 276.347 2131.62 279.773 2130.49 283.464C2129.36 287.155 2130.17 290.952 2132.83 294.387C2128.02 289.78 2124.99 284.658 2123.94 279.352C2123.55 272.27 2126.59 265.262 2132.73 259.072C2125.82 260.16 2110.57 273.355 2108.28 285.768C2105.3 280.635 2103.61 275.447 2100.48 270.342C2097.49 264.771 2092.8 259.534 2086.62 254.86C2084.34 255.586 2084.98 256.283 2085.08 256.925C2086.64 264.656 2087.09 272.445 2086.42 280.217C2085.85 285.34 2084.59 290.431 2082.65 295.447V295.447C2073.93 289.143 2068.87 281.491 2068.14 273.522C2068.14 273.522 2063.17 288.585 2066.8 295.085C2049.9 289.115 2041.46 282.309 2041.95 274.721C2042.21 271.684 2043.69 268.718 2046.28 266.046C2046.97 265.349 2047.87 264.624 2046.03 263.87C2025.26 273.773 2020.49 284.178 2021.48 294.75C2013.58 290.51 2011.05 285.963 2014.08 281.026C2015.55 278.816 2017.72 276.775 2020.49 275C2021.24 274.498 2022.13 274.024 2021.19 273.466C2003.6 279.77 1996.05 286.633 1992.42 293.718C1992.17 293.326 1991.97 292.925 1991.82 292.518C1989.23 287.062 1985.72 281.756 1981.34 276.674C1976.1 269.875 1968.5 263.73 1958.98 258.598C1953.19 255.292 1946.11 252.782 1938.31 251.262C1937.12 251.039 1935.98 250.537 1934.29 250.871C1932.6 251.206 1934.53 251.541 1935.08 251.848C1942.38 256.032 1954.11 260.216 1959.38 264.484C1965.86 270.369 1970.25 276.906 1972.3 283.731C1973.25 286.736 1972.82 289.827 1971.05 292.714C1965.98 289.381 1962.12 285.525 1959.68 281.36C1958.5 279.365 1957.66 277.31 1957.19 275.224C1957.19 274.662 1956.84 274.119 1956.2 273.689C1955 280.895 1956.91 288.157 1961.76 294.861C1956.38 293.177 1952.23 290.48 1950.04 287.246C1949.44 286.115 1949.19 284.937 1949.29 283.759C1949.36 283.598 1949.34 283.429 1949.24 283.274C1949.13 283.12 1948.94 282.987 1948.7 282.895C1946.99 284.849 1946.11 286.996 1946.11 289.171C1946.11 291.346 1946.99 293.493 1948.7 295.447H1948.2C1939.95 282.839 1935.73 270.342 1940.1 257.287C1938.04 258.127 1936.49 259.307 1935.68 260.662C1931.32 265.958 1928.49 271.606 1927.28 277.399C1925.93 283.356 1925.36 289.36 1925.59 295.364H1925.04C1922.31 288.474 1921.12 281.416 1914.31 274.861H1912.33C1912.33 281.584 1911.98 288.278 1910.98 295.001C1898.16 284.568 1887.33 273.94 1894.59 261.667C1893.6 261.751 1892.67 261.964 1891.86 262.289C1891.04 262.613 1890.38 263.04 1889.92 263.536C1884.61 267.599 1881.04 272.296 1879.48 277.26C1877.3 283.193 1876.65 289.271 1877.55 295.308H1877.05C1879.83 283.313 1814.89 238.737 1814.89 238.737C1842.42 266.381 1840.98 285.377 1838.29 293.606C1837.85 292.435 1837.4 291.291 1837 290.147C1834.9 284.062 1832.15 278.053 1828.75 272.155C1825.93 266.635 1821.73 261.366 1816.28 256.506C1814.7 255.335 1812.86 254.276 1810.82 253.354C1810.57 253.191 1810.26 253.066 1809.9 252.993C1809.54 252.92 1809.16 252.9 1808.78 252.936C1807.64 252.936 1808.33 253.438 1808.43 253.717C1809.53 256.506 1810.87 259.156 1811.76 261.89C1813.5 267.664 1815.84 273.438 1816.73 279.24C1817.18 282.42 1817.72 285.6 1817.92 288.78C1812.95 284.513 1806.45 279.994 1806.45 279.994C1810.44 283.705 1812.74 287.91 1813.15 292.239C1808.12 290.629 1804.26 288.07 1802.27 285.015C1801.53 283.679 1801.38 282.262 1801.82 280.886C1801.82 280.524 1802.12 280.161 1801.03 279.826C1799.05 281.176 1797.59 282.739 1796.74 284.418C1795.88 286.098 1795.65 287.858 1796.06 289.589C1788.57 281.927 1786.54 272.953 1790.4 264.484C1788.28 265.023 1786.54 265.933 1785.43 267.078C1780.49 270.908 1777.1 275.297 1775.49 279.938C1773.83 284.817 1773.18 289.787 1773.55 294.75C1769.78 289.171 1768.83 283.397 1760.34 278.013H1758C1758.12 283.771 1757.43 289.525 1755.97 295.224H1755.02C1749.77 291.068 1746.78 286.145 1746.43 281.054C1746.22 279.002 1746.42 276.944 1747.02 274.917C1747.26 274.395 1747.17 273.844 1746.77 273.355C1741.91 280.3 1740.2 287.816 1741.8 295.224V295.224C1738.57 293.94 1736.02 292.182 1734.43 290.141C1732.84 288.1 1732.28 285.855 1732.81 283.648C1733.36 281.99 1734.4 280.396 1735.89 278.934C1736.29 278.543 1736.74 278.153 1735.89 277.734C1728.02 281.501 1722.85 286.744 1721.33 292.49C1713.44 280.102 1711.14 266.81 1714.63 253.8C1712.54 254.723 1711 255.977 1710.2 257.399C1705.86 263.194 1703.04 269.31 1701.81 275.558C1700.52 281.639 1699.97 287.762 1700.17 293.885C1699.67 293.495 1699.22 293.104 1698.83 292.741C1697.37 285.845 1694.02 279.116 1688.89 272.797H1688.54C1688.54 272.267 1688.54 271.765 1688.54 271.207C1688.65 267.881 1689.39 264.572 1690.73 261.332C1691.03 260.94 1691.19 260.518 1691.19 260.091C1691.19 259.663 1691.03 259.241 1690.73 258.849C1681.5 269.622 1677.3 281.533 1678.51 293.467C1671.5 284.01 1666.33 274.331 1670.46 263.285C1668.67 263.536 1668.12 264.4 1667.52 265.153C1664 269.496 1661.75 274.131 1660.87 278.878C1659.79 283.614 1659.31 288.386 1659.43 293.16C1655.56 287.328 1652.62 281.317 1650.63 275.196C1646.46 278.575 1643.12 282.252 1640.69 286.13C1638.63 289.074 1637.05 292.118 1635.97 295.224H1633.89C1629.77 289.781 1626.3 284.19 1623.5 278.487C1620.42 272.371 1619.41 265.984 1620.52 259.658C1615.63 264.486 1612.6 269.836 1611.63 275.363C1610.2 280.698 1609.61 286.093 1609.84 291.486C1607.68 288.949 1604.92 286.585 1601.64 284.457C1599.19 279.245 1598.99 273.781 1601.06 268.517C1603.12 263.253 1607.39 258.342 1613.52 254.191C1610 254.391 1606.6 255.029 1603.58 256.06C1593.74 259.212 1585.55 263.763 1579.83 269.254C1573.42 275.207 1569.39 281.868 1568 288.78C1567.83 289.146 1567.53 289.487 1567.11 289.785V290.51C1562.03 284.421 1559.95 277.677 1561.1 270.984C1561.63 267.438 1562.88 263.938 1564.83 260.551C1565.17 260.136 1565.35 259.683 1565.35 259.226C1565.35 258.768 1565.17 258.316 1564.83 257.901C1556.41 265.565 1550.83 274.104 1548.43 283.006L1540.18 257.036L1529.1 292.072C1526.19 286.483 1523.96 280.789 1522.44 275.028C1519.05 278.491 1516.36 282.159 1514.44 285.963C1512.76 288.935 1511.48 291.975 1510.62 295.057H1508.98C1505.63 289.569 1502.83 283.982 1500.58 278.32C1498.09 272.148 1497.27 265.8 1498.15 259.491C1494.16 264.453 1491.74 269.767 1490.99 275.196C1489.92 280.315 1489.42 285.467 1489.5 290.622C1489.3 287.803 1487.43 285.103 1484.19 282.95C1483.14 283.285 1483.34 283.62 1483.49 283.983C1483.54 284.27 1483.54 284.56 1483.49 284.847C1481.94 283.578 1480.1 282.425 1478.02 281.416C1478.57 280.775 1479.12 280.105 1479.71 279.464C1479.95 279.286 1480.07 279.071 1480.07 278.85C1480.07 278.629 1479.95 278.414 1479.71 278.236C1478 278.759 1476.34 279.337 1474.75 279.966C1473.15 279.336 1471.49 278.758 1469.78 278.236C1469.54 278.412 1469.4 278.628 1469.4 278.85C1469.4 279.072 1469.54 279.288 1469.78 279.464C1470.37 280.105 1470.92 280.775 1471.47 281.416C1469.38 282.425 1467.52 283.578 1465.95 284.847C1465.95 284.568 1465.95 284.262 1465.95 283.983C1465.95 283.704 1466.25 283.285 1465.21 282.95C1461.98 285.122 1460.12 287.826 1459.89 290.649C1460.02 285.485 1459.52 280.322 1458.4 275.196C1457.67 269.769 1455.27 264.455 1451.29 259.491C1452.17 265.8 1451.35 272.148 1448.86 278.32C1446.61 283.982 1443.81 289.569 1440.46 295.057H1438.77C1437.93 291.973 1436.66 288.932 1434.95 285.963C1433.05 282.16 1430.38 278.491 1427 275.028C1425.48 280.789 1423.25 286.483 1420.34 292.072L1409.21 257.036L1400.96 282.978C1398.6 274.074 1393.04 265.533 1384.62 257.873C1384.26 258.286 1384.07 258.739 1384.07 259.198C1384.07 259.657 1384.26 260.11 1384.62 260.523C1386.56 263.91 1387.81 267.41 1388.34 270.956C1389.48 277.652 1387.38 284.396 1382.28 290.482V290.036C1381.98 289.701 1381.44 289.366 1381.39 289.032C1380 282.124 1375.98 275.465 1369.61 269.505C1363.86 264.017 1355.66 259.469 1345.81 256.311C1342.79 255.275 1339.4 254.636 1335.87 254.442C1341.99 258.594 1346.26 263.507 1348.31 268.771C1350.37 274.035 1350.16 279.499 1347.7 284.708C1344.42 286.831 1341.68 289.196 1339.55 291.737C1339.77 286.343 1339.15 280.949 1337.71 275.614C1336.78 270.087 1333.77 264.733 1328.87 259.909C1329.96 266.235 1328.95 272.619 1325.89 278.738C1323.07 284.437 1319.6 290.028 1315.5 295.475H1313.42C1312.34 292.37 1310.76 289.326 1308.7 286.382C1306.25 282.508 1302.91 278.832 1298.76 275.447C1296.73 281.565 1293.77 287.576 1289.92 293.411C1290.03 288.637 1289.55 283.865 1288.47 279.129C1287.58 274.386 1285.35 269.753 1281.87 265.405C1281.22 264.651 1280.72 263.787 1278.89 263.536C1283.06 274.694 1277.89 284.262 1270.89 293.718C1272.08 281.782 1267.85 269.871 1258.61 259.1C1258.31 259.492 1258.15 259.914 1258.15 260.342C1258.15 260.769 1258.31 261.192 1258.61 261.583C1259.94 264.823 1260.66 268.133 1260.75 271.458C1260.75 272.016 1260.75 272.518 1260.75 273.048H1260.35C1254.24 279.491 1252.7 286.27 1250.42 292.993L1249.12 294.136C1249.32 288.013 1248.78 281.89 1247.48 275.809C1246.26 269.557 1243.42 263.439 1239.04 257.65C1238.26 256.23 1236.74 254.975 1234.67 254.051C1237.9 267.066 1235.36 280.329 1227.26 292.658C1225.79 286.904 1220.61 281.654 1212.7 277.902C1212.01 278.32 1212.46 278.71 1212.7 279.101C1214.2 280.563 1215.24 282.157 1215.78 283.815C1216.3 286.021 1215.74 288.265 1214.15 290.304C1212.57 292.344 1210.02 294.103 1206.79 295.391V295.391C1208.45 287.995 1206.83 280.482 1202.07 273.522C1201.63 274.004 1201.54 274.565 1201.82 275.084C1202.37 277.114 1202.57 279.169 1202.42 281.221C1202.04 286.31 1199.06 291.23 1193.82 295.391H1192.83C1191.4 289.69 1190.74 283.937 1190.84 278.18H1188.46C1180.01 283.592 1179.02 289.338 1175.24 294.917C1175.63 289.956 1174.99 284.985 1173.35 280.105C1171.74 275.465 1168.35 271.077 1163.42 267.246C1162.31 266.097 1160.57 265.185 1158.45 264.651C1162.25 273.122 1160.23 282.086 1152.78 289.757C1153.17 288.025 1152.93 286.268 1152.08 284.59C1151.23 282.912 1149.78 281.348 1147.81 279.994C1146.72 280.328 1146.92 280.691 1147.07 281.054C1147.49 282.431 1147.34 283.844 1146.62 285.182C1144.61 288.229 1140.76 290.784 1135.74 292.407C1136.1 288.073 1138.41 283.86 1142.45 280.161C1142.45 280.161 1135.89 284.68 1130.97 288.948C1130.97 285.768 1131.67 282.588 1132.16 279.408C1133.01 273.606 1135.34 267.831 1137.13 262.057C1137.98 259.268 1139.37 256.478 1140.46 253.884C1140.46 253.605 1141.21 253.242 1140.06 253.103C1139.69 253.067 1139.3 253.087 1138.95 253.16C1138.59 253.234 1138.27 253.358 1138.03 253.521C1135.99 254.436 1134.17 255.496 1132.61 256.674C1127.15 261.533 1122.93 266.801 1120.09 272.322C1116.71 278.221 1113.98 284.23 1111.89 290.315C1111.49 291.458 1111.05 292.602 1110.65 293.774C1107.87 285.545 1106.48 266.548 1134 238.905C1134 238.905 1069.06 283.536 1071.85 295.475H1071.3C1072.22 289.44 1071.58 283.361 1069.41 277.427C1067.82 272.465 1064.23 267.771 1058.93 263.703C1058.46 263.208 1057.8 262.781 1056.99 262.456C1056.18 262.131 1055.24 261.918 1054.26 261.834C1061.56 274.108 1050.68 284.736 1037.91 295.168C1036.92 288.446 1036.47 281.751 1036.57 275.028H1034.58C1027.77 281.667 1026.58 288.641 1023.85 295.531H1023.25C1023.5 289.528 1022.95 283.524 1021.61 277.567C1020.38 271.777 1017.55 266.13 1013.22 260.83C1012.4 259.474 1010.86 258.295 1008.79 257.455C1013.17 270.398 1008.79 283.006 1000.65 295.615H1000.2C1001.89 293.659 1002.77 291.513 1002.77 289.338C1002.77 287.164 1001.89 285.018 1000.2 283.062C999.95 283.153 999.756 283.285 999.64 283.439C999.525 283.593 999.495 283.763 999.553 283.927C999.633 285.053 999.347 286.178 998.709 287.246C996.552 290.492 992.391 293.194 986.983 294.861C991.833 288.156 993.758 280.897 992.598 273.689C991.943 274.117 991.574 274.66 991.554 275.224C991.1 277.309 990.284 279.364 989.12 281.36C986.68 285.525 982.815 289.381 977.742 292.714C975.953 289.83 975.525 286.736 976.499 283.731C978.548 276.911 982.917 270.377 989.368 264.484C994.635 260.132 1006.41 256.116 1013.66 251.848C1014.21 251.541 1015.8 251.15 1014.46 250.871C1013.12 250.592 1011.63 251.039 1010.48 251.262C1002.67 252.782 995.578 255.293 989.765 258.598C980.277 263.744 972.68 269.885 967.407 276.674C963.023 281.756 959.512 287.062 956.923 292.518C956.923 292.937 956.526 293.299 956.377 293.718C952.75 286.633 945.198 279.77 927.609 273.466C926.615 274.024 927.609 274.498 928.255 275C931.033 276.775 933.221 278.816 934.714 281.026C937.745 285.963 935.161 290.51 927.311 294.75C928.305 284.178 923.485 273.773 902.716 263.87C900.928 264.624 901.822 265.349 902.468 266.046C905.048 268.721 906.541 271.684 906.84 274.721C907.288 282.309 898.891 289.115 881.998 295.113C885.525 288.585 880.656 273.522 880.656 273.522C879.984 281.498 874.915 289.16 866.148 295.447V295.447C864.185 290.433 862.922 285.341 862.372 280.217C861.702 272.445 862.15 264.656 863.713 256.925C863.713 256.283 864.409 255.586 862.173 254.86C855.984 259.533 851.277 264.77 848.261 270.342C845.181 275.447 843.293 280.635 840.51 285.768C838.225 273.355 822.971 260.16 816.015 259.072C822.168 265.261 825.224 272.268 824.859 279.352C823.783 284.66 820.736 289.782 815.916 294.387C818.572 290.952 819.386 287.155 818.256 283.464C817.126 279.773 814.103 276.347 809.556 273.606C807.867 274.108 808.215 274.61 808.413 275.14C809.227 277.189 809.09 279.321 808.016 281.333C805.333 286.242 797.284 290.51 784.117 294.192C783.471 290.259 784.515 283.285 794.054 273.745C794.054 273.745 785.807 279.324 778.751 285.294C778.072 284.607 777.291 283.954 776.416 283.341C775.323 283.676 775.522 284.01 775.671 284.373C776.069 285.653 775.967 286.967 775.373 288.222C774.876 288.641 774.429 289.059 773.981 289.478C773.843 284.187 775.099 278.914 777.708 273.829C782.01 265.21 787.957 256.877 795.446 248.975C777.758 256.841 770.205 270.258 764.392 281.5C760.085 283.465 756.677 285.981 754.455 288.836C753.507 287.95 752.708 287.016 752.07 286.047C752.07 282.504 751.474 279.017 750.679 275.53C749.951 270.104 747.547 264.79 743.574 259.826C743.947 262.891 743.947 265.966 743.574 269.031C739.459 266.76 734.458 265.06 728.966 264.066C739.699 271.43 737.314 280.802 736.568 288.557C735.972 289.701 735.326 290.845 734.68 292.016C734.034 290.873 733.438 289.757 732.842 288.613C731.643 285.856 730.731 283.061 730.109 280.245C729.712 278.934 729.662 277.455 729.414 276.284C729.414 276.144 729.712 275.949 728.917 275.921C728.689 275.902 728.456 275.915 728.239 275.958C728.022 276.002 727.828 276.076 727.675 276.172C726.651 276.614 725.79 277.163 725.141 277.79C724.434 278.61 723.884 279.471 723.501 280.356C722.26 278.644 720.833 276.977 719.228 275.363C718.383 278.599 717.241 281.807 715.949 284.987C713.574 281.736 711.906 278.336 710.98 274.861C710.98 274.861 710.086 279.826 710.185 285.238L701.292 257.343L693.094 283.285C690.691 274.383 685.114 265.844 676.697 258.18C676.341 258.593 676.156 259.046 676.156 259.505C676.156 259.964 676.341 260.417 676.697 260.83C678.638 264.217 679.888 267.717 680.424 271.262C681.573 277.956 679.496 284.7 674.412 290.789V290.036C673.978 289.741 673.656 289.399 673.468 289.032C672.081 282.124 668.065 275.465 661.692 269.505C655.944 264.017 647.739 259.469 637.893 256.311C634.87 255.28 631.475 254.642 627.956 254.442C634.068 258.597 638.333 263.508 640.398 268.77C642.463 274.033 642.268 279.496 639.831 284.708C636.521 286.822 633.761 289.189 631.633 291.737C631.842 286.344 631.243 280.951 629.844 275.614C628.869 270.087 625.839 264.737 620.95 259.909C622.063 266.235 621.051 272.622 617.969 278.738C615.154 284.437 611.685 290.028 607.585 295.475H606.194C605.037 292.365 603.374 289.321 601.225 286.382C598.758 282.513 595.418 278.838 591.288 275.447C589.258 281.565 586.3 287.576 582.444 293.411C582.561 288.637 582.08 283.865 581.003 279.129C580.136 274.384 577.904 269.749 574.395 265.405C573.799 264.651 573.252 263.787 571.414 263.536C575.587 274.694 570.37 284.262 563.414 293.718C564.604 281.782 560.381 269.871 551.142 259.1C550.848 259.493 550.697 259.915 550.697 260.342C550.697 260.768 550.848 261.19 551.142 261.583C552.508 264.82 553.241 268.131 553.328 271.458C553.328 272.016 553.328 272.518 553.328 273.048H552.931C547.777 279.363 544.424 286.093 542.994 292.993L541.652 294.136C541.827 288.014 541.28 281.891 540.013 275.809C538.784 269.561 535.956 263.445 531.616 257.65C530.782 256.239 529.248 254.99 527.194 254.051C530.656 267.062 528.352 280.35 520.486 292.741C518.976 286.989 513.782 281.743 505.879 277.985C505.183 278.404 505.879 278.794 505.879 279.185C507.432 280.634 508.493 282.232 509.009 283.899C509.536 286.106 508.976 288.351 507.391 290.392C505.806 292.433 503.255 294.191 500.016 295.475V295.475C501.57 288.067 499.864 280.558 495.047 273.606C494.683 274.106 494.683 274.667 495.047 275.168C495.595 277.198 495.795 279.253 495.643 281.305C495.228 286.373 492.208 291.266 486.949 295.391H486.005C484.51 289.694 483.829 283.939 483.967 278.18H481.632C473.136 283.592 472.142 289.338 468.366 294.917C468.752 289.956 468.119 284.985 466.478 280.105C464.867 275.465 461.476 271.077 456.541 267.246C455.431 266.101 453.687 265.19 451.572 264.651C455.416 273.118 453.41 282.087 445.958 289.757C446.359 288.025 446.126 286.266 445.271 284.587C444.417 282.908 442.96 281.345 440.989 279.994C439.896 280.328 440.145 280.691 440.194 281.054C440.659 282.428 440.522 283.844 439.797 285.182C437.78 288.229 433.932 290.784 428.916 292.407C429.328 288.078 431.632 283.872 435.623 280.161C435.623 280.161 429.065 284.68 424.096 288.948C424.096 285.768 424.842 282.588 425.339 279.408C426.183 273.606 428.518 267.831 430.307 262.057C431.152 259.268 432.543 256.478 433.636 253.884C433.636 253.605 434.381 253.242 433.239 253.103C432.864 253.067 432.478 253.087 432.121 253.16C431.764 253.234 431.447 253.358 431.201 253.521C429.069 254.391 427.148 255.413 425.488 256.562C420.022 261.421 415.807 266.689 412.967 272.211C409.59 278.11 406.852 284.118 404.769 290.203C404.371 291.347 403.874 292.49 403.477 293.662C400.744 285.433 399.303 266.437 426.879 238.793C426.879 238.793 361.94 283.425 364.673 295.364H364.225C365.075 289.326 364.423 283.252 362.288 277.316C360.713 272.355 357.145 267.661 351.854 263.591C351.384 263.099 350.718 262.674 349.908 262.35C349.098 262.026 348.166 261.811 347.183 261.722C354.437 273.996 343.556 284.624 330.787 295.057C329.793 288.334 329.346 281.639 329.446 274.917H327.458C320.651 281.556 319.459 288.529 316.726 295.419H316.13C316.352 289.417 315.804 283.413 314.49 277.455C313.241 271.664 310.392 266.017 306.044 260.718C305.267 259.359 303.735 258.176 301.671 257.343C305.994 270.286 301.671 282.895 293.523 295.503H293.175C294.878 293.549 295.763 291.402 295.763 289.227C295.763 287.051 294.878 284.905 293.175 282.95C292.926 283.042 292.731 283.173 292.616 283.327C292.501 283.481 292.471 283.651 292.529 283.815C292.633 284.979 292.347 286.142 291.685 287.246C289.504 290.492 285.328 293.193 279.909 294.861C284.812 288.164 286.739 280.898 285.524 273.689C284.927 274.134 284.581 274.668 284.53 275.224C284.075 277.309 283.26 279.364 282.095 281.36C279.655 285.525 275.79 289.381 270.717 292.714C268.929 289.83 268.501 286.736 269.475 283.731C271.524 276.911 275.893 270.377 282.344 264.484C287.61 260.132 299.386 256.116 306.69 251.848C307.236 251.541 308.776 251.15 307.435 250.871C306.093 250.592 304.603 251.039 303.46 251.262C295.643 252.782 288.553 255.293 282.741 258.598C273.253 263.744 265.656 269.885 260.383 276.674C256.02 281.761 252.51 287.066 249.899 292.518C249.899 292.937 249.551 293.299 249.353 293.718C245.726 286.633 238.124 279.77 220.585 273.466C219.591 274.024 220.585 274.498 221.231 275C224.044 276.761 226.236 278.806 227.69 281.026C230.671 285.963 228.137 290.51 220.237 294.75C221.231 284.178 216.461 273.773 195.742 263.87C193.904 264.624 194.798 265.349 195.444 266.046C198.047 268.716 199.542 271.682 199.816 274.721C200.263 282.309 191.867 289.115 174.973 295.113C178.501 288.585 173.632 273.522 173.632 273.522C172.911 281.485 167.807 289.126 159.024 295.391V295.391C157.061 290.378 155.798 285.285 155.248 280.161C154.578 272.389 155.027 264.6 156.59 256.869C156.59 256.227 157.285 255.53 155.05 254.805C148.874 259.478 144.185 264.716 141.187 270.286C138.057 275.391 136.219 280.579 133.387 285.712C131.052 273.299 115.798 260.105 108.941 259.017C115.044 265.214 118.064 272.218 117.686 279.296C116.669 284.603 113.655 289.728 108.842 294.331C111.473 290.891 112.268 287.096 111.13 283.407C109.992 279.718 106.971 276.293 102.433 273.55C100.743 274.052 101.091 274.554 101.29 275.084C102.103 277.133 101.966 279.266 100.892 281.277C98.2094 286.186 90.2101 290.454 76.9937 294.136C76.3975 290.203 77.3912 283.229 86.9308 273.689C79.7615 278.71 73.1253 283.963 67.0566 289.422C66.9186 284.131 68.1743 278.858 70.783 273.773C75.0851 265.154 81.0322 256.821 88.5208 248.919C64.473 259.602 59.107 280.635 51.4057 292.435C49.7661 290.119 42.3133 285.656 44.3504 280.551C44.5143 276.628 42.2883 272.79 38.0403 269.673C33.7049 267.102 28.2892 265.184 22.29 264.094C36.2516 273.661 28.0039 286.605 30.0907 295.085C28.539 292.986 27.2279 290.834 26.1655 288.641C24.9669 285.884 24.0545 283.089 23.4328 280.273C22.9856 278.961 22.9856 277.483 22.7372 276.312C22.7372 276.172 23.0353 275.977 22.2403 275.949C22.0125 275.93 21.7797 275.943 21.5629 275.986C21.346 276.03 21.152 276.103 20.9982 276.2C19.9965 276.655 19.1397 277.202 18.4642 277.818C16.5198 280.246 15.5366 282.882 15.5825 285.545C15.501 287.817 15.6669 290.09 16.0793 292.351C9.95483 287.084 5.98428 281.12 4.45295 274.889C4.45295 274.889 -1.65837 290.928 3.11144 297.205V725H3004.61L3002.77 305.322H2988.86ZM2224.95 291.765C2224.95 291.765 2224.95 292.044 2224.95 292.156C2224.95 292.156 2224.95 291.933 2224.95 291.765ZM1473.8 286.688C1475.05 288.947 1475.71 291.297 1475.74 293.662C1475.09 293.969 1474.5 294.276 1473.8 294.555L1471.91 293.662C1471.95 291.299 1472.59 288.951 1473.8 286.688Z" fill="#FFAB41"/>
<path d="M2099.92 35.73V20.01L1944.23 20.01V35.73L2099.92 35.73Z" fill="#A6835C"/>
<path d="M2099.93 63.49V47.77L1944.24 47.77V63.49L2099.93 63.49Z" fill="#A6835C"/>
<path d="M2099.92 91.26V75.54L1944.23 75.54V91.26L2099.92 91.26Z" fill="#A6835C"/>
<path d="M2099.93 119.02V103.3L1944.24 103.3V119.02L2099.93 119.02Z" fill="#A6835C"/>
<path d="M2099.92 146.79V131.07H1944.23V146.79H2099.92Z" fill="#A6835C"/>
<path d="M1799.51 35.73V20.01L1643.82 20.01V35.73L1799.51 35.73Z" fill="#A6835C"/>
<path d="M1799.52 63.49V47.77L1643.83 47.77V63.49L1799.52 63.49Z" fill="#A6835C"/>
<path d="M1799.51 91.26V75.54L1643.82 75.54V91.26L1799.51 91.26Z" fill="#A6835C"/>
<path d="M1799.52 119.02V103.3L1643.83 103.3V119.02L1799.52 119.02Z" fill="#A6835C"/>
<path d="M1799.52 146.79V131.07H1643.83V146.79H1799.52Z" fill="#A6835C"/>
<path d="M1948.33 35.73V20.01L1792.64 20.01V35.73L1948.33 35.73Z" fill="#A6835C"/>
<path d="M1948.34 63.49V47.77L1792.65 47.77V63.49L1948.34 63.49Z" fill="#A6835C"/>
<path d="M1948.33 91.26V75.54L1792.64 75.54V91.26L1948.33 91.26Z" fill="#A6835C"/>
<path d="M1948.34 119.02V103.3L1792.65 103.3V119.02L1948.34 119.02Z" fill="#A6835C"/>
<path d="M1948.34 146.79V131.07H1792.65V146.79H1948.34Z" fill="#A6835C"/>
<path d="M1660.22 0H1637V172.64H1660.22V0Z" fill="#C3996B"/>
<path d="M1808.03 0H1784.81V172.64H1808.03V0Z" fill="#C3996B"/>
<path d="M1955.84 0H1932.62V172.64H1955.84V0Z" fill="#C3996B"/>
<path d="M2551.23 35.73V20.01L2395.54 20.01V35.73L2551.23 35.73Z" fill="#A6835C"/>
<path d="M2551.24 63.49V47.77L2395.55 47.77V63.49L2551.24 63.49Z" fill="#A6835C"/>
<path d="M2551.23 91.26V75.54L2395.54 75.54V91.26L2551.23 91.26Z" fill="#A6835C"/>
<path d="M2551.24 119.02V103.3L2395.55 103.3V119.02L2551.24 119.02Z" fill="#A6835C"/>
<path d="M2551.23 146.79V131.07H2395.54V146.79H2551.23Z" fill="#A6835C"/>
<path d="M2250.82 35.72V20L2095.13 20V35.72L2250.82 35.72Z" fill="#A6835C"/>
<path d="M2250.83 63.4901V47.77L2095.14 47.77V63.4901L2250.83 63.4901Z" fill="#A6835C"/>
<path d="M2250.83 91.2601V75.54L2095.14 75.54V91.2601L2250.83 91.2601Z" fill="#A6835C"/>
<path d="M2250.83 119.02V103.3L2095.14 103.3V119.02L2250.83 119.02Z" fill="#A6835C"/>
<path d="M2250.83 146.79V131.07H2095.14V146.79H2250.83Z" fill="#A6835C"/>
<path d="M2399.64 35.72V20L2243.95 20V35.72L2399.64 35.72Z" fill="#A6835C"/>
<path d="M2399.65 63.4901V47.77L2243.96 47.77V63.4901L2399.65 63.4901Z" fill="#A6835C"/>
<path d="M2399.64 91.2601V75.54L2243.95 75.54V91.2601L2399.64 91.2601Z" fill="#A6835C"/>
<path d="M2399.65 119.02V103.3L2243.96 103.3V119.02L2399.65 119.02Z" fill="#A6835C"/>
<path d="M2399.65 146.79V131.07H2243.96V146.79H2399.65Z" fill="#A6835C"/>
<path d="M2111.53 0H2088.31V172.64H2111.53V0Z" fill="#C3996B"/>
<path d="M2259.34 0H2236.12V172.64H2259.34V0Z" fill="#C3996B"/>
<path d="M2407.15 0H2383.93V172.64H2407.15V0Z" fill="#C3996B"/>
<path d="M3003.52 35.73V20.01L2847.83 20.01V35.73L3003.52 35.73Z" fill="#A6835C"/>
<path d="M3003.52 63.5V47.78L2847.83 47.78V63.5L3003.52 63.5Z" fill="#A6835C"/>
<path d="M3003.52 91.26V75.54L2847.83 75.54V91.26L3003.52 91.26Z" fill="#A6835C"/>
<path d="M3003.52 119.03V103.31L2847.83 103.31V119.03L3003.52 119.03Z" fill="#A6835C"/>
<path d="M3003.52 146.79V131.07H2847.83V146.79H3003.52Z" fill="#A6835C"/>
<path d="M2703.11 35.73V20.01L2547.42 20.01V35.73L2703.11 35.73Z" fill="#A6835C"/>
<path d="M2703.12 63.49V47.77L2547.43 47.77V63.49L2703.12 63.49Z" fill="#A6835C"/>
<path d="M2703.11 91.26V75.54L2547.42 75.54V91.26L2703.11 91.26Z" fill="#A6835C"/>
<path d="M2703.12 119.03V103.31L2547.43 103.31V119.03L2703.12 119.03Z" fill="#A6835C"/>
<path d="M2703.11 146.79V131.07H2547.42V146.79H2703.11Z" fill="#A6835C"/>
<path d="M2851.93 35.73V20.01L2696.24 20.01V35.73L2851.93 35.73Z" fill="#A6835C"/>
<path d="M2851.94 63.49V47.77L2696.25 47.77V63.49L2851.94 63.49Z" fill="#A6835C"/>
<path d="M2851.93 91.26V75.54L2696.24 75.54V91.26L2851.93 91.26Z" fill="#A6835C"/>
<path d="M2851.94 119.03V103.31L2696.25 103.31V119.03L2851.94 119.03Z" fill="#A6835C"/>
<path d="M2851.93 146.79V131.07H2696.24V146.79H2851.93Z" fill="#A6835C"/>
<path d="M2563.82 0H2540.6V172.64H2563.82V0Z" fill="#C3996B"/>
<path d="M2711.63 0H2688.41V172.64H2711.63V0Z" fill="#C3996B"/>
<path d="M2859.44 0H2836.22V172.64H2859.44V0Z" fill="#C3996B"/>
</svg>
