<svg width="471" height="331" viewBox="0 0 471 331" fill="none" xmlns="http://www.w3.org/2000/svg">
<path d="M183.125 51.3819H162.904V49.6567C161.987 28.4371 139.652 10.5816 111.681 6.52744L107.877 6.09615C105.762 6.09615 103.649 6.09614 101.535 5.66485H97.4487C95.4055 5.66485 93.2918 5.66485 91.178 6.09615L87.3733 6.52744C59.1904 10.5816 37.419 28.4371 36.2212 49.6567V51.3819H16V49.743C16 38.0981 23.0458 10.5816 87.1619 2.90457C90.529 2.39672 93.9157 2.10879 97.3078 2.04199H101.747C105.139 2.10879 108.525 2.39672 111.892 2.90457C176.079 10.5816 183.125 38.0981 183.125 49.743V51.3819ZM166.92 47.9316H178.756C177.629 29.1272 159.663 18.6036 140.85 12.6518C155.505 21.1051 165.44 34.1302 166.92 47.9316ZM20.2979 47.9316H32.1348C33.6144 34.1302 43.5488 21.1051 58.0631 12.6518C39.3918 18.6036 21.4252 29.1272 20.2979 47.9316Z" fill="#F46E66"/>
<path d="M123.378 51.3819H75.6777V49.743C75.6777 14.6358 90.1214 5.14731 96.3217 2.64581C98.4011 1.78473 100.654 1.78473 102.733 2.64581C108.933 5.14731 123.378 14.6358 123.378 49.743V51.3819ZM79.9756 47.9315H119.079C119.079 37.6668 116.754 12.2205 100.901 5.92364C100.007 5.5793 99.0479 5.5793 98.1535 5.92364C82.3007 12.2205 80.187 37.6668 79.9756 47.9315Z" fill="#F46E66"/>
<path opacity="0.5" d="M36.9579 48.3086H32.7305V326.436H36.9579V48.3086Z" fill="#F46E66"/>
<path d="M183.054 48.3633H16V53.5388H183.054V48.3633Z" fill="#F46E66"/>
<path d="M183.054 324.477H16V329.652H183.054V324.477Z" fill="#F46E66"/>
<path d="M20.2274 51.6406H16V327.065H20.2274V51.6406Z" fill="#F46E66"/>
<path opacity="0.5" d="M166.99 48.3086H162.762V326.436H166.99V48.3086Z" fill="#F46E66"/>
<path opacity="0.5" d="M123.306 47.9316H119.079V326.059H123.306V47.9316Z" fill="#F46E66"/>
<path opacity="0.5" d="M79.9052 47.9316H75.6777V326.059H79.9052V47.9316Z" fill="#F46E66"/>
<path d="M183.055 51.6406H178.827V327.065H183.055V51.6406Z" fill="#F46E66"/>
<path d="M435.28 155.81L470.19 198.87H438.84V330.43H31.38V198.87H0L34.91 155.81L107.43 66.34L113.15 59.28L235.1 0L357.04 59.28L362.76 66.34L435.28 155.8V155.81ZM348.56 318.57V180.76H246.92V318.57H348.56ZM177.67 108.01H292.52C292.62 100.405 291.209 92.856 288.368 85.8009C285.527 78.7458 281.314 72.3252 275.971 66.9119C270.629 61.4985 264.264 57.2003 257.247 54.2666C250.23 51.3329 242.701 49.8222 235.095 49.8222C227.489 49.8222 219.96 51.3329 212.943 54.2666C205.926 57.2003 199.561 61.4985 194.219 66.9119C188.876 72.3252 184.663 78.7458 181.822 85.8009C178.981 92.856 177.57 100.405 177.67 108.01ZM223.27 318.57V180.76H121.63V318.57H223.27Z" fill="#C1361C"/>
<path d="M348.56 180.76H246.92V318.57H348.56V180.76Z" fill="white"/>
<path d="M292.52 108.01H177.67C177.57 100.405 178.981 92.856 181.822 85.8009C184.663 78.7458 188.876 72.3253 194.219 66.9119C199.561 61.4986 205.926 57.2004 212.943 54.2667C219.96 51.333 227.489 49.8223 235.095 49.8223C242.701 49.8223 250.23 51.333 257.247 54.2667C264.264 57.2004 270.629 61.4986 275.971 66.9119C281.314 72.3253 285.528 78.7458 288.368 85.8009C291.209 92.856 292.62 100.405 292.52 108.01Z" fill="white"/>
<path d="M223.27 180.76H121.63V318.57H223.27V180.76Z" fill="white"/>
<path d="M177.67 108.01C177.57 100.405 178.981 92.856 181.822 85.8009C184.663 78.7458 188.876 72.3253 194.219 66.9119C199.561 61.4986 205.926 57.2004 212.943 54.2667C219.96 51.333 227.489 49.8223 235.095 49.8223C242.701 49.8223 250.23 51.333 257.247 54.2667C264.264 57.2004 270.629 61.4986 275.971 66.9119C281.314 72.3253 285.528 78.7458 288.368 85.8009C291.209 92.856 292.62 100.405 292.52 108.01H177.67Z" stroke="#BABABA" stroke-width="3" stroke-miterlimit="10"/>
<path d="M223.27 180.76H121.63V318.57H223.27V180.76Z" stroke="#BABABA" stroke-width="4" stroke-miterlimit="10"/>
<path d="M348.56 180.76H246.92V318.57H348.56V180.76Z" stroke="#BABABA" stroke-width="4" stroke-miterlimit="10"/>
<path d="M121.63 180.75L223.27 318.57" stroke="#BABABA" stroke-width="3" stroke-miterlimit="10"/>
<path d="M223.27 180.75L121.63 318.57" stroke="#BABABA" stroke-width="3" stroke-miterlimit="10"/>
<path d="M348.56 180.75L246.92 318.57" stroke="#BABABA" stroke-width="3" stroke-miterlimit="10"/>
<path d="M246.92 180.75L348.56 318.57" stroke="#BABABA" stroke-width="3" stroke-miterlimit="10"/>
</svg>
