<svg width="458" height="316" viewBox="0 0 458 316" fill="none" xmlns="http://www.w3.org/2000/svg">
<g clip-path="url(#clip0_2521_37922)">
<path d="M94.0147 0H55.8777V10.0865H94.0147V0Z" fill="#313335"/>
<path d="M95.6147 0H54.3064V1.97158H95.6147V0Z" fill="#525557"/>
<path d="M141.064 74.5774V287.936C141.064 289.079 141.007 290.251 140.864 291.394C140.378 295.651 138.95 299.766 136.693 303.395C136.036 304.481 135.293 305.481 134.465 306.452C133.179 307.995 131.722 309.395 130.094 310.595C128.237 311.995 126.209 313.11 124.038 313.939C123.809 314.024 123.61 314.11 123.381 314.167C123.152 314.224 122.895 314.339 122.667 314.395C121.695 314.682 120.724 314.939 119.724 315.11C118.982 315.224 118.239 315.339 117.496 315.396C116.896 315.453 116.296 315.481 115.668 315.481H33.8229C32.566 315.453 31.2805 315.339 30.0521 315.11C29.6236 315.024 29.195 314.939 28.7951 314.853C24.7672 313.881 21.0534 311.938 17.9967 309.138C17.1968 308.424 16.4541 307.681 15.7685 306.881C11.2549 301.595 8.7981 294.88 8.82666 287.936V74.5774C8.82666 71.7482 9.22661 68.9195 10.0265 66.2051C13.2832 55.0614 22.8531 47.0038 34.1657 47.0038H115.754C128.666 47.0038 139.321 57.5186 140.893 71.1197C140.978 72.2627 141.064 73.4057 141.064 74.5774Z" fill="#B36940"/>
<path d="M141.065 74.5773V287.937C141.065 289.08 141.008 290.251 140.865 291.394C139.951 299.366 135.923 306.253 130.124 310.624V71.1201H140.865C140.98 72.2627 141.065 73.4057 141.065 74.5773Z" fill="#C58257"/>
<path d="M67.3884 181.985L85.7572 132.581C85.7572 132.581 47.3628 145.411 67.3884 181.985Z" fill="#CE9D83"/>
<path d="M84.7289 143.64L71.9595 179.357C71.9595 179.357 107.525 165.984 84.7289 143.64Z" fill="#CE9D83"/>
<path d="M8.37036 67.3481C8.37036 67.0339 8.3418 66.691 8.3418 66.3481C8.3418 32.4882 38.1373 5.02893 74.9319 5.02893C111.726 5.02893 141.493 32.4882 141.493 66.3481C141.493 66.691 141.493 67.0053 141.493 67.3481H8.37036Z" fill="#E2DBD6"/>
<path d="M8.3418 66.3768C8.3418 32.5169 38.1373 5.05764 74.9319 5.05764C84.302 5.02904 93.6149 6.85775 102.27 10.4581C94.329 8.28643 83.6164 7.02923 72.9319 10.9152C47.3645 20.1731 44.3076 62.4622 44.3076 62.4622V67.4054H8.37036C8.37036 67.0339 8.3418 66.691 8.3418 66.3768Z" fill="#B6A7A4"/>
<path opacity="0.7" d="M137.894 58.4614H130.866C130.866 58.4614 124.924 22.3158 92.9006 11.3436C92.9006 11.315 130.152 19.2299 137.894 58.4614Z" fill="#A2A4A6"/>
<path d="M8.79883 66.2051V287.936C8.79883 303.166 20.14 315.51 34.1379 315.51H44.3362V66.2051H8.79883Z" fill="#885031"/>
<path d="M145.093 60.8047H4.74243V71.0629H145.093V60.8047Z" fill="#373738"/>
<path d="M145.093 69.3481H4.74243V71.1197H145.093V69.3481Z" fill="#999B9E"/>
<path d="M145.093 62.0903H4.74243V63.2906H145.093V62.0903Z" fill="#A2A4A6"/>
<path d="M4.19984 85.7779H146.721C148.464 85.921 149.978 84.6349 150.092 82.892C150.235 81.149 148.95 79.6345 147.207 79.5205C147.036 79.5205 146.864 79.5205 146.693 79.5205H4.19984C2.45724 79.6631 1.17171 81.1776 1.31455 82.892C1.42882 84.4351 2.6572 85.6635 4.19984 85.7779Z" fill="#373738"/>
<path d="M4.19938 237.161H146.721C147.607 237.19 148.378 236.504 148.407 235.618C148.435 234.733 147.749 233.961 146.864 233.933C146.807 233.933 146.778 233.933 146.721 233.933H4.19938C3.31381 233.961 2.59964 234.733 2.65677 235.618C2.68534 236.447 3.34238 237.133 4.19938 237.161Z" fill="#373738"/>
<path d="M4.19991 264.506H146.721C147.607 264.506 148.35 263.792 148.35 262.906C148.35 262.02 147.636 261.277 146.75 261.277H4.19991C3.31434 261.277 2.57159 262.02 2.60016 262.906C2.60016 263.763 3.31434 264.506 4.19991 264.506Z" fill="#373738"/>
<path d="M146.721 313.253C148.464 313.253 149.864 311.853 149.864 310.109V51.0895C149.864 49.3466 148.464 47.9465 146.721 47.9465C144.978 47.9465 143.579 49.3466 143.579 51.0895V310.109C143.579 311.824 144.978 313.253 146.721 313.253Z" fill="#462718"/>
<path d="M3.14239 313.253C4.88496 313.253 6.28476 311.853 6.28476 310.109V51.0895C6.28476 49.3466 4.88496 47.9465 3.14239 47.9465C1.39979 47.9465 0 49.3466 0 51.0895V310.109C0 311.824 1.39979 313.253 3.14239 313.253Z" fill="#462718"/>
<path d="M40.1079 250.676V248.876H18.6254V258.734H32.9947C32.2233 259.62 31.452 260.534 30.7093 261.42H18.6254V272.278H22.2534L20.168 274.964H18.6254V276.993C17.3113 278.736 16.0258 280.479 14.8259 282.307V51.2612C14.8259 50.204 15.6829 49.3466 16.7399 49.3466C17.7969 49.3466 18.6539 50.204 18.6539 51.2612V63.4904H40.165V51.2612C40.165 50.204 41.0218 49.3466 42.0788 49.3466C43.1362 49.3466 43.993 50.204 43.993 51.2612V245.876C42.7362 247.533 41.4504 249.134 40.1079 250.676ZM40.1079 66.2051H18.6254V76.0628H40.1364V66.2051H40.1079ZM40.1079 78.749H18.6254V89.6071H40.1364V78.749H40.1079ZM40.1079 92.2928H18.6254V102.151H40.1364V92.2928H40.1079ZM40.1079 104.837H18.6254V115.695H40.1364V104.837H40.1079ZM40.1079 118.38H18.6254V128.239H40.1364V118.38H40.1079ZM40.1079 130.953H18.6254V141.811H40.1364V130.953H40.1079ZM40.1079 144.497H18.6254V154.326H40.1364V144.497H40.1079ZM40.1079 157.041H18.6254V167.899H40.1364V157.041H40.1079ZM40.1079 170.584H18.6254V180.443H40.1364V170.584H40.1079ZM40.1079 183.128H18.6254V193.986H40.1364V183.128H40.1079ZM40.1079 196.672H18.6254V206.53H40.1364V196.672H40.1079ZM40.1079 209.216H18.6254V220.074H40.1364V209.216H40.1079ZM40.1079 222.788H18.6254V232.647H40.1364V222.788H40.1079ZM40.1079 235.332H18.6254V246.19H40.1364V235.332H40.1079Z" fill="#999B9E"/>
<path d="M17.5399 66.2051H41.8219C42.5647 66.2051 43.1648 65.6052 43.1648 64.8623C43.1648 64.1193 42.5647 63.5194 41.8219 63.5194H17.5399C16.7972 63.5194 16.1973 64.1193 16.1973 64.8623C16.1973 65.5766 16.7972 66.2051 17.5399 66.2051Z" fill="#373738"/>
<path d="M17.5406 66.4622H41.8227C42.708 66.4336 43.4222 65.662 43.3654 64.7765C43.3368 63.9477 42.6512 63.262 41.8227 63.2333H17.5406C16.655 63.2047 15.8837 63.8905 15.8551 64.7765C15.8265 65.662 16.5122 66.4336 17.3977 66.4622C17.4549 66.4622 17.4835 66.4622 17.5406 66.4622ZM41.8227 63.7479C42.4225 63.7761 42.8796 64.2906 42.851 64.8905C42.8224 65.4336 42.3939 65.8909 41.8227 65.9191H17.5406C16.9407 65.9477 16.4265 65.4908 16.3979 64.8905C16.3693 64.2906 16.8264 63.7761 17.4263 63.7479C17.4549 63.7479 17.512 63.7479 17.5406 63.7479H41.8227Z" fill="#373738"/>
<path d="M17.5401 78.749H41.8223C42.5651 78.749 43.1649 78.1487 43.1649 77.4057C43.1649 76.6628 42.5651 76.0629 41.8223 76.0629H17.5401C16.7974 76.0629 16.1975 76.6628 16.1975 77.4057C16.1689 78.1201 16.7974 78.749 17.5401 78.749Z" fill="#373738"/>
<path d="M17.5399 79.0064H41.8222C42.7076 79.0064 43.4503 78.2921 43.4503 77.3775C43.4503 76.4919 42.7362 75.749 41.8222 75.749H17.5399C16.6544 75.749 15.9116 76.4633 15.9116 77.3775C15.9116 78.2921 16.6258 79.0064 17.5399 79.0064ZM41.8222 76.2917C42.422 76.3203 42.8792 76.8348 42.8506 77.4347C42.822 77.9778 42.3648 78.4347 41.8222 78.4633H17.5399C16.94 78.4919 16.4258 78.0346 16.3972 77.4347C16.3687 76.8348 16.8258 76.3203 17.4257 76.2917C17.4542 76.2917 17.5114 76.2917 17.5399 76.2917H41.8222Z" fill="#373738"/>
<path d="M17.5407 92.2928H41.8227C42.5655 92.2642 43.1367 91.6357 43.1085 90.8928C43.0799 90.207 42.5083 89.6357 41.8227 89.6071H17.5407C16.798 89.5785 16.1695 90.1498 16.1409 90.8928C16.1124 91.6357 16.6837 92.2642 17.4264 92.2928C17.455 92.2928 17.4836 92.2928 17.5407 92.2928Z" fill="#373738"/>
<path d="M17.5406 92.5499H41.8227C42.708 92.5216 43.4222 91.7501 43.3654 90.8641C43.3368 90.0354 42.6512 89.3496 41.8227 89.321H17.5406C16.655 89.2928 15.8837 89.9786 15.8551 90.8641C15.8265 91.7501 16.5122 92.5216 17.3977 92.5499C17.4549 92.5499 17.4835 92.5499 17.5406 92.5499ZM41.8227 89.8641C42.4225 89.8641 42.9082 90.35 42.9082 90.9499C42.9082 91.5499 42.4225 92.0358 41.8227 92.0358H17.5406C16.9407 92.0358 16.455 91.5499 16.455 90.9499C16.455 90.35 16.9407 89.8641 17.5406 89.8641H41.8227Z" fill="#373738"/>
<path d="M17.5401 104.837H41.8223C42.5651 104.837 43.1649 104.237 43.1649 103.494C43.1649 102.751 42.5651 102.151 41.8223 102.151H17.5401C16.7974 102.151 16.1975 102.751 16.1975 103.494C16.1689 104.237 16.7974 104.837 17.5401 104.837Z" fill="#373738"/>
<path d="M17.5399 105.094H41.8222C42.7076 105.094 43.4503 104.38 43.4503 103.465C43.4503 102.58 42.7362 101.837 41.8222 101.837H17.5399C16.6544 101.837 15.9116 102.551 15.9116 103.465C15.9116 104.38 16.6258 105.094 17.5399 105.094ZM41.8222 102.408C42.422 102.437 42.8792 102.951 42.8506 103.551C42.822 104.094 42.3934 104.551 41.8222 104.58H17.5399C16.94 104.608 16.4258 104.151 16.3972 103.551C16.3687 102.951 16.8258 102.437 17.4257 102.408C17.4542 102.408 17.5114 102.408 17.5399 102.408H41.8222Z" fill="#373738"/>
<path d="M17.5407 118.38H41.8227C42.5655 118.352 43.1367 117.723 43.1085 116.98C43.0799 116.295 42.5083 115.723 41.8227 115.695H17.5407C16.798 115.666 16.1695 116.237 16.1409 116.98C16.1124 117.723 16.6837 118.352 17.4264 118.38C17.455 118.38 17.4836 118.38 17.5407 118.38Z" fill="#373738"/>
<path d="M17.5399 118.667H41.8222C42.7076 118.667 43.4503 117.952 43.4503 117.038C43.4503 116.152 42.7362 115.409 41.8222 115.409H17.5399C16.6544 115.409 15.9116 116.123 15.9116 117.038C15.9116 117.924 16.6258 118.667 17.5399 118.667ZM41.8222 115.952C42.422 115.98 42.8792 116.495 42.8506 117.095C42.822 117.638 42.3934 118.095 41.8222 118.123H17.5399C16.94 118.152 16.4258 117.695 16.3972 117.095C16.3687 116.495 16.8258 115.98 17.4257 115.952C17.4542 115.952 17.5114 115.952 17.5399 115.952H41.8222Z" fill="#373738"/>
<path d="M17.5399 130.924H41.8219C42.5647 130.924 43.1648 130.324 43.1648 129.581C43.1648 128.838 42.5647 128.238 41.8219 128.238H17.5399C16.7972 128.238 16.1973 128.838 16.1973 129.581C16.1973 130.324 16.7972 130.924 17.5399 130.924Z" fill="#373738"/>
<path d="M17.5399 131.21H41.8222C42.7076 131.21 43.4503 130.496 43.4503 129.582C43.4503 128.696 42.7362 127.953 41.8222 127.953H17.5399C16.6544 127.953 15.9116 128.667 15.9116 129.582C15.9116 130.467 16.6258 131.21 17.5399 131.21ZM41.8222 128.496C42.422 128.524 42.8792 129.039 42.8506 129.639C42.822 130.182 42.3934 130.639 41.8222 130.667H17.5399C16.94 130.696 16.4258 130.239 16.3972 129.639C16.3687 129.039 16.8258 128.524 17.4257 128.496C17.4542 128.496 17.5114 128.496 17.5399 128.496H41.8222Z" fill="#373738"/>
<path d="M17.5397 144.497H41.8219C42.5647 144.469 43.1359 143.84 43.1073 143.069C43.0787 142.354 42.5075 141.811 41.8219 141.782H17.5397C16.7969 141.811 16.2256 142.44 16.2542 143.211C16.2828 143.897 16.8255 144.469 17.5397 144.497Z" fill="#373738"/>
<path d="M17.5406 144.754H41.8227C42.708 144.726 43.4222 143.954 43.3654 143.068C43.3368 142.24 42.6512 141.554 41.8227 141.525H17.5406C16.655 141.497 15.8837 142.183 15.8551 143.068C15.8265 143.954 16.5122 144.726 17.3977 144.754C17.4549 144.754 17.4835 144.754 17.5406 144.754ZM41.8227 142.04C42.4225 142.068 42.8796 142.583 42.851 143.183C42.8224 143.726 42.3653 144.183 41.8227 144.211H17.5406C16.9407 144.24 16.4265 143.782 16.3979 143.183C16.3693 142.583 16.8264 142.068 17.4263 142.04C17.4549 142.04 17.512 142.04 17.5406 142.04H41.8227Z" fill="#373738"/>
<path d="M17.5407 157.012H41.8227C42.5655 156.984 43.1367 156.355 43.1085 155.612C43.0799 154.927 42.5083 154.355 41.8227 154.327H17.5407C16.798 154.298 16.1695 154.869 16.1409 155.612C16.1124 156.355 16.6837 156.984 17.4264 157.012C17.455 157.012 17.4836 157.012 17.5407 157.012Z" fill="#373738"/>
<path d="M17.5399 157.298H41.8222C42.7076 157.298 43.4217 156.583 43.4217 155.669C43.4217 154.783 42.7076 154.069 41.8222 154.069H17.5399C16.6544 154.069 15.9116 154.783 15.9116 155.669C15.9116 156.583 16.6258 157.298 17.5399 157.298ZM41.8222 154.612C42.422 154.612 42.9078 155.098 42.9078 155.698C42.9078 156.298 42.422 156.784 41.8222 156.784H17.5399C16.94 156.784 16.4544 156.298 16.4544 155.698C16.4544 155.098 16.94 154.612 17.5399 154.612H41.8222Z" fill="#373738"/>
<path d="M17.5399 170.584H41.8219C42.5647 170.584 43.1648 169.985 43.1648 169.242C43.1648 168.499 42.5647 167.899 41.8219 167.899H17.5399C16.7972 167.899 16.1973 168.499 16.1973 169.242C16.1973 169.985 16.7972 170.584 17.5399 170.584Z" fill="#373738"/>
<path d="M17.5406 170.842H41.8227C42.708 170.813 43.4222 170.042 43.3654 169.156C43.3368 168.327 42.6512 167.642 41.8227 167.613H17.5406C16.655 167.585 15.8837 168.27 15.8551 169.156C15.8265 170.042 16.5122 170.813 17.3977 170.842C17.4549 170.842 17.4835 170.842 17.5406 170.842ZM41.8227 168.156C42.4225 168.156 42.9082 168.642 42.9082 169.242C42.9082 169.842 42.4225 170.327 41.8227 170.327H17.5406C16.9407 170.327 16.455 169.842 16.455 169.242C16.455 168.642 16.9407 168.156 17.5406 168.156H41.8227Z" fill="#373738"/>
<path d="M17.5407 183.128H41.8227C42.5655 183.1 43.1367 182.471 43.1085 181.728C43.0799 181.042 42.5083 180.471 41.8227 180.443H17.5407C16.798 180.414 16.1695 180.985 16.1409 181.728C16.1124 182.471 16.6837 183.1 17.4264 183.128C17.455 183.128 17.4836 183.128 17.5407 183.128Z" fill="#373738"/>
<path d="M17.5406 183.386H41.8227C42.708 183.358 43.4222 182.586 43.3654 181.7C43.3368 180.872 42.6512 180.186 41.8227 180.157H17.5406C16.655 180.129 15.8837 180.814 15.8551 181.7C15.8265 182.586 16.5122 183.358 17.3977 183.386C17.4549 183.386 17.4835 183.386 17.5406 183.386ZM41.8227 180.7C42.4225 180.7 42.9082 181.186 42.9082 181.786C42.9082 182.386 42.4225 182.872 41.8227 182.872H17.5406C16.9407 182.872 16.455 182.386 16.455 181.786C16.455 181.186 16.9407 180.7 17.5406 180.7H41.8227Z" fill="#373738"/>
<path d="M17.5407 196.673H41.8227C42.5655 196.644 43.1367 196.015 43.1085 195.272C43.0799 194.586 42.5083 194.015 41.8227 193.986H17.5407C16.798 193.958 16.1695 194.53 16.1409 195.272C16.1124 196.015 16.6837 196.644 17.4264 196.673C17.455 196.673 17.4836 196.673 17.5407 196.673Z" fill="#373738"/>
<path d="M17.5399 196.93H41.8222C42.7076 196.93 43.4217 196.215 43.4217 195.301C43.4217 194.415 42.7076 193.701 41.8222 193.701H17.5399C16.6544 193.701 15.9116 194.415 15.9116 195.301C15.9116 196.215 16.6258 196.93 17.5399 196.93ZM41.8222 194.243C42.422 194.243 42.9078 194.729 42.9078 195.329C42.9078 195.929 42.422 196.415 41.8222 196.415H17.5399C16.94 196.415 16.4544 195.929 16.4544 195.329C16.4544 194.729 16.94 194.243 17.5399 194.243H41.8222Z" fill="#373738"/>
<path d="M17.5407 209.216H41.8227C42.5655 209.245 43.1939 208.673 43.2225 207.93C43.2511 207.187 42.6799 206.559 41.9371 206.53C41.9085 206.53 41.8513 206.53 41.8227 206.53H17.5407C16.798 206.502 16.1695 207.073 16.1409 207.816C16.1124 208.559 16.6837 209.188 17.4264 209.216C17.455 209.216 17.4836 209.216 17.5407 209.216Z" fill="#373738"/>
<path d="M17.5402 209.502H41.8224C42.7077 209.473 43.4219 208.702 43.3651 207.816C43.3365 206.959 42.6509 206.302 41.8224 206.273H17.5402C16.6547 206.302 15.9404 207.073 15.9976 207.959C15.9976 208.788 16.6832 209.473 17.5402 209.502ZM41.8224 206.787C42.4221 206.787 42.9079 207.273 42.9079 207.873C42.9079 208.473 42.4221 208.959 41.8224 208.959H17.5402C16.9403 208.959 16.4547 208.473 16.4547 207.873C16.4547 207.273 16.9403 206.787 17.5402 206.787H41.8224Z" fill="#373738"/>
<path d="M17.5402 222.788H41.8223C42.5651 222.788 43.1649 222.189 43.1649 221.446C43.1649 220.703 42.5651 220.103 41.8223 220.103H17.5402C16.7974 220.103 16.1975 220.703 16.1975 221.446C16.169 222.16 16.7689 222.788 17.5402 222.788Z" fill="#373738"/>
<path d="M17.5406 223.046H41.8227C42.708 223.017 43.4222 222.246 43.3654 221.36C43.3368 220.531 42.6512 219.846 41.8227 219.817H17.5406C16.655 219.788 15.8837 220.474 15.8551 221.36C15.8265 222.246 16.5122 223.017 17.3977 223.046C17.4549 223.046 17.4835 223.046 17.5406 223.046ZM41.8227 220.332C42.4225 220.332 42.9082 220.817 42.9082 221.417C42.9082 222.017 42.4225 222.503 41.8227 222.503H17.5406C16.9407 222.503 16.455 222.017 16.455 221.417C16.455 220.817 16.9407 220.332 17.5406 220.332H41.8227Z" fill="#373738"/>
<path d="M17.5407 235.304H41.8227C42.5655 235.275 43.1367 234.647 43.1085 233.904C43.0799 233.218 42.5083 232.647 41.8227 232.618H17.5407C16.798 232.589 16.1695 233.161 16.1409 233.904C16.1124 234.647 16.6837 235.275 17.4264 235.304C17.455 235.332 17.4836 235.332 17.5407 235.304Z" fill="#373738"/>
<path d="M17.5399 235.59H41.8222C42.7076 235.59 43.4503 234.847 43.4503 233.961C43.4503 233.075 42.7362 232.361 41.8222 232.332H17.5399C16.6544 232.332 15.9116 233.047 15.9116 233.961C15.9116 234.875 16.6258 235.59 17.5399 235.59ZM41.8222 232.875C42.422 232.904 42.8792 233.418 42.8506 234.018C42.822 234.59 42.3648 235.018 41.8222 235.047H17.5399C16.94 235.076 16.4258 234.618 16.3972 234.018C16.3687 233.418 16.8258 232.904 17.4257 232.875C17.4542 232.875 17.5114 232.875 17.5399 232.875H41.8222Z" fill="#373738"/>
<path d="M17.5407 248.877H41.8227C42.5655 248.905 43.1939 248.333 43.2225 247.591C43.2511 246.848 42.6799 246.219 41.9371 246.19C41.9085 246.19 41.8513 246.19 41.8227 246.19H17.5407C16.798 246.162 16.1695 246.734 16.1409 247.476C16.1124 248.219 16.6837 248.848 17.4264 248.877C17.455 248.877 17.4836 248.877 17.5407 248.877Z" fill="#373738"/>
<path d="M17.5399 249.133H41.8222C42.7076 249.133 43.4503 248.391 43.4503 247.505C43.4503 246.619 42.7362 245.904 41.8222 245.876H17.5399C16.6544 245.876 15.9116 246.59 15.9116 247.505C15.9116 248.419 16.6258 249.133 17.5399 249.133ZM41.8222 246.447C42.422 246.476 42.8792 246.99 42.8506 247.59C42.822 248.133 42.3934 248.59 41.8222 248.619H17.5399C16.94 248.648 16.4258 248.19 16.3972 247.59C16.3687 246.99 16.8258 246.476 17.4257 246.447C17.4542 246.447 17.5114 246.447 17.5399 246.447H41.8222Z" fill="#373738"/>
<path d="M17.5399 261.42H41.8219C42.5647 261.42 43.1648 260.82 43.1648 260.077C43.1648 259.334 42.5647 258.734 41.8219 258.734H17.5399C16.7972 258.734 16.1973 259.334 16.1973 260.077C16.1973 260.82 16.7686 261.42 17.5399 261.42C17.5114 261.42 17.5399 261.42 17.5399 261.42Z" fill="#373738"/>
<path d="M17.5399 261.677H41.8222C42.7076 261.677 43.4503 260.934 43.4217 260.048C43.4217 259.163 42.7076 258.449 41.8222 258.449H17.5399C16.6544 258.449 15.9116 259.163 15.9116 260.048C15.9116 260.963 16.6258 261.677 17.5399 261.677C17.5114 261.677 17.5399 261.677 17.5399 261.677ZM41.8222 258.991C42.422 258.991 42.9078 259.477 42.9078 260.077C42.9078 260.677 42.422 261.163 41.8222 261.163H17.5399C16.94 261.163 16.4544 260.677 16.4544 260.077C16.4544 259.477 16.94 258.991 17.5399 258.991H41.8222Z" fill="#373738"/>
<path d="M17.5399 274.964H41.8219C42.5647 274.964 43.1648 274.364 43.1648 273.621C43.1648 272.878 42.5647 272.278 41.8219 272.278H17.5399C16.7972 272.278 16.1973 272.878 16.1973 273.621C16.1973 274.364 16.7686 274.964 17.5399 274.964C17.5114 274.964 17.5399 274.964 17.5399 274.964Z" fill="#373738"/>
<path d="M17.5406 275.25H41.8227C42.708 275.221 43.4222 274.45 43.3654 273.564C43.3368 272.735 42.6512 272.05 41.8227 272.021H17.5406C16.655 271.992 15.8837 272.679 15.8551 273.564C15.8265 274.45 16.5122 275.221 17.3977 275.25C17.4549 275.25 17.4835 275.25 17.5406 275.25ZM41.8227 272.536C42.4225 272.536 42.8796 273.021 42.8796 273.621C42.8796 274.221 42.3939 274.707 41.8227 274.707H17.5406C16.9407 274.707 16.455 274.221 16.455 273.621C16.455 273.021 16.9407 272.536 17.5406 272.536H41.8227Z" fill="#373738"/>
<path d="M17.5402 287.508H41.8223C42.5651 287.508 43.1649 286.908 43.1649 286.165C43.1649 285.422 42.5651 284.822 41.8223 284.822H17.5402C16.7974 284.822 16.1975 285.422 16.1975 286.165C16.169 286.908 16.7689 287.508 17.5402 287.508Z" fill="#373738"/>
<path d="M17.5399 287.794H41.8222C42.7076 287.794 43.4503 287.051 43.4217 286.165C43.4217 285.279 42.7076 284.565 41.8222 284.565H17.5399C16.6544 284.565 15.9116 285.279 15.9116 286.165C15.9116 287.051 16.6258 287.794 17.5399 287.794C17.5114 287.794 17.5399 287.794 17.5399 287.794ZM41.8222 285.079C42.422 285.108 42.8792 285.622 42.8506 286.222C42.822 286.765 42.3934 287.222 41.8222 287.251H17.5399C16.94 287.279 16.4258 286.822 16.3972 286.222C16.3687 285.622 16.8258 285.108 17.4257 285.079C17.4542 285.079 17.5114 285.079 17.5399 285.079H41.8222Z" fill="#373738"/>
<path d="M42.136 313.081C43.193 313.081 44.0216 312.224 44.0216 311.167V51.2612C44.0216 50.204 43.1644 49.3466 42.1074 49.3466C41.0505 49.3466 40.1934 50.204 40.1934 51.2612V311.167C40.2219 312.224 41.0791 313.081 42.136 313.081Z" fill="#373738"/>
<path d="M42.1365 313.339C43.3361 313.339 44.3077 312.367 44.3077 311.167V51.2612C44.3649 50.061 43.4219 49.061 42.2219 49.0038C41.0224 48.9465 40.0225 49.8897 39.9653 51.0896C39.9653 51.1468 39.9653 51.204 39.9653 51.2612V311.167C39.9653 312.367 40.9366 313.339 42.1365 313.339ZM42.1365 49.6323C43.0219 49.6323 43.7647 50.3466 43.7647 51.2612V311.167C43.7933 312.081 43.1077 312.824 42.1937 312.881C41.2794 312.91 40.5366 312.224 40.4794 311.31C40.4794 311.252 40.4794 311.224 40.4794 311.167V51.2612C40.508 50.3466 41.2222 49.6323 42.1365 49.6323Z" fill="#373738"/>
<path d="M16.8554 313.081C17.9124 313.081 18.7694 312.224 18.7694 311.167V51.2612C18.7408 50.204 17.8552 49.4038 16.7982 49.4324C15.7984 49.4611 14.9985 50.2608 14.9699 51.2612V311.167C14.9414 312.224 15.7984 313.081 16.8554 313.081C16.8268 313.081 16.8554 313.081 16.8554 313.081Z" fill="#373738"/>
<path d="M16.8554 313.338C18.0552 313.338 19.0265 312.367 19.055 311.167V51.2612C19.055 50.061 18.0838 49.0896 16.8839 49.0896C15.6841 49.0896 14.7128 50.061 14.7128 51.2612V311.167C14.6557 312.367 15.627 313.338 16.8554 313.338C16.8268 313.338 16.8554 313.338 16.8554 313.338ZM16.8554 49.6323C17.7695 49.6323 18.4837 50.3466 18.4837 51.2612V311.167C18.5123 312.081 17.8267 312.824 16.9125 312.881C15.9984 312.939 15.2556 312.224 15.1985 311.31C15.1985 311.253 15.1985 311.224 15.1985 311.167V51.2612C15.227 50.3752 15.9412 49.6323 16.8554 49.6323Z" fill="#373738"/>
<path d="M448.558 232.794H418.255V214.283L334.061 111.273L342.934 105.173L421.167 155.797L436.329 214.283L448.558 232.794Z" fill="#9F4006"/>
<path d="M448.558 232.794L433.114 216.141H418.259V232.794H448.558Z" fill="#773005"/>
<path d="M249.763 214.283L264.08 155.797L335.731 106.249L414.4 161.253L427.374 214.283V315.499H249.763V214.283Z" fill="#E44C2D"/>
<path d="M254.941 214.283H113.074V315.51H254.941V214.283Z" fill="#BF1811"/>
<g opacity="0.14">
<path opacity="0.14" d="M415.073 164.029H254.942V159.037H411.234L414.396 161.253L415.073 164.029Z" fill="#590F0F"/>
<path opacity="0.14" d="M402.443 149.423H254.942V154.404H402.443V149.423Z" fill="#590F0F"/>
<path opacity="0.14" d="M387.493 139.049H254.942V144.03H387.493V139.049Z" fill="#590F0F"/>
<path opacity="0.14" d="M375.992 130.48H254.942V135.461H375.992V130.48Z" fill="#590F0F"/>
<path opacity="0.14" d="M373.597 121.805H254.942V126.786H373.597V121.805Z" fill="#590F0F"/>
<path opacity="0.14" d="M417.224 172.819H254.942V167.838H416.011L417.224 172.819Z" fill="#590F0F"/>
<path opacity="0.14" d="M419.379 181.621H254.942V176.629H418.166L419.379 181.621Z" fill="#590F0F"/>
<path opacity="0.14" d="M421.53 190.411H254.942V185.43H420.317L421.53 190.411Z" fill="#590F0F"/>
<path opacity="0.14" d="M423.681 199.213H254.942V194.222H422.468L423.681 199.213Z" fill="#590F0F"/>
<path opacity="0.14" d="M425.836 208.004H254.942V203.023H424.623L425.836 208.004Z" fill="#590F0F"/>
<path opacity="0.14" d="M427.374 211.244H254.942V216.225H427.374V211.244Z" fill="#590F0F"/>
<path opacity="0.14" d="M427.374 219.454H254.942V224.436H427.374V219.454Z" fill="#590F0F"/>
<path opacity="0.14" d="M427.374 226.884H254.942V231.865H427.374V226.884Z" fill="#590F0F"/>
</g>
<path d="M111.029 214.283L125.347 155.797H269.26L254.943 214.283H111.029Z" fill="#C7AE92"/>
<path d="M125.322 155.797L198.998 105.173H342.934L269.257 155.797H125.322Z" fill="#EADCC3"/>
<path d="M236.994 232.794H93.0806L111.028 214.283H254.941L236.994 232.794Z" fill="#EADBC5"/>
<path d="M351.627 105.173L275.703 157.728L261.439 216.141L246.003 232.794H236.992L254.939 214.283L269.257 155.797L342.933 105.173H351.627Z" fill="white"/>
<path d="M342.933 105.173L418.859 157.728L433.11 216.141L448.558 232.794H457.569L439.624 214.283L425.304 155.797L351.628 105.173H342.933Z" fill="white"/>
<path d="M414.396 161.253L418.859 157.728L347.671 107.98L342.86 111.241L414.396 161.253Z" fill="#A3440A"/>
<path d="M275.778 95.2215H272.339V92.2034L275.778 95.2215Z" fill="#878752"/>
<path d="M247.692 90.3141H217.886V115.357H247.692V90.3141Z" fill="#BF1811"/>
<path d="M247.693 115.357L263.593 105.173H272.34V90.3142L260.017 79.4653L247.693 90.3142V115.357Z" fill="#E44C2D"/>
<path d="M210.397 93.3005L226.15 79.4653H260.018L244.266 93.3005H210.397Z" fill="#EADCC3"/>
<path d="M244.266 93.2904H210.397V95.211H244.266V93.2904Z" fill="#C7AE92"/>
<path d="M244.263 95.2215L260.016 81.386V79.4653L244.263 93.3005V95.2215Z" fill="#FBFFF3"/>
<path d="M275.778 95.2215L260.015 81.386V79.4653L275.778 93.3005V95.2215Z" fill="#FBFFF3"/>
<g opacity="0.14">
<path opacity="0.14" d="M254.94 236.255H113.073V241.236H254.94V236.255Z" fill="#590F0F"/>
<path opacity="0.14" d="M254.94 245.056H113.073V250.038H254.94V245.056Z" fill="#590F0F"/>
<path opacity="0.14" d="M254.94 253.848H113.073V258.829H254.94V253.848Z" fill="#590F0F"/>
<path opacity="0.14" d="M254.94 262.649H113.073V267.63H254.94V262.649Z" fill="#590F0F"/>
<path opacity="0.14" d="M254.94 271.44H113.073V276.421H254.94V271.44Z" fill="#590F0F"/>
<path opacity="0.14" d="M254.94 280.241H113.073V285.222H254.94V280.241Z" fill="#590F0F"/>
<path opacity="0.14" d="M254.94 288.462H113.073V293.443H254.94V288.462Z" fill="#590F0F"/>
<path opacity="0.14" d="M254.94 296.672H113.073V301.654H254.94V296.672Z" fill="#590F0F"/>
<path opacity="0.14" d="M254.94 304.102H113.073V309.083H254.94V304.102Z" fill="#590F0F"/>
</g>
<g opacity="0.14">
<path opacity="0.14" d="M427.374 236.255H254.942V241.236H427.374V236.255Z" fill="#590F0F"/>
<path opacity="0.14" d="M427.374 245.057H254.942V250.038H427.374V245.057Z" fill="#590F0F"/>
<path opacity="0.14" d="M427.374 253.848H254.942V258.829H427.374V253.848Z" fill="#590F0F"/>
<path opacity="0.14" d="M427.374 262.649H254.942V267.63H427.374V262.649Z" fill="#590F0F"/>
<path opacity="0.14" d="M427.374 271.44H254.942V276.421H427.374V271.44Z" fill="#590F0F"/>
<path opacity="0.14" d="M427.374 280.241H254.942V285.222H427.374V280.241Z" fill="#590F0F"/>
<path opacity="0.14" d="M427.374 288.462H254.942V293.443H427.374V288.462Z" fill="#590F0F"/>
<path opacity="0.14" d="M427.374 296.673H254.942V301.654H427.374V296.673Z" fill="#590F0F"/>
<path opacity="0.14" d="M427.374 304.102H254.942V309.083H427.374V304.102Z" fill="#590F0F"/>
</g>
<path d="M337.457 229.67H269.341V306.593H337.457V229.67Z" fill="#6E4A34"/>
<path d="M273.741 231.865H269.341V306.592H273.741V231.865Z" fill="#722828"/>
<path d="M337.471 231.865H333.071V306.592H337.471V231.865Z" fill="#722828"/>
<path d="M269.341 231.865V236.266H337.457V231.865H269.341Z" fill="#722828"/>
<path d="M333.072 231.865L301.208 270.321H305.608L337.472 231.865H333.072Z" fill="#722828"/>
<path d="M273.741 231.865L305.605 270.321H301.205L269.341 231.865H273.741Z" fill="#722828"/>
<path d="M331.247 306.593L301.208 270.321H305.608L335.647 306.593H331.247Z" fill="#722828"/>
<path d="M275.568 306.593L305.606 270.321H301.206L271.168 306.593H275.568Z" fill="#722828"/>
<path d="M273.741 229.67H269.341V306.593H273.741V229.67Z" fill="#FCF9DE"/>
<path d="M337.471 229.67H333.071V306.593H337.471V229.67Z" fill="#FCF9DE"/>
<path d="M269.354 229.67V234.071H337.47V229.67H269.354Z" fill="#FCF9DE"/>
<path d="M269.341 306.592V310.993H337.457V306.592H269.341Z" fill="#FCF9DE"/>
<path d="M333.072 229.659L301.208 268.126H305.608L337.472 229.659H333.072Z" fill="#FCF9DE"/>
<path d="M273.741 229.659L305.605 268.126H301.205L269.341 229.659H273.741Z" fill="#FCF9DE"/>
<path d="M333.072 306.593L301.208 268.126H305.608L337.472 306.593H333.072Z" fill="#FCF9DE"/>
<path d="M273.741 306.593L305.605 268.126H301.205L269.341 306.593H273.741Z" fill="#FCF9DE"/>
<path d="M417.288 229.67H349.171V306.593H417.288V229.67Z" fill="#6E4A34"/>
<path d="M353.485 230.81H349.086V305.537H353.485V230.81Z" fill="#722828"/>
<path d="M417.203 230.81H412.805V305.537H417.203V230.81Z" fill="#722828"/>
<path d="M349.086 230.799V235.2H417.203V230.799H349.086Z" fill="#722828"/>
<path d="M412.801 230.81L380.939 269.266H385.339L417.203 230.81H412.801Z" fill="#722828"/>
<path d="M353.475 230.81L385.339 269.266H380.939L349.086 230.81H353.475Z" fill="#722828"/>
<path d="M410.988 305.537L380.939 269.266H385.339L415.379 305.537H410.988Z" fill="#722828"/>
<path d="M355.3 305.537L385.338 269.266H380.938L350.9 305.537H355.3Z" fill="#722828"/>
<path d="M353.57 229.67H349.171V306.593H353.57V229.67Z" fill="#FCF9DE"/>
<path d="M417.288 229.67H412.889V306.593H417.288V229.67Z" fill="#FCF9DE"/>
<path d="M349.171 229.659V234.06H417.288V229.659H349.171Z" fill="#FCF9DE"/>
<path d="M349.171 306.582V310.983H417.288V306.582H349.171Z" fill="#FCF9DE"/>
<path d="M412.889 229.659L381.037 268.126H385.426L417.288 229.659H412.889Z" fill="#FCF9DE"/>
<path d="M353.56 229.659L385.424 268.126H381.035L349.171 229.659H353.56Z" fill="#FCF9DE"/>
<path d="M412.889 306.593L381.037 268.126H385.426L417.288 306.593H412.889Z" fill="#FCF9DE"/>
<path d="M353.56 306.593L385.424 268.126H381.035L349.171 306.593H353.56Z" fill="#FCF9DE"/>
<path d="M121.528 282.816V310.476H150.047V282.816H121.528Z" fill="#6E4A34"/>
<path d="M148.062 310.888H151.386V283.228H148.062V310.888Z" fill="#722828"/>
<path d="M122.876 310.888H126.2V283.228H122.876V310.888Z" fill="#722828"/>
<path d="M151.386 310.877V307.553H122.867V310.877H151.386Z" fill="#722828"/>
<path d="M151.386 286.542V283.217H124.851V286.542H151.386Z" fill="#722828"/>
<path d="M147.775 310.487H151.098V282.826H147.775V310.487Z" fill="#FCF9DE"/>
<path d="M122.58 310.487H125.904V282.826H122.58V310.487Z" fill="#FCF9DE"/>
<path d="M151.09 310.487V307.163H122.571V310.487H151.09Z" fill="#FCF9DE"/>
<path d="M151.09 286.151V282.826H122.571V286.151H151.09Z" fill="#FCF9DE"/>
<path d="M121.528 258.48V286.14H150.047V258.48H121.528Z" fill="#6E4A34"/>
<path d="M148.062 285.095H151.386V258.892H148.062V285.095Z" fill="#722828"/>
<path d="M122.876 285.095H126.2V258.892H122.876V285.095Z" fill="#722828"/>
<path d="M151.386 262.206V258.881H122.867V262.206H151.386Z" fill="#722828"/>
<path d="M147.775 286.151H151.098V258.491H147.775V286.151Z" fill="#FCF9DE"/>
<path d="M122.58 286.151H125.904V258.491H122.58V286.151Z" fill="#FCF9DE"/>
<path d="M151.09 286.151V282.826H122.571V286.151H151.09Z" fill="#FCF9DE"/>
<path d="M151.09 261.815V258.491H122.571V261.815H151.09Z" fill="#FCF9DE"/>
<path d="M342.985 168.777H344.864C354.826 168.777 364.379 172.736 371.423 179.781C378.468 186.827 382.425 196.383 382.425 206.347V209.27H305.404V206.368C305.401 201.431 306.371 196.542 308.259 191.98C310.146 187.418 312.914 183.273 316.405 179.781C319.895 176.29 324.039 173.522 328.6 171.633C333.161 169.745 338.049 168.775 342.985 168.777Z" fill="#6E4A34"/>
<path d="M345.097 167.722H346.975C356.937 167.722 366.491 171.68 373.535 178.726C380.579 185.772 384.536 195.328 384.536 205.292V208.215H307.515V205.313C307.512 200.376 308.482 195.486 310.37 190.924C312.258 186.362 315.026 182.217 318.516 178.726C322.007 175.235 326.151 172.466 330.712 170.578C335.272 168.69 340.161 167.719 345.097 167.722Z" stroke="#FCF9DE" stroke-width="4" stroke-miterlimit="10"/>
<path opacity="0.29" d="M426.54 210.875L425.372 208.004L423.334 203.023L421.775 199.213L419.737 194.222L418.174 190.412L416.14 185.431L414.577 181.621L412.543 176.629L410.98 172.82L408.942 167.838L407.391 164.029L406.255 161.253L402.676 159.037L342.874 122.037L286.638 159.037L283.272 161.253L282.544 164.029L281.552 167.838L280.255 172.82L279.263 176.629L277.965 181.621L276.973 185.431L275.665 190.412L274.673 194.222L273.375 199.213L272.384 203.023L271.086 208.004L267.9 220.214L254.943 234.06L246.006 232.794L261.453 216.141L263.437 208.004L264.65 203.023L265.589 199.213L266.802 194.222L267.731 190.412L268.944 185.431L269.873 181.621L271.096 176.629L272.025 172.82L273.238 167.838L274.167 164.029L275.391 159.037L275.707 157.728L342.874 111.242L411.234 159.037L414.4 161.253L415.073 164.029L416.011 167.838L417.228 172.82L418.166 176.629L419.379 181.621L420.317 185.431L421.53 190.412L422.468 194.222L423.685 199.213L424.623 203.023L425.836 208.004L426.54 210.875Z" fill="#590F0F"/>
<path d="M217.885 115.357L184.913 114.85L198.999 105.173H217.885V115.357Z" fill="#F2EADB"/>
<path d="M263.593 105.173L247.693 115.357H328.101L342.936 105.173H263.593Z" fill="#F2EADB"/>
</g>
<defs>
<clipPath id="clip0_2521_37922">
<rect width="457.589" height="315.873" fill="white"/>
</clipPath>
</defs>
</svg>
