<svg height='100px' width='100px'  fill="#000000" xmlns="http://www.w3.org/2000/svg" xmlns:xlink="http://www.w3.org/1999/xlink" version="1.1" x="0px" y="0px" viewBox="0 0 16 16" style="enable-background:new 0 0 16 16;" xml:space="preserve"><path d="M13.484,3.368L13.484,3.368L10.762,1h0l-0.709,0.709L11.767,3.2C11.312,3.457,11,3.94,11,4.5C11,5.327,11.673,6,12.5,6  c0.176,0,0.343-0.036,0.5-0.092V10c0,0.552-0.448,1-1,1s-1-0.448-1-1V8.5C11,7.673,10.327,7,9.5,7H9V3c0-0.552-0.448-1-1-1H3  C2.448,2,2,2.448,2,3v10c0,0.552-0.448,1-1,1v1h9v-1c-0.552,0-1-0.448-1-1V8h0.5C9.775,8,10,8.225,10,8.5V10c0,1.103,0.897,2,2,2  s2-0.897,2-2V4.5C14,4.066,13.812,3.653,13.484,3.368z M3,4h5v3H3V4z M12.5,5C12.225,5,12,4.776,12,4.5S12.225,4,12.5,4  c0.153,0,0.261,0.065,0.326,0.121l0.002,0.002l0,0C12.938,4.218,13,4.355,13,4.5C13,4.776,12.775,5,12.5,5z"></path></svg>