<svg width="34" height="34" viewBox="0 0 34 34" fill="none" xmlns="http://www.w3.org/2000/svg">
<g clip-path="url(#clip0_1636_23747)">
<path d="M27.1182 18.3307C27.1748 17.9057 27.2032 17.4665 27.2032 16.999C27.2032 16.5456 27.1748 16.0923 27.104 15.6672L29.9799 13.4288C30.235 13.2305 30.3058 12.848 30.15 12.5646L27.4298 7.86111C27.2598 7.54943 26.9057 7.45026 26.594 7.54943L23.208 8.90948C22.4997 8.37113 21.7488 7.91778 20.9129 7.57776L20.4029 3.97929C20.3462 3.63928 20.0629 3.39844 19.7229 3.39844H14.2827C13.9427 3.39844 13.6735 3.63928 13.6168 3.97929L13.1068 7.57776C12.2709 7.91778 11.5059 8.38529 10.8117 8.90948L7.42574 7.54943C7.11407 7.43609 6.75989 7.54943 6.58988 7.86111L3.88394 12.5646C3.71394 12.8621 3.7706 13.2305 4.05395 13.4288L6.92989 15.6672C6.85906 16.0923 6.80239 16.5598 6.80239 16.999C6.80239 17.4381 6.83072 17.9057 6.90156 18.3307L4.02561 20.5691C3.7706 20.7674 3.69977 21.1499 3.85561 21.4333L6.57571 26.1368C6.74572 26.4485 7.0999 26.5477 7.41158 26.4485L10.7975 25.0884C11.5059 25.6268 12.2568 26.0801 13.0926 26.4201L13.6026 30.0186C13.6735 30.3586 13.9427 30.5995 14.2827 30.5995H19.7229C20.0629 30.5995 20.3462 30.3586 20.3887 30.0186L20.8988 26.4201C21.7346 26.0801 22.4997 25.6268 23.1938 25.0884L26.5798 26.4485C26.8915 26.5618 27.2457 26.4485 27.4157 26.1368L30.1358 21.4333C30.3058 21.1216 30.235 20.7674 29.9658 20.5691L27.1182 18.3307ZM17.0028 22.0992C14.1977 22.0992 11.9026 19.8041 11.9026 16.999C11.9026 14.1939 14.1977 11.8988 17.0028 11.8988C19.8079 11.8988 22.103 14.1939 22.103 16.999C22.103 19.8041 19.8079 22.0992 17.0028 22.0992Z" fill="black"/>
</g>
<defs>
<clipPath id="clip0_1636_23747">
<rect width="34" height="34" fill="white"/>
</clipPath>
</defs>
</svg>
