<svg width="90" height="90" viewBox="0 0 90 90" fill="none" xmlns="http://www.w3.org/2000/svg">
<path d="M90 45C90 69.8514 69.8514 90 45 90C20.1486 90 0 69.8514 0 45C0 20.1486 20.1486 0 45 0C69.8566 0 90 20.1486 90 45Z" fill="black"/>
<path d="M22.201 46.512L22.3952 46.2069L34.1015 27.8939C34.2725 27.6257 34.6748 27.6535 34.8042 27.9447C36.7599 32.3277 38.4474 37.7786 37.6568 41.1721C37.3193 42.5683 36.3947 44.4593 35.3544 46.2069C35.2203 46.4612 35.0724 46.7109 34.9152 46.9513C34.8412 47.0622 34.7164 47.127 34.5823 47.127H22.5431C22.2195 47.127 22.03 46.7756 22.201 46.512Z" fill="#BD6629"/>
<path d="M74.3799 49.9149V52.8137C74.3799 52.9801 74.2782 53.1281 74.1303 53.1928C73.2241 53.5812 70.1218 55.0052 68.8319 56.799C65.5401 61.3807 63.025 67.932 57.403 67.932H33.9489C25.6361 67.932 18.8999 61.1727 18.8999 52.8322V52.564C18.8999 52.3421 19.0802 52.1618 19.3022 52.1618H32.3769C32.6358 52.1618 32.8254 52.4022 32.8023 52.6565C32.7098 53.5072 32.867 54.3764 33.2692 55.167C34.046 56.7435 35.6549 57.7283 37.3933 57.7283H43.8659V52.675H37.4672C37.139 52.675 36.9448 52.2959 37.1344 52.0277C37.2037 51.9214 37.2823 51.8104 37.3655 51.6856C37.9712 50.8257 38.8357 49.4895 39.6957 47.9684C40.2828 46.9421 40.8515 45.8463 41.3092 44.746C41.4017 44.5472 41.4757 44.3438 41.5496 44.1449C41.6745 43.7936 41.8039 43.4653 41.8964 43.1371C41.9888 42.8597 42.0628 42.5684 42.1368 42.2956C42.3541 41.3617 42.4466 40.3723 42.4466 39.3459C42.4466 38.9437 42.4281 38.523 42.3911 38.1207C42.3726 37.6815 42.3171 37.2423 42.2616 36.8031C42.2246 36.4147 42.1553 36.031 42.0813 35.6288C41.9888 35.0416 41.8594 34.4591 41.7114 33.8719L41.6606 33.65C41.5496 33.2478 41.4572 32.864 41.3277 32.4618C40.9625 31.1996 40.5417 29.9698 40.0979 28.8186C39.9361 28.3609 39.7511 27.9217 39.5662 27.4825C39.2934 26.8213 39.016 26.2203 38.7618 25.6516C38.6323 25.3927 38.5213 25.1569 38.4104 24.9165C38.2856 24.6437 38.1561 24.371 38.0267 24.112C37.9342 23.9132 37.8278 23.7283 37.7539 23.5434L36.9633 22.0824C36.8523 21.8836 37.0373 21.6478 37.2545 21.7079L42.2015 23.0487H42.2154C42.2246 23.0487 42.2293 23.0533 42.2339 23.0533L42.8858 23.2336L43.6024 23.437L43.8659 23.511V20.5706C43.8659 19.1512 45.0033 18 46.4088 18C47.1115 18 47.7495 18.2866 48.2072 18.7536C48.6649 19.2206 48.9516 19.8586 48.9516 20.5706V24.935L49.4786 25.0829C49.5203 25.0968 49.5619 25.1153 49.5989 25.143C49.7283 25.2401 49.9132 25.3835 50.149 25.5591C50.334 25.7071 50.5328 25.8874 50.7732 26.0723C51.2494 26.4561 51.818 26.9508 52.4422 27.5194C52.6086 27.6628 52.7705 27.8107 52.9184 27.9587C53.7229 28.7076 54.6244 29.5861 55.4844 30.557C55.7248 30.8297 55.9606 31.1071 56.201 31.3984C56.4414 31.6943 56.6957 31.9856 56.9176 32.2769C57.2089 32.6652 57.5232 33.0674 57.796 33.4882C57.9255 33.687 58.0734 33.8904 58.1983 34.0892C58.5496 34.6209 58.8594 35.1711 59.1553 35.7212C59.2801 35.9755 59.4096 36.2529 59.5205 36.5257C59.8488 37.2608 60.1077 38.0098 60.2741 38.7588C60.325 38.9206 60.362 39.0963 60.3805 39.2535V39.2904C60.4359 39.5124 60.4544 39.7482 60.4729 39.9886C60.5469 40.756 60.5099 41.5235 60.3435 42.2956C60.2741 42.6239 60.1817 42.9336 60.0707 43.2619C59.9597 43.5763 59.8488 43.9045 59.7055 44.2143C59.4281 44.8569 59.0998 45.4996 58.7114 46.1006C58.5866 46.3225 58.4387 46.5583 58.2907 46.7802C58.1289 47.016 57.9625 47.238 57.8145 47.4553C57.6111 47.7327 57.3938 48.0239 57.1719 48.2828C56.9731 48.5556 56.7696 48.8284 56.5477 49.0688C56.238 49.434 55.9421 49.7808 55.6323 50.1137C55.4474 50.331 55.2486 50.5529 55.0451 50.7517C54.8463 50.9736 54.6429 51.1724 54.458 51.3573C54.1482 51.6671 53.8893 51.9075 53.672 52.1063L53.1634 52.5733C53.0895 52.638 52.9924 52.675 52.8907 52.675H48.9516V57.7283H53.9078C55.0174 57.7283 56.0715 57.3353 56.9222 56.6141C57.2135 56.3598 58.4849 55.2594 59.9875 53.5997C60.0383 53.5442 60.1031 53.5026 60.177 53.4841L73.8667 49.5265C74.121 49.4525 74.3799 49.6467 74.3799 49.9149Z" fill="#BD6629"/>
</svg>
