<svg width="1250" height="223" viewBox="0 0 1250 223" fill="none" xmlns="http://www.w3.org/2000/svg">
<path d="M1.25 209.271C1.25 209.271 45.3234 200.366 74.7057 195.913C104.088 191.461 118.779 190.57 148.161 187.008C177.544 183.446 192.235 182.556 221.617 178.103C251 173.651 265.691 169.643 295.073 164.745C324.455 159.848 339.146 158.957 368.529 153.614C397.911 148.271 412.602 143.818 441.984 138.03C471.367 132.242 486.058 128.234 515.44 124.672C544.823 121.11 559.514 124.227 588.896 120.22C618.278 116.212 632.969 109.533 662.352 104.636C691.734 99.7377 706.425 99.7377 735.807 95.7304C765.19 91.7231 779.881 88.6063 809.263 84.599C838.646 80.5916 853.337 80.5916 882.719 75.6938C912.101 70.796 926.792 66.3434 956.175 60.1098C985.557 53.8762 1000.25 49.4236 1029.63 44.5257C1059.01 39.6279 1073.7 39.6279 1103.09 35.6206C1132.47 31.6133 1147.16 28.4965 1176.54 24.4891C1205.92 20.4818 1250 15.584 1250 15.584" stroke="#46B955" stroke-width="2"/>
</svg>
