<svg width="38" height="30" viewBox="0 0 38 30" fill="none" xmlns="http://www.w3.org/2000/svg">
<g opacity="0.8">
<path d="M18.3125 8.4375C21.4191 8.4375 23.9375 7.1783 23.9375 5.625C23.9375 4.0717 21.4191 2.8125 18.3125 2.8125C15.2059 2.8125 12.6875 4.0717 12.6875 5.625C12.6875 7.1783 15.2059 8.4375 18.3125 8.4375Z" stroke="#FED9A6" stroke-width="2" stroke-miterlimit="10" stroke-linecap="round" stroke-linejoin="round"/>
<path d="M12.6875 5.625V9.375C12.6875 10.9688 15.2188 12.1875 18.3125 12.1875C21.4062 12.1875 23.9375 10.9688 23.9375 9.375V5.625" stroke="#FED9A6" stroke-width="2" stroke-miterlimit="10" stroke-linecap="round" stroke-linejoin="round"/>
<path d="M12.6875 9.375V13.125C12.6875 14.7188 15.2188 15.9375 18.3125 15.9375C21.4062 15.9375 23.9375 14.7188 23.9375 13.125V9.375" stroke="#FED9A6" stroke-width="2" stroke-miterlimit="10" stroke-linecap="round" stroke-linejoin="round"/>
<path d="M12.6875 13.125V16.875C12.6875 18.4688 15.2188 19.6875 18.3125 19.6875C21.4062 19.6875 23.9375 18.4688 23.9375 16.875V13.125" stroke="#FED9A6" stroke-width="2" stroke-miterlimit="10" stroke-linecap="round" stroke-linejoin="round"/>
<path d="M12.6875 16.875V20.625C12.6875 22.2188 15.2188 23.4375 18.3125 23.4375C21.4062 23.4375 23.9375 22.2188 23.9375 20.625V16.875" stroke="#FED9A6" stroke-width="2" stroke-miterlimit="10" stroke-linecap="round" stroke-linejoin="round"/>
<path d="M12.6875 20.625V24.375C12.6875 25.9688 15.2188 27.1875 18.3125 27.1875C21.4062 27.1875 23.9375 25.9688 23.9375 24.375V20.625" stroke="#FED9A6" stroke-width="2" stroke-miterlimit="10" stroke-linecap="round" stroke-linejoin="round"/>
<path d="M23.9375 20.8125C24.9688 21.2813 26.2812 21.5625 27.6875 21.5625C30.7812 21.5625 33.3125 20.3438 33.3125 18.75V15" stroke="#FED9A6" stroke-width="2" stroke-miterlimit="10" stroke-linecap="round" stroke-linejoin="round"/>
<path d="M23.9375 12.9375C24.9688 12.4688 26.2812 12.1875 27.6875 12.1875C30.7812 12.1875 33.3125 13.4062 33.3125 15C33.3125 16.5938 30.7812 17.8125 27.6875 17.8125C26.2812 17.8125 24.9688 17.5313 23.9375 17.0625" stroke="#FED9A6" stroke-width="2" stroke-miterlimit="10" stroke-linecap="round" stroke-linejoin="round"/>
<path d="M23.9375 24.5625C24.9688 25.0313 26.2812 25.3125 27.6875 25.3125C30.7812 25.3125 33.3125 24.0938 33.3125 22.5V18.75" stroke="#FED9A6" stroke-width="2" stroke-miterlimit="10" stroke-linecap="round" stroke-linejoin="round"/>
</g>
</svg>
