<svg width="38" height="30" viewBox="0 0 38 30" fill="none" xmlns="http://www.w3.org/2000/svg">
<g clip-path="url(#clip0)">
<path d="M22.0201 6.69614C21.9828 6.6999 21.9508 6.70405 21.9308 6.70977C21.9255 6.71128 21.9187 6.71354 21.9121 6.71707C21.9076 6.71943 21.8921 6.72797 21.8848 6.74711C21.8749 6.77346 21.8882 6.79455 21.897 6.80355C21.9048 6.81151 21.9136 6.81598 21.9185 6.81823C21.9379 6.82716 21.972 6.83485 22.0153 6.8428C22.061 6.85119 22.1235 6.86096 22.2048 6.87257C23.3852 7.05659 24.2887 7.51571 25.1944 8.39079L25.1945 8.39085C25.6096 8.79055 26.0255 9.26787 26.69 10.1487C27.4406 11.1469 27.981 11.785 28.494 12.2259C29.0087 12.6682 29.4945 12.9108 30.1335 13.1212C30.8824 13.3709 31.6458 13.4795 32.9777 13.5569L32.978 13.5569C34.4485 13.6343 34.9922 13.7427 35.5054 14.0898C35.7928 14.2865 36.005 14.5134 36.2342 14.8649L36.2342 14.8649L36.235 14.866L36.3743 15.0672L36.4649 15.0321L36.4341 14.8006C36.3395 13.9206 35.7143 12.6894 34.9209 11.8027L34.9208 11.8026L34.7816 11.6478L34.7178 11.577L34.6958 11.6697L34.6184 11.9946L34.6183 11.9952C34.5264 12.401 34.3852 12.7468 34.2232 12.9899C34.0591 13.2361 33.8826 13.3641 33.7233 13.3641C33.57 13.3641 33.4052 13.2653 33.3521 13.1329C33.3135 13.0326 33.2984 12.9764 33.3031 12.9193C33.308 12.8611 33.334 12.7959 33.3959 12.6799C33.6356 12.2481 33.6805 11.6936 33.5716 10.9622L33.5715 10.962C33.5559 10.8604 33.5363 10.7583 33.5165 10.6773C33.5067 10.6369 33.4966 10.6008 33.4867 10.5724C33.4817 10.5582 33.4765 10.545 33.4711 10.5338C33.4664 10.5242 33.46 10.5125 33.451 10.5029C33.4373 10.4869 33.4154 10.4685 33.3905 10.4496C33.3638 10.4293 33.3301 10.4058 33.2913 10.3801C33.2136 10.3286 33.1136 10.2672 33.0039 10.2031C32.7845 10.075 32.5239 9.9349 32.3209 9.84118C30.8412 9.15588 29.0673 8.93839 27.341 9.21829C27.3409 9.2183 27.3409 9.21831 27.3408 9.21832L26.9664 9.27592L26.706 8.97211L26.706 8.97211L26.7053 8.97128C25.6337 7.77548 24.6197 7.08705 23.4923 6.82087L23.4923 6.82087L23.4919 6.82076C23.2495 6.76603 22.9571 6.72318 22.6884 6.69981C22.4217 6.67662 22.1736 6.67218 22.0201 6.69614Z" fill="#FBB4AE" stroke="white" stroke-width="0.1"/>
<path d="M33.6888 8.7855L33.6888 8.7855C33.7199 8.19474 33.7979 7.80066 33.9719 7.4366C34.0029 7.36676 34.0342 7.30023 34.0599 7.25075C34.0727 7.22611 34.0847 7.20461 34.095 7.18881C34.1 7.18111 34.1056 7.17318 34.1115 7.16664C34.1144 7.16344 34.1186 7.15912 34.124 7.15524C34.1284 7.15214 34.14 7.14452 34.1565 7.14452C34.1749 7.14452 34.1899 7.15374 34.199 7.16594C34.2064 7.17586 34.2086 7.18598 34.2095 7.19104C34.2113 7.2016 34.2104 7.21218 34.2095 7.21933C34.2076 7.23516 34.203 7.25543 34.197 7.2773C34.1849 7.32181 34.165 7.3813 34.1415 7.44391M33.6888 8.7855L34.0946 7.4266M33.6888 8.7855L33.6888 8.78613L33.6888 8.7855ZM34.1415 7.44391C34.1415 7.44399 34.1415 7.44407 34.1414 7.44415L34.0946 7.4266M34.1415 7.44391C34.1416 7.44383 34.1416 7.44376 34.1416 7.44368L34.0946 7.4266M34.1415 7.44391C34.0219 7.77301 34.0054 8.24292 34.0822 8.78074M34.0946 7.4266C33.9709 7.76698 33.9554 8.24661 34.0327 8.78812M34.0822 8.78074C34.0822 8.78064 34.0822 8.78054 34.0821 8.78044L34.0327 8.78812M34.0822 8.78074C34.0822 8.78084 34.0822 8.78095 34.0822 8.78105L34.0327 8.78812M34.0822 8.78074L34.0327 8.78812M31.6727 8.78983C31.6777 8.79035 31.6843 8.7912 31.6924 8.79248C31.7135 8.79583 31.7418 8.80154 31.7762 8.80936C31.7419 8.79279 31.7134 8.77859 31.6922 8.76755C31.69 8.77115 31.6876 8.77419 31.6851 8.77677C31.681 8.78101 31.6766 8.78397 31.6727 8.78603M31.6727 8.78983L31.6854 8.77706C31.6808 8.78171 31.6761 8.78445 31.6727 8.78603M31.6727 8.78983C31.6697 8.78953 31.6672 8.78935 31.6651 8.78926M31.6727 8.78983L31.6708 8.79171H31.6501C31.6523 8.79171 31.6577 8.79158 31.6644 8.7895C31.6646 8.78943 31.6649 8.78935 31.6651 8.78926M31.6727 8.78603C31.6715 8.78657 31.6705 8.78698 31.6698 8.78728C31.6664 8.78852 31.6639 8.78895 31.6631 8.78908C31.6624 8.78919 31.662 8.78921 31.662 8.78922C31.662 8.78922 31.6627 8.78918 31.6643 8.78923C31.6646 8.78924 31.6649 8.78925 31.6651 8.78926M31.6727 8.78603C31.6698 8.78756 31.6672 8.78859 31.6651 8.78926M36.0905 11.6659L36.0509 11.6965L35.8588 11.4478L36.0905 11.6659ZM36.0905 11.6659L36.1248 11.6295L35.896 11.4141L36.0905 11.6659ZM33.619 9.29911C33.5994 9.30079 33.5657 9.29759 33.4918 9.27587C33.3958 9.24763 33.2394 9.19051 32.969 9.08235C32.7879 9.00371 32.4686 8.89872 32.1921 8.81751C32.0534 8.77676 31.9244 8.74169 31.8277 8.71869C31.7796 8.70723 31.7385 8.69855 31.708 8.69371C31.693 8.69133 31.679 8.68964 31.6674 8.68928C31.6618 8.6891 31.6549 8.68917 31.6479 8.69023C31.645 8.69069 31.6367 8.69196 31.6276 8.6968L33.619 9.29911ZM33.619 9.29911C33.616 9.30375 33.6132 9.30718 33.6106 9.30976L33.6459 9.34511L33.6338 9.29661C33.6297 9.29763 33.625 9.2986 33.619 9.29911ZM34.122 7.35015C34.1314 7.33071 34.1404 7.31279 34.1487 7.29688C34.161 7.27316 34.1712 7.25501 34.1789 7.24326C34.1828 7.23718 34.1851 7.23435 34.1858 7.23357C34.1862 7.23312 34.1849 7.23464 34.1821 7.23665L34.1821 7.23665C34.1804 7.23787 34.1711 7.24452 34.1565 7.24452C34.1556 7.24452 34.1547 7.24449 34.1539 7.24445C34.1473 7.2718 34.1361 7.30858 34.122 7.35015ZM34.1263 7.23352C34.1234 7.23112 34.1209 7.22843 34.1187 7.22559C34.1126 7.21732 34.1112 7.20965 34.1109 7.20779C34.1105 7.20554 34.1105 7.20417 34.1105 7.20417C34.1105 7.20417 34.1105 7.20516 34.1103 7.20742C34.1093 7.21576 34.1062 7.23031 34.1005 7.25099C34.0944 7.27345 34.0859 7.30082 34.0757 7.33115C34.0948 7.29156 34.1123 7.25766 34.1263 7.23352ZM31.6992 8.74294C31.7231 8.74669 31.7549 8.75316 31.7928 8.76188C31.7892 8.76013 31.7857 8.75841 31.7822 8.75671C31.7447 8.73845 31.716 8.72385 31.6979 8.71399C31.6885 8.70886 31.6833 8.70577 31.6814 8.70445C31.6786 8.7026 31.6836 8.70538 31.6884 8.71137C31.6899 8.71321 31.6936 8.71804 31.6962 8.72534C31.6977 8.72931 31.6993 8.73552 31.6992 8.74294ZM33.8752 12.7406C33.8805 12.7214 33.8886 12.6967 33.8995 12.6668C33.882 12.6976 33.8681 12.7199 33.8578 12.7345C33.8516 12.7432 33.8482 12.747 33.8472 12.748C33.8469 12.7484 33.8468 12.7485 33.8471 12.7483C33.8477 12.7478 33.8497 12.7463 33.853 12.7447C33.856 12.7432 33.8625 12.7406 33.8714 12.7405C33.8727 12.7405 33.8739 12.7405 33.8752 12.7406ZM33.9049 12.7542C33.9108 12.7601 33.9138 12.7663 33.9152 12.7701C33.9172 12.7754 33.9175 12.7796 33.9175 12.7811C33.9176 12.7803 33.9178 12.778 33.9186 12.774C33.9203 12.7651 33.9237 12.752 33.9294 12.7339C33.9335 12.7206 33.9388 12.7052 33.945 12.6878C33.9293 12.7157 33.9159 12.7378 33.9049 12.7542ZM33.8935 12.5448C33.8934 12.545 33.8933 12.5451 33.8932 12.5453L33.9399 12.5633L33.8937 12.5442C33.8936 12.5444 33.8935 12.5446 33.8935 12.5448ZM32.0472 8.98841C32.0474 8.98849 32.0476 8.98857 32.0478 8.98865L32.0678 8.94284L32.0467 8.98815C32.0468 8.98824 32.047 8.98832 32.0472 8.98841Z" fill="#FBB4AE" stroke="white" stroke-width="0.1"/>
<path d="M22.806 11.1228L22.8062 11.123C23.0649 11.4758 23.3939 11.7891 23.7329 12.0223C24.0713 12.2551 24.4235 12.4107 24.7288 12.4428L24.7288 12.4428L24.7301 12.4429C24.8291 12.4509 24.9131 12.4491 24.9808 12.437C25.0477 12.425 25.1044 12.4017 25.1419 12.3614C25.1816 12.319 25.1935 12.2646 25.1837 12.2064C25.1742 12.1502 25.1447 12.0891 25.1002 12.0244L25.1002 12.0244L25.0994 12.0233C24.9772 11.8553 24.843 11.6367 24.7295 11.431C24.6156 11.2245 24.5247 11.0344 24.4875 10.9229C24.4421 10.7866 24.3343 10.3558 24.257 9.98474C24.1252 9.34919 23.9887 8.89857 23.8053 8.55935C23.6208 8.21815 23.3898 7.99134 23.0734 7.80147C22.9537 7.72971 22.7728 7.64727 22.5877 7.57712C22.403 7.50714 22.2103 7.44792 22.0664 7.42384L21.9125 7.39305L21.8582 7.38218L21.8529 7.43734L21.822 7.76225L21.822 7.76225L21.822 7.76253C21.7279 8.81242 22.1499 10.2167 22.806 11.1228Z" fill="#FBB4AE" stroke="white" stroke-width="0.1"/>
<path d="M32.9312 17.87L32.9313 17.8701C34.974 18.6903 35.802 19.1054 36.4447 19.6561C36.9773 20.1279 37.2944 20.7342 37.3249 21.368C37.325 21.4332 37.3332 21.4876 37.3441 21.5271C37.3496 21.5467 37.3562 21.5642 37.3638 21.578C37.3675 21.5848 37.3725 21.5926 37.3793 21.5994C37.3847 21.6049 37.3991 21.6179 37.4213 21.6179V21.6189L37.4311 21.6169C37.4502 21.6131 37.4645 21.6012 37.4727 21.5935C37.4823 21.5845 37.4916 21.5732 37.5005 21.5612C37.5185 21.5369 37.5386 21.5042 37.5598 21.4659C37.6024 21.3891 37.6524 21.2851 37.703 21.1703C37.8041 20.9409 37.9095 20.6639 37.9646 20.4674L37.9646 20.4674L37.9649 20.466C38.0279 20.2139 38.0707 19.8506 38.0882 19.4893C38.1057 19.1281 38.0981 18.7646 38.0586 18.5122L38.0586 18.5119C37.7767 16.7735 36.6011 15.4914 34.7142 14.8676C34.1216 14.6649 33.4678 14.5406 32.3385 14.3704L32.3382 14.3704C30.4038 14.0918 29.7203 13.8763 29.1132 13.3906L29.1132 13.3906L29.1127 13.3902C29.0665 13.3543 29.0241 13.3204 28.987 13.2907C28.9683 13.2757 28.9509 13.2618 28.9351 13.2493C28.9119 13.2309 28.8917 13.2152 28.8761 13.2041C28.8684 13.1986 28.8609 13.1934 28.8542 13.1895C28.8508 13.1876 28.8468 13.1854 28.8423 13.1835C28.8392 13.1822 28.8302 13.1785 28.8189 13.1785H28.7724L28.7691 13.225L28.8189 13.2285L28.7691 13.225L28.7691 13.225L28.7691 13.225L28.7691 13.2251L28.769 13.2257L28.7689 13.2276L28.7684 13.2351L28.7666 13.2635C28.7651 13.2881 28.7632 13.3237 28.7613 13.3675C28.7574 13.455 28.7535 13.5757 28.7535 13.7081C28.7535 14.6255 29.0288 15.3581 29.6927 16.0161C30.3538 16.6713 31.3982 17.2506 32.9312 17.87Z" fill="#FBB4AE" stroke="white" stroke-width="0.1"/>
<path d="M30.734 18.3408L30.7339 18.3408L30.7342 18.3426C30.8561 19.0588 30.7301 19.7072 30.3877 20.2351C30.045 20.7633 29.4831 21.1748 28.7263 21.4118L28.7262 21.4116L28.7227 21.4131C28.6504 21.442 28.4619 21.4876 28.2111 21.5381C27.9625 21.5882 27.6577 21.6423 27.3566 21.6886L27.3566 21.6886L27.3555 21.6888C26.1332 21.9054 25.57 22.0455 25.0217 22.3118C24.827 22.4053 24.6093 22.5219 24.4437 22.6193C24.3611 22.6679 24.2904 22.7123 24.242 22.747C24.2181 22.764 24.1977 22.7801 24.1837 22.7941C24.1772 22.8006 24.1689 22.8098 24.1634 22.8208C24.1586 22.8302 24.1468 22.8616 24.1726 22.8873C24.1859 22.9006 24.2019 22.9041 24.2105 22.9052C24.2201 22.9065 24.2297 22.9061 24.2377 22.9053C24.2541 22.9037 24.2731 22.8995 24.2922 22.8945C24.3306 22.8844 24.3782 22.8686 24.4237 22.8534L24.4249 22.853L24.4249 22.853L24.4259 22.8527C25.1156 22.6074 25.8837 22.484 27.042 22.4223L27.0426 22.4222C27.4317 22.3963 27.8642 22.3595 28.1035 22.3391C28.15 22.3352 28.1892 22.3318 28.2193 22.3293L28.2193 22.3294L28.2218 22.3291C29.2654 22.1889 30.0045 21.8763 30.5718 21.2932L30.5722 21.2928C30.8862 20.9631 31.0755 20.6634 31.2327 20.2391L31.2329 20.2384C31.2799 20.1054 31.3082 20.0089 31.3243 19.8859C31.3403 19.7643 31.3441 19.6182 31.3441 19.3863V19.3824C31.3441 19.1461 31.3441 19.0005 31.3302 18.8778C31.3161 18.7524 31.2876 18.6516 31.2328 18.5027C31.0922 18.1122 30.9349 17.828 30.7289 17.5903L30.5901 17.4206L30.504 17.4681L30.5814 17.7002L30.5813 17.7002L30.582 17.7019C30.627 17.8219 30.7035 18.1121 30.734 18.3408Z" fill="#FBB4AE" stroke="white" stroke-width="0.1"/>
<path d="M32.1463 20.8459L32.1463 20.8459C31.7401 19.9554 31.6448 19.1078 31.8651 18.3054L31.8666 18.3L31.8669 18.3001L31.8676 18.2983C31.8825 18.261 31.8988 18.2202 31.9156 18.1888C31.924 18.1729 31.9341 18.1565 31.946 18.1435C31.9568 18.1316 31.9771 18.1139 32.0061 18.1139C32.0233 18.1139 32.042 18.1196 32.0572 18.1252C32.074 18.1314 32.0932 18.14 32.1136 18.1502C32.1544 18.1706 32.2026 18.1987 32.2505 18.2306C32.4338 18.3529 32.818 18.5681 33.8093 19.1102C35.0643 19.792 35.7828 20.3217 36.284 20.9326C36.7233 21.466 36.9896 22.0777 37.1147 22.8278C37.1544 23.0426 37.1618 23.4029 37.1463 23.7592C37.1308 24.1159 37.092 24.476 37.0365 24.6901C36.693 26.017 35.9115 27.0814 34.7684 27.6922C34.7683 27.6922 34.7683 27.6923 34.7682 27.6923L34.7446 27.6482C34.6303 27.7106 34.5299 27.759 34.4717 27.784L32.1463 20.8459ZM32.1463 20.8459L32.1467 20.8468C32.3652 21.2994 32.5685 21.6273 33.4191 22.8645C34.1307 23.9319 34.4828 24.5611 34.6506 25.0798L34.6507 25.08C34.9252 25.9188 34.8796 26.6636 34.514 27.4407L32.1463 20.8459ZM34.412 27.7537C34.4116 27.7538 34.4117 27.7538 34.4121 27.7537L34.412 27.7537Z" fill="#FBB4AE" stroke="white" stroke-width="0.1"/>
<path d="M20.6324 25.5212L20.6323 25.5211L20.63 25.5233L20.3051 25.8328L20.2318 25.9026L20.3318 25.9184L20.6258 25.9648L20.6261 25.9648C21.3991 26.0808 21.8833 26.1921 22.3088 26.4105C22.7342 26.6289 23.1046 26.9564 23.6457 27.5129L23.6457 27.513C23.9553 27.8302 24.1673 28.027 24.3672 28.1616C24.5688 28.2973 24.7563 28.3687 25.0144 28.4391L25.0148 28.4392C25.7951 28.6462 26.5649 28.2803 26.838 27.5734L26.838 27.5734L26.8386 27.5719C26.8953 27.4098 26.9188 27.2022 26.9129 27.0047C26.907 26.8078 26.8716 26.6139 26.8052 26.481L26.8049 26.4805C26.642 26.1629 26.3222 25.9579 25.9894 25.8877C25.6571 25.8177 25.3015 25.8802 25.0696 26.1121C24.8805 26.3012 24.8127 26.5461 24.8548 26.7586C24.8971 26.9722 25.0505 27.1513 25.2959 27.2021L25.2959 27.2021L25.2979 27.2025L25.2997 27.2028C25.3213 27.2064 25.3399 27.2095 25.3524 27.2108C25.3575 27.2114 25.3674 27.2124 25.3767 27.2111C25.3795 27.2107 25.384 27.2099 25.3892 27.2079C25.3941 27.206 25.4031 27.2017 25.4107 27.1923C25.4197 27.1814 25.4234 27.1677 25.422 27.1545C25.4207 27.1433 25.4161 27.1352 25.4134 27.1312C25.4083 27.1235 25.4021 27.1186 25.3998 27.1168C25.3965 27.1143 25.3932 27.1121 25.3902 27.1103C25.3843 27.1066 25.3769 27.1025 25.3687 27.0981C25.3522 27.0893 25.3286 27.0775 25.2982 27.0624L25.2975 27.062L25.2975 27.062L25.2961 27.0613C25.2002 27.0171 25.135 26.9676 25.0934 26.9094C25.0523 26.8519 25.0312 26.7814 25.0312 26.689L25.0311 26.6874C25.0241 26.4696 25.1424 26.3048 25.3221 26.2176C25.503 26.1298 25.7466 26.1213 25.9819 26.224C26.1625 26.3069 26.281 26.3985 26.3552 26.5098C26.4293 26.6208 26.4629 26.7571 26.4629 26.9365C26.4629 27.4796 25.9937 27.9037 25.4524 27.8308C25.153 27.7858 24.7934 27.6051 24.6012 27.3834L24.6012 27.3834L24.6008 27.3829C24.1288 26.8519 24.3042 25.9777 24.9873 25.6511L24.9875 25.6509C25.5107 25.3968 26.2038 25.4701 26.7487 25.8181C27.0621 26.0245 27.2852 26.2178 27.4973 26.5131C27.7105 26.8102 27.9138 27.2121 28.1844 27.8383L28.1846 27.8387C28.2776 28.0481 28.3785 28.2653 28.4697 28.4498C28.5603 28.6328 28.6429 28.7866 28.6995 28.8677C29.2168 29.6512 29.8651 30.05 30.6284 30.05C31.053 30.05 31.3704 29.9867 31.7651 29.7815C31.9066 29.7107 32.0824 29.6052 32.2189 29.5135C32.2872 29.4677 32.3468 29.4245 32.388 29.3903C32.4081 29.3734 32.4259 29.3571 32.4379 29.3426C32.4435 29.3359 32.4508 29.3261 32.4551 29.3146C32.4586 29.3053 32.4638 29.2839 32.4516 29.2638C32.4509 29.2624 32.4501 29.261 32.4492 29.2596C32.4433 29.2507 32.4358 29.2452 32.4297 29.2419C32.4187 29.2361 32.4081 29.2354 32.4037 29.2353C32.3937 29.2349 32.3834 29.2368 32.3759 29.2384C32.3593 29.2418 32.3374 29.2484 32.3131 29.2561C32.285 29.2651 32.2505 29.2769 32.2131 29.2897C32.186 29.2989 32.1575 29.3086 32.1288 29.3182L32.1288 29.3181L32.127 29.3188C31.3141 29.6256 30.4992 29.6047 30.0394 29.2636C29.743 29.0412 29.5002 28.6211 29.3779 28.0719C29.3748 28.0537 29.3696 28.0237 29.3628 27.9842C29.3334 27.814 29.2734 27.4673 29.2235 27.1303L29.2234 27.1298C29.0526 26.0584 28.8808 25.571 28.5039 25.0058L28.5038 25.0055C28.1084 24.4203 27.3538 23.9507 26.5258 23.732C26.2654 23.661 25.9015 23.6182 25.5342 23.6046C25.1666 23.591 24.7917 23.6064 24.5088 23.6536C23.1992 23.8719 21.7832 24.5571 20.6324 25.5212Z" fill="#FBB4AE" stroke="white" stroke-width="0.1"/>
<path d="M19.9532 14.6674L19.9899 14.7014C20.0872 14.5966 20.1744 14.5281 20.2938 14.4774C20.4149 14.4261 20.5718 14.3919 20.8106 14.3611L20.811 14.361C21.6052 14.252 22.1275 14.0485 22.5403 13.6518C22.7215 13.4862 22.8536 13.3188 22.9421 13.1298C23.0306 12.9406 23.0742 12.7326 23.0821 12.4877C23.0821 12.4876 23.0821 12.4875 23.0821 12.4874L23.0976 12.1321L23.0985 12.1113L23.0843 12.0959L22.8837 11.8799C22.5175 11.4593 19.8185 8.48189 17.2053 5.60972C15.8979 4.17276 14.6118 2.76188 13.6496 1.71022C13.1685 1.1844 12.7683 0.748341 12.4869 0.44371C12.3463 0.291412 12.2352 0.17187 12.1586 0.0903592C12.1203 0.049637 12.0904 0.0182257 12.0696 -0.00308323C12.0593 -0.0136803 12.0509 -0.0221098 12.0448 -0.0280276C12.0418 -0.0309007 12.0387 -0.0337335 12.036 -0.0360613C12.0347 -0.0371329 12.0327 -0.0388689 12.0302 -0.0405937C12.0288 -0.0415075 12.0257 -0.0434231 12.0236 -0.0445027C12.02 -0.0461599 12.0087 -0.0493741 12.0007 -0.05C11.9904 -0.05 11.9735 -0.046536 11.9611 -0.0310163C11.9502 -0.0173901 11.9498 -0.00292946 11.95 0.00293269C11.9505 0.0137489 11.9544 0.0221516 11.9553 0.0241527C11.9554 0.0242211 11.9554 0.024282 11.9554 0.0243352C11.9582 0.0304257 11.9622 0.0365554 11.9652 0.0411577C11.9721 0.0513806 11.9825 0.065419 11.9954 0.0821919C12.0214 0.116096 12.0605 0.164896 12.1088 0.224786C12.1302 0.251444 12.1536 0.280362 12.1786 0.31125C12.2662 0.41954 12.3733 0.552052 12.4875 0.696327L12.4875 0.696332L12.4881 0.697072C16.0937 5.07637 21.647 11.8827 21.9246 12.2528C22.034 12.3987 22.0617 12.5332 22.0251 12.653C21.9878 12.775 21.8802 12.8941 21.6926 12.9992L21.6922 12.9994C21.5891 13.0583 21.4272 13.1189 21.2626 13.1648C21.0977 13.2109 20.9366 13.2404 20.8351 13.2404C20.602 13.2404 20.3204 13.1227 20.1278 12.9301C20.0964 12.8986 20.0349 12.8208 19.937 12.6848C19.84 12.5501 19.7093 12.361 19.5402 12.1098C19.2021 11.6074 18.7111 10.8574 18.0304 9.79766C17.512 8.98529 17.0323 8.24256 16.6803 7.70096C16.5043 7.43016 16.3602 7.20961 16.259 7.05577C16.2085 6.97886 16.1687 6.91856 16.141 6.87698L16.1085 6.82867L16.0991 6.81505L16.0958 6.81037C16.0956 6.81015 16.093 6.8065 16.0897 6.80322L16.0839 6.79748L16.0767 6.79386L16.076 6.79351C16.073 6.792 16.0656 6.78825 16.0582 6.78604C16.0541 6.78483 16.0451 6.78245 16.0339 6.78382C16.0203 6.78551 16.0048 6.79288 15.995 6.80871C15.987 6.82169 15.9866 6.83454 15.9868 6.84076C15.9871 6.84778 15.9884 6.85416 15.9897 6.85904C15.9922 6.86889 15.9966 6.88036 16.0021 6.89314C16.024 6.94413 16.0785 7.04897 16.1922 7.25708C16.4206 7.67504 16.8925 8.51837 17.8359 10.2041L17.8364 10.2049L17.8364 10.205C18.432 11.2647 18.8263 11.9837 19.0716 12.4492C19.1943 12.682 19.2794 12.8509 19.3338 12.9671C19.361 13.0252 19.3802 13.0695 19.3925 13.1016C19.3986 13.1177 19.4028 13.1301 19.4054 13.1392C19.4078 13.1479 19.4081 13.1514 19.4081 13.1514C19.4081 13.1514 19.4081 13.1513 19.4081 13.1511C19.4081 13.2451 19.394 13.3141 19.3521 13.3925C19.3088 13.4737 19.2353 13.5664 19.1114 13.7057C18.6834 14.1813 18.4961 14.7199 18.3565 15.8215L18.3564 15.8215C18.2033 17.0311 17.7915 17.889 16.6034 19.3548L16.6033 19.355C15.9077 20.2206 15.7956 20.3798 15.6226 20.7413C15.5135 20.9595 15.4423 21.1332 15.3947 21.3236C15.3471 21.5138 15.3237 21.7186 15.3082 21.9983L15.3082 21.9984C15.2769 22.5932 15.3399 22.9704 15.5114 23.5319L15.5115 23.5322C15.6681 24.0335 15.841 24.3627 16.2599 24.9988C16.4373 25.2765 16.5794 25.5186 16.677 25.7099C16.7258 25.8057 16.7631 25.8879 16.7881 25.9551C16.8135 26.0236 16.8243 26.0717 16.8243 26.1011C16.8243 26.117 16.8248 26.134 16.8274 26.1499C16.8301 26.1661 16.8356 26.1843 16.8479 26.2007C16.8743 26.236 16.9171 26.2439 16.9594 26.2439C17.0033 26.2439 17.0635 26.2353 17.1448 26.2198C17.2269 26.2042 17.334 26.1808 17.4731 26.1499L17.4736 26.1498C18.8084 25.8394 19.9182 25.3102 20.5314 24.6498L20.5315 24.6497C20.7184 24.4473 20.8394 24.2871 20.9125 24.1044C20.9856 23.9216 21.0089 23.7207 21.0089 23.4399C21.0089 23.2622 21.0051 23.15 20.9889 23.0544C20.9724 22.9576 20.9434 22.8797 20.8966 22.7704L20.8961 22.7694C20.7352 22.4154 20.4307 22.1303 19.7958 21.6967C18.9652 21.1276 18.6227 20.674 18.5329 20.0752C18.495 19.8179 18.4989 19.6043 18.5686 19.335C18.6388 19.0635 18.7762 18.7346 19.0082 18.2474C19.2483 17.744 19.4006 17.385 19.5024 17.0229C19.6043 16.6606 19.6549 16.2971 19.6937 15.7851L19.6937 15.7849C19.7401 15.1351 19.8172 14.8884 19.99 14.7013L19.9532 14.6674ZM19.9532 14.6674C19.7676 14.8685 19.6902 15.1315 19.6438 15.7813L22.5061 13.6153C22.1038 14.0021 21.5933 14.2032 20.8042 14.3115C20.3246 14.3734 20.1544 14.4508 19.9532 14.6674ZM16.0156 6.87019C16.0151 6.8696 16.0151 6.86948 16.0156 6.87017L16.0156 6.87019ZM11.9712 0.0400978L11.9712 0.0401049L11.9712 0.0400978ZM17.2333 22.6413L17.2329 22.642C17.1608 22.7718 17.0582 22.855 16.9525 22.8873C16.8478 22.9194 16.7373 22.9028 16.6422 22.8281L16.642 22.828C16.5825 22.7817 16.556 22.7288 16.5529 22.6714C16.5498 22.612 16.5716 22.5411 16.6226 22.4611C16.677 22.3755 16.7102 22.2995 16.6994 22.2294C16.688 22.155 16.6309 22.106 16.5582 22.0656L16.5587 22.0649L16.5498 22.0619C16.5115 22.0491 16.4901 22.0315 16.4779 22.0145C16.4657 21.9974 16.4602 21.9772 16.4602 21.9546C16.4602 21.8746 16.5294 21.8085 16.6541 21.7831C16.7757 21.7585 16.9284 21.7799 17.0481 21.8572C17.3049 22.0287 17.3899 22.3708 17.2333 22.6413Z" fill="#FBB4AE" stroke="white" stroke-width="0.1"/>
<path d="M22.659 15.4279L22.659 15.4279L22.6588 15.4288C22.6261 15.5596 22.6185 15.7395 22.6324 15.9035C22.6393 15.9858 22.6518 16.0656 22.6698 16.1346C22.6876 16.2024 22.7119 16.2643 22.7452 16.3071L22.7454 16.3073C22.8341 16.4201 22.9222 16.4969 23.0476 16.5437C23.1706 16.5895 23.3251 16.6049 23.5428 16.6049C23.9751 16.6049 24.3774 16.5107 24.683 16.3578C24.986 16.2064 25.2044 15.9915 25.2474 15.7442C25.2894 15.5414 25.2211 15.3079 25.0898 15.099C24.9577 14.889 24.758 14.697 24.5253 14.5766C24.401 14.5104 24.2158 14.467 24.0331 14.4493C23.8504 14.4316 23.6612 14.4388 23.5283 14.4802C23.3317 14.5377 23.1425 14.6716 22.9894 14.8407C22.8359 15.0101 22.7155 15.2181 22.659 15.4279ZM24.3516 14.8179L24.3516 14.8179L24.3526 14.8185C24.4611 14.8836 24.5201 14.9595 24.5409 15.0346C24.5614 15.1085 24.547 15.1899 24.4922 15.2727C24.4531 15.3241 24.37 15.3812 24.2674 15.426C24.1652 15.4706 24.0522 15.4992 23.9605 15.4992C23.8166 15.4992 23.6675 15.4485 23.5549 15.374C23.4394 15.2977 23.3762 15.2063 23.3762 15.1315C23.3762 14.9604 23.5115 14.8193 23.7117 14.7514C23.9103 14.684 24.1573 14.6956 24.3516 14.8179Z" fill="#FBB4AE" stroke="white" stroke-width="0.1"/>
</g>
<defs>
<clipPath id="clip0">
<rect width="38" height="30" fill="white"/>
</clipPath>
</defs>
</svg>
