<svg width="30" height="25" viewBox="0 0 30 25" xmlns="http://www.w3.org/2000/svg">
<path d="M22.7552 23.4375L28.6498 17.3789C28.9427 17.0859 29.1302 16.6406 29.1302 16.2422C29.1302 15.3398 28.4857 14.6953 27.5834 14.6953C27.1498 14.6953 26.7865 14.8359 26.4935 15.1406L24.1146 17.6133L23.1068 18.7969L23.1654 16.6406V2.71875C23.1654 1.81641 22.4974 1.14844 21.5951 1.14844C20.7045 1.14844 20.0365 1.81641 20.0365 2.71875V16.6406L20.0951 18.7969L19.0873 17.6133L16.7084 15.1406C16.4154 14.8359 16.0404 14.6953 15.6185 14.6953C14.7162 14.6953 14.0716 15.3398 14.0716 16.2422C14.0716 16.6406 14.2591 17.0859 14.5521 17.3789L20.4466 23.4375C21.0795 24.1055 22.1107 24.1172 22.7552 23.4375ZM6.53649 1.66406L0.641958 7.71094C0.348989 8.00391 0.161489 8.4375 0.161489 8.83594C0.161489 9.75 0.806021 10.3945 1.70836 10.3945C2.14196 10.3945 2.50524 10.2422 2.79821 9.94922L5.17711 7.46484L6.18493 6.29297L6.12633 8.44922V22.3711C6.12633 23.2734 6.7943 23.9414 7.69665 23.9414C8.58727 23.9414 9.25524 23.2734 9.25524 22.3711V8.44922L9.19665 6.29297L10.2045 7.46484L12.5834 9.94922C12.8763 10.2422 13.2396 10.3945 13.6732 10.3945C14.5756 10.3945 15.2201 9.75 15.2201 8.83594C15.2201 8.4375 15.0326 8.00391 14.7396 7.71094L8.84508 1.66406C8.20055 0.984375 7.18102 0.984375 6.53649 1.66406Z" fill="inherit" fill-opacity="0.3"/>
</svg>
