<svg width="1136" height="784" viewBox="0 0 1136 784" fill="none" xmlns="http://www.w3.org/2000/svg">
<path d="M233.397 0H138.719V25.0348H233.397V0Z" fill="#313335"/>
<path d="M237.371 0H134.82V4.89349H237.371V0Z" fill="#525557"/>
<path d="M350.204 185.102V714.663C350.204 717.5 350.062 720.407 349.708 723.244C348.502 733.811 344.956 744.024 339.353 753.031C337.722 755.726 335.878 758.208 333.822 760.619C330.63 764.449 327.013 767.924 322.971 770.903C318.361 774.378 313.326 777.144 307.936 779.2C307.368 779.413 306.872 779.626 306.305 779.768C305.737 779.909 305.099 780.193 304.532 780.335C302.12 781.044 299.709 781.682 297.227 782.108C295.383 782.392 293.539 782.675 291.695 782.817C290.206 782.959 288.716 783.03 287.156 783.03H83.9698C80.8493 782.959 77.6579 782.675 74.6084 782.108C73.5446 781.895 72.4808 781.682 71.4879 781.47C61.4881 779.058 52.2685 774.236 44.68 767.286C42.6943 765.513 40.8504 763.669 39.1483 761.683C27.9429 748.563 21.8438 731.896 21.9147 714.663V185.102C21.9147 178.081 22.9076 171.06 24.8933 164.322C32.9782 136.664 56.7365 116.664 84.8209 116.664H287.369C319.425 116.664 345.878 142.763 349.779 176.521C349.991 179.357 350.204 182.194 350.204 185.102Z" fill="#B36940"/>
<path d="M350.201 185.102V714.663C350.201 717.5 350.06 720.407 349.705 723.244C347.436 743.031 337.436 760.123 323.039 770.973V176.521H349.705C349.989 179.357 350.201 182.194 350.201 185.102Z" fill="#C58257"/>
<path d="M167.299 451.69L212.901 329.069C212.901 329.069 117.584 360.913 167.299 451.69Z" fill="#CE9D83"/>
<path d="M210.35 356.516L178.648 445.166C178.648 445.166 266.944 411.975 210.35 356.516Z" fill="#CE9D83"/>
<path d="M20.7819 167.159C20.7819 166.379 20.7109 165.528 20.7109 164.677C20.7109 80.6367 94.6807 12.4824 186.026 12.4824C277.371 12.4824 351.27 80.6367 351.27 164.677C351.27 165.528 351.27 166.308 351.27 167.159H20.7819Z" fill="#E2DBD6"/>
<path d="M20.7109 164.747C20.7109 80.7069 94.6807 12.5526 186.026 12.5526C209.288 12.4817 232.408 17.0205 253.896 25.9565C234.181 20.5666 207.586 17.4461 181.061 27.0912C117.588 50.0693 109.999 155.031 109.999 155.031V167.3H20.7819C20.7819 166.378 20.7109 165.527 20.7109 164.747Z" fill="#B6A7A4"/>
<path opacity="0.7" d="M342.332 145.103H324.886C324.886 145.103 310.134 55.3888 230.633 28.1555C230.633 28.0845 323.113 47.7294 342.332 145.103Z" fill="#A2A4A6"/>
<path d="M21.8438 164.322V714.663C21.8438 752.463 49.9991 783.101 84.7499 783.101H110.068V164.322H21.8438Z" fill="#885031"/>
<path d="M360.204 150.918H11.7734V176.378H360.204V150.918Z" fill="#373738"/>
<path d="M360.204 172.123H11.7734V176.52H360.204V172.123Z" fill="#999B9E"/>
<path d="M360.204 154.109H11.7734V157.088H360.204V154.109Z" fill="#A2A4A6"/>
<path d="M10.4242 212.903H364.245C368.571 213.257 372.33 210.066 372.614 205.74C372.968 201.414 369.777 197.655 365.451 197.371C365.025 197.371 364.6 197.371 364.174 197.371H10.4242C6.09809 197.726 2.90668 201.484 3.26128 205.74C3.54496 209.569 6.59453 212.619 10.4242 212.903Z" fill="#373738"/>
<path d="M10.4236 588.638H364.244C366.443 588.709 368.358 587.007 368.429 584.808C368.5 582.61 366.797 580.695 364.599 580.624C364.457 580.624 364.386 580.624 364.244 580.624H10.4236C8.22506 580.695 6.45205 582.61 6.59389 584.808C6.66482 586.865 8.29598 588.567 10.4236 588.638Z" fill="#373738"/>
<path d="M10.4266 656.508H364.247C366.446 656.508 368.29 654.735 368.29 652.537C368.29 650.338 366.517 648.494 364.318 648.494H10.4266C8.22811 648.494 6.38418 650.338 6.45511 652.537C6.45511 654.664 8.22811 656.508 10.4266 656.508Z" fill="#373738"/>
<path d="M364.247 777.498C368.573 777.498 372.048 774.023 372.048 769.696V126.805C372.048 122.479 368.573 119.004 364.247 119.004C359.92 119.004 356.445 122.479 356.445 126.805V769.696C356.445 773.952 359.92 777.498 364.247 777.498Z" fill="#462718"/>
<path d="M7.80122 777.498C12.1273 777.498 15.6024 774.023 15.6024 769.696V126.805C15.6024 122.479 12.1273 119.004 7.80122 119.004C3.47509 119.004 0 122.479 0 126.805V769.696C0 773.952 3.47509 777.498 7.80122 777.498Z" fill="#462718"/>
<path d="M99.569 622.183V617.715H46.2371V642.182H81.9099C79.9951 644.381 78.0802 646.65 76.2363 648.849H46.2371V675.799H55.2439L50.0668 682.465H46.2371V687.5C42.9747 691.827 39.7833 696.153 36.8047 700.692V127.231C36.8047 124.607 38.9323 122.479 41.5563 122.479C44.1804 122.479 46.308 124.607 46.308 127.231V157.585H99.7109V127.231C99.7109 124.607 101.838 122.479 104.463 122.479C107.087 122.479 109.214 124.607 109.214 127.231V610.268C106.094 614.382 102.902 618.353 99.569 622.183ZM99.569 164.322H46.2371V188.79H99.64V164.322H99.569ZM99.569 195.456H46.2371V222.406H99.64V195.456H99.569ZM99.569 229.072H46.2371V253.54H99.64V229.072H99.569ZM99.569 260.206H46.2371V287.156H99.64V260.206H99.569ZM99.569 293.823H46.2371V318.29H99.64V293.823H99.569ZM99.569 325.027H46.2371V351.977H99.64V325.027H99.569ZM99.569 358.644H46.2371V383.04H99.64V358.644H99.569ZM99.569 389.778H46.2371V416.727H99.64V389.778H99.569ZM99.569 423.394H46.2371V447.861H99.64V423.394H99.569ZM99.569 454.528H46.2371V481.477H99.64V454.528H99.569ZM99.569 488.144H46.2371V512.611H99.64V488.144H99.569ZM99.569 519.278H46.2371V546.227H99.64V519.278H99.569ZM99.569 552.965H46.2371V577.432H99.64V552.965H99.569ZM99.569 584.099H46.2371V611.048H99.64V584.099H99.569Z" fill="#999B9E"/>
<path d="M43.5442 164.322H103.826C105.67 164.322 107.16 162.832 107.16 160.989C107.16 159.145 105.67 157.655 103.826 157.655H43.5442C41.7003 157.655 40.2109 159.145 40.2109 160.989C40.2109 162.762 41.7003 164.322 43.5442 164.322Z" fill="#373738"/>
<path d="M43.5458 164.96H103.828C106.026 164.89 107.799 162.975 107.658 160.776C107.587 158.719 105.885 157.017 103.828 156.946H43.5458C41.3473 156.876 39.4324 158.578 39.3615 160.776C39.2906 162.975 40.9927 164.89 43.1912 164.96C43.333 164.96 43.404 164.96 43.5458 164.96ZM103.828 158.223C105.317 158.294 106.452 159.571 106.381 161.06C106.31 162.407 105.246 163.542 103.828 163.613H43.5458C42.0565 163.684 40.7799 162.549 40.709 161.06C40.6381 159.571 41.7728 158.294 43.2621 158.223C43.333 158.223 43.4749 158.223 43.5458 158.223H103.828Z" fill="#373738"/>
<path d="M43.5465 195.456H103.829C105.673 195.456 107.162 193.966 107.162 192.122C107.162 190.278 105.673 188.789 103.829 188.789H43.5465C41.7026 188.789 40.2133 190.278 40.2133 192.122C40.1423 193.895 41.7026 195.456 43.5465 195.456Z" fill="#373738"/>
<path d="M43.5425 196.095H103.825C106.023 196.095 107.867 194.322 107.867 192.052C107.867 189.854 106.094 188.01 103.825 188.01H43.5425C41.3439 188.01 39.5 189.783 39.5 192.052C39.5 194.322 41.273 196.095 43.5425 196.095ZM103.825 189.357C105.314 189.428 106.449 190.705 106.378 192.194C106.307 193.542 105.172 194.676 103.825 194.747H43.5425C42.0531 194.818 40.7766 193.683 40.7056 192.194C40.6347 190.705 41.7694 189.428 43.2588 189.357C43.3297 189.357 43.4715 189.357 43.5425 189.357H103.825Z" fill="#373738"/>
<path d="M43.5479 229.072H103.83C105.674 229.001 107.092 227.441 107.021 225.597C106.951 223.895 105.532 222.477 103.83 222.406H43.5479C41.704 222.335 40.1438 223.753 40.0729 225.597C40.0019 227.441 41.4203 229.001 43.2643 229.072C43.3352 229.072 43.4061 229.072 43.5479 229.072Z" fill="#373738"/>
<path d="M43.5458 229.71H103.828C106.026 229.64 107.799 227.725 107.658 225.526C107.587 223.469 105.885 221.767 103.828 221.696H43.5458C41.3473 221.626 39.4324 223.328 39.3615 225.526C39.2906 227.725 40.9927 229.64 43.1912 229.71C43.333 229.71 43.404 229.71 43.5458 229.71ZM103.828 223.044C105.317 223.044 106.523 224.25 106.523 225.739C106.523 227.228 105.317 228.434 103.828 228.434H43.5458C42.0565 228.434 40.8508 227.228 40.8508 225.739C40.8508 224.25 42.0565 223.044 43.5458 223.044H103.828Z" fill="#373738"/>
<path d="M43.5465 260.207H103.829C105.673 260.207 107.162 258.717 107.162 256.873C107.162 255.029 105.673 253.54 103.829 253.54H43.5465C41.7026 253.54 40.2133 255.029 40.2133 256.873C40.1423 258.717 41.7026 260.207 43.5465 260.207Z" fill="#373738"/>
<path d="M43.5425 260.845H103.825C106.023 260.845 107.867 259.072 107.867 256.802C107.867 254.604 106.094 252.76 103.825 252.76H43.5425C41.3439 252.76 39.5 254.533 39.5 256.802C39.5 259.072 41.273 260.845 43.5425 260.845ZM103.825 254.178C105.314 254.249 106.449 255.526 106.378 257.015C106.307 258.362 105.243 259.497 103.825 259.568H43.5425C42.0531 259.639 40.7766 258.504 40.7056 257.015C40.6347 255.526 41.7694 254.249 43.2588 254.178C43.3297 254.178 43.4715 254.178 43.5425 254.178H103.825Z" fill="#373738"/>
<path d="M43.5479 293.822H103.83C105.674 293.751 107.092 292.191 107.021 290.347C106.951 288.645 105.532 287.227 103.83 287.156H43.5479C41.704 287.085 40.1438 288.503 40.0729 290.347C40.0019 292.191 41.4203 293.751 43.2643 293.822C43.3352 293.822 43.4061 293.822 43.5479 293.822Z" fill="#373738"/>
<path d="M43.5425 294.531H103.825C106.023 294.531 107.867 292.758 107.867 290.489C107.867 288.29 106.094 286.446 103.825 286.446H43.5425C41.3439 286.446 39.5 288.219 39.5 290.489C39.5 292.687 41.273 294.531 43.5425 294.531ZM103.825 287.794C105.314 287.865 106.449 289.141 106.378 290.631C106.307 291.978 105.243 293.113 103.825 293.184H43.5425C42.0531 293.255 40.7766 292.12 40.7056 290.631C40.6347 289.141 41.7694 287.865 43.2588 287.794C43.3297 287.794 43.4715 287.794 43.5425 287.794H103.825Z" fill="#373738"/>
<path d="M43.5442 324.956H103.826C105.67 324.956 107.16 323.466 107.16 321.622C107.16 319.778 105.67 318.289 103.826 318.289H43.5442C41.7003 318.289 40.2109 319.778 40.2109 321.622C40.2109 323.466 41.7003 324.956 43.5442 324.956Z" fill="#373738"/>
<path d="M43.5425 325.666H103.825C106.023 325.666 107.867 323.893 107.867 321.624C107.867 319.425 106.094 317.581 103.825 317.581H43.5425C41.3439 317.581 39.5 319.354 39.5 321.624C39.5 323.822 41.273 325.666 43.5425 325.666ZM103.825 318.929C105.314 318.999 106.449 320.276 106.378 321.765C106.307 323.113 105.243 324.248 103.825 324.318H43.5425C42.0531 324.389 40.7766 323.255 40.7056 321.765C40.6347 320.276 41.7694 318.999 43.2588 318.929C43.3297 318.929 43.4715 318.929 43.5425 318.929H103.825Z" fill="#373738"/>
<path d="M43.5455 358.644H103.828C105.672 358.573 107.09 357.013 107.019 355.098C106.948 353.325 105.53 351.977 103.828 351.906H43.5455C41.7016 351.977 40.2832 353.537 40.3541 355.452C40.425 357.154 41.7725 358.573 43.5455 358.644Z" fill="#373738"/>
<path d="M43.5458 359.282H103.828C106.026 359.211 107.799 357.296 107.658 355.097C107.587 353.041 105.885 351.339 103.828 351.268H43.5458C41.3473 351.197 39.4324 352.899 39.3615 355.097C39.2906 357.296 40.9927 359.211 43.1912 359.282C43.333 359.282 43.404 359.282 43.5458 359.282ZM103.828 352.544C105.317 352.615 106.452 353.892 106.381 355.381C106.31 356.729 105.175 357.863 103.828 357.934H43.5458C42.0565 358.005 40.7799 356.87 40.709 355.381C40.6381 353.892 41.7728 352.615 43.2621 352.544C43.333 352.544 43.4749 352.544 43.5458 352.544H103.828Z" fill="#373738"/>
<path d="M43.5479 389.707H103.83C105.674 389.636 107.092 388.076 107.021 386.232C106.951 384.53 105.532 383.112 103.83 383.041H43.5479C41.704 382.97 40.1438 384.388 40.0729 386.232C40.0019 388.076 41.4203 389.636 43.2643 389.707C43.3352 389.707 43.4061 389.707 43.5479 389.707Z" fill="#373738"/>
<path d="M43.5424 390.415H103.825C106.023 390.415 107.796 388.642 107.796 386.373C107.796 384.174 106.023 382.401 103.825 382.401H43.5424C41.3439 382.401 39.5 384.174 39.5 386.373C39.5 388.642 41.273 390.415 43.5424 390.415ZM103.825 383.749C105.314 383.749 106.52 384.955 106.52 386.444C106.52 387.933 105.314 389.139 103.825 389.139H43.5424C42.0531 389.139 40.8475 387.933 40.8475 386.444C40.8475 384.955 42.0531 383.749 43.5424 383.749H103.825Z" fill="#373738"/>
<path d="M43.5442 423.393H103.826C105.67 423.393 107.16 421.904 107.16 420.06C107.16 418.216 105.67 416.727 103.826 416.727H43.5442C41.7003 416.727 40.2109 418.216 40.2109 420.06C40.2109 421.904 41.7003 423.393 43.5442 423.393Z" fill="#373738"/>
<path d="M43.5458 424.032H103.828C106.026 423.961 107.799 422.046 107.658 419.847C107.587 417.791 105.885 416.089 103.828 416.018H43.5458C41.3473 415.947 39.4324 417.649 39.3615 419.847C39.2906 422.046 40.9927 423.961 43.1912 424.032C43.333 424.032 43.404 424.032 43.5458 424.032ZM103.828 417.365C105.317 417.365 106.523 418.571 106.523 420.06C106.523 421.55 105.317 422.755 103.828 422.755H43.5458C42.0565 422.755 40.8508 421.55 40.8508 420.06C40.8508 418.571 42.0565 417.365 43.5458 417.365H103.828Z" fill="#373738"/>
<path d="M43.5479 454.527H103.83C105.674 454.457 107.092 452.896 107.021 451.052C106.951 449.35 105.532 447.932 103.83 447.861H43.5479C41.704 447.79 40.1438 449.208 40.0729 451.052C40.0019 452.896 41.4203 454.457 43.2643 454.527C43.3352 454.527 43.4061 454.527 43.5479 454.527Z" fill="#373738"/>
<path d="M43.5458 455.166H103.828C106.026 455.096 107.799 453.181 107.658 450.982C107.587 448.926 105.885 447.223 103.828 447.153H43.5458C41.3473 447.082 39.4324 448.784 39.3615 450.982C39.2906 453.181 40.9927 455.096 43.1912 455.166C43.333 455.166 43.404 455.166 43.5458 455.166ZM103.828 448.5C105.317 448.5 106.523 449.706 106.523 451.195C106.523 452.684 105.317 453.89 103.828 453.89H43.5458C42.0565 453.89 40.8508 452.684 40.8508 451.195C40.8508 449.706 42.0565 448.5 43.5458 448.5H103.828Z" fill="#373738"/>
<path d="M43.5479 488.144H103.83C105.674 488.073 107.092 486.512 107.021 484.669C106.951 482.966 105.532 481.548 103.83 481.477H43.5479C41.704 481.406 40.1438 482.825 40.0729 484.669C40.0019 486.512 41.4203 488.073 43.2643 488.144C43.3352 488.144 43.4061 488.144 43.5479 488.144Z" fill="#373738"/>
<path d="M43.5424 488.782H103.825C106.023 488.782 107.796 487.009 107.796 484.739C107.796 482.541 106.023 480.768 103.825 480.768H43.5424C41.3439 480.768 39.5 482.541 39.5 484.739C39.5 487.009 41.273 488.782 43.5424 488.782ZM103.825 482.115C105.314 482.115 106.52 483.321 106.52 484.81C106.52 486.299 105.314 487.505 103.825 487.505H43.5424C42.0531 487.505 40.8475 486.299 40.8475 484.81C40.8475 483.321 42.0531 482.115 43.5424 482.115H103.825Z" fill="#373738"/>
<path d="M43.5479 519.277H103.83C105.674 519.348 107.234 517.93 107.305 516.086C107.376 514.242 105.958 512.682 104.114 512.611C104.043 512.611 103.901 512.611 103.83 512.611H43.5479C41.704 512.54 40.1438 513.958 40.0729 515.802C40.0019 517.646 41.4203 519.207 43.2643 519.277C43.3352 519.277 43.4061 519.277 43.5479 519.277Z" fill="#373738"/>
<path d="M43.5486 519.987H103.831C106.029 519.916 107.802 518.001 107.66 515.802C107.59 513.675 105.887 512.044 103.831 511.973H43.5486C41.3501 512.044 39.5771 513.958 39.7189 516.157C39.7189 518.214 41.421 519.916 43.5486 519.987ZM103.831 513.249C105.32 513.249 106.526 514.455 106.526 515.944C106.526 517.433 105.32 518.639 103.831 518.639H43.5486C42.0593 518.639 40.8536 517.433 40.8536 515.944C40.8536 514.455 42.0593 513.249 43.5486 513.249H103.831Z" fill="#373738"/>
<path d="M43.5466 552.964H103.829C105.673 552.964 107.162 551.475 107.162 549.631C107.162 547.787 105.673 546.298 103.829 546.298H43.5466C41.7027 546.298 40.2134 547.787 40.2134 549.631C40.1424 551.404 41.6318 552.964 43.5466 552.964Z" fill="#373738"/>
<path d="M43.5458 553.603H103.828C106.026 553.532 107.799 551.617 107.658 549.419C107.587 547.362 105.885 545.66 103.828 545.589H43.5458C41.3473 545.518 39.4324 547.22 39.3615 549.419C39.2906 551.617 40.9927 553.532 43.1912 553.603C43.333 553.603 43.404 553.603 43.5458 553.603ZM103.828 546.866C105.317 546.866 106.523 548.071 106.523 549.561C106.523 551.05 105.317 552.256 103.828 552.256H43.5458C42.0565 552.256 40.8508 551.05 40.8508 549.561C40.8508 548.071 42.0565 546.866 43.5458 546.866H103.828Z" fill="#373738"/>
<path d="M43.5479 584.027H103.83C105.674 583.957 107.092 582.396 107.021 580.552C106.951 578.85 105.532 577.432 103.83 577.361H43.5479C41.704 577.29 40.1438 578.708 40.0729 580.552C40.0019 582.396 41.4203 583.957 43.2643 584.027C43.3352 584.098 43.4061 584.098 43.5479 584.027Z" fill="#373738"/>
<path d="M43.5425 584.737H103.825C106.023 584.737 107.867 582.893 107.867 580.695C107.867 578.496 106.094 576.723 103.825 576.652H43.5425C41.3439 576.652 39.5 578.425 39.5 580.695C39.5 582.964 41.273 584.737 43.5425 584.737ZM103.825 578C105.314 578.071 106.449 579.347 106.378 580.837C106.307 582.255 105.172 583.319 103.825 583.39H43.5425C42.0531 583.461 40.7766 582.326 40.7056 580.837C40.6347 579.347 41.7694 578.071 43.2588 578C43.3297 578 43.4715 578 43.5425 578H103.825Z" fill="#373738"/>
<path d="M43.5479 617.715H103.83C105.674 617.786 107.234 616.367 107.305 614.524C107.376 612.68 105.958 611.119 104.114 611.048C104.043 611.048 103.901 611.048 103.83 611.048H43.5479C41.704 610.978 40.1438 612.396 40.0729 614.24C40.0019 616.084 41.4203 617.644 43.2643 617.715C43.3352 617.715 43.4061 617.715 43.5479 617.715Z" fill="#373738"/>
<path d="M43.5425 618.352H103.825C106.023 618.352 107.867 616.509 107.867 614.31C107.867 612.112 106.094 610.338 103.825 610.268H43.5425C41.3439 610.268 39.5 612.041 39.5 614.31C39.5 616.579 41.273 618.352 43.5425 618.352ZM103.825 611.686C105.314 611.757 106.449 613.033 106.378 614.523C106.307 615.87 105.243 617.005 103.825 617.076H43.5425C42.0531 617.147 40.7766 616.012 40.7056 614.523C40.6347 613.033 41.7694 611.757 43.2588 611.686C43.3297 611.686 43.4715 611.686 43.5425 611.686H103.825Z" fill="#373738"/>
<path d="M43.5442 648.848H103.826C105.67 648.848 107.16 647.359 107.16 645.515C107.16 643.671 105.67 642.182 103.826 642.182H43.5442C41.7003 642.182 40.2109 643.671 40.2109 645.515C40.2109 647.359 41.6293 648.848 43.5442 648.848C43.5442 648.848 43.4733 648.848 43.5442 648.848Z" fill="#373738"/>
<path d="M43.5425 649.487H103.825C106.023 649.487 107.867 647.643 107.796 645.444C107.796 643.246 106.023 641.473 103.825 641.473H43.5425C41.3439 641.473 39.5 643.246 39.5 645.444C39.5 647.714 41.273 649.487 43.5425 649.487C43.5425 649.487 43.4715 649.487 43.5425 649.487ZM103.825 642.82C105.314 642.82 106.52 644.026 106.52 645.515C106.52 647.004 105.314 648.21 103.825 648.21H43.5425C42.0531 648.21 40.8475 647.004 40.8475 645.515C40.8475 644.026 42.0531 642.82 43.5425 642.82H103.825Z" fill="#373738"/>
<path d="M43.5442 682.464H103.826C105.67 682.464 107.16 680.975 107.16 679.131C107.16 677.287 105.67 675.798 103.826 675.798H43.5442C41.7003 675.798 40.2109 677.287 40.2109 679.131C40.2109 680.975 41.6293 682.464 43.5442 682.464C43.5442 682.464 43.4733 682.464 43.5442 682.464Z" fill="#373738"/>
<path d="M43.5458 683.174H103.828C106.026 683.103 107.799 681.189 107.658 678.99C107.587 676.933 105.885 675.231 103.828 675.16H43.5458C41.3473 675.089 39.4324 676.792 39.3615 678.99C39.2906 681.189 40.9927 683.103 43.1912 683.174C43.333 683.174 43.404 683.174 43.5458 683.174ZM103.828 676.437C105.317 676.437 106.452 677.643 106.452 679.132C106.452 680.621 105.246 681.827 103.828 681.827H43.5458C42.0565 681.827 40.8508 680.621 40.8508 679.132C40.8508 677.643 42.0565 676.437 43.5458 676.437H103.828Z" fill="#373738"/>
<path d="M43.5466 713.599H103.829C105.673 713.599 107.162 712.11 107.162 710.266C107.162 708.422 105.673 706.933 103.829 706.933H43.5466C41.7027 706.933 40.2134 708.422 40.2134 710.266C40.1424 712.11 41.6318 713.599 43.5466 713.599Z" fill="#373738"/>
<path d="M43.5425 714.308H103.825C106.023 714.308 107.867 712.464 107.796 710.265C107.796 708.067 106.023 706.294 103.825 706.294H43.5425C41.3439 706.294 39.5 708.067 39.5 710.265C39.5 712.464 41.273 714.308 43.5425 714.308C43.5425 714.308 43.4715 714.308 43.5425 714.308ZM103.825 707.57C105.314 707.641 106.449 708.918 106.378 710.407C106.307 711.755 105.243 712.889 103.825 712.96H43.5425C42.0531 713.031 40.7766 711.897 40.7056 710.407C40.6347 708.918 41.7694 707.641 43.2588 707.57C43.3297 707.57 43.4715 707.57 43.5425 707.57H103.825Z" fill="#373738"/>
<path d="M104.604 777.073C107.228 777.073 109.285 774.945 109.285 772.321V127.231C109.285 124.607 107.157 122.479 104.533 122.479C101.909 122.479 99.7812 124.607 99.7812 127.231V772.321C99.8522 774.945 101.98 777.073 104.604 777.073Z" fill="#373738"/>
<path d="M104.609 777.711C107.587 777.711 109.999 775.299 109.999 772.321V127.231C110.14 124.252 107.8 121.77 104.821 121.628C101.843 121.486 99.3606 123.827 99.2188 126.805C99.2188 126.947 99.2188 127.089 99.2188 127.231V772.321C99.2188 775.299 101.63 777.711 104.609 777.711ZM104.609 123.188C106.807 123.188 108.651 124.961 108.651 127.231V772.321C108.722 774.59 107.02 776.434 104.751 776.576C102.481 776.647 100.637 774.945 100.495 772.675C100.495 772.533 100.495 772.463 100.495 772.321V127.231C100.566 124.961 102.339 123.188 104.609 123.188Z" fill="#373738"/>
<path d="M41.8465 777.073C44.4706 777.073 46.5982 774.945 46.5982 772.321V127.231C46.5272 124.607 44.3287 122.621 41.7047 122.692C39.2225 122.763 37.2367 124.749 37.1658 127.231V772.321C37.0949 774.945 39.2225 777.073 41.8465 777.073C41.8465 777.073 41.7756 777.073 41.8465 777.073Z" fill="#373738"/>
<path d="M41.8406 777.71C44.8192 777.71 47.2305 775.299 47.3014 772.321V127.231C47.3014 124.252 44.8902 121.841 41.9115 121.841C38.9329 121.841 36.5216 124.252 36.5216 127.231V772.321C36.3797 775.299 38.791 777.71 41.8406 777.71C41.8406 777.71 41.7697 777.71 41.8406 777.71ZM41.8406 123.188C44.11 123.188 45.883 124.961 45.883 127.231V772.321C45.954 774.59 44.2519 776.434 41.9824 776.576C39.713 776.718 37.8691 774.945 37.7272 772.675C37.7272 772.533 37.7272 772.462 37.7272 772.321V127.231C37.7981 125.032 39.5711 123.188 41.8406 123.188Z" fill="#373738"/>
<path d="M1113.58 577.798H1038.35V531.855L829.328 276.182L851.357 261.042L1045.58 386.691L1083.22 531.855L1113.58 577.798Z" fill="#9F4006"/>
<path d="M1113.58 577.798L1075.23 536.465H1038.35V577.798H1113.58Z" fill="#773005"/>
<path d="M620.055 531.854L655.599 386.691L833.478 263.713L1028.78 400.233L1060.99 531.854V783.074H620.055V531.854Z" fill="#E44C2D"/>
<path d="M632.907 531.854H280.711V783.101H632.907V531.854Z" fill="#BF1811"/>
<path d="M588.355 577.798H231.078L275.633 531.854H632.91L588.355 577.798Z" fill="#EADBC5"/>
<path opacity="0.14" d="M1030.45 407.123H632.914V394.733H1020.92L1028.77 400.234L1030.45 407.123Z" fill="#590F0F"/>
<path opacity="0.14" d="M999.097 370.87H632.914V383.233H999.097V370.87Z" fill="#590F0F"/>
<path opacity="0.14" d="M961.981 345.122H632.914V357.485H961.981V345.122Z" fill="#590F0F"/>
<path opacity="0.14" d="M933.43 323.854H632.914V336.217H933.43V323.854Z" fill="#590F0F"/>
<path opacity="0.14" d="M927.484 302.322H632.914V314.686H927.484V302.322Z" fill="#590F0F"/>
<path d="M311.117 386.691L494.025 261.042H851.355L668.447 386.691H311.117Z" fill="#EADCC3"/>
<path opacity="0.14" d="M1035.79 428.941H632.914V416.578H1032.78L1035.79 428.941Z" fill="#590F0F"/>
<path opacity="0.14" d="M1041.14 450.786H632.914V438.396H1038.13L1041.14 450.786Z" fill="#590F0F"/>
<path opacity="0.14" d="M1046.48 472.604H632.914V460.241H1043.47L1046.48 472.604Z" fill="#590F0F"/>
<path opacity="0.14" d="M1051.82 494.451H632.914V482.062H1048.81L1051.82 494.451Z" fill="#590F0F"/>
<path opacity="0.14" d="M1057.17 516.27H632.914V503.906H1054.16L1057.17 516.27Z" fill="#590F0F"/>
<path d="M275.633 531.855L311.177 386.691H668.454L632.91 531.855H275.633Z" fill="#C7AE92"/>
<path opacity="0.14" d="M1060.99 524.311H632.914V536.674H1060.99V524.311Z" fill="#590F0F"/>
<path opacity="0.14" d="M1060.99 544.689H632.914V557.053H1060.99V544.689Z" fill="#590F0F"/>
<path d="M872.942 261.042L684.455 391.485L649.042 536.465L610.721 577.798H588.352L632.906 531.855L668.451 386.691L851.359 261.042H872.942Z" fill="white"/>
<path opacity="0.14" d="M1060.99 563.13H632.914V575.493H1060.99V563.13Z" fill="#590F0F"/>
<path d="M851.359 261.042L1039.85 391.485L1075.23 536.465L1113.58 577.798H1135.95L1091.4 531.855L1055.85 386.691L872.943 261.042H851.359Z" fill="white"/>
<path d="M1028.76 400.233L1039.84 391.484L863.116 268.009L851.172 276.103L1028.76 400.233Z" fill="#A3440A"/>
<path d="M684.641 236.341H676.102V228.85L684.641 236.341Z" fill="#878752"/>
<path d="M614.91 224.161H540.914V286.318H614.91V224.161Z" fill="#BF1811"/>
<path d="M614.914 286.318L654.387 261.041H676.102V224.161L645.508 197.234L614.914 224.161V286.318Z" fill="#E44C2D"/>
<path d="M522.328 231.574L561.435 197.234H645.515L606.409 231.574H522.328Z" fill="#EADCC3"/>
<path d="M606.409 231.548H522.328V236.315H606.409V231.548Z" fill="#C7AE92"/>
<path d="M606.398 236.341L645.505 202.002V197.234L606.398 231.574V236.341Z" fill="#FBFFF3"/>
<path d="M684.641 236.341L645.508 202.002V197.234L684.641 231.574V236.341Z" fill="#FBFFF3"/>
<path opacity="0.14" d="M632.907 586.389H280.711V598.752H632.907V586.389Z" fill="#590F0F"/>
<path opacity="0.14" d="M632.907 608.233H280.711V620.597H632.907V608.233Z" fill="#590F0F"/>
<path opacity="0.14" d="M632.907 630.054H280.711V642.417H632.907V630.054Z" fill="#590F0F"/>
<path opacity="0.14" d="M632.907 651.898H280.711V664.262H632.907V651.898Z" fill="#590F0F"/>
<path opacity="0.14" d="M632.907 673.718H280.711V686.081H632.907V673.718Z" fill="#590F0F"/>
<path opacity="0.14" d="M632.907 695.562H280.711V707.926H632.907V695.562Z" fill="#590F0F"/>
<path opacity="0.14" d="M632.907 715.967H280.711V728.33H632.907V715.967Z" fill="#590F0F"/>
<path opacity="0.14" d="M632.907 736.345H280.711V748.708H632.907V736.345Z" fill="#590F0F"/>
<path opacity="0.14" d="M632.907 754.785H280.711V767.148H632.907V754.785Z" fill="#590F0F"/>
<path opacity="0.14" d="M1060.99 586.389H632.914V598.752H1060.99V586.389Z" fill="#590F0F"/>
<path opacity="0.14" d="M1060.99 608.234H632.914V620.598H1060.99V608.234Z" fill="#590F0F"/>
<path opacity="0.14" d="M1060.99 630.054H632.914V642.417H1060.99V630.054Z" fill="#590F0F"/>
<path opacity="0.14" d="M1060.99 651.898H632.914V664.262H1060.99V651.898Z" fill="#590F0F"/>
<path opacity="0.14" d="M1060.99 673.718H632.914V686.081H1060.99V673.718Z" fill="#590F0F"/>
<path opacity="0.14" d="M1060.99 695.562H632.914V707.926H1060.99V695.562Z" fill="#590F0F"/>
<path opacity="0.14" d="M1060.99 715.967H632.914V728.33H1060.99V715.967Z" fill="#590F0F"/>
<path opacity="0.14" d="M1060.99 736.347H632.914V748.71H1060.99V736.347Z" fill="#590F0F"/>
<path opacity="0.14" d="M1060.99 754.785H632.914V767.148H1060.99V754.785Z" fill="#590F0F"/>
<path d="M837.76 570.044H668.656V760.967H837.76V570.044Z" fill="#6E4A34"/>
<path d="M679.579 575.492H668.656V760.967H679.579V575.492Z" fill="#722828"/>
<path d="M837.798 575.492H826.875V760.967H837.798V575.492Z" fill="#722828"/>
<path d="M668.656 575.492V586.415H837.76V575.492H668.656Z" fill="#722828"/>
<path d="M826.877 575.492L747.773 670.941H758.696L837.8 575.492H826.877Z" fill="#722828"/>
<path d="M679.579 575.492L758.683 670.941H747.76L668.656 575.492H679.579Z" fill="#722828"/>
<path d="M822.346 760.968L747.773 670.941H758.696L833.269 760.968H822.346Z" fill="#722828"/>
<path d="M684.118 760.968L758.69 670.941H747.768L673.195 760.968H684.118Z" fill="#722828"/>
<path d="M679.579 570.044H668.656V760.967H679.579V570.044Z" fill="#FCF9DE"/>
<path d="M837.798 570.044H826.875V760.967H837.798V570.044Z" fill="#FCF9DE"/>
<path d="M668.688 570.045V580.968H837.792V570.045H668.688Z" fill="#FCF9DE"/>
<path d="M668.656 760.967V771.89H837.76V760.967H668.656Z" fill="#FCF9DE"/>
<path d="M826.877 570.019L747.773 665.493H758.696L837.8 570.019H826.877Z" fill="#FCF9DE"/>
<path d="M679.579 570.019L758.683 665.493H747.76L668.656 570.019H679.579Z" fill="#FCF9DE"/>
<path d="M826.877 760.968L747.773 665.493H758.696L837.8 760.968H826.877Z" fill="#FCF9DE"/>
<path d="M679.579 760.968L758.683 665.493H747.76L668.656 760.968H679.579Z" fill="#FCF9DE"/>
<path d="M1035.95 570.044H866.844V760.967H1035.95V570.044Z" fill="#6E4A34"/>
<path d="M877.555 572.873H866.633V758.348H877.555V572.873Z" fill="#722828"/>
<path d="M1035.74 572.873H1024.82V758.348H1035.74V572.873Z" fill="#722828"/>
<path d="M866.633 572.847V583.77H1035.74V572.847H866.633Z" fill="#722828"/>
<path d="M1024.81 572.873L945.711 668.322H956.634L1035.74 572.873H1024.81Z" fill="#722828"/>
<path d="M877.529 572.873L956.633 668.322H945.71L866.633 572.873H877.529Z" fill="#722828"/>
<path d="M1020.31 758.348L945.711 668.321H956.634L1031.21 758.348H1020.31Z" fill="#722828"/>
<path d="M882.055 758.348L956.628 668.321H945.705L871.133 758.348H882.055Z" fill="#722828"/>
<path d="M877.766 570.044H866.844V760.967H877.766V570.044Z" fill="#FCF9DE"/>
<path d="M1035.95 570.044H1025.02V760.967H1035.95V570.044Z" fill="#FCF9DE"/>
<path d="M866.844 570.019V580.941H1035.95V570.019H866.844Z" fill="#FCF9DE"/>
<path d="M866.844 760.941V771.863H1035.95V760.941H866.844Z" fill="#FCF9DE"/>
<path d="M1025.03 570.019L945.953 665.493H956.849L1035.95 570.019H1025.03Z" fill="#FCF9DE"/>
<path d="M877.74 570.019L956.844 665.493H945.948L866.844 570.019H877.74Z" fill="#FCF9DE"/>
<path d="M1025.03 760.968L945.953 665.493H956.849L1035.95 760.968H1025.03Z" fill="#FCF9DE"/>
<path d="M877.74 760.968L956.844 665.493H945.948L866.844 760.968H877.74Z" fill="#FCF9DE"/>
<path d="M301.703 701.954V770.606H372.504V701.954H301.703Z" fill="#6E4A34"/>
<path d="M367.577 771.629H375.828V702.976H367.577V771.629Z" fill="#722828"/>
<path d="M305.046 771.629H313.297V702.976H305.046V771.629Z" fill="#722828"/>
<path d="M375.828 771.601V763.351H305.028V771.601H375.828Z" fill="#722828"/>
<path d="M375.828 711.2V702.949H309.952V711.2H375.828Z" fill="#722828"/>
<path d="M366.858 770.633H375.109V701.98H366.858V770.633Z" fill="#FCF9DE"/>
<path d="M304.312 770.633H312.562V701.98H304.312V770.633Z" fill="#FCF9DE"/>
<path d="M375.094 770.633V762.382H304.293V770.633H375.094Z" fill="#FCF9DE"/>
<path d="M375.094 710.23V701.979H304.293V710.23H375.094Z" fill="#FCF9DE"/>
<path d="M301.703 641.552V710.205H372.504V641.552H301.703Z" fill="#6E4A34"/>
<path d="M367.577 707.612H375.828V642.574H367.577V707.612Z" fill="#722828"/>
<path d="M305.046 707.612H313.297V642.574H305.046V707.612Z" fill="#722828"/>
<path d="M375.828 650.798V642.547H305.028V650.798H375.828Z" fill="#722828"/>
<path d="M366.858 710.231H375.109V641.579H366.858V710.231Z" fill="#FCF9DE"/>
<path d="M304.312 710.231H312.562V641.579H304.312V710.231Z" fill="#FCF9DE"/>
<path d="M375.094 710.23V701.979H304.293V710.23H375.094Z" fill="#FCF9DE"/>
<path d="M375.094 649.829V641.578H304.293V649.829H375.094Z" fill="#FCF9DE"/>
<path d="M851.488 418.908H856.151C880.882 418.908 904.6 428.733 922.087 446.22C939.575 463.707 949.399 487.426 949.399 512.157V519.412H758.188V512.209C758.181 499.955 760.589 487.819 765.276 476.496C769.962 465.173 776.834 454.885 785.499 446.22C794.164 437.555 804.453 430.683 815.775 425.996C827.098 421.31 839.234 418.901 851.488 418.908V418.908Z" fill="#6E4A34"/>
<path d="M856.73 416.289H861.393C886.124 416.289 909.842 426.113 927.329 443.601C944.817 461.088 954.641 484.806 954.641 509.537V516.793H763.43V509.59C763.423 497.335 765.831 485.2 770.518 473.877C775.204 462.554 782.076 452.266 790.741 443.601C799.407 434.936 809.695 428.064 821.018 423.377C832.34 418.691 844.476 416.282 856.73 416.289V416.289Z" stroke="#FCF9DE" stroke-width="4" stroke-miterlimit="10"/>
<path opacity="0.29" d="M1058.92 523.394L1056.01 516.269L1050.96 503.906L1047.08 494.45L1042.03 482.061L1038.15 472.605L1033.09 460.242L1029.22 450.786L1024.16 438.396L1020.29 428.941L1015.23 416.577L1011.38 407.122L1008.55 400.233L999.672 394.732L851.208 302.898L711.597 394.732L703.241 400.233L701.434 407.122L698.972 416.577L695.75 428.941L693.288 438.396L690.066 450.786L687.604 460.242L684.356 472.605L681.894 482.061L678.672 494.45L676.21 503.906L672.988 516.269L665.078 546.575L632.912 580.941L610.727 577.797L649.074 536.464L653.998 516.269L657.01 503.906L659.341 494.45L662.354 482.061L664.659 472.605L667.671 460.242L669.976 450.786L673.014 438.396L675.319 428.941L678.332 416.577L680.637 407.122L683.675 394.732L684.461 391.484L851.208 276.103L1020.91 394.732L1028.77 400.233L1030.45 407.122L1032.78 416.577L1035.79 428.941L1038.12 438.396L1041.14 450.786L1043.47 460.242L1046.48 472.605L1048.81 482.061L1051.82 494.45L1054.15 503.906L1057.17 516.269L1058.92 523.394Z" fill="#590F0F"/>
<path d="M540.917 286.319L459.062 285.061L494.031 261.042H540.917V286.319Z" fill="#F2EADB"/>
<path d="M654.387 261.042L614.914 286.319H814.534L851.361 261.042H654.387Z" fill="#F2EADB"/>
</svg>
