<svg width="1475" height="1475" viewBox="0 0 1475 1475" fill="none" xmlns="http://www.w3.org/2000/svg">
<path opacity="0.2" d="M737.5 1475C1144.81 1475 1475 1144.81 1475 737.5C1475 330.19 1144.81 0 737.5 0C330.19 0 0 330.19 0 737.5C0 1144.81 330.19 1475 737.5 1475Z" fill="#FFED89"/>
<path opacity="0.2" d="M728 1254C1016.57 1254 1250.5 1020.07 1250.5 731.5C1250.5 442.931 1016.57 209 728 209C439.431 209 205.5 442.931 205.5 731.5C205.5 1020.07 439.431 1254 728 1254Z" fill="#FFED89"/>
<path d="M1065 735C1065 918.36 916.36 1067 733 1067C723.713 1067 714.523 1066.62 705.43 1065.87C534.97 1051.86 401 909.07 401 735C401 560.93 535 418.14 705.43 404.13C714.523 403.377 723.713 403 733 403C916.36 403 1065 551.64 1065 735Z" fill="#FFED89"/>
<path d="M705.43 1065.87C873.562 1065.87 1009.86 917.734 1009.86 735C1009.86 552.265 873.562 404.13 705.43 404.13C537.298 404.13 401 552.265 401 735C401 917.734 537.298 1065.87 705.43 1065.87Z" fill="#FFE869"/>
</svg>
