<svg width="471" height="331" viewBox="0 0 471 331" fill="none" xmlns="http://www.w3.org/2000/svg">
<path d="M435.257 155.788L470.19 198.842H438.868V330.44H31.4122V198.842H0L34.9325 155.788L107.415 66.3407L113.102 59.3005L235.14 0L357.088 59.3005L362.775 66.3407L435.257 155.788ZM348.603 318.526V180.79H246.965V318.616H348.603V318.526ZM177.641 108.041H292.458C292.549 100.459 291.104 92.877 288.306 85.8368C285.508 78.7965 281.266 72.3881 275.94 66.9725C270.614 61.557 264.205 57.2245 257.255 54.3362C250.214 51.3577 242.722 49.9135 235.14 49.9135C227.558 49.9135 219.976 51.4479 213.025 54.3362C205.985 57.3148 199.666 61.557 194.34 66.9725C189.015 72.3881 184.772 78.7965 181.974 85.8368C178.995 92.877 177.551 100.369 177.641 108.041ZM223.315 318.526V180.79H121.587V318.616H223.315V318.526Z" fill="#091F35"/>
<path d="M349.416 180.79H247.777V318.616H349.416V180.79Z" fill="#F9B20F"/>
<path d="M293.361 108.041H178.544C178.454 100.459 179.898 92.8771 182.696 85.8368C185.494 78.7966 189.737 72.3882 195.063 66.9726C200.388 61.5571 206.797 57.2246 213.747 54.3363C220.788 51.3577 228.28 49.9136 235.862 49.9136C243.444 49.9136 251.027 51.448 257.977 54.3363C265.018 57.3149 271.336 61.5571 276.662 66.9726C281.988 72.3882 286.23 78.7966 289.028 85.8368C292.097 92.8771 293.451 100.369 293.361 108.041Z" fill="#F9B20F"/>
<path d="M224.128 180.79H122.49V318.616H224.128V180.79V180.79Z" fill="#F9B20F"/>
<path d="M177.641 108.041C177.551 100.459 178.995 92.8771 181.793 85.8368C184.592 78.7966 188.834 72.3882 194.16 66.9726C199.485 61.5571 205.894 57.2246 212.845 54.3363C219.885 51.3577 227.377 49.9136 234.959 49.9136C242.542 49.9136 250.124 51.448 257.074 54.3363C264.115 57.3149 270.434 61.5571 275.759 66.9726C281.085 72.3882 285.327 78.7966 288.125 85.8368C290.924 92.8771 292.368 100.459 292.278 108.041H177.641V108.041Z" stroke="#BABABA" stroke-width="3" stroke-miterlimit="10"/>
<path d="M223.315 180.79H121.587V318.616H223.225V180.79H223.315Z" stroke="#BABABA" stroke-width="4" stroke-miterlimit="10"/>
<path d="M348.603 180.79H246.965V318.616H348.603V180.79V180.79Z" stroke="#BABABA" stroke-width="4" stroke-miterlimit="10"/>
<path d="M121.587 180.7L223.225 318.526" stroke="#BABABA" stroke-width="3" stroke-miterlimit="10"/>
<path d="M223.315 180.7L121.587 318.526" stroke="#BABABA" stroke-width="3" stroke-miterlimit="10"/>
<path d="M348.603 180.7L246.965 318.526" stroke="#BABABA" stroke-width="3" stroke-miterlimit="10"/>
<path d="M246.965 180.7L348.603 318.526" stroke="#BABABA" stroke-width="3" stroke-miterlimit="10"/>
</svg>
