<svg width="956" height="331" viewBox="0 0 956 331" fill="none" xmlns="http://www.w3.org/2000/svg">
<path d="M435.257 155.788L470.19 198.842H438.868V330.44H31.4122V198.842H0L34.9325 155.788L107.415 66.3407L113.102 59.3005L235.14 0L357.088 59.3005L362.775 66.3407L435.257 155.788ZM348.603 318.526V180.79H246.965V318.616H348.603V318.526ZM177.641 108.041H292.458C292.549 100.459 291.104 92.877 288.306 85.8368C285.508 78.7965 281.266 72.3881 275.94 66.9725C270.614 61.557 264.205 57.2245 257.255 54.3362C250.214 51.3577 242.722 49.9135 235.14 49.9135C227.558 49.9135 219.976 51.4479 213.025 54.3362C205.985 57.3148 199.666 61.557 194.34 66.9725C189.015 72.3881 184.772 78.7965 181.974 85.8368C178.995 92.877 177.551 100.369 177.641 108.041ZM223.315 318.526V180.79H121.587V318.616H223.315V318.526Z" fill="#091F35"/>
<path d="M349.416 180.79H247.777V318.616H349.416V180.79Z" fill="#F9B20F"/>
<path d="M293.361 108.041H178.544C178.454 100.459 179.898 92.8771 182.696 85.8368C185.494 78.7966 189.737 72.3882 195.063 66.9726C200.388 61.5571 206.797 57.2246 213.747 54.3363C220.788 51.3577 228.28 49.9136 235.862 49.9136C243.444 49.9136 251.027 51.448 257.977 54.3363C265.018 57.3149 271.336 61.5571 276.662 66.9726C281.988 72.3882 286.23 78.7966 289.028 85.8368C292.097 92.8771 293.451 100.369 293.361 108.041Z" fill="#F9B20F"/>
<path d="M224.128 180.79H122.49V318.616H224.128V180.79V180.79Z" fill="#F9B20F"/>
<path d="M177.641 108.041C177.551 100.459 178.995 92.8771 181.793 85.8368C184.592 78.7966 188.834 72.3882 194.16 66.9726C199.485 61.5571 205.894 57.2246 212.845 54.3363C219.885 51.3577 227.377 49.9136 234.959 49.9136C242.542 49.9136 250.124 51.448 257.074 54.3363C264.115 57.3149 270.434 61.5571 275.759 66.9726C281.085 72.3882 285.327 78.7966 288.125 85.8368C290.924 92.8771 292.368 100.459 292.278 108.041H177.641V108.041Z" stroke="#BABABA" stroke-width="3" stroke-miterlimit="10"/>
<path d="M223.315 180.79H121.587V318.616H223.225V180.79H223.315Z" stroke="#BABABA" stroke-width="4" stroke-miterlimit="10"/>
<path d="M348.603 180.79H246.965V318.616H348.603V180.79V180.79Z" stroke="#BABABA" stroke-width="4" stroke-miterlimit="10"/>
<path d="M121.587 180.7L223.225 318.526" stroke="#BABABA" stroke-width="3" stroke-miterlimit="10"/>
<path d="M223.315 180.7L121.587 318.526" stroke="#BABABA" stroke-width="3" stroke-miterlimit="10"/>
<path d="M348.603 180.7L246.965 318.526" stroke="#BABABA" stroke-width="3" stroke-miterlimit="10"/>
<path d="M246.965 180.7L348.603 318.526" stroke="#BABABA" stroke-width="3" stroke-miterlimit="10"/>
<path d="M543.429 330.109H536.121V200.68L541.229 205.709L543.429 330.109Z" fill="#091F35"/>
<path d="M634.196 330.109H626.809V200.68L631.995 205.709L634.196 330.109Z" fill="#091F35"/>
<path d="M724.882 330.109H717.495V200.68L726.375 194L724.882 330.109Z" fill="#091F35"/>
<path d="M815.569 330.109H808.261V200.68L813.369 205.709L815.569 330.109Z" fill="#091F35"/>
<path d="M906.256 330.109H898.947V200.68L904.055 205.709L906.256 330.109Z" fill="#091F35"/>
<path d="M563.39 218.833L516.711 218.44L507.517 228.499L563.39 228.813V218.833Z" fill="#091F35"/>
<path d="M595.768 219.147V229.049L843.781 230.621V221.426L595.768 219.147Z" fill="#091F35"/>
<path d="M881.737 221.819V230.856L942.405 231.249L956 222.448L881.737 221.819Z" fill="#091F35"/>
<path d="M655.57 254.51L507.517 256.003L494 264.805L655.57 264.019V254.51Z" fill="#091F35"/>
<path d="M704.843 254.039V263.783L935.332 262.762L939.969 251.681L704.843 254.039Z" fill="#091F35"/>
<path d="M876.786 296.553L942.404 296.946L936.746 285.158H876.786V296.553Z" fill="#091F35"/>
<path d="M762.131 285.158H512.546L507.517 294.196L762.131 295.846V285.158Z" fill="#091F35"/>
<path d="M792.072 285.158V296.003L845.038 296.396V285.158H792.072Z" fill="#091F35"/>
<path d="M510.586 242.955C486.991 214.464 472.163 230.151 469.813 228.056C468.627 227.003 467.023 226.707 465.715 226.676C461.045 214.403 449.691 192.463 445.205 204.491C442.998 210.387 455.138 212.421 452.9 226.707C451.684 226.789 450.284 227.116 449.231 228.056C446.881 230.151 432.063 214.464 408.457 242.955C381.929 274.971 406.761 315.755 429.498 323.982C429.498 323.982 436.682 328.161 444.929 327.967C453.166 327.773 452.471 330.9 456.783 329.735C456.783 329.735 459.226 329.245 459.522 328.264C459.818 329.245 462.271 329.735 462.271 329.735C466.583 330.91 465.899 327.783 474.125 327.967C482.362 328.161 489.545 323.982 489.545 323.982C512.293 315.745 537.115 274.961 510.586 242.955Z" fill="#091F35"/>
<path d="M467.421 288.563L459.553 274.859L451.623 288.532L467.421 288.563Z" fill="#F9B20F"/>
<path d="M498.089 291.179L481.391 299.732L479.051 298.363L478.059 306.579L471.243 307.223L467.728 300.141L458.909 300.294L450.09 300.141L446.575 307.223L439.758 306.579L438.757 298.363L436.417 299.732L419.719 291.179L419.208 291.352C430.316 313.17 454.218 314.366 454.218 314.366L455.659 308.755L458.909 308.459L462.148 308.755L463.589 314.366C463.589 314.366 487.492 313.17 498.61 291.352L498.089 291.179Z" fill="#F9B20F"/>
<path d="M436.407 301.398L438.747 300.028L439.748 308.245L446.564 308.888L450.08 301.807L458.899 301.95L467.718 301.807L471.233 308.888L478.049 308.245L479.04 300.028L481.381 301.398L497.68 293.059C497.997 292.507 498.303 291.935 498.6 291.363L498.089 291.189L481.391 299.742L479.051 298.373L478.059 306.589L471.243 307.233L467.728 300.151L458.909 300.304L450.09 300.151L446.575 307.233L439.758 306.589L438.757 298.373L436.417 299.742L419.719 291.189L419.208 291.363C419.504 291.935 419.811 292.497 420.117 293.059L436.407 301.398Z" fill="url(#paint0_radial_51:675)"/>
<path d="M465.132 271.64L502.115 254.789C502.115 254.789 476.67 239.644 465.132 271.64Z" fill="#F9950F"/>
<path d="M469.302 272.815L495.442 260.317C495.442 260.307 498.998 283.106 469.302 272.815Z" fill="#F9950F"/>
<path d="M465.132 271.64L502.115 254.789C502.115 254.789 476.67 239.644 465.132 271.64Z" fill="#F9B20F"/>
<path d="M469.302 272.815L495.442 260.317C495.442 260.307 498.998 283.106 469.302 272.815Z" fill="#F9B20F"/>
<path d="M453.973 269.371C438.675 239 415.233 257.088 415.233 257.088L453.973 269.371Z" fill="#F9B20F"/>
<path d="M449.977 271.037C421.732 284.833 422.519 261.768 422.519 261.768L449.977 271.037Z" fill="#F9B20F"/>
<defs>
<radialGradient id="paint0_radial_51:675" cx="0" cy="0" r="1" gradientUnits="userSpaceOnUse" gradientTransform="translate(458.896 300.033) scale(28.7643)">
<stop stop-color="#F9950F"/>
<stop offset="0.1155" stop-color="#EC8C0D"/>
<stop offset="0.2791" stop-color="#C77407"/>
<stop offset="0.6281" stop-color="#572C00"/>
<stop offset="0.8434" stop-color="#0C0000"/>
<stop offset="0.8895"/>
<stop offset="1"/>
</radialGradient>
</defs>
</svg>
