<svg width="408" height="421" viewBox="0 0 408 421" fill="none" xmlns="http://www.w3.org/2000/svg">
<path d="M370.61 136.891C293.622 43.9317 245.242 95.1127 237.573 88.2774C233.705 84.8431 228.47 83.8762 224.202 83.7762C208.965 43.7316 171.921 -27.8551 157.284 11.3892C150.082 30.6279 189.693 37.2631 182.391 83.8762C178.423 84.1429 173.855 85.2099 170.421 88.2774C162.752 95.1127 114.405 43.9317 37.3834 136.891C-49.1742 241.354 31.8485 374.424 106.036 401.265C106.036 401.265 129.476 414.902 156.383 414.269C183.258 413.635 180.99 423.838 195.061 420.037C195.061 420.037 203.03 418.437 203.997 415.236C204.964 418.437 212.966 420.037 212.966 420.037C227.037 423.871 224.803 413.669 251.643 414.269C278.518 414.902 301.957 401.265 301.957 401.265C376.178 374.391 457.168 241.32 370.61 136.891Z" fill="#091F35"/>
<path d="M229.77 285.699L204.097 240.987L178.223 285.599L229.77 285.699Z" fill="#F9B20F"/>
<path d="M329.832 294.235L275.35 322.143L267.715 317.675L264.48 344.483L242.241 346.583L230.771 323.477L201.996 323.977L173.222 323.477L161.752 346.583L139.512 344.483L136.244 317.675L128.609 322.143L74.1271 294.235L72.46 294.802C108.703 365.989 186.692 369.89 186.692 369.89L191.393 351.585L201.996 350.618L212.566 351.585L217.267 369.89C217.267 369.89 295.256 365.989 331.533 294.802L329.832 294.235Z" fill="#F9B20F"/>
<path d="M128.576 327.578L136.211 323.11L139.479 349.917L161.718 352.018L173.188 328.912L201.963 329.378L230.738 328.912L242.208 352.018L264.447 349.917L267.681 323.11L275.317 327.578L328.498 300.37C329.532 298.57 330.532 296.703 331.499 294.835L329.832 294.269L275.35 322.176L267.715 317.708L264.48 344.516L242.241 346.617L230.771 323.51L201.996 324.01L173.222 323.51L161.752 346.617L139.512 344.516L136.244 317.708L128.609 322.176L74.1271 294.269L72.46 294.835C73.4269 296.703 74.4272 298.536 75.4274 300.37L128.576 327.578Z" fill="url(#paint0_radial_51:688)"/>
<path d="M222.302 230.484L342.969 175.502C342.969 175.502 259.946 126.088 222.302 230.484Z" fill="#F9950F"/>
<path d="M235.905 234.318L321.196 193.54C321.196 193.507 332.799 267.894 235.905 234.318Z" fill="#F9950F"/>
<path d="M222.302 230.484L342.969 175.502C342.969 175.502 259.946 126.088 222.302 230.484Z" fill="#F9B20F"/>
<path d="M235.905 234.318L321.196 193.54C321.196 193.507 332.799 267.894 235.905 234.318Z" fill="#F9B20F"/>
<path d="M185.891 223.082C135.977 123.988 59.4893 183.004 59.4893 183.004L185.891 223.082Z" fill="#F9B20F"/>
<path d="M172.855 228.517C80.6956 273.529 83.263 198.275 83.263 198.275L172.855 228.517Z" fill="#F9B20F"/>
<defs>
<radialGradient id="paint0_radial_51:688" cx="0" cy="0" r="1" gradientUnits="userSpaceOnUse" gradientTransform="translate(201.955 323.123) scale(93.852)">
<stop stop-color="#F9950F"/>
<stop offset="0.1155" stop-color="#EC8C0D"/>
<stop offset="0.2791" stop-color="#C77407"/>
<stop offset="0.6281" stop-color="#572C00"/>
<stop offset="0.8434" stop-color="#0C0000"/>
<stop offset="0.8895"/>
<stop offset="1"/>
</radialGradient>
</defs>
</svg>
