<svg width="379" height="391" viewBox="0 0 379 391" fill="none" xmlns="http://www.w3.org/2000/svg">
<path d="M344.194 127.134C272.693 40.8004 227.762 88.3333 220.639 81.9853C217.047 78.7958 212.186 77.8977 208.222 77.8048C194.07 40.6145 159.667 -25.8697 146.073 10.5774C139.384 28.4449 176.172 34.6071 169.39 77.8977C165.705 78.1455 161.463 79.1364 158.274 81.9853C151.151 88.3333 106.251 40.8004 34.7188 127.134C-45.6692 224.151 29.5784 347.736 98.478 372.664C98.478 372.664 120.247 385.329 145.237 384.741C170.196 384.153 168.09 393.628 181.158 390.098C181.158 390.098 188.558 388.612 189.456 385.639C190.354 388.612 197.786 390.098 197.786 390.098C210.854 393.659 208.779 384.184 233.707 384.741C258.666 385.329 280.435 372.664 280.435 372.664C349.365 347.705 424.582 224.12 344.194 127.134Z" fill="#091F35"/>
<path d="M213.393 265.336L189.549 223.81L165.52 265.243L213.393 265.336Z" fill="#FF7F00"/>
<path d="M306.322 273.263L255.724 299.182L248.632 295.032L245.629 319.929L224.974 321.88L214.322 300.42L187.598 300.885L160.874 300.42L150.222 321.88L129.568 319.929L126.533 295.032L119.442 299.182L68.8432 273.263L67.2949 273.789C100.955 339.902 173.385 343.525 173.385 343.525L177.751 326.525L187.598 325.627L197.414 326.525L201.781 343.525C201.781 343.525 274.21 339.902 307.902 273.789L306.322 273.263Z" fill="#FF7F00"/>
<path d="M119.411 304.229L126.502 300.08L129.537 324.976L150.191 326.927L160.844 305.468L187.567 305.901L214.291 305.468L224.943 326.927L245.598 324.976L248.601 300.08L255.693 304.229L305.084 278.961C306.044 277.289 306.973 275.554 307.871 273.82L306.322 273.294L255.724 299.213L248.632 295.063L245.629 319.96L224.974 321.911L214.322 300.451L187.598 300.916L160.874 300.451L150.222 321.911L129.568 319.96L126.533 295.063L119.442 299.213L68.8432 273.294L67.2949 273.82C68.1929 275.554 69.1219 277.258 70.0509 278.961L119.411 304.229Z" fill="url(#paint0_radial_51:517)"/>
<path d="M206.457 214.056L318.523 162.993C318.523 162.993 241.418 117.101 206.457 214.056Z" fill="#F9950F"/>
<path d="M219.091 217.617L298.302 179.745C298.302 179.714 309.078 248.8 219.091 217.617Z" fill="#F9950F"/>
<path d="M206.457 214.056L318.523 162.993C318.523 162.993 241.418 117.101 206.457 214.056Z" fill="#FF7F00"/>
<path d="M219.091 217.617L298.302 179.745C298.302 179.714 309.078 248.8 219.091 217.617Z" fill="#FF7F00"/>
<path d="M172.642 207.181C126.285 115.15 55.249 169.96 55.249 169.96L172.642 207.181Z" fill="#FF7F00"/>
<path d="M160.534 212.229C74.9435 254.033 77.3279 184.143 77.3279 184.143L160.534 212.229Z" fill="#FF7F00"/>
<defs>
<radialGradient id="paint0_radial_51:517" cx="0" cy="0" r="1" gradientUnits="userSpaceOnUse" gradientTransform="translate(187.56 300.092) scale(87.1625)">
<stop stop-color="#F9950F"/>
<stop offset="0.1155" stop-color="#EC8C0D"/>
<stop offset="0.2791" stop-color="#C77407"/>
<stop offset="0.6281" stop-color="#572C00"/>
<stop offset="0.8434" stop-color="#0C0000"/>
<stop offset="0.8895"/>
<stop offset="1"/>
</radialGradient>
</defs>
</svg>
