<svg width="192" height="370" viewBox="0 0 192 370" fill="none" xmlns="http://www.w3.org/2000/svg">
<path d="M189.864 57.409H167.16V55.4953C166.131 31.9577 141.053 12.1517 109.647 7.65463L105.375 7.17623C103.001 7.17623 100.628 7.17622 98.2549 6.69782H93.6666C91.3724 6.69782 88.9991 6.69782 86.6258 7.17623L82.3538 7.65463C50.7098 12.1517 26.2648 31.9577 24.9199 55.4953V57.409H2.21533V55.591C2.21533 42.674 10.1264 12.1517 82.1165 3.63601C85.897 3.07268 89.6997 2.75329 93.5083 2.6792H98.4923C102.301 2.75329 106.103 3.07268 109.884 3.63601C181.953 12.1517 189.864 42.674 189.864 55.591V57.409ZM171.669 53.5817H184.959C183.694 32.7232 163.521 21.05 142.398 14.448C158.853 23.8248 170.008 38.2727 171.669 53.5817ZM7.04104 53.5817H20.3316C21.9929 38.2727 33.1474 23.8248 49.4441 14.448C28.4799 21.05 8.3068 32.7232 7.04104 53.5817Z" fill="#091F35"/>
<path d="M122.779 57.4087H69.2212V55.5907C69.2212 16.6484 85.4387 6.12345 92.4004 3.34869C94.7351 2.39354 97.2647 2.39354 99.5994 3.34869C106.561 6.12345 122.779 16.6484 122.779 55.5907V57.4087ZM74.0469 53.5814H117.953C117.953 42.1953 115.342 13.9693 97.5425 6.98458C96.5384 6.60263 95.4614 6.60263 94.4572 6.98458C76.6575 13.9693 74.2842 42.1953 74.0469 53.5814Z" fill="#091F35"/>
<path opacity="0.5" d="M25.7466 54H21V362.51H25.7466V54Z" fill="#091F35"/>
<path d="M189.785 54.0601H2.21533V59.801H189.785V54.0601Z" fill="#091F35"/>
<path d="M189.785 360.336H2.21533V366.077H189.785V360.336Z" fill="#091F35"/>
<path d="M6.96193 57.6958H2.21533V363.207H6.96193V57.6958Z" fill="#091F35"/>
<path opacity="0.5" d="M171.747 54H167V362.51H171.747V54Z" fill="#091F35"/>
<path opacity="0.5" d="M122.699 53.5815H117.953V362.092H122.699V53.5815Z" fill="#091F35"/>
<path opacity="0.5" d="M73.9678 53.5815H69.2212V362.092H73.9678V53.5815Z" fill="#091F35"/>
<path d="M189.785 57.6958H185.038V363.207H189.785V57.6958Z" fill="#091F35"/>
</svg>
