<svg width="176" height="176" viewBox="0 0 176 176" fill="none" xmlns="http://www.w3.org/2000/svg">
<path d="M132 132C156.301 107.699 156.301 68.3005 132 44C107.699 19.6995 68.3005 19.6995 44 44C19.6995 68.3005 19.6995 107.699 44 132C68.3005 156.301 107.699 156.301 132 132Z" fill="#1984B2"/>
<path d="M108.555 108.759C120.132 97.1817 120.132 78.4105 108.555 66.8328C96.9769 55.255 78.2056 55.255 66.6279 66.8328C55.0502 78.4105 55.0502 97.1818 66.6279 108.759C78.2056 120.337 96.9769 120.337 108.555 108.759Z" fill="white"/>
<path d="M132.7 86.413C129.692 85.2603 126.221 85.2707 124.065 85.4338C123.926 85.2941 123.796 85.1215 123.674 84.9158C123.205 84.0809 124.551 82.5772 124.551 82.5772C124.551 82.5772 124.326 82.7838 123.816 82.8142C123.293 82.824 122.432 82.5918 121.946 82.4532C121.461 82.3145 121.196 81.8457 121.196 81.8457C121.196 81.8457 121.476 82.8089 121.262 83.8066C121.134 84.4579 120.469 84.4146 120.028 84.3047C118.176 83.1773 115.312 81.7274 112.332 81.3697C107.289 80.7257 105.062 81.5894 105.062 81.5894C105.062 81.5894 108.808 83.259 109.187 85.9812C109.187 85.9812 112.919 86.6662 113.506 89.1777C113.506 89.1777 119.192 90.5078 120.028 93.554L119.967 93.8014C119.995 93.756 120.036 93.7312 120.061 93.7022C120.065 93.7558 120.089 93.7969 120.097 93.834L120.159 93.5866C122.327 91.2894 127.972 92.7844 127.972 92.7844C129.67 90.8429 133.286 91.9897 133.286 91.9897C134.932 89.7723 139.023 90.0566 139.023 90.0566C139.023 90.0566 137.462 88.2486 132.7 86.413Z" fill="#091F35"/>
<path d="M78.8973 107.421C75.7593 108.148 72.8875 110.097 71.191 111.438C70.998 111.4 70.7933 111.33 70.5771 111.228C69.7221 110.797 69.9971 108.798 69.9971 108.798C69.9971 108.798 69.9262 109.095 69.52 109.406C69.0921 109.706 68.2483 109.995 67.7681 110.152C67.2879 110.308 66.8063 110.068 66.8063 110.068C66.8063 110.068 67.5772 110.71 67.9576 111.656C68.216 112.268 67.64 112.604 67.2131 112.759C65.0473 112.86 61.862 113.26 59.1912 114.63C54.651 116.916 53.2877 118.877 53.2877 118.877C53.2877 118.877 57.3268 118.167 59.1633 120.211C59.1633 120.211 62.6396 118.693 64.5313 120.446C64.5313 120.446 69.989 118.369 72.3855 120.427L72.4727 120.667C72.4711 120.613 72.4911 120.57 72.4953 120.532C72.5285 120.574 72.5718 120.595 72.5992 120.621L72.512 120.381C73.025 117.264 78.5409 115.347 78.5409 115.347C78.8629 112.788 82.502 111.717 82.502 111.717C82.6262 108.958 86.1769 106.906 86.1769 106.906C86.1769 106.906 83.8718 106.28 78.8973 107.421Z" fill="#091F35"/>
</svg>
