<svg width="5051" height="1539" viewBox="0 0 5051 1539" fill="none" xmlns="http://www.w3.org/2000/svg">
<path d="M4131 560.202V718L-1 618.932V376L48.307 378.217L251.111 387.262L517.856 399.154L709.614 407.696L870.254 414.851L1086.89 424.501L1302.38 434.1L1519.02 443.775L1720.56 452.745L1937.9 462.445L2087.42 469.122L2312.84 479.174L2495.85 487.338L2722.42 497.441L2917 506.083L3144.3 516.211L3335.26 524.727L3563.46 534.931L3798.57 545.413H3798.6L3978.03 553.4H3978.06L4027.47 555.617H4027.51L4131 560.202Z" fill="#49A3C8"/>
<path d="M4302.56 636.378L4234.7 641.405L4116.82 650C3704.43 571.637 2915.72 579.478 2214.67 544.167C1718.05 519.085 605.39 500.034 -1 491.162V306.589L115.734 302.467L340.773 294.601L607.319 285.276L814.284 278.038L1009.39 271.227L1158.09 266L1240.25 273.917L1449.54 294.023L1664.07 314.682L1863.46 333.908L2078 354.592L2235.89 369.672L2458.1 391.11L2638.38 408.451L2860.6 429.889L3051.06 448.236L3273.32 469.674L3460.88 487.719L3683.1 509.157L3912.46 531.249L4044.84 544.016L4077.92 555.904L4116 569.501L4234.7 612L4295.42 633.714L4302.56 636.378Z" fill="#733D25"/>
<path d="M4776 629.388L4715.26 630.37L4573.6 632.611L4296.17 637.043L4235.44 638H4232.61C4202.03 630.219 4147.3 622.413 4072.38 614.607C4010.53 608.161 3934.97 601.715 3847.9 595.294C3777.05 590.106 3698.59 584.919 3613.77 579.782C3541.39 575.401 3464.39 571.019 3383.47 566.713C3321.26 563.356 3256.87 560.058 3190.32 556.818C3115.51 553.141 3038.23 549.515 2958.95 545.939C2893.81 542.968 2827.42 540.047 2759.8 537.177C2683.85 533.819 2606.67 530.605 2528.29 527.533C2466.19 525.048 2403.54 522.53 2340.32 519.978C2263.94 517.041 2187.06 514.137 2109.7 511.266C2059.51 509.403 2009.24 507.564 1958.89 505.751C1884.5 503.048 1810.2 500.43 1735.98 497.895C1666.24 495.478 1596.85 493.111 1527.8 490.794C1453.13 488.31 1379.16 485.859 1305.89 483.441C1230 480.923 1155.08 478.607 1081.52 476.29C1006.03 473.923 931.963 471.631 859.721 469.441L698.946 464.556C630.991 462.524 565.204 460.585 501.585 458.739C398.545 455.717 301.83 452.973 213.01 450.48C137.696 448.365 68.062 446.451 5.07374 444.713L-1 444.537V144.132C122.439 115.41 248.05 91.5525 375.251 72.6694C465.237 59.2398 555.939 48.0511 647.354 39.1036C716.428 32.3888 785.681 26.8156 855.112 22.3838C924.543 17.952 994.237 14.6616 1064.19 12.5129C1145.58 9.92765 1227.02 8.76933 1308.5 9.03792C1385.74 9.25615 1462.89 10.6327 1539.94 13.1676C1613.59 15.5513 1687.01 18.9088 1760.21 23.2398C1832.38 27.4702 1904.19 32.5063 1975.65 38.3482C2045.53 44.0894 2114.95 50.5776 2183.9 57.8128C2252.36 64.9641 2320.24 72.745 2387.55 81.1553C2452.15 89.1963 2516.14 97.7494 2579.52 106.814C2648.59 116.685 2716.85 127.068 2784.28 137.963C2842.27 147.33 2899.52 157.016 2956.02 167.021C3022.71 178.772 3088.21 190.884 3152.52 203.357C3210.45 214.554 3267.33 225.969 3323.16 237.603C3388.26 251.032 3451.84 264.73 3513.91 278.697C3571.22 291.506 3627.1 304.365 3681.55 317.274C3745.67 332.483 3807.6 347.65 3867.33 362.775C3935.79 380.033 4001.1 397.038 4063.26 413.792C4127.57 431.065 4188.53 447.936 4245.48 464.153C4444.09 520.608 4595.11 568.778 4684.18 598.29C4744.31 617.981 4776 629.388 4776 629.388Z" fill="#D2E9F6"/>
<path d="M4776 691C4776 691 4703.76 667.651 4573.74 629.77C3991.75 460.186 2251.68 -0.762573 647.309 36.1113C716.385 29.3947 785.639 23.8201 855.072 19.3872C924.506 14.9543 994.201 11.663 1064.16 9.51375C1145.55 6.92788 1226.99 5.76927 1308.47 6.03793C1385.72 6.25622 1462.87 7.63315 1539.92 10.1686C1613.57 12.553 1687 15.9113 1760.19 20.2435C1832.37 24.4749 1904.18 29.5123 1975.64 35.3557C2045.52 41.0983 2114.95 47.5882 2183.9 54.8252C2252.36 61.9784 2320.24 69.7612 2387.56 78.1737C2452.16 86.2167 2516.15 94.772 2579.53 103.839C2648.61 113.713 2716.86 124.098 2784.29 134.996C2842.29 144.365 2899.54 154.054 2956.04 164.062C3022.73 175.816 3088.24 187.931 3152.55 200.407C3210.48 211.606 3267.36 223.024 3323.19 234.661C3388.29 248.094 3451.88 261.796 3513.95 275.766C3571.26 288.578 3627.14 301.44 3681.59 314.353C3745.71 329.566 3807.64 344.737 3867.38 359.866C3935.84 377.127 4001.15 394.137 4063.32 410.895C4127.63 428.173 4188.58 445.048 4245.53 461.269C4444.15 517.738 4595.18 565.921 4684.25 595.44L4714.83 627.503L4776 691Z" fill="#EDF6FB"/>
<path d="M5051 753.001V1583H1V1102.16L1.27784 1039.92L1 1032.21V617.198L1727.99 601.714C1727.99 601.714 1830.26 600.474 1968.5 600.005C2021.11 599.804 2075.69 606.004 2135.08 606.171C2219.59 606.44 2304.31 607.512 2384.55 609.054L2389.61 608.451C2390.36 608.451 2391.68 606.976 2392.41 607.009C2397.66 607.009 2399.58 606.272 2404.76 606.373C2411 606.373 2415.77 604.295 2421.89 604.429C2432.44 604.664 2448.18 604.63 2458.33 603.993C2518.16 600.05 2578.12 602.358 2637.67 610.897C2654.72 613.377 2668.71 615.891 2679.39 617.869L4583.09 697.366L5051 753.001Z" fill="#49A3C8"/>
<path d="M1522.14 640.525C1369.41 652.095 1330.48 667.269 1298.27 680.628C1266.06 693.986 1204.06 683.337 1160.3 695.341C1116.54 707.345 845.04 724.795 911.74 730.214C978.44 735.634 1155.64 746.255 1116.52 759.614C1077.39 772.973 1363.68 786.358 1230.89 798.389C1098.09 810.42 1012.99 849.195 1109.62 849.195C1206.26 849.195 1088.9 873.23 995.734 882.605C902.568 891.981 706.984 913.333 571.246 974.733C437.665 1035.27 372.417 1274.34 -294.541 1190.29C-305.399 1188.93 -316.418 1187.49 -327.599 1185.95L-333.827 1106.72L-337.375 1061.47L-338 1053.34L-337.879 993.051L-338 989.095V734.712L-245.701 727.017L219.545 688.404L280.017 683.364L1041.39 620.121L1283.6 600.151C1363.22 599.826 1458.96 599.934 1547.66 601.397C1569.06 601.75 1589.99 602.183 1610.34 602.698C1610.6 603.57 1610.79 604.479 1610.89 605.408C1612.6 619.823 1595.07 635.024 1522.14 640.525Z" fill="#3185B7"/>
<path d="M5862.1 1175.72L5871 1180.4V1272C5617.69 1240.77 5185.35 1056.9 4990.08 1058.16C4744.95 1059.77 4674.91 1084.77 4441.46 1046.64C4208.01 1008.5 4161.32 1044.98 3949.28 1056.59C3737.25 1068.21 3749.15 1012.64 3615.88 1012.64C3482.6 1012.64 3567.53 989.02 3573.39 989.02C3579.25 989.02 3624.44 976.996 3525.96 952.976C3427.47 928.955 3850.32 882.098 3778.36 865.916C3706.4 849.735 4060.51 852.255 4060.51 852.255L4078.79 850.037L4147.4 841.719L4791.73 763.356L5024.89 735L5159.1 805.575L5620.3 1048.45L5862.1 1175.72Z" fill="#3185B7"/>
<path d="M5243 861.924V1173L5236.5 1171.04C5203.1 1160.71 5162.02 1143.49 5111.5 1116.6C4850.11 977.501 4391.58 1005.65 4095.15 1010.61C3798.71 1015.57 3677.56 987.951 3662.79 972.515C3648.31 957.407 3656.02 943.155 3656.29 942.601L3668.65 940.083L3753.55 934.568L3984.82 837.474L4023.79 821.132C4026.1 815.879 4028.04 810.063 4029.56 803.833C4041.26 753.473 3986.69 756.57 3949.58 716.785C3927.49 693.141 3937.64 679.367 3951.69 671.687C3960.51 667.304 3969.5 664.397 3978.58 663L4114.57 696.112L4455.19 759.214L4615.29 788.674L4723.49 801.265L5243 861.924Z" fill="#733D25"/>
<path d="M1633 713C1632.69 713.898 1632.32 714.742 1631.89 715.518C1629.14 720.656 1625.71 724.89 1621.82 727.954C1615.98 732.989 1607.24 738.024 1594.3 741.649C1561.33 750.612 1169.04 820.07 1054.49 841.343C939.934 862.616 849.233 876.915 833.17 888.42C825.819 893.682 824.543 897.407 828.974 900.454C834.177 904.054 847.302 906.672 867.695 909.693L845.725 954.505L1043.44 913.066C1043.44 913.066 1066.94 897.433 1077.48 909.064C1082.11 914.099 1084.31 924.345 1081.1 943.302C1081.1 943.302 1098.17 975.224 989.598 1017.22C881.022 1059.21 342 1178.54 200.745 1265.9C200.745 1265.9 98.7312 1303.05 2.40717 1358.01L-1 1360V1210.23L271.423 990.354C271.423 990.354 402.792 866.87 463.248 832.254C474.259 825.91 482.903 822.537 487.988 823.418C492.604 824.198 501.533 825.054 513.668 825.935C588.324 831.122 783.674 836.005 836.309 823.418C875.852 814.028 1037.9 773.773 1147.64 746.433L1252.12 720.401L1588.45 713.805L1601.45 713.554H1607.82L1618.65 713.327L1633 713Z" fill="#733D25"/>
<path d="M5243 378.033V1084C5243 1084 5236.72 1082.51 5225.29 1079.94C5213.85 1077.37 5197.38 1073.64 5176.84 1069.13L5153.04 1063.94L5137.94 1060.69C5124.94 1057.9 5110.96 1054.95 5096.24 1051.9L5087.36 1050.04L5060.08 1044.39L5054.72 1043.31L5047.37 1041.82C5028.47 1037.97 5008.76 1034.06 4988.48 1030.11L4982.63 1029H4982.52L4971.78 1026.96C4958.78 1024.44 4945.45 1021.92 4932.07 1019.4C4922.45 1017.59 4912.77 1015.81 4903.02 1014.06C4891.49 1011.99 4879.92 1009.95 4868.3 1007.94C4850.71 1004.89 4833.07 1001.91 4815.56 999.067C4806.2 997.556 4796.88 996.078 4787.59 994.633C4774.28 992.567 4761.09 990.61 4748.04 988.763C4729.22 986.067 4710.78 983.724 4692.89 981.431C4669.29 978.584 4646.67 976.215 4625.45 974.477C4604.66 972.789 4585.35 971.68 4567.73 971.302H4564.31C4544.56 971 4518.18 971.025 4486.85 971.302C4468.73 971.454 4448.97 971.655 4427.89 971.932L4354.98 972.89L4293.53 973.721C4268.24 974.049 4242.25 974.376 4215.88 974.653C4148.91 975.384 4079.57 975.863 4013.47 975.586C3819.33 974.88 3653 968.027 3656.04 943.008C3657.05 934.719 3676.83 924.414 3720.75 911.665C3811.56 885.261 3882.38 864.147 3934.53 846.158H3934.59C3980.18 830.336 4011.51 816.831 4029.45 804.133C4063.03 780.298 4049.41 759.311 3994.37 731.067C3938.37 702.446 3936.75 683.726 3951.62 671.859C3954.99 669.28 3958.47 667.208 3962.01 665.661C3974.78 659.639 3991.31 656.238 4001.51 654.55C4007.21 653.617 4010.92 653.214 4010.92 653.214C4030.87 651.098 4049.83 648.427 4067.96 645.227C4101.46 639.382 4132.14 631.849 4161.11 623.031C4175.54 618.621 4189.52 613.935 4203.24 608.947C4229.62 599.398 4254.95 588.79 4280.18 577.679C4297.43 570.121 4314.62 562.134 4332.08 554.122C4353.91 544.044 4376.16 533.638 4399.43 523.258C4416.75 515.523 4434.64 507.763 4453.33 500.078C4474.54 491.361 4496.8 482.744 4520.48 474.354C4535.78 468.946 4551.72 463.638 4568.3 458.431L4575.69 456.113C4592.69 450.898 4610.4 445.884 4628.97 440.996C4633.58 439.761 4638.25 438.476 4642.96 437.368C4658.56 433.437 4674.79 429.641 4691.65 425.98C4697.18 424.77 4702.77 423.578 4708.42 422.402C4723.14 419.328 4738.4 416.389 4754.17 413.584C4757.64 412.962 4761.16 412.358 4764.74 411.77C4784.35 408.41 4804.76 405.252 4825.98 402.296C4833.46 401.238 4841.04 400.23 4848.72 399.273C4863.64 397.358 4878.98 395.569 4894.75 393.906C4902.54 393.049 4910.44 392.21 4918.44 391.387C4925.04 390.765 4931.72 390.152 4938.47 389.547C4954.78 388.12 4971.52 386.801 4988.71 385.592C4994.95 385.155 5001.25 384.752 5007.62 384.383H5008.57C5021.48 383.543 5034.66 382.812 5048.09 382.191C5054.49 381.871 5060.94 381.577 5067.46 381.309L5087.42 380.502C5110.88 379.679 5135.14 379.05 5160.19 378.613C5186.81 378.109 5214.41 377.916 5243 378.033Z" fill="#EDF6FB"/>
<path d="M1611 713.487L1603.53 714.922C1595.5 716.458 1581.25 719.203 1561.77 723.031C1456.44 743.505 1197.39 794.401 928.714 851.266C756.151 887.807 766.791 898.913 825.153 900.776C885.035 902.715 995.077 894.984 1009.59 894.984C1023.14 894.984 1064.86 896.495 1072.46 909.389C1080.93 923.819 1046.84 952.503 883.364 1009.27C815.565 1032.79 736.374 1055.2 652.723 1077.89H652.422L637.59 1081.92C637.495 1081.91 637.4 1081.91 637.306 1081.92L616.276 1087.56C393.201 1147.6 145.99 1210.63 -1 1302V1291.52L-0.816262 1219.47L-1 1210.68V461.778C4.18616 460.059 9.43438 458.797 14.7179 458C14.7179 458 752.159 682.133 1412.41 711.17C1468.79 713.688 1524.61 714.696 1579.45 714.041L1593.85 713.839H1600.19C1603.8 713.705 1607.4 713.587 1611 713.487Z" fill="#EDF6FB"/>
<path d="M5243 530.271V1069C5243 1069 5156.81 1051.43 5038.77 1030.38C5011.43 1025.47 4982.38 1020.55 4952.28 1015.37C4813.77 980.534 4632.47 955.476 4396.46 953.953C4374.76 953.806 4352.61 953.863 4330.01 954.125C4303.69 954.42 4276.74 955.001 4249.13 955.869C4226.88 956.574 4204.19 957.482 4181.07 958.596L4171.04 959.087C4144.3 960.447 4119.25 961.577 4095.9 962.478C3988.51 966.752 3915.74 966.728 3869.84 963.411C3690.24 950.317 3921.94 886.222 4101.69 826.819C4126.78 818.54 4150.86 810.334 4172.65 802.399C4195.05 794.243 4215.04 786.332 4231.28 778.864C4289.4 752.061 4299.37 730.664 4198.67 722.213L4189.5 721.426C4161.36 718.97 4136.98 716.513 4116.11 714.056C3992.99 699.316 3992.76 682.881 4072.45 658.83C4086.79 654.506 4103.72 649.912 4122.99 645.048C4149.11 638.464 4179.59 631.339 4213.75 623.601C4326.82 598.051 4480.22 565.868 4651.02 523.883C4948.82 450.6 5137.45 487.107 5243 530.271Z" fill="#D2E9F6"/>
<path d="M830.857 755.205C542.046 846.178 988.306 1011.61 737.108 1077.64H736.768C731.487 1079.03 725.922 1080.37 720.018 1081.68C719.911 1081.67 719.804 1081.67 719.697 1081.68C711.964 1083.34 704.041 1085.26 695.949 1087.33C444.166 1147.41 164.994 1210.52 -1 1302V1291.51L-0.792507 1219.37L-1 1210.57V631C236.673 639.295 1085.51 675.024 830.857 755.205Z" fill="#D2E9F6"/>
<path d="M1536.84 483.678C1536.73 482.582 1536.52 481.496 1536.24 480.429C1531.2 460.659 1513.88 494.684 1507.73 479.573C1512.26 480.681 1519.42 479.85 1529.16 471.086C1536.57 464.336 1537.68 471.69 1536.84 483.678Z" fill="#D2E9F6"/>
<path d="M1532.89 519.943C1532.74 522.663 1532.67 525.207 1532.72 527.499C1532.28 524.993 1532.34 522.426 1532.89 519.943V519.943Z" fill="#D2E9F6"/>
<path d="M647.705 508.977H632.594V623.142H647.705V508.977Z" fill="#A67B5C"/>
<path d="M641.459 508.977H626.348V623.142H641.459V508.977Z" fill="#905A33"/>
<path d="M805.388 373.885H790.277V444.026H805.388V373.885Z" fill="#A67B5C"/>
<path d="M800.908 373.885H785.797V444.026H800.908V373.885Z" fill="#905A33"/>
<path d="M997.599 342H982.488V412.141H997.599V342Z" fill="#A67B5C"/>
<path d="M993.947 342H978.836V412.141H993.947V342Z" fill="#905A33"/>
<path d="M1100.23 493.992C1100.23 493.992 1102.52 484.17 1077.44 461.402C1049.73 436.217 971.961 395.618 889.706 497.72C862.54 542.135 840.568 589.525 824.225 638.959L810.273 637.574L802.491 636.944L640.375 623.697C640.375 623.697 696.613 512.176 767.685 455.786C796.195 433.119 839.16 415.313 887.339 404.685C956.648 389.423 1036.74 389.146 1100.05 411.334C1102.42 412.165 1104.76 413.047 1107.08 413.852C1107.08 413.852 1174.85 436.519 1217.46 497.845L1100.23 493.992Z" fill="#B97F4D"/>
<path d="M1220.49 503.134L1197.27 501.749L1108.87 496.561L1100.84 496.108C1100.84 496.108 1098.32 480.442 1077.44 461.402L1077.06 461.05C1059.96 445.712 1024.7 425.009 981.358 433.95C953.327 439.718 921.896 457.851 889.785 497.72C862.618 542.135 840.647 589.525 824.304 638.959L810.352 637.574C820.426 609.24 845.611 541.517 867.118 512.529C894.822 475.355 938.014 415.414 1050.69 408.815C1067.21 407.763 1083.8 408.608 1100.13 411.334C1102.5 412.165 1104.84 413.046 1107.16 413.852C1107.13 413.928 1177.5 441.632 1220.49 503.134Z" fill="#905A33"/>
<path d="M948.816 405.593C898.27 410.152 865.025 471.579 845.154 491.45L843.618 492.936C839.186 497.066 837.12 497.495 836.415 495.455C835.977 492.949 836.036 490.381 836.591 487.899C838.027 478.354 841.931 462.865 840.445 451.532C840.326 450.435 840.124 449.349 839.84 448.283C834.803 428.512 817.476 462.538 811.331 447.426C810.906 446.304 810.569 445.151 810.324 443.976C805.287 420.931 894.139 398.189 894.139 398.189C924.361 387.082 963.373 392.774 967.402 398.793C969.191 401.513 964.229 404.208 948.816 405.593Z" fill="#EDF6FB"/>
<path d="M948.815 405.592C898.268 410.15 865.024 471.578 845.153 491.449L843.617 492.935C847.219 481.954 855.781 464.878 877.894 443.949C914.538 409.269 947.581 398.616 967.401 398.868C969.189 401.512 964.228 404.207 948.815 405.592Z" fill="#D2E9F6"/>
<path d="M826.291 526.887H811.18V641.052H826.291V526.887Z" fill="#A67B5C"/>
<path d="M818.736 526.887H803.625V641.052H818.736V526.887Z" fill="#905A33"/>
<path d="M805.391 391.338V401.413L978.815 368.596V356.658L805.391 386.125V391.338Z" fill="#A6835C"/>
<path d="M647.703 530.06L785.792 393.857V412.142L647.703 555.799V530.06Z" fill="#A6835C"/>
<path d="M997.602 356.657V366.757L1093.13 393.856V380.81L997.602 354.164V356.657Z" fill="#A6835C"/>
<path d="M1220.49 386.855H1205.38V501.021H1220.49V386.855Z" fill="#A67B5C"/>
<path d="M1213.96 386.855H1198.85V501.021H1213.96V386.855Z" fill="#905A33"/>
<path d="M918.822 377.082H903.711V480.468H918.822V377.082Z" fill="#A67B5C"/>
<path d="M914.892 377.082H899.781V480.468H914.892V377.082Z" fill="#905A33"/>
<path d="M1113.6 348.725H1098.49V432.39H1113.6V348.725Z" fill="#A67B5C"/>
<path d="M1108.24 348.725H1093.12V432.39H1108.24V348.725Z" fill="#905A33"/>
<path d="M1197.27 501.751L1109.6 496.713C1102.39 481.984 1091.09 469.639 1077.06 461.152C1059.96 445.814 1024.7 425.112 981.354 434.052C980.019 434.052 979.289 433.901 979.289 433.901C1108.66 385.445 1181 478.454 1197.27 501.751Z" fill="#6C4426"/>
<path d="M917.789 400.706V410.805L1113.6 377.963V366.025L917.789 395.492V400.706Z" fill="#A6835C"/>
<path d="M815.035 558.747L917.739 394.211L921.996 412.017L821.029 583.806L815.035 558.747Z" fill="#A6835C"/>
<path d="M1108.21 369.023L1106.7 378.72L1220.06 421.081L1221.92 409.27L1108.64 366.379L1108.21 369.023Z" fill="#A6835C"/>
<path d="M613 623.734C613 623.734 646.949 623.18 654.782 614.24C662.614 605.299 676.063 601.168 699.183 614.97C722.303 628.771 817.83 628.041 839.111 646.703C839.01 646.703 628.287 635.118 613 623.734Z" fill="#EDF6FB"/>
<path d="M654.053 530.611C654.053 530.611 679.238 508.952 684.829 501.043C690.42 493.135 690.974 480.442 676.417 492.934C661.86 505.426 637.531 529.251 654.053 530.611Z" fill="#EDF6FB"/>
<path d="M1135.36 372.222C1135.36 372.222 1120.53 371.592 1133.67 379.047C1146.82 386.502 1169.76 389.348 1173.97 394.158C1178.18 398.969 1184.4 419.797 1186.84 408.338C1189.28 396.878 1190.06 386.955 1172.01 386.779C1153.95 386.603 1154.38 369.426 1135.36 372.222Z" fill="#EDF6FB"/>
<path d="M862.13 369.681C862.13 369.681 821.834 382.273 846.817 381.19C871.801 380.107 881.9 374.843 890.11 374.843C898.32 374.843 919.224 358.524 862.13 369.681Z" fill="#EDF6FB"/>
<g clip-path="url(#clip0_257_1763)">
<g style="mix-blend-mode:multiply" opacity="0.36">
<path d="M1267.32 468.833C1291.57 467.836 1311.04 462.597 1310.82 457.132C1310.59 451.666 1290.75 448.044 1266.51 449.041C1242.26 450.038 1222.78 455.277 1223 460.743C1223.23 466.208 1243.07 469.831 1267.32 468.833Z" fill="#606060"/>
</g>
<path d="M1233 433.723C1235.05 440.676 1239.34 446.852 1244.73 451.694C1246.92 453.664 1249.32 455.447 1252.03 456.573C1254.64 457.657 1257.45 458.114 1260.23 458.535C1264.39 459.161 1268.61 459.72 1272.81 459.265C1276.22 458.895 1279.52 457.86 1282.8 456.826L1294.08 453.28C1296.98 452.367 1299.96 451.412 1302.32 449.481C1304.06 448.058 1305.37 446.183 1306.61 444.317C1307.78 442.563 1308.95 440.768 1309.61 438.765C1309.83 438.108 1310 437.435 1310.12 436.752C1310.48 434.689 1310.45 432.544 1310.42 430.438C1310.36 426.641 1310.29 422.801 1309.31 419.131C1308.35 415.521 1306.53 412.219 1304.24 409.269C1301.5 405.726 1297.07 400.353 1292.46 398.588C1291.63 398.26 1290.75 398.066 1289.86 398.011C1282.24 397.635 1274.78 395.407 1267.17 394.758C1259.4 394.1 1251.09 394.996 1244.81 399.637C1242.35 401.453 1240.31 403.772 1238.45 406.2C1236.93 408.18 1235.52 410.255 1234.42 412.502C1231.24 419.036 1230.95 426.775 1233 433.723Z" fill="#FDFFFF"/>
<g style="mix-blend-mode:multiply" opacity="0.11">
<path d="M1233 433.723C1235.05 440.676 1239.34 446.852 1244.73 451.694C1246.92 453.664 1249.32 455.447 1252.03 456.573C1254.63 457.657 1257.44 458.114 1260.23 458.535C1264.39 459.161 1268.61 459.72 1272.8 459.265C1276.22 458.895 1279.52 457.86 1282.8 456.826L1294.07 453.28C1296.98 452.367 1299.96 451.412 1302.32 449.481C1304.06 448.058 1305.37 446.183 1306.61 444.317C1307.78 442.563 1308.94 440.768 1309.61 438.765C1309.83 438.108 1310 437.435 1310.11 436.752C1309.09 438.09 1308.03 439.395 1306.9 440.656C1302.29 445.779 1296.06 450.082 1289.18 450.04L1292.54 445.998C1287.79 448.989 1282.94 452.02 1277.51 453.414C1272.07 454.809 1265.86 454.323 1261.49 450.79L1265.8 447.708C1262.27 448.403 1258.7 448.928 1255.12 449.269C1254.49 449.33 1253.84 449.381 1253.26 449.149C1252.71 448.934 1252.29 448.491 1251.9 448.039C1246.55 441.725 1245.86 431.449 1238.57 427.541C1243.03 425.525 1244.2 418.641 1240.66 415.256C1241.9 411.38 1246.99 410.483 1249.82 407.552L1254.72 410.821C1255.06 410.417 1255.3 409.94 1255.42 409.428C1255.54 408.915 1255.53 408.382 1255.41 407.871C1256.68 409.537 1258.37 410.841 1260.3 411.654C1262.23 412.467 1264.34 412.761 1266.42 412.506C1267.5 412.357 1268.63 412.061 1269.67 412.388C1270.38 412.61 1270.99 413.104 1271.7 413.258C1273.58 413.665 1275.08 411.774 1276.78 410.845C1278.63 409.828 1280.87 409.975 1282.98 409.753C1285.08 409.532 1287.44 408.641 1288.09 406.627C1288.43 405.61 1288.26 404.441 1288.78 403.502C1288.89 403.283 1289.06 403.096 1289.26 402.961C1289.47 402.825 1289.71 402.746 1289.95 402.73C1290.2 402.714 1290.44 402.762 1290.67 402.87C1290.89 402.977 1291.08 403.14 1291.22 403.343C1291.7 401.43 1292.23 400.07 1292.48 398.588C1291.65 398.26 1290.77 398.066 1289.88 398.011C1282.26 397.635 1274.8 395.407 1267.19 394.758C1259.42 394.1 1251.11 394.996 1244.83 399.637C1242.37 401.453 1240.33 403.772 1238.47 406.2C1236.95 408.18 1235.54 410.255 1234.44 412.502C1231.24 419.036 1230.95 426.775 1233 433.723Z" fill="#606060"/>
</g>
<path d="M1290.27 375.624C1294.34 380.41 1295.03 387.243 1294.45 393.514C1294.34 394.699 1294.18 395.901 1293.7 396.986C1292.98 398.596 1291.6 399.8 1290.27 400.951L1284.14 406.236C1282.87 407.328 1281.57 408.442 1280 409.031C1278.81 409.479 1277.53 409.601 1276.26 409.7C1270.13 410.18 1263.84 410.194 1257.99 408.277C1252.14 406.36 1246.77 402.227 1244.61 396.454C1243.13 392.483 1243.26 388.098 1243.7 383.88C1243.88 382.221 1244.11 380.556 1244.59 378.96C1245.47 376.08 1247.2 373.502 1249.3 371.353C1250.28 370.361 1251.36 369.438 1252.64 368.914C1254.32 368.223 1256.2 368.265 1258 368.416C1261.07 368.673 1264.12 369.218 1267.09 370.042C1268.88 370.54 1270.74 371.148 1272.57 370.855C1273.89 370.652 1275.13 369.981 1276.47 369.922C1277.99 369.855 1279.4 370.532 1280.9 370.579C1281.83 370.609 1282.91 370.093 1283.81 370.278C1285.98 370.703 1288.88 373.996 1290.27 375.624Z" fill="#FDFFFF"/>
<g style="mix-blend-mode:multiply" opacity="0.42">
<path d="M1275.94 413.325L1276.33 415.734C1276.33 415.734 1270.9 417.564 1265.78 417.519C1260.67 417.474 1258.28 417.235 1258.28 417.235C1258.28 417.235 1261.58 413.638 1260.28 406.21C1258.97 398.782 1253.85 389.67 1252.93 386.357C1252 383.043 1251.4 378.849 1251.43 376.395L1251.46 373.935C1251.46 373.935 1249.64 371.057 1250.09 369.508C1250.54 367.959 1251.91 368.65 1251.91 368.65L1285.59 371.278C1285.59 371.278 1288.86 373.669 1279.8 377.306C1270.75 380.943 1265.35 380.408 1265.35 380.408L1264.95 387.826L1267.62 403.209L1275.94 413.325Z" fill="#606060"/>
</g>
<path d="M1252.37 377.865C1253.03 383.677 1254.58 389.354 1256.95 394.701C1258.51 398.22 1260.43 401.613 1261.47 405.313C1262.51 409.013 1262.57 413.23 1260.53 416.494C1264.34 416.612 1268.15 416.413 1271.93 415.899C1273.83 415.639 1275.87 415.226 1277.18 413.821C1276.54 412.111 1275.75 410.463 1274.82 408.895C1272.59 405.033 1269.82 401.432 1268.3 397.241C1267.28 394.472 1266.87 391.532 1266.24 388.649C1265.58 385.572 1264.68 382.548 1263.56 379.605C1263.16 378.53 1262.68 377.355 1262.43 376.159C1262.21 375.195 1262.21 374.19 1262.43 373.226C1262.97 371.211 1264.82 370.349 1265.88 368.717C1268.42 364.826 1260.79 363.866 1258.36 364.718C1255.8 365.614 1253.8 367.808 1252.85 370.367C1252.73 370.687 1252.63 371.01 1252.55 371.337C1252 373.459 1252.12 375.69 1252.37 377.865Z" fill="#A83131"/>
<g style="mix-blend-mode:multiply" opacity="0.42">
<path d="M1252.37 377.865C1252.79 381.53 1253.56 385.146 1254.67 388.663C1254.75 386.192 1254.52 383.721 1253.99 381.306C1253.63 379.68 1253.16 377.85 1254.08 376.456C1256.48 380.298 1257.15 385.179 1260.22 388.509C1258.99 384.985 1257.87 381.434 1256.86 377.856C1256.74 377.47 1256.69 376.952 1257.04 376.761C1258.41 377.486 1259.54 378.59 1260.66 379.662C1261.52 380.499 1262.39 381.347 1263 382.38C1263.73 383.599 1264.06 385.012 1264.36 386.401C1265.25 390.41 1266.09 394.467 1267.73 398.232C1268.45 399.875 1269.3 401.458 1270.28 402.965C1271.64 405.075 1273.2 406.998 1274.82 408.895C1272.59 405.033 1269.82 401.432 1268.3 397.24C1267.29 394.472 1266.87 391.532 1266.24 388.649C1265.58 385.571 1264.68 382.548 1263.56 379.605C1263.16 378.529 1262.69 377.354 1262.44 376.159C1261.6 375.504 1260.76 374.862 1259.92 374.218C1258.39 373.047 1256.84 371.868 1255.12 370.993C1254.42 370.64 1253.6 370.347 1252.84 370.367C1252.72 370.686 1252.62 371.01 1252.54 371.337C1252 373.459 1252.12 375.689 1252.37 377.865Z" fill="#606060"/>
</g>
<path d="M1251.64 372.925C1251.82 373.102 1252.01 373.267 1252.2 373.421C1253.6 374.539 1255.39 375.121 1257.04 375.881C1258.79 376.694 1260.44 377.733 1262.25 378.396C1262.58 378.514 1262.9 378.619 1263.22 378.711C1268.34 380.164 1273.92 378.607 1278.96 376.737C1280.72 376.084 1282.5 375.369 1283.92 374.131C1286.24 372.098 1286.96 368.77 1284.44 366.609L1284.35 366.534C1282.54 365.06 1280.72 365.554 1278.53 365.657C1272.12 365.957 1265.75 364.585 1260.03 361.677C1257.74 360.508 1255.55 359.089 1253.09 358.337C1252.79 358.218 1252.47 358.189 1252.16 358.253C1251.65 358.408 1251.41 358.973 1251.23 359.473C1251.03 360.026 1250.84 360.585 1250.65 361.144C1250.07 362.844 1249.6 364.572 1249.49 366.355C1249.35 368.731 1249.96 371.254 1251.64 372.925Z" fill="#A83131"/>
<g style="mix-blend-mode:multiply" opacity="0.42">
<path d="M1250.65 361.148C1250.81 361.594 1250.99 362.031 1251.19 362.457C1251.72 363.596 1252.27 364.736 1253.02 365.736C1253.48 366.334 1254 366.885 1254.57 367.381C1255.22 367.96 1255.91 368.503 1256.63 369.007C1258.53 370.365 1260.57 371.624 1262.79 372.317C1263.26 372.467 1263.75 372.588 1264.24 372.681C1266.13 373.034 1268.07 372.921 1269.99 372.807C1271.55 372.715 1273.11 372.622 1274.63 372.278C1276.77 371.794 1278.76 370.825 1280.72 369.865C1281.55 369.459 1282.4 369.052 1283.11 368.442C1283.7 367.947 1284.12 367.284 1284.33 366.541C1282.52 365.067 1280.7 365.561 1278.51 365.665C1272.1 365.965 1265.73 364.593 1260.01 361.685C1257.72 360.516 1255.53 359.097 1253.07 358.345C1252.77 358.225 1252.45 358.196 1252.14 358.261C1251.63 358.416 1251.39 358.981 1251.21 359.481C1251.04 360.032 1250.84 360.591 1250.65 361.148Z" fill="#606060"/>
</g>
<path d="M1264.06 370.103C1264.58 370.239 1265.12 370.349 1265.66 370.432C1276.19 372.058 1287.24 368.196 1288.3 352.795C1288.81 345.372 1284.64 340.617 1280.17 337.68C1277.13 335.724 1273.77 334.3 1270.25 333.468C1260.99 331.79 1249.39 339.253 1248.33 348.243C1247.31 356.773 1254.34 367.619 1264.06 370.103Z" fill="#FDFFFF"/>
<g style="mix-blend-mode:multiply" opacity="0.11">
<path d="M1264.05 370.102C1260.59 367.011 1257.9 363.15 1256.2 358.828C1254.94 355.575 1254.29 352.038 1254.71 348.574C1255.12 345.11 1256.66 341.731 1259.27 339.426C1260.49 340.603 1262.2 341.076 1263.87 341.32C1269.49 342.134 1275.06 340.656 1279.93 337.834L1280.18 337.688C1277.14 335.732 1273.78 334.308 1270.26 333.475C1260.99 331.798 1249.4 339.261 1248.34 348.251C1247.31 356.773 1254.34 367.618 1264.05 370.102Z" fill="#606060"/>
</g>
<path d="M1259.74 334.819C1259.74 334.819 1261.58 337.35 1266.61 338.786C1267.19 338.95 1267.81 339.103 1268.47 339.231C1274.91 340.499 1281.17 337.513 1281.17 337.513C1280.75 336.156 1280.41 334.775 1280.15 333.378C1280.06 332.888 1279.97 332.392 1279.9 331.894C1279.64 330.243 1279.47 328.558 1279.36 326.869C1279.33 326.358 1279.31 325.852 1279.29 325.342C1279.21 323.323 1279.23 321.315 1279.29 319.363C1279.31 318.828 1279.34 318.294 1279.37 317.769C1279.46 316.102 1279.6 314.49 1279.76 312.971C1279.81 312.451 1279.87 311.941 1279.93 311.445C1280.29 308.371 1280.74 305.753 1281.08 303.923C1281.41 302.215 1281.65 301.195 1281.66 301.134C1281.23 301.425 1280.81 301.721 1280.39 302.022C1280.06 302.266 1279.73 302.513 1279.4 302.764C1276.9 304.684 1274.59 306.843 1272.5 309.211C1272.13 309.625 1271.78 310.041 1271.43 310.459C1270.49 311.605 1269.61 312.766 1268.8 313.915C1268.5 314.339 1268.21 314.765 1267.93 315.193C1266.94 316.698 1266.07 318.192 1265.29 319.644C1264.94 320.294 1264.62 320.934 1264.31 321.565C1263.32 323.596 1262.44 325.682 1261.69 327.812C1261.41 328.578 1261.17 329.3 1260.97 329.965C1260.46 331.556 1260.05 333.177 1259.74 334.819Z" fill="#A83131"/>
<path d="M1277.98 299.709C1278.11 300.858 1278.61 301.933 1279.4 302.773C1279.54 302.917 1279.69 303.053 1279.85 303.179C1280.22 303.49 1280.63 303.741 1281.08 303.923C1281.8 304.225 1282.59 304.334 1283.36 304.241C1286 303.928 1287.88 301.394 1287.54 298.567C1287.45 297.682 1287.13 296.837 1286.62 296.11C1286.1 295.384 1285.42 294.801 1284.61 294.418C1283.85 294.061 1283 293.925 1282.16 294.023C1279.53 294.346 1277.65 296.888 1277.98 299.709Z" fill="#FDFFFF"/>
<path d="M1281.37 351.053C1282 350.978 1282.41 350.086 1282.29 349.06C1282.17 348.034 1281.56 347.263 1280.93 347.338C1280.3 347.413 1279.88 348.305 1280 349.331C1280.13 350.357 1280.74 351.128 1281.37 351.053Z" fill="#070101"/>
<path d="M1266.69 351.351C1267.32 351.276 1267.73 350.384 1267.61 349.358C1267.49 348.332 1266.88 347.561 1266.25 347.636C1265.62 347.711 1265.21 348.603 1265.33 349.629C1265.45 350.655 1266.06 351.425 1266.69 351.351Z" fill="#070101"/>
<path d="M1270.02 346.139C1269.48 345.85 1268.99 345.543 1268.38 345.401C1267.75 345.267 1267.11 345.223 1266.47 345.271C1264.91 345.362 1263.38 345.791 1261.91 346.287C1261.82 346.32 1261.74 346.194 1261.83 346.133C1263.21 345.141 1264.9 344.685 1266.59 344.633C1267.27 344.592 1267.96 344.668 1268.62 344.856C1269.22 345.059 1269.9 345.383 1270.16 345.997C1270.17 346.016 1270.17 346.038 1270.17 346.059C1270.16 346.079 1270.15 346.098 1270.14 346.113C1270.12 346.128 1270.1 346.138 1270.08 346.141C1270.06 346.145 1270.04 346.143 1270.02 346.135L1270.02 346.139Z" fill="#070101"/>
<path d="M1278.57 345.738C1279.11 345.441 1279.58 345.128 1280.19 344.976C1280.82 344.832 1281.46 344.778 1282.1 344.817C1283.66 344.884 1285.19 345.289 1286.67 345.769C1286.76 345.799 1286.85 345.671 1286.76 345.61C1285.36 344.64 1283.66 344.211 1281.97 344.187C1281.29 344.155 1280.6 344.241 1279.95 344.441C1279.34 344.644 1278.67 344.986 1278.41 345.604C1278.38 345.685 1278.47 345.787 1278.56 345.74L1278.57 345.738Z" fill="#070101"/>
<path d="M1262.94 356.594C1263.65 357.588 1264.44 358.52 1265.31 359.381C1266.19 360.234 1267.19 360.956 1268.28 361.526C1269.43 362.12 1270.68 362.53 1271.98 362.506C1273.38 362.482 1274.75 362.071 1276.06 361.603C1276.76 361.358 1277.44 361.07 1278.11 360.741C1278.42 360.587 1278.72 360.441 1279.03 360.27C1279.36 360.077 1279.73 359.928 1280.06 359.721C1280.33 359.55 1280.72 359.877 1280.48 360.148C1280.26 360.428 1280.01 360.686 1279.74 360.918C1279.45 361.129 1279.16 361.324 1278.85 361.502C1278.24 361.839 1277.59 362.125 1276.93 362.356C1275.53 362.876 1274.06 363.348 1272.56 363.411C1269.8 363.524 1267.15 362.116 1265.16 360.29C1264.06 359.326 1263.18 358.14 1262.56 356.81C1262.55 356.763 1262.55 356.713 1262.57 356.667C1262.59 356.622 1262.62 356.585 1262.67 356.561C1262.71 356.537 1262.76 356.529 1262.81 356.537C1262.85 356.546 1262.9 356.57 1262.93 356.606L1262.94 356.594Z" fill="#070101"/>
<path d="M1275.22 352.183L1291.33 362.689L1272.72 359.369C1272.72 359.369 1269.94 354.171 1275.22 352.183Z" fill="#FF9A15"/>
<path d="M1283.95 388.747C1285.76 388.747 1287.23 387.276 1287.23 385.46C1287.23 383.645 1285.76 382.173 1283.95 382.173C1282.14 382.173 1280.67 383.645 1280.67 385.46C1280.67 387.276 1282.14 388.747 1283.95 388.747Z" fill="#070101"/>
<path d="M1285.27 399.912C1287.08 399.912 1288.55 398.441 1288.55 396.625C1288.55 394.81 1287.08 393.338 1285.27 393.338C1283.46 393.338 1281.99 394.81 1281.99 396.625C1281.99 398.441 1283.46 399.912 1285.27 399.912Z" fill="#070101"/>
<path d="M1236.76 340.477C1236.56 342.414 1236.62 344.461 1236.66 346.411C1236.69 348.177 1236.8 349.946 1237 351.696C1237.41 355.342 1238.31 358.914 1239.69 362.314C1241.08 365.77 1243.04 368.889 1244.96 372.072C1245.89 373.619 1246.79 375.195 1247.78 376.705C1248.71 378.128 1250.68 379.917 1250.23 381.788C1249.87 383.292 1248.02 383.896 1246.98 382.619C1246.69 382.259 1246.56 381.873 1246.35 381.475C1246.1 381.073 1245.83 380.69 1245.53 380.326C1245.01 379.606 1244.53 378.858 1244.08 378.09C1243.04 376.382 1242.11 374.618 1241.14 372.873C1239.31 369.572 1237.39 366.321 1236.35 362.67C1235.35 359.057 1234.84 355.324 1234.84 351.574C1234.82 349.713 1234.93 347.853 1235.17 346.006C1235.42 344.089 1235.95 342.288 1236.4 340.418C1236.41 340.374 1236.44 340.336 1236.48 340.312C1236.52 340.287 1236.56 340.277 1236.6 340.283C1236.65 340.29 1236.69 340.312 1236.72 340.347C1236.75 340.382 1236.76 340.426 1236.76 340.471L1236.76 340.477Z" fill="#B18056"/>
<path d="M1242.03 347.048C1242.44 348.538 1242.36 350.164 1242.59 351.693C1242.71 352.505 1242.88 353.31 1243.1 354.102C1243.3 354.801 1243.67 355.525 1243.76 356.238C1243.91 357.442 1242.73 358.645 1242.18 359.631C1241.47 360.906 1240.76 362.331 1240.6 363.801C1240.37 366.181 1236.27 364.956 1237.8 362.581C1238.54 361.443 1239.07 360.158 1239.77 358.995C1240.12 358.395 1240.5 357.814 1240.91 357.255C1241.11 356.995 1241.42 356.739 1241.57 356.442C1241.71 356.145 1241.71 356.33 1241.61 355.864C1241.24 354.365 1241.02 352.836 1240.93 351.296C1240.87 349.904 1240.85 348.304 1241.47 347.027C1241.58 346.824 1241.96 346.759 1242.03 347.027V347.048Z" fill="#A6774C"/>
<path d="M1231.42 340.873C1231.62 342.191 1231.99 343.463 1232.17 344.795C1232.33 345.99 1232.34 347.663 1232.93 348.729L1232.47 348.263C1233.93 348.765 1235.5 349.294 1236.33 350.703C1237.27 352.317 1235.21 354.014 1233.97 352.5C1233.64 352.093 1233.22 351.668 1232.99 351.205C1232.92 351.06 1232.74 350.739 1232.92 350.973C1232.75 350.782 1232.55 350.615 1232.34 350.475C1231.49 349.849 1231.16 349.184 1230.99 348.149C1230.79 346.968 1230.66 345.777 1230.58 344.582C1230.5 343.283 1230.74 342.142 1230.89 340.865C1230.9 340.803 1230.93 340.747 1230.98 340.706C1231.03 340.666 1231.09 340.644 1231.16 340.644C1231.22 340.644 1231.28 340.666 1231.33 340.706C1231.38 340.747 1231.41 340.803 1231.42 340.865L1231.42 340.873Z" fill="#A6774C"/>
<path d="M1307.69 354.504C1307.81 355.826 1307.29 357.194 1306.91 358.44C1306.5 359.798 1306.05 361.146 1305.54 362.469C1304.57 365.002 1303.35 367.43 1301.89 369.713C1300.54 371.846 1298.92 373.796 1297.08 375.515C1296.19 376.328 1295.09 376.921 1294.29 377.816C1293.92 378.183 1293.62 378.613 1293.39 379.084C1293.08 379.861 1292.87 380.341 1292.02 380.711C1291.14 381.091 1290.25 380.583 1289.84 379.79C1288.56 377.324 1292.59 375.366 1294.17 374.338C1296.35 372.952 1298.26 371.194 1299.83 369.145C1301.45 366.999 1302.7 364.575 1303.75 362.095C1304.3 360.792 1304.8 359.467 1305.25 358.127C1305.69 356.846 1305.99 355.36 1306.81 354.264C1306.87 354.19 1306.96 354.135 1307.05 354.107C1307.14 354.078 1307.24 354.077 1307.33 354.103C1307.43 354.129 1307.51 354.182 1307.57 354.254C1307.64 354.327 1307.68 354.417 1307.69 354.512V354.504Z" fill="#B18056"/>
<path d="M1304.28 343.7C1304.06 345.123 1303.71 346.515 1303.36 347.91L1302.86 350.008C1302.7 350.677 1302.29 351.612 1302.52 352.299C1302.87 353.387 1303.84 354.399 1304.38 355.401C1305.03 356.618 1305.57 357.892 1305.98 359.207C1306.47 360.689 1304.2 361.608 1303.74 360.122C1303.29 358.688 1302.72 357.295 1302.04 355.956C1301.51 354.913 1300.35 353.618 1300.93 352.388C1302.25 349.593 1302.8 346.477 1303.94 343.598C1303.96 343.557 1303.99 343.524 1304.03 343.506C1304.07 343.487 1304.12 343.483 1304.16 343.495C1304.2 343.508 1304.24 343.535 1304.26 343.573C1304.29 343.61 1304.3 343.655 1304.29 343.7H1304.28Z" fill="#A6774C"/>
<path d="M1314.99 347.307C1314.52 349.11 1313.71 350.849 1313.01 352.575C1312.34 354.248 1311.7 355.939 1311 357.6C1310.44 358.932 1309.6 360.13 1308.55 361.119L1306.55 363.073C1305.88 363.725 1305.38 364.567 1304.35 364.357C1304.18 364.329 1304.03 364.249 1303.92 364.129C1303.8 364.009 1303.73 363.854 1303.7 363.689C1303.62 362.782 1304.08 362.499 1304.72 361.975C1305.44 361.395 1306.16 360.808 1306.87 360.22C1308.11 359.204 1309.51 358.391 1310.2 356.899C1310.91 355.358 1311.57 353.792 1312.24 352.237C1312.98 350.55 1313.63 348.767 1314.57 347.185C1314.68 346.982 1315.06 347.037 1314.99 347.307H1314.99Z" fill="#A6774C"/>
<g style="mix-blend-mode:multiply" opacity="0.11">
<path d="M1290.59 377.527C1289.8 377.875 1289 378.194 1288.2 378.485C1289.1 378.393 1289.96 378.151 1290.59 377.527Z" fill="#606060"/>
</g>
<g style="mix-blend-mode:multiply" opacity="0.29">
<path d="M1259.74 334.82C1259.74 334.82 1261.58 337.351 1266.61 338.786C1266.69 333.419 1267.32 328.07 1268.74 322.901C1270.76 315.539 1274.44 308.544 1279.85 303.181C1280.09 302.941 1280.34 302.705 1280.59 302.472C1280.52 302.325 1280.46 302.177 1280.4 302.025C1280.1 301.206 1279.99 300.333 1280.07 299.466C1280.14 298.6 1280.41 297.76 1280.85 297.007C1281.72 295.521 1283.2 294.974 1284.62 294.419C1283.85 294.063 1283 293.927 1282.16 294.025C1279.52 294.34 1277.65 296.871 1277.98 299.703C1278.11 300.851 1278.61 301.926 1279.4 302.767C1276.9 304.687 1274.59 306.846 1272.5 309.213C1272.13 309.628 1271.78 310.044 1271.43 310.461C1270.49 311.608 1269.61 312.769 1268.8 313.917C1268.5 314.341 1268.21 314.768 1267.93 315.196C1266.94 316.7 1266.07 318.194 1265.29 319.646C1264.94 320.297 1264.62 320.937 1264.31 321.567C1263.32 323.599 1262.44 325.685 1261.69 327.814C1261.41 328.581 1261.17 329.302 1260.97 329.967C1260.46 331.558 1260.05 333.178 1259.74 334.82V334.82Z" fill="#606060"/>
</g>
</g>
<g clip-path="url(#clip1_257_1763)">
<path d="M256.259 448.684H153.801L179.771 225.004H229.176L256.259 448.684Z" fill="#E56228"/>
<path d="M204.002 225.004L197.43 448.684H153.801L179.771 225.004H204.002Z" fill="#D34B16"/>
<path d="M192.676 225.004L173.722 448.684H153.801L179.771 225.004H192.676Z" fill="#C43C0C"/>
<path d="M235.915 224.859L202.097 224.94L173.641 225.008L204.275 172.313C204.386 172.121 204.545 171.963 204.736 171.852C204.927 171.742 205.144 171.684 205.364 171.684H205.824C206.037 171.694 206.243 171.759 206.424 171.873C206.605 171.987 206.754 172.145 206.857 172.332L235.915 224.859Z" fill="#BF1811"/>
<path d="M205.817 171.681L202.093 224.937L173.637 225.005L204.271 172.31C204.382 172.119 204.541 171.96 204.732 171.849C204.923 171.739 205.14 171.681 205.36 171.681H205.817Z" fill="#B11711"/>
<path d="M260.214 448.684H149.035L150.021 444.605L151.004 440.525H258.618L259.417 444.605L260.214 448.684Z" fill="#E5994C"/>
<path d="M259.419 444.605H150.023L151.007 440.525H258.62L259.419 444.605Z" fill="#FFBB78"/>
<path opacity="0.11" d="M197.883 440.57L196.07 444.605V448.684H149.035L150.021 444.605L151.004 440.525H197.232L197.883 440.57Z" fill="#392613"/>
<path d="M236.144 224.681H172.798C172.081 224.681 171.5 225.264 171.5 225.984V227.231C171.5 227.95 172.081 228.533 172.798 228.533H236.144C236.861 228.533 237.442 227.95 237.442 227.231V225.984C237.442 225.264 236.861 224.681 236.144 224.681Z" fill="#E5994C"/>
<path d="M246.619 440.025H219.594L219.819 436.365L222.05 400.178H242.937L246.619 440.025Z" fill="#C43C0C"/>
<path d="M243.74 436.365H219.82L222.051 400.178H240.643L243.74 436.365Z" fill="#FFD312"/>
<path d="M221.131 257.201C222.565 257.151 223.961 257.674 225.011 258.656C226.06 259.639 226.678 261 226.729 262.44L227.271 277.948C227.275 278.059 227.234 278.168 227.158 278.25C227.082 278.332 226.977 278.38 226.865 278.384L216.253 278.758C216.141 278.762 216.033 278.721 215.951 278.645C215.87 278.569 215.822 278.463 215.818 278.351L215.298 263.483C215.242 261.873 215.825 260.307 216.919 259.129C218.013 257.951 219.528 257.258 221.131 257.201V257.201Z" fill="#FFD312"/>
<path d="M221.967 283.752C223.401 283.701 224.796 284.223 225.846 285.204C226.896 286.186 227.516 287.545 227.567 288.985L228.109 304.493C228.113 304.605 228.073 304.713 227.997 304.795C227.921 304.877 227.815 304.925 227.704 304.929L217.089 305.303C216.977 305.307 216.869 305.267 216.787 305.19C216.706 305.114 216.658 305.008 216.654 304.896L216.134 290.034C216.106 289.237 216.235 288.442 216.513 287.695C216.791 286.948 217.213 286.263 217.755 285.68C218.296 285.097 218.947 284.626 219.67 284.295C220.393 283.964 221.173 283.78 221.967 283.752V283.752Z" fill="#FFD312"/>
</g>
<path d="M236.671 137.862C236.562 137.88 236.462 137.935 236.388 138.018C236.319 138.103 236.282 138.21 236.284 138.32L233.037 142.134C232.948 142.1 232.85 142.094 232.758 142.117C232.665 142.141 232.582 142.192 232.519 142.265C232.457 142.338 232.419 142.428 232.41 142.523C232.401 142.619 232.422 142.714 232.47 142.797L229.223 146.616C229.112 146.627 229.01 146.681 228.938 146.766C228.867 146.851 228.831 146.961 228.838 147.072L225.529 150.959C225.464 150.959 225.4 150.973 225.341 151.001C225.283 151.028 225.231 151.068 225.19 151.118C225.147 151.167 225.116 151.224 225.098 151.287C225.08 151.349 225.075 151.414 225.085 151.478L221.78 155.366C221.74 155.412 221.71 155.465 221.691 155.523C221.672 155.581 221.665 155.643 221.67 155.703C221.674 155.764 221.692 155.824 221.72 155.878C221.748 155.932 221.787 155.98 221.834 156.019L232.275 164.909C232.363 164.984 232.475 165.024 232.591 165.019C232.706 165.015 232.816 164.968 232.898 164.888L265.666 133.375L295.195 104.977C295.286 104.883 295.336 104.757 295.336 104.626C295.334 104.562 295.319 104.498 295.291 104.44C295.263 104.381 295.222 104.329 295.173 104.288L278.178 89.8231C278.132 89.7833 278.079 89.753 278.021 89.7339C277.963 89.7149 277.902 89.7076 277.841 89.7123C277.78 89.7171 277.721 89.7339 277.667 89.7617C277.613 89.7895 277.565 89.8278 277.525 89.8743L266.426 102.911C266.345 102.938 266.271 102.985 266.212 103.047C266.156 103.117 266.122 103.202 266.114 103.291L262.846 107.11L262.666 106.956C262.571 106.883 262.452 106.848 262.332 106.861C262.213 106.874 262.103 106.932 262.026 107.024C261.949 107.116 261.911 107.234 261.919 107.354C261.928 107.474 261.982 107.585 262.071 107.666L262.247 107.814L236.671 137.862ZM284.01 103.715L280.869 107.371L276.031 103.254L279.17 99.5986L284.01 103.715ZM279.78 98.8967L283.004 95.1483L287.842 99.2647L284.622 103.008L279.78 98.8967ZM238.553 146.794L241.697 143.138L246.534 147.252L243.393 150.908L238.553 146.794ZM242.786 151.617L239.645 155.273L234.807 151.149L237.946 147.494L242.786 151.617ZM242.299 142.439L245.44 138.783L250.278 142.9L247.139 146.555L242.299 142.439ZM246.049 138.086L249.193 134.43L254.029 138.549L250.887 142.205L246.049 138.086ZM241.589 141.834L237.483 138.342L240.602 134.686L244.745 138.198L241.589 141.834ZM241.216 133.965L244.346 130.292C244.36 130.307 244.36 130.321 244.37 130.329L248.484 133.833L245.35 137.489L241.216 133.965ZM248.062 125.922L252.237 129.476L249.096 133.131L244.97 129.622C244.97 129.622 244.943 129.607 244.928 129.598L248.062 125.922ZM248.664 125.213L255.506 117.17L259.724 120.758L256.583 124.414L253.068 121.418C253.022 121.375 252.968 121.342 252.909 121.32C252.85 121.299 252.787 121.289 252.724 121.293C252.661 121.296 252.6 121.312 252.543 121.34C252.487 121.368 252.437 121.407 252.396 121.455C252.355 121.503 252.324 121.559 252.305 121.619C252.287 121.679 252.28 121.742 252.286 121.805C252.293 121.867 252.312 121.928 252.342 121.983C252.373 122.038 252.414 122.087 252.464 122.125L255.978 125.118L252.837 128.774L248.664 125.213ZM259.234 112.784L263.48 116.4L260.336 120.056L256.107 116.466L259.234 112.784ZM264.187 117L269.024 121.121L265.885 124.777L261.045 120.658L264.187 117ZM264.791 116.298L267.935 112.642L272.773 116.763L269.631 120.419L264.791 116.298ZM268.542 111.943L271.681 108.287L276.521 112.403L273.377 116.059L268.542 111.943ZM272.283 107.597L275.424 103.942L280.265 108.06L277.121 111.716L272.283 107.597ZM271.579 106.993L267.279 103.337L270.401 99.6814L274.72 103.354L271.579 106.993ZM274.123 95.2945L278.464 98.9917L275.322 102.647L271.008 98.9722L274.123 95.2945ZM284.72 104.312L289.923 108.743L286.435 112.096L281.583 107.953L284.72 104.312ZM285.763 112.747L282.273 116.101L277.83 112.316L280.976 108.66L285.763 112.747ZM281.603 116.751L278.113 120.105L274.082 116.671L277.225 113.015L281.603 116.751ZM277.442 120.758L273.95 124.114L270.336 121.038L273.475 117.382L277.442 120.758ZM269.792 128.118L266.59 125.389L269.731 121.733L273.285 124.755L269.792 128.118ZM269.117 128.766L265.627 132.115L262.841 129.741L265.983 126.086L269.117 128.766ZM262.135 129.147L257.302 125.021L260.448 121.365L265.283 125.484L262.135 129.147ZM261.523 129.846L258.384 133.502L253.544 129.381L256.685 125.725L261.523 129.846ZM257.775 134.204L254.633 137.859L249.798 133.743L252.937 130.087L257.775 134.204ZM258.486 134.806L260.794 136.773L257.302 140.121L255.335 138.454L258.486 134.806ZM256.634 140.774L253.144 144.13L251.599 142.809L254.738 139.154L256.634 140.774ZM252.466 144.779L248.984 148.135L247.846 147.16L250.989 143.504L252.466 144.779ZM248.306 148.785L244.823 152.131L244.092 151.512L247.236 147.857L248.306 148.785ZM244.141 152.775L240.656 156.133L240.354 155.87L243.498 152.214L244.141 152.775ZM239.978 156.777L237.568 159.102L239.754 156.584L239.978 156.777ZM232.345 163.745L227.512 159.626L230.456 156.214L235.294 160.33L232.345 163.745ZM231.058 155.504L234.195 151.849L239.023 155.975L235.884 159.631L231.058 155.504ZM230.352 154.903L226.316 151.466L229.438 147.81L233.488 151.261L230.352 154.903ZM233.159 143.424L237.237 146.896L234.098 150.552L230.037 147.096L233.159 143.424ZM233.764 142.717L236.883 139.061L240.987 142.551L237.848 146.207L233.764 142.717ZM262.953 108.428L267.221 112.06L264.082 115.715L259.831 112.096L262.953 108.428ZM263.553 107.717L266.675 104.061L270.969 107.717L267.828 111.372L263.553 107.717ZM277.932 90.8272L282.297 94.5463L279.075 98.2874L274.73 94.5926L277.932 90.8272ZM294.183 104.656L290.605 108.102L285.329 103.613L288.553 99.8667L294.183 104.656ZM264.957 132.763L261.467 136.112L259.093 134.089L262.232 130.433L264.957 132.763ZM222.787 155.609L225.711 152.18L229.742 155.609L226.803 159.021L222.787 155.609Z" fill="#BA6932"/>
<path d="M262.247 107.818L236.671 137.861C236.562 137.879 236.462 137.934 236.388 138.017C236.319 138.102 236.282 138.209 236.284 138.319L233.037 142.133C232.948 142.099 232.85 142.093 232.758 142.116C232.665 142.14 232.582 142.191 232.519 142.264C232.457 142.337 232.419 142.427 232.41 142.522C232.401 142.618 232.422 142.713 232.47 142.796L229.223 146.615C229.112 146.626 229.01 146.68 228.938 146.765C228.867 146.85 228.831 146.96 228.838 147.071L225.529 150.958C225.464 150.958 225.4 150.972 225.341 151C225.283 151.027 225.231 151.067 225.19 151.117C225.147 151.166 225.116 151.223 225.098 151.286C225.08 151.348 225.075 151.413 225.085 151.477L221.78 155.365C221.74 155.411 221.71 155.464 221.691 155.522C221.672 155.58 221.665 155.642 221.67 155.702C221.674 155.763 221.692 155.823 221.72 155.877C221.748 155.931 221.787 155.979 221.834 156.018L232.275 164.908C232.363 164.983 232.475 165.023 232.591 165.018C232.706 165.014 232.816 164.967 232.898 164.887L245.194 153.061C245.34 152.484 245.494 151.911 245.652 151.334L244.823 152.135L244.092 151.516L246.369 148.877C246.612 148.102 246.867 147.328 247.131 146.557L242.301 142.448L245.443 138.792L248.93 141.763C249.054 141.458 249.174 141.156 249.303 140.859L246.052 138.085L249.196 134.429L251.326 136.245L251.735 135.373L249.798 133.728L252.937 130.072L253.934 130.91C254.077 130.632 254.221 130.342 254.367 130.064L253.544 129.363L256.685 125.707C257.463 124.288 258.26 122.884 259.076 121.493L256.583 124.413L253.068 121.417C253.022 121.374 252.968 121.341 252.909 121.319C252.85 121.298 252.787 121.288 252.724 121.292C252.661 121.295 252.6 121.311 252.543 121.339C252.487 121.367 252.437 121.406 252.396 121.454C252.355 121.502 252.324 121.558 252.305 121.618C252.287 121.678 252.28 121.741 252.286 121.804C252.293 121.866 252.312 121.927 252.342 121.982C252.373 122.037 252.414 122.086 252.464 122.124L255.978 125.117L252.837 128.773L248.66 125.215L255.501 117.172L259.59 120.647C259.751 120.382 259.914 120.109 260.078 119.841L256.108 116.465L259.229 112.809L262.642 115.734C262.812 115.471 262.985 115.21 263.156 114.949L259.827 112.112L262.949 108.457L265.873 110.955C266.054 110.711 266.239 110.448 266.417 110.197L263.536 107.745L266.658 104.089L269.322 106.356L269.902 105.625L267.262 103.378L270.384 99.7219L272.997 101.947C273.207 101.703 273.411 101.484 273.616 101.252L270.991 99.0127L274.118 95.296L276.94 97.7015L277.603 97.041L274.723 94.5917L277.925 90.8263L281.254 93.6582C281.498 93.4486 281.724 93.2464 281.966 93.0416L278.174 89.8173C278.127 89.7774 278.074 89.7471 278.016 89.7281C277.958 89.7091 277.897 89.7017 277.836 89.7065C277.775 89.7112 277.716 89.728 277.662 89.7558C277.608 89.7836 277.56 89.8219 277.52 89.8685L266.422 102.905C266.34 102.932 266.266 102.979 266.207 103.041C266.151 103.111 266.117 103.196 266.11 103.285L262.846 107.109L262.666 106.955C262.571 106.882 262.452 106.847 262.332 106.86C262.213 106.873 262.103 106.931 262.026 107.023C261.949 107.115 261.911 107.233 261.919 107.353C261.928 107.473 261.982 107.584 262.071 107.665L262.247 107.818ZM240.656 156.132L240.354 155.869L243.498 152.213L244.146 152.771L240.656 156.132ZM237.573 159.101L239.754 156.583L239.998 156.783L237.573 159.101ZM243.393 150.914L238.553 146.793L241.697 143.137L246.534 147.251L243.393 150.914ZM239.645 155.265L234.807 151.148L237.946 147.493L242.786 151.609L239.645 155.265ZM235.894 159.62L231.058 155.504L234.195 151.848L239.023 155.974L235.894 159.62ZM227.512 159.62L230.456 156.208L235.294 160.324L232.345 163.736L227.512 159.62ZM225.711 152.172L229.742 155.608L226.803 159.02L222.787 155.608L225.711 152.172ZM229.438 147.785L233.488 151.236L230.352 154.892L226.316 151.465L229.438 147.785ZM233.159 143.398L237.237 146.871L234.098 150.527L230.037 147.071L233.159 143.398ZM236.883 139.026L240.987 142.516L237.848 146.172L233.764 142.716L236.883 139.026ZM240.605 134.639L244.748 138.151L241.604 141.807L237.497 138.314L240.605 134.639ZM244.341 130.252C244.356 130.267 244.356 130.281 244.365 130.289L248.479 133.793L245.345 137.449L241.202 133.93L244.341 130.252ZM248.058 125.885L252.232 129.438L249.091 133.094L244.97 129.621C244.97 129.621 244.943 129.606 244.928 129.597L248.058 125.885Z" fill="#BA6932"/>
<path d="M294.707 104.649L262.254 135.779C262.254 135.779 290.654 109.592 294.707 104.649Z" fill="white"/>
<path d="M206.141 172.66L207.654 173.95L279.068 90.0529L277.549 88.7637L206.141 172.66Z" fill="#885539"/>
<path d="M206.117 172.634L206.875 173.28L278.284 89.3832L277.531 88.7373L206.117 172.634Z" fill="#492B19"/>
<path d="M242.303 204.411C242.284 204.302 242.229 204.203 242.147 204.128C242.062 204.058 241.955 204.021 241.845 204.023L238.026 200.775C238.062 200.686 238.069 200.587 238.046 200.494C238.023 200.401 237.971 200.317 237.897 200.255C237.824 200.195 237.735 200.158 237.641 200.15C237.546 200.142 237.452 200.164 237.37 200.212L233.551 196.96C233.534 196.851 233.479 196.752 233.395 196.68C233.312 196.609 233.205 196.571 233.096 196.573L229.208 193.263C229.207 193.199 229.191 193.136 229.164 193.078C229.136 193.02 229.096 192.969 229.048 192.927C228.998 192.884 228.94 192.853 228.878 192.835C228.815 192.817 228.749 192.812 228.684 192.822L224.809 189.52C224.715 189.44 224.593 189.4 224.47 189.41C224.346 189.419 224.232 189.477 224.151 189.571L215.263 200.014C215.187 200.101 215.146 200.213 215.149 200.329C215.151 200.445 215.197 200.555 215.278 200.638L246.795 233.408L275.195 262.929C275.239 262.977 275.293 263.014 275.353 263.039C275.413 263.063 275.477 263.075 275.542 263.073C275.607 263.072 275.67 263.056 275.728 263.028C275.787 263 275.838 262.959 275.88 262.91L290.347 245.92C290.387 245.874 290.417 245.82 290.436 245.762C290.455 245.704 290.462 245.642 290.457 245.581C290.452 245.521 290.435 245.461 290.407 245.407C290.379 245.352 290.34 245.304 290.293 245.265L277.255 234.166C277.233 234.083 277.188 234.008 277.125 233.949C277.055 233.895 276.97 233.861 276.882 233.852L273.048 230.588L273.197 230.41C273.277 230.316 273.316 230.194 273.306 230.071C273.297 229.948 273.238 229.834 273.144 229.754C273.05 229.673 272.928 229.634 272.805 229.644C272.682 229.654 272.568 229.712 272.487 229.806L272.336 229.979L242.303 204.411ZM276.453 251.753L272.797 248.609L276.916 243.771L280.571 246.91L276.453 251.753ZM281.276 247.517L285.022 250.744L280.9 255.584L277.155 252.364L281.276 247.517ZM233.369 206.302L237.024 209.441L232.906 214.279L229.25 211.14L233.369 206.302ZM228.543 210.523L224.887 207.379L229.031 202.544L232.686 205.685L228.543 210.523ZM237.721 210.036L241.377 213.18L237.253 218.02L233.598 214.876L237.721 210.036ZM242.074 213.787L245.73 216.93L241.611 221.763L237.955 218.622L242.074 213.787ZM238.323 209.327L241.818 205.222L245.474 208.347L241.964 212.473L238.323 209.327ZM246.193 208.946L249.868 212.071C249.854 212.085 249.839 212.09 249.832 212.102L246.334 216.221L242.679 213.08L246.193 208.946ZM254.236 215.792L250.682 219.967L247.026 216.826L250.534 212.707C250.542 212.694 250.549 212.681 250.555 212.668L254.236 215.792ZM254.94 216.394L262.983 223.24L259.397 227.464L255.742 224.325L258.737 220.808C258.777 220.762 258.807 220.708 258.826 220.65C258.845 220.592 258.853 220.53 258.848 220.47C258.843 220.409 258.826 220.349 258.799 220.295C258.771 220.24 258.732 220.192 258.686 220.152C258.64 220.112 258.586 220.082 258.528 220.063C258.47 220.044 258.409 220.037 258.348 220.042C258.287 220.047 258.228 220.064 258.174 220.092C258.12 220.12 258.072 220.159 258.033 220.206L255.037 223.718L251.382 220.574L254.94 216.394ZM267.369 226.962L263.753 231.21L260.097 228.068L263.699 223.85L267.369 226.962ZM263.151 231.921L259.034 236.767L255.379 233.623L259.495 228.78L263.151 231.921ZM263.857 232.528L267.513 235.665L263.394 240.508L259.739 237.364L263.857 232.528ZM268.21 236.279L271.866 239.418L267.747 244.261L264.091 241.122L268.21 236.279ZM272.563 240.027L276.219 243.171L272.1 248.009L268.444 244.868L272.563 240.027ZM273.167 239.316L276.823 235.022L280.491 238.144L276.813 242.46L273.167 239.316ZM284.866 241.867L281.169 246.206L277.513 243.067L281.191 238.745L284.866 241.867ZM275.848 252.464L271.42 257.668L268.066 254.18L272.21 249.323L275.848 252.464ZM267.418 253.51L264.06 250.015L267.847 245.574L271.503 248.718L267.418 253.51ZM263.414 249.345L260.06 245.857L263.489 241.824L267.145 244.968L263.414 249.345ZM259.412 245.184L256.056 241.69L259.137 238.075L262.792 241.217L259.412 245.184ZM252.054 237.534L254.777 234.329L258.432 237.471L255.413 241.017L252.054 237.534ZM251.406 236.859L248.04 233.367L250.417 230.574L254.072 233.718L251.406 236.859ZM251.028 229.874L255.145 225.034L258.8 228.18L254.682 233.013L251.028 229.874ZM250.324 229.27L246.668 226.131L250.785 221.286L254.44 224.43L250.324 229.27ZM245.969 225.517L242.313 222.378L246.434 217.54L250.09 220.681L245.969 225.517ZM245.359 226.223L243.41 228.534L240.044 225.044L241.716 223.094L245.359 226.223ZM239.391 224.369L236.035 220.886L237.356 219.336L241.012 222.475L239.391 224.369ZM235.391 220.208L232.031 216.718L233.006 215.583L236.661 218.727L235.391 220.208ZM231.395 216.051L228.036 212.566L228.653 211.834L232.308 214.978L231.395 216.051ZM227.39 211.89L224.034 208.405L224.293 208.093L227.948 211.24L227.39 211.89ZM223.386 207.73L221.063 205.313L223.588 207.491L223.386 207.73ZM216.418 200.087L220.535 195.25L223.947 198.191L219.83 203.029L216.418 200.087ZM224.661 198.798L228.316 201.937L224.195 206.789L220.539 203.648L224.661 198.798ZM225.265 198.091L228.699 194.053L232.367 197.177L228.916 201.23L225.265 198.091ZM236.742 200.899L233.266 204.979L229.611 201.837L233.074 197.772L236.742 200.899ZM237.446 201.501L241.116 204.623L237.621 208.739L233.966 205.598L237.446 201.501ZM271.739 230.693L268.105 234.963L264.45 231.819L268.069 227.571L271.739 230.693ZM272.451 231.298L276.107 234.417L272.451 238.706L268.795 235.57L272.451 231.298ZM289.34 245.677L285.621 250.044L281.878 246.817L285.573 242.467L289.34 245.677ZM275.512 261.923L272.066 258.345L276.555 253.064L280.299 256.288L275.512 261.923ZM247.402 232.694L244.046 229.211L246.066 226.838L249.722 229.981L247.402 232.694ZM224.556 190.531L227.99 193.456L224.561 197.487L221.149 194.543L224.556 190.531Z" fill="#C27753"/>
<path d="M272.344 229.979L242.303 204.411C242.284 204.302 242.229 204.203 242.147 204.128C242.062 204.058 241.955 204.021 241.845 204.023L238.026 200.775C238.062 200.686 238.069 200.587 238.046 200.494C238.023 200.401 237.971 200.317 237.897 200.255C237.824 200.195 237.735 200.158 237.641 200.15C237.546 200.142 237.452 200.164 237.37 200.212L233.551 196.96C233.534 196.851 233.479 196.752 233.395 196.68C233.312 196.609 233.205 196.571 233.096 196.573L229.208 193.263C229.207 193.199 229.191 193.136 229.164 193.078C229.136 193.02 229.096 192.969 229.048 192.927C228.998 192.884 228.94 192.853 228.878 192.835C228.815 192.817 228.749 192.812 228.684 192.822L224.809 189.52C224.715 189.44 224.593 189.4 224.47 189.41C224.346 189.419 224.232 189.477 224.151 189.571L215.263 200.014C215.187 200.101 215.146 200.213 215.149 200.329C215.151 200.445 215.197 200.555 215.278 200.638L227.108 212.936C227.685 213.077 228.26 213.236 228.836 213.389L228.036 212.561L228.653 211.83L231.292 214.106C232.072 214.35 232.84 214.593 233.61 214.866L237.726 210.031L241.382 213.175L238.411 216.665C238.708 216.784 239.011 216.909 239.31 217.033L242.081 213.782L245.737 216.926L243.919 219.056C244.212 219.195 244.502 219.329 244.789 219.468L246.439 217.518L250.095 220.659L249.249 221.654C249.532 221.797 249.819 221.941 250.097 222.09L250.799 221.264L254.455 224.408C255.873 225.188 257.279 225.985 258.671 226.801L255.744 224.337L258.739 220.82C258.779 220.774 258.81 220.72 258.829 220.662C258.848 220.604 258.855 220.543 258.85 220.482C258.846 220.421 258.829 220.361 258.801 220.307C258.773 220.253 258.735 220.204 258.688 220.165C258.642 220.125 258.589 220.094 258.53 220.075C258.472 220.056 258.411 220.049 258.35 220.054C258.29 220.059 258.23 220.076 258.176 220.104C258.122 220.132 258.074 220.171 258.035 220.218L255.04 223.73L251.384 220.586L254.94 216.409L262.983 223.255L259.505 227.342C259.773 227.505 260.038 227.664 260.314 227.829L263.699 223.85L267.355 226.967L264.442 230.393C264.703 230.564 264.966 230.732 265.227 230.905L268.064 227.574L271.72 230.696L269.244 233.632L270.002 234.173L272.453 231.298L276.109 234.417L273.84 237.076L274.571 237.659L276.816 235.017L280.484 238.139L278.261 240.756C278.49 240.961 278.724 241.163 278.961 241.37L281.195 238.741L284.851 241.863L282.448 244.687L283.106 245.343L285.558 242.467L289.323 245.669L286.486 248.994C286.696 249.237 286.901 249.481 287.103 249.71L290.33 245.92C290.37 245.874 290.4 245.82 290.419 245.762C290.438 245.704 290.445 245.642 290.44 245.581C290.435 245.521 290.418 245.461 290.39 245.407C290.362 245.353 290.323 245.304 290.276 245.265L277.237 234.166C277.216 234.083 277.171 234.008 277.108 233.949C277.037 233.895 276.953 233.861 276.865 233.852L273.031 230.588L273.18 230.41C273.26 230.316 273.299 230.194 273.289 230.071C273.28 229.948 273.221 229.834 273.127 229.754C273.033 229.673 272.911 229.634 272.788 229.644C272.665 229.654 272.551 229.712 272.47 229.806L272.344 229.979ZM224.034 208.4L224.293 208.089L227.948 211.235L227.398 211.886L224.034 208.4ZM221.063 205.308L223.588 207.487L223.386 207.73L221.063 205.308ZM229.25 211.13L233.369 206.302L237.024 209.441L232.906 214.279L229.25 211.13ZM224.9 207.379L229.031 202.544L232.686 205.685L228.543 210.523L224.9 207.379ZM220.542 203.636L224.661 198.798L228.316 201.937L224.195 206.789L220.542 203.636ZM220.542 195.25L223.954 198.191L219.838 203.029L216.426 200.087L220.542 195.25ZM227.997 193.451L224.568 197.482L221.156 194.538L224.568 190.526L227.997 193.451ZM232.384 197.177L228.933 201.23L225.277 198.091L228.711 194.053L232.384 197.177ZM236.759 200.899L233.283 204.979L229.628 201.837L233.074 197.772L236.759 200.899ZM241.146 204.623L237.621 208.739L233.966 205.598L237.441 201.513L241.146 204.623ZM245.518 208.349L242.008 212.475L238.353 209.329L241.848 205.225L245.518 208.349ZM249.905 212.073C249.89 212.088 249.876 212.093 249.868 212.105L246.334 216.221L242.679 213.08L246.193 208.949L249.905 212.073ZM254.243 215.807L250.69 219.982L247.034 216.84L250.541 212.722C250.549 212.709 250.556 212.696 250.563 212.683L254.243 215.807Z" fill="#C27753"/>
<path d="M275.513 262.448L244.383 229.99C244.383 229.99 270.57 258.39 275.513 262.448Z" fill="white"/>
<path d="M207.508 173.879L206.219 175.397L290.111 246.808L291.402 245.292L207.508 173.879Z" fill="#885539"/>
<path d="M207.526 173.856L206.883 174.612L290.777 246.026L291.423 245.268L207.526 173.856Z" fill="#492B19"/>
<path d="M175.656 210.2C175.765 210.186 175.866 210.132 175.939 210.048C176.011 209.965 176.05 209.857 176.048 209.747L179.311 205.937C179.401 205.972 179.499 205.978 179.592 205.955C179.685 205.931 179.769 205.879 179.831 205.806C179.893 205.733 179.93 205.643 179.939 205.549C179.947 205.454 179.925 205.359 179.877 205.277L183.123 201.46C183.233 201.446 183.334 201.391 183.406 201.307C183.477 201.222 183.515 201.115 183.513 201.004L186.82 197.12C186.886 197.118 186.95 197.103 187.009 197.074C187.068 197.045 187.12 197.004 187.161 196.954C187.202 196.904 187.233 196.846 187.25 196.784C187.268 196.722 187.272 196.657 187.264 196.593L190.566 192.713C190.606 192.667 190.637 192.614 190.656 192.556C190.675 192.498 190.683 192.437 190.678 192.376C190.673 192.315 190.656 192.256 190.628 192.202C190.6 192.147 190.562 192.099 190.515 192.06L180.06 183.172C179.973 183.096 179.861 183.056 179.746 183.059C179.63 183.062 179.521 183.108 179.438 183.189L146.668 214.709L117.144 243.101C117.097 243.146 117.06 243.2 117.035 243.26C117.01 243.32 116.998 243.385 117 243.449C117.002 243.514 117.018 243.578 117.046 243.637C117.074 243.695 117.114 243.747 117.164 243.789L134.151 258.253C134.245 258.333 134.367 258.373 134.49 258.364C134.613 258.354 134.728 258.297 134.809 258.204L145.905 245.166C145.99 245.14 146.065 245.092 146.125 245.027C146.18 244.961 146.215 244.881 146.225 244.795L149.49 240.962L149.668 241.11C149.714 241.153 149.768 241.185 149.827 241.206C149.886 241.227 149.949 241.236 150.011 241.232C150.073 241.228 150.134 241.212 150.19 241.184C150.246 241.156 150.296 241.117 150.336 241.069C150.376 241.021 150.407 240.966 150.425 240.906C150.443 240.846 150.449 240.783 150.443 240.721C150.436 240.659 150.417 240.599 150.387 240.544C150.356 240.49 150.315 240.442 150.265 240.403L150.09 240.25L175.656 210.2ZM128.321 244.359L131.468 240.703L136.305 244.822L133.164 248.478L128.321 244.359ZM132.557 249.194L129.33 252.943L124.49 248.826L127.719 245.078L132.557 249.194ZM173.781 201.28L170.64 204.936L165.802 200.819L168.944 197.163L173.781 201.28ZM169.563 196.457L172.704 192.801L177.544 196.92L174.401 200.575L169.563 196.457ZM170.05 205.633L166.911 209.288L162.071 205.17L165.215 201.514L170.05 205.633ZM166.304 209.99L163.16 213.646L158.306 209.517L161.449 205.862L166.304 209.99ZM170.762 206.237L174.864 209.732L171.744 213.388L167.613 209.888L170.762 206.237ZM171.142 214.109L167.998 217.779C167.984 217.779 167.981 217.755 167.969 217.745L163.853 214.241L166.992 210.585L171.142 214.109ZM164.296 222.152L160.121 218.596L163.265 214.94L167.384 218.45C167.384 218.45 167.411 218.45 167.423 218.469L164.296 222.152ZM163.694 222.856L156.848 230.899L152.622 227.304L155.766 223.648L159.285 226.638C159.331 226.679 159.385 226.709 159.443 226.729C159.501 226.748 159.563 226.755 159.624 226.75C159.685 226.746 159.744 226.729 159.799 226.701C159.853 226.673 159.902 226.634 159.941 226.587C160.02 226.494 160.059 226.372 160.05 226.25C160.04 226.128 159.983 226.014 159.89 225.934L156.373 222.941L159.514 219.286L163.694 222.856ZM153.127 235.285L148.876 231.671L152.023 228.015L156.244 231.608L153.127 235.285ZM148.172 231.067L143.334 226.95L146.473 223.295L151.313 227.413L148.172 231.067ZM147.565 231.774L144.419 235.429L139.583 231.31L142.725 227.655L147.565 231.774ZM143.817 236.129L140.675 239.784L135.837 235.663L138.974 232.007L143.817 236.129ZM140.068 240.481L136.905 244.125L132.062 240.004L135.206 236.348L140.068 240.481ZM140.775 241.083L145.074 244.739L141.952 248.395L137.636 244.72L140.775 241.083ZM138.226 252.782L133.888 249.087L137.029 245.431L141.348 249.107L138.226 252.782ZM127.634 243.764L122.428 239.334L125.918 235.98L130.773 240.123L127.634 243.764ZM126.591 235.329L130.074 231.973L134.521 235.756L131.38 239.412L126.591 235.329ZM130.749 231.328L134.224 227.967L138.25 231.403L135.111 235.059L130.749 231.328ZM134.909 227.328L138.399 223.972L142.018 227.048L138.877 230.704L134.909 227.328ZM142.562 219.968L145.764 222.695L142.622 226.351L139.076 223.324L142.562 219.968ZM143.237 219.32L146.727 215.966L149.515 218.34L146.373 221.996L143.237 219.32ZM150.222 218.939L155.059 223.061L151.92 226.716L147.08 222.603L150.222 218.939ZM150.828 218.24L153.967 214.584L158.808 218.698L155.666 222.354L150.828 218.24ZM154.577 213.882L157.723 210.227L162.539 214.343L159.397 217.999L154.577 213.882ZM153.867 213.283L151.528 211.306L155.02 207.953L156.97 209.625L153.867 213.283ZM155.72 207.314L159.207 203.958L160.757 205.274L157.613 208.93L155.72 207.314ZM159.882 203.31L163.37 199.952L164.506 200.926L161.362 204.582L159.882 203.31ZM164.043 199.306L167.533 195.952L168.252 196.564L165.113 200.22L164.043 199.306ZM168.205 195.306L171.695 191.948L172.002 192.211L168.856 195.867L168.205 195.306ZM172.363 191.305L174.781 188.98L172.607 191.504L172.363 191.305ZM180.001 184.334L184.841 188.456L181.9 191.868L177.062 187.749L180.001 184.334ZM181.295 192.579L178.151 196.235L173.316 192.116L176.455 188.46L181.295 192.579ZM182.002 193.179L186.038 196.615L182.914 200.271L178.863 196.82L182.002 193.179ZM179.192 204.66L175.093 201.182L178.237 197.527L182.294 200.985L179.192 204.66ZM178.58 205.357L175.458 209.013L171.357 205.523L174.496 201.867L178.58 205.357ZM149.383 239.648L145.113 236.014L148.257 232.358L152.503 235.982L149.383 239.648ZM148.779 240.357L145.657 244.013L141.365 240.357L144.506 236.701L148.779 240.357ZM134.399 257.249L130.037 253.53L133.266 249.784L137.609 253.484L134.399 257.249ZM118.156 243.418L121.738 239.972L127.01 244.461L123.788 248.219L118.156 243.418ZM147.385 215.318L150.872 211.964L153.248 213.99L150.107 217.645L147.385 215.318ZM189.547 192.472L186.623 195.911L182.592 192.477L185.531 189.065L189.547 192.472Z" fill="#C27753"/>
<path d="M150.091 240.252L175.657 210.2C175.767 210.186 175.867 210.132 175.94 210.048C176.012 209.965 176.051 209.857 176.049 209.747L179.313 205.937C179.402 205.972 179.5 205.978 179.593 205.955C179.686 205.931 179.77 205.879 179.832 205.806C179.894 205.733 179.932 205.643 179.94 205.549C179.948 205.454 179.927 205.359 179.878 205.277L183.124 201.46C183.234 201.446 183.335 201.391 183.407 201.307C183.478 201.222 183.516 201.115 183.514 201.004L186.821 197.12C186.887 197.118 186.951 197.103 187.01 197.074C187.069 197.045 187.121 197.004 187.163 196.954C187.204 196.904 187.234 196.846 187.251 196.784C187.269 196.722 187.274 196.657 187.265 196.593L190.567 192.713C190.608 192.667 190.638 192.614 190.657 192.556C190.677 192.498 190.684 192.437 190.679 192.376C190.674 192.315 190.658 192.256 190.63 192.202C190.602 192.147 190.563 192.099 190.516 192.06L180.061 183.172C179.974 183.096 179.862 183.056 179.747 183.059C179.632 183.062 179.522 183.108 179.439 183.189L167.139 195.016C166.998 195.594 166.844 196.167 166.686 196.744L167.517 195.945L168.236 196.557L165.962 199.203C165.718 199.976 165.474 200.751 165.201 201.521L170.034 205.633L166.895 209.288L163.4 206.32C163.281 206.62 163.157 206.924 163.032 207.226L166.288 209.995L163.144 213.651L161.012 211.835L160.6 212.71L162.55 214.355L159.408 218.011L158.416 217.163C158.273 217.448 158.124 217.736 157.978 218.016L158.801 218.713L155.66 222.369C154.883 223.782 154.086 225.187 153.267 226.582L155.765 223.682L159.284 226.673C159.33 226.713 159.384 226.743 159.442 226.763C159.5 226.782 159.562 226.789 159.623 226.785C159.684 226.78 159.743 226.763 159.798 226.735C159.852 226.707 159.9 226.668 159.94 226.621C160.019 226.528 160.058 226.407 160.048 226.284C160.039 226.162 159.981 226.048 159.888 225.968L156.372 222.975L159.513 219.32L163.693 222.873L156.847 230.916L152.748 227.418L152.26 228.235L156.228 231.608L153.111 235.278L149.682 232.366C149.518 232.627 149.345 232.892 149.177 233.148L152.504 235.982L149.387 239.638L146.445 237.138C146.267 237.381 146.084 237.645 145.904 237.896L148.782 240.347L145.66 244.003L142.999 241.759C142.809 242.002 142.614 242.246 142.421 242.49L145.061 244.739L141.939 248.395L139.324 246.165L138.707 246.86L141.334 249.099L138.212 252.767L135.395 250.364L134.73 251.022L137.613 253.476L134.403 257.242L131.081 254.417C130.838 254.622 130.594 254.829 130.367 255.031L134.152 258.256C134.246 258.336 134.368 258.375 134.491 258.366C134.614 258.357 134.729 258.3 134.81 258.207L145.906 245.168C145.991 245.143 146.067 245.094 146.126 245.029C146.181 244.963 146.216 244.883 146.226 244.798L149.492 240.964L149.669 241.113C149.715 241.155 149.769 241.188 149.828 241.209C149.887 241.23 149.95 241.238 150.012 241.235C150.075 241.231 150.136 241.214 150.191 241.186C150.247 241.158 150.297 241.119 150.337 241.071C150.378 241.023 150.408 240.968 150.426 240.908C150.444 240.849 150.451 240.786 150.444 240.723C150.437 240.661 150.418 240.601 150.388 240.547C150.357 240.492 150.316 240.444 150.267 240.406L150.091 240.252ZM171.679 191.941L171.987 192.204L168.84 195.86L168.189 195.304L171.679 191.941ZM174.765 188.972L172.591 191.497L172.347 191.297L174.765 188.972ZM168.945 197.163L173.783 201.28L170.641 204.936L165.803 200.819L168.945 197.163ZM172.693 192.806L177.533 196.925L174.39 200.58L169.564 196.457L172.693 192.806ZM176.439 188.453L181.279 192.572L178.135 196.228L173.3 192.109L176.439 188.453ZM184.825 188.453L181.884 191.865L177.046 187.746L179.985 184.334L184.825 188.453ZM186.624 195.901L182.593 192.467L185.532 189.055L189.549 192.467L186.624 195.901ZM182.898 200.273L178.847 196.822L181.986 193.167L186.022 196.603L182.898 200.273ZM179.176 204.66L175.094 201.182L178.238 197.527L182.296 200.985L179.176 204.66ZM175.452 209.032L171.35 205.542L174.489 201.887L178.581 205.357L175.452 209.032ZM171.728 213.419L167.614 209.888L170.758 206.232L174.86 209.727L171.728 213.419ZM167.999 217.806C167.985 217.806 167.982 217.782 167.97 217.772L163.854 214.267L166.993 210.612L171.136 214.129L167.999 217.806ZM164.28 222.142L160.105 218.586L163.249 214.93L167.368 218.44C167.368 218.44 167.395 218.44 167.407 218.459L164.28 222.142Z" fill="#BA6932"/>
<path d="M117.629 243.43L150.082 212.295C150.082 212.295 121.684 238.485 117.629 243.43Z" fill="white"/>
<path d="M206.195 175.417L204.679 174.125L133.266 258.027L134.784 259.311L206.195 175.417Z" fill="#885539"/>
<path d="M205.408 174.736L134.09 258.713L134.851 259.36L206.17 175.383L205.408 174.736Z" fill="#492B19"/>
<path d="M170.029 143.667C170.049 143.774 170.104 143.872 170.184 143.945C170.268 144.016 170.375 144.055 170.484 144.052L174.308 147.306C174.274 147.393 174.268 147.488 174.29 147.579C174.313 147.669 174.364 147.75 174.435 147.81C174.507 147.873 174.598 147.911 174.693 147.919C174.788 147.928 174.884 147.906 174.966 147.857L178.785 151.105C178.8 151.214 178.854 151.314 178.938 151.385C179.022 151.456 179.129 151.494 179.239 151.491L183.126 154.805C183.127 154.869 183.143 154.931 183.17 154.988C183.198 155.045 183.238 155.096 183.287 155.137C183.336 155.179 183.393 155.211 183.455 155.23C183.517 155.249 183.583 155.254 183.647 155.246L187.527 158.549C187.621 158.628 187.743 158.667 187.866 158.658C187.988 158.648 188.102 158.59 188.183 158.497L197.071 148.054C197.146 147.966 197.186 147.854 197.183 147.739C197.18 147.624 197.134 147.514 197.054 147.43L165.534 114.665L137.146 85.1438C137.1 85.0976 137.046 85.0611 136.985 85.0364C136.925 85.0117 136.861 84.9993 136.795 85C136.73 85.0031 136.667 85.0196 136.608 85.0486C136.55 85.0775 136.498 85.1182 136.457 85.1682L121.992 102.158C121.913 102.252 121.874 102.374 121.885 102.497C121.895 102.62 121.954 102.734 122.048 102.813L135.075 113.91C135.099 113.993 135.147 114.068 135.211 114.126C135.281 114.183 135.366 114.217 135.455 114.224L139.294 117.492L139.14 117.665C139.097 117.711 139.064 117.765 139.042 117.824C139.02 117.884 139.011 117.946 139.014 118.009C139.018 118.072 139.034 118.134 139.062 118.19C139.09 118.247 139.129 118.297 139.177 118.338C139.225 118.379 139.28 118.409 139.34 118.428C139.4 118.447 139.464 118.453 139.526 118.447C139.589 118.441 139.65 118.422 139.705 118.391C139.76 118.361 139.808 118.319 139.847 118.27L140 118.094L170.029 143.667ZM135.884 96.3255L139.54 99.4694L135.421 104.305L131.765 101.163L135.884 96.3255ZM131.054 100.556L127.308 97.3345L131.431 92.487L135.18 95.7113L131.054 100.556ZM178.963 141.783L175.307 138.644L179.424 133.802L183.079 136.946L178.963 141.783ZM183.784 137.552L187.44 140.694L183.323 145.532L179.667 142.39L183.784 137.552ZM174.608 138.04L170.952 134.896L175.071 130.063L178.727 133.2L174.608 138.04ZM170.255 134.294L166.599 131.152L170.716 126.312L174.372 129.454L170.255 134.294ZM174.006 138.752L170.511 142.851L166.841 139.726L170.358 135.6L174.006 138.752ZM166.134 139.129L162.459 136.002L162.5 135.976L166 131.859L169.656 134.998L166.134 139.129ZM158.091 132.286L161.647 128.106L165.303 131.252L161.793 135.371C161.786 135.384 161.779 135.398 161.774 135.413L158.091 132.286ZM157.375 131.676L149.332 124.835L152.939 120.612L156.595 123.753L153.597 127.273C153.557 127.319 153.527 127.372 153.509 127.43C153.49 127.488 153.483 127.55 153.488 127.61C153.493 127.671 153.51 127.73 153.538 127.784C153.566 127.838 153.604 127.887 153.651 127.926C153.745 128.006 153.867 128.045 153.99 128.036C154.114 128.026 154.228 127.968 154.309 127.874L157.297 124.358L160.953 127.502L157.375 131.676ZM144.96 121.109L148.582 116.859L152.237 120.002L148.64 124.224L144.96 121.109ZM149.176 116.154L153.295 111.316L156.951 114.458L152.834 119.296L149.176 116.154ZM148.472 115.55L144.816 112.406L148.932 107.568L152.588 110.71L148.472 115.55ZM144.119 111.799L140.463 108.658L144.575 103.82L148.231 106.961L144.119 111.799ZM139.761 108.053L136.106 104.914L140.227 100.074L143.883 103.215L139.761 108.053ZM139.159 108.76L135.504 113.059L131.843 109.937L135.518 105.623L139.159 108.76ZM127.461 106.211L131.156 101.868L134.812 105.009L131.134 109.333L127.461 106.211ZM136.479 95.6187L140.912 90.4154L144.268 93.9005L140.125 98.7578L136.479 95.6187ZM144.916 94.5756L148.265 98.0607L144.482 102.511L140.827 99.3671L144.916 94.5756ZM148.918 98.7358L152.274 102.236L148.845 106.254L145.189 103.113L148.918 98.7358ZM152.917 102.899L156.278 106.379L153.202 109.995L149.547 106.852L152.917 102.899ZM160.28 110.546L157.553 113.751L153.897 110.61L156.921 107.059L160.28 110.546ZM160.923 111.219L164.282 114.709L161.905 117.497L158.25 114.358L160.923 111.219ZM161.301 118.206L157.185 123.046L153.529 119.905L157.645 115.065L161.301 118.206ZM162.005 118.808L165.661 121.947L161.545 126.785L157.889 123.646L162.005 118.808ZM166.365 122.552L170.021 125.691L165.905 130.538L162.249 127.397L166.365 122.552ZM166.97 121.845L168.92 119.535L172.28 123.025L170.609 124.974L166.97 121.845ZM172.934 123.697L176.287 127.185L174.971 128.737L171.315 125.591L172.934 123.697ZM176.938 127.857L180.284 131.355L179.324 132.493L175.668 129.347L176.938 127.857ZM180.942 132.02L184.293 135.508L183.677 136.239L180.021 133.1L180.942 132.02ZM184.944 136.185L188.297 139.673L188.034 139.98L184.378 136.838L184.944 136.185ZM188.946 140.343L191.271 142.758L188.743 140.584L188.946 140.343ZM195.909 147.981L191.792 152.819L188.38 149.88L192.499 145.039L195.909 147.981ZM187.671 149.273L184.015 146.131L188.129 141.296L191.785 144.437L187.671 149.273ZM187.069 149.982L183.635 154.018L179.979 150.896L183.416 146.836L187.069 149.982ZM175.593 147.177L179.065 143.102L182.721 146.238L179.26 150.299L175.593 147.177ZM174.883 146.575L171.215 143.45L174.71 139.349L178.366 142.495L174.883 146.575ZM140.59 117.385L144.226 113.115L147.882 116.257L144.258 120.514L140.59 117.385ZM139.886 116.783L136.218 113.661L139.874 109.369L143.529 112.508L139.886 116.783ZM122.996 102.404L126.708 98.0339L130.456 101.261L126.759 105.604L122.996 102.404ZM136.827 86.1504L140.266 89.733L135.782 95.0046L132.028 91.7875L136.827 86.1504ZM164.93 115.382L168.286 118.867L166.261 121.245L162.605 118.104L164.93 115.382ZM187.776 157.544L184.339 154.62L187.771 150.591L191.183 153.53L187.776 157.544Z" fill="#C27753"/>
<path d="M139.99 118.095L170.028 143.668C170.049 143.775 170.103 143.872 170.184 143.946C170.267 144.017 170.374 144.055 170.484 144.053L174.308 147.307C174.273 147.394 174.267 147.489 174.29 147.579C174.313 147.67 174.363 147.751 174.434 147.811C174.507 147.874 174.597 147.912 174.693 147.92C174.788 147.929 174.883 147.907 174.966 147.858L178.785 151.106C178.799 151.215 178.854 151.315 178.937 151.386C179.021 151.457 179.128 151.495 179.238 151.491L183.125 154.806C183.127 154.869 183.142 154.932 183.17 154.989C183.198 155.046 183.237 155.097 183.286 155.137C183.335 155.18 183.393 155.212 183.455 155.231C183.517 155.25 183.582 155.255 183.647 155.247L187.527 158.549C187.621 158.629 187.742 158.668 187.865 158.658C187.988 158.649 188.102 158.591 188.182 158.498L197.071 148.055C197.146 147.967 197.185 147.855 197.182 147.74C197.179 147.624 197.133 147.514 197.054 147.431L185.226 135.138C184.648 134.992 184.072 134.841 183.498 134.685L184.295 135.511L183.679 136.242L181.037 133.963C180.264 133.72 179.494 133.476 178.724 133.21L174.607 138.038L170.952 134.894L173.92 131.409L173.016 131.036L170.247 134.292L166.592 131.151L168.405 129.016L167.532 128.606L165.904 130.539L162.249 127.398L163.087 126.406C162.809 126.259 162.526 126.118 162.244 125.969L161.547 126.793L157.891 123.654C156.477 122.878 155.072 122.081 153.675 121.263L156.58 123.761L153.582 127.281C153.542 127.327 153.512 127.381 153.493 127.439C153.475 127.497 153.467 127.558 153.472 127.618C153.477 127.679 153.494 127.738 153.522 127.792C153.55 127.847 153.589 127.895 153.636 127.934C153.73 128.014 153.852 128.054 153.975 128.044C154.099 128.034 154.213 127.976 154.294 127.883L157.282 124.366L160.937 127.51L157.374 131.677L149.332 124.836L152.822 120.759L152.013 120.271L148.635 124.234L144.979 121.115L147.904 117.703C147.643 117.532 147.382 117.361 147.124 117.188L144.258 120.515L140.59 117.396L143.095 114.456L142.335 113.913L139.885 116.794L136.217 113.672L138.481 111.005C138.238 110.82 137.994 110.625 137.75 110.428L135.506 113.07L131.843 109.938L134.063 107.32L133.371 106.701L131.136 109.333L127.466 106.211L129.873 103.392C129.649 103.172 129.423 102.951 129.208 102.731L126.759 105.612L122.996 102.409L125.823 99.0827C125.618 98.839 125.413 98.6099 125.216 98.3662L121.984 102.158C121.905 102.253 121.866 102.375 121.877 102.498C121.887 102.621 121.946 102.734 122.04 102.814L135.074 113.91C135.099 113.994 135.146 114.069 135.211 114.127C135.28 114.184 135.365 114.218 135.455 114.225L139.293 117.493L139.139 117.666C139.096 117.712 139.063 117.766 139.041 117.825C139.02 117.884 139.01 117.947 139.014 118.01C139.017 118.073 139.033 118.135 139.061 118.191C139.089 118.247 139.128 118.298 139.176 118.339C139.224 118.38 139.28 118.41 139.34 118.429C139.4 118.448 139.463 118.454 139.526 118.448C139.588 118.442 139.649 118.423 139.704 118.392C139.759 118.362 139.808 118.32 139.846 118.27L139.99 118.095ZM188.299 139.681L188.036 139.988L184.38 136.846L184.941 136.193L188.299 139.681ZM191.273 142.766L188.745 140.592L188.948 140.349L191.273 142.766ZM183.081 136.946L178.963 141.784L175.307 138.645L179.423 133.802L183.081 136.946ZM187.432 140.695L183.315 145.532L179.66 142.391L183.778 137.553L187.432 140.695ZM191.787 144.443L187.671 149.274L184.015 146.132L188.129 141.297L191.787 144.443ZM191.787 152.827L188.375 149.888L192.494 145.048L195.906 147.989L191.787 152.827ZM184.341 154.635L187.773 150.607L191.185 153.546L187.773 157.56L184.341 154.635ZM179.967 150.902L183.415 146.836L187.071 149.98L183.637 154.016L179.967 150.902ZM175.58 147.178L179.065 143.103L182.721 146.239L179.26 150.3L175.58 147.178ZM171.193 143.451L174.688 139.349L178.344 142.496L174.871 146.576L171.193 143.451ZM166.818 139.727L170.335 135.601L173.991 138.747L170.511 142.852L166.818 139.727ZM162.431 135.998L162.473 135.972L165.973 131.855L169.628 134.994L166.111 139.125L162.431 135.998ZM158.064 132.282L161.62 128.102L165.276 131.248L161.766 135.367C161.759 135.38 161.752 135.394 161.747 135.409L158.064 132.282Z" fill="#C27753"/>
<path d="M136.816 85.6309L167.951 118.077C167.951 118.077 141.761 89.6863 136.816 85.6309Z" fill="white"/>
<path d="M204.828 174.199L206.12 172.683L122.223 101.267L120.934 102.78L204.828 174.199Z" fill="#885539"/>
<path d="M204.808 174.223L205.451 173.463L121.557 102.047L120.906 102.807L204.808 174.223Z" fill="#492B19"/>
<path d="M203.023 174.045C203.025 174.667 203.212 175.274 203.558 175.79C203.905 176.306 204.397 176.707 204.972 176.943C205.547 177.18 206.179 177.24 206.788 177.118C207.398 176.995 207.957 176.694 208.396 176.253C208.834 175.813 209.132 175.252 209.252 174.642C209.372 174.032 209.309 173.401 209.07 172.827C208.831 172.253 208.427 171.763 207.909 171.418C207.392 171.074 206.784 170.891 206.163 170.892C205.749 170.893 205.34 170.975 204.959 171.134C204.578 171.293 204.231 171.525 203.94 171.818C203.648 172.111 203.417 172.459 203.26 172.841C203.103 173.223 203.022 173.632 203.023 174.045Z" fill="#492B19"/>
<path d="M203.805 174.032C203.806 174.5 203.946 174.956 204.207 175.344C204.468 175.732 204.838 176.034 205.27 176.212C205.703 176.389 206.178 176.435 206.636 176.343C207.094 176.25 207.515 176.024 207.845 175.692C208.174 175.361 208.398 174.939 208.488 174.481C208.579 174.022 208.531 173.547 208.351 173.115C208.171 172.684 207.867 172.316 207.478 172.057C207.089 171.798 206.631 171.66 206.164 171.661C205.853 171.662 205.546 171.724 205.259 171.843C204.972 171.963 204.712 172.138 204.493 172.358C204.274 172.578 204.1 172.839 203.982 173.127C203.864 173.414 203.804 173.722 203.805 174.032V174.032Z" fill="#885539"/>
<g style="mix-blend-mode:multiply">
<path d="M203.621 174.045C203.622 174.549 203.772 175.041 204.053 175.459C204.334 175.878 204.732 176.203 205.198 176.395C205.664 176.587 206.177 176.636 206.67 176.537C207.164 176.437 207.618 176.194 207.973 175.837C208.329 175.479 208.57 175.025 208.667 174.531C208.764 174.036 208.712 173.524 208.518 173.059C208.324 172.594 207.997 172.197 207.577 171.919C207.157 171.64 206.664 171.492 206.161 171.493C205.486 171.495 204.839 171.765 204.363 172.243C203.887 172.722 203.62 173.37 203.621 174.045V174.045Z" fill="#885539"/>
</g>
<path d="M204.512 173.843C204.512 174.171 204.61 174.492 204.793 174.765C204.976 175.037 205.236 175.25 205.539 175.375C205.843 175.5 206.177 175.532 206.499 175.468C206.82 175.403 207.116 175.244 207.348 175.011C207.579 174.779 207.737 174.482 207.8 174.16C207.863 173.838 207.83 173.504 207.703 173.201C207.577 172.898 207.363 172.64 207.09 172.458C206.816 172.276 206.495 172.18 206.167 172.181C205.949 172.181 205.733 172.224 205.532 172.307C205.33 172.391 205.148 172.514 204.994 172.668C204.84 172.822 204.718 173.006 204.636 173.207C204.553 173.409 204.511 173.625 204.512 173.843V173.843Z" fill="#D57B52"/>
<path d="M204.934 173.818C204.934 174.062 205.007 174.301 205.144 174.504C205.28 174.706 205.474 174.864 205.7 174.957C205.926 175.049 206.175 175.072 206.414 175.023C206.654 174.974 206.873 174.855 207.045 174.681C207.216 174.507 207.332 174.286 207.378 174.046C207.424 173.806 207.397 173.558 207.302 173.333C207.206 173.108 207.046 172.916 206.841 172.783C206.636 172.649 206.397 172.579 206.152 172.582C205.827 172.587 205.518 172.719 205.289 172.95C205.061 173.181 204.934 173.493 204.934 173.818V173.818Z" fill="#492B19"/>
<defs>
<clipPath id="clip0_257_1763">
<rect width="92" height="175" fill="white" transform="translate(1223 294)"/>
</clipPath>
<clipPath id="clip1_257_1763">
<rect width="111.178" height="277.004" fill="white" transform="translate(149.035 171.681)"/>
</clipPath>
</defs>
</svg>
