<svg width="1009" height="2659" viewBox="0 0 1009 2659" fill="none" xmlns="http://www.w3.org/2000/svg">
<path d="M981.117 2586.39C981.123 2586.45 981.123 2586.5 981.117 2586.55C979.312 2596.02 977.187 2605.63 974.674 2615.36C973.151 2621.25 971.489 2627.19 969.689 2633.17H462.321C462.321 2633.17 455.505 2602.14 452.738 2556.16C452.056 2544.74 451.628 2532.41 451.602 2519.4C451.602 2512.33 451.709 2505.06 451.976 2497.64C454.168 2435.76 466.679 2362.8 505.147 2301.6C569.304 2199.27 673.694 2071.35 684.628 1771.42C685.739 1773.5 686.726 1775.65 687.582 1777.86C690.8 1785.96 692.372 1794.63 692.206 1803.35C692.07 1812.08 690.122 1820.68 686.486 1828.62C687.582 1826.76 688.745 1824.92 689.787 1822.98L691.124 1819.99C691.63 1819 692.076 1817.98 692.46 1816.94C697.172 1803.81 697.467 1789.51 693.303 1776.2C691.392 1769.98 688.606 1764.06 685.029 1758.62C687.702 1661.05 680.591 1545.66 659.352 1407.63C570.815 832.226 682.436 897.921 742.223 575.421C808.853 215.657 590.864 228.662 633.703 3.34798C633.703 3.34798 644.917 -34.2511 670.74 -46.8822L671.783 -47.3767C685.229 -53.4985 702.525 -52.8435 724.165 -36.9244C725.404 -36.0333 726.66 -35.0709 727.934 -34.0373C795.046 19.6013 731.436 -16.1667 710.558 -19.7755C709.609 -19.9377 708.645 -19.9871 707.685 -19.9226C707.399 -19.9226 707.119 -19.8958 706.842 -19.8424L706 -19.7087L705.158 -19.5216C704.428 -19.3374 703.713 -19.0961 703.02 -18.7998L702.472 -18.5726C702.057 -18.3854 701.656 -18.185 701.255 -17.9577C699.872 -17.1995 698.569 -16.3039 697.366 -15.2845C696.724 -14.7499 696.029 -14.1617 695.468 -13.5469C694.906 -12.932 694.225 -12.2103 693.623 -11.5687C693.022 -10.9271 692.434 -10.1519 691.859 -9.39C691.565 -9.01575 691.284 -8.62814 691.004 -8.22715C690.429 -7.43855 689.881 -6.60984 689.346 -5.7544C689.092 -5.36678 688.865 -4.97917 688.638 -4.59155C688.518 -4.41663 688.411 -4.2335 688.317 -4.04353C687.684 -2.97423 687.083 -1.86485 686.512 -0.715357L685.831 0.621263C685.67 0.955418 685.523 1.28957 685.376 1.62373C685.002 2.43907 684.641 3.26779 684.307 4.10986V4.19006C678.092 19.6013 676.448 39.41 684.454 54.447C684.989 55.4628 685.577 56.4653 686.218 57.441C705.252 86.6996 712.871 104.036 753.798 144.134C794.725 184.233 826.149 229.678 835.666 261.155C836.325 263.321 837.029 265.548 837.778 267.838C838.072 268.721 838.353 269.616 838.66 270.512C839.622 273.479 840.652 276.566 841.707 279.868L842.148 281.205C842.322 281.726 842.496 282.26 842.656 282.808L843.579 285.696L844.22 287.794L844.742 289.505C844.929 290.08 845.102 290.668 845.276 291.256C845.797 293.007 846.332 294.825 846.853 296.683L847.375 298.554L847.896 300.452L848.417 302.39L848.939 304.368L849.46 306.386C849.62 307.055 849.794 307.723 849.968 308.431C850.302 309.768 850.636 311.212 850.97 312.628C851.131 313.35 851.304 314.072 851.465 314.794C852.36 318.804 853.216 322.92 854.031 327.291C854.232 328.36 854.419 329.456 854.619 330.552C854.766 331.354 854.9 332.156 855.034 332.972C855.247 334.201 855.448 335.445 855.648 336.701C855.795 337.69 855.956 338.679 856.103 339.682C856.343 341.352 856.584 343.037 856.825 344.761C856.958 345.723 857.079 346.685 857.199 347.661C857.413 349.332 857.613 351.016 857.814 352.74C858.068 354.959 858.295 357.231 858.522 359.544C858.616 360.506 858.709 361.482 858.789 362.471C859.217 367.256 859.574 372.251 859.859 377.455C859.859 378.35 859.952 379.232 860.006 380.128C860.229 384.904 860.393 389.854 860.5 394.978C860.5 397.103 860.5 399.268 860.581 401.46C860.661 414.051 860.313 427.711 859.444 442.575C853.269 547.673 845.169 594.816 797.572 761.693C749.975 928.57 734.751 1130.12 797.572 1307.82C800.727 1316.73 803.752 1325.33 806.648 1333.61V1333.69C818.677 1368.22 828.729 1397.68 836.896 1423.99C857.092 1489.05 866.101 1534.93 867.919 1590.99C868.721 1615.39 868.146 1641.78 866.582 1672.4C860.474 1788.98 821.137 1962.44 896.79 2188.73C897.084 2189.63 897.391 2190.53 897.698 2191.41L897.859 2191.89C909.453 2226.02 922.929 2259.49 938.225 2292.14C938.318 2292.34 938.399 2292.54 938.505 2292.74C941.098 2298.32 943.772 2303.92 946.525 2309.55C946.525 2309.67 946.645 2309.79 946.712 2309.91C947.26 2310.96 948.971 2314.28 951.39 2319.66L951.751 2320.43C961.402 2341.94 981.585 2393.95 987.466 2463.64V2463.72C990.919 2504.71 988.783 2545.98 981.117 2586.39V2586.39Z" fill="#91AD2D"/>
<path d="M974.646 2615.36H482.769C482.769 2615.36 475.953 2584.32 473.199 2538.33C472.518 2526.93 472.076 2514.59 472.063 2501.58C471.97 2435.62 482.596 2352.32 525.608 2283.72C611.272 2147.19 768.338 1965.15 679.814 1389.74C591.29 814.343 702.897 880.051 762.684 557.538C829.315 197.787 611.326 210.792 654.164 -14.5353C657.932 -26.1422 663.517 -37.078 670.712 -46.9349L671.754 -47.4295C685.201 -53.5512 702.496 -52.8963 724.136 -36.9771C725.375 -36.086 726.631 -35.1237 727.906 -34.09C795.017 19.5485 731.408 -16.2194 710.53 -19.8283C709.581 -19.9904 708.616 -20.0398 707.656 -19.9753C703.79 -19.5652 700.156 -17.9308 697.284 -15.3105C692.151 -10.9932 687.54 -4.05618 684.225 4.1373V4.21749C677.809 19.2144 676.098 39.0765 684.372 54.4744C684.906 55.4902 685.495 56.4927 686.136 57.4684C705.17 86.727 712.788 104.063 753.716 144.162C794.643 184.26 826.067 229.705 835.584 261.183C839.794 275.084 846.143 291.644 851.383 314.888C857.985 344.173 862.811 384.085 859.402 442.682C853.227 547.781 845.127 594.923 797.53 761.8C749.933 928.677 734.709 1130.23 797.53 1307.93C860.351 1485.63 873.717 1536.04 866.553 1672.56C859.389 1809.08 806.579 2023.65 946.51 2309.73C946.336 2309.73 1018.83 2444.15 974.646 2615.36Z" fill="#91AD2D"/>
<path opacity="0.17" d="M981.117 2586.39C981.123 2586.44 981.123 2586.5 981.117 2586.55C979.717 2596.3 977.562 2605.93 974.674 2615.36L969.689 2633.17H462.321C462.321 2633.17 455.505 2602.14 452.738 2556.16C452.056 2544.74 451.628 2532.4 451.602 2519.4C451.602 2512.33 451.709 2505.06 451.976 2497.64C457.425 2478.36 465.18 2459.82 475.073 2442.4C501.217 2395.74 547.143 2344.52 624.226 2292.19C768.34 2194.36 927.558 1735.32 806.487 1333.83C807.824 1337.12 822.126 1372.87 836.735 1424.13C850.101 1471.1 863.708 1531.06 867.758 1591.13C869.81 1618.25 869.363 1645.5 866.422 1672.54C858.495 1739.59 850.542 1812.41 850.235 1889.7C850.128 1918.05 851.037 1947.01 853.349 1976.49C856.24 2014.02 861.499 2051.32 869.095 2088.18C876.143 2122.29 885.339 2155.93 896.629 2188.88C896.923 2189.78 897.231 2190.67 897.538 2191.55L897.698 2192.03C899.035 2195.7 907.696 2219.77 919.165 2248.17C919.298 2248.51 919.432 2248.85 919.579 2249.2C919.9 2250 920.22 2250.82 920.555 2251.62C925.981 2264.99 931.969 2279.06 938.064 2292.33C938.158 2292.53 938.238 2292.74 938.345 2292.94C941.018 2298.75 943.692 2304.4 946.365 2309.75C946.365 2309.87 946.485 2309.99 946.552 2310.11C948.129 2313.29 949.693 2316.55 951.23 2319.86L951.591 2320.63C953.275 2324.27 954.924 2327.97 956.536 2331.74C975.075 2374.99 988.415 2425.37 987.279 2463.84V2463.92C987.346 2466.59 989.016 2535.91 981.117 2586.39Z" fill="#4E4700"/>
<path opacity="0.17" d="M797.357 1307.93C797.357 1307.93 688.289 1153.99 730.526 925.87C772.764 697.749 843.257 662.743 853.121 323.816C853.121 323.816 887.953 495.773 797.357 761.8C797.357 761.8 702.003 1050.79 797.357 1307.93Z" fill="#4E4700"/>
<path opacity="0.17" d="M974.647 2615.36L969.661 2633.17L902.136 2635.91C911.652 2582.29 920.327 2479.02 879.64 2363.48C822.326 2200.67 767.872 2034.96 850.235 1889.72C853.211 1884.45 856.379 1879.21 859.738 1874C859.431 1875.1 849.74 1910.17 853.349 1976.51C855.587 2014.1 860.852 2051.45 869.094 2088.19C879.213 2134.44 895.025 2187.87 919.164 2248.15C919.298 2248.48 919.431 2248.83 919.578 2249.18C919.725 2249.52 919.779 2249.7 919.886 2249.96C920.1 2250.51 920.327 2251.05 920.554 2251.6C933.84 2284.53 945.95 2310.41 956.549 2331.71C975.088 2374.97 988.428 2425.34 987.292 2463.81C987.278 2463.81 990.045 2567.83 974.647 2615.36Z" fill="#4E4700"/>
<path d="M812.597 2018.77C587.417 2272.98 501.82 2275.6 454.958 2516.95C453.871 2522.51 452.81 2528.2 451.776 2534.02C451.776 2534.02 420.847 2490.24 410.983 2423.23C401.466 2358.59 411.571 2272.34 487.999 2182.95C599.7 2052.29 661.385 1975.5 687.316 1942.56C697.514 1929.59 702.179 1923.41 702.179 1923.41C702.179 1923.41 869.711 1726.2 883.037 1635.19C896.363 1544.18 864.792 1545.47 864.792 1545.47C864.792 1545.47 854.607 1483.44 845.05 1451.99C848.124 1462.88 866.115 1475.21 883.892 1498.29C892.714 1509.74 900.466 1519.89 903.942 1524.65C935.486 1567.54 1042.96 1758.72 812.597 2018.77Z" fill="#779D15"/>
<path d="M824.345 960.743C824.345 959.861 824.345 958.979 824.278 958.07C824.211 957.161 824.278 956.333 824.158 955.397C824.037 954.461 824.064 953.673 823.997 952.831C823.93 951.988 823.877 951.133 823.797 950.291C823.65 948.607 823.476 946.963 823.262 945.332C823.168 944.557 823.062 943.782 822.955 943.02C822.962 942.985 822.962 942.948 822.955 942.913V942.913C822.794 941.844 822.634 940.801 822.46 939.772C822.286 938.743 822.113 937.753 821.925 936.778C821.925 936.778 821.925 936.698 821.925 936.657C821.725 935.575 821.498 934.505 821.271 933.45C821.083 932.621 820.896 931.779 820.696 930.963C820.495 930.148 820.281 929.253 820.068 928.424C819.934 927.916 819.8 927.408 819.653 926.914C819.506 926.419 819.332 925.711 819.145 925.109C818.958 924.508 818.784 923.866 818.597 923.251C818.343 922.409 818.076 921.594 817.809 920.778C817.007 918.332 816.138 915.953 815.229 913.668C814.935 912.919 814.627 912.171 814.32 911.435C813.839 910.286 813.344 909.15 812.836 908.04C812.636 907.586 812.422 907.131 812.208 906.704C811.634 905.461 811.032 904.244 810.431 903.055C809.094 900.382 807.757 897.962 806.287 895.61C805.846 894.861 805.392 894.14 804.95 893.418L803.694 891.48C802.945 890.33 802.184 889.207 801.422 888.125C801.128 887.697 800.82 887.283 800.526 886.868C798.936 884.663 797.332 882.605 795.741 880.68C795.3 880.145 794.872 879.624 794.404 879.116C792.622 877.031 790.889 875.119 789.205 873.382L788.082 872.246C786.064 870.214 784.166 868.463 782.468 866.979L781.773 866.378C779.354 864.293 777.349 862.782 775.999 861.793L775.264 861.272L774.168 860.537L774.021 860.443C768.942 885.759 767.338 899.7 767.338 899.7L776.427 910.206C785.235 922.489 814.975 957.348 712.162 1051.62C663.095 1096.61 621.86 1127.9 591.198 1162.81C570.066 1186.87 553.96 1212.67 543.815 1245.84C537.827 1265.39 533.924 1287.49 532.253 1313.32C523.886 1443.56 667.867 1521.44 674.443 1524.93L674.67 1525.05C674.676 1525.02 674.676 1524.99 674.67 1524.96C674.376 1522.14 673.521 1514.91 672.384 1505.54C671.89 1501.53 671.355 1497 670.781 1492.32C669.257 1479.94 667.559 1466.08 666.102 1454.26L662.627 1426.19L635.547 1403.2C506.563 1251.71 708.847 1222.25 791.664 1072.71C792.426 1071.38 793.161 1070.04 793.883 1068.7C795.336 1066.03 796.726 1063.36 798.053 1060.68C799.39 1058.01 800.727 1055.43 801.876 1052.85C806.455 1043.2 810.472 1033.3 813.906 1023.19C814.307 1022.01 814.694 1020.84 815.055 1019.67C822.032 997.581 824.666 977.999 824.345 960.743ZM808.519 913.962C808.519 914.149 808.519 914.323 808.519 914.51C808.6 916.479 808.873 918.435 809.334 920.351C809.441 920.872 809.575 921.367 809.722 921.861C810.332 923.762 811.148 925.591 812.155 927.314C812.912 930.923 813.491 934.541 813.892 938.168C811.723 936.558 809.8 934.639 808.185 932.474C806.408 930.051 804.977 927.392 803.935 924.574C802.925 921.628 802.297 918.565 802.063 915.459C801.95 913.83 801.95 912.195 802.063 910.567C802.265 907.645 802.803 904.757 803.667 901.959C805.503 905.848 807.118 909.838 808.506 913.908L808.519 913.962Z" fill="#779D15"/>
<path d="M886.846 471.418C864.952 554.836 806.876 578.348 806.876 578.348C634.265 683.82 695.027 753.712 690.269 764.539C688.932 767.599 687.369 771.502 685.845 775.526C684.321 779.549 682.744 783.839 681.461 787.435C679.509 792.781 678.146 796.791 678.146 796.791C678.146 796.791 619.629 725.87 662.026 657.622C673.401 639.297 692.047 621.173 721.065 604.652C721.065 604.652 801.168 554.863 823.985 536.485C846.801 518.106 888.316 464.989 859.953 389.136L854.78 337.475V337.248C854.78 337.248 911.921 375.836 886.846 471.418Z" fill="#9EB52C"/>
<path d="M627.114 1043.72C626.873 1061.1 626.927 1074.8 626.927 1074.8C594.554 977.222 426.581 983.063 276.184 1011.24C125.788 1039.42 81.987 980.898 49.6274 935.386L43.5859 926.885C10.558 880.491 -38.1083 811.735 49.6274 912.771C69.2356 935.346 91.878 948.953 116.619 956.264C123.974 958.425 131.473 960.06 139.061 961.156C157.065 963.829 175.965 963.829 195.453 962.038C200.309 961.611 205.21 961.067 210.155 960.408C283.843 950.744 364.535 919.614 436.165 913.706C567.528 902.88 630.362 979.455 630.362 979.455C628.237 991.471 627.421 1020.77 627.114 1043.72Z" fill="#779D15"/>
<path opacity="0.7" d="M627.248 1075.18C594.876 977.611 426.903 983.453 276.506 1011.63C126.11 1039.8 82.3086 981.287 49.949 935.775L43.9609 927.274C76.3205 962.815 116.272 991.512 172.37 999.92C267.43 1014.18 271.828 983.292 452.419 982.103C554.777 981.434 604.031 1014.94 627.516 1044.11C627.195 1061.44 627.248 1075.18 627.248 1075.18Z" fill="#ECDE76"/>
<path opacity="0.7" d="M681.047 1950.5C651.641 2017.93 610.273 2072.57 504.199 2192.42C434.828 2270.79 414.779 2358.87 410.983 2423.26C401.466 2358.62 411.571 2272.37 487.999 2182.97C599.7 2052.29 655.116 1983.44 681.047 1950.5Z" fill="#ECDE76"/>
<path opacity="0.17" d="M812.597 2018.77C587.416 2272.98 501.819 2275.6 454.957 2516.95C445.361 2268.48 631.552 2163.94 808.213 1952.9C1001.72 1721.67 883.892 1498.32 883.892 1498.32C892.714 1509.77 900.466 1519.92 903.941 1524.67C935.486 1567.54 1042.96 1758.72 812.597 2018.77Z" fill="#4E4700"/>
<path opacity="0.7" d="M674.657 1525H674.443C667.867 1521.51 523.886 1443.62 532.253 1313.38C533.924 1287.56 537.827 1265.45 543.815 1245.91C540.26 1281.4 542.706 1331.68 562.02 1388.46C579.169 1438.85 635.534 1481.92 672.371 1505.6C673.507 1514.94 674.363 1522.18 674.657 1525Z" fill="#ECDE76"/>
<path opacity="0.17" d="M815.001 1019.7C814.64 1020.86 814.253 1022.04 813.852 1023.21C810.43 1033.33 806.413 1043.23 801.822 1052.87C800.606 1055.45 799.336 1058.07 798 1060.71C796.663 1063.34 795.326 1066.05 793.829 1068.73C793.107 1070.06 792.372 1071.4 791.61 1072.74C708.74 1222.28 506.509 1251.74 635.493 1403.23L662.573 1426.22L666.048 1454.29C642.551 1438.25 614.976 1414.51 602.626 1385.42C579.008 1329.81 577.524 1298.33 602.626 1250.8C623.477 1211.33 828.662 1069.02 813.812 938.098C813.411 934.481 812.831 930.863 812.074 927.245C811.124 922.721 809.905 918.258 808.425 913.879C807.045 909.781 805.434 905.765 803.6 901.849C797.051 887.721 787.333 873.86 773.914 860.414L774.061 860.508L775.157 861.243L775.892 861.764C777.228 862.753 779.247 864.263 781.666 866.349L782.361 866.95C784.059 868.434 785.957 870.185 787.975 872.216L789.098 873.353C790.782 875.09 792.515 877.001 794.297 879.087C794.738 879.595 795.166 880.116 795.634 880.65C797.224 882.575 798.828 884.66 800.419 886.839C800.713 887.253 801.02 887.668 801.314 888.095C802.076 889.178 802.838 890.301 803.587 891.45L804.843 893.388C805.284 894.11 805.739 894.832 806.18 895.581C807.596 897.933 808.986 900.419 810.323 903.025C810.925 904.215 811.526 905.431 812.101 906.674C812.315 907.116 812.529 907.57 812.729 908.011C813.237 909.12 813.732 910.257 814.213 911.406C814.52 912.141 814.828 912.89 815.122 913.638C816.031 915.924 816.899 918.303 817.701 920.749C817.969 921.564 818.236 922.38 818.49 923.222C818.677 923.837 818.864 924.451 819.038 925.08C819.212 925.708 819.385 926.283 819.546 926.884C819.706 927.486 819.826 927.887 819.96 928.395C820.174 929.223 820.388 930.079 820.588 930.934C820.789 931.789 820.976 932.592 821.163 933.42C821.39 934.476 821.618 935.545 821.818 936.628C821.818 936.628 821.818 936.708 821.818 936.748C822.005 937.724 822.192 938.727 822.353 939.742C822.513 940.758 822.687 941.814 822.847 942.883C822.855 942.919 822.855 942.955 822.847 942.99C822.954 943.752 823.061 944.527 823.155 945.303C823.369 946.933 823.556 948.577 823.689 950.262C823.769 951.104 823.836 951.946 823.89 952.801C823.943 953.657 824.01 954.499 824.05 955.368C824.09 956.236 824.144 957.105 824.17 958.041C824.197 958.976 824.237 959.792 824.237 960.714C824.665 977.996 822.032 997.578 815.001 1019.7Z" fill="#4E4700"/>
<path opacity="0.7" d="M681.527 787.395C679.576 792.741 678.212 796.751 678.212 796.751C678.212 796.751 619.695 725.83 662.093 657.582C643.487 702.025 665.247 756.519 681.527 787.395Z" fill="#ECDE76"/>
<path opacity="0.17" d="M886.846 471.42C864.953 554.838 806.876 578.349 806.876 578.349C634.265 683.822 695.028 753.714 690.27 764.54C688.933 767.601 687.369 771.504 685.845 775.528C674.725 758.312 663.283 727.543 681.622 685.974C704.224 634.675 746.582 610.335 775.88 591.729C805.179 573.123 847.296 543.517 868.561 501.026C889.827 458.535 887.568 429.744 884.4 405.591C881.433 382.869 865.34 352.902 854.808 337.517V337.29C854.808 337.29 911.921 375.838 886.846 471.42Z" fill="#4E4700"/>
<path opacity="0.21" d="M851.277 314.874C850.515 313.23 800.899 207.945 753.703 173.794C708.138 140.78 624.185 24.0125 697.178 -15.3242C692.045 -11.0069 687.434 -4.06986 684.119 4.12362V4.20382C677.703 19.2007 675.992 39.0628 684.266 54.4607C684.801 55.4765 685.389 56.479 686.03 57.4547C705.064 86.7134 712.683 104.049 753.61 144.148C794.537 184.246 825.961 229.692 835.478 261.169C839.648 275.07 845.997 291.631 851.277 314.874Z" fill="#ECDE76"/>
<path d="M208.846 961.958C201.723 969.648 192.825 975.477 182.929 978.933L179.199 980.27C177.939 980.633 176.658 980.923 175.363 981.138L171.474 981.927L167.464 982.275C162.024 982.83 156.53 982.528 151.184 981.379C145.653 980.15 140.321 978.153 135.345 975.444C130.26 972.515 125.567 968.954 121.377 964.845C119.2 962.662 117.177 960.33 115.322 957.868C109.829 950.68 105.747 942.516 103.293 933.809C102.433 930.88 101.772 927.897 101.315 924.88C101.061 923.396 100.967 921.873 100.82 920.362C100.615 918.847 100.517 917.32 100.526 915.791C100.526 914.254 100.432 912.703 100.526 911.18L100.927 906.568L101.729 902.064C101.996 900.567 102.477 899.123 102.852 897.653C106.159 886.257 113.351 876.378 123.182 869.731C127.95 866.589 133.27 864.375 138.86 863.208C140.264 862.968 141.667 862.66 143.097 862.527L147.388 862.286C148.858 862.286 150.369 862.42 151.866 862.527C153.365 862.681 154.852 862.935 156.316 863.289C162.347 864.771 167.975 867.569 172.797 871.482C177.822 875.538 181.966 880.577 184.974 886.292C187.955 892.034 189.802 898.296 190.414 904.737C191.144 911.158 190.295 917.659 187.941 923.677C185.694 929.407 181.945 934.426 177.088 938.206C172.326 941.797 166.602 943.886 160.647 944.208C157.556 944.413 154.454 944.032 151.505 943.085C146.909 941.629 142.766 939.014 139.475 935.493C136.043 931.848 133.524 927.441 132.124 922.635C131.215 919.504 130.765 916.258 130.787 912.997C130.831 909.752 131.507 906.547 132.779 903.561C133.961 900.73 135.739 898.186 137.991 896.103C140.176 894.086 142.791 892.592 145.637 891.732C148.507 890.905 151.535 890.791 154.459 891.398C157.529 892.11 160.347 893.644 162.612 895.835C164.894 898.038 166.608 900.761 167.609 903.77C168.61 906.78 168.867 909.987 168.359 913.118C167.796 916.027 166.322 918.681 164.149 920.696C162.105 922.572 159.438 923.624 156.664 923.65C155.281 923.679 153.909 923.391 152.654 922.808C151.347 922.219 150.177 921.363 149.219 920.295C148.272 919.253 147.537 918.036 147.054 916.713C146.572 915.391 146.336 913.991 146.359 912.583C146.52 913.905 146.909 915.19 147.508 916.379C148.116 917.538 148.932 918.576 149.914 919.44C150.802 920.237 151.857 920.826 153.002 921.164C154.095 921.505 155.254 921.583 156.383 921.391C158.588 921.076 160.606 919.975 162.064 918.291C163.499 916.566 164.371 914.444 164.563 912.209C164.698 909.92 164.295 907.631 163.387 905.526C162.495 903.45 161.12 901.617 159.377 900.179C157.765 898.903 155.832 898.098 153.79 897.854C151.8 897.665 149.795 897.968 147.949 898.736C146.106 899.478 144.452 900.624 143.111 902.091C141.727 903.61 140.671 905.398 140.01 907.344C139.363 909.321 139.082 911.4 139.181 913.479C139.332 915.66 139.781 917.809 140.518 919.868C142.007 923.833 144.657 927.257 148.123 929.692C149.755 930.777 151.565 931.569 153.469 932.031C155.329 932.503 157.262 932.612 159.163 932.352C163.11 931.941 166.838 930.343 169.856 927.767C172.956 925.132 175.295 921.718 176.633 917.876C176.985 916.902 177.275 915.906 177.502 914.895C177.689 913.88 177.849 912.85 177.956 911.808L178.063 910.217C178.063 909.696 178.063 909.161 178.063 908.653C178.048 907.553 177.959 906.454 177.796 905.365C177.293 900.939 175.93 896.653 173.786 892.748C171.707 888.964 168.878 885.644 165.472 882.99C162.214 880.412 158.425 878.586 154.378 877.644L151.411 877.163C150.409 877.163 149.42 877.042 148.404 877.029L145.276 877.243C144.247 877.336 143.231 877.604 142.255 877.737C138.205 878.61 134.352 880.228 130.894 882.509C123.684 887.369 118.387 894.584 115.91 902.919C115.63 904.002 115.229 905.045 115.015 906.141L114.373 909.469L114.039 912.864C113.919 913.987 114.039 915.163 113.946 916.286C113.919 917.455 113.973 918.625 114.106 919.788C114.226 920.977 114.253 922.193 114.44 923.37C114.775 925.742 115.244 928.094 115.844 930.414C119.045 943.467 126.853 954.925 137.831 962.68C138.633 963.268 139.448 963.816 140.277 964.337C144.213 966.716 148.453 968.55 152.881 969.79C157.266 970.974 161.802 971.497 166.341 971.341L169.79 971.261L173.171 970.78C174.316 970.672 175.454 970.503 176.58 970.272L179.921 969.47C184.935 968.16 189.747 966.172 194.223 963.562C199.062 963.17 203.936 962.635 208.846 961.958Z" fill="#779D15"/>
<path d="M813.852 938.112C811.682 936.502 809.76 934.584 808.144 932.418C806.367 929.996 804.937 927.337 803.894 924.519C802.885 921.572 802.256 918.509 802.023 915.403C801.909 913.774 801.909 912.14 802.023 910.511C802.224 907.59 802.762 904.701 803.627 901.903C805.46 905.819 807.071 909.835 808.452 913.933C808.452 914.12 808.452 914.294 808.452 914.481C808.533 916.45 808.806 918.406 809.267 920.322C809.374 920.843 809.508 921.338 809.655 921.832C810.265 923.733 811.081 925.562 812.087 927.286C812.898 930.877 813.486 934.486 813.852 938.112Z" fill="#9B8E00"/>
<path d="M822.447 939.823C822.62 940.852 822.781 941.895 822.941 942.964C822.527 942.817 822.112 942.67 821.698 942.496L819.76 941.708C819.127 941.408 818.511 941.073 817.915 940.705L816.098 939.663L814.387 938.42L813.906 938.072C813.505 934.454 812.925 930.837 812.168 927.219C812.395 927.606 812.622 927.981 812.863 928.355C814.203 930.366 815.834 932.168 817.702 933.701L819.038 934.864L820.562 935.853C820.976 936.134 821.377 936.441 821.818 936.695C821.818 936.695 821.818 936.776 821.818 936.816C822.099 937.805 822.286 938.807 822.447 939.823Z" fill="#8E8200"/>
<path d="M854.873 906.247C854.061 909.582 852.608 912.728 850.596 915.51C848.65 918.325 846.044 920.62 843.004 922.193C840.121 923.687 836.891 924.384 833.648 924.211C830.493 923.981 827.478 922.818 824.987 920.869C823.681 919.868 822.574 918.63 821.725 917.221C820.398 915.03 819.652 912.536 819.56 909.976C819.473 907.323 820.009 904.686 821.124 902.277C821.859 900.712 822.818 899.262 823.971 897.973C825.121 896.695 826.51 895.655 828.061 894.912C829.518 894.191 831.114 893.794 832.739 893.749C834.317 893.71 835.884 894.025 837.324 894.672C838.756 895.349 840.003 896.362 840.959 897.626C841.935 898.98 842.526 900.574 842.67 902.237C842.813 903.915 842.547 905.602 841.895 907.155C841.243 908.707 840.225 910.079 838.928 911.152C837.684 912.113 836.168 912.656 834.597 912.703C833.13 912.735 831.703 912.225 830.587 911.273C830.017 910.801 829.56 910.207 829.25 909.535C828.937 908.841 828.769 908.091 828.756 907.329C828.744 906.585 828.876 905.846 829.144 905.151C829.415 904.454 829.808 903.811 830.306 903.253C829.91 903.841 829.616 904.491 829.438 905.178C829.276 905.851 829.24 906.549 829.331 907.236C829.412 907.862 829.626 908.464 829.959 909C830.282 909.553 830.743 910.014 831.295 910.337C832.288 910.981 833.479 911.246 834.65 911.085C835.826 910.897 836.917 910.356 837.778 909.535C838.615 908.666 839.246 907.62 839.623 906.474C839.996 905.332 840.088 904.117 839.89 902.932C839.695 901.861 839.204 900.865 838.473 900.058C837.734 899.285 836.816 898.707 835.8 898.374C834.806 898.025 833.746 897.906 832.699 898.027C831.615 898.142 830.568 898.484 829.625 899.029C828.679 899.599 827.842 900.332 827.152 901.194C826.452 902.117 825.876 903.128 825.441 904.202C824.656 906.31 824.521 908.605 825.053 910.791C825.333 911.793 825.785 912.739 826.39 913.585C826.973 914.422 827.707 915.143 828.555 915.71C830.277 916.916 832.321 917.577 834.423 917.608C836.582 917.635 838.709 917.086 840.585 916.018C841.047 915.749 841.493 915.454 841.922 915.135C842.349 914.788 842.764 914.44 843.178 914.053L843.78 913.465C843.967 913.264 844.14 913.037 844.314 912.836C844.697 912.396 845.045 911.926 845.357 911.433C846.699 909.483 847.648 907.29 848.15 904.977C848.642 902.739 848.674 900.424 848.244 898.174C847.834 896.011 846.958 893.963 845.678 892.172L844.662 890.943C844.261 890.582 843.9 890.207 843.499 889.846L842.162 888.844C841.721 888.51 841.227 888.269 840.826 887.975C838.9 886.92 836.798 886.222 834.624 885.917C830.047 885.342 825.413 886.371 821.511 888.831C821.017 889.165 820.496 889.446 820.028 889.806L818.611 890.916L817.274 892.146C816.847 892.56 816.459 893.054 816.045 893.482C815.628 893.941 815.244 894.427 814.895 894.939C814.521 895.46 814.107 895.955 813.772 896.49C813.078 897.553 812.444 898.655 811.874 899.791C811.33 900.881 810.848 902.001 810.431 903.146C809.16 906.608 808.527 910.271 808.56 913.959C807.179 909.862 805.568 905.845 803.734 901.93C804.297 900.148 804.981 898.406 805.779 896.717C805.94 896.369 806.114 896.022 806.287 895.674C806.836 894.573 807.443 893.503 808.105 892.466C808.52 891.785 809.014 891.13 809.442 890.488C809.887 889.81 810.383 889.167 810.925 888.563C811.46 887.949 811.968 887.227 812.543 886.719L814.307 885.021L816.205 883.498C816.833 883.003 817.542 882.589 818.197 882.161C823.486 878.798 829.78 877.381 836 878.151C838.996 878.574 841.884 879.558 844.515 881.051C845.17 881.439 845.851 881.813 846.453 882.254L848.244 883.658C848.832 884.166 849.393 884.754 849.955 885.315C850.495 885.904 850.999 886.524 851.465 887.173C853.352 889.876 854.62 892.961 855.181 896.209C855.75 899.542 855.646 902.955 854.873 906.247V906.247Z" fill="#8E8200"/>
<path d="M631.738 1486.54C637.173 1488.86 641.692 1492.9 644.596 1498.05C646.048 1500.65 647.085 1503.46 647.671 1506.39C648.234 1509.28 648.256 1512.25 647.737 1515.14C647.259 1518.03 646.224 1520.79 644.69 1523.28C643.068 1525.82 640.864 1527.94 638.261 1529.46C635.553 1531.02 632.538 1531.96 629.426 1532.24C626.184 1532.51 622.919 1532.13 619.829 1531.12C618.24 1530.6 616.708 1529.92 615.258 1529.1C612.966 1527.84 610.916 1526.19 609.203 1524.22C607.508 1522.25 606.193 1519.98 605.327 1517.54C604.466 1515.23 604.08 1512.78 604.19 1510.32C604.289 1507.95 604.9 1505.63 605.981 1503.51C606.675 1502.1 607.622 1500.83 608.775 1499.76C611.137 1497.58 614.199 1496.31 617.41 1496.19C620.678 1496.07 623.906 1496.95 626.659 1498.72C628.025 1499.58 629.221 1500.69 630.188 1501.99C631.13 1503.26 631.816 1504.71 632.206 1506.24C632.565 1507.6 632.62 1509.03 632.366 1510.41C632.124 1511.75 631.555 1513.02 630.709 1514.09C631.107 1512.89 631.262 1511.62 631.163 1510.36C631.064 1509.1 630.715 1507.87 630.134 1506.75C629.612 1505.68 628.901 1504.72 628.036 1503.9C627.159 1503.08 626.146 1502.43 625.042 1501.96C623.054 1501.06 620.839 1500.79 618.693 1501.19C616.662 1501.56 614.818 1502.61 613.467 1504.17C612.869 1504.91 612.416 1505.76 612.13 1506.67C611.74 1507.61 611.496 1508.6 611.408 1509.61C611.221 1511.66 611.547 1513.72 612.357 1515.61C613.152 1517.56 614.404 1519.29 616.006 1520.66C616.823 1521.37 617.72 1521.97 618.679 1522.47C619.649 1523.01 620.67 1523.46 621.727 1523.8C623.801 1524.49 625.988 1524.78 628.169 1524.65C630.267 1524.52 632.316 1523.96 634.184 1523C636.043 1522.06 637.669 1520.72 638.943 1519.07C640.251 1517.3 641.238 1515.32 641.856 1513.2C644.449 1504.69 640.787 1493.61 631.738 1486.54Z" fill="#C9CA59"/>
<path d="M692.45 1816.94C692.065 1817.98 691.619 1819 691.113 1819.99L689.777 1822.98C688.734 1824.92 687.571 1826.76 686.475 1828.62C690.111 1820.68 692.059 1812.08 692.196 1803.35C692.361 1794.63 690.789 1785.96 687.571 1777.86C686.715 1775.65 685.729 1773.5 684.617 1771.41C684.778 1767.19 684.916 1762.93 685.032 1758.62C688.609 1764.06 691.395 1769.98 693.305 1776.2C697.466 1789.51 697.165 1803.81 692.45 1816.94Z" fill="#91AD2D"/>
<path d="M685.014 1760.57C684.934 1763.62 684.84 1766.63 684.72 1769.62C682.648 1765.69 679.999 1762.08 676.86 1758.93L675.216 1757.34C674.682 1756.82 674.053 1756.38 673.479 1755.88L671.741 1754.45L669.87 1753.2C667.451 1751.56 664.832 1750.24 662.077 1749.27C659.388 1748.36 656.594 1747.81 653.764 1747.62C650.993 1747.51 648.22 1747.77 645.517 1748.38C640.224 1749.65 635.418 1752.43 631.696 1756.4C630.768 1757.38 629.906 1758.41 629.116 1759.5C628.729 1760.04 628.395 1760.64 628.034 1761.22C627.658 1761.76 627.327 1762.34 627.045 1762.94C626.791 1763.53 626.443 1764.09 626.216 1764.72L625.548 1766.56L625.053 1768.49C624.879 1769.13 624.853 1769.82 624.719 1770.44C624.018 1775.85 625.082 1781.35 627.753 1786.12C629.085 1788.51 630.785 1790.67 632.792 1792.53C633.287 1792.95 633.781 1793.43 634.316 1793.87L635.987 1795.06C636.548 1795.42 637.109 1795.71 637.671 1796.05L639.422 1796.85C641.792 1797.77 644.33 1798.17 646.867 1798.03C649.355 1797.89 651.779 1797.18 653.949 1795.95C656.119 1794.73 657.977 1793.02 659.377 1790.95C659.742 1790.45 660.064 1789.92 660.34 1789.36C660.473 1789.11 660.634 1788.86 660.767 1788.58L661.102 1787.72C661.316 1787.15 661.494 1786.57 661.636 1785.98C661.771 1785.38 661.865 1784.78 661.917 1784.17C662.145 1781.63 661.731 1779.08 660.714 1776.75C659.69 1774.35 658.076 1772.25 656.022 1770.65C655.051 1769.87 653.958 1769.24 652.788 1768.81C651.661 1768.39 650.473 1768.17 649.273 1768.14C646.842 1768.12 644.48 1768.95 642.589 1770.48C641.648 1771.27 640.848 1772.22 640.224 1773.28C639.617 1774.33 639.243 1775.49 639.128 1776.69C638.983 1777.96 639.101 1779.24 639.475 1780.46C639.849 1781.71 640.462 1782.86 641.28 1783.87C642.092 1784.9 643.106 1785.75 644.26 1786.37C645.394 1786.97 646.675 1787.24 647.955 1787.14C649.235 1787.05 650.462 1786.59 651.491 1785.82C652.528 1785.07 653.337 1784.04 653.83 1782.86C654.298 1781.57 654.358 1780.17 654.004 1778.85C653.615 1777.44 652.798 1776.19 651.665 1775.28C651.112 1774.78 650.46 1774.42 649.754 1774.19C649.064 1773.97 648.335 1773.9 647.615 1773.98C646.872 1774.08 646.157 1774.33 645.517 1774.72C644.882 1775.1 644.339 1775.62 643.926 1776.24C644.26 1775.52 644.748 1774.88 645.356 1774.37C645.97 1773.86 646.686 1773.5 647.455 1773.3C648.288 1773.12 649.148 1773.12 649.981 1773.3C650.845 1773.46 651.667 1773.79 652.4 1774.27C653.919 1775.27 655.092 1776.71 655.755 1778.4C656.426 1780.11 656.562 1781.97 656.143 1783.75C655.652 1785.48 654.684 1787.05 653.349 1788.25C652.008 1789.45 650.353 1790.25 648.577 1790.54C646.691 1790.86 644.752 1790.65 642.977 1789.94C641.171 1789.21 639.543 1788.1 638.205 1786.68C636.869 1785.25 635.817 1783.58 635.104 1781.76C634.422 1779.96 634.095 1778.05 634.142 1776.13C634.204 1774.22 634.659 1772.35 635.479 1770.63C636.275 1768.97 637.351 1767.46 638.66 1766.16C640.676 1764.17 643.208 1762.78 645.971 1762.15C648.81 1761.52 651.763 1761.65 654.539 1762.51C656.461 1763.09 658.269 1763.99 659.885 1765.18C663.082 1767.42 665.657 1770.44 667.367 1773.94C669.076 1777.45 669.864 1781.34 669.656 1785.23C669.46 1788.99 668.265 1792.63 666.194 1795.77C664.233 1798.81 661.605 1801.37 658.509 1803.25C655.322 1805.13 651.746 1806.26 648.056 1806.54C644.267 1806.82 640.463 1806.26 636.909 1804.92C635.993 1804.59 635.1 1804.2 634.236 1803.75C633.394 1803.28 632.525 1802.82 631.723 1802.3L629.424 1800.67C628.675 1800.1 627.98 1799.46 627.272 1798.84C624.494 1796.29 622.139 1793.32 620.295 1790.03C616.687 1783.55 615.28 1776.08 616.285 1768.73C616.459 1767.84 616.552 1766.95 616.806 1766.05L617.501 1763.47L618.45 1760.99C618.784 1760.17 619.239 1759.41 619.626 1758.62C620.017 1757.85 620.464 1757.1 620.963 1756.39C621.431 1755.68 621.872 1754.95 622.38 1754.26C627.573 1747.36 635.122 1742.6 643.592 1740.9C647.011 1740.27 650.499 1740.09 653.964 1740.38C657.465 1740.78 660.898 1741.64 664.176 1742.93C667.465 1744.25 670.556 1746.02 673.358 1748.18L675.444 1749.76L677.382 1751.51C678.01 1752.11 678.718 1752.66 679.266 1753.32L680.991 1755.27C682.448 1756.94 683.792 1758.72 685.014 1760.57Z" fill="#B3A500"/>
<path d="M63.6367 839.951C115.618 826.665 118.438 871.375 118.625 875.665C118.634 875.777 118.634 875.888 118.625 875.999C72.445 892.293 63.9308 841.849 63.6367 839.951Z" fill="#AA9F1E"/>
<path d="M63.6367 839.949L118.585 875.931C118.291 875.931 118.585 875.931 118.585 875.931C72.445 892.291 63.9308 841.847 63.6367 839.949Z" fill="#CCBE16"/>
<path d="M469.62 849.75C513.969 879.931 482.331 911.649 479.217 914.603L478.976 914.83C436.191 890.998 468.39 851.234 469.62 849.75Z" fill="#AA9F1E"/>
<path d="M469.62 849.75L478.976 914.763C478.775 914.536 478.976 914.763 478.976 914.763C436.191 890.998 468.39 851.234 469.62 849.75Z" fill="#CCBE16"/>
<path d="M953.288 1490.47C958.126 1543.94 913.537 1539.59 909.273 1539.07H908.939C900.21 1490.85 951.376 1490.47 953.288 1490.47Z" fill="#AA9F1E"/>
<path d="M953.287 1490.47L909.019 1538.99C909.019 1538.7 909.019 1538.99 909.019 1538.99C900.21 1490.85 951.376 1490.47 953.287 1490.47Z" fill="#CCBE16"/>
<path d="M561.018 2016.24C611.288 2034.95 588.138 2073.33 585.826 2076.94L585.639 2077.22C538.416 2064.27 560.189 2017.97 561.018 2016.24Z" fill="#AA9F1E"/>
<path d="M561.017 2016.24L585.651 2077.13C585.41 2076.96 585.651 2077.13 585.651 2077.13C538.414 2064.27 560.188 2017.97 561.017 2016.24Z" fill="#CCBE16"/>
<path d="M582.778 2079.76C557.382 2096.76 544.43 2067.53 544.016 2066.39C573.421 2050.35 582.029 2076.98 582.778 2079.55" fill="#AA9F1E"/>
<path d="M582.778 2079.76C557.382 2096.76 544.43 2067.53 544.016 2066.39L582.778 2079.76Z" fill="#CCBE16"/>
<path d="M562.125 1518.95C581.827 1487.69 604.442 1508.7 606.541 1510.77L606.715 1510.93C591.33 1540.97 563.181 1519.77 562.125 1518.95Z" fill="#AA9F1E"/>
<path d="M562.125 1518.95L606.661 1510.93C606.501 1511.08 606.661 1510.93 606.661 1510.93C591.33 1540.97 563.181 1519.77 562.125 1518.95Z" fill="#CCBE16"/>
<path d="M588.418 2073.75C569.13 2054.85 592.053 2038.41 592.922 2037.79C612.089 2060.31 590.65 2072.54 588.565 2073.67" fill="#AA9F1E"/>
<path d="M588.418 2073.75C569.13 2054.85 592.053 2038.41 592.922 2037.79L588.418 2073.72" fill="#CCBE16"/>
<path d="M625.657 1753.24C628.81 1751.93 631.327 1749.44 632.674 1746.3C633.381 1744.65 633.806 1742.89 633.93 1741.1C634.05 1739.23 633.832 1737.35 633.289 1735.55C632.758 1733.68 631.913 1731.92 630.789 1730.33C629.609 1728.68 628.106 1727.29 626.371 1726.24C624.636 1725.19 622.706 1724.5 620.698 1724.22C618.745 1723.95 616.758 1724.11 614.87 1724.67C613.933 1724.94 613.034 1725.33 612.197 1725.82C610.887 1726.55 609.747 1727.55 608.855 1728.75C607.947 1729.97 607.305 1731.36 606.971 1732.84C606.619 1734.33 606.573 1735.88 606.837 1737.39C607.099 1738.92 607.652 1740.4 608.468 1741.73C609.008 1742.65 609.684 1743.48 610.473 1744.19C612.019 1745.61 613.984 1746.49 616.073 1746.69C618.003 1746.88 619.942 1746.41 621.567 1745.35C622.342 1744.84 622.995 1744.17 623.478 1743.37C623.975 1742.56 624.29 1741.65 624.4 1740.7C624.522 1739.8 624.445 1738.89 624.173 1738.03C623.893 1737.15 623.439 1736.34 622.836 1735.65C623.504 1737.11 623.581 1738.77 623.05 1740.29C622.821 1740.94 622.452 1741.54 621.968 1742.04C621.496 1742.53 620.921 1742.92 620.283 1743.17C619.069 1743.69 617.718 1743.81 616.434 1743.49C615.107 1743.18 613.906 1742.47 612.985 1741.46C612.59 1740.98 612.266 1740.45 612.023 1739.87C611.716 1739.28 611.491 1738.64 611.355 1737.99C611.073 1736.74 611.115 1735.43 611.475 1734.2C611.805 1733.02 612.446 1731.95 613.333 1731.1C613.771 1730.68 614.266 1730.33 614.803 1730.05C615.362 1729.72 615.959 1729.47 616.581 1729.3C617.843 1728.91 619.172 1728.79 620.484 1728.94C621.827 1729.09 623.129 1729.5 624.32 1730.14C625.552 1730.82 626.644 1731.73 627.541 1732.81C628.475 1733.96 629.236 1735.24 629.8 1736.61C630.955 1739.46 631.176 1742.61 630.432 1745.6C629.687 1748.58 628.016 1751.26 625.657 1753.24V1753.24Z" fill="#B3A500"/>
<path d="M654.26 582.8C703.541 603.999 678.52 641.157 676.02 644.659L675.833 644.926C629.306 629.635 653.351 584.484 654.26 582.8Z" fill="#AA9F1E"/>
<path d="M654.258 582.8L675.845 644.832C675.604 644.645 675.845 644.832 675.845 644.832C629.304 629.635 653.349 584.484 654.258 582.8Z" fill="#CCBE16"/>
<path d="M688.519 596.899C709.905 627.642 681.342 640.5 678.561 641.649L678.347 641.73C656.4 615.478 687.356 597.568 688.519 596.899Z" fill="#AA9F1E"/>
<path d="M688.521 596.898L678.403 641.689C678.323 641.501 678.403 641.689 678.403 641.689C656.402 615.477 687.358 597.567 688.521 596.898Z" fill="#CCBE16"/>
<path d="M143.47 1040.39C137.736 1009.01 164.375 1009.15 166.928 1009.25H167.115C174.948 1037.32 144.607 1040.28 143.47 1040.39Z" fill="#AA9F1E"/>
<path d="M143.469 1040.39L167.073 1009.27C167.073 1009.45 167.073 1009.27 167.073 1009.27C174.946 1037.31 144.605 1040.28 143.469 1040.39Z" fill="#CCBE16"/>
<path d="M630.444 989.523C629.602 1016.07 617.359 997.89 608.764 982.532C599.247 965.517 549.351 950.827 549.351 950.827C538.257 948.301 529.195 945.668 524.57 942.634C518.315 938.504 520.213 933.638 536.279 927.263C564.201 916.182 628.359 938.945 630.31 979.458C630.498 983.347 630.538 986.702 630.444 989.523Z" fill="white"/>
<path d="M472.079 1048.84C471.302 1051.34 470.08 1053.68 468.471 1055.74C451.629 1075.07 427.57 944.331 427.57 944.331C428.158 991.313 406.184 958.539 375.295 953.794C344.406 949.049 276.091 963.886 229.75 975.18C198.393 982.812 161.863 973.041 153.683 965.743C149.767 962.255 152.347 959.328 165.004 959.141C204.207 958.539 301.032 929.441 376.484 914.805C451.937 900.169 464.995 917.558 464.995 917.558C509.251 966.265 472.079 1048.84 472.079 1048.84Z" fill="white"/>
<path d="M671.971 1137.35C577.993 1214.11 595.784 1296.65 558.853 1275.17C558.211 1274.8 557.61 1274.41 557.008 1274.01C523.112 1250.86 558.439 1170.03 602.667 1136.76C647.671 1102.89 720.29 1044.11 720.29 1044.11C733.389 1028.34 742.852 1025.16 745.98 1030.82C752.035 1041.93 734.057 1086.64 671.971 1137.35Z" fill="white"/>
<path d="M138.568 856.661C138.568 856.661 171.529 851.916 183.719 872.7C195.909 893.484 180.685 886.066 166.49 871.216C152.295 856.367 144.502 865.576 134.705 869.439C124.907 873.302 117.182 864.386 138.568 856.661Z" fill="#F0FDFF"/>
<path d="M859.713 341.221C859.713 341.221 926.544 382.91 878.052 481.566C843.954 550.83 874.897 466.703 871.369 417.996C867.84 369.29 839.784 315.037 859.713 341.221Z" fill="#F0FDFF"/>
<path d="M848.753 1863.69C826.579 1961.9 790.931 1889.08 757.663 2007.63C724.394 2126.17 771.136 2178.14 768.757 2239.92C767.179 2280.84 743.013 2280.75 727.843 2251.84C720.104 2237.14 714.717 2214.92 715.813 2186.87C719.115 2103.72 653.887 1944.47 690.417 1927.05C726.947 1909.64 786.988 1774.97 824.387 1731.41C861.785 1687.85 884.414 1710.03 884.414 1710.03C889.988 1714.48 893.156 1719.1 894.466 1724.26C900.44 1748.01 866.971 1782.99 848.753 1863.69Z" fill="white"/>
<path d="M622.425 1374.68C622.425 1374.68 595.787 1359.9 622.425 1399.93C649.064 1439.96 673.711 1540.52 663.406 1562.69C653.101 1584.87 678.964 1617.21 669.675 1481.75C660.385 1346.28 651.203 1433.07 622.425 1374.68Z" fill="#F0FDFF"/>
<path d="M533.914 2108.03C530.679 2109.97 391.31 2231.59 436.488 2331.41C481.666 2431.23 488.055 2475.16 480.69 2304.07C473.325 2132.99 643.209 2042.7 533.914 2108.03Z" fill="white"/>
<path d="M468.471 1055.74C451.629 1075.07 427.57 944.332 427.57 944.332C428.158 991.314 406.184 958.54 375.295 953.795C344.406 949.05 276.091 963.886 229.751 975.181C198.394 982.813 161.864 973.042 153.684 965.744C157.814 965.21 165.553 965.744 179.895 969.527C211.172 977.801 274.113 957.497 283.616 954.383C293.12 951.269 366.554 940.175 396.08 951.616C425.606 963.058 422.625 961.521 425.793 940.135C428.586 921.302 443.864 1036.53 468.471 1055.74Z" fill="#DAE9EE"/>
<path d="M630.444 989.521C629.602 1016.07 617.358 997.888 608.764 982.53C599.247 965.515 549.351 950.826 549.351 950.826C538.257 948.299 529.195 945.666 524.57 942.632C533.659 940.534 549.659 941.068 575.87 953.793C623.547 976.93 621.382 1010.08 630.444 989.521Z" fill="#DAE9EE"/>
<path d="M671.974 1137.35C577.997 1214.12 595.787 1296.65 558.856 1275.17C558.215 1274.8 557.613 1274.41 557.012 1274.01C562.826 1273.88 569.763 1264.73 577.515 1238.74C598.54 1168.24 678.858 1119.54 710.148 1093.39C734.207 1073.24 743.136 1043.43 745.943 1030.84C752.038 1041.93 734.06 1086.64 671.974 1137.35Z" fill="#DAE9EE"/>
<path d="M921.226 1617.95C920.005 1619.15 918.661 1620.22 917.217 1621.14C900.723 1631.49 885.138 1607.17 881.649 1574.12C880.748 1565.59 880.672 1556.99 881.422 1548.44C885.579 1500.91 845.494 1574.15 845.039 1451.99C845.039 1451.99 908.742 1486.66 905.187 1544.29C901.632 1601.91 943.214 1596.56 921.226 1617.95Z" fill="#F0FDFF"/>
<path d="M917.228 1621.14C900.734 1631.49 885.149 1607.17 881.66 1574.12C888.771 1593.23 900.146 1614.11 917.228 1621.14Z" fill="#DAE9EE"/>
<path d="M1008.56 2597.61C1008.56 2661.34 920.129 2671.41 600.623 2644.58C299.042 2619.18 345.422 2689.53 368.051 2579.09C369.388 2572.51 370.644 2565.3 371.754 2557.4C371.754 2557.4 422.545 2401.65 537.495 2399.76C659.341 2397.77 831.431 2584.22 916.36 2557.4C994.672 2532.65 1006.96 2533.57 1008.4 2583.87C1008.52 2588.07 1008.56 2592.64 1008.56 2597.61Z" fill="white"/>
<path d="M1008.56 2597.61C1008.56 2661.34 920.129 2671.4 600.623 2644.58C299.042 2619.18 345.422 2689.53 368.051 2579.08C497.102 2605.32 813.279 2663.92 882.236 2622.79C927.507 2595.79 976.347 2581.44 1008.37 2583.87C1008.52 2588.07 1008.56 2592.64 1008.56 2597.61Z" fill="#DAE9EE"/>
<path d="M848.754 1863.68C826.58 1961.9 790.932 1889.08 757.664 2007.62C724.395 2126.17 771.137 2178.14 768.758 2239.92C767.18 2280.84 743.014 2280.75 727.844 2251.84C742.974 2262.84 753.694 2253.17 760.243 2242.29C769.159 2227.44 731.132 2109.22 740.635 2029.63C750.138 1950.03 804.793 1908.43 826.78 1898.34C848.768 1888.25 839.839 1815.77 866.384 1781.9C882.424 1761.51 890.51 1738.96 894.453 1724.26C900.441 1748.01 866.972 1782.99 848.754 1863.68Z" fill="#DAE9EE"/>
<path d="M988.953 2544.08C988.953 2544.08 331.951 2465.66 657.471 1977.35" stroke="#006A02" stroke-width="5" stroke-miterlimit="10" stroke-linecap="round"/>
<path d="M866.383 1672.56C866.383 1672.56 600.168 1543.86 650.465 1347.33" stroke="#006A02" stroke-width="5" stroke-miterlimit="10" stroke-linecap="round"/>
<path d="M678.148 796.779C611.504 835.207 647.179 888.912 720.786 967.693C794.394 1046.47 762.636 1159.78 762.636 1159.78" stroke="#006A02" stroke-width="5" stroke-miterlimit="10" stroke-linecap="round"/>
<path d="M817.557 697.052C817.557 697.052 704.532 635.969 755.257 435.182" stroke="#006A02" stroke-width="5" stroke-miterlimit="10" stroke-linecap="round"/>
<path d="M627.435 1089.83C627.435 1089.83 618.266 893.604 509.812 918.452" stroke="#006A02" stroke-width="5" stroke-miterlimit="10" stroke-linecap="round"/>
<path d="M426.584 993.931C426.584 993.931 405.813 1040.38 272.191 948.486" stroke="#006A02" stroke-width="5" stroke-miterlimit="10" stroke-linecap="round"/>
<path d="M218.176 1018.7C218.176 1018.7 199.904 937.819 137.805 962.734" stroke="#006A02" stroke-width="5" stroke-miterlimit="10" stroke-linecap="round"/>
<path d="M845.052 291.336C845.052 291.336 883.226 253.403 763.024 235.198C642.822 216.993 638.264 170.533 641.726 136.729" stroke="#006A02" stroke-width="5" stroke-miterlimit="10" stroke-linecap="round"/>
<g opacity="0.1">
<path opacity="0.1" d="M752.956 1110.04C777.453 1103.3 791.846 1077.97 785.103 1053.48C778.36 1028.98 753.034 1014.59 728.536 1021.33C704.039 1028.07 689.646 1053.4 696.389 1077.89C703.132 1102.39 728.458 1116.79 752.956 1110.04Z" fill="#FE6600"/>
</g>
<path d="M738.872 1074.85C738.275 1074.95 737.661 1074.86 737.121 1074.58C736.583 1074.31 736.143 1073.87 735.865 1073.34C734.21 1070.17 732.932 1066.81 732.055 1063.34C731.706 1061.89 731.456 1060.42 731.307 1058.93C730.809 1055.06 731.435 1051.13 733.111 1047.61C736.56 1040.71 745.02 1041.03 746.705 1040.35C748.389 1039.67 749.685 1036.72 749.685 1036.72L759.87 1041.79C759.87 1041.79 758.266 1044.63 758.748 1046.38C758.961 1047.19 760.245 1049.05 761.194 1051.53C761.201 1051.57 761.201 1051.61 761.194 1051.65C761.884 1053.22 762.229 1054.92 762.206 1056.64C762.182 1058.36 761.792 1060.05 761.06 1061.6C756.382 1071.09 743.791 1074.03 738.872 1074.85Z" fill="#FE6600"/>
<g opacity="0.3">
<path opacity="0.3" d="M751.154 1069.5C746.543 1072.82 741.504 1073.7 739.9 1071.46C738.296 1069.21 740.729 1064.77 745.34 1061.4C749.951 1058.04 754.99 1057.22 756.594 1059.45C758.198 1061.68 755.766 1066.22 751.154 1069.5Z" fill="white"/>
</g>
<path d="M759.911 1042.64L749.672 1037.52L749.004 1037.18L751.677 1031.73C752.017 1030.99 752.504 1030.32 753.108 1029.77C753.712 1029.21 754.422 1028.79 755.194 1028.52C755.966 1028.24 756.785 1028.13 757.602 1028.18C758.419 1028.23 759.217 1028.45 759.95 1028.81C760.682 1029.18 761.332 1029.69 761.863 1030.31C762.393 1030.94 762.793 1031.66 763.038 1032.44C763.282 1033.22 763.367 1034.05 763.287 1034.86C763.207 1035.68 762.963 1036.47 762.571 1037.18L762.263 1037.81L759.911 1042.64Z" fill="#338835"/>
<g opacity="0.1">
<path opacity="0.1" d="M656.623 285.4C681.121 278.657 695.514 253.332 688.771 228.834C682.028 204.337 656.702 189.944 632.204 196.687C607.707 203.43 593.314 228.756 600.057 253.253C606.8 277.751 632.126 292.144 656.623 285.4Z" fill="#FDD100"/>
</g>
<path d="M642.54 250.182C641.943 250.284 641.329 250.19 640.789 249.914C640.252 249.646 639.812 249.216 639.533 248.685C637.873 245.509 636.594 242.149 635.723 238.673C635.374 237.226 635.124 235.757 634.975 234.276C634.477 230.407 635.103 226.477 636.779 222.955C640.228 216.044 648.688 216.365 650.373 215.697C652.057 215.028 653.353 212.048 653.353 212.048L663.538 217.14C663.538 217.14 661.934 219.961 662.416 221.712C662.629 222.527 663.899 224.385 664.862 226.858V226.978C665.554 228.553 665.9 230.258 665.877 231.978C665.854 233.698 665.462 235.393 664.728 236.949C660.036 246.439 647.459 249.38 642.54 250.182Z" fill="#FDD100"/>
<g opacity="0.3">
<path opacity="0.3" d="M654.796 244.849C650.185 248.164 645.146 249.033 643.542 246.8C641.938 244.568 644.357 240.117 648.969 236.749C653.58 233.381 658.632 232.552 660.236 234.798C661.84 237.043 659.434 241.521 654.796 244.849Z" fill="white"/>
</g>
<path d="M663.565 217.983L653.34 212.863L652.672 212.529L655.345 207.076C656.075 205.639 657.344 204.551 658.876 204.05C660.407 203.549 662.074 203.675 663.512 204.402C663.889 204.59 664.247 204.814 664.581 205.071C665.683 205.939 666.45 207.161 666.752 208.531C667.054 209.9 666.873 211.332 666.239 212.583L665.931 213.211L663.565 217.983Z" fill="#338835"/>
<g opacity="0.1">
<path opacity="0.1" d="M621.225 1168.78C645.723 1162.03 660.115 1136.71 653.372 1112.21C646.629 1087.71 621.303 1073.32 596.806 1080.06C572.308 1086.81 557.916 1112.13 564.659 1136.63C571.402 1161.13 596.727 1175.52 621.225 1168.78Z" fill="#FDD100"/>
</g>
<path d="M607.122 1133.58C606.527 1133.68 605.918 1133.58 605.38 1133.31C604.842 1133.04 604.404 1132.61 604.128 1132.07C602.462 1128.9 601.183 1125.55 600.318 1122.07C599.962 1120.62 599.712 1119.15 599.57 1117.66C599.059 1113.79 599.671 1109.85 601.334 1106.31C604.796 1099.4 613.257 1099.72 614.941 1099.06C616.625 1098.39 617.908 1095.41 617.908 1095.41L628.107 1100.49C628.107 1100.49 626.489 1103.32 626.984 1105.07C627.198 1105.89 628.467 1107.74 629.43 1110.22V1110.34C630.122 1111.91 630.468 1113.62 630.445 1115.34C630.422 1117.06 630.03 1118.75 629.296 1120.31C624.631 1129.83 612.027 1132.77 607.122 1133.58Z" fill="#FDD100"/>
<g opacity="0.3">
<path opacity="0.3" d="M619.419 1128.23C614.808 1131.55 609.769 1132.43 608.151 1130.19C606.534 1127.94 608.98 1123.5 613.591 1120.13C618.203 1116.77 623.242 1115.95 624.859 1118.18C626.476 1120.42 624.057 1124.92 619.419 1128.23Z" fill="white"/>
</g>
<path d="M628.161 1101.37L617.936 1096.26L617.254 1095.93L619.927 1090.46C620.662 1089.03 621.934 1087.94 623.467 1087.44C624.999 1086.94 626.667 1087.06 628.107 1087.79C628.485 1087.97 628.844 1088.2 629.177 1088.46C630.272 1089.33 631.035 1090.55 631.336 1091.92C631.638 1093.29 631.461 1094.72 630.834 1095.97L630.527 1096.58L628.161 1101.37Z" fill="#338835"/>
<g opacity="0.1">
<path opacity="0.1" d="M745.488 960.387C768.583 949.794 778.717 922.484 768.124 899.389C757.531 876.294 730.221 866.16 707.126 876.753C684.031 887.346 673.896 914.656 684.489 937.751C695.083 960.846 722.392 970.981 745.488 960.387Z" fill="#509CE8"/>
</g>
<path d="M726.734 909.148C727.306 908.955 727.926 908.955 728.498 909.148C729.077 909.322 729.583 909.678 729.942 910.164C732.088 913.027 733.883 916.136 735.288 919.427C735.874 920.798 736.361 922.21 736.745 923.65C737.835 927.391 737.835 931.365 736.745 935.105C734.446 942.483 726.052 943.526 724.489 944.462C722.925 945.397 722.136 948.538 722.136 948.538L711.269 945.157C711.269 945.157 712.392 942.109 711.644 940.452C711.296 939.69 709.732 938.046 708.396 935.774C708.393 935.733 708.393 935.693 708.396 935.653C707.456 934.214 706.838 932.589 706.584 930.889C706.33 929.188 706.447 927.453 706.925 925.802C710.066 915.671 722.016 910.739 726.734 909.148Z" fill="#509CE8"/>
<g opacity="0.3">
<path opacity="0.3" d="M715.467 916.393C719.477 912.384 724.315 910.713 726.267 912.651C728.218 914.589 726.534 919.441 722.511 923.451C718.488 927.461 713.663 929.145 711.711 927.193C709.76 925.242 711.444 920.403 715.467 916.393Z" fill="white"/>
</g>
<path d="M711.147 944.314L722.067 947.723L722.789 947.937L720.971 953.764C720.735 954.53 720.35 955.241 719.838 955.857C719.326 956.474 718.698 956.983 717.989 957.355C717.279 957.728 716.504 957.957 715.706 958.029C714.908 958.101 714.104 958.014 713.339 957.774C712.939 957.658 712.554 957.497 712.19 957.293C710.965 956.61 710.013 955.526 709.495 954.224C708.976 952.921 708.923 951.48 709.343 950.142L709.543 949.487L711.147 944.314Z" fill="#338835"/>
<g opacity="0.1">
<path opacity="0.1" d="M539.55 925.123C562.645 914.53 572.78 887.22 562.187 864.125C551.593 841.03 524.284 830.895 501.188 841.488C478.093 852.081 467.959 879.391 478.552 902.486C489.145 925.581 516.455 935.716 539.55 925.123Z" fill="#509CE8"/>
</g>
<path d="M520.8 873.902C521.372 873.705 521.992 873.696 522.569 873.876C523.146 874.056 523.651 874.417 524.008 874.904C526.155 877.767 527.949 880.877 529.355 884.167C529.94 885.539 530.427 886.95 530.812 888.391C531.901 892.131 531.901 896.105 530.812 899.846C528.513 907.224 520.119 908.266 518.555 909.202C516.991 910.138 516.202 913.279 516.202 913.279L505.336 909.897C505.336 909.897 506.459 906.849 505.71 905.192C505.363 904.43 503.799 902.786 502.462 900.514C502.46 900.474 502.46 900.434 502.462 900.394C501.522 898.954 500.904 897.329 500.65 895.629C500.397 893.929 500.513 892.194 500.992 890.543C504.133 880.424 516.082 875.492 520.8 873.902Z" fill="#509CE8"/>
<g opacity="0.3">
<path opacity="0.3" d="M509.533 881.148C513.543 877.138 518.382 875.468 520.333 877.406C522.285 879.344 520.601 884.196 516.577 888.206C512.554 892.216 507.729 893.9 505.778 891.948C503.826 889.997 505.51 885.158 509.533 881.148Z" fill="white"/>
</g>
<path d="M505.214 909.068L516.134 912.477L516.856 912.691L515.038 918.518C514.802 919.284 514.417 919.995 513.905 920.611C513.393 921.228 512.764 921.737 512.055 922.109C511.346 922.482 510.57 922.711 509.772 922.783C508.974 922.854 508.17 922.768 507.406 922.528C507.006 922.412 506.62 922.25 506.256 922.047C505.032 921.364 504.08 920.28 503.561 918.978C503.043 917.675 502.989 916.234 503.409 914.896L503.61 914.241L505.214 909.068Z" fill="#338835"/>
<g opacity="0.1">
<path opacity="0.1" d="M277.322 1069.03C286.137 1045.2 273.965 1018.73 250.134 1009.92C226.304 1001.1 199.839 1013.28 191.024 1037.11C182.209 1060.94 194.381 1087.4 218.211 1096.22C242.042 1105.03 268.507 1092.86 277.322 1069.03Z" fill="#FDD100"/>
</g>
<path d="M240.445 1059.85C240.181 1060.39 239.75 1060.83 239.215 1061.11C238.683 1061.39 238.075 1061.5 237.478 1061.42C233.933 1060.91 230.461 1059.99 227.132 1058.68C225.754 1058.11 224.414 1057.46 223.122 1056.71C219.704 1054.86 216.881 1052.08 214.982 1048.69C211.387 1041.86 216.586 1035.17 217.027 1033.42C217.468 1031.66 215.798 1028.87 215.798 1028.87L225.876 1023.52C225.876 1023.52 227.212 1026.48 228.937 1027.11C229.725 1027.41 231.984 1027.47 234.537 1028.12H234.671C236.353 1028.48 237.939 1029.19 239.323 1030.21C240.706 1031.23 241.855 1032.54 242.69 1034.04C247.663 1043.49 242.717 1055.39 240.445 1059.85Z" fill="#FDD100"/>
<g opacity="0.3">
<path opacity="0.3" d="M243.331 1046.75C243.331 1052.43 241.098 1057.03 238.345 1057.05C235.592 1057.06 233.359 1052.43 233.359 1046.75C233.359 1041.07 235.592 1036.48 238.345 1036.48C241.098 1036.48 243.331 1041.07 243.331 1046.75Z" fill="white"/>
</g>
<path d="M226.611 1023.98L216.493 1029.32L215.824 1029.68L212.991 1024.34C212.241 1022.91 212.089 1021.24 212.567 1019.69C213.045 1018.15 214.116 1016.86 215.544 1016.1C215.913 1015.91 216.303 1015.75 216.706 1015.64C218.054 1015.25 219.494 1015.34 220.783 1015.89C222.071 1016.45 223.129 1017.43 223.777 1018.67L224.098 1019.29L226.611 1023.98Z" fill="#338835"/>
<g opacity="0.1">
<path opacity="0.1" d="M792.613 631.391C815.708 620.798 825.842 593.488 815.249 570.393C804.656 547.298 777.346 537.163 754.251 547.757C731.156 558.35 721.021 585.66 731.614 608.755C742.208 631.85 769.517 641.985 792.613 631.391Z" fill="#FE6600"/>
</g>
<path d="M773.824 580.167C774.396 579.976 775.014 579.97 775.59 580.15C776.165 580.33 776.67 580.687 777.032 581.169C779.171 584.037 780.965 587.146 782.378 590.432C782.957 591.805 783.439 593.216 783.822 594.656C784.919 598.4 784.919 602.38 783.822 606.124C781.523 613.489 773.129 614.531 771.565 615.48C770.001 616.429 769.213 619.557 769.213 619.557L758.333 616.175C758.333 616.175 759.469 613.128 758.707 611.484C758.359 610.709 756.809 609.078 755.472 606.792C755.468 606.757 755.468 606.721 755.472 606.686C754.536 605.242 753.92 603.615 753.667 601.913C753.413 600.211 753.527 598.475 754.002 596.821C757.156 586.69 769.106 581.758 773.824 580.167Z" fill="#FE6600"/>
<g opacity="0.3">
<path opacity="0.3" d="M762.556 587.41C766.566 583.4 771.418 581.729 773.356 583.681C775.294 585.632 773.623 590.457 769.613 594.481C765.603 598.504 760.751 600.161 758.813 598.21C756.875 596.258 758.533 591.433 762.556 587.41Z" fill="white"/>
</g>
<path d="M758.253 615.347L769.173 618.742L769.895 618.969L768.077 624.783C767.594 626.325 766.52 627.613 765.09 628.364C763.659 629.116 761.989 629.27 760.445 628.793C760.042 628.667 759.653 628.501 759.282 628.299C758.246 627.726 757.4 626.861 756.85 625.812C756.081 624.372 755.913 622.685 756.382 621.121L756.583 620.453L758.253 615.347Z" fill="#338835"/>
<g opacity="0.1">
<path opacity="0.1" d="M641.171 1374.45C664.293 1363.78 674.386 1336.39 663.715 1313.27C653.043 1290.14 625.648 1280.05 602.526 1290.72C579.404 1301.39 569.311 1328.79 579.983 1351.91C590.654 1375.03 618.05 1385.13 641.171 1374.45Z" fill="#509CE8"/>
</g>
<path d="M606.292 1333.42C606.106 1332.85 606.106 1332.23 606.292 1331.65C606.466 1331.08 606.823 1330.57 607.308 1330.21C610.174 1328.07 613.283 1326.28 616.571 1324.86C617.943 1324.28 619.355 1323.79 620.795 1323.41C624.535 1322.32 628.509 1322.32 632.25 1323.41C639.628 1325.71 640.67 1334.1 641.606 1335.66C642.542 1337.23 645.616 1338.02 645.616 1338.02L642.234 1348.9C642.234 1348.9 639.187 1347.76 637.543 1348.51C636.767 1348.86 635.123 1350.42 632.851 1351.76H632.731C631.29 1352.69 629.665 1353.31 627.966 1353.57C626.267 1353.82 624.533 1353.71 622.88 1353.24C612.815 1350.1 607.883 1338.15 606.292 1333.42Z" fill="#509CE8"/>
<g opacity="0.3">
<path opacity="0.3" d="M613.533 1344.7C609.523 1340.69 607.852 1335.84 609.804 1333.89C611.755 1331.94 616.58 1333.62 620.604 1337.64C624.627 1341.67 626.284 1346.49 624.333 1348.44C622.381 1350.39 617.556 1348.71 613.533 1344.7Z" fill="white"/>
</g>
<path d="M641.43 1349L644.825 1338.08L645.052 1337.36L650.866 1339.18C651.631 1339.42 652.341 1339.8 652.956 1340.32C653.572 1340.83 654.08 1341.46 654.452 1342.16C654.825 1342.87 655.054 1343.65 655.126 1344.45C655.199 1345.24 655.114 1346.05 654.876 1346.81C654.75 1347.21 654.584 1347.59 654.382 1347.96C653.703 1349.19 652.622 1350.14 651.321 1350.66C650.02 1351.18 648.579 1351.23 647.244 1350.81L646.576 1350.61L641.43 1349Z" fill="#338835"/>
<g opacity="0.1">
<path opacity="0.1" d="M551.772 2319.94C576.994 2316.87 594.952 2293.94 591.882 2268.71C588.812 2243.49 565.876 2225.53 540.654 2228.6C515.431 2231.67 497.473 2254.61 500.543 2279.83C503.613 2305.06 526.549 2323.01 551.772 2319.94Z" fill="#FDD100"/>
</g>
<path d="M542.802 2283.14C542.199 2283.15 541.608 2282.97 541.118 2282.62C540.633 2282.29 540.259 2281.83 540.049 2281.28C538.881 2277.9 538.11 2274.39 537.75 2270.83C537.622 2269.34 537.596 2267.84 537.67 2266.35C537.738 2262.46 538.931 2258.66 541.105 2255.43C545.529 2249.11 553.856 2250.66 555.621 2250.24C557.385 2249.83 559.109 2247.08 559.109 2247.08L568.466 2253.61C568.466 2253.61 566.461 2256.17 566.674 2257.97C566.768 2258.81 567.757 2260.84 568.345 2263.42C568.345 2263.42 568.345 2263.42 568.345 2263.54C568.798 2265.2 568.891 2266.94 568.617 2268.64C568.342 2270.33 567.707 2271.95 566.755 2273.38C560.673 2282 547.788 2283.06 542.802 2283.14Z" fill="#FDD100"/>
<g opacity="0.3">
<path opacity="0.3" d="M555.737 2279.66C550.685 2282.34 545.579 2282.34 544.309 2279.94C543.039 2277.55 546.127 2273.4 551.166 2270.79C556.205 2268.18 561.337 2268.12 562.594 2270.52C563.85 2272.93 560.789 2277.07 555.737 2279.66Z" fill="white"/>
</g>
<path d="M568.346 2254.38L558.99 2247.81L558.375 2247.38L561.877 2242.39C562.336 2241.73 562.92 2241.17 563.595 2240.74C564.271 2240.31 565.024 2240.02 565.813 2239.88C566.601 2239.74 567.409 2239.76 568.19 2239.94C568.971 2240.11 569.71 2240.44 570.365 2240.9C570.711 2241.14 571.029 2241.41 571.313 2241.72C572.277 2242.74 572.858 2244.06 572.955 2245.46C573.053 2246.86 572.662 2248.25 571.848 2249.39L571.461 2249.95L568.346 2254.38Z" fill="#338835"/>
<g opacity="0.1">
<path opacity="0.1" d="M825.929 1201C833.154 1176.64 819.264 1151.03 794.904 1143.81C770.544 1136.58 744.94 1150.47 737.715 1174.83C730.49 1199.19 744.38 1224.8 768.74 1232.02C793.1 1239.25 818.704 1225.36 825.929 1201Z" fill="#FF0A0A"/>
</g>
<path d="M788.579 1194.29C788.345 1194.85 787.941 1195.32 787.425 1195.63C786.909 1195.94 786.307 1196.09 785.705 1196.04C782.138 1195.78 778.615 1195.09 775.213 1193.98C773.792 1193.52 772.408 1192.95 771.069 1192.29C767.523 1190.67 764.517 1188.06 762.408 1184.79C758.398 1178.21 763.116 1171.19 763.437 1169.4C763.758 1167.61 761.913 1164.95 761.913 1164.95L771.617 1158.99C771.617 1158.99 773.168 1161.85 774.919 1162.36C775.72 1162.61 777.979 1162.52 780.572 1163H780.706C782.403 1163.24 784.029 1163.85 785.474 1164.77C786.92 1165.69 788.151 1166.91 789.087 1168.35C794.647 1177.45 790.49 1189.68 788.579 1194.29Z" fill="#6FDD66"/>
<path d="M788.579 1194.29C788.345 1194.85 787.941 1195.32 787.425 1195.63C786.909 1195.94 786.307 1196.09 785.705 1196.04C782.138 1195.78 778.615 1195.09 775.213 1193.98C773.792 1193.52 772.408 1192.95 771.069 1192.29C767.523 1190.67 764.517 1188.06 762.408 1184.79C758.398 1178.21 763.116 1171.19 763.437 1169.4C763.758 1167.61 761.913 1164.95 761.913 1164.95L771.617 1158.99C771.617 1158.99 773.168 1161.85 774.919 1162.36C775.72 1162.61 777.979 1162.52 780.572 1163H780.706C782.403 1163.24 784.029 1163.85 785.474 1164.77C786.92 1165.69 788.151 1166.91 789.087 1168.35C794.647 1177.45 790.49 1189.68 788.579 1194.29Z" fill="#FF0A0A"/>
<g opacity="0.3">
<path opacity="0.3" d="M790.542 1181.03C790.916 1186.7 788.992 1191.44 786.238 1191.62C783.485 1191.79 780.892 1187.35 780.584 1181.68C780.277 1176.02 782.121 1171.29 784.875 1171.1C787.628 1170.91 790.154 1175.36 790.542 1181.03Z" fill="white"/>
</g>
<path d="M772.421 1159.4L762.678 1165.38L762.036 1165.78L758.841 1160.58C758.424 1159.9 758.144 1159.14 758.02 1158.35C757.895 1157.56 757.927 1156.75 758.115 1155.97C758.302 1155.19 758.641 1154.46 759.112 1153.81C759.583 1153.17 760.177 1152.62 760.86 1152.2C761.215 1151.98 761.591 1151.8 761.982 1151.65C763.303 1151.18 764.746 1151.18 766.068 1151.64C767.39 1152.11 768.51 1153.02 769.24 1154.22L769.601 1154.81L772.421 1159.4Z" fill="#338835"/>
<g opacity="0.1">
<path opacity="0.1" d="M198.832 1007.66C206.057 983.302 192.166 957.698 167.806 950.473C143.447 943.248 117.842 957.138 110.617 981.498C103.392 1005.86 117.283 1031.46 141.642 1038.69C166.002 1045.91 191.607 1032.02 198.832 1007.66Z" fill="#509CE8"/>
</g>
<path d="M161.478 1000.95C161.252 1001.51 160.848 1001.98 160.329 1002.28C159.818 1002.6 159.218 1002.75 158.618 1002.7C155.046 1002.44 151.519 1001.74 148.112 1000.64C146.694 1000.17 145.31 999.611 143.969 998.956C140.426 997.332 137.424 994.725 135.321 991.444C131.311 984.868 136.016 977.851 136.337 976.06C136.657 974.269 134.826 971.609 134.826 971.609L144.517 965.647C144.517 965.647 146.067 968.508 147.818 969.029C148.62 969.27 150.879 969.176 153.472 969.671C153.516 969.659 153.562 969.659 153.606 969.671C155.303 969.913 156.929 970.516 158.374 971.438C159.819 972.36 161.051 973.58 161.986 975.017C167.547 984.106 163.39 996.35 161.478 1000.95Z" fill="#6FDD66"/>
<path d="M161.478 1000.95C161.252 1001.51 160.848 1001.98 160.329 1002.28C159.818 1002.6 159.218 1002.75 158.618 1002.7C155.046 1002.44 151.519 1001.74 148.112 1000.64C146.694 1000.17 145.31 999.611 143.969 998.956C140.426 997.332 137.424 994.725 135.321 991.444C131.311 984.868 136.016 977.851 136.337 976.06C136.657 974.269 134.826 971.609 134.826 971.609L144.517 965.647C144.517 965.647 146.067 968.508 147.818 969.029C148.62 969.27 150.879 969.176 153.472 969.671C153.516 969.659 153.562 969.659 153.606 969.671C155.303 969.913 156.929 970.516 158.374 971.438C159.819 972.36 161.051 973.58 161.986 975.017C167.547 984.106 163.39 996.35 161.478 1000.95Z" fill="#509CE8"/>
<g opacity="0.3">
<path opacity="0.3" d="M163.442 987.688C163.816 993.355 161.891 998.1 159.138 998.287C156.385 998.474 153.858 994.023 153.484 988.356C153.11 982.689 155.034 977.944 157.775 977.757C160.515 977.57 163.068 982.007 163.442 987.688Z" fill="white"/>
</g>
<path d="M145.252 966.063L135.508 972.051L134.867 972.439L131.672 967.239C130.832 965.859 130.573 964.203 130.951 962.632C131.329 961.061 132.314 959.705 133.691 958.858C134.049 958.644 134.424 958.461 134.813 958.31C136.134 957.838 137.577 957.835 138.899 958.303C140.221 958.77 141.341 959.679 142.071 960.877L142.432 961.465L145.252 966.063Z" fill="#338835"/>
<g opacity="0.1">
<path opacity="0.1" d="M737.976 512.168C763.232 509.393 781.457 486.668 778.682 461.412C775.907 436.155 753.183 417.93 727.927 420.705C702.67 423.48 684.445 446.204 687.22 471.461C689.995 496.717 712.719 514.942 737.976 512.168Z" fill="#6FDD66"/>
</g>
<path d="M729.646 475.241C729.053 475.228 728.477 475.032 727.999 474.681C727.521 474.329 727.162 473.838 726.973 473.276C725.838 469.88 725.106 466.363 724.794 462.797C724.694 461.31 724.694 459.819 724.794 458.332C724.92 454.435 726.158 450.655 728.363 447.439C732.867 441.17 741.181 442.828 742.945 442.427C744.71 442.026 746.461 439.299 746.461 439.299L755.724 445.982C755.724 445.982 753.679 448.508 753.879 450.326C753.973 451.168 754.922 453.2 755.483 455.793C755.483 455.793 755.483 455.86 755.483 455.913C755.917 457.578 755.989 459.316 755.693 461.011C755.398 462.705 754.743 464.317 753.772 465.737C747.477 474.305 734.592 475.214 729.646 475.241Z" fill="#6FDD66"/>
<path d="M729.646 475.241C729.053 475.228 728.477 475.032 727.999 474.681C727.521 474.329 727.162 473.838 726.973 473.276C725.838 469.88 725.106 466.363 724.794 462.797C724.694 461.31 724.694 459.819 724.794 458.332C724.92 454.435 726.158 450.655 728.363 447.439C732.867 441.17 741.181 442.828 742.945 442.427C744.71 442.026 746.461 439.299 746.461 439.299L755.724 445.982C755.724 445.982 753.679 448.508 753.879 450.326C753.973 451.168 754.922 453.2 755.483 455.793C755.483 455.793 755.483 455.86 755.483 455.913C755.917 457.578 755.989 459.316 755.693 461.011C755.398 462.705 754.743 464.317 753.772 465.737C747.477 474.305 734.592 475.214 729.646 475.241Z" fill="#6FDD66"/>
<g opacity="0.3">
<path opacity="0.3" d="M742.587 471.914C737.508 474.454 732.389 474.587 731.159 472.061C729.929 469.535 733.044 465.539 738.123 462.999C743.202 460.459 748.321 460.326 749.551 462.852C750.78 465.378 747.666 469.375 742.587 471.914Z" fill="white"/>
</g>
<path d="M755.483 446.773L746.127 440.09L745.512 439.649L749.067 434.703C750.019 433.397 751.451 432.523 753.047 432.272C754.644 432.021 756.275 432.415 757.581 433.367C757.917 433.61 758.23 433.883 758.517 434.182C759.465 435.215 760.029 436.544 760.111 437.944C760.194 439.344 759.792 440.73 758.971 441.868L758.571 442.429L755.483 446.773Z" fill="#338835"/>
<g opacity="0.1">
<path opacity="0.1" d="M720.403 1524.02C738.37 1506.06 738.37 1476.93 720.403 1458.96C702.436 1440.99 673.307 1440.99 655.34 1458.96C637.373 1476.93 637.373 1506.06 655.34 1524.02C673.307 1541.99 702.436 1541.99 720.403 1524.02Z" fill="#FE6600"/>
</g>
<path d="M684.203 1482.95C684.638 1482.53 685.193 1482.26 685.789 1482.17C686.386 1482.09 686.995 1482.19 687.531 1482.47C690.702 1484.12 693.667 1486.15 696.366 1488.49C697.486 1489.48 698.535 1490.55 699.507 1491.69C702.121 1494.58 703.852 1498.16 704.493 1502.01C705.602 1509.64 698.478 1514.21 697.475 1515.73C696.473 1517.26 697.114 1520.43 697.114 1520.43L685.847 1522.07C685.847 1522.07 685.553 1518.83 684.163 1517.67C683.508 1517.12 681.409 1516.34 679.217 1514.85C679.176 1514.83 679.14 1514.81 679.11 1514.77C677.642 1513.87 676.384 1512.67 675.42 1511.25C674.457 1509.82 673.81 1508.21 673.523 1506.51C671.959 1496.03 680.607 1486.42 684.203 1482.95Z" fill="#6FDD66"/>
<path d="M684.203 1482.95C684.638 1482.53 685.193 1482.26 685.789 1482.17C686.386 1482.09 686.995 1482.19 687.531 1482.47C690.702 1484.12 693.667 1486.15 696.366 1488.49C697.486 1489.48 698.535 1490.55 699.507 1491.69C702.121 1494.58 703.852 1498.16 704.493 1502.01C705.602 1509.64 698.478 1514.21 697.475 1515.73C696.473 1517.26 697.114 1520.43 697.114 1520.43L685.847 1522.07C685.847 1522.07 685.553 1518.83 684.163 1517.67C683.508 1517.12 681.409 1516.34 679.217 1514.85C679.176 1514.83 679.14 1514.81 679.11 1514.77C677.642 1513.87 676.384 1512.67 675.42 1511.25C674.457 1509.82 673.81 1508.21 673.523 1506.51C671.959 1496.03 680.607 1486.42 684.203 1482.95Z" fill="#FE6600"/>
<g opacity="0.3">
<path opacity="0.3" d="M677.144 1494.35C679.028 1489 682.664 1485.4 685.27 1486.33C687.877 1487.25 688.438 1492.33 686.607 1497.69C684.776 1503.05 681.073 1506.64 678.48 1505.71C675.887 1504.77 675.246 1499.71 677.144 1494.35Z" fill="white"/>
</g>
<path d="M685.312 1521.4L696.634 1519.76L697.382 1519.64L698.264 1525.68C698.494 1527.28 698.079 1528.91 697.112 1530.2C696.145 1531.5 694.704 1532.35 693.105 1532.59C692.687 1532.63 692.266 1532.63 691.849 1532.59C690.662 1532.52 689.523 1532.1 688.574 1531.39C687.284 1530.42 686.429 1528.97 686.195 1527.38L686.088 1526.7L685.312 1521.4Z" fill="#338835"/>
<g opacity="0.1">
<path opacity="0.1" d="M657.648 2123.38C672.269 2102.6 667.276 2073.9 646.496 2059.28C625.715 2044.66 597.017 2049.66 582.396 2070.44C567.775 2091.22 572.768 2119.92 593.548 2134.54C614.329 2149.16 643.027 2144.16 657.648 2123.38Z" fill="#FE6600"/>
</g>
<path d="M624.376 2105.12C623.983 2105.57 623.453 2105.89 622.866 2106.03C622.275 2106.16 621.658 2106.1 621.101 2105.87C617.782 2104.46 614.641 2102.66 611.745 2100.52C610.553 2099.63 609.428 2098.65 608.377 2097.59C605.53 2094.93 603.512 2091.5 602.562 2087.71C600.838 2080.19 607.575 2075.06 608.443 2073.47C609.312 2071.88 608.443 2068.76 608.443 2068.76L619.537 2066.21C619.537 2066.21 620.099 2069.42 621.582 2070.46C622.264 2070.95 624.429 2071.58 626.742 2072.86L626.849 2072.94C628.381 2073.72 629.73 2074.81 630.804 2076.15C631.878 2077.49 632.654 2079.05 633.077 2080.71C635.497 2091.1 627.664 2101.37 624.376 2105.12Z" fill="#6FDD66"/>
<path d="M624.376 2105.12C623.983 2105.57 623.453 2105.89 622.866 2106.03C622.275 2106.16 621.658 2106.1 621.101 2105.87C617.782 2104.46 614.641 2102.66 611.745 2100.52C610.553 2099.63 609.428 2098.65 608.377 2097.59C605.53 2094.93 603.512 2091.5 602.562 2087.71C600.838 2080.19 607.575 2075.06 608.443 2073.47C609.312 2071.88 608.443 2068.76 608.443 2068.76L619.537 2066.21C619.537 2066.21 620.099 2069.42 621.582 2070.46C622.264 2070.95 624.429 2071.58 626.742 2072.86L626.849 2072.94C628.381 2073.72 629.73 2074.81 630.804 2076.15C631.878 2077.49 632.654 2079.05 633.077 2080.71C635.497 2091.1 627.664 2101.37 624.376 2105.12Z" fill="#FE6600"/>
<g opacity="0.3">
<path opacity="0.3" d="M630.469 2093.18C629.012 2098.67 625.683 2102.54 623.01 2101.85C620.337 2101.17 619.375 2096.12 620.818 2090.63C622.262 2085.13 625.603 2081.27 628.276 2081.97C630.95 2082.66 631.925 2087.7 630.469 2093.18Z" fill="white"/>
</g>
<path d="M620.138 2066.89L608.99 2069.44L608.255 2069.61L606.918 2063.67C606.559 2062.09 606.84 2060.44 607.7 2059.07C608.559 2057.7 609.927 2056.73 611.503 2056.37C611.911 2056.28 612.328 2056.22 612.746 2056.21C613.932 2056.18 615.1 2056.51 616.101 2057.14C617.462 2058.01 618.423 2059.38 618.774 2060.95L618.935 2061.62L620.138 2066.89Z" fill="#338835"/>
<g opacity="0.1">
<path opacity="0.1" d="M633.996 912.89C659.361 911.405 678.72 889.639 677.236 864.274C675.751 838.909 653.984 819.549 628.619 821.034C603.254 822.519 583.895 844.285 585.38 869.651C586.865 895.016 608.631 914.375 633.996 912.89Z" fill="#6FDD66"/>
</g>
<path d="M622.825 863.183C622.853 862.581 623.073 862.005 623.453 861.539C623.83 861.069 624.344 860.728 624.924 860.563C628.371 859.601 631.92 859.054 635.496 858.932C636.987 858.889 638.479 858.951 639.961 859.119C643.847 859.434 647.56 860.864 650.654 863.236C656.695 868.048 654.664 876.255 654.918 878.046C655.172 879.837 657.871 881.762 657.871 881.762L650.787 890.624C650.787 890.624 648.355 888.458 646.537 888.565C645.695 888.565 643.61 889.461 641.003 889.902H640.87C639.186 890.25 637.448 890.233 635.772 889.852C634.096 889.472 632.521 888.737 631.152 887.696C622.852 881.093 622.598 868.168 622.825 863.183Z" fill="#6FDD66"/>
<path d="M622.825 863.183C622.853 862.581 623.073 862.005 623.453 861.539C623.83 861.069 624.344 860.728 624.924 860.563C628.371 859.601 631.92 859.054 635.496 858.932C636.987 858.889 638.479 858.951 639.961 859.119C643.847 859.434 647.56 860.864 650.654 863.236C656.695 868.048 654.664 876.255 654.918 878.046C655.172 879.837 657.871 881.762 657.871 881.762L650.787 890.624C650.787 890.624 648.355 888.458 646.537 888.565C645.695 888.565 643.61 889.461 641.003 889.902H640.87C639.186 890.25 637.448 890.233 635.772 889.852C634.096 889.472 632.521 888.737 631.152 887.696C622.852 881.093 622.598 868.168 622.825 863.183Z" fill="#6FDD66"/>
<g opacity="0.3">
<path opacity="0.3" d="M625.486 876.321C623.201 871.122 623.401 866.002 625.928 864.906C628.454 863.81 632.343 867.112 634.629 872.311C636.914 877.511 636.714 882.63 634.188 883.739C631.662 884.849 627.772 881.52 625.486 876.321Z" fill="white"/>
</g>
<path d="M649.945 890.477L657.07 881.535L657.537 880.947L662.309 884.757C663.57 885.767 664.379 887.236 664.56 888.842C664.74 890.448 664.277 892.059 663.271 893.324C663.005 893.649 662.71 893.948 662.389 894.22C661.474 894.97 660.359 895.435 659.181 895.557C657.571 895.719 655.961 895.239 654.704 894.22L654.156 893.792L649.945 890.477Z" fill="#338835"/>
<g opacity="0.1">
<path opacity="0.1" d="M420.798 1079.78C438.764 1061.81 438.764 1032.68 420.798 1014.71C402.831 996.747 373.701 996.747 355.735 1014.71C337.768 1032.68 337.768 1061.81 355.735 1079.78C373.701 1097.74 402.831 1097.74 420.798 1079.78Z" fill="#FF0A0A"/>
</g>
<path d="M390.75 1056.22C390.266 1056.58 389.681 1056.77 389.079 1056.78C388.476 1056.78 387.887 1056.59 387.395 1056.24C384.473 1054.17 381.808 1051.77 379.456 1049.07C378.478 1047.94 377.584 1046.74 376.782 1045.48C374.581 1042.27 373.348 1038.49 373.227 1034.59C373.16 1026.86 380.846 1023.31 382.035 1021.95C383.225 1020.58 383.038 1017.33 383.038 1017.33L394.426 1017.23C394.426 1017.23 394.279 1020.48 395.495 1021.83C396.07 1022.45 398.048 1023.54 400.026 1025.29L400.106 1025.38C401.439 1026.47 402.523 1027.83 403.286 1029.37C404.05 1030.91 404.474 1032.59 404.531 1034.31C404.638 1044.91 394.76 1053.26 390.75 1056.22Z" fill="#6FDD66"/>
<path d="M390.75 1056.22C390.266 1056.58 389.681 1056.77 389.079 1056.78C388.476 1056.78 387.887 1056.59 387.395 1056.24C384.473 1054.17 381.808 1051.77 379.456 1049.07C378.478 1047.94 377.584 1046.74 376.782 1045.48C374.581 1042.27 373.348 1038.49 373.227 1034.59C373.16 1026.86 380.846 1023.31 382.035 1021.95C383.225 1020.58 383.038 1017.33 383.038 1017.33L394.426 1017.23C394.426 1017.23 394.279 1020.48 395.495 1021.83C396.07 1022.45 398.048 1023.54 400.026 1025.29L400.106 1025.38C401.439 1026.47 402.523 1027.83 403.286 1029.37C404.05 1030.91 404.474 1032.59 404.531 1034.31C404.638 1044.91 394.76 1053.26 390.75 1056.22Z" fill="#FF0A0A"/>
<g opacity="0.3">
<path opacity="0.3" d="M399.262 1045.87C396.669 1050.93 392.579 1054 390.119 1052.73C387.66 1051.46 387.794 1046.35 390.387 1041.3C392.98 1036.25 397.07 1033.19 399.529 1034.44C401.989 1035.7 401.868 1040.82 399.262 1045.87Z" fill="white"/>
</g>
<path d="M394.826 1017.96L383.465 1018.1H382.703V1012C382.693 1010.38 383.324 1008.83 384.459 1007.68C385.594 1006.52 387.14 1005.87 388.758 1005.85C389.175 1005.85 389.592 1005.89 390.001 1005.97C391.167 1006.2 392.238 1006.76 393.075 1007.6C393.648 1008.17 394.104 1008.84 394.416 1009.57C394.728 1010.31 394.89 1011.11 394.893 1011.91V1012.59L394.826 1017.96Z" fill="#338835"/>
<g opacity="0.1">
<path opacity="0.1" d="M735.595 1657.82C759.425 1649.01 771.598 1622.54 762.783 1598.71C753.967 1574.88 727.503 1562.71 703.672 1571.53C679.842 1580.34 667.67 1606.8 676.485 1630.64C685.3 1654.47 711.764 1666.64 735.595 1657.82Z" fill="#FDD100"/>
</g>
<path d="M718.446 1624.05C717.861 1624.21 717.244 1624.17 716.682 1623.95C716.131 1623.72 715.664 1623.33 715.345 1622.82C713.42 1619.8 711.859 1616.56 710.694 1613.17C710.219 1611.77 709.853 1610.34 709.598 1608.88C708.775 1605.07 709.058 1601.11 710.413 1597.45C713.26 1590.29 721.721 1589.88 723.351 1589.06C724.982 1588.25 726.025 1585.18 726.025 1585.18L736.611 1589.37C736.611 1589.37 735.274 1592.34 735.889 1594.03C736.17 1594.83 737.6 1596.57 738.763 1598.95C738.765 1598.99 738.765 1599.03 738.763 1599.07C739.585 1600.58 740.075 1602.25 740.199 1603.96C740.324 1605.67 740.08 1607.39 739.484 1609C735.568 1618.83 723.271 1622.84 718.446 1624.05Z" fill="#6FDD66"/>
<path d="M718.446 1624.05C717.861 1624.21 717.244 1624.17 716.682 1623.95C716.131 1623.72 715.664 1623.33 715.345 1622.82C713.42 1619.8 711.859 1616.56 710.694 1613.17C710.219 1611.77 709.853 1610.34 709.598 1608.88C708.775 1605.07 709.058 1601.11 710.413 1597.45C713.26 1590.29 721.721 1589.88 723.351 1589.06C724.982 1588.25 726.025 1585.18 726.025 1585.18L736.611 1589.37C736.611 1589.37 735.274 1592.34 735.889 1594.03C736.17 1594.83 737.6 1596.57 738.763 1598.95C738.765 1598.99 738.765 1599.03 738.763 1599.07C739.585 1600.58 740.075 1602.25 740.199 1603.96C740.324 1605.67 740.08 1607.39 739.484 1609C735.568 1618.83 723.271 1622.84 718.446 1624.05Z" fill="#FDD100"/>
<g opacity="0.3">
<path opacity="0.3" d="M730.234 1617.69C725.93 1621.38 720.971 1622.69 719.18 1620.59C717.389 1618.49 719.434 1613.82 723.738 1610.11C728.042 1606.41 733.001 1605.11 734.792 1607.2C736.583 1609.29 734.551 1613.99 730.234 1617.69Z" fill="white"/>
</g>
<path d="M736.651 1590.17L725.958 1585.95L725.25 1585.68L727.509 1580C728.107 1578.5 729.276 1577.3 730.76 1576.66C732.244 1576.02 733.92 1575.99 735.422 1576.59C735.81 1576.74 736.182 1576.94 736.531 1577.16C737.705 1577.93 738.576 1579.08 738.995 1580.42C739.414 1581.76 739.356 1583.2 738.83 1584.5L738.576 1585.16L736.651 1590.17Z" fill="#338835"/>
<g opacity="0.1">
<path opacity="0.1" d="M682.006 1961.85C689.554 1937.58 676.004 1911.8 651.742 1904.25C627.48 1896.7 601.694 1910.25 594.146 1934.51C586.599 1958.78 600.149 1984.56 624.41 1992.11C648.672 1999.66 674.459 1986.11 682.006 1961.85Z" fill="#509CE8"/>
</g>
<path d="M631.406 1941.7C631.631 1941.14 632.041 1940.67 632.569 1940.37C633.085 1940.05 633.69 1939.91 634.293 1939.96C637.855 1940.29 641.367 1941.02 644.759 1942.16C646.17 1942.64 647.546 1943.23 648.876 1943.91C652.397 1945.58 655.366 1948.23 657.43 1951.54C661.44 1958.22 656.548 1965.12 656.2 1966.9C655.853 1968.67 657.657 1971.37 657.657 1971.37L647.887 1977.2C647.887 1977.2 646.376 1974.33 644.639 1973.78C643.823 1973.53 641.578 1973.59 638.985 1973.07H638.865C637.165 1972.81 635.543 1972.18 634.107 1971.24C632.67 1970.29 631.453 1969.05 630.537 1967.59C625.111 1958.46 629.401 1946.27 631.406 1941.7Z" fill="#6FDD66"/>
<path d="M631.406 1941.7C631.631 1941.14 632.041 1940.67 632.569 1940.37C633.085 1940.05 633.69 1939.91 634.293 1939.96C637.855 1940.29 641.367 1941.02 644.759 1942.16C646.17 1942.64 647.546 1943.23 648.876 1943.91C652.397 1945.58 655.366 1948.23 657.43 1951.54C661.44 1958.22 656.548 1965.12 656.2 1966.9C655.853 1968.67 657.657 1971.37 657.657 1971.37L647.887 1977.2C647.887 1977.2 646.376 1974.33 644.639 1973.78C643.823 1973.53 641.578 1973.59 638.985 1973.07H638.865C637.165 1972.81 635.543 1972.18 634.107 1971.24C632.67 1970.29 631.453 1969.05 630.537 1967.59C625.111 1958.46 629.401 1946.27 631.406 1941.7Z" fill="#509CE8"/>
<g opacity="0.3">
<path opacity="0.3" d="M629.251 1954.92C628.957 1949.25 630.949 1944.54 633.689 1944.39C636.429 1944.24 638.915 1948.73 639.223 1954.4C639.53 1960.07 637.539 1964.79 634.785 1964.93C632.032 1965.08 629.559 1960.6 629.251 1954.92Z" fill="white"/>
</g>
<path d="M647.152 1976.79L656.99 1970.95L657.631 1970.55L660.759 1975.8C661.581 1977.19 661.819 1978.84 661.42 1980.41C661.022 1981.97 660.02 1983.31 658.634 1984.14C658.276 1984.36 657.895 1984.54 657.498 1984.67C656.375 1985.07 655.161 1985.12 654.009 1984.82C652.446 1984.42 651.105 1983.41 650.28 1982.03L649.919 1981.43L647.152 1976.79Z" fill="#338835"/>
<g opacity="0.1">
<path opacity="0.1" d="M804.63 765.235C828.461 756.42 840.633 729.955 831.818 706.125C823.003 682.294 796.538 670.122 772.708 678.937C748.877 687.752 736.705 714.217 745.52 738.047C754.335 761.878 780.8 774.05 804.63 765.235Z" fill="#FF0A0A"/>
</g>
<path d="M787.538 731.458C786.953 731.613 786.333 731.571 785.774 731.338C785.221 731.116 784.752 730.722 784.437 730.215C782.513 727.197 780.952 723.963 779.786 720.578C779.31 719.163 778.935 717.716 778.663 716.248C777.839 712.438 778.126 708.471 779.492 704.82C782.339 697.642 790.786 697.241 792.417 696.426C794.048 695.61 795.09 692.536 795.09 692.536L805.69 696.733C805.69 696.733 804.353 699.687 804.955 701.398C805.235 702.187 806.665 703.937 807.828 706.303V706.424C808.653 707.933 809.143 709.602 809.268 711.318C809.392 713.033 809.148 714.755 808.55 716.368C804.661 726.219 792.377 730.229 787.538 731.458Z" fill="#6FDD66"/>
<path d="M787.538 731.458C786.953 731.613 786.333 731.571 785.774 731.338C785.221 731.116 784.752 730.722 784.437 730.215C782.513 727.197 780.952 723.963 779.786 720.578C779.31 719.163 778.935 717.716 778.663 716.248C777.839 712.438 778.126 708.471 779.492 704.82C782.339 697.642 790.786 697.241 792.417 696.426C794.048 695.61 795.09 692.536 795.09 692.536L805.69 696.733C805.69 696.733 804.353 699.687 804.955 701.398C805.235 702.187 806.665 703.937 807.828 706.303V706.424C808.653 707.933 809.143 709.602 809.268 711.318C809.392 713.033 809.148 714.755 808.55 716.368C804.661 726.219 792.377 730.229 787.538 731.458Z" fill="#FF0A0A"/>
<g opacity="0.3">
<path opacity="0.3" d="M799.328 725.083C795.024 728.785 790.065 730.082 788.274 727.996C786.483 725.911 788.528 721.206 792.832 717.517C797.136 713.828 802.094 712.518 803.886 714.603C805.677 716.689 803.645 721.367 799.328 725.083Z" fill="white"/>
</g>
<path d="M805.741 697.574L795.142 693.297L794.434 693.016L796.692 687.349C797.293 685.85 798.463 684.651 799.946 684.012C801.428 683.373 803.104 683.348 804.605 683.94C804.995 684.091 805.367 684.284 805.715 684.515C806.709 685.166 807.49 686.096 807.96 687.188C808.576 688.682 808.576 690.359 807.96 691.853L807.706 692.495L805.741 697.574Z" fill="#338835"/>
<g opacity="0.1">
<path opacity="0.1" d="M839.626 338.721C863.457 329.906 875.629 303.442 866.814 279.611C857.999 255.781 831.534 243.608 807.704 252.423C783.873 261.239 771.701 287.703 780.516 311.534C789.331 335.364 815.796 347.537 839.626 338.721Z" fill="#509CE8"/>
</g>
<path d="M822.556 304.93C821.976 305.088 821.359 305.046 820.805 304.81C820.254 304.584 819.786 304.192 819.469 303.687C817.549 300.666 815.988 297.432 814.817 294.05C814.347 292.633 813.972 291.186 813.695 289.719C812.87 285.909 813.158 281.943 814.523 278.291C817.37 271.114 825.831 270.713 827.448 269.897C829.066 269.082 830.122 266.008 830.122 266.008L840.708 270.205C840.708 270.205 839.371 273.159 839.972 274.87C840.266 275.658 841.683 277.409 842.846 279.775C842.851 279.815 842.851 279.855 842.846 279.895C843.67 281.405 844.161 283.074 844.286 284.789C844.41 286.505 844.166 288.227 843.568 289.84C839.678 299.691 827.395 303.7 822.556 304.93Z" fill="#6FDD66"/>
<path d="M822.556 304.93C821.976 305.088 821.359 305.046 820.805 304.81C820.254 304.584 819.786 304.192 819.469 303.687C817.549 300.666 815.988 297.432 814.817 294.05C814.347 292.633 813.972 291.186 813.695 289.719C812.87 285.909 813.158 281.943 814.523 278.291C817.37 271.114 825.831 270.713 827.448 269.897C829.066 269.082 830.122 266.008 830.122 266.008L840.708 270.205C840.708 270.205 839.371 273.159 839.972 274.87C840.266 275.658 841.683 277.409 842.846 279.775C842.851 279.815 842.851 279.855 842.846 279.895C843.67 281.405 844.161 283.074 844.286 284.789C844.41 286.505 844.166 288.227 843.568 289.84C839.678 299.691 827.395 303.7 822.556 304.93Z" fill="#509CE8"/>
<g opacity="0.3">
<path opacity="0.3" d="M834.358 298.555C830.041 302.258 825.096 303.554 823.291 301.469C821.487 299.384 823.545 294.679 827.849 290.99C832.153 287.301 837.112 285.991 838.916 288.076C840.721 290.161 838.662 294.866 834.358 298.555Z" fill="white"/>
</g>
<path d="M840.759 271.047L830.066 266.823L829.371 266.543L831.617 260.875C832.215 259.374 833.384 258.172 834.868 257.533C836.351 256.894 838.028 256.87 839.529 257.467C839.922 257.621 840.298 257.813 840.652 258.042C841.82 258.815 842.685 259.967 843.101 261.304C843.517 262.641 843.46 264.08 842.938 265.38L842.697 266.021L840.759 271.047Z" fill="#338835"/>
<g opacity="0.1">
<path opacity="0.1" d="M697.992 774.285C702.064 749.204 685.032 725.572 659.952 721.501C634.871 717.43 611.239 734.462 607.168 759.542C603.097 784.622 620.129 808.254 645.209 812.326C670.289 816.397 693.921 799.365 697.992 774.285Z" fill="#FDD100"/>
</g>
<path d="M645.053 761.464C645.199 760.88 645.538 760.362 646.016 759.994C646.487 759.611 647.067 759.387 647.673 759.352C651.253 759.172 654.841 759.41 658.366 760.061C659.831 760.345 661.274 760.734 662.683 761.224C666.401 762.379 669.709 764.578 672.213 767.559C677.065 773.574 673.243 781.139 673.162 782.944C673.082 784.748 675.234 787.181 675.234 787.181L666.359 794.318C666.359 794.318 664.461 791.645 662.67 791.391C661.841 791.244 659.609 791.632 656.976 791.471H656.842C655.125 791.444 653.434 791.049 651.883 790.313C650.331 789.578 648.955 788.519 647.847 787.207C641.177 778.84 643.743 766.209 645.053 761.464Z" fill="#6FDD66"/>
<path d="M645.053 761.464C645.199 760.88 645.538 760.362 646.016 759.994C646.487 759.611 647.067 759.387 647.673 759.352C651.253 759.172 654.841 759.41 658.366 760.061C659.831 760.345 661.274 760.734 662.683 761.224C666.401 762.379 669.709 764.578 672.213 767.559C677.065 773.574 673.243 781.139 673.162 782.944C673.082 784.748 675.234 787.181 675.234 787.181L666.359 794.318C666.359 794.318 664.461 791.645 662.67 791.391C661.841 791.244 659.609 791.632 656.976 791.471H656.842C655.125 791.444 653.434 791.049 651.883 790.313C650.331 789.578 648.955 788.519 647.847 787.207C641.177 778.84 643.743 766.209 645.053 761.464Z" fill="#FDD100"/>
<g opacity="0.3">
<path opacity="0.3" d="M644.786 774.833C643.69 769.259 645 764.314 647.7 763.779C650.4 763.245 653.487 767.348 654.583 772.922C655.679 778.495 654.369 783.441 651.656 783.962C648.943 784.484 645.882 780.367 644.786 774.833Z" fill="white"/>
</g>
<path d="M665.57 793.933L674.486 786.768L675.06 786.287L678.896 791.045C679.908 792.306 680.378 793.916 680.203 795.523C680.027 797.13 679.221 798.601 677.961 799.613C677.637 799.874 677.287 800.102 676.918 800.295C675.669 800.932 674.239 801.119 672.868 800.824C671.497 800.53 670.27 799.772 669.393 798.678L668.952 798.143L665.57 793.933Z" fill="#338835"/>
<g opacity="0.1">
<path opacity="0.1" d="M855.469 1720.1C873.436 1702.14 873.436 1673.01 855.469 1655.04C837.503 1637.08 808.373 1637.08 790.406 1655.04C772.44 1673.01 772.44 1702.14 790.407 1720.1C808.373 1738.07 837.503 1738.07 855.469 1720.1Z" fill="#6FDD66"/>
</g>
<path d="M825.949 1696.4C825.487 1696.8 824.91 1697.03 824.305 1697.06C823.702 1697.1 823.104 1696.94 822.594 1696.62C819.561 1694.73 816.761 1692.48 814.254 1689.93C813.219 1688.86 812.259 1687.72 811.38 1686.51C808.99 1683.42 807.542 1679.71 807.21 1675.82C806.688 1668.12 814.147 1664.12 815.229 1662.68C816.312 1661.24 815.951 1658.04 815.951 1658.04L827.312 1657.27C827.312 1657.27 827.312 1660.52 828.649 1661.79C829.25 1662.39 831.322 1663.35 833.354 1664.99C833.391 1665.01 833.423 1665.04 833.447 1665.07C834.841 1666.08 836.002 1667.38 836.853 1668.87C837.704 1670.36 838.224 1672.02 838.38 1673.73C839.155 1684.31 829.785 1693.22 825.949 1696.4Z" fill="#6FDD66"/>
<path d="M825.949 1696.4C825.487 1696.8 824.91 1697.03 824.305 1697.06C823.702 1697.1 823.104 1696.94 822.594 1696.62C819.561 1694.73 816.761 1692.48 814.254 1689.93C813.219 1688.86 812.259 1687.72 811.38 1686.51C808.99 1683.42 807.542 1679.71 807.21 1675.82C806.688 1668.12 814.147 1664.12 815.229 1662.68C816.312 1661.24 815.951 1658.04 815.951 1658.04L827.312 1657.27C827.312 1657.27 827.312 1660.52 828.649 1661.79C829.25 1662.39 831.322 1663.35 833.354 1664.99C833.391 1665.01 833.423 1665.04 833.447 1665.07C834.841 1666.08 836.002 1667.38 836.853 1668.87C837.704 1670.36 838.224 1672.02 838.38 1673.73C839.155 1684.31 829.785 1693.22 825.949 1696.4Z" fill="#6FDD66"/>
<g opacity="0.3">
<path opacity="0.3" d="M833.904 1685.58C831.605 1690.78 827.702 1694.08 825.176 1692.96C822.649 1691.83 822.502 1686.73 824.788 1681.54C827.074 1676.36 830.99 1673.04 833.516 1674.15C836.042 1675.26 836.149 1680.39 833.904 1685.58Z" fill="white"/>
</g>
<path d="M827.81 1657.98L816.395 1658.74H815.646L815.232 1652.66C815.126 1651.04 815.664 1649.45 816.73 1648.24C817.795 1647.02 819.3 1646.28 820.913 1646.17C821.33 1646.13 821.751 1646.13 822.169 1646.17C823.558 1646.36 824.839 1647.03 825.792 1648.06C826.746 1649.09 827.312 1650.41 827.395 1651.81V1652.5L827.81 1657.98Z" fill="#338835"/>
<g opacity="0.1">
<path opacity="0.1" d="M662.098 2450.22C680.065 2432.25 680.065 2403.12 662.098 2385.15C644.132 2367.19 615.002 2367.19 597.035 2385.15C579.069 2403.12 579.069 2432.25 597.036 2450.22C615.002 2468.18 644.132 2468.18 662.098 2450.22Z" fill="#6FDD66"/>
</g>
<path d="M632.569 2426.49C632.11 2426.88 631.538 2427.11 630.938 2427.15C630.337 2427.19 629.739 2427.04 629.227 2426.72C626.193 2424.82 623.39 2422.58 620.873 2420.04C619.839 2418.96 618.879 2417.82 618 2416.62C615.615 2413.52 614.168 2409.81 613.829 2405.92C613.322 2398.21 620.78 2394.21 621.849 2392.78C622.918 2391.35 622.571 2388.13 622.571 2388.13L633.932 2387.36C633.932 2387.36 633.932 2390.62 635.269 2391.88C635.87 2392.48 637.942 2393.44 639.987 2395.08C639.987 2395.08 639.987 2395.08 640.081 2395.16C641.472 2396.17 642.63 2397.47 643.479 2398.96C644.327 2400.46 644.846 2402.11 644.999 2403.82C645.775 2414.4 636.405 2423.31 632.569 2426.49Z" fill="#6FDD66"/>
<path d="M632.569 2426.49C632.11 2426.88 631.538 2427.11 630.938 2427.15C630.337 2427.19 629.739 2427.04 629.227 2426.72C626.193 2424.82 623.39 2422.58 620.873 2420.04C619.839 2418.96 618.879 2417.82 618 2416.62C615.615 2413.52 614.168 2409.81 613.829 2405.92C613.322 2398.21 620.78 2394.21 621.849 2392.78C622.918 2391.35 622.571 2388.13 622.571 2388.13L633.932 2387.36C633.932 2387.36 633.932 2390.62 635.269 2391.88C635.87 2392.48 637.942 2393.44 639.987 2395.08C639.987 2395.08 639.987 2395.08 640.081 2395.16C641.472 2396.17 642.63 2397.47 643.479 2398.96C644.327 2400.46 644.846 2402.11 644.999 2403.82C645.775 2414.4 636.405 2423.31 632.569 2426.49Z" fill="#6FDD66"/>
<g opacity="0.3">
<path opacity="0.3" d="M640.479 2415.67C638.167 2420.87 634.264 2424.17 631.751 2423.04C629.238 2421.92 629.078 2416.82 631.35 2411.63C633.622 2406.44 637.565 2403.13 640.078 2404.25C642.591 2405.37 642.765 2410.48 640.479 2415.67Z" fill="white"/>
</g>
<path d="M634.426 2388.13L623.025 2388.89H622.263L621.862 2382.81C621.807 2382.01 621.911 2381.21 622.168 2380.45C622.424 2379.69 622.827 2378.99 623.355 2378.39C623.883 2377.79 624.525 2377.3 625.243 2376.94C625.962 2376.59 626.743 2376.38 627.542 2376.33C627.956 2376.29 628.372 2376.29 628.785 2376.33C630.175 2376.52 631.456 2377.19 632.411 2378.22C633.366 2379.24 633.936 2380.57 634.025 2381.97V2382.65L634.426 2388.13Z" fill="#338835"/>
<g opacity="0.1">
<path opacity="0.1" d="M303.109 942.745C317.993 922.152 313.366 893.392 292.774 878.508C272.181 863.623 243.421 868.25 228.537 888.843C213.652 909.435 218.279 938.195 238.872 953.08C259.464 967.964 288.224 963.337 303.109 942.745Z" fill="#6FDD66"/>
</g>
<path d="M261.55 907.613C261.943 907.155 262.48 906.844 263.073 906.73C263.661 906.601 264.274 906.662 264.824 906.904C268.107 908.341 271.208 910.163 274.06 912.331C275.246 913.236 276.363 914.227 277.402 915.298C280.208 918.002 282.179 921.453 283.083 925.243C284.713 932.795 277.91 937.834 277.014 939.411C276.119 940.988 277.014 944.116 277.014 944.116L265.84 946.535C265.84 946.535 265.319 943.327 263.849 942.258C263.167 941.763 261.002 941.095 258.716 939.785L258.609 939.705C257.086 938.911 255.75 937.8 254.691 936.447C253.633 935.093 252.877 933.529 252.474 931.859C250.242 921.5 258.222 911.315 261.55 907.613Z" fill="#6FDD66"/>
<path d="M261.55 907.613C261.943 907.155 262.48 906.844 263.073 906.73C263.661 906.601 264.274 906.662 264.824 906.904C268.107 908.341 271.208 910.163 274.06 912.331C275.246 913.236 276.363 914.227 277.402 915.298C280.208 918.002 282.179 921.453 283.083 925.243C284.713 932.795 277.91 937.834 277.014 939.411C276.119 940.988 277.014 944.116 277.014 944.116L265.84 946.535C265.84 946.535 265.319 943.327 263.849 942.258C263.167 941.763 261.002 941.095 258.716 939.785L258.609 939.705C257.086 938.911 255.75 937.8 254.691 936.447C253.633 935.093 252.877 933.529 252.474 931.859C250.242 921.5 258.222 911.315 261.55 907.613Z" fill="#6FDD66"/>
<g opacity="0.3">
<path opacity="0.3" d="M255.308 919.466C256.819 914 260.214 910.11 262.86 910.899C265.507 911.687 266.442 916.673 264.919 922.14C263.395 927.606 260.013 931.496 257.353 930.707C254.694 929.919 253.811 924.933 255.308 919.466Z" fill="white"/>
</g>
<path d="M265.293 945.92L276.48 943.514L277.216 943.354L278.552 949.315C278.721 950.096 278.735 950.903 278.591 951.689C278.448 952.475 278.152 953.226 277.719 953.897C277.285 954.569 276.724 955.148 276.067 955.603C275.409 956.057 274.669 956.378 273.887 956.546C273.475 956.64 273.054 956.689 272.631 956.693C271.445 956.706 270.282 956.366 269.289 955.717C268.613 955.286 268.028 954.725 267.569 954.066C267.111 953.408 266.787 952.665 266.616 951.881L266.469 951.199L265.293 945.92Z" fill="#338835"/>
</svg>
