<svg width="170" height="323" viewBox="0 0 170 323" fill="none" xmlns="http://www.w3.org/2000/svg">
<g clip-path="url(#clip0_257_2533)">
<g style="mix-blend-mode:multiply" opacity="0.36">
<path d="M81.8896 322.691C126.699 320.85 162.688 311.181 162.274 301.093C161.861 291.005 125.201 284.319 80.3917 286.16C35.5827 288 -0.406864 297.67 0.00677592 307.758C0.420416 317.845 37.0806 324.531 81.8896 322.691Z" fill="#606060"/>
</g>
<path d="M18.4708 257.89C22.2611 270.722 30.198 282.122 40.1519 291.059C44.1972 294.695 48.6362 297.986 53.6487 300.065C58.4551 302.064 63.6476 302.909 68.7877 303.685C76.4846 304.841 84.2865 305.873 92.0322 305.032C98.3382 304.35 104.438 302.44 110.493 300.53L131.334 293.986C136.703 292.301 142.207 290.538 146.574 286.973C149.784 284.347 152.198 280.887 154.493 277.443C156.663 274.204 158.812 270.891 160.041 267.195C160.445 265.982 160.757 264.741 160.975 263.481C161.65 259.672 161.597 255.714 161.533 251.826C161.421 244.817 161.301 237.729 159.494 230.957C157.713 224.293 154.346 218.199 150.121 212.755C145.06 206.215 136.875 196.298 128.342 193.041C126.811 192.435 125.194 192.076 123.551 191.975C109.458 191.281 95.6763 187.169 81.6172 185.972C67.258 184.756 51.8979 186.411 40.3019 194.977C35.758 198.328 31.9789 202.609 28.5447 207.089C25.7366 210.744 23.1272 214.575 21.1027 218.721C15.2316 230.78 14.6842 245.065 18.4708 257.89Z" fill="#FDFFFF"/>
<g style="mix-blend-mode:multiply" opacity="0.11">
<path d="M18.4681 257.89C22.2584 270.722 30.1953 282.122 40.1492 291.059C44.1945 294.695 48.6335 297.986 53.646 300.065C58.4524 302.064 63.6449 302.909 68.785 303.685C76.4819 304.841 84.2838 305.873 92.0295 305.032C98.3355 304.35 104.435 302.44 110.49 300.53L131.332 293.986C136.7 292.301 142.204 290.538 146.572 286.973C149.781 284.347 152.195 280.887 154.49 277.443C156.661 274.204 158.809 270.891 160.039 267.195C160.442 265.982 160.754 264.741 160.972 263.481C159.075 265.95 157.114 268.359 155.026 270.685C146.508 280.14 135.009 288.084 122.289 288.005L128.505 280.546C119.724 286.065 110.764 291.66 100.72 294.234C90.6761 296.808 79.1888 295.911 71.1244 289.39L79.0801 283.701C72.5566 284.984 65.9582 285.953 59.3485 286.583C58.1937 286.695 56.9903 286.789 55.9105 286.362C54.902 285.964 54.1184 285.146 53.4098 284.313C43.5197 272.659 42.2412 253.691 28.7631 246.479C37.0112 242.757 39.167 230.052 32.636 223.805C34.9305 216.65 44.337 214.995 49.552 209.584L58.6174 215.618C59.241 214.874 59.6807 213.993 59.9008 213.047C60.121 212.101 60.1154 211.117 59.8846 210.173C62.2368 213.248 65.3507 215.655 68.9181 217.156C72.4854 218.657 76.3825 219.198 80.2235 218.728C82.2331 218.454 84.3101 217.907 86.2446 218.511C87.5493 218.92 88.6741 219.831 89.9938 220.117C93.4692 220.867 96.2285 217.377 99.3666 215.663C102.789 213.787 106.936 214.057 110.824 213.648C114.712 213.239 119.072 211.595 120.279 207.877C120.894 206.001 120.59 203.843 121.55 202.11C121.757 201.705 122.065 201.361 122.445 201.111C122.825 200.861 123.263 200.714 123.716 200.685C124.17 200.655 124.623 200.744 125.032 200.942C125.441 201.141 125.791 201.442 126.049 201.817C126.953 198.286 127.924 195.776 128.377 193.041C126.846 192.435 125.229 192.076 123.586 191.975C109.493 191.281 95.7112 187.169 81.652 185.972C67.2928 184.756 51.9327 186.411 40.3367 194.977C35.7927 198.328 32.0136 202.609 28.5794 207.089C25.7713 210.744 23.162 214.575 21.1374 218.721C15.2288 230.78 14.6815 245.065 18.4681 257.89Z" fill="#606060"/>
</g>
<path d="M124.295 150.654C131.831 159.487 133.094 172.098 132.022 183.673C131.82 185.861 131.535 188.078 130.639 190.082C129.308 193.054 126.766 195.275 124.295 197.399L112.976 207.154C110.629 209.169 108.223 211.225 105.325 212.314C103.131 213.139 100.762 213.364 98.4224 213.548C87.0926 214.434 75.4553 214.46 64.6541 210.922C53.8528 207.383 43.914 199.755 39.9286 189.099C37.188 181.771 37.4317 173.677 38.2565 165.892C38.5827 162.83 39.0064 159.757 39.8949 156.811C41.522 151.494 44.7088 146.737 48.6041 142.771C50.3999 140.939 52.3944 139.236 54.7676 138.268C57.8644 136.992 61.3399 137.071 64.6766 137.349C70.354 137.824 75.9746 138.829 81.4651 140.35C84.7831 141.27 88.2135 142.392 91.5878 141.851C94.0397 141.476 96.3304 140.238 98.8086 140.129C101.605 140.005 104.219 141.255 106.985 141.341C108.706 141.397 110.701 140.444 112.365 140.786C116.369 141.57 121.731 147.648 124.295 150.654Z" fill="#FDFFFF"/>
<g style="mix-blend-mode:multiply" opacity="0.42">
<path d="M97.8328 220.238L98.5564 224.684C98.5564 224.684 88.5125 228.061 79.061 227.979C69.6095 227.896 65.1893 227.453 65.1893 227.453C65.1893 227.453 71.3003 220.816 68.8896 207.105C66.479 193.395 57.0199 176.577 55.3104 170.461C53.6008 164.345 52.491 156.605 52.5473 152.076L52.5997 147.535C52.5997 147.535 49.2255 142.222 50.0578 139.363C50.8901 136.504 53.432 137.78 53.432 137.78L115.667 142.631C115.667 142.631 121.703 147.044 104.967 153.757C88.2313 160.469 78.2662 159.482 78.2662 159.482L77.5164 173.174L82.4502 201.567L97.8328 220.238Z" fill="#606060"/>
</g>
<path d="M54.2649 154.79C55.4998 165.517 58.3541 175.995 62.7304 185.865C65.6172 192.36 69.1639 198.623 71.0872 205.452C73.0105 212.281 73.1155 220.063 69.3439 226.089C76.3855 226.307 83.4331 225.939 90.414 224.99C93.9306 224.509 97.691 223.748 100.124 221.155C98.9428 217.999 97.4797 214.956 95.7527 212.063C91.6287 204.934 86.5111 198.289 83.7068 190.552C81.8322 185.441 81.0599 180.016 79.9052 174.695C78.6746 169.014 77.019 163.434 74.9526 158.002C74.2028 156.017 73.333 153.848 72.8718 151.642C72.4482 149.862 72.4482 148.007 72.8718 146.227C73.8578 142.509 77.2733 140.918 79.2453 137.905C83.9317 130.723 69.835 128.952 65.3474 130.524C60.6047 132.179 56.9081 136.228 55.161 140.952C54.9435 141.541 54.7598 142.137 54.6024 142.741C53.5826 146.659 53.8075 150.775 54.2649 154.79Z" fill="#A83131"/>
<g style="mix-blend-mode:multiply" opacity="0.42">
<path d="M54.2636 154.789C55.0421 161.554 56.4658 168.228 58.5151 174.721C58.6662 170.16 58.2443 165.598 57.2591 161.142C56.5918 158.14 55.737 154.763 57.4353 152.189C61.8593 159.281 63.0965 168.29 68.7689 174.436C66.5045 167.932 64.4349 161.378 62.5604 154.774C62.3542 154.061 62.2492 153.104 62.9053 152.752C65.4397 154.091 67.5279 156.129 69.5825 158.106C71.1758 159.652 72.7842 161.217 73.9202 163.123C75.2586 165.374 75.8622 167.982 76.4321 170.545C78.078 177.944 79.6151 185.433 82.6444 192.382C83.9844 195.414 85.5627 198.335 87.3645 201.117C89.869 205.012 92.767 208.562 95.7513 212.063C91.6273 204.933 86.5097 198.288 83.7054 190.551C81.8308 185.441 81.0585 180.015 79.9038 174.695C78.6732 169.014 77.0177 163.433 74.9512 158.001C74.2014 156.016 73.3316 153.847 72.8704 151.641C71.3333 150.433 69.7774 149.247 68.2253 148.058C65.3872 145.896 62.5341 143.72 59.3511 142.107C58.0652 141.454 56.5468 140.914 55.1371 140.951C54.9196 141.54 54.7359 142.137 54.5785 142.741C53.5812 146.658 53.8062 150.774 54.2636 154.789Z" fill="#606060"/>
</g>
<path d="M52.9238 145.673C53.2511 145.999 53.5979 146.305 53.9623 146.589C56.5529 148.652 59.8596 149.725 62.9002 151.129C66.1394 152.63 69.1799 154.547 72.5316 155.77C73.129 155.988 73.7263 156.182 74.3237 156.352C83.7752 159.035 94.0853 156.16 103.398 152.708C106.652 151.504 109.955 150.183 112.568 147.898C116.85 144.146 118.192 138.004 113.525 134.015L113.36 133.876C110.015 131.156 106.656 132.068 102.603 132.259C90.7676 132.812 78.9912 130.281 68.4264 124.912C64.1899 122.755 60.1446 120.136 55.6006 118.747C55.0534 118.527 54.4535 118.474 53.876 118.593C52.9387 118.879 52.4926 119.922 52.1627 120.845C51.7878 121.865 51.4354 122.897 51.0867 123.929C50.0294 127.066 49.1447 130.255 48.946 133.546C48.6873 137.932 49.812 142.589 52.9238 145.673Z" fill="#A83131"/>
<g style="mix-blend-mode:multiply" opacity="0.42">
<path d="M51.0859 123.935C51.3769 124.759 51.7135 125.566 52.0944 126.352C53.0654 128.453 54.0815 130.558 55.4686 132.404C56.3192 133.507 57.2761 134.524 58.3255 135.439C59.5409 136.509 60.8138 137.511 62.1383 138.441C65.655 140.948 69.4191 143.27 73.5169 144.55C74.3951 144.826 75.289 145.051 76.1938 145.221C79.6917 145.874 83.2834 145.664 86.8338 145.454C89.7056 145.285 92.5962 145.113 95.4042 144.478C99.3483 143.585 103.026 141.796 106.652 140.025C108.192 139.274 109.752 138.524 111.068 137.398C112.157 136.485 112.941 135.261 113.318 133.89C109.973 131.169 106.614 132.081 102.561 132.273C90.7256 132.826 78.9492 130.294 68.3844 124.926C64.1479 122.768 60.1025 120.149 55.5586 118.761C55.0114 118.541 54.4115 118.488 53.834 118.607C52.8967 118.892 52.4506 119.935 52.1207 120.858C51.802 121.875 51.4346 122.907 51.0859 123.935Z" fill="#606060"/>
</g>
<path d="M75.8628 140.464C76.838 140.716 77.8253 140.919 78.8209 141.072C98.2825 144.074 118.711 136.944 120.669 108.518C121.61 94.8186 113.894 86.0422 105.65 80.6203C100.016 77.0113 93.8119 74.3827 87.3014 72.8457C70.1904 69.7502 48.7717 83.5245 46.8109 100.117C44.9251 115.861 57.9083 135.879 75.8628 140.464Z" fill="#FDFFFF"/>
<g style="mix-blend-mode:multiply" opacity="0.11">
<path d="M75.8631 140.463C69.4661 134.757 64.4943 127.629 61.3465 119.653C59.0183 113.65 57.8186 107.121 58.5872 100.727C59.3557 94.3332 62.2051 88.0971 67.0189 83.8421C69.2684 86.0146 72.4327 86.8889 75.5144 87.3391C85.9145 88.84 96.1945 86.1122 105.204 80.9041L105.669 80.634C100.035 77.025 93.8309 74.3963 87.3204 72.8594C70.2094 69.7639 48.7907 83.5382 46.8299 100.13C44.9254 115.86 57.9086 135.877 75.8631 140.463Z" fill="#606060"/>
</g>
<path d="M67.8945 75.3398C67.8945 75.3398 71.2987 80.0113 80.5853 82.6604C81.65 82.9643 82.7973 83.2457 84.027 83.4821C95.9229 85.8235 107.485 80.3115 107.485 80.3115C106.711 77.8067 106.085 75.2583 105.611 72.6795C105.438 71.7753 105.281 70.8597 105.138 69.9404C104.662 66.8936 104.343 63.7831 104.152 60.665C104.096 59.7232 104.051 58.7889 104.017 57.8471C103.875 54.1212 103.897 50.414 104.017 46.8119C104.055 45.8251 104.107 44.8383 104.16 43.8702C104.332 40.7934 104.587 37.8179 104.88 35.015C104.981 34.0545 105.086 33.1127 105.198 32.1971C105.869 26.5238 106.698 21.691 107.328 18.314C107.928 15.1622 108.37 13.2786 108.396 13.166C107.601 13.7038 106.822 14.2504 106.057 14.8057C105.434 15.256 104.822 15.7125 104.22 16.1753C99.5959 19.719 95.3269 23.7038 91.4727 28.0735C90.7929 28.8389 90.1355 29.6069 89.5007 30.3773C87.7461 32.4935 86.1265 34.636 84.6268 36.756C84.0795 37.539 83.5458 38.3257 83.026 39.1162C81.2039 41.8928 79.5805 44.6507 78.1521 47.3297C77.5073 48.5304 76.9012 49.7124 76.3338 50.8755C74.5047 54.6257 72.8863 58.4752 71.4862 62.406C70.9801 63.8206 70.5414 65.1526 70.159 66.3796C69.2211 69.317 68.4648 72.3094 67.8945 75.3398Z" fill="#A83131"/>
<path d="M101.598 10.5363C101.838 12.6559 102.759 14.6402 104.222 16.1909C104.482 16.4572 104.757 16.7078 105.047 16.9413C105.733 17.5144 106.503 17.9777 107.33 18.3146C108.661 18.8715 110.113 19.0732 111.544 18.9C116.418 18.3221 119.886 13.6469 119.267 8.42761C119.094 6.79509 118.505 5.23424 117.558 3.89371C116.611 2.55317 115.337 1.47758 113.857 0.769383C112.439 0.112236 110.866 -0.139682 109.313 0.0414573C104.462 0.638056 100.983 5.3283 101.598 10.5363Z" fill="#FDFFFF"/>
<path d="M107.851 105.303C109.017 105.165 109.781 103.519 109.557 101.625C109.333 99.7319 108.207 98.3091 107.041 98.4472C105.875 98.5853 105.111 100.232 105.335 102.125C105.559 104.019 106.686 105.441 107.851 105.303Z" fill="#070101"/>
<path d="M80.7344 105.85C81.9002 105.712 82.6639 104.065 82.44 102.172C82.2161 100.279 81.0894 98.856 79.9235 98.9941C78.7577 99.1322 77.994 100.779 78.2179 102.672C78.4418 104.566 79.5685 105.988 80.7344 105.85Z" fill="#070101"/>
<path d="M86.8797 96.2333C85.8787 95.7005 84.9752 95.1339 83.8504 94.8712C82.693 94.6245 81.5064 94.5436 80.3262 94.6311C77.4432 94.7999 74.6201 95.5917 71.902 96.5072C71.7295 96.5672 71.5795 96.3346 71.7407 96.222C74.2939 94.391 77.4169 93.5505 80.5362 93.4529C81.8002 93.3788 83.0676 93.5183 84.2853 93.8656C85.41 94.2409 86.651 94.8374 87.1459 95.9706C87.16 96.007 87.1631 96.0468 87.1547 96.0849C87.1464 96.1231 87.1271 96.1579 87.0991 96.1851C87.0711 96.2124 87.0357 96.2307 86.9974 96.238C86.959 96.2452 86.9194 96.2409 86.8834 96.2258L86.8797 96.2333Z" fill="#070101"/>
<path d="M102.685 95.4938C103.678 94.946 104.559 94.3682 105.684 94.0867C106.838 93.8207 108.023 93.7222 109.205 93.7941C112.088 93.9179 114.922 94.6646 117.655 95.5501C117.828 95.6064 117.978 95.37 117.813 95.2574C115.233 93.4676 112.099 92.6759 108.976 92.6309C107.709 92.5726 106.441 92.7313 105.227 93.0999C104.102 93.4751 102.876 94.1055 102.396 95.2462C102.332 95.3962 102.509 95.5839 102.662 95.4976L102.685 95.4938Z" fill="#070101"/>
<path d="M73.7992 115.531C75.1123 117.364 76.5758 119.085 78.1744 120.675C79.8097 122.249 81.6603 123.582 83.6706 124.634C85.7851 125.729 88.1021 126.487 90.5053 126.442C93.0922 126.397 95.6228 125.639 98.041 124.776C99.3368 124.323 100.604 123.792 101.835 123.185C102.401 122.9 102.96 122.63 103.526 122.315C104.152 121.958 104.827 121.684 105.434 121.302C105.933 120.986 106.66 121.591 106.207 122.09C105.799 122.607 105.342 123.083 104.842 123.512C104.315 123.901 103.767 124.261 103.2 124.589C102.064 125.211 100.879 125.738 99.6568 126.165C97.0662 127.125 94.3556 127.996 91.5775 128.112C86.4787 128.322 81.5899 125.722 77.9082 122.352C75.874 120.573 74.2375 118.384 73.1056 115.929C73.0805 115.842 73.0855 115.749 73.12 115.666C73.1544 115.582 73.2161 115.513 73.2951 115.47C73.374 115.426 73.4654 115.41 73.5543 115.426C73.6432 115.441 73.7243 115.486 73.7842 115.553L73.7992 115.531Z" fill="#070101"/>
<path d="M96.5041 107.389L126.272 126.78L91.8664 120.653C91.8664 120.653 86.7451 111.058 96.5041 107.389Z" fill="#FF9A15"/>
<path d="M112.629 174.875C115.977 174.875 118.691 172.158 118.691 168.808C118.691 165.457 115.977 162.74 112.629 162.74C109.281 162.74 106.566 165.457 106.566 168.808C106.566 172.158 109.281 174.875 112.629 174.875Z" fill="#070101"/>
<path d="M115.066 195.482C118.414 195.482 121.129 192.766 121.129 189.415C121.129 186.064 118.414 183.348 115.066 183.348C111.718 183.348 109.004 186.064 109.004 189.415C109.004 192.766 111.718 195.482 115.066 195.482Z" fill="#070101"/>
<path d="M25.4317 85.7827C25.0567 89.3586 25.1692 93.137 25.2367 96.7354C25.2929 99.996 25.5029 103.26 25.8628 106.491C26.6208 113.219 28.292 119.813 30.8304 126.089C33.406 132.467 37.0352 138.223 40.5781 144.099C42.2989 146.955 43.9523 149.863 45.7781 152.651C47.5102 155.277 51.1356 158.579 50.3108 162.031C49.6472 164.808 46.2318 165.922 44.3122 163.566C43.7798 162.902 43.5361 162.189 43.15 161.453C42.6887 160.713 42.1777 160.004 41.6204 159.333C40.6643 158.005 39.7833 156.624 38.9397 155.206C37.0352 152.054 35.2994 148.797 33.511 145.578C30.1368 139.484 26.5939 133.484 24.6631 126.745C22.8138 120.076 21.8743 113.187 21.87 106.266C21.8403 102.83 22.0458 99.3964 22.4849 95.9887C22.9385 92.4504 23.932 89.1259 24.7606 85.6739C24.7817 85.5935 24.8316 85.5237 24.9009 85.4779C24.9701 85.432 25.0539 85.4134 25.136 85.4255C25.2182 85.4375 25.293 85.4795 25.3462 85.5434C25.3993 85.6072 25.4271 85.6884 25.4242 85.7715L25.4317 85.7827Z" fill="#B18056"/>
<path d="M35.1707 97.9104C35.9205 100.661 35.7631 103.663 36.1942 106.484C36.4182 107.984 36.7312 109.468 37.1315 110.931C37.5064 112.221 38.1887 113.557 38.3574 114.874C38.6349 117.095 36.4492 119.317 35.4369 121.136C34.1322 123.489 32.8125 126.119 32.5276 128.832C32.0964 133.226 24.5269 130.963 27.3463 126.581C28.7035 124.48 29.6933 122.108 30.9867 119.962C31.6308 118.855 32.3328 117.783 33.0899 116.75C33.4649 116.27 34.031 115.797 34.3047 115.249C34.5783 114.701 34.5708 115.043 34.3796 114.184C33.7106 111.416 33.2903 108.595 33.1237 105.753C33.0112 103.182 32.9775 100.229 34.136 97.8729C34.3234 97.4977 35.032 97.3776 35.1707 97.8729V97.9104Z" fill="#A6774C"/>
<path d="M15.5554 86.5143C15.9303 88.9457 16.6051 91.2945 16.9351 93.7522C17.2312 95.9585 17.2575 99.0466 18.341 101.013L17.4974 100.153C20.1893 101.08 23.0874 102.056 24.6208 104.656C26.3604 107.635 22.555 110.768 20.2568 107.973C19.6532 107.223 18.8733 106.438 18.4609 105.583C18.3335 105.317 17.9886 104.724 18.326 105.155C18.0094 104.803 17.6476 104.493 17.25 104.236C15.6903 103.08 15.0755 101.853 14.7568 99.9434C14.3926 97.7629 14.1423 95.5648 14.007 93.3583C13.857 90.9606 14.2957 88.8556 14.5769 86.4992C14.597 86.3845 14.657 86.2806 14.7461 86.2057C14.8352 86.1309 14.9479 86.0898 15.0643 86.0898C15.1806 86.0898 15.2932 86.1309 15.3824 86.2057C15.4715 86.2806 15.5314 86.3845 15.5516 86.4992L15.5554 86.5143Z" fill="#A6774C"/>
<path d="M156.496 111.672C156.706 114.111 155.746 116.637 155.041 118.937C154.291 121.443 153.452 123.931 152.514 126.373C150.727 131.049 148.466 135.529 145.766 139.743C143.277 143.68 140.291 147.28 136.881 150.451C135.246 151.952 133.21 153.048 131.729 154.699C131.045 155.377 130.485 156.169 130.072 157.04C129.491 158.473 129.105 159.359 127.541 160.042C125.899 160.744 124.272 159.805 123.511 158.342C121.134 153.791 128.591 150.177 131.508 148.279C135.528 145.721 139.068 142.478 141.968 138.696C144.967 134.733 147.269 130.261 149.204 125.683C150.224 123.278 151.142 120.831 151.989 118.359C152.799 115.995 153.354 113.252 154.869 111.23C154.983 111.092 155.135 110.991 155.306 110.938C155.476 110.885 155.659 110.883 155.83 110.931C156.002 110.979 156.157 111.077 156.275 111.211C156.393 111.345 156.47 111.51 156.496 111.687V111.672Z" fill="#B18056"/>
<path d="M150.201 91.7301C149.781 94.3566 149.136 96.9269 148.502 99.5009L147.576 103.373C147.273 104.608 146.523 106.334 146.935 107.602C147.584 109.609 149.383 111.478 150.388 113.328C151.586 115.573 152.575 117.925 153.342 120.352C154.238 123.087 150.051 124.783 149.196 122.04C148.361 119.394 147.308 116.823 146.047 114.352C145.072 112.427 142.939 110.037 144.007 107.767C146.436 102.608 147.453 96.8556 149.563 91.5425C149.597 91.4671 149.658 91.4065 149.733 91.3717C149.808 91.337 149.893 91.3304 149.972 91.3531C150.052 91.3759 150.12 91.4264 150.166 91.4956C150.211 91.5648 150.23 91.648 150.219 91.7301H150.201Z" fill="#A6774C"/>
<path d="M169.983 98.3893C169.117 101.717 167.606 104.926 166.328 108.111C165.087 111.199 163.91 114.321 162.616 117.387C161.57 119.845 160.022 122.057 158.072 123.882L154.379 127.488C153.153 128.692 152.216 130.245 150.315 129.859C150.011 129.807 149.732 129.659 149.518 129.437C149.304 129.215 149.167 128.93 149.127 128.624C148.977 126.951 149.813 126.429 151.001 125.461C152.336 124.392 153.656 123.308 154.975 122.223C157.27 120.347 159.849 118.846 161.135 116.092C162.444 113.248 163.658 110.359 164.907 107.488C166.26 104.374 167.46 101.083 169.2 98.1641C169.413 97.7889 170.118 97.8902 169.987 98.3893H169.983Z" fill="#A6774C"/>
<g style="mix-blend-mode:multiply" opacity="0.11">
<path d="M124.889 154.166C123.442 154.808 121.965 155.397 120.477 155.933C122.134 155.764 123.735 155.318 124.889 154.166Z" fill="#606060"/>
</g>
<g style="mix-blend-mode:multiply" opacity="0.29">
<path d="M67.8945 75.3406C67.8945 75.3406 71.2987 80.0121 80.5853 82.6611C80.7352 72.7553 81.9012 62.8833 84.5219 53.3415C88.2485 39.7548 95.0456 26.8435 105.052 16.9452C105.499 16.5025 105.952 16.066 106.409 15.6357C106.285 15.3656 106.169 15.0917 106.064 14.8102C105.518 13.3 105.309 11.6884 105.452 10.0886C105.594 8.48881 106.085 6.93964 106.889 5.54982C108.512 2.80697 111.234 1.79764 113.862 0.77329C112.444 0.116142 110.871 -0.135775 109.319 0.0453635C104.445 0.626953 100.98 5.29843 101.595 10.5252C101.835 12.6448 102.756 14.6291 104.22 16.1798C99.5959 19.7235 95.3269 23.7083 91.4727 28.078C90.7929 28.8434 90.1355 29.6114 89.5007 30.3818C87.7461 32.4981 86.1265 34.6406 84.6268 36.7606C84.0795 37.5435 83.5458 38.3302 83.026 39.1207C81.2039 41.8973 79.5805 44.6552 78.1521 47.3342C77.5073 48.5349 76.9012 49.7169 76.3338 50.8801C74.5047 54.6302 72.8863 58.4797 71.4862 62.4106C70.9801 63.8251 70.5414 65.1572 70.159 66.3841C69.2212 69.3203 68.465 72.3114 67.8945 75.3406V75.3406Z" fill="#606060"/>
</g>
</g>
<defs>
<clipPath id="clip0_257_2533">
<rect width="170" height="323" fill="white"/>
</clipPath>
</defs>
</svg>
