<svg width="909" height="909" viewBox="0 0 909 909" fill="none" xmlns="http://www.w3.org/2000/svg">
<path opacity="0.15" d="M454.5 909C705.513 909 909 705.513 909 454.5C909 203.487 705.513 0 454.5 0C203.487 0 0 203.487 0 454.5C0 705.513 203.487 909 454.5 909Z" fill="#FFFFD8"/>
<path opacity="0.25" d="M454.5 817.192C654.808 817.192 817.191 654.809 817.191 454.501C817.191 254.192 654.808 91.8096 454.5 91.8096C254.191 91.8096 91.8086 254.192 91.8086 454.501C91.8086 654.809 254.191 817.192 454.5 817.192Z" fill="#FFFFD8"/>
<path d="M454.5 701.066C590.675 701.066 701.066 590.675 701.066 454.5C701.066 318.325 590.675 207.934 454.5 207.934C318.325 207.934 207.934 318.325 207.934 454.5C207.934 590.675 318.325 701.066 454.5 701.066Z" fill="#FFFFD8"/>
</svg>
