<svg width="21" height="21" viewBox="0 0 21 21" fill="none" xmlns="http://www.w3.org/2000/svg">
<g clip-path="url(#clip0_13313_113441)">
<path d="M20.7917 17.4583H2.875V1.20833C2.875 1.09375 2.78125 1 2.66667 1H1.20833C1.09375 1 1 1.09375 1 1.20833V19.125C1 19.2396 1.09375 19.3333 1.20833 19.3333H20.7917C20.9062 19.3333 21 19.2396 21 19.125V17.6667C21 17.5521 20.9062 17.4583 20.7917 17.4583ZM4.75 15.7917H18.7083C18.8229 15.7917 18.9167 15.6979 18.9167 15.5833V4.22917C18.9167 4.04167 18.6901 3.95052 18.5599 4.08073L13.0833 9.55729L9.81771 6.32813C9.77855 6.28935 9.72568 6.2676 9.67057 6.2676C9.61547 6.2676 9.56259 6.28935 9.52344 6.32813L4.60156 11.2656C4.58245 11.2848 4.56731 11.3075 4.55703 11.3326C4.54675 11.3576 4.54153 11.3844 4.54167 11.4115V15.5833C4.54167 15.6979 4.63542 15.7917 4.75 15.7917Z" fill="#C1DEF2"/>
</g>
<defs>
<clipPath id="clip0_13313_113441">
<rect width="20" height="20" fill="white"/>
</clipPath>
</defs>
</svg>
