<svg width="21" height="21" viewBox="0 0 21 21" fill="none" xmlns="http://www.w3.org/2000/svg">
<g clip-path="url(#clip0_13311_113423)">
<path d="M10 0V6C10 6.53043 10.2107 7.03914 10.5858 7.41421C10.9609 7.78929 11.4696 8 12 8H18V18C18 18.5304 17.7893 19.0391 17.4142 19.4142C17.0391 19.7893 16.5304 20 16 20H4C3.46957 20 2.96086 19.7893 2.58579 19.4142C2.21071 19.0391 2 18.5304 2 18V2C2 1.46957 2.21071 0.960859 2.58579 0.585786C2.96086 0.210714 3.46957 0 4 0H10ZM11.5 0.5V6C11.5 6.13261 11.5527 6.25979 11.6464 6.35355C11.7402 6.44732 11.8674 6.5 12 6.5H17.5L11.5 0.5Z" fill="#C1DEF2"/>
</g>
<defs>
<clipPath id="clip0_13311_113423">
<rect width="20" height="20" fill="white"/>
</clipPath>
</defs>
</svg>
