<svg width="21" height="14" viewBox="0 0 21 14" fill="none" xmlns="http://www.w3.org/2000/svg">
<path fill-rule="evenodd" clip-rule="evenodd" d="M6.39858 0.500204C5.48009 0.771848 4.62658 1.15576 3.92267 1.61407C3.42418 1.9386 3.34471 2.03683 2.97236 2.78758C2.74889 3.23816 2.42711 3.9714 2.25724 4.417C1.63333 6.05354 1.04231 8.93843 1.01502 10.4807L1 11.3276L1.66667 11.8892C2.76302 12.8127 4.42356 13.511 5.87769 13.6599L6.43991 13.7175L6.73502 13.3067C6.89733 13.0806 7.06667 12.8958 7.11138 12.8958C7.34667 12.8958 7.05822 12.6758 6.53173 12.4537C5.92071 12.1959 4.58498 11.3558 4.31636 11.0602C4.22996 10.9652 4.56782 11.0926 5.1168 11.3621C6.60818 12.0943 8.25964 12.4513 10.1556 12.4513C12.2464 12.4513 14.2769 11.9759 15.6667 11.1611L16.2 10.8485L15.814 11.1927C15.3188 11.6344 14.1934 12.3124 13.6222 12.5132C13.3778 12.5991 13.1613 12.6801 13.1412 12.6932C13.0464 12.7549 13.736 13.6187 13.9173 13.6653C14.2307 13.7456 15.3954 13.5299 16.2429 13.2345C17.166 12.9127 18.0076 12.4281 18.7765 11.7758C19.4518 11.203 19.4436 11.2458 19.2224 9.45923C18.9116 6.94936 18.2769 4.69656 17.3578 2.84198C16.9314 1.98163 16.91 1.95594 16.298 1.56447C15.5564 1.08998 14.5783 0.661359 13.7612 0.452737C12.8795 0.227581 12.6316 0.226159 12.5142 0.445448C12.3602 0.733359 12.4012 0.774781 13 0.936915C13.3178 1.02287 13.5778 1.12563 13.5778 1.16527C13.5778 1.20483 13.7078 1.26483 13.8667 1.2986C14.0255 1.33238 14.2156 1.40874 14.2889 1.46838C14.3622 1.52803 14.6122 1.68527 14.8444 1.8178C15.3685 2.11691 15.3901 2.19194 14.8889 1.97247C14.0061 1.5858 13.0124 1.34323 11.5397 1.15478C9.79298 0.931404 7.02551 1.27994 5.58284 1.90518C5.18898 2.07585 4.86667 2.20429 4.86667 2.19051C4.86667 2.13985 5.90116 1.54003 6.28889 1.3658C7.07476 1.01274 7.61289 0.80687 7.74978 0.80687C7.91129 0.80687 7.92676 0.688115 7.79689 0.445448C7.67342 0.21487 7.31644 0.228826 6.39858 0.500204ZM8.18044 6.45923C8.56747 6.74545 8.80738 7.26749 8.80738 7.82349C8.80738 9.4506 6.95724 10.0047 6.22711 8.59629C6.00311 8.1642 6.02987 7.41363 6.28542 6.96243C6.40311 6.7546 6.552 6.58465 6.61636 6.58465C6.68071 6.58465 6.73333 6.54332 6.73333 6.49292C6.73333 6.19949 7.79591 6.17478 8.18044 6.45923ZM13.677 6.5498C14.1548 7.00696 14.3253 7.56136 14.1868 8.20714C13.9323 9.39425 12.6582 9.80287 11.9009 8.94029C11.3995 8.36918 11.3424 7.6338 11.7428 6.90438C12.1345 6.19105 13.1144 6.0114 13.677 6.5498ZM19.4515 10.5476C19.4557 10.6511 19.4768 10.6722 19.5052 10.6014C19.5308 10.5372 19.5276 10.4605 19.4981 10.431C19.4686 10.4014 19.4476 10.4539 19.4515 10.5476Z" fill="#C1DEF2"/>
</svg>
