<svg width="21" height="21" viewBox="0 0 21 21" fill="none" xmlns="http://www.w3.org/2000/svg">
<path d="M15.833 0.833008L11.6663 4.99967V14.1663L15.833 10.4163V0.833008ZM0.833008 4.99967V17.208C0.833008 17.4163 1.04134 17.6247 1.24967 17.6247C1.33301 17.6247 1.37467 17.583 1.45801 17.583C2.58301 17.0413 4.20801 16.6663 5.41634 16.6663C7.04134 16.6663 8.79134 16.9997 9.99967 17.9163V4.99967C8.79134 4.08301 7.04134 3.74967 5.41634 3.74967C3.79134 3.74967 2.04134 4.08301 0.833008 4.99967ZM19.1663 16.2497V4.99967C18.6663 4.62467 18.1247 4.37467 17.4997 4.16634V15.4163C16.583 15.1247 15.583 14.9997 14.583 14.9997C13.1663 14.9997 11.1247 15.5413 9.99967 16.2497V17.9163C11.1247 17.208 13.1663 16.6663 14.583 16.6663C15.958 16.6663 17.3747 16.9163 18.5413 17.5413C18.6247 17.583 18.6663 17.583 18.7497 17.583C18.958 17.583 19.1663 17.3747 19.1663 17.1663V16.2497Z" fill="#C1DEF2"/>
</svg>
