<svg width="21" height="20" viewBox="0 0 21 20" fill="none" xmlns="http://www.w3.org/2000/svg">
<g clip-path="url(#clip0_13595_113792)">
<path d="M20.1504 11.858V8.18371L17.9004 7.80793C17.7337 7.18162 17.4837 6.59705 17.192 6.096L18.5254 4.25888L15.942 1.6284L14.067 2.92274C13.5254 2.63049 12.942 2.37996 12.3587 2.2129L11.9837 0H8.31703L7.94203 2.2547C7.31703 2.42169 6.77539 2.67222 6.23375 2.96447L4.40039 1.67013L1.77539 4.25888L3.10875 6.096C2.8171 6.63885 2.56711 7.22335 2.40039 7.84966L0.150391 8.18371V11.858L2.40039 12.2338C2.56703 12.8601 2.81703 13.403 3.10875 13.9457L1.77539 15.8247L4.35875 18.4134L6.23375 17.0773C6.77539 17.3695 7.35875 17.62 7.98375 17.7871L8.35875 20H12.0254L12.4004 17.7453C12.9837 17.5783 13.567 17.3278 14.1087 17.0355L15.9837 18.3716L18.567 15.7829L17.2337 13.904C17.5254 13.3612 17.7754 12.8184 17.942 12.1921L20.1504 11.858ZM10.1504 13.8622C8.02539 13.8622 6.31703 12.1503 6.31703 10.0209C6.31703 7.89146 8.06703 6.17953 10.1504 6.17953C12.2337 6.17953 13.9837 7.89146 13.9837 10.0209C13.9837 12.1503 12.2754 13.8622 10.1504 13.8622Z" fill="#C1DEF2"/>
</g>
<defs>
<clipPath id="clip0_13595_113792">
<rect width="20" height="20" fill="white" transform="translate(0.150391)"/>
</clipPath>
</defs>
</svg>
