<svg width="20" height="20" viewBox="0 0 20 20" fill="none" xmlns="http://www.w3.org/2000/svg">
<path fill-rule="evenodd" clip-rule="evenodd" d="M8.6452 0.403954C7.59249 0.546518 6.62483 0.841009 5.6266 1.32256C2.71995 2.72485 0.726293 5.33777 0.130464 8.52589C-0.00924692 9.27331 -0.0431885 10.7031 0.0601094 11.4857C0.288192 13.2128 0.954233 14.8391 1.99672 16.2144C2.3696 16.7063 3.184 17.5488 3.65381 17.9286C4.43879 18.5631 5.56808 19.2126 6.42679 19.5233C6.94137 19.7095 7.16104 19.7169 7.354 19.5545C7.54647 19.3926 7.5681 19.2219 7.52646 18.1925L7.49176 17.3344L7.31977 17.3652C7.22517 17.3821 6.91247 17.408 6.62487 17.4227C5.34328 17.4886 4.58097 17.0571 4.05184 15.9663C3.77208 15.3896 3.49884 15.023 3.18956 14.8095C2.60705 14.4075 2.5249 14.2503 2.84687 14.1539C2.99604 14.1092 3.09297 14.1092 3.28659 14.1537C3.82851 14.2784 4.25463 14.5964 4.61853 15.1476C5.26403 16.1254 6.17841 16.4442 7.26653 16.0707L7.52789 15.981L7.61136 15.6624C7.71105 15.282 7.83478 15.028 8.0275 14.8086C8.10579 14.7194 8.16983 14.6333 8.16983 14.6171C8.16983 14.6009 8.10674 14.5877 8.02964 14.5877C7.79623 14.5877 6.91128 14.4023 6.51863 14.2711C5.28262 13.8582 4.45895 13.1139 4.01785 12.0113C3.77218 11.3972 3.69531 10.9663 3.66755 10.0466C3.64435 9.27659 3.652 9.14876 3.74313 8.78687C3.87272 8.27223 4.14824 7.69679 4.4318 7.34868L4.65432 7.07544L4.57009 6.80281C4.4531 6.42432 4.45448 5.41084 4.57246 5.00901C4.75871 4.37491 4.77554 4.36379 5.36819 4.48386C5.84118 4.5797 6.45807 4.84063 7.05779 5.19854L7.50859 5.46755L7.9224 5.37167C8.62342 5.20923 9.11025 5.15956 10 5.15956C10.8897 5.15956 11.3766 5.20923 12.0776 5.37167L12.4914 5.46755L12.9422 5.19854C13.5419 4.84063 14.1588 4.5797 14.6318 4.48386C15.2245 4.36379 15.2413 4.37491 15.4275 5.00901C15.5455 5.41084 15.5469 6.42432 15.4299 6.80281L15.3457 7.07544L15.5616 7.34055C15.8173 7.65449 16.0566 8.11407 16.2042 8.57428C16.34 8.99779 16.388 10.1005 16.2993 10.7544C16.0002 12.9574 14.6887 14.1936 12.2818 14.5411C12.0465 14.5751 11.8458 14.6094 11.8357 14.6175C11.8257 14.6255 11.8876 14.7119 11.9733 14.8095C12.1395 14.9988 12.2748 15.2717 12.3936 15.6571C12.4539 15.8525 12.4674 16.2076 12.4695 17.6459L12.4719 19.3967L12.6272 19.5355C12.8329 19.7193 13.0388 19.7167 13.5732 19.5233C14.4319 19.2126 15.5612 18.5631 16.3462 17.9286C16.816 17.5488 17.6304 16.7063 18.0033 16.2144C19.0458 14.8391 19.7118 13.2128 19.9399 11.4857C20.0432 10.7031 20.0092 9.27331 19.8695 8.52589C19.427 6.15774 18.2413 4.1425 16.3748 2.58576C15.2894 1.68056 13.7036 0.902712 12.258 0.566483C11.2358 0.328751 9.70831 0.260012 8.6452 0.403954ZM3.51961 14.4757C3.54262 14.5927 3.68585 14.6698 3.75388 14.6017C3.83921 14.5164 3.76595 14.3976 3.62805 14.3976C3.53868 14.3976 3.50849 14.4193 3.51961 14.4757ZM3.92144 14.8027C3.88907 14.887 4.06078 15.078 4.14406 15.0502C4.22464 15.0234 4.24218 14.8805 4.17482 14.7993C4.0999 14.7091 3.95662 14.711 3.92144 14.8027ZM4.31933 15.3647C4.31933 15.426 4.36173 15.5145 4.4135 15.5614C4.4906 15.6311 4.52079 15.6358 4.57988 15.5867C4.67243 15.5099 4.67158 15.4221 4.57741 15.3279C4.46146 15.212 4.31933 15.2323 4.31933 15.3647ZM4.82408 15.8486C4.73333 15.9394 4.78562 16.0752 4.94396 16.16C5.02292 16.2023 5.05934 16.1974 5.12033 16.1364C5.20746 16.0493 5.16672 15.9485 4.99963 15.8375C4.91421 15.7807 4.89044 15.7823 4.82408 15.8486ZM5.46022 16.3627C5.46022 16.5054 5.65982 16.608 5.79569 16.5353C5.98317 16.4349 5.8677 16.2515 5.61709 16.2515C5.48432 16.2515 5.46022 16.2686 5.46022 16.3627ZM7.10414 16.3141C6.96267 16.4175 7.02675 16.5605 7.21457 16.5605C7.40833 16.5605 7.50844 16.4423 7.41256 16.3268C7.33645 16.2352 7.21875 16.2303 7.10414 16.3141ZM6.35154 16.3979C6.22623 16.4709 6.2471 16.6247 6.38709 16.6598C6.62036 16.7183 6.79396 16.5357 6.62349 16.411C6.51958 16.335 6.4641 16.3324 6.35154 16.3979Z" fill="#C1DEF2"/>
</svg>
