<svg width="1136" height="784" viewBox="0 0 1136 784" fill="none" xmlns="http://www.w3.org/2000/svg">
<path d="M233.399 0H138.721V25.0348H233.399V0Z" fill="#313335"/>
<path d="M237.371 0H134.82V4.89349H237.371V0Z" fill="#525557"/>
<path d="M350.202 185.102V714.662C350.202 717.499 350.06 720.407 349.706 723.244C348.5 733.811 344.954 744.023 339.351 753.03C337.72 755.725 335.876 758.207 333.82 760.619C330.628 764.448 327.011 767.923 322.969 770.902C318.359 774.377 313.324 777.143 307.934 779.2C307.366 779.412 306.87 779.625 306.303 779.767C305.735 779.909 305.097 780.193 304.53 780.334C302.118 781.044 299.707 781.682 297.225 782.108C295.381 782.391 293.537 782.675 291.693 782.817C290.204 782.959 288.714 783.029 287.154 783.029H83.9679C80.8474 782.958 77.656 782.675 74.6064 782.108C73.5426 781.895 72.4788 781.682 71.4859 781.469C61.4862 779.058 52.2666 774.235 44.6781 767.285C42.6923 765.512 40.8484 763.668 39.1463 761.682C27.9409 748.562 21.8418 731.896 21.9127 714.662V185.102C21.9127 178.08 22.9056 171.059 24.8914 164.322C32.9763 136.663 56.7345 116.664 84.8189 116.664H287.367C319.423 116.664 345.876 142.762 349.777 176.52C349.989 179.357 350.202 182.194 350.202 185.102Z" fill="#B36940"/>
<path d="M350.205 185.102V714.663C350.205 717.5 350.064 720.407 349.709 723.244C347.44 743.031 337.44 760.123 323.043 770.973V176.521H349.709C349.993 179.357 350.205 182.194 350.205 185.102Z" fill="#C58257"/>
<path d="M167.297 451.69L212.899 329.069C212.899 329.069 117.582 360.913 167.297 451.69Z" fill="#CE9D83"/>
<path d="M210.346 356.516L178.645 445.166C178.645 445.166 266.94 411.975 210.346 356.516Z" fill="#CE9D83"/>
<path d="M20.7799 167.159C20.7799 166.379 20.709 165.528 20.709 164.677C20.709 80.6362 94.6787 12.4819 186.024 12.4819C277.369 12.4819 351.268 80.6362 351.268 164.677C351.268 165.528 351.268 166.308 351.268 167.159H20.7799Z" fill="#E2DBD6"/>
<path d="M20.709 164.748C20.709 80.7073 94.6787 12.5531 186.024 12.5531C209.286 12.4821 232.406 17.021 253.894 25.957C234.179 20.567 207.584 17.4466 181.059 27.0917C117.586 50.0698 109.997 155.032 109.997 155.032V167.301H20.7799C20.7799 166.379 20.709 165.528 20.709 164.748Z" fill="#B6A7A4"/>
<path opacity="0.7" d="M342.332 145.102H324.886C324.886 145.102 310.134 55.3883 230.633 28.155C230.633 28.0841 323.113 47.7289 342.332 145.102Z" fill="#A2A4A6"/>
<path d="M21.8438 164.322V714.662C21.8438 752.463 49.9991 783.1 84.7499 783.1H110.068V164.322H21.8438Z" fill="#885031"/>
<path d="M360.204 150.918H11.7734V176.379H360.204V150.918Z" fill="#373738"/>
<path d="M360.204 172.123H11.7734V176.52H360.204V172.123Z" fill="#999B9E"/>
<path d="M360.204 154.109H11.7734V157.088H360.204V154.109Z" fill="#A2A4A6"/>
<path d="M10.4262 212.902H364.247C368.573 213.257 372.332 210.065 372.615 205.739C372.97 201.413 369.779 197.654 365.453 197.371C365.027 197.371 364.601 197.371 364.176 197.371H10.4262C6.10004 197.725 2.90863 201.484 3.26323 205.739C3.54691 209.569 6.59648 212.618 10.4262 212.902Z" fill="#373738"/>
<path d="M10.4255 588.638H364.246C366.445 588.709 368.36 587.007 368.431 584.808C368.501 582.61 366.799 580.695 364.601 580.624C364.459 580.624 364.388 580.624 364.246 580.624H10.4255C8.22701 580.695 6.45401 582.61 6.59585 584.808C6.66677 586.865 8.29793 588.567 10.4255 588.638Z" fill="#373738"/>
<path d="M10.4266 656.508H364.247C366.446 656.508 368.29 654.735 368.29 652.537C368.29 650.338 366.517 648.494 364.318 648.494H10.4266C8.22811 648.494 6.38418 650.338 6.45511 652.537C6.45511 654.664 8.22811 656.508 10.4266 656.508Z" fill="#373738"/>
<path d="M364.247 777.498C368.573 777.498 372.048 774.023 372.048 769.696V126.805C372.048 122.479 368.573 119.004 364.247 119.004C359.92 119.004 356.445 122.479 356.445 126.805V769.696C356.445 773.952 359.92 777.498 364.247 777.498Z" fill="#462718"/>
<path d="M7.80122 777.498C12.1273 777.498 15.6024 774.023 15.6024 769.696V126.805C15.6024 122.479 12.1273 119.004 7.80122 119.004C3.47509 119.004 0 122.479 0 126.805V769.696C0 773.952 3.47509 777.498 7.80122 777.498Z" fill="#462718"/>
<path d="M99.571 622.182V617.714H46.239V642.182H81.9119C79.997 644.38 78.0822 646.65 76.2383 648.848H46.239V675.798H55.2459L50.0687 682.465H46.239V687.5C42.9767 691.826 39.7853 696.152 36.8066 700.691V127.231C36.8066 124.607 38.9342 122.479 41.5583 122.479C44.1823 122.479 46.3099 124.607 46.3099 127.231V157.584H99.7128V127.231C99.7128 124.607 101.84 122.479 104.464 122.479C107.089 122.479 109.216 124.607 109.216 127.231V610.268C106.096 614.381 102.904 618.353 99.571 622.182ZM99.571 164.322H46.239V188.789H99.6419V164.322H99.571ZM99.571 195.456H46.239V222.406H99.6419V195.456H99.571ZM99.571 229.072H46.239V253.539H99.6419V229.072H99.571ZM99.571 260.206H46.239V287.156H99.6419V260.206H99.571ZM99.571 293.822H46.239V318.29H99.6419V293.822H99.571ZM99.571 325.027H46.239V351.977H99.6419V325.027H99.571ZM99.571 358.643H46.239V383.04H99.6419V358.643H99.571ZM99.571 389.777H46.239V416.727H99.6419V389.777H99.571ZM99.571 423.393H46.239V447.861H99.6419V423.393H99.571ZM99.571 454.527H46.239V481.477H99.6419V454.527H99.571ZM99.571 488.143H46.239V512.611H99.6419V488.143H99.571ZM99.571 519.277H46.239V546.227H99.6419V519.277H99.571ZM99.571 552.964H46.239V577.432H99.6419V552.964H99.571ZM99.571 584.098H46.239V611.048H99.6419V584.098H99.571Z" fill="#999B9E"/>
<path d="M43.5442 164.322H103.826C105.67 164.322 107.16 162.833 107.16 160.989C107.16 159.145 105.67 157.656 103.826 157.656H43.5442C41.7003 157.656 40.2109 159.145 40.2109 160.989C40.2109 162.762 41.7003 164.322 43.5442 164.322Z" fill="#373738"/>
<path d="M43.5458 164.96H103.828C106.026 164.889 107.799 162.974 107.658 160.776C107.587 158.719 105.885 157.017 103.828 156.946H43.5458C41.3473 156.875 39.4324 158.577 39.3615 160.776C39.2906 162.974 40.9927 164.889 43.1912 164.96C43.333 164.96 43.404 164.96 43.5458 164.96ZM103.828 158.223C105.317 158.293 106.452 159.57 106.381 161.059C106.31 162.407 105.246 163.542 103.828 163.612H43.5458C42.0565 163.683 40.7799 162.549 40.709 161.059C40.6381 159.57 41.7728 158.293 43.2621 158.223C43.333 158.223 43.4749 158.223 43.5458 158.223H103.828Z" fill="#373738"/>
<path d="M43.5446 195.456H103.827C105.671 195.456 107.16 193.966 107.16 192.122C107.16 190.278 105.671 188.789 103.827 188.789H43.5446C41.7006 188.789 40.2113 190.278 40.2113 192.122C40.1404 193.895 41.7006 195.456 43.5446 195.456Z" fill="#373738"/>
<path d="M43.5444 196.095H103.827C106.025 196.095 107.869 194.322 107.869 192.052C107.869 189.854 106.096 188.01 103.827 188.01H43.5444C41.3459 188.01 39.502 189.783 39.502 192.052C39.502 194.322 41.275 196.095 43.5444 196.095ZM103.827 189.357C105.316 189.428 106.451 190.705 106.38 192.194C106.309 193.542 105.174 194.676 103.827 194.747H43.5444C42.0551 194.818 40.7785 193.683 40.7076 192.194C40.6367 190.705 41.7714 189.428 43.2607 189.357C43.3316 189.357 43.4735 189.357 43.5444 189.357H103.827Z" fill="#373738"/>
<path d="M43.546 229.072H103.828C105.672 229.001 107.09 227.441 107.02 225.597C106.949 223.895 105.53 222.477 103.828 222.406H43.546C41.7021 222.335 40.1418 223.753 40.0709 225.597C40 227.441 41.4184 229.001 43.2623 229.072C43.3332 229.072 43.4042 229.072 43.546 229.072Z" fill="#373738"/>
<path d="M43.5458 229.71H103.828C106.026 229.64 107.799 227.725 107.658 225.526C107.587 223.469 105.885 221.767 103.828 221.696H43.5458C41.3473 221.626 39.4324 223.328 39.3615 225.526C39.2906 227.725 40.9927 229.64 43.1912 229.71C43.333 229.71 43.404 229.71 43.5458 229.71ZM103.828 223.044C105.317 223.044 106.523 224.25 106.523 225.739C106.523 227.228 105.317 228.434 103.828 228.434H43.5458C42.0565 228.434 40.8508 227.228 40.8508 225.739C40.8508 224.25 42.0565 223.044 43.5458 223.044H103.828Z" fill="#373738"/>
<path d="M43.5446 260.206H103.827C105.671 260.206 107.16 258.717 107.16 256.873C107.16 255.029 105.671 253.54 103.827 253.54H43.5446C41.7006 253.54 40.2113 255.029 40.2113 256.873C40.1404 258.717 41.7006 260.206 43.5446 260.206Z" fill="#373738"/>
<path d="M43.5444 260.845H103.827C106.025 260.845 107.869 259.072 107.869 256.802C107.869 254.604 106.096 252.76 103.827 252.76H43.5444C41.3459 252.76 39.502 254.533 39.502 256.802C39.502 259.072 41.275 260.845 43.5444 260.845ZM103.827 254.178C105.316 254.249 106.451 255.526 106.38 257.015C106.309 258.362 105.245 259.497 103.827 259.568H43.5444C42.0551 259.639 40.7785 258.504 40.7076 257.015C40.6367 255.526 41.7714 254.249 43.2607 254.178C43.3316 254.178 43.4735 254.178 43.5444 254.178H103.827Z" fill="#373738"/>
<path d="M43.546 293.822H103.828C105.672 293.751 107.09 292.191 107.02 290.347C106.949 288.645 105.53 287.227 103.828 287.156H43.546C41.7021 287.085 40.1418 288.503 40.0709 290.347C40 292.191 41.4184 293.751 43.2623 293.822C43.3332 293.822 43.4042 293.822 43.546 293.822Z" fill="#373738"/>
<path d="M43.5444 294.532H103.827C106.025 294.532 107.869 292.759 107.869 290.489C107.869 288.291 106.096 286.447 103.827 286.447H43.5444C41.3459 286.447 39.502 288.22 39.502 290.489C39.502 292.688 41.275 294.532 43.5444 294.532ZM103.827 287.794C105.316 287.865 106.451 289.142 106.38 290.631C106.309 291.979 105.245 293.113 103.827 293.184H43.5444C42.0551 293.255 40.7785 292.12 40.7076 290.631C40.6367 289.142 41.7714 287.865 43.2607 287.794C43.3316 287.794 43.4735 287.794 43.5444 287.794H103.827Z" fill="#373738"/>
<path d="M43.5442 324.956H103.826C105.67 324.956 107.16 323.466 107.16 321.622C107.16 319.778 105.67 318.289 103.826 318.289H43.5442C41.7003 318.289 40.2109 319.778 40.2109 321.622C40.2109 323.466 41.7003 324.956 43.5442 324.956Z" fill="#373738"/>
<path d="M43.5444 325.666H103.827C106.025 325.666 107.869 323.893 107.869 321.624C107.869 319.425 106.096 317.581 103.827 317.581H43.5444C41.3459 317.581 39.502 319.354 39.502 321.624C39.502 323.822 41.275 325.666 43.5444 325.666ZM103.827 318.929C105.316 318.999 106.451 320.276 106.38 321.765C106.309 323.113 105.245 324.248 103.827 324.318H43.5444C42.0551 324.389 40.7785 323.255 40.7076 321.765C40.6367 320.276 41.7714 318.999 43.2607 318.929C43.3316 318.929 43.4735 318.929 43.5444 318.929H103.827Z" fill="#373738"/>
<path d="M43.5436 358.644H103.826C105.67 358.573 107.088 357.013 107.017 355.098C106.946 353.325 105.528 351.977 103.826 351.906H43.5436C41.6996 351.977 40.2812 353.537 40.3522 355.452C40.4231 357.154 41.7706 358.573 43.5436 358.644Z" fill="#373738"/>
<path d="M43.5458 359.282H103.828C106.026 359.211 107.799 357.296 107.658 355.097C107.587 353.041 105.885 351.339 103.828 351.268H43.5458C41.3473 351.197 39.4324 352.899 39.3615 355.097C39.2906 357.296 40.9927 359.211 43.1912 359.282C43.333 359.282 43.404 359.282 43.5458 359.282ZM103.828 352.544C105.317 352.615 106.452 353.892 106.381 355.381C106.31 356.729 105.175 357.863 103.828 357.934H43.5458C42.0565 358.005 40.7799 356.87 40.709 355.381C40.6381 353.892 41.7728 352.615 43.2621 352.544C43.333 352.544 43.4749 352.544 43.5458 352.544H103.828Z" fill="#373738"/>
<path d="M43.546 389.707H103.828C105.672 389.636 107.09 388.076 107.02 386.232C106.949 384.53 105.53 383.112 103.828 383.041H43.546C41.7021 382.97 40.1418 384.388 40.0709 386.232C40 388.076 41.4184 389.636 43.2623 389.707C43.3332 389.707 43.4042 389.707 43.546 389.707Z" fill="#373738"/>
<path d="M43.5444 390.415H103.827C106.025 390.415 107.798 388.642 107.798 386.373C107.798 384.174 106.025 382.401 103.827 382.401H43.5444C41.3459 382.401 39.502 384.174 39.502 386.373C39.502 388.642 41.275 390.415 43.5444 390.415ZM103.827 383.749C105.316 383.749 106.522 384.955 106.522 386.444C106.522 387.933 105.316 389.139 103.827 389.139H43.5444C42.0551 389.139 40.8494 387.933 40.8494 386.444C40.8494 384.955 42.0551 383.749 43.5444 383.749H103.827Z" fill="#373738"/>
<path d="M43.5442 423.393H103.826C105.67 423.393 107.16 421.904 107.16 420.06C107.16 418.216 105.67 416.727 103.826 416.727H43.5442C41.7003 416.727 40.2109 418.216 40.2109 420.06C40.2109 421.904 41.7003 423.393 43.5442 423.393Z" fill="#373738"/>
<path d="M43.5458 424.032H103.828C106.026 423.961 107.799 422.046 107.658 419.847C107.587 417.791 105.885 416.089 103.828 416.018H43.5458C41.3473 415.947 39.4324 417.649 39.3615 419.847C39.2906 422.046 40.9927 423.961 43.1912 424.032C43.333 424.032 43.404 424.032 43.5458 424.032ZM103.828 417.365C105.317 417.365 106.523 418.571 106.523 420.06C106.523 421.55 105.317 422.755 103.828 422.755H43.5458C42.0565 422.755 40.8508 421.55 40.8508 420.06C40.8508 418.571 42.0565 417.365 43.5458 417.365H103.828Z" fill="#373738"/>
<path d="M43.546 454.527H103.828C105.672 454.457 107.09 452.896 107.02 451.052C106.949 449.35 105.53 447.932 103.828 447.861H43.546C41.7021 447.79 40.1418 449.208 40.0709 451.052C40 452.896 41.4184 454.457 43.2623 454.527C43.3332 454.527 43.4042 454.527 43.546 454.527Z" fill="#373738"/>
<path d="M43.5458 455.166H103.828C106.026 455.096 107.799 453.181 107.658 450.982C107.587 448.926 105.885 447.223 103.828 447.153H43.5458C41.3473 447.082 39.4324 448.784 39.3615 450.982C39.2906 453.181 40.9927 455.096 43.1912 455.166C43.333 455.166 43.404 455.166 43.5458 455.166ZM103.828 448.5C105.317 448.5 106.523 449.706 106.523 451.195C106.523 452.684 105.317 453.89 103.828 453.89H43.5458C42.0565 453.89 40.8508 452.684 40.8508 451.195C40.8508 449.706 42.0565 448.5 43.5458 448.5H103.828Z" fill="#373738"/>
<path d="M43.546 488.144H103.828C105.672 488.073 107.09 486.512 107.02 484.669C106.949 482.966 105.53 481.548 103.828 481.477H43.546C41.7021 481.406 40.1418 482.825 40.0709 484.669C40 486.512 41.4184 488.073 43.2623 488.144C43.3332 488.144 43.4042 488.144 43.546 488.144Z" fill="#373738"/>
<path d="M43.5444 488.782H103.827C106.025 488.782 107.798 487.009 107.798 484.739C107.798 482.541 106.025 480.768 103.827 480.768H43.5444C41.3459 480.768 39.502 482.541 39.502 484.739C39.502 487.009 41.275 488.782 43.5444 488.782ZM103.827 482.115C105.316 482.115 106.522 483.321 106.522 484.81C106.522 486.299 105.316 487.505 103.827 487.505H43.5444C42.0551 487.505 40.8494 486.299 40.8494 484.81C40.8494 483.321 42.0551 482.115 43.5444 482.115H103.827Z" fill="#373738"/>
<path d="M43.546 519.277H103.828C105.672 519.348 107.232 517.93 107.303 516.086C107.374 514.242 105.956 512.682 104.112 512.611C104.041 512.611 103.899 512.611 103.828 512.611H43.546C41.7021 512.54 40.1418 513.958 40.0709 515.802C40 517.646 41.4184 519.207 43.2623 519.277C43.3332 519.277 43.4042 519.277 43.546 519.277Z" fill="#373738"/>
<path d="M43.5447 519.987H103.827C106.025 519.916 107.798 518.001 107.657 515.802C107.586 513.675 105.884 512.044 103.827 511.973H43.5447C41.3462 512.044 39.5731 513.958 39.715 516.157C39.715 518.214 41.4171 519.916 43.5447 519.987ZM103.827 513.249C105.316 513.249 106.522 514.455 106.522 515.944C106.522 517.433 105.316 518.639 103.827 518.639H43.5447C42.0554 518.639 40.8497 517.433 40.8497 515.944C40.8497 514.455 42.0554 513.249 43.5447 513.249H103.827Z" fill="#373738"/>
<path d="M43.5447 552.964H103.827C105.671 552.964 107.16 551.475 107.16 549.631C107.16 547.787 105.671 546.298 103.827 546.298H43.5447C41.7007 546.298 40.2114 547.787 40.2114 549.631C40.1405 551.404 41.6298 552.964 43.5447 552.964Z" fill="#373738"/>
<path d="M43.5458 553.603H103.828C106.026 553.532 107.799 551.617 107.658 549.419C107.587 547.362 105.885 545.66 103.828 545.589H43.5458C41.3473 545.518 39.4324 547.22 39.3615 549.419C39.2906 551.617 40.9927 553.532 43.1912 553.603C43.333 553.603 43.404 553.603 43.5458 553.603ZM103.828 546.866C105.317 546.866 106.523 548.071 106.523 549.561C106.523 551.05 105.317 552.256 103.828 552.256H43.5458C42.0565 552.256 40.8508 551.05 40.8508 549.561C40.8508 548.071 42.0565 546.866 43.5458 546.866H103.828Z" fill="#373738"/>
<path d="M43.546 584.027H103.828C105.672 583.957 107.09 582.396 107.02 580.552C106.949 578.85 105.53 577.432 103.828 577.361H43.546C41.7021 577.29 40.1418 578.708 40.0709 580.552C40 582.396 41.4184 583.957 43.2623 584.027C43.3332 584.098 43.4042 584.098 43.546 584.027Z" fill="#373738"/>
<path d="M43.5444 584.737H103.827C106.025 584.737 107.869 582.893 107.869 580.695C107.869 578.496 106.096 576.723 103.827 576.652H43.5444C41.3459 576.652 39.502 578.425 39.502 580.695C39.502 582.964 41.275 584.737 43.5444 584.737ZM103.827 578C105.316 578.071 106.451 579.347 106.38 580.837C106.309 582.255 105.174 583.319 103.827 583.39H43.5444C42.0551 583.461 40.7785 582.326 40.7076 580.837C40.6367 579.347 41.7714 578.071 43.2607 578C43.3316 578 43.4735 578 43.5444 578H103.827Z" fill="#373738"/>
<path d="M43.546 617.715H103.828C105.672 617.786 107.232 616.367 107.303 614.524C107.374 612.68 105.956 611.119 104.112 611.048C104.041 611.048 103.899 611.048 103.828 611.048H43.546C41.7021 610.978 40.1418 612.396 40.0709 614.24C40 616.084 41.4184 617.644 43.2623 617.715C43.3332 617.715 43.4042 617.715 43.546 617.715Z" fill="#373738"/>
<path d="M43.5444 618.352H103.827C106.025 618.352 107.869 616.509 107.869 614.31C107.869 612.112 106.096 610.338 103.827 610.268H43.5444C41.3459 610.268 39.502 612.041 39.502 614.31C39.502 616.579 41.275 618.352 43.5444 618.352ZM103.827 611.686C105.316 611.757 106.451 613.033 106.38 614.523C106.309 615.87 105.245 617.005 103.827 617.076H43.5444C42.0551 617.147 40.7785 616.012 40.7076 614.523C40.6367 613.033 41.7714 611.757 43.2607 611.686C43.3316 611.686 43.4735 611.686 43.5444 611.686H103.827Z" fill="#373738"/>
<path d="M43.5442 648.848H103.826C105.67 648.848 107.16 647.359 107.16 645.515C107.16 643.671 105.67 642.182 103.826 642.182H43.5442C41.7003 642.182 40.2109 643.671 40.2109 645.515C40.2109 647.359 41.6293 648.848 43.5442 648.848C43.5442 648.848 43.4733 648.848 43.5442 648.848Z" fill="#373738"/>
<path d="M43.5444 649.487H103.827C106.025 649.487 107.869 647.643 107.798 645.444C107.798 643.246 106.025 641.473 103.827 641.473H43.5444C41.3459 641.473 39.502 643.246 39.502 645.444C39.502 647.714 41.275 649.487 43.5444 649.487C43.5444 649.487 43.4735 649.487 43.5444 649.487ZM103.827 642.82C105.316 642.82 106.522 644.026 106.522 645.515C106.522 647.004 105.316 648.21 103.827 648.21H43.5444C42.0551 648.21 40.8494 647.004 40.8494 645.515C40.8494 644.026 42.0551 642.82 43.5444 642.82H103.827Z" fill="#373738"/>
<path d="M43.5442 682.464H103.826C105.67 682.464 107.16 680.975 107.16 679.131C107.16 677.287 105.67 675.798 103.826 675.798H43.5442C41.7003 675.798 40.2109 677.287 40.2109 679.131C40.2109 680.975 41.6293 682.464 43.5442 682.464C43.5442 682.464 43.4733 682.464 43.5442 682.464Z" fill="#373738"/>
<path d="M43.5458 683.174H103.828C106.026 683.103 107.799 681.189 107.658 678.99C107.587 676.933 105.885 675.231 103.828 675.16H43.5458C41.3473 675.089 39.4324 676.792 39.3615 678.99C39.2906 681.189 40.9927 683.103 43.1912 683.174C43.333 683.174 43.404 683.174 43.5458 683.174ZM103.828 676.437C105.317 676.437 106.452 677.643 106.452 679.132C106.452 680.621 105.246 681.827 103.828 681.827H43.5458C42.0565 681.827 40.8508 680.621 40.8508 679.132C40.8508 677.643 42.0565 676.437 43.5458 676.437H103.828Z" fill="#373738"/>
<path d="M43.5447 713.599H103.827C105.671 713.599 107.16 712.11 107.16 710.266C107.16 708.422 105.671 706.933 103.827 706.933H43.5447C41.7007 706.933 40.2114 708.422 40.2114 710.266C40.1405 712.11 41.6298 713.599 43.5447 713.599Z" fill="#373738"/>
<path d="M43.5444 714.308H103.827C106.025 714.308 107.869 712.464 107.798 710.265C107.798 708.067 106.025 706.294 103.827 706.294H43.5444C41.3459 706.294 39.502 708.067 39.502 710.265C39.502 712.464 41.275 714.308 43.5444 714.308C43.5444 714.308 43.4735 714.308 43.5444 714.308ZM103.827 707.57C105.316 707.641 106.451 708.918 106.38 710.407C106.309 711.755 105.245 712.889 103.827 712.96H43.5444C42.0551 713.031 40.7785 711.897 40.7076 710.407C40.6367 708.918 41.7714 707.641 43.2607 707.57C43.3316 707.57 43.4735 707.57 43.5444 707.57H103.827Z" fill="#373738"/>
<path d="M104.606 777.072C107.23 777.072 109.287 774.945 109.287 772.321V127.231C109.287 124.607 107.159 122.479 104.535 122.479C101.911 122.479 99.7832 124.607 99.7832 127.231V772.321C99.8541 774.945 101.982 777.072 104.606 777.072Z" fill="#373738"/>
<path d="M104.607 777.711C107.585 777.711 109.997 775.299 109.997 772.321V127.231C110.139 124.252 107.798 121.77 104.819 121.628C101.841 121.486 99.3586 123.827 99.2168 126.805C99.2168 126.947 99.2168 127.089 99.2168 127.231V772.321C99.2168 775.299 101.628 777.711 104.607 777.711ZM104.607 123.188C106.805 123.188 108.649 124.961 108.649 127.231V772.321C108.72 774.59 107.018 776.434 104.749 776.576C102.479 776.647 100.635 774.945 100.493 772.675C100.493 772.533 100.493 772.463 100.493 772.321V127.231C100.564 124.961 102.337 123.188 104.607 123.188Z" fill="#373738"/>
<path d="M41.8446 777.072C44.4686 777.072 46.5962 774.945 46.5962 772.321V127.231C46.5253 124.607 44.3268 122.621 41.7027 122.692C39.2205 122.763 37.2348 124.748 37.1638 127.231V772.321C37.0929 774.945 39.2205 777.072 41.8446 777.072C41.8446 777.072 41.7736 777.072 41.8446 777.072Z" fill="#373738"/>
<path d="M41.8445 777.71C44.8231 777.71 47.2344 775.299 47.3053 772.321V127.231C47.3053 124.252 44.8941 121.841 41.9154 121.841C38.9368 121.841 36.5255 124.252 36.5255 127.231V772.321C36.3836 775.299 38.7949 777.71 41.8445 777.71C41.8445 777.71 41.7736 777.71 41.8445 777.71ZM41.8445 123.188C44.1139 123.188 45.8869 124.961 45.8869 127.231V772.321C45.9579 774.59 44.2558 776.434 41.9863 776.576C39.7169 776.718 37.873 774.945 37.7311 772.675C37.7311 772.533 37.7311 772.462 37.7311 772.321V127.231C37.802 125.032 39.5751 123.188 41.8445 123.188Z" fill="#373738"/>
<path d="M1113.58 577.797H1038.35V531.854L829.332 276.181L851.361 261.041L1045.58 386.69L1083.22 531.854L1113.58 577.797Z" fill="#9F4006"/>
<path d="M1113.58 577.798L1075.24 536.465H1038.36V577.798H1113.58Z" fill="#773005"/>
<path d="M620.055 531.853L655.599 386.69L833.478 263.712L1028.78 400.232L1060.99 531.853V783.074H620.055V531.853Z" fill="#E44C2D"/>
<path d="M632.911 531.854H280.715V783.101H632.911V531.854Z" fill="#BF1811"/>
<g opacity="0.14">
<path opacity="0.14" d="M1030.45 407.122H632.914V394.732H1020.92L1028.77 400.233L1030.45 407.122Z" fill="#590F0F"/>
<path opacity="0.14" d="M999.097 370.869H632.914V383.232H999.097V370.869Z" fill="#590F0F"/>
<path opacity="0.14" d="M961.981 345.121H632.914V357.484H961.981V345.121Z" fill="#590F0F"/>
<path opacity="0.14" d="M933.43 323.853H632.914V336.216H933.43V323.853Z" fill="#590F0F"/>
<path opacity="0.14" d="M927.484 302.321H632.914V314.685H927.484V302.321Z" fill="#590F0F"/>
<path opacity="0.14" d="M1035.79 428.94H632.914V416.577H1032.78L1035.79 428.94Z" fill="#590F0F"/>
<path opacity="0.14" d="M1041.14 450.785H632.914V438.396H1038.13L1041.14 450.785Z" fill="#590F0F"/>
<path opacity="0.14" d="M1046.48 472.603H632.914V460.24H1043.47L1046.48 472.603Z" fill="#590F0F"/>
<path opacity="0.14" d="M1051.82 494.45H632.914V482.061H1048.81L1051.82 494.45Z" fill="#590F0F"/>
<path opacity="0.14" d="M1057.17 516.269H632.914V503.905H1054.16L1057.17 516.269Z" fill="#590F0F"/>
<path opacity="0.14" d="M1060.99 524.31H632.914V536.673H1060.99V524.31Z" fill="#590F0F"/>
<path opacity="0.14" d="M1060.99 544.688H632.914V557.052H1060.99V544.688Z" fill="#590F0F"/>
<path opacity="0.14" d="M1060.99 563.129H632.914V575.492H1060.99V563.129Z" fill="#590F0F"/>
</g>
<path d="M275.639 531.854L311.183 386.69H668.46L632.916 531.854H275.639Z" fill="#C7AE92"/>
<path d="M311.121 386.69L494.029 261.041H851.359L668.451 386.69H311.121Z" fill="#EADCC3"/>
<path d="M588.357 577.798H231.08L275.635 531.854H632.912L588.357 577.798Z" fill="#EADBC5"/>
<path d="M872.942 261.041L684.455 391.484L649.042 536.464L610.721 577.797H588.352L632.906 531.854L668.451 386.69L851.359 261.041H872.942Z" fill="white"/>
<path d="M851.359 261.041L1039.85 391.484L1075.23 536.464L1113.58 577.797H1135.95L1091.4 531.854L1055.85 386.69L872.943 261.041H851.359Z" fill="white"/>
<path d="M1028.77 400.232L1039.85 391.484L863.12 268.008L851.176 276.102L1028.77 400.232Z" fill="#A3440A"/>
<path d="M684.641 236.341H676.102V228.85L684.641 236.341Z" fill="#878752"/>
<path d="M614.914 224.161H540.918V286.317H614.914V224.161Z" fill="#BF1811"/>
<path d="M614.918 286.317L654.391 261.041H676.106V224.161L645.512 197.234L614.918 224.161V286.317Z" fill="#E44C2D"/>
<path d="M522.328 231.573L561.435 197.234H645.515L606.409 231.573H522.328Z" fill="#EADCC3"/>
<path d="M606.409 231.548H522.328V236.315H606.409V231.548Z" fill="#C7AE92"/>
<path d="M606.402 236.341L645.509 202.001V197.234L606.402 231.573V236.341Z" fill="#FBFFF3"/>
<path d="M684.641 236.341L645.508 202.001V197.234L684.641 231.573V236.341Z" fill="#FBFFF3"/>
<g opacity="0.14">
<path opacity="0.14" d="M632.909 586.389H280.713V598.752H632.909V586.389Z" fill="#590F0F"/>
<path opacity="0.14" d="M632.909 608.233H280.713V620.597H632.909V608.233Z" fill="#590F0F"/>
<path opacity="0.14" d="M632.909 630.054H280.713V642.417H632.909V630.054Z" fill="#590F0F"/>
<path opacity="0.14" d="M632.909 651.898H280.713V664.262H632.909V651.898Z" fill="#590F0F"/>
<path opacity="0.14" d="M632.909 673.718H280.713V686.081H632.909V673.718Z" fill="#590F0F"/>
<path opacity="0.14" d="M632.909 695.562H280.713V707.926H632.909V695.562Z" fill="#590F0F"/>
<path opacity="0.14" d="M632.909 715.967H280.713V728.33H632.909V715.967Z" fill="#590F0F"/>
<path opacity="0.14" d="M632.909 736.345H280.713V748.708H632.909V736.345Z" fill="#590F0F"/>
<path opacity="0.14" d="M632.909 754.785H280.713V767.148H632.909V754.785Z" fill="#590F0F"/>
</g>
<g opacity="0.14">
<path opacity="0.14" d="M1060.99 586.389H632.914V598.752H1060.99V586.389Z" fill="#590F0F"/>
<path opacity="0.14" d="M1060.99 608.234H632.914V620.598H1060.99V608.234Z" fill="#590F0F"/>
<path opacity="0.14" d="M1060.99 630.054H632.914V642.417H1060.99V630.054Z" fill="#590F0F"/>
<path opacity="0.14" d="M1060.99 651.898H632.914V664.262H1060.99V651.898Z" fill="#590F0F"/>
<path opacity="0.14" d="M1060.99 673.718H632.914V686.081H1060.99V673.718Z" fill="#590F0F"/>
<path opacity="0.14" d="M1060.99 695.562H632.914V707.926H1060.99V695.562Z" fill="#590F0F"/>
<path opacity="0.14" d="M1060.99 715.967H632.914V728.33H1060.99V715.967Z" fill="#590F0F"/>
<path opacity="0.14" d="M1060.99 736.347H632.914V748.71H1060.99V736.347Z" fill="#590F0F"/>
<path opacity="0.14" d="M1060.99 754.785H632.914V767.148H1060.99V754.785Z" fill="#590F0F"/>
</g>
<path d="M837.764 570.044H668.66V760.967H837.764V570.044Z" fill="#6E4A34"/>
<path d="M679.583 575.491H668.66V760.966H679.583V575.491Z" fill="#722828"/>
<path d="M837.798 575.491H826.875V760.966H837.798V575.491Z" fill="#722828"/>
<path d="M668.66 575.492V586.415H837.764V575.492H668.66Z" fill="#722828"/>
<path d="M826.877 575.491L747.773 670.94H758.696L837.8 575.491H826.877Z" fill="#722828"/>
<path d="M679.583 575.491L758.687 670.94H747.764L668.66 575.491H679.583Z" fill="#722828"/>
<path d="M822.346 760.968L747.773 670.941H758.696L833.269 760.968H822.346Z" fill="#722828"/>
<path d="M684.118 760.968L758.69 670.941H747.768L673.195 760.968H684.118Z" fill="#722828"/>
<path d="M679.583 570.044H668.66V760.967H679.583V570.044Z" fill="#FCF9DE"/>
<path d="M837.798 570.044H826.875V760.967H837.798V570.044Z" fill="#FCF9DE"/>
<path d="M668.691 570.044V580.967H837.796V570.044H668.691Z" fill="#FCF9DE"/>
<path d="M668.66 760.966V771.889H837.764V760.966H668.66Z" fill="#FCF9DE"/>
<path d="M826.877 570.018L747.773 665.492H758.696L837.8 570.018H826.877Z" fill="#FCF9DE"/>
<path d="M679.583 570.018L758.687 665.492H747.764L668.66 570.018H679.583Z" fill="#FCF9DE"/>
<path d="M826.877 760.967L747.773 665.492H758.696L837.8 760.967H826.877Z" fill="#FCF9DE"/>
<path d="M679.583 760.967L758.687 665.492H747.764L668.66 760.967H679.583Z" fill="#FCF9DE"/>
<path d="M1035.95 570.044H866.844V760.967H1035.95V570.044Z" fill="#6E4A34"/>
<path d="M877.555 572.873H866.633V758.348H877.555V572.873Z" fill="#722828"/>
<path d="M1035.74 572.873H1024.82V758.348H1035.74V572.873Z" fill="#722828"/>
<path d="M866.633 572.847V583.77H1035.74V572.847H866.633Z" fill="#722828"/>
<path d="M1024.81 572.873L945.711 668.322H956.634L1035.74 572.873H1024.81Z" fill="#722828"/>
<path d="M877.529 572.873L956.633 668.322H945.71L866.633 572.873H877.529Z" fill="#722828"/>
<path d="M1020.31 758.348L945.711 668.321H956.634L1031.21 758.348H1020.31Z" fill="#722828"/>
<path d="M882.059 758.348L956.632 668.321H945.709L871.137 758.348H882.059Z" fill="#722828"/>
<path d="M877.766 570.044H866.844V760.967H877.766V570.044Z" fill="#FCF9DE"/>
<path d="M1035.95 570.044H1025.03V760.967H1035.95V570.044Z" fill="#FCF9DE"/>
<path d="M866.844 570.018V580.94H1035.95V570.018H866.844Z" fill="#FCF9DE"/>
<path d="M866.844 760.941V771.863H1035.95V760.941H866.844Z" fill="#FCF9DE"/>
<path d="M1025.03 570.018L945.953 665.492H956.849L1035.95 570.018H1025.03Z" fill="#FCF9DE"/>
<path d="M877.74 570.018L956.844 665.492H945.948L866.844 570.018H877.74Z" fill="#FCF9DE"/>
<path d="M1025.03 760.967L945.953 665.492H956.849L1035.95 760.967H1025.03Z" fill="#FCF9DE"/>
<path d="M877.74 760.967L956.844 665.492H945.948L866.844 760.967H877.74Z" fill="#FCF9DE"/>
<path d="M301.703 701.953V770.605H372.504V701.953H301.703Z" fill="#6E4A34"/>
<path d="M367.577 771.628H375.828V702.975H367.577V771.628Z" fill="#722828"/>
<path d="M305.05 771.628H313.301V702.975H305.05V771.628Z" fill="#722828"/>
<path d="M375.828 771.601V763.351H305.028V771.601H375.828Z" fill="#722828"/>
<path d="M375.828 711.2V702.949H309.952V711.2H375.828Z" fill="#722828"/>
<path d="M366.862 770.632H375.113V701.979H366.862V770.632Z" fill="#FCF9DE"/>
<path d="M304.315 770.632H312.566V701.979H304.315V770.632Z" fill="#FCF9DE"/>
<path d="M375.094 770.633V762.382H304.293V770.633H375.094Z" fill="#FCF9DE"/>
<path d="M375.094 710.23V701.979H304.293V710.23H375.094Z" fill="#FCF9DE"/>
<path d="M301.703 641.551V710.204H372.504V641.551H301.703Z" fill="#6E4A34"/>
<path d="M367.577 707.611H375.828V642.573H367.577V707.611Z" fill="#722828"/>
<path d="M305.05 707.611H313.301V642.573H305.05V707.611Z" fill="#722828"/>
<path d="M375.828 650.798V642.547H305.028V650.798H375.828Z" fill="#722828"/>
<path d="M366.862 710.23H375.113V641.578H366.862V710.23Z" fill="#FCF9DE"/>
<path d="M304.315 710.23H312.566V641.578H304.315V710.23Z" fill="#FCF9DE"/>
<path d="M375.094 710.23V701.979H304.293V710.23H375.094Z" fill="#FCF9DE"/>
<path d="M375.094 649.829V641.578H304.293V649.829H375.094Z" fill="#FCF9DE"/>
<path d="M851.488 418.908H856.151C880.882 418.908 904.6 428.733 922.087 446.22C939.575 463.707 949.399 487.426 949.399 512.157V519.412H758.188V512.209C758.181 499.955 760.589 487.819 765.276 476.496C769.962 465.173 776.834 454.885 785.499 446.22C794.164 437.555 804.453 430.683 815.775 425.996C827.098 421.31 839.234 418.901 851.488 418.908V418.908Z" fill="#6E4A34"/>
<path d="M856.73 416.289H861.393C886.124 416.289 909.842 426.113 927.329 443.601C944.817 461.088 954.641 484.806 954.641 509.537V516.793H763.43V509.59C763.423 497.335 765.831 485.2 770.518 473.877C775.204 462.554 782.076 452.266 790.741 443.601C799.407 434.936 809.695 428.064 821.018 423.377C832.34 418.691 844.476 416.282 856.73 416.289V416.289Z" stroke="#FCF9DE" stroke-width="4" stroke-miterlimit="10"/>
<path opacity="0.29" d="M1058.92 523.394L1056.02 516.269L1050.96 503.906L1047.09 494.45L1042.03 482.061L1038.15 472.605L1033.1 460.242L1029.22 450.786L1024.17 438.396L1020.29 428.941L1015.23 416.577L1011.38 407.122L1008.56 400.233L999.675 394.732L851.212 302.898L711.601 394.732L703.245 400.233L701.438 407.122L698.976 416.577L695.754 428.941L693.292 438.396L690.07 450.786L687.608 460.242L684.36 472.605L681.898 482.061L678.676 494.45L676.214 503.906L672.992 516.269L665.082 546.575L632.916 580.941L610.73 577.797L649.078 536.464L654.002 516.269L657.014 503.906L659.345 494.45L662.358 482.061L664.663 472.605L667.675 460.242L669.98 450.786L673.018 438.396L675.323 428.941L678.335 416.577L680.641 407.122L683.679 394.732L684.465 391.484L851.212 276.103L1020.92 394.732L1028.78 400.233L1030.45 407.122L1032.78 416.577L1035.8 428.941L1038.13 438.396L1041.14 450.786L1043.47 460.242L1046.48 472.605L1048.81 482.061L1051.83 494.45L1054.16 503.906L1057.17 516.269L1058.92 523.394Z" fill="#590F0F"/>
<path d="M540.917 286.318L459.062 285.06L494.031 261.041H540.917V286.318Z" fill="#F2EADB"/>
<path d="M654.391 261.041L614.918 286.318H814.537L851.365 261.041H654.391Z" fill="#F2EADB"/>
</svg>
