<svg xmlns="http://www.w3.org/2000/svg" viewBox="0 0 788.65 2068.21"><defs><style>.cls-1{isolation:isolate;}.cls-2{fill:#91ad2d;}.cls-3{fill:#4e4700;opacity:0.17;}.cls-4{fill:#779d15;}.cls-5{fill:#9eb52c;}.cls-6,.cls-7{fill:#ecde76;}.cls-6{opacity:0.7;}.cls-7{opacity:0.21;}.cls-8{fill:#9b8e00;}.cls-9{fill:#8e8200;}.cls-10{fill:#c9ca59;}.cls-11{fill:#a3a930;}.cls-12{fill:#ccbe16;}.cls-13{fill:#fbf98a;}.cls-14{fill:#f0e859;}.cls-15{fill:#90a225;}.cls-16{fill:none;stroke:#433400;stroke-linecap:round;stroke-miterlimit:10;stroke-width:0.2px;}.cls-17{fill:#feaf02;}.cls-18{fill:#fed050;}.cls-19{fill:#433400;}.cls-20,.cls-21{fill:#ff385d;}.cls-21{opacity:0.56;mix-blend-mode:screen;}</style></defs><title>Beanstalks Spring</title><g class="cls-1"><g id="Layer_2" data-name="Layer 2"><path class="cls-2" d="M1028.3,2239q-1.71,6.61-3.73,13.33H645s-5.1-23.22-7.17-57.62c-.51-8.54-.83-17.77-.85-27.5-.06-49.35,7.88-111.67,40.06-163,48-76.56,126.1-172.26,134.28-396.66a44.62,44.62,0,0,1,2.21,4.82,49.16,49.16,0,0,1,3.46,19.07,47.18,47.18,0,0,1-4.28,18.91c.82-1.39,1.69-2.77,2.47-4.22l1-2.24a20.86,20.86,0,0,0,1-2.28,47.89,47.89,0,0,0,.63-30.48,51.34,51.34,0,0,0-6.19-13.15c2-73-3.32-159.33-19.21-262.6-66.24-430.49,17.27-381.34,62-622.62,49.85-269.16-113.24-259.43-81.19-428,0,0,8.39-28.13,27.71-37.58l.78-.37c10.06-4.58,23-4.09,39.19,7.82q1.39,1,2.82,2.16c50.21,40.13,2.62,13.37-13,10.67a9.13,9.13,0,0,0-2.15-.11c-6.75.41-13.45,8-17.53,18l0,.06c-4.65,11.53-5.88,26.35.11,37.6.4.76.84,1.51,1.32,2.24,14.24,21.89,19.94,34.86,50.56,64.86s54.13,64,61.25,87.55,22.43,57.16,17.8,135.8-10.68,113.9-46.29,238.75-47,275.64,0,408.59,57,170.66,51.64,272.8-44.87,262.67,59.82,476.7C1007.12,2010.34,1061.36,2110.91,1028.3,2239Z" transform="translate(-299.11 -199.23)"/><path class="cls-2" d="M1028.3,2239h-368s-5.1-23.22-7.16-57.63c-.51-8.53-.84-17.76-.85-27.49-.07-49.35,7.88-111.67,40.06-163,64.09-102.14,181.6-238.34,115.37-668.83s17.27-381.33,62-622.62c49.85-269.15-113.24-259.42-81.19-428a86.33,86.33,0,0,1,12.38-24.24l.78-.37c10.06-4.58,23-4.09,39.19,7.82q1.39,1,2.82,2.16c50.21,40.13,2.62,13.37-13,10.67a9.13,9.13,0,0,0-2.15-.11,13.65,13.65,0,0,0-7.76,3.49c-3.84,3.23-7.29,8.42-9.77,14.55l0,.06c-4.8,11.22-6.08,26.08.11,37.6.4.76.84,1.51,1.32,2.24,14.24,21.89,19.94,34.86,50.56,64.86s54.13,64,61.25,87.55c3.15,10.4,7.9,22.79,11.82,40.18h0c4.94,21.91,8.55,51.77,6,95.61-4.62,78.63-10.68,113.9-46.29,238.75s-47,275.64,0,408.59,57,170.66,51.64,272.8-44.87,262.67,59.82,476.7C1007.12,2010.34,1061.36,2110.91,1028.3,2239Z" transform="translate(-299.11 -199.23)"/><path class="cls-3" d="M1028.3,2239l-3.73,13.33-50.52,2.05L652.3,2267.44s-93.07-129.77,113.81-270.22c107.83-73.19,227-416.67,136.34-717.09,1.59,3.9,57.85,143.5,44.85,253.51-5.93,50.16-11.88,104.64-12.11,162.47-.08,21.21.6,42.87,2.33,64.93a668.39,668.39,0,0,0,11.78,83.56A620.58,620.58,0,0,0,970.58,1922s6.86,19.27,16.18,42.32c.1.25.2.51.31.77.24.6.48,1.21.73,1.81,5.91,14.5,12.7,30.25,19.32,43.49,2.63,5.27,5.18,10.77,7.61,16.45,13.87,32.36,23.85,70.05,23,98.83C1037.75,2125.62,1039.82,2203.44,1028.3,2239Z" transform="translate(-299.11 -199.23)"/><path class="cls-3" d="M895.66,1260.84s-81.6-115.17-50-285.84S930,778.14,937.38,524.57c0,0,15.89,116.13-24.71,266.54-.54,2-11.67,42.11-17,61.14C895.66,852.25,824.32,1068.46,895.66,1260.84Z" transform="translate(-299.11 -199.23)"/><path class="cls-3" d="M1028.3,2239l-3.73,13.33-50.52,2.05c7.12-40.12,13.61-117.38-16.83-203.82-42.88-121.81-83.62-245.79-22-354.45q3.34-5.91,7.11-11.76c-.23.82-7.48,27.06-4.78,76.69a524.11,524.11,0,0,0,11.78,83.56c7.57,34.6,19.4,74.57,37.46,119.67.1.25.2.51.31.77s.15.39.23.59c.16.41.33.81.5,1.22,9.94,24.64,19,44,26.93,59.94,13.87,32.36,23.85,70.05,23,98.83C1037.75,2125.62,1039.82,2203.44,1028.3,2239Z" transform="translate(-299.11 -199.23)"/><path class="cls-4" d="M907.06,1792.66c-168.47,190.19-232.51,192.15-267.57,372.72q-1.22,6.24-2.38,12.77s-23.14-32.76-30.52-82.89c-7.12-48.36.44-112.89,57.62-179.77,83.57-97.75,129.72-155.2,149.12-179.85,7.63-9.7,11.12-14.32,11.12-14.32s125.34-147.55,135.31-215.64-13.65-67.12-13.65-67.12-7.62-46.41-14.77-69.94c2.3,8.15,15.76,17.37,29.06,34.64h0c6.6,8.57,12.4,16.16,15,19.72C999,1455.07,1079.41,1598.1,907.06,1792.66Z" transform="translate(-299.11 -199.23)"/><path class="cls-4" d="M915.85,1001.09c0-.66,0-1.32-.05-2s0-1.3-.09-2-.07-1.29-.12-1.92-.09-1.27-.15-1.9c-.11-1.26-.24-2.49-.4-3.71-.07-.58-.15-1.16-.23-1.73a.19.19,0,0,0,0-.08v0c-.12-.8-.24-1.58-.37-2.35s-.26-1.51-.4-2.24c0,0,0-.06,0-.09-.15-.81-.32-1.61-.49-2.4-.14-.62-.28-1.25-.43-1.86s-.31-1.28-.47-1.9c-.1-.38-.2-.76-.31-1.13s-.24-.9-.38-1.35-.27-.93-.41-1.39c-.19-.63-.39-1.24-.59-1.85-.6-1.83-1.25-3.61-1.93-5.32-.22-.56-.45-1.12-.68-1.67-.36-.86-.73-1.71-1.11-2.54-.15-.34-.31-.68-.47-1-.43-.93-.88-1.84-1.33-2.73-1-2-2-3.81-3.1-5.57-.33-.56-.67-1.1-1-1.64l-.94-1.45c-.56-.86-1.13-1.7-1.7-2.51-.22-.32-.45-.63-.67-.94-1.19-1.65-2.39-3.19-3.58-4.63-.33-.4-.65-.79-1-1.17q-2-2.34-3.89-4.29l-.84-.85c-1.51-1.52-2.93-2.83-4.2-3.94l-.52-.45c-1.81-1.56-3.31-2.69-4.32-3.43l-.55-.39-.82-.55-.11-.07c-3.8,18.94-5,29.37-5,29.37l6.8,7.86c6.59,9.19,28.84,35.27-48.08,105.8-36.71,33.66-67.56,57.07-90.5,83.19-15.81,18-27.86,37.3-35.45,62.12-4.48,14.62-7.4,31.16-8.65,50.48-6.26,97.44,101.46,155.71,106.38,158.32l.17.09a.2.2,0,0,0,0-.07c-.22-2.11-.86-7.52-1.71-14.53-.37-3-.77-6.39-1.2-9.89-1.14-9.26-2.41-19.63-3.5-28.47l-2.6-21-20.26-17.2c-96.5-113.34,54.84-135.38,116.8-247.26.57-1,1.12-2,1.66-3q1.63-3,3.12-6c1-2,2-3.93,2.86-5.86a206.9,206.9,0,0,0,9-22.19c.3-.88.59-1.76.86-2.63C914.12,1028.65,916.09,1014,915.85,1001.09Zm-11.84-35c0,.14,0,.27,0,.41a22.67,22.67,0,0,0,.61,4.37c.08.39.18.76.29,1.13a20.53,20.53,0,0,0,1.82,4.08q.85,4.05,1.3,8.12a20.77,20.77,0,0,1-4.27-4.26,24.19,24.19,0,0,1-3.18-5.91,27.38,27.38,0,0,1-1.4-6.82,26.3,26.3,0,0,1,0-3.66,28.46,28.46,0,0,1,1.2-6.44A85.9,85.9,0,0,1,904,966.05Z" transform="translate(-299.11 -199.23)"/><path class="cls-5" d="M962.61,635c-16.38,62.41-59.83,80-59.83,80-129.14,78.91-83.68,131.2-87.24,139.3-1,2.29-2.17,5.21-3.31,8.22s-2.32,6.22-3.28,8.91c-1.46,4-2.48,7-2.48,7s-43.78-53.06-12.06-104.12c8.51-13.71,22.46-27.27,44.17-39.63,0,0,59.93-37.25,77-51s48.13-53.49,26.91-110.24l-3.87-38.65,0-.17S981.37,563.49,962.61,635Z" transform="translate(-299.11 -199.23)"/><path class="cls-4" d="M768.29,1063.17c-.18,13-.14,23.25-.14,23.25-24.22-73-149.89-68.63-262.41-47.55s-145.29-22.7-169.5-56.75l-4.52-6.36c-24.71-34.71-61.12-86.15,4.52-10.56,14.67,16.89,31.61,27.07,50.12,32.54a120.88,120.88,0,0,0,16.79,3.66c13.47,2,27.61,2,42.19.66q5.45-.48,11-1.22c55.13-7.23,115.5-30.52,169.09-34.94,98.28-8.1,145.29,49.19,145.29,49.19C769.13,1024.08,768.52,1046,768.29,1063.17Z" transform="translate(-299.11 -199.23)"/><path class="cls-6" d="M768.39,1086.71c-24.22-73-149.89-68.63-262.41-47.55s-145.29-22.7-169.5-56.75L332,976.05c24.21,26.59,54.1,48.06,96.07,54.35,71.12,10.67,74.41-12.44,209.52-13.33,76.58-.5,113.43,24.57,131,46.39C768.35,1076.43,768.39,1086.71,768.39,1086.71Z" transform="translate(-299.11 -199.23)"/><path class="cls-6" d="M808.64,1741.58c-22,50.45-52.95,91.33-132.31,181-51.9,58.63-66.9,124.53-69.74,172.7-7.12-48.36.44-112.89,57.62-179.77C747.78,1817.74,789.24,1766.23,808.64,1741.58Z" transform="translate(-299.11 -199.23)"/><path class="cls-3" d="M907.06,1792.66c-168.47,190.19-232.51,192.15-267.57,372.72-7.18-185.9,132.12-264.11,264.29-422,144.77-173,56.62-340.1,56.62-340.1h0c6.6,8.57,12.4,16.16,15,19.72C999,1455.07,1079.41,1598.1,907.06,1792.66Z" transform="translate(-299.11 -199.23)"/><path class="cls-6" d="M803.86,1423.24l-.16,0c-4.92-2.61-112.64-60.88-106.38-158.32,1.25-19.32,4.17-35.86,8.65-50.48-2.66,26.55-.83,64.17,13.62,106.65,12.83,37.7,55,69.92,82.56,87.64C803,1415.72,803.64,1421.13,803.86,1423.24Z" transform="translate(-299.11 -199.23)"/><path class="cls-3" d="M908.86,1045.2c-.27.87-.56,1.75-.86,2.63a202.83,202.83,0,0,1-9,22.19c-.91,1.93-1.86,3.89-2.86,5.86s-2,4-3.12,6c-.54,1-1.09,2-1.66,3-62,111.88-213.3,133.92-116.8,247.26l20.26,17.2,2.6,21c-17.58-12-38.21-29.76-47.45-51.52-17.67-41.61-18.78-65.16,0-100.72,15.6-29.53,169.11-136,158-233.95q-.45-4.06-1.3-8.12a87.18,87.18,0,0,0-2.73-10,85.9,85.9,0,0,0-3.61-9c-4.9-10.57-12.17-20.94-22.21-31l.11.07.82.55.55.39c1,.74,2.51,1.87,4.32,3.43l.52.45c1.27,1.11,2.69,2.42,4.2,3.94l.84.85q1.89,1.95,3.89,4.29c.33.38.65.77,1,1.17,1.19,1.44,2.39,3,3.58,4.63.22.31.45.62.67.94.57.81,1.14,1.65,1.7,2.51l.94,1.45c.33.54.67,1.08,1,1.64,1.06,1.76,2.1,3.62,3.1,5.57.45.89.9,1.8,1.33,2.73.16.33.32.67.47,1,.38.83.75,1.68,1.11,2.54.23.55.46,1.11.68,1.67.68,1.71,1.33,3.49,1.93,5.32.2.61.4,1.22.59,1.85.14.46.28.92.41,1.39s.26.9.38,1.35.21.75.31,1.13c.16.62.32,1.26.47,1.9s.29,1.24.43,1.86c.17.79.34,1.59.49,2.4,0,0,0,.06,0,.09.14.73.28,1.48.4,2.24s.25,1.55.37,2.35v0a.19.19,0,0,1,0,.08c.08.57.16,1.15.23,1.73.16,1.22.3,2.45.4,3.71.06.63.11,1.26.15,1.9s.09,1.27.12,1.92.07,1.3.09,2,.05,1.31.05,2C916.09,1014,914.12,1028.65,908.86,1045.2Z" transform="translate(-299.11 -199.23)"/><path class="cls-6" d="M809,871.4c-1.46,4-2.48,7-2.48,7s-43.78-53.06-12.06-104.12C780.54,807.53,796.82,848.3,809,871.4Z" transform="translate(-299.11 -199.23)"/><path class="cls-3" d="M962.61,635c-16.38,62.41-59.83,80-59.83,80-129.14,78.91-83.68,131.2-87.24,139.3-1,2.29-2.17,5.21-3.31,8.22-8.32-12.88-16.88-35.9-3.16-67,16.91-38.38,48.6-56.59,70.52-70.51s53.43-36.07,69.34-67.86,14.22-53.33,11.85-71.4c-2.22-17-14.26-39.42-22.14-50.93l0-.17S981.37,563.49,962.61,635Z" transform="translate(-299.11 -199.23)"/><path class="cls-7" d="M936,517.88c-.57-1.23-37.69-80-73-105.55-34.09-24.7-96.9-112.06-42.29-141.49-3.84,3.23-7.29,8.42-9.77,14.55l0,.06c-4.8,11.22-6.08,26.08.11,37.6.4.76.84,1.51,1.32,2.24,14.24,21.89,19.94,34.86,50.56,64.86s54.13,64,61.25,87.55C927.3,488.1,932.05,500.49,936,517.88Z" transform="translate(-299.11 -199.23)"/><g id="Roll"><path class="cls-4" d="M455.36,1002a48,48,0,0,1-19.39,12.7l-2.79,1a25.36,25.36,0,0,1-2.87.65l-2.91.59-3,.26a39.08,39.08,0,0,1-12.18-.67,45.37,45.37,0,0,1-11.85-4.44,52,52,0,0,1-10.45-7.93,50,50,0,0,1-4.53-5.22,53.59,53.59,0,0,1-9-18,50.71,50.71,0,0,1-1.48-6.68c-.19-1.11-.26-2.25-.37-3.38a24.45,24.45,0,0,1-.22-3.42c0-1.15-.07-2.31,0-3.45l.3-3.45.6-3.37c.2-1.12.56-2.2.84-3.3A38,38,0,0,1,391.27,933,33.91,33.91,0,0,1,403,928.12c1.05-.18,2.1-.41,3.17-.51l3.21-.18c1.1,0,2.23.1,3.35.18a25.19,25.19,0,0,1,3.33.57,31.5,31.5,0,0,1,12.33,6.13,35.46,35.46,0,0,1,9.11,11.08,37.67,37.67,0,0,1,4.07,13.8,29.69,29.69,0,0,1-1.85,14.17,25.63,25.63,0,0,1-8.12,10.87,22.44,22.44,0,0,1-12.3,4.49,18.39,18.39,0,0,1-6.84-.84,21,21,0,0,1-9-5.68,23.7,23.7,0,0,1-5.5-9.62,25.27,25.27,0,0,1-1-7.21,18.67,18.67,0,0,1,1.49-7.06,16,16,0,0,1,3.9-5.58,14.7,14.7,0,0,1,5.72-3.27,13.75,13.75,0,0,1,6.6-.25,13,13,0,0,1,6.1,3.32,14.7,14.7,0,0,1,4.3,12.93,10.44,10.44,0,0,1-3.15,5.67,8.4,8.4,0,0,1-5.6,2.21,6.79,6.79,0,0,1-3-.63,7.72,7.72,0,0,1-2.57-1.88,8.15,8.15,0,0,1-1.62-2.68,8.62,8.62,0,0,1-.52-3.09,8.65,8.65,0,0,0,.86,2.84,8,8,0,0,0,1.8,2.29,6,6,0,0,0,2.31,1.29,5.44,5.44,0,0,0,2.53.17,6.92,6.92,0,0,0,4.25-2.32,8.21,8.21,0,0,0,1.87-4.55,11,11,0,0,0-.88-5,10.62,10.62,0,0,0-3-4,8.33,8.33,0,0,0-4.18-1.74,9.14,9.14,0,0,0-4.37.66,9.93,9.93,0,0,0-3.62,2.51,11.18,11.18,0,0,0-2.32,3.93,12.82,12.82,0,0,0-.62,4.59,17.85,17.85,0,0,0,1,4.78,15.75,15.75,0,0,0,5.69,7.35,12.58,12.58,0,0,0,4,1.75,11.16,11.16,0,0,0,4.26.24,14.66,14.66,0,0,0,8-3.43,17.09,17.09,0,0,0,5.07-7.4,18.45,18.45,0,0,0,.65-2.23c.14-.76.26-1.53.34-2.31l.08-1.19c0-.39,0-.79,0-1.17a18.41,18.41,0,0,0-.2-2.46,25.63,25.63,0,0,0-3-9.44,23.76,23.76,0,0,0-6.22-7.3,21.07,21.07,0,0,0-8.3-4l-2.22-.36c-.75,0-1.49-.09-2.25-.1l-2.34.16c-.77.07-1.53.27-2.26.37a25,25,0,0,0-8.5,3.57,28.05,28.05,0,0,0-11.21,15.27c-.21.81-.51,1.59-.67,2.41l-.48,2.49-.25,2.54c-.09.84,0,1.72-.07,2.56a19.15,19.15,0,0,0,.12,2.62c.09.89.11,1.8.25,2.68a47.69,47.69,0,0,0,1.05,5.27,41.72,41.72,0,0,0,16.45,24.14c.6.44,1.21.85,1.83,1.24a38.09,38.09,0,0,0,9.43,4.08,34.13,34.13,0,0,0,10.07,1.16l2.58-.06,2.53-.36a23.73,23.73,0,0,0,2.55-.38l2.5-.6a42.62,42.62,0,0,0,10.7-4.42Q449.85,1002.76,455.36,1002Z" transform="translate(-299.11 -199.23)"/><path class="cls-8" d="M908,984.16a20.77,20.77,0,0,1-4.27-4.26,24.19,24.19,0,0,1-3.18-5.91,27.38,27.38,0,0,1-1.4-6.82,26.3,26.3,0,0,1,0-3.66,28.46,28.46,0,0,1,1.2-6.44,85.9,85.9,0,0,1,3.61,9c0,.14,0,.27,0,.41a22.67,22.67,0,0,0,.61,4.37c.08.39.18.76.29,1.13a20.53,20.53,0,0,0,1.82,4.08Q907.59,980.09,908,984.16Z" transform="translate(-299.11 -199.23)"/><path class="cls-9" d="M914.43,985.44c.13.77.25,1.55.37,2.35v0c-.31-.11-.62-.22-.93-.35l-1.45-.59a14.13,14.13,0,0,1-1.38-.75l-1.36-.78-1.28-.93-.36-.26q-.45-4.06-1.3-8.12c.17.29.34.57.52.85a18.32,18.32,0,0,0,3.62,4l1,.87,1.14.74c.31.21.61.44.94.63,0,0,0,.06,0,.09C914.17,983.93,914.31,984.68,914.43,985.44Z" transform="translate(-299.11 -199.23)"/><path class="cls-9" d="M938.69,960.32a19.84,19.84,0,0,1-3.2,6.93,15.65,15.65,0,0,1-5.68,5,13.63,13.63,0,0,1-7,1.51,11.93,11.93,0,0,1-6.48-2.5,9.83,9.83,0,0,1-2.44-2.73,11.24,11.24,0,0,1-1.62-5.42,12.72,12.72,0,0,1,1.17-5.76,13.34,13.34,0,0,1,2.13-3.22,9.83,9.83,0,0,1,3.06-2.29,8.41,8.41,0,0,1,3.5-.87,7.89,7.89,0,0,1,3.43.69,7.35,7.35,0,0,1,2.72,2.21,6.93,6.93,0,0,1,1.28,3.45,7.8,7.8,0,0,1-2.8,6.67,5.57,5.57,0,0,1-3.24,1.16,4.47,4.47,0,0,1-3-1.07,3.7,3.7,0,0,1-1-1.3,4.19,4.19,0,0,1-.37-1.65,4.35,4.35,0,0,1,.29-1.63,4.68,4.68,0,0,1,.87-1.42,4.69,4.69,0,0,0-.65,1.44,4.22,4.22,0,0,0-.08,1.54,3.31,3.31,0,0,0,.47,1.32,2.79,2.79,0,0,0,1,1,3.69,3.69,0,0,0,2.51.56,4.4,4.4,0,0,0,2.34-1.16,6,6,0,0,0,1.38-2.29,5.57,5.57,0,0,0,.2-2.65,4.37,4.37,0,0,0-1.06-2.15,4.86,4.86,0,0,0-2-1.26,5.21,5.21,0,0,0-2.32-.26,5.83,5.83,0,0,0-2.3.75,7,7,0,0,0-1.85,1.62,9.83,9.83,0,0,0-1.28,2.25,8.42,8.42,0,0,0-.29,4.93,6.69,6.69,0,0,0,1,2.09,6.12,6.12,0,0,0,1.62,1.59,7.86,7.86,0,0,0,4.39,1.42,9.09,9.09,0,0,0,4.61-1.19,10.64,10.64,0,0,0,1-.66c.32-.26.63-.52.94-.81l.45-.44c.14-.15.27-.32.4-.47a8.65,8.65,0,0,0,.78-1.05,13.6,13.6,0,0,0,2.09-4.83,12.66,12.66,0,0,0,.07-5.09,11.36,11.36,0,0,0-1.92-4.49l-.76-.92c-.3-.27-.57-.55-.87-.82l-1-.75c-.33-.25-.7-.43-1-.65a13.58,13.58,0,0,0-4.64-1.54,14.91,14.91,0,0,0-9.81,2.18c-.37.25-.76.46-1.11.73l-1.06.83-1,.92c-.32.31-.61.68-.92,1a10,10,0,0,0-.86,1.09c-.28.39-.59.76-.84,1.16a25.09,25.09,0,0,0-1.42,2.47,24,24,0,0,0-1.08,2.51,22.89,22.89,0,0,0-1.4,8.09,85.9,85.9,0,0,0-3.61-9,30.91,30.91,0,0,1,1.53-3.9c.12-.26.25-.52.38-.78a25.9,25.9,0,0,1,1.36-2.4c.31-.51.68-1,1-1.48a12,12,0,0,1,1.11-1.44c.4-.46.78-1,1.21-1.38l1.32-1.27,1.42-1.14c.47-.37,1-.68,1.49-1a20.2,20.2,0,0,1,13.32-3,18,18,0,0,1,6.37,2.17c.49.29,1,.57,1.45.9l1.34,1.05c.44.38.86.82,1.28,1.24a14.91,14.91,0,0,1,1.13,1.39,16.8,16.8,0,0,1,2.78,6.76A18.93,18.93,0,0,1,938.69,960.32Z" transform="translate(-299.11 -199.23)"/><path class="cls-10" d="M771.75,1394.47a20.11,20.11,0,0,1,9.62,8.61,21.47,21.47,0,0,1,2.3,6.24,17.82,17.82,0,0,1,.05,6.55,16.86,16.86,0,0,1-2.28,6.09,14.18,14.18,0,0,1-4.81,4.62,16.08,16.08,0,0,1-6.61,2.08,18.06,18.06,0,0,1-7.18-.84,18.25,18.25,0,0,1-3.42-1.51,16.51,16.51,0,0,1-4.53-3.65,15.68,15.68,0,0,1-2.9-5,13.68,13.68,0,0,1-.85-5.4,12.29,12.29,0,0,1,1.34-5.09,9.63,9.63,0,0,1,2.09-2.81,10.11,10.11,0,0,1,6.46-2.67,12,12,0,0,1,6.92,1.89,9.94,9.94,0,0,1,2.64,2.45,9.12,9.12,0,0,1,1.51,3.18,7.17,7.17,0,0,1,.12,3.12,6.21,6.21,0,0,1-1.24,2.75,7.09,7.09,0,0,0-.43-5.49,7.39,7.39,0,0,0-1.57-2.13,7.63,7.63,0,0,0-2.24-1.45,8,8,0,0,0-4.75-.58,6.78,6.78,0,0,0-3.91,2.23,5.72,5.72,0,0,0-1,1.87,7.39,7.39,0,0,0-.54,2.2,9.26,9.26,0,0,0,.71,4.49,9.87,9.87,0,0,0,2.73,3.78,10.19,10.19,0,0,0,2,1.35,12.74,12.74,0,0,0,2.28,1,12.87,12.87,0,0,0,4.82.63,11.25,11.25,0,0,0,4.5-1.23,10.46,10.46,0,0,0,3.56-2.94,14,14,0,0,0,2.18-4.39C781.26,1408.05,778.52,1399.76,771.75,1394.47Z" transform="translate(-299.11 -199.23)"/><path class="cls-2" d="M817.17,1641.66a20.86,20.86,0,0,1-1,2.28l-1,2.24c-.78,1.45-1.65,2.83-2.47,4.22a47.18,47.18,0,0,0,4.28-18.91,49.16,49.16,0,0,0-3.46-19.07,44.62,44.62,0,0,0-2.21-4.82q.18-4.74.31-9.57a51.34,51.34,0,0,1,6.19,13.15A47.89,47.89,0,0,1,817.17,1641.66Z" transform="translate(-299.11 -199.23)"/><path class="cls-5" d="M811.61,1599.49c-.06,2.28-.13,4.53-.22,6.77a33.37,33.37,0,0,0-5.88-8l-1.23-1.19c-.4-.39-.87-.72-1.3-1.09l-1.3-1.07-1.4-.94a25.53,25.53,0,0,0-5.83-2.94,24.77,24.77,0,0,0-6.22-1.23,23.58,23.58,0,0,0-6.17.57,20.79,20.79,0,0,0-10.34,6,22.61,22.61,0,0,0-1.93,2.32c-.29.4-.54.85-.81,1.28a9.16,9.16,0,0,0-.74,1.29c-.19.44-.45.86-.62,1.33l-.5,1.38-.37,1.44c-.13.48-.15,1-.25,1.46a19,19,0,0,0,2.27,11.73,19.46,19.46,0,0,0,3.77,4.8c.37.31.74.67,1.14,1l1.25.89c.42.27.84.49,1.26.74l1.31.6a13.38,13.38,0,0,0,5.57.88,12.12,12.12,0,0,0,9.36-5.29,8.36,8.36,0,0,0,.72-1.19c.1-.19.22-.38.32-.59l.25-.64a10.9,10.9,0,0,0,.4-1.3,10.14,10.14,0,0,0,.21-1.36,11.34,11.34,0,0,0-.9-5.55,11.54,11.54,0,0,0-3.51-4.56,8.67,8.67,0,0,0-2.42-1.38,8.17,8.17,0,0,0-2.63-.5,7.88,7.88,0,0,0-5,1.75,8.14,8.14,0,0,0-1.77,2.1,6.27,6.27,0,0,0-.82,2.55,6.94,6.94,0,0,0,.26,2.82,7.46,7.46,0,0,0,1.35,2.55,7.17,7.17,0,0,0,2.23,1.87,5.07,5.07,0,0,0,5.41-.41,5.24,5.24,0,0,0,1.75-2.22,5,5,0,0,0,.13-3,5.23,5.23,0,0,0-1.75-2.67,3.92,3.92,0,0,0-1.43-.81,3.79,3.79,0,0,0-1.6-.16,4,4,0,0,0-1.57.55,3.81,3.81,0,0,0-1.19,1.14,4.06,4.06,0,0,1,1.07-1.4,4.11,4.11,0,0,1,1.57-.8,4.62,4.62,0,0,1,1.89,0,4.9,4.9,0,0,1,1.81.73,6.56,6.56,0,0,1,2.51,3.09,6.71,6.71,0,0,1,.29,4,7.19,7.19,0,0,1-2.09,3.37,7.09,7.09,0,0,1-3.57,1.71,7.74,7.74,0,0,1-4.19-.45,10.15,10.15,0,0,1-3.57-2.44,11.53,11.53,0,0,1-2.32-3.68,11.08,11.08,0,0,1-.72-4.21,10.38,10.38,0,0,1,1-4.12,12,12,0,0,1,2.38-3.34,11.39,11.39,0,0,1,5.47-3,12.48,12.48,0,0,1,6.41.27,13.11,13.11,0,0,1,4,2,17.19,17.19,0,0,1,7.31,15,15.81,15.81,0,0,1-2.59,7.88,17.88,17.88,0,0,1-5.75,5.6,18.09,18.09,0,0,1-7.82,2.46,19.58,19.58,0,0,1-8.34-1.21,16.73,16.73,0,0,1-2-.88c-.63-.35-1.28-.69-1.88-1.08l-1.72-1.22c-.56-.43-1.08-.91-1.61-1.37a26.63,26.63,0,0,1-5.22-6.59,25.63,25.63,0,0,1-3-15.94c.13-.66.2-1.33.39-2l.52-1.93.71-1.86c.25-.61.59-1.18.88-1.77a13.34,13.34,0,0,1,1-1.67c.35-.53.68-1.08,1.06-1.59a26.37,26.37,0,0,1,15.87-10,29.58,29.58,0,0,1,7.76-.39,30.14,30.14,0,0,1,7.64,1.91,28.62,28.62,0,0,1,6.87,3.93l1.56,1.18,1.45,1.31c.47.45,1,.86,1.41,1.35l1.29,1.46A37.28,37.28,0,0,1,811.61,1599.49Z" transform="translate(-299.11 -199.23)"/></g><g id="Leaves"><path class="cls-11" d="M346.72,910.72v0c38.89-9.94,41,23.51,41.14,26.72a1.61,1.61,0,0,1,0,.25C353.31,949.88,346.94,912.14,346.72,910.72Z" transform="translate(-299.11 -199.23)"/><path class="cls-12" d="M346.72,910.72l41.11,26.92c-.22,0,0,0,0,0C353.31,949.88,346.94,912.14,346.72,910.72Z" transform="translate(-299.11 -199.23)"/></g><g id="Leaves-2" data-name="Leaves"><path class="cls-11" d="M650.46,918.05l0,0c33.18,22.58,9.51,46.31,7.18,48.52l-.18.17C625.45,948.91,649.54,919.16,650.46,918.05Z" transform="translate(-299.11 -199.23)"/><path class="cls-12" d="M650.46,918.05l7,48.64c-.15-.17,0,0,0,0C625.45,948.91,649.54,919.16,650.46,918.05Z" transform="translate(-299.11 -199.23)"/></g><g id="Leaves-3" data-name="Leaves"><path class="cls-11" d="M1012.32,1397.41h0c3.62,40-29.74,36.75-32.93,36.36l-.25,0C972.61,1397.69,1010.89,1397.41,1012.32,1397.41Z" transform="translate(-299.11 -199.23)"/><path class="cls-12" d="M1012.32,1397.41l-33.12,36.3c0-.22,0,0,0,0C972.61,1397.69,1010.89,1397.41,1012.32,1397.41Z" transform="translate(-299.11 -199.23)"/></g><g id="Leaves-4" data-name="Leaves"><path class="cls-11" d="M718.84,1790.77l0,0c37.61,14,20.29,42.71,18.56,45.41l-.14.21C701.93,1826.7,718.22,1792.06,718.84,1790.77Z" transform="translate(-299.11 -199.23)"/><path class="cls-12" d="M718.84,1790.77l18.43,45.55c-.18-.12,0,0,0,0C701.93,1826.7,718.22,1792.06,718.84,1790.77Z" transform="translate(-299.11 -199.23)"/><path class="cls-11" d="M735.12,1838.29c-19,12.72-28.69-9.15-29-10v0c22-12,28.44,7.92,29,9.84" transform="translate(-299.11 -199.23)"/><path class="cls-12" d="M735.12,1838.29c-19,12.72-28.69-9.15-29-10l29,10" transform="translate(-299.11 -199.23)"/></g><g id="Leaves-5" data-name="Leaves"><path class="cls-11" d="M719.67,1418.72h0c14.74-23.39,31.66-7.67,33.23-6.12l.13.12C741.52,1435.19,720.46,1419.33,719.67,1418.72Z" transform="translate(-299.11 -199.23)"/><path class="cls-12" d="M719.67,1418.72l33.32-6c-.12.11,0,0,0,0C741.52,1435.19,720.46,1419.33,719.67,1418.72Z" transform="translate(-299.11 -199.23)"/></g><path class="cls-11" d="M739.34,1833.79c-14.43-14.14,2.72-26.44,3.37-26.9h0c14.34,16.85-1.7,26-3.26,26.84" transform="translate(-299.11 -199.23)"/><path class="cls-12" d="M739.34,1833.79c-14.43-14.14,2.72-26.44,3.37-26.9l-3.37,26.88" transform="translate(-299.11 -199.23)"/><path class="cls-5" d="M767.2,1594a9.81,9.81,0,0,0,5.25-5.19,12,12,0,0,0,.94-3.89,11.75,11.75,0,0,0-.48-4.15,12.81,12.81,0,0,0-1.87-3.91,11.19,11.19,0,0,0-7.55-4.57,10.31,10.31,0,0,0-4.36.34,8.38,8.38,0,0,0-2,.86,7.84,7.84,0,0,0-2.5,2.19,8.08,8.08,0,0,0-1.41,3.06,8.45,8.45,0,0,0-.1,3.4,9.16,9.16,0,0,0,1.22,3.25,7.85,7.85,0,0,0,1.5,1.84,7.23,7.23,0,0,0,4.19,1.87,6.35,6.35,0,0,0,4.11-1,4.7,4.7,0,0,0,1.43-1.48,4.94,4.94,0,0,0,.69-2,4.6,4.6,0,0,0-.17-2,5.07,5.07,0,0,0-1-1.78,4.65,4.65,0,0,1,.16,3.47,3.56,3.56,0,0,1-.81,1.31,3.51,3.51,0,0,1-1.26.85,4.57,4.57,0,0,1-2.88.24,5.1,5.1,0,0,1-2.58-1.52A4.85,4.85,0,0,1,757,1584a5.52,5.52,0,0,1-.5-1.41,5.65,5.65,0,0,1,.09-2.83,5.11,5.11,0,0,1,1.39-2.32,4.8,4.8,0,0,1,1.1-.79,5.77,5.77,0,0,1,1.33-.56,7.16,7.16,0,0,1,2.92-.27,8,8,0,0,1,2.87.9,8.41,8.41,0,0,1,2.41,2,11.35,11.35,0,0,1,1.69,2.84A10.9,10.9,0,0,1,767.2,1594Z" transform="translate(-299.11 -199.23)"/><g id="Leaves-6" data-name="Leaves"><path class="cls-11" d="M788.6,718.33l0,0c36.87,15.86,18.15,43.66,16.28,46.28l-.14.2C769.93,753.37,787.92,719.59,788.6,718.33Z" transform="translate(-299.11 -199.23)"/><path class="cls-12" d="M788.6,718.33l16.15,46.41c-.18-.14,0,0,0,0C769.93,753.37,787.92,719.59,788.6,718.33Z" transform="translate(-299.11 -199.23)"/></g><g id="Leaves-7" data-name="Leaves"><path class="cls-11" d="M814.23,728.88h0c16,23-5.37,32.62-7.45,33.48l-.16.06C790.2,742.78,813.36,729.38,814.23,728.88Z" transform="translate(-299.11 -199.23)"/><path class="cls-12" d="M814.23,728.88l-7.57,33.51c-.06-.14,0,0,0,0C790.2,742.78,813.36,729.38,814.23,728.88Z" transform="translate(-299.11 -199.23)"/></g><g id="Leaves-8" data-name="Leaves"><path class="cls-11" d="M406.45,1060.68h0c-4.29-23.48,15.64-23.37,17.55-23.3h.14C430,1058.38,407.3,1060.6,406.45,1060.68Z" transform="translate(-299.11 -199.23)"/><path class="cls-12" d="M406.45,1060.68l17.66-23.28c0,.13,0,0,0,0C430,1058.38,407.3,1060.6,406.45,1060.68Z" transform="translate(-299.11 -199.23)"/></g><g id="Leaves-9" data-name="Leaves"><path class="cls-11" d="M803.62,199.26l0,0c33.18,22.59,9.51,46.32,7.18,48.53l-.19.17C778.61,230.11,802.7,200.37,803.62,199.26Z" transform="translate(-299.11 -199.23)"/><path class="cls-12" d="M803.62,199.26l7,48.64c-.15-.17,0,0,0,0C778.61,230.11,802.7,200.37,803.62,199.26Z" transform="translate(-299.11 -199.23)"/></g></g><g id="Layer_3" data-name="Layer 3"><path class="cls-13" d="M385.67,911.27s-9.06-19,1.63-31.83,2.56-19.52,2.56-19.52,18.82-1.63,14.17,19.29l-.46,6.37s8.36-4.75,10.92-2.42l-3,7.67s10.69-6.28,15.1-3.26-13.94,13.94-13.94,13.94-4.88,6.51,3,6,27.89-5.12,28.82,10.22.23,4.42-16.74,12.78a33.38,33.38,0,0,1-31.37-.93S383.12,928.7,385.67,911.27Z" transform="translate(-299.11 -199.23)"/><path class="cls-14" d="M387.88,919.64s-5.72-28.11,5.46-38.81c0,0,2.56-9.06,1.63-12.55,0,0,2.64,6.66-1.37,15.89s-2.79,25-1.39,28.76c0,0,1.57-12.82,9.67-16,0,0-6.71,8.29-5.49,14.91,0,0,6.54-16.2,14.82-16,0,0-15.69,15-6.8,23.79S430,908.92,440.31,921a13.16,13.16,0,0,1,2.27,4.7,31.43,31.43,0,0,0-15.34,2.71c-8.45,3.66-17.86,5.31-23.62,4.61l-13.68-5.31Z" transform="translate(-299.11 -199.23)"/><path class="cls-2" d="M377.07,903.14s5.81,7,5.35,16.27,5.11,13.24,6.27,13,1.17,7,7.21,5.58,23.24-1.68,24.86,2.09c0,0-1.86-13.71-20.22-11.39,0,0-1.16-8.83,4.88-13,0,0-9.76,6-11.15,10.69,0,0-4.18,0-3.25-9.3S377.07,903.14,377.07,903.14Z" transform="translate(-299.11 -199.23)"/><path class="cls-5" d="M937.52,1761s111-7.37,94.81-106l3.56-2.22s22.79,68.29-27.94,95.55-69.78,22.53-69.78,22.53S936.93,1762.86,937.52,1761Z" transform="translate(-299.11 -199.23)"/><path class="cls-13" d="M1028.7,1644.67s-9.06-19.06,1.63-31.84,2.56-19.52,2.56-19.52,18.82-1.62,14.17,19.29l-.46,6.38s8.36-4.75,10.92-2.43l-3,7.67s10.69-6.28,15.1-3.25-13.94,13.94-13.94,13.94-4.88,6.51,3,6,27.89-5.11,28.82,10.23.23,4.41-16.73,12.78a33.42,33.42,0,0,1-31.38-.93S1026.15,1662.1,1028.7,1644.67Z" transform="translate(-299.11 -199.23)"/><path class="cls-14" d="M1030.91,1653s-5.72-28.11,5.46-38.8c0,0,2.56-9.07,1.63-12.55,0,0,2.64,6.65-1.37,15.89s-2.78,25-1.39,28.75c0,0,1.57-12.82,9.67-16,0,0-6.71,8.29-5.49,14.91,0,0,6.54-16.21,14.82-16,0,0-15.69,15-6.8,23.79s25.62-10.71,35.9,1.31a13.25,13.25,0,0,1,2.27,4.71,31.34,31.34,0,0,0-15.34,2.7c-8.45,3.66-17.86,5.31-23.61,4.62l-13.69-5.32Z" transform="translate(-299.11 -199.23)"/><path class="cls-2" d="M1020.11,1636.54s5.81,7,5.34,16.26,5.11,13.25,6.28,13,1.16,7,7.2,5.57,23.24-1.68,24.86,2.09c0,0-1.85-13.71-20.21-11.38,0,0-1.17-8.83,4.88-13,0,0-9.76,6.05-11.16,10.69,0,0-4.18,0-3.25-9.29S1020.11,1636.54,1020.11,1636.54Z" transform="translate(-299.11 -199.23)"/><path class="cls-13" d="M676.64,1249.4s4.49,20.62-8.82,30.64-6.93,18.42-6.93,18.42-18.7-2.69-9.42-22l1.9-6.11s-9.22,2.73-11.18-.12l4.68-6.78s-11.83,3.68-15.45-.26,16.75-10.41,16.75-10.41,6.23-5.23-1.57-6.57-28.32-1.36-25.73-16.51.77-4.35,19.2-8.64a33.38,33.38,0,0,1,30.33,8S683.09,1233,676.64,1249.4Z" transform="translate(-299.11 -199.23)"/><path class="cls-14" d="M676.39,1240.75s-.82,28.68-14.14,36.55c0,0-4.55,8.25-4.44,11.85,0,0-1.06-7.07,5-15.16s8.4-23.72,7.89-27.69c0,0-4.44,12.13-13,13.35,0,0,8.42-6.55,8.74-13.28,0,0-10.05,14.3-18.07,12.25,0,0,18.68-11,12-21.62s-27.39,4.61-34.67-9.44a13.34,13.34,0,0,1-1.14-5.1,31.36,31.36,0,0,0,15.55.86c9.07-1.64,18.61-1.12,24.05.87l12.12,8.29Z" transform="translate(-299.11 -199.23)"/><path class="cls-2" d="M683.16,1259.28s-4.07-8.11-1.5-17.06-2-14.06-3.15-14.1.45-7-5.75-7.07-23-3.64-23.74-7.69c0,0-1.31,13.78,17.1,15.69,0,0-.88,8.86-7.71,11.56,0,0,10.88-3.66,13.29-7.87,0,0,4.07,1,1.06,9.79S683.16,1259.28,683.16,1259.28Z" transform="translate(-299.11 -199.23)"/><path class="cls-5" d="M674.56,1226.85s36.45-116.57,96.12-103.67l-8.72,9.45s-12.75-3.56-25.63,7.11-33.32,29.2-59.94,90.07Z" transform="translate(-299.11 -199.23)"/><path class="cls-13" d="M761.75,268s-14.7,15.7-30.81,10.31-19.47,4.85-19.47,4.85-8.55-17.26,13-20.64l6.22-1.93s-7.62-6.17-6.36-9.46h8.4s-9.94-7.8-8.71-13.12,18.42,8,18.42,8,8,2.21,4.6-5.12-15.23-24.55-1-31.14,4.1-1.87,18.35,11.11A34,34,0,0,1,775.19,251S779.24,264,761.75,268Z" transform="translate(-299.11 -199.23)"/><path class="cls-14" d="M768.87,262.81s-24.55,15.9-38.86,9.27c0,0-9.55.95-12.51,3.13,0,0,5.33-5,15.59-4.62s24.77-6.67,27.8-9.39c0,0-12.75,3.29-18.74-3.23,0,0,10.36,3.28,16.19-.34,0,0-17.81-.17-20.73-8.09,0,0,20.06,9.3,25.11-2.41S743,226.81,750.59,212.58a13.4,13.4,0,0,1,3.62-3.9,31.87,31.87,0,0,0,8.27,13.54c6.62,6.66,11.7,15,13.18,20.69l.05,15Z" transform="translate(-299.11 -199.23)"/><path class="cls-15" d="M757.24,279.21s4.45-8.11,13.44-11.13,10.67-9.78,10-10.8,6.19-3.7,2.61-8.91S773.06,227,776,224c0,0-12.32,6.87-3.28,23.42,0,0-7.94,4.39-14.16.22,0,0,9.37,7,14.29,6.6,0,0,1.56,4-7.6,6.55S757.24,279.21,757.24,279.21Z" transform="translate(-299.11 -199.23)"/><path class="cls-13" d="M953,690.23s9.06-18.52,21.33-21.67,8.73,3.7,8.73,3.7a74.43,74.43,0,0,0,7.95-1.55c1.32-.55,9,5.1.93,22.37A35.25,35.25,0,0,1,967.73,713S946.24,708.84,953,690.23Z" transform="translate(-299.11 -199.23)"/><path class="cls-14" d="M954.54,693.56s4.93-14.26,14.27-16-4.31,4.25-5.92,15.7S975,690.55,975,690.55s5.74,1.43,1.66,9.48c0,0,7.88-6.59,11-6.72s-.73,12.4-16.07,19.47l-7.24,1S942,712.21,954.54,693.56Z" transform="translate(-299.11 -199.23)"/><path class="cls-5" d="M950.72,715.72s-7.61-17.41.67-30,8.85-10.55,8.85-10.55-6.78,11.87-3.82,17.07l3-1.3s1.12,4.08-.64,7.17,4.24-1.22,4.24-1.22l-1.71,7.87s4.76,4,10.43-4.61a3.8,3.8,0,0,1,.45,4.9s13.2.24,19.79-12c0,0-.41,22.19-26.47,26.95l-5.13.76s-1.71,3.4-7.63,4.41C952.72,725.2,946.78,724.29,950.72,715.72Z" transform="translate(-299.11 -199.23)"/><path class="cls-5" d="M953.67,719.22s-10.52,5.41-16.74,21.85-.89,42.82-30.23,71.41l-.81,3.26-.56,2.26s7.34-7.17,7.45-7.33,17.48-14,22.22-41.43S934.33,744.33,953.67,719.22Z" transform="translate(-299.11 -199.23)"/><path class="cls-13" d="M991.25,1353.35s9.06-18.52,21.33-21.67,8.73,3.7,8.73,3.7a74.43,74.43,0,0,0,8-1.55c1.32-.55,9,5.1.93,22.37a35.25,35.25,0,0,1-24.23,19.91S984.48,1372,991.25,1353.35Z" transform="translate(-299.11 -199.23)"/><path class="cls-14" d="M992.78,1356.68s4.93-14.26,14.27-16-4.31,4.25-5.92,15.71,12.15-2.76,12.15-2.76,5.74,1.43,1.66,9.48c0,0,7.88-6.59,11-6.72s-.73,12.4-16.07,19.47l-7.24,1S980.22,1375.33,992.78,1356.68Z" transform="translate(-299.11 -199.23)"/><path class="cls-5" d="M989,1378.84s-7.61-17.41.67-30,8.85-10.55,8.85-10.55-6.78,11.88-3.82,17.07l3-1.3s1.12,4.08-.65,7.17,4.25-1.22,4.25-1.22l-1.71,7.87s4.76,4,10.43-4.61a3.8,3.8,0,0,1,.45,4.9s13.2.24,19.79-12c0,0-.41,22.19-26.47,27l-5.13.76s-1.71,3.4-7.63,4.41C991,1388.32,985,1387.41,989,1378.84Z" transform="translate(-299.11 -199.23)"/><path class="cls-5" d="M995.44,1379.3s-10.51,5.4-16.74,21.85-1,42.86-30.37,71.45l.09,3.2.06,2.9s6-7.79,6.08-8,17.48-14,22.22-41.43S976.11,1404.41,995.44,1379.3Z" transform="translate(-299.11 -199.23)"/><path class="cls-15" d="M775.19,251s47.37,32.67,50.57,82.79l.66,13.95,4,5.35s2.85-19.46-7.15-47.34C815.33,283.82,792.64,250.67,775.19,251Z" transform="translate(-299.11 -199.23)"/><path class="cls-16" d="M447,864.06c0-.38-.45-.63-.83-.49a1.35,1.35,0,0,0-.72.89,5,5,0,0,0,.17,3,13,13,0,0,0,1.78,3.55" transform="translate(-299.11 -199.23)"/><path class="cls-16" d="M440.54,868c-.36-.14-.36-.69-.06-1a1.4,1.4,0,0,1,1.13-.23,5,5,0,0,1,2.57,1.54,14,14,0,0,1,2.35,3.33" transform="translate(-299.11 -199.23)"/><path class="cls-17" d="M451.65,858.55a6.16,6.16,0,0,1,1.93-1.52,2.49,2.49,0,0,1,2.37.11,3.05,3.05,0,0,1,1,2.81,17.21,17.21,0,0,0-.28,3.11,10.33,10.33,0,0,0,1.58,3.68,4.6,4.6,0,0,1,.58,3.85c-.21.48-2.23,4-2.23,4a6.87,6.87,0,0,1,4.16,1.1,4.07,4.07,0,0,1,1.58,3.5c-.32,1.76-2.33,2.84-4.1,2.62a9.41,9.41,0,0,1-5.08-3.09c-2-2.86-5.43-6.12-5.76-9.61C447,865.24,449,861.42,451.65,858.55Z" transform="translate(-299.11 -199.23)"/><path class="cls-18" d="M450.72,865.21a.63.63,0,0,1,.39-.31.51.51,0,0,1,.39.22,4.11,4.11,0,0,1,.54,2.7c0,.95.28,2.06,1.17,2.38a1.94,1.94,0,0,1,.73.27,1,1,0,0,1,.26.79,17.48,17.48,0,0,1-.54,2.76,3,3,0,0,0,.58,2.64,3.88,3.88,0,0,0,1.43.73,3.36,3.36,0,0,1,1.41.77,1.2,1.2,0,0,1,.19,1.47,1.17,1.17,0,0,1-1,.39,3,3,0,0,1-1.08-.38,16.16,16.16,0,0,1-2.55-1.62c-1.05-1.38-2.33-2.85-3.36-4.39a4.33,4.33,0,0,1-.65-3.17A14.93,14.93,0,0,1,450.72,865.21Z" transform="translate(-299.11 -199.23)"/><path class="cls-17" d="M433.22,869.72a6,6,0,0,0-2.24,1,2.5,2.5,0,0,0-1,2.15,3,3,0,0,0,2,2.19,18.17,18.17,0,0,1,2.88,1.19,10.63,10.63,0,0,1,2.53,3.1,4.59,4.59,0,0,0,3.15,2.3c.51,0,4.61-.1,4.61-.1a6.84,6.84,0,0,0-.95,4.2,4,4,0,0,0,2.37,3c1.7.54,3.59-.74,4.22-2.42a9.46,9.46,0,0,0-.39-5.93c-1.59-3.12-2.91-7.64-5.85-9.56C441.29,868.72,437,868.68,433.22,869.72Z" transform="translate(-299.11 -199.23)"/><path class="cls-18" d="M439.55,872a.59.59,0,0,0-.45.19.5.5,0,0,0,0,.46c.35.87,1.32,1.28,2.15,1.73s1.69,1.2,1.56,2.13a2.1,2.1,0,0,0-.1.78,1,1,0,0,0,.58.59,17.5,17.5,0,0,0,2.7.8,3,3,0,0,1,2.07,1.74,3.8,3.8,0,0,1,0,1.61,3.33,3.33,0,0,0,0,1.6,1.2,1.2,0,0,0,1.22.85,1.16,1.16,0,0,0,.82-.73,3.1,3.1,0,0,0,.17-1.13,16.84,16.84,0,0,0-.26-3c-.74-1.58-1.45-3.39-2.34-5a4.28,4.28,0,0,0-2.5-2.05A14.93,14.93,0,0,0,439.55,872Z" transform="translate(-299.11 -199.23)"/><path class="cls-19" d="M446.33,870.25c.81-.49,2.49,1,3.54,3.31,1.74,3.9,4.68,8.74,4,9.16s-3.72-4.64-6.28-7.85C446,872.88,445.53,870.73,446.33,870.25Z" transform="translate(-299.11 -199.23)"/><path class="cls-16" d="M1017.87,1309.4c.32-.19.22-.71-.1-.91a1.32,1.32,0,0,0-1.1,0,4.86,4.86,0,0,0-2.18,1.86,12.74,12.74,0,0,0-1.67,3.39" transform="translate(-299.11 -199.23)"/><path class="cls-16" d="M1011.18,1306.74c-.1-.35.33-.66.7-.59a1.29,1.29,0,0,1,.82.73,4.76,4.76,0,0,1,.31,2.84,13,13,0,0,1-1.18,3.7" transform="translate(-299.11 -199.23)"/><path class="cls-20" d="M1024.74,1309.77a5.67,5.67,0,0,1,2.27.6,2.38,2.38,0,0,1,1.29,1.86,2.93,2.93,0,0,1-1.57,2.38,16.2,16.2,0,0,0-2.52,1.58,10,10,0,0,0-1.9,3.32,4.35,4.35,0,0,1-2.59,2.66c-.48.12-4.36.63-4.36.63a6.52,6.52,0,0,1,1.56,3.8,3.84,3.84,0,0,1-1.75,3.21,3.5,3.5,0,0,1-4.36-1.61,9,9,0,0,1-.57-5.64c1-3.19,1.53-7.65,4-9.92C1017,1310.11,1021,1309.4,1024.74,1309.77Z" transform="translate(-299.11 -199.23)"/><path class="cls-21" d="M1019.14,1312.91a.5.5,0,0,1,.46.11.45.45,0,0,1,.06.42c-.19.88-1,1.42-1.74,2s-1.41,1.4-1.13,2.26a2.07,2.07,0,0,1,.21.71,1,1,0,0,1-.46.65,15.72,15.72,0,0,1-2.4,1.18,2.83,2.83,0,0,0-1.68,2,3.56,3.56,0,0,0,.27,1.5,3.3,3.3,0,0,1,.23,1.51,1.15,1.15,0,0,1-1,1,1.09,1.09,0,0,1-.88-.56,2.89,2.89,0,0,1-.34-1,16.26,16.26,0,0,1-.23-2.87,42.13,42.13,0,0,1,2-6.6A14.1,14.1,0,0,1,1019.14,1312.91Z" transform="translate(-299.11 -199.23)"/><path class="cls-20" d="M1005.64,1302.18a5.84,5.84,0,0,0-2.06-1.12,2.39,2.39,0,0,0-2.21.47,2.92,2.92,0,0,0-.5,2.81,17.22,17.22,0,0,1,.76,2.88,10.15,10.15,0,0,1-.9,3.71,4.36,4.36,0,0,0,.06,3.72c.27.41,2.73,3.44,2.73,3.44a6.54,6.54,0,0,0-3.73,1.7,3.86,3.86,0,0,0-.94,3.54,3.52,3.52,0,0,0,4.28,1.82,9.13,9.13,0,0,0,4.29-3.71c1.45-3,4.14-6.62,3.9-10C1011.05,1307.75,1008.61,1304.46,1005.64,1302.18Z" transform="translate(-299.11 -199.23)"/><path class="cls-21" d="M1007.56,1308.31a.55.55,0,0,0-.41-.24.45.45,0,0,0-.33.27,3.87,3.87,0,0,0-.08,2.63c.14.89.06,2-.73,2.42-.22.12-.49.18-.64.37a.93.93,0,0,0-.12.78,16.64,16.64,0,0,0,.94,2.52,2.8,2.8,0,0,1-.13,2.57,3.43,3.43,0,0,1-1.23.92,3.17,3.17,0,0,0-1.2.94,1.14,1.14,0,0,0,.06,1.42,1.11,1.11,0,0,0,1,.2,3,3,0,0,0,.95-.53,15.05,15.05,0,0,0,2.14-1.93,41.78,41.78,0,0,0,3.06-6.18A14,14,0,0,0,1007.56,1308.31Z" transform="translate(-299.11 -199.23)"/><path class="cls-19" d="M1012.79,1312.46c.84.33.7,2.44-.49,4.6-2,3.57-3.95,8.6-4.66,8.32s1.39-5.5,2.35-9.3C1010.59,1313.72,1012,1312.13,1012.79,1312.46Z" transform="translate(-299.11 -199.23)"/></g></g></svg>