<svg width="40" height="25" viewBox="0 0 40 25" fill="none" xmlns="http://www.w3.org/2000/svg">
<path d="M27.8666 10.8038C28.8922 6.82914 26.2009 2.84653 21.8553 1.90842C17.5096 0.97031 13.1553 3.43196 12.1296 7.40663C11.1039 11.3813 13.7953 15.3639 18.141 16.302C22.4866 17.2401 26.8409 14.7785 27.8666 10.8038Z" fill="white"/>
<path d="M20.0067 16.5483C22.1346 16.5519 24.1769 15.7824 25.6846 14.409C24.5236 13.037 22.4134 12.417 20.0067 12.417C17.5999 12.417 15.4813 13.037 14.3203 14.409C15.8306 15.7835 17.876 16.5531 20.0067 16.5483Z" fill="white"/>
<path d="M26.634 18.0599C26.634 21.4084 23.668 24.8499 20.007 24.8499C16.346 24.8499 13.3799 21.4084 13.3799 18.0599C13.3799 14.7115 16.346 13.3008 20.007 13.3008C23.668 13.3008 26.634 14.7115 26.634 18.0599Z" fill="white"/>
<path d="M17.2697 22.9508C17.2697 22.9508 16.3459 24.346 17.7781 24.9971C17.7781 24.9971 16.2103 25.1444 16.0832 23.3306C16.0748 23.3306 16.3121 22.7028 17.2697 22.9508Z" fill="white"/>
<path d="M22.7351 22.9508C22.7351 22.9508 23.6588 24.346 22.2266 24.9971C22.2266 24.9971 23.7943 25.1444 23.9215 23.3306C23.9384 23.3306 23.7012 22.7028 22.7351 22.9508Z" fill="white"/>
<path d="M26.4325 4.96859L32.0934 4.19348L36.5426 7.29391L38.4408 6.58853L39.4239 5.25537L38.6358 7.30943L36.4324 8.08453L32.1951 5.75921L27.263 6.7281C27.263 6.7281 25.6359 6.26302 26.4325 4.96859Z" fill="white"/>
<path d="M23.7813 3.01518L28.3745 0.589089L33.8236 2.1393L34.5693 1.01544L34.2981 0L35.1032 0.937849L34.1117 3.06173L28.9762 1.69753L25.1457 4.15456C25.1457 4.15456 23.6287 4.37161 23.7813 3.01518Z" fill="white"/>
<path d="M27.3306 8.02234L34.5763 8.45644L36.7034 14.8045L38.7373 14.0294L40 15.0526L38.678 14.9441L36.2373 15.6262L33.9407 9.6191L27.2543 9.84392C27.0901 9.74102 26.9572 9.60177 26.8678 9.43914C26.7784 9.27651 26.7354 9.09581 26.7431 8.91392C26.7507 8.73203 26.8086 8.55481 26.9113 8.39892C27.014 8.24302 27.1583 8.11345 27.3306 8.02234Z" fill="white"/>
<path d="M25.8988 11.7969L32.6106 10.9598L34.3055 18.6257L36.0512 17.3777L38.0851 18.0908L36.2462 18.2769L33.9326 19.6101L31.814 12.6806L26.3649 13.5719C26.1773 13.5121 26.0092 13.4101 25.876 13.2754C25.7427 13.1407 25.6485 12.9775 25.6021 12.8008C25.5558 12.6242 25.5586 12.4396 25.6104 12.2642C25.6623 12.0888 25.7614 11.9282 25.8988 11.7969Z" fill="white"/>
<path d="M13.5764 4.96859L7.92387 4.19348L3.46632 7.29391L1.57646 6.58853L0.584961 5.25537L1.38157 7.30943L3.57644 8.08453L7.8137 5.75921L12.7544 6.7281C12.7544 6.7281 14.3645 6.26302 13.5764 4.96859Z" fill="white"/>
<path d="M16.2276 3.01518L11.6428 0.589089L6.19372 2.1393L5.43948 1.01544L5.71067 0L4.91406 0.937849L5.90557 3.06173L10.9903 1.69753L14.8208 4.15456C14.8208 4.15456 16.3886 4.37161 16.2276 3.01518Z" fill="white"/>
<path d="M12.6694 8.02234L5.43214 8.45644L3.2966 14.8045L1.26269 14.0294L0 15.0526L1.32202 14.9441L3.76269 15.6262L6.06773 9.6191L12.7541 9.84392C12.9179 9.7404 13.0503 9.60054 13.139 9.43753C13.2277 9.27453 13.2698 9.09366 13.2613 8.91174C13.2529 8.72983 13.1941 8.55283 13.0906 8.39731C12.9871 8.24178 12.8422 8.11276 12.6694 8.02234Z" fill="white"/>
<path d="M14.1082 11.7969L7.39632 10.9598L5.70141 18.6257L4.00651 17.3777L1.97266 18.0908L3.80313 18.2769L6.11666 19.6101L8.23529 12.6806L13.6844 13.5719C13.6844 13.5719 15.1675 12.9131 14.1082 11.7969Z" fill="white"/>
<path d="M22.4899 5.94958L18.1515 17.0326C18.1515 17.0326 13.3412 9.18587 22.4899 5.94958Z" fill="#0C0040"/>
<path d="M19.1592 16.345L22.208 8.42249C22.208 8.42249 27.8266 12.7689 19.1592 16.345Z" fill="#0C0040"/>
</svg>
