<svg width="35" height="26" viewBox="0 0 35 26" fill="none" xmlns="http://www.w3.org/2000/svg">
<path d="M9.8562 3.98206C10.0513 3.98206 10.2095 3.82611 10.2095 3.63373C10.2095 3.44135 10.0513 3.2854 9.8562 3.2854C9.6611 3.2854 9.50293 3.44135 9.50293 3.63373C9.50293 3.82611 9.6611 3.98206 9.8562 3.98206Z" fill="white"/>
<path d="M6.55248 18.2832C4.86376 17.5462 3.41482 16.2134 2.24919 14.8016L1.19107 16.0224C1.06393 16.1688 0.918864 16.3253 0.724307 16.3506C0.529751 16.3758 0.332633 16.2462 0.227675 16.078C0.132473 15.9037 0.0757637 15.7116 0.0612782 15.5142C-0.0052807 15.0195 -0.0342935 14.5138 0.0612782 14.0242C0.15685 13.5345 0.395779 13.0599 0.786599 12.7427C1.41379 12.2379 2.33879 12.2169 3.10165 12.4945C3.86452 12.7722 4.5011 13.2989 5.12231 13.8155C5.5814 15.1962 6.09595 16.9042 6.55248 18.2832Z" fill="url(#paint0_linear_16680_107149)"/>
<path d="M5.12579 13.8162C4.75715 14.7349 4.90051 16.3605 5.05752 17.445C5.52791 17.7717 6.02879 18.0534 6.55339 18.2864C6.09687 16.904 5.58231 15.196 5.12579 13.8162Z" fill="#C7D2D7"/>
<path d="M2.59885 12.6291C3.07023 12.6702 3.53365 12.7749 3.97611 12.9404C3.70296 12.7603 3.41014 12.611 3.10316 12.4953C2.34029 12.2177 1.4153 12.2345 0.788107 12.7435C0.397287 13.0607 0.16177 13.5361 0.0627855 14.0249C0.03045 14.1915 0.0107687 14.3603 0.00390625 14.5298C0.132757 14.0098 0.359741 13.5201 0.761654 13.1659C1.25317 12.7385 1.94435 12.5853 2.59885 12.6291Z" fill="white"/>
<path d="M2.24902 14.8023C2.38726 14.9706 2.52948 15.136 2.67568 15.2987C2.81392 14.8889 3.03408 14.162 3.03408 13.7001C2.85147 13.9323 2.24902 14.8023 2.24902 14.8023Z" fill="#C7D2D7"/>
<path d="M1.1579 14.3077C0.976142 14.677 0.69028 14.9109 0.519616 14.8293C0.348953 14.7477 0.358338 14.3817 0.540095 14.0123C0.721852 13.643 1.00771 13.4082 1.17838 13.4898C1.34904 13.5715 1.33966 13.9374 1.1579 14.3077Z" fill="white"/>
<path d="M14.5494 3.07774C14.796 2.72857 14.9838 2.34911 15.0239 1.91328C15.0492 1.70712 15.0253 1.49797 14.9538 1.30261C14.8824 1.10725 14.7655 0.93112 14.6126 0.788358C14.1321 0.36767 13.5365 0.522483 13.0134 0.709268C11.3293 1.31196 9.79285 2.25773 8.50416 3.48498C7.21547 4.71222 6.20346 6.19339 5.53406 7.832C4.86466 9.47061 4.55288 11.2299 4.61905 12.9952C4.68522 14.7606 5.12785 16.4924 5.91809 18.0778C6.71698 19.6577 7.83994 21.0569 9.21584 22.1866C10.5917 23.3162 12.1906 24.1519 13.9111 24.6405C15.0716 24.9619 15.3063 25.0923 16.4847 25.3414C17.6632 25.5904 18.9201 25.6115 20.0508 25.1967C20.5909 24.9981 21.0961 24.7036 21.6559 24.5648C22.644 24.3199 23.7038 24.601 24.6937 24.6178C25.7842 24.6371 26.8406 24.7642 27.9363 24.6843C30.2478 24.5167 32.5002 23.8845 34.5546 22.8265C34.7335 22.7376 34.874 22.5883 34.9506 22.4058C35.14 21.9313 34.7483 21.6646 34.3882 21.6486C34.145 21.6402 33.9104 21.7226 33.68 21.7958C32.2108 22.2649 30.6583 22.4254 29.1224 22.267C28.7649 22.23 28.3954 22.1702 28.0984 21.97C27.8015 21.7697 27.6026 21.3962 27.7161 21.0596C27.8296 20.7231 28.2375 20.4765 28.2068 20.1173C28.1496 19.4366 27.1444 19.5645 26.7015 19.5653C25.9284 19.5653 25.1391 19.3205 24.4308 19.0226C22.9461 18.4003 21.6913 17.3429 20.8367 15.9937C19.2154 13.4031 19.0916 10.163 17.734 7.43102C16.78 5.51016 15.5896 4.5838 14.8011 4.14965C14.7098 4.09875 14.6302 4.02967 14.5673 3.9468C14.5045 3.86393 14.4598 3.76909 14.4362 3.66829C14.4125 3.56749 14.4103 3.46294 14.4298 3.36128C14.4493 3.25961 14.4901 3.16306 14.5494 3.07774Z" fill="url(#paint1_linear_16680_107149)"/>
<path d="M20.8465 24.8551C21.1073 24.7344 21.3783 24.6361 21.6563 24.5614C21.9637 24.4896 22.279 24.4562 22.5949 24.4621C18.0143 24.0743 14.4372 23.3481 11.4531 21.5005C14.06 23.8706 18.8668 24.6346 20.8465 24.8551Z" fill="url(#paint2_linear_16680_107149)"/>
<path d="M29.1228 22.2703C28.7653 22.2332 28.3958 22.1735 28.0988 21.9733C27.9121 21.8478 27.7749 21.6627 27.7106 21.4491C26.3811 21.3759 24.2529 21.2034 22.292 20.7979C22.2928 20.7979 25.5227 22.102 29.1228 22.2703Z" fill="url(#paint3_linear_16680_107149)"/>
<path d="M8.68791 6.26925C8.05475 7.18383 7.27311 7.74587 6.94287 7.52374C6.61264 7.30162 6.85754 6.37863 7.4907 5.46321C8.12387 4.5478 8.90551 3.98576 9.23574 4.20872C9.56597 4.43169 9.32107 5.35384 8.68791 6.26925Z" fill="white"/>
<path d="M15.2899 12.4928L17.8004 10.4584C18.3123 10.0377 18.8371 9.61701 19.4293 9.31327C20.0215 9.00953 20.6991 8.82443 21.3604 8.91614C22.1565 9.02552 22.8639 9.53287 23.3094 10.1917C23.7548 10.8505 23.9553 11.6498 23.992 12.4415C24.01 12.8622 23.946 13.3477 23.5841 13.5681C23.3017 13.7364 22.9382 13.6825 22.6182 13.5959C21.8343 13.3822 21.0966 13.0292 20.4414 12.5542C20.1538 13.7928 19.7587 15.0313 19.1051 16.125C18.826 16.5912 18.454 17.0792 17.9104 17.1599C17.2611 17.2567 16.6936 16.7241 16.3369 16.1806C15.6577 15.1474 15.2353 13.7221 15.2899 12.4928Z" fill="url(#paint4_linear_16680_107149)"/>
<path d="M21.6548 9.4487C22.8691 9.93333 23.5321 10.8437 23.9025 11.7002C23.8087 11.1633 23.6055 10.6506 23.3051 10.1933C22.8597 9.53452 22.1523 9.02717 21.3562 8.91779C20.6948 8.82608 20.0182 9.01034 19.4251 9.31492C18.832 9.6195 18.3158 10.0419 17.7961 10.46L15.2891 12.4928C17.3055 12.6215 18.8064 8.44326 21.6548 9.4487Z" fill="white"/>
<path d="M19.0877 10.8412C19.1953 11.7928 19.6748 12.6973 19.8131 12.8479C19.3676 14.9042 18.6406 16.6803 17.9102 17.1591C18.4529 17.0749 18.8249 16.5903 19.1048 16.1242C19.761 15.0304 20.1535 13.7919 20.4411 12.5534C19.8886 12.0682 19.43 11.488 19.0877 10.8412Z" fill="#C7D2D7"/>
<path d="M23.3702 11.4385C23.639 11.897 23.6817 12.369 23.4658 12.4919C23.2499 12.6147 22.8565 12.3421 22.5877 11.8836C22.3189 11.425 22.2763 10.953 22.4921 10.8302C22.708 10.7073 23.098 10.9791 23.3702 11.4385Z" fill="white"/>
<path d="M22.0734 10.6031C22.1997 10.6031 22.3021 10.5021 22.3021 10.3776C22.3021 10.2531 22.1997 10.1521 22.0734 10.1521C21.9471 10.1521 21.8447 10.2531 21.8447 10.3776C21.8447 10.5021 21.9471 10.6031 22.0734 10.6031Z" fill="white"/>
<path d="M13.5215 7.33789L9.46944 18.0215C9.46944 18.0215 4.97666 10.4576 13.5215 7.33789Z" fill="#0C0040"/>
<path d="M10.4111 17.3587L13.2587 9.72168C13.2587 9.72168 18.5065 13.9115 10.4111 17.3587Z" fill="#0C0040"/>
<defs>
<linearGradient id="paint0_linear_16680_107149" x1="2.25431" y1="13.6371" x2="3.27558" y2="16.9561" gradientUnits="userSpaceOnUse">
<stop stop-color="#EEEFEF"/>
<stop offset="0.96" stop-color="#FEFEFE" stop-opacity="0.04"/>
<stop offset="1" stop-color="white" stop-opacity="0"/>
</linearGradient>
<linearGradient id="paint1_linear_16680_107149" x1="4.62617" y1="13.0186" x2="35.0001" y2="13.0186" gradientUnits="userSpaceOnUse">
<stop stop-color="#EEEFEF"/>
<stop offset="0.96" stop-color="#FEFEFE" stop-opacity="0.04"/>
<stop offset="1" stop-color="white" stop-opacity="0"/>
</linearGradient>
<linearGradient id="paint2_linear_16680_107149" x1="11.4565" y1="23.1773" x2="22.5983" y2="23.1773" gradientUnits="userSpaceOnUse">
<stop stop-color="#EEEFEF"/>
<stop offset="0.96" stop-color="#FEFEFE" stop-opacity="0.04"/>
<stop offset="1" stop-color="white" stop-opacity="0"/>
</linearGradient>
<linearGradient id="paint3_linear_16680_107149" x1="22.2928" y1="21.5341" x2="29.1228" y2="21.5341" gradientUnits="userSpaceOnUse">
<stop stop-color="#EEEFEF"/>
<stop offset="0.96" stop-color="#FEFEFE" stop-opacity="0.04"/>
<stop offset="1" stop-color="white" stop-opacity="0"/>
</linearGradient>
<linearGradient id="paint4_linear_16680_107149" x1="19.8253" y1="12.1378" x2="18.1566" y2="17.3026" gradientUnits="userSpaceOnUse">
<stop stop-color="#EEEFEF"/>
<stop offset="0.96" stop-color="#FEFEFE" stop-opacity="0.04"/>
<stop offset="1" stop-color="white" stop-opacity="0"/>
</linearGradient>
</defs>
</svg>
