<svg width="35" height="25" viewBox="0 0 35 25" fill="none" xmlns="http://www.w3.org/2000/svg">
<path d="M9.8572 3.46192C10.0523 3.46192 10.2105 3.30597 10.2105 3.11359C10.2105 2.92121 10.0523 2.76526 9.8572 2.76526C9.66208 2.76526 9.50391 2.92121 9.50391 3.11359C9.50391 3.30597 9.66208 3.46192 9.8572 3.46192Z" fill="#46B955"/>
<path d="M6.5528 17.7631C4.864 17.026 3.41499 15.6933 2.2493 14.2814L1.19113 15.5023C1.06398 15.6487 0.918909 15.8052 0.724343 15.8304C0.529777 15.8557 0.33265 15.7261 0.227686 15.5578C0.132479 15.3836 0.0757675 15.1915 0.0612812 14.9941C-0.00528096 14.4994 -0.0342952 13.9937 0.0612812 13.504C0.156858 13.0143 0.395799 12.5398 0.786638 12.2226C1.41386 11.7178 2.3389 11.6967 3.10181 11.9744C3.86471 12.2521 4.50132 12.7788 5.12257 13.2954C5.58167 14.6761 6.09625 16.384 6.5528 17.7631Z" fill="url(#paint0_linear_16680_107236)"/>
<path d="M5.12678 13.296C4.75812 14.2148 4.90149 15.8403 5.05851 16.9249C5.52892 17.2515 6.02983 17.5333 6.55445 17.7662C6.0979 16.3839 5.58332 14.6759 5.12678 13.296Z" fill="#46B955"/>
<path d="M2.59898 12.109C3.07038 12.15 3.53383 12.2548 3.9763 12.4203C3.70314 12.2401 3.41031 12.0908 3.10331 11.9752C2.34041 11.6975 1.41537 11.7143 0.788145 12.2234C0.397306 12.5406 0.161778 13.016 0.0627884 13.5048C0.0304513 13.6714 0.0107691 13.8401 0.00390625 14.0096C0.132764 13.4896 0.359758 13 0.761691 12.6457C1.25323 12.2183 1.94445 12.0652 2.59898 12.109Z" fill="#46B955"/>
<path d="M2.24805 14.2823C2.38629 14.4505 2.52852 14.616 2.67473 14.7787C2.81297 14.3689 3.03314 13.642 3.03314 13.1801C2.85052 13.4123 2.24805 14.2823 2.24805 14.2823Z" fill="#46B955"/>
<path d="M1.15794 13.7874C0.97617 14.1568 0.690295 14.3907 0.519623 14.309C0.34895 14.2274 0.358336 13.8614 0.540102 13.4921C0.721868 13.1227 1.00774 12.888 1.17842 12.9696C1.34909 13.0512 1.3397 13.4172 1.15794 13.7874Z" fill="#46B955"/>
<path d="M14.5489 2.5576C14.7956 2.20843 14.9833 1.82897 15.0234 1.39314C15.0488 1.18698 15.0248 0.97783 14.9534 0.782469C14.8819 0.587109 14.765 0.410979 14.6121 0.268216C14.1316 -0.152471 13.536 0.00234142 13.0129 0.189127C11.3287 0.791819 9.79213 1.73759 8.50338 2.96483C7.21462 4.19207 6.20256 5.67325 5.53313 7.31186C4.86369 8.95047 4.55191 10.7097 4.61808 12.4751C4.68425 14.2404 5.1269 15.9722 5.91718 17.5576C6.7161 19.1376 7.83912 20.5367 9.21509 21.6664C10.5911 22.7961 12.19 23.6317 13.9106 24.1204C15.0712 24.4418 15.3059 24.5722 16.4844 24.8212C17.6628 25.0703 18.9198 25.0913 20.0505 24.6765C20.5907 24.478 21.0959 24.1835 21.6557 24.0446C22.6439 23.7998 23.7038 24.0808 24.6937 24.0977C25.7843 24.117 26.8407 24.244 27.9365 24.1641C30.2481 23.9966 32.5006 23.3644 34.5551 22.3064C34.734 22.2175 34.8745 22.0682 34.9511 21.8857C35.1405 21.4111 34.7488 21.1444 34.3887 21.1284C34.1455 21.12 33.9108 21.2025 33.6804 21.2757C32.2112 21.7448 30.6586 21.9053 29.1226 21.7468C28.7651 21.7098 28.3956 21.6501 28.0986 21.4498C27.8016 21.2496 27.6028 20.876 27.7163 20.5395C27.8298 20.2029 28.2377 19.9564 28.207 19.5971C28.1498 18.9165 27.1445 19.0443 26.7016 19.0452C25.9285 19.0452 25.1391 18.8004 24.4309 18.5025C22.946 17.8802 21.6912 16.8227 20.8365 15.4736C19.2151 12.883 19.0914 9.64282 17.7337 6.91087C16.7796 4.99002 15.5892 4.06366 14.8007 3.62951C14.7093 3.5786 14.6297 3.50952 14.5669 3.42666C14.504 3.34379 14.4593 3.24895 14.4357 3.14815C14.412 3.04735 14.4098 2.9428 14.4293 2.84114C14.4488 2.73947 14.4896 2.64292 14.5489 2.5576Z" fill="url(#paint1_linear_16680_107236)"/>
<path d="M20.8469 24.3349C21.1078 24.2142 21.3788 24.116 21.6568 24.0413C21.9642 23.9694 22.2796 23.9361 22.5955 23.942C18.0146 23.5541 14.4373 22.828 11.4531 20.9803C14.0601 23.3505 18.8671 24.1145 20.8469 24.3349Z" fill="url(#paint2_linear_16680_107236)"/>
<path d="M29.1251 21.7501C28.7675 21.7131 28.398 21.6534 28.1011 21.4531C27.9143 21.3277 27.7771 21.1425 27.7128 20.9289C26.3833 20.8557 24.255 20.6833 22.2939 20.2777C22.2948 20.2777 25.5248 21.5818 29.1251 21.7501Z" fill="url(#paint3_linear_16680_107236)"/>
<path d="M8.68996 5.74887C8.05676 6.66344 7.27508 7.22548 6.94483 7.00336C6.61458 6.78123 6.8595 5.85825 7.49269 4.94283C8.12589 4.02741 8.90756 3.46537 9.23781 3.68834C9.56806 3.9113 9.32315 4.83345 8.68996 5.74887Z" fill="#46B955"/>
<path d="M15.2889 11.9726L17.7995 9.93812C18.3115 9.51743 18.8363 9.09674 19.4286 8.79301C20.0208 8.48927 20.6984 8.30417 21.3597 8.39588C22.1559 8.50526 22.8633 9.01261 23.3088 9.6714C23.7543 10.3302 23.9548 11.1295 23.9915 11.9212C24.0094 12.3419 23.9454 12.8274 23.5836 13.0478C23.3011 13.2161 22.9376 13.1623 22.6176 13.0756C21.8337 12.862 21.0959 12.509 20.4407 12.034C20.1531 13.2725 19.758 14.511 19.1043 15.6048C18.8252 16.0709 18.4532 16.5589 17.9096 16.6397C17.2602 16.7364 16.6927 16.2038 16.336 15.6603C15.6567 14.6271 15.2343 13.2018 15.2889 11.9726Z" fill="url(#paint4_linear_16680_107236)"/>
<path d="M21.6542 8.92856C22.8685 9.41319 23.5316 10.3236 23.9019 11.1801C23.8082 10.6431 23.6049 10.1305 23.3046 9.67318C22.8591 9.01438 22.1517 8.50703 21.3555 8.39765C20.6941 8.30594 20.0174 8.4902 19.4243 8.79478C18.8312 9.09936 18.315 9.52173 17.7953 9.93989L15.2881 11.9727C17.3046 12.1014 18.8056 7.92311 21.6542 8.92856Z" fill="#46B955"/>
<path d="M19.0868 10.3209C19.1943 11.2725 19.6739 12.177 19.8122 12.3276C19.3667 14.3839 18.6397 16.1601 17.9092 16.6388C18.4519 16.5547 18.824 16.07 19.1039 15.6039C19.7601 14.5101 20.1527 13.2716 20.4402 12.0331C19.8877 11.5479 19.4291 10.9677 19.0868 10.3209Z" fill="#46B955"/>
<path d="M23.3722 10.9183C23.641 11.3769 23.6837 11.8489 23.4678 11.9717C23.2519 12.0946 22.8585 11.822 22.5897 11.3634C22.3209 10.9049 22.2782 10.4329 22.4941 10.31C22.71 10.1872 23.1 10.459 23.3722 10.9183Z" fill="#46B955"/>
<path d="M22.0754 10.0828C22.2017 10.0828 22.3041 9.98186 22.3041 9.85732C22.3041 9.73279 22.2017 9.63184 22.0754 9.63184C21.9491 9.63184 21.8467 9.73279 21.8467 9.85732C21.8467 9.98186 21.9491 10.0828 22.0754 10.0828Z" fill="#46B955"/>
<path d="M13.5227 6.81775L9.47047 17.5014C9.47047 17.5014 4.97748 9.93741 13.5227 6.81775Z" fill="white"/>
<path d="M10.4121 16.8386L13.2598 9.20154C13.2598 9.20154 18.5079 13.3913 10.4121 16.8386Z" fill="white"/>
<defs>
<linearGradient id="paint0_linear_16680_107236" x1="2.25442" y1="13.117" x2="3.27564" y2="16.436" gradientUnits="userSpaceOnUse">
<stop stop-color="#46B955"/>
<stop offset="0.96" stop-color="#FEFEFE" stop-opacity="0.04"/>
<stop offset="1" stop-color="white" stop-opacity="0"/>
</linearGradient>
<linearGradient id="paint1_linear_16680_107236" x1="4.62519" y1="12.4984" x2="35.0006" y2="12.4984" gradientUnits="userSpaceOnUse">
<stop stop-color="#46B955"/>
<stop offset="0.96" stop-color="#FEFEFE" stop-opacity="0.04"/>
<stop offset="1" stop-color="white" stop-opacity="0"/>
</linearGradient>
<linearGradient id="paint2_linear_16680_107236" x1="11.4565" y1="22.6572" x2="22.5989" y2="22.6572" gradientUnits="userSpaceOnUse">
<stop stop-color="#46B955"/>
<stop offset="0.96" stop-color="#FEFEFE" stop-opacity="0.04"/>
<stop offset="1" stop-color="white" stop-opacity="0"/>
</linearGradient>
<linearGradient id="paint3_linear_16680_107236" x1="22.2948" y1="21.0139" x2="29.1251" y2="21.0139" gradientUnits="userSpaceOnUse">
<stop stop-color="#46B955"/>
<stop offset="0.96" stop-color="#FEFEFE" stop-opacity="0.04"/>
<stop offset="1" stop-color="white" stop-opacity="0"/>
</linearGradient>
<linearGradient id="paint4_linear_16680_107236" x1="19.8245" y1="11.6175" x2="18.1559" y2="16.7824" gradientUnits="userSpaceOnUse">
<stop stop-color="#46B955"/>
<stop offset="0.96" stop-color="#FEFEFE" stop-opacity="0.04"/>
<stop offset="1" stop-color="white" stop-opacity="0"/>
</linearGradient>
</defs>
</svg>
