<svg width="40" height="25" viewBox="0 0 40 25" fill="none" xmlns="http://www.w3.org/2000/svg">
<path d="M27.8656 10.804C28.8912 6.82936 26.1999 2.84674 21.8543 1.90863C17.5086 0.970524 13.1543 3.43217 12.1286 7.40686C11.1029 11.3815 13.7944 15.3641 18.14 16.3022C22.4857 17.2404 26.8399 14.7787 27.8656 10.804Z" fill="#46B955"/>
<path d="M20.0086 16.5483C22.1365 16.5519 24.1789 15.7824 25.6866 14.409C24.5256 13.037 22.4154 12.417 20.0086 12.417C17.6019 12.417 15.4833 13.037 14.3223 14.409C15.8326 15.7835 17.878 16.5531 20.0086 16.5483Z" fill="#46B955"/>
<path d="M26.634 18.0598C26.634 21.4083 23.668 24.8498 20.007 24.8498C16.346 24.8498 13.3799 21.4083 13.3799 18.0598C13.3799 14.7114 16.346 13.3007 20.007 13.3007C23.668 13.3007 26.634 14.7114 26.634 18.0598Z" fill="#46B955"/>
<path d="M17.2707 22.9509C17.2707 22.9509 16.3469 24.3461 17.7791 24.9972C17.7791 24.9972 16.2113 25.1445 16.0842 23.3307C16.0757 23.3307 16.313 22.7029 17.2707 22.9509Z" fill="#46B955"/>
<path d="M22.737 22.9509C22.737 22.9509 23.6607 24.3461 22.2285 24.9972C22.2285 24.9972 23.7963 25.1445 23.9234 23.3307C23.9404 23.3307 23.7031 22.7029 22.737 22.9509Z" fill="#46B955"/>
<path d="M26.4325 4.96859L32.0934 4.19348L36.5426 7.29392L38.4408 6.58854L39.4239 5.25538L38.6358 7.30943L36.4324 8.08454L32.1951 5.75922L27.263 6.7281C27.263 6.7281 25.6359 6.26302 26.4325 4.96859Z" fill="#46B955"/>
<path d="M23.7813 3.01518L28.3745 0.58909L33.8236 2.13931L34.5693 1.01544L34.2981 0L35.1032 0.937851L34.1117 3.06173L28.9762 1.69754L25.1457 4.15457C25.1457 4.15457 23.6287 4.37162 23.7813 3.01518Z" fill="#46B955"/>
<path d="M27.3306 8.02234L34.5763 8.45644L36.7034 14.8045L38.7373 14.0294L40 15.0526L38.678 14.9441L36.2373 15.6262L33.9407 9.61911L27.2543 9.84392C27.0901 9.74103 26.9572 9.60177 26.8678 9.43914C26.7784 9.27652 26.7354 9.09582 26.7431 8.91392C26.7507 8.73203 26.8086 8.55481 26.9113 8.39892C27.014 8.24302 27.1583 8.11345 27.3306 8.02234Z" fill="#46B955"/>
<path d="M25.8978 11.797L32.6096 10.96L34.3045 18.6258L36.0503 17.3779L38.0842 18.0909L36.2452 18.277L33.9316 19.6102L31.813 12.6807L26.3639 13.5721C26.1763 13.5122 26.0083 13.4103 25.875 13.2755C25.7417 13.1408 25.6476 12.9776 25.6012 12.8009C25.5548 12.6243 25.5576 12.4398 25.6094 12.2644C25.6613 12.089 25.7604 11.9283 25.8978 11.797Z" fill="#46B955"/>
<path d="M13.5754 4.96859L7.92289 4.19348L3.46534 7.29392L1.57549 6.58854L0.583984 5.25538L1.38059 7.30943L3.57546 8.08454L7.81272 5.75922L12.7534 6.7281C12.7534 6.7281 14.3636 6.26302 13.5754 4.96859Z" fill="#46B955"/>
<path d="M16.2276 3.01518L11.6428 0.58909L6.19372 2.13931L5.43948 1.01544L5.71067 0L4.91406 0.937851L5.90557 3.06173L10.9903 1.69754L14.8208 4.15457C14.8208 4.15457 16.3886 4.37162 16.2276 3.01518Z" fill="#46B955"/>
<path d="M12.6694 8.02234L5.43214 8.45644L3.2966 14.8045L1.26269 14.0294L0 15.0526L1.32202 14.9441L3.76269 15.6262L6.06773 9.61911L12.7541 9.84392C12.9179 9.7404 13.0503 9.60054 13.139 9.43754C13.2277 9.27453 13.2698 9.09366 13.2613 8.91175C13.2529 8.72983 13.1941 8.55284 13.0906 8.39731C12.9871 8.24178 12.8422 8.11276 12.6694 8.02234Z" fill="#46B955"/>
<path d="M14.1101 11.797L7.39827 10.96L5.70337 18.6258L4.00846 17.3779L1.97461 18.0909L3.80508 18.277L6.11861 19.6102L8.23724 12.6807L13.6864 13.5721C13.6864 13.5721 15.1694 12.9132 14.1101 11.797Z" fill="#46B955"/>
<path d="M22.4919 5.09985L18.1534 16.1829C18.1534 16.1829 13.3432 8.33615 22.4919 5.09985Z" fill="white"/>
<path d="M19.1611 15.4953L22.2099 7.57275C22.2099 7.57275 27.8286 11.9192 19.1611 15.4953Z" fill="white"/>
</svg>
