<svg width="996" height="822" viewBox="0 0 996 822" fill="none" xmlns="http://www.w3.org/2000/svg">
<path d="M3757.49 807.23V1161H94V807.23C156.649 807.736 383.137 809.105 429.239 806.815C482.877 804.152 547.243 801.489 582.108 782.848C616.973 764.207 649.156 737.576 587.472 676.326L584.79 671H879.8C879.8 671 992.44 689.641 976.349 766.87C960.257 844.098 1000.49 817.467 1072.9 817.467C1145.31 817.467 1641.46 790.837 1906.97 801.489C2172.48 812.141 2979.74 814.804 3247.93 790.837C3410.61 776.297 3609.8 804.674 3757.49 807.23Z" fill="#B28158"/>
<path d="M3757.49 822.878V1121.05H94V822.953C149.033 823.752 400.703 826.628 493.605 814.804C598.199 801.489 667.929 777.522 622.336 689.641L609.812 671H872.022C908.979 684.076 991.823 719.973 938.802 764.207C871.754 820.13 946.848 838.772 992.44 838.772C1038.03 838.772 1864.06 798.826 2094.71 820.13C2325.35 841.435 2915.37 844.098 3076.28 822.793C3188.93 807.88 3514.38 809.643 3757.49 822.878Z" fill="#CFA378"/>
<path d="M866.391 684.314C866.391 684.314 938.802 726.923 887.846 782.847C836.89 838.771 979.031 729.586 866.391 684.314Z" fill="#B28158"/>
<path d="M456.059 852.087C456.059 852.087 574.063 876.054 622.337 798.826C670.611 721.598 608.928 913.337 456.059 852.087Z" fill="#B28158"/>
<path d="M199.989 0H118.863V21.4511H199.989V0Z" fill="#313335"/>
<path d="M203.39 0H115.52V4.19299H203.39V0Z" fill="#525557"/>
<path d="M300.073 158.604V612.359C300.073 614.79 299.951 617.281 299.647 619.712C298.614 628.766 295.576 637.517 290.775 645.234C289.378 647.544 287.798 649.671 286.035 651.737C283.301 655.018 280.202 657.996 276.738 660.548C272.788 663.526 268.474 665.896 263.855 667.658C263.369 667.84 262.944 668.022 262.457 668.144C261.971 668.266 261.424 668.509 260.938 668.63C258.872 669.238 256.806 669.785 254.679 670.149C253.099 670.392 251.519 670.635 249.939 670.757C248.663 670.879 247.387 670.939 246.05 670.939H71.9499C69.2761 670.879 66.5415 670.635 63.9285 670.149C63.017 669.967 62.1054 669.785 61.2547 669.602C52.6864 667.536 44.7866 663.404 38.2844 657.449C36.5829 655.93 35.0029 654.35 33.5445 652.648C23.9431 641.406 18.7171 627.126 18.7779 612.359V158.604C18.7779 152.588 19.6286 146.572 21.3301 140.799C28.2577 117.1 48.6149 99.9634 72.6791 99.9634H246.232C273.7 99.9634 296.366 122.326 299.708 151.252C299.891 153.682 300.073 156.113 300.073 158.604Z" fill="#B36940"/>
<path d="M300.071 158.604V612.359C300.071 614.79 299.949 617.281 299.646 619.712C297.701 636.666 289.133 651.311 276.797 660.609V151.251H299.646C299.889 153.682 300.071 156.113 300.071 158.604Z" fill="#C58257"/>
<path d="M143.349 387.031L182.422 281.963C182.422 281.963 100.75 309.248 143.349 387.031Z" fill="#CE9D83"/>
<path d="M180.234 305.48L153.07 381.44C153.07 381.44 228.726 353.001 180.234 305.48Z" fill="#CE9D83"/>
<path d="M17.803 143.23C17.803 142.562 17.7422 141.833 17.7422 141.103C17.7422 69.0933 81.1232 10.6953 159.392 10.6953C237.661 10.6953 300.982 69.0933 300.982 141.103C300.982 141.833 300.982 142.501 300.982 143.23H17.803Z" fill="#E2DBD6"/>
<path d="M17.7422 141.164C17.7422 69.1541 81.1232 10.7561 159.392 10.7561C179.324 10.6953 199.135 14.5845 217.547 22.2412C200.654 17.6229 177.866 14.9491 155.139 23.2135C100.751 42.9023 94.2491 132.839 94.2491 132.839V143.352H17.803C17.803 142.562 17.7422 141.833 17.7422 141.164Z" fill="#B6A7A4"/>
<path opacity="0.7" d="M293.327 124.331H278.378C278.378 124.331 265.738 47.4596 197.617 24.1247C197.617 24.0639 276.859 40.8966 293.327 124.331Z" fill="#A2A4A6"/>
<path d="M18.7188 140.799V612.359C18.7188 644.748 42.8436 671 72.6199 671H94.3141V140.799H18.7188Z" fill="#885031"/>
<path d="M308.643 129.314H10.0898V151.13H308.643V129.314Z" fill="#373738"/>
<path d="M308.643 147.484H10.0898V151.251H308.643V147.484Z" fill="#999B9E"/>
<path d="M308.643 132.049H10.0898V134.601H308.643V132.049Z" fill="#A2A4A6"/>
<path d="M8.93406 182.425H312.105C315.812 182.729 319.033 179.995 319.276 176.288C319.58 172.581 316.845 169.36 313.139 169.117C312.774 169.117 312.409 169.117 312.045 169.117H8.93406C5.22721 169.421 2.49265 172.642 2.79649 176.288C3.03956 179.569 5.65259 182.182 8.93406 182.425Z" fill="#373738"/>
<path d="M8.93282 504.375H312.104C313.988 504.435 315.629 502.977 315.69 501.093C315.75 499.209 314.292 497.569 312.408 497.508C312.287 497.508 312.226 497.508 312.104 497.508H8.93282C7.04901 497.569 5.52981 499.209 5.65135 501.093C5.71212 502.855 7.10978 504.314 8.93282 504.375Z" fill="#373738"/>
<path d="M8.93205 562.529H312.103C313.987 562.529 315.567 561.01 315.567 559.126C315.567 557.242 314.048 555.662 312.164 555.662H8.93205C7.04824 555.662 5.46827 557.242 5.52904 559.126C5.52904 560.949 7.04824 562.529 8.93205 562.529Z" fill="#373738"/>
<path d="M312.106 666.199C315.813 666.199 318.791 663.222 318.791 659.515V108.653C318.791 104.946 315.813 101.969 312.106 101.969C308.399 101.969 305.422 104.946 305.422 108.653V659.515C305.422 663.161 308.399 666.199 312.106 666.199Z" fill="#462718"/>
<path d="M6.68448 666.199C10.3913 666.199 13.369 663.222 13.369 659.515V108.653C13.369 104.946 10.3913 101.969 6.68448 101.969C2.97763 101.969 0 104.946 0 108.653V659.515C0 663.161 2.97763 666.199 6.68448 666.199Z" fill="#462718"/>
<path d="M85.3187 533.117V529.289H39.6212V550.254H70.1875C68.5468 552.138 66.906 554.082 65.3261 555.966H39.6212V579.058H47.3387L42.9027 584.77H39.6212V589.085C36.8259 592.792 34.0913 596.498 31.5391 600.388V109.018C31.5391 106.769 33.3621 104.946 35.6105 104.946C37.8589 104.946 39.682 106.769 39.682 109.018V135.026H85.4403V109.018C85.4403 106.769 87.2633 104.946 89.5117 104.946C91.7601 104.946 93.5832 106.769 93.5832 109.018V522.908C90.9094 526.433 88.1748 529.836 85.3187 533.117ZM85.3187 140.799H39.6212V161.764H85.3795V140.799H85.3187ZM85.3187 167.477H39.6212V190.568H85.3795V167.477H85.3187ZM85.3187 196.281H39.6212V217.246H85.3795V196.281H85.3187ZM85.3187 222.958H39.6212V246.05H85.3795V222.958H85.3187ZM85.3187 251.762H39.6212V272.727H85.3795V251.762H85.3187ZM85.3187 278.5H39.6212V301.591H85.3795V278.5H85.3187ZM85.3187 307.304H39.6212V328.208H85.3795V307.304H85.3187ZM85.3187 333.981H39.6212V357.073H85.3795V333.981H85.3187ZM85.3187 362.785H39.6212V383.75H85.3795V362.785H85.3187ZM85.3187 389.462H39.6212V412.554H85.3795V389.462H85.3187ZM85.3187 418.266H39.6212V439.231H85.3795V418.266H85.3187ZM85.3187 444.943H39.6212V468.035H85.3795V444.943H85.3187ZM85.3187 473.808H39.6212V494.773H85.3795V473.808H85.3187ZM85.3187 500.485H39.6212V523.577H85.3795V500.485H85.3187Z" fill="#999B9E"/>
<path d="M37.3092 140.8H88.962C90.542 140.8 91.8181 139.523 91.8181 137.943C91.8181 136.364 90.542 135.087 88.962 135.087H37.3092C35.7293 135.087 34.4531 136.364 34.4531 137.943C34.4531 139.463 35.7293 140.8 37.3092 140.8Z" fill="#373738"/>
<path d="M37.3098 141.346H88.9626C90.8464 141.285 92.3656 139.645 92.2441 137.761C92.1833 135.999 90.7248 134.54 88.9626 134.479H37.3098C35.426 134.419 33.7853 135.877 33.7245 137.761C33.6637 139.645 35.1222 141.285 37.006 141.346C37.1275 141.346 37.1883 141.346 37.3098 141.346ZM88.9626 135.573C90.2387 135.634 91.211 136.728 91.1502 138.004C91.0895 139.159 90.1779 140.131 88.9626 140.192H37.3098C36.0337 140.252 34.9398 139.28 34.8791 138.004C34.8183 136.728 35.7906 135.634 37.0667 135.573C37.1275 135.573 37.249 135.573 37.3098 135.573H88.9626Z" fill="#373738"/>
<path d="M37.3112 167.476H88.964C90.544 167.476 91.8201 166.2 91.8201 164.62C91.8201 163.04 90.544 161.764 88.964 161.764H37.3112C35.7312 161.764 34.4551 163.04 34.4551 164.62C34.3944 166.139 35.7312 167.476 37.3112 167.476Z" fill="#373738"/>
<path d="M37.3114 168.024H88.9642C90.848 168.024 92.428 166.505 92.428 164.56C92.428 162.676 90.9088 161.096 88.9642 161.096H37.3114C35.4276 161.096 33.8477 162.615 33.8477 164.56C33.8477 166.505 35.3669 168.024 37.3114 168.024ZM88.9642 162.251C90.2403 162.312 91.2126 163.405 91.1519 164.681C91.0911 165.836 90.1188 166.808 88.9642 166.869H37.3114C36.0353 166.93 34.9415 165.958 34.8807 164.681C34.8199 163.405 35.7922 162.312 37.0684 162.251C37.1291 162.251 37.2507 162.251 37.3114 162.251H88.9642Z" fill="#373738"/>
<path d="M37.3118 196.281H88.9646C90.5446 196.22 91.76 194.883 91.6992 193.303C91.6384 191.845 90.4231 190.629 88.9646 190.569H37.3118C35.7319 190.508 34.395 191.723 34.3342 193.303C34.2734 194.883 35.4888 196.22 37.0688 196.281C37.1295 196.281 37.1903 196.281 37.3118 196.281Z" fill="#373738"/>
<path d="M37.3098 196.828H88.9626C90.8464 196.767 92.3656 195.126 92.2441 193.242C92.1833 191.48 90.7248 190.022 88.9626 189.961H37.3098C35.426 189.9 33.7853 191.358 33.7245 193.242C33.6637 195.126 35.1222 196.767 37.006 196.828C37.1275 196.828 37.1883 196.828 37.3098 196.828ZM88.9626 191.115C90.2387 191.115 91.2718 192.148 91.2718 193.425C91.2718 194.701 90.2387 195.734 88.9626 195.734H37.3098C36.0337 195.734 35.0006 194.701 35.0006 193.425C35.0006 192.148 36.0337 191.115 37.3098 191.115H88.9626Z" fill="#373738"/>
<path d="M37.3112 222.958H88.964C90.544 222.958 91.8201 221.682 91.8201 220.102C91.8201 218.522 90.544 217.246 88.964 217.246H37.3112C35.7312 217.246 34.4551 218.522 34.4551 220.102C34.3944 221.682 35.7312 222.958 37.3112 222.958Z" fill="#373738"/>
<path d="M37.3114 223.505H88.9642C90.848 223.505 92.428 221.986 92.428 220.041C92.428 218.157 90.9088 216.577 88.9642 216.577H37.3114C35.4276 216.577 33.8477 218.096 33.8477 220.041C33.8477 221.986 35.3669 223.505 37.3114 223.505ZM88.9642 217.793C90.2403 217.853 91.2126 218.947 91.1519 220.223C91.0911 221.378 90.1796 222.35 88.9642 222.411H37.3114C36.0353 222.472 34.9415 221.499 34.8807 220.223C34.8199 218.947 35.7922 217.853 37.0684 217.793C37.1291 217.793 37.2507 217.793 37.3114 217.793H88.9642Z" fill="#373738"/>
<path d="M37.3118 251.762H88.9646C90.5446 251.701 91.76 250.364 91.6992 248.784C91.6384 247.326 90.4231 246.11 88.9646 246.05H37.3118C35.7319 245.989 34.395 247.204 34.3342 248.784C34.2734 250.364 35.4888 251.701 37.0688 251.762C37.1295 251.762 37.1903 251.762 37.3118 251.762Z" fill="#373738"/>
<path d="M37.3114 252.369H88.9642C90.848 252.369 92.428 250.85 92.428 248.906C92.428 247.022 90.9088 245.442 88.9642 245.442H37.3114C35.4276 245.442 33.8477 246.961 33.8477 248.906C33.8477 250.789 35.3669 252.369 37.3114 252.369ZM88.9642 246.596C90.2403 246.657 91.2126 247.751 91.1519 249.027C91.0911 250.182 90.1796 251.154 88.9642 251.215H37.3114C36.0353 251.276 34.9415 250.303 34.8807 249.027C34.8199 247.751 35.7922 246.657 37.0684 246.596C37.1291 246.596 37.2507 246.596 37.3114 246.596H88.9642Z" fill="#373738"/>
<path d="M37.3092 278.439H88.962C90.542 278.439 91.8181 277.163 91.8181 275.583C91.8181 274.003 90.542 272.727 88.962 272.727H37.3092C35.7293 272.727 34.4531 274.003 34.4531 275.583C34.4531 277.163 35.7293 278.439 37.3092 278.439Z" fill="#373738"/>
<path d="M37.3114 279.047H88.9642C90.848 279.047 92.428 277.527 92.428 275.583C92.428 273.699 90.9088 272.119 88.9642 272.119H37.3114C35.4276 272.119 33.8477 273.638 33.8477 275.583C33.8477 277.467 35.3669 279.047 37.3114 279.047ZM88.9642 273.274C90.2403 273.335 91.2126 274.428 91.1519 275.704C91.0911 276.859 90.1796 277.831 88.9642 277.892H37.3114C36.0353 277.953 34.9415 276.981 34.8807 275.704C34.8199 274.428 35.7922 273.335 37.0684 273.274C37.1291 273.274 37.2507 273.274 37.3114 273.274H88.9642Z" fill="#373738"/>
<path d="M37.311 307.304H88.9637C90.5437 307.243 91.7591 305.906 91.6983 304.265C91.6375 302.746 90.4222 301.592 88.9637 301.531H37.311C35.731 301.592 34.5156 302.928 34.5764 304.569C34.6372 306.028 35.7918 307.243 37.311 307.304Z" fill="#373738"/>
<path d="M37.3098 307.851H88.9626C90.8464 307.79 92.3656 306.149 92.2441 304.265C92.1833 302.503 90.7248 301.045 88.9626 300.984H37.3098C35.426 300.923 33.7853 302.381 33.7245 304.265C33.6637 306.149 35.1222 307.79 37.006 307.851C37.1275 307.851 37.1883 307.851 37.3098 307.851ZM88.9626 302.078C90.2387 302.138 91.211 303.232 91.1502 304.508C91.0895 305.663 90.1172 306.635 88.9626 306.696H37.3098C36.0337 306.757 34.9398 305.784 34.8791 304.508C34.8183 303.232 35.7906 302.138 37.0667 302.078C37.1275 302.078 37.249 302.078 37.3098 302.078H88.9626Z" fill="#373738"/>
<path d="M37.3118 333.92H88.9646C90.5446 333.859 91.76 332.522 91.6992 330.942C91.6384 329.484 90.4231 328.269 88.9646 328.208H37.3118C35.7319 328.147 34.395 329.362 34.3342 330.942C34.2734 332.522 35.4888 333.859 37.0688 333.92C37.1295 333.92 37.1903 333.92 37.3118 333.92Z" fill="#373738"/>
<path d="M37.3114 334.528H88.9642C90.848 334.528 92.3672 333.009 92.3672 331.064C92.3672 329.18 90.848 327.661 88.9642 327.661H37.3114C35.4276 327.661 33.8477 329.18 33.8477 331.064C33.8477 333.009 35.3669 334.528 37.3114 334.528ZM88.9642 328.816C90.2403 328.816 91.2734 329.849 91.2734 331.125C91.2734 332.401 90.2403 333.434 88.9642 333.434H37.3114C36.0353 333.434 35.0022 332.401 35.0022 331.125C35.0022 329.849 36.0353 328.816 37.3114 328.816H88.9642Z" fill="#373738"/>
<path d="M37.3092 362.785H88.962C90.542 362.785 91.8181 361.509 91.8181 359.929C91.8181 358.349 90.542 357.073 88.962 357.073H37.3092C35.7293 357.073 34.4531 358.349 34.4531 359.929C34.4531 361.509 35.7293 362.785 37.3092 362.785Z" fill="#373738"/>
<path d="M37.3098 363.332H88.9626C90.8464 363.271 92.3656 361.63 92.2441 359.746C92.1833 357.984 90.7248 356.525 88.9626 356.465H37.3098C35.426 356.404 33.7853 357.862 33.7245 359.746C33.6637 361.63 35.1222 363.271 37.006 363.332C37.1275 363.332 37.1883 363.332 37.3098 363.332ZM88.9626 357.619C90.2387 357.619 91.2718 358.652 91.2718 359.929C91.2718 361.205 90.2387 362.238 88.9626 362.238H37.3098C36.0337 362.238 35.0006 361.205 35.0006 359.929C35.0006 358.652 36.0337 357.619 37.3098 357.619H88.9626Z" fill="#373738"/>
<path d="M37.3118 389.462H88.9646C90.5446 389.401 91.76 388.064 91.6992 386.484C91.6384 385.026 90.4231 383.811 88.9646 383.75H37.3118C35.7319 383.689 34.395 384.904 34.3342 386.484C34.2734 388.064 35.4888 389.401 37.0688 389.462C37.1295 389.462 37.1903 389.462 37.3118 389.462Z" fill="#373738"/>
<path d="M37.3098 390.009H88.9626C90.8464 389.948 92.3656 388.307 92.2441 386.423C92.1833 384.661 90.7248 383.203 88.9626 383.142H37.3098C35.426 383.081 33.7853 384.54 33.7245 386.423C33.6637 388.307 35.1222 389.948 37.006 390.009C37.1275 390.009 37.1883 390.009 37.3098 390.009ZM88.9626 384.297C90.2387 384.297 91.2718 385.33 91.2718 386.606C91.2718 387.882 90.2387 388.915 88.9626 388.915H37.3098C36.0337 388.915 35.0006 387.882 35.0006 386.606C35.0006 385.33 36.0337 384.297 37.3098 384.297H88.9626Z" fill="#373738"/>
<path d="M37.3118 418.266H88.9646C90.5446 418.205 91.76 416.868 91.6992 415.288C91.6384 413.83 90.4231 412.615 88.9646 412.554H37.3118C35.7319 412.493 34.395 413.709 34.3342 415.288C34.2734 416.868 35.4888 418.205 37.0688 418.266C37.1295 418.266 37.1903 418.266 37.3118 418.266Z" fill="#373738"/>
<path d="M37.3114 418.813H88.9642C90.848 418.813 92.3672 417.294 92.3672 415.349C92.3672 413.465 90.848 411.946 88.9642 411.946H37.3114C35.4276 411.946 33.8477 413.465 33.8477 415.349C33.8477 417.294 35.3669 418.813 37.3114 418.813ZM88.9642 413.101C90.2403 413.101 91.2734 414.134 91.2734 415.41C91.2734 416.686 90.2403 417.719 88.9642 417.719H37.3114C36.0353 417.719 35.0022 416.686 35.0022 415.41C35.0022 414.134 36.0353 413.101 37.3114 413.101H88.9642Z" fill="#373738"/>
<path d="M37.3118 444.943H88.9646C90.5446 445.004 91.8815 443.788 91.9423 442.208C92.003 440.628 90.7877 439.291 89.2077 439.231C89.1469 439.231 89.0254 439.231 88.9646 439.231H37.3118C35.7319 439.17 34.395 440.385 34.3342 441.965C34.2734 443.545 35.4888 444.882 37.0688 444.943C37.1295 444.943 37.1903 444.943 37.3118 444.943Z" fill="#373738"/>
<path d="M37.3117 445.55H88.9645C90.8483 445.49 92.3675 443.849 92.246 441.965C92.1852 440.142 90.7268 438.744 88.9645 438.684H37.3117C35.4279 438.744 33.9087 440.385 34.0303 442.269C34.0303 444.031 35.4887 445.49 37.3117 445.55ZM88.9645 439.777C90.2406 439.777 91.2737 440.81 91.2737 442.087C91.2737 443.363 90.2406 444.396 88.9645 444.396H37.3117C36.0356 444.396 35.0025 443.363 35.0025 442.087C35.0025 440.81 36.0356 439.777 37.3117 439.777H88.9645Z" fill="#373738"/>
<path d="M37.3113 473.808H88.9641C90.544 473.808 91.8202 472.532 91.8202 470.952C91.8202 469.372 90.544 468.096 88.9641 468.096H37.3113C35.7313 468.096 34.4552 469.372 34.4552 470.952C34.3944 472.471 35.6706 473.808 37.3113 473.808Z" fill="#373738"/>
<path d="M37.3098 474.355H88.9626C90.8464 474.294 92.3656 472.653 92.2441 470.77C92.1833 469.007 90.7248 467.549 88.9626 467.488H37.3098C35.426 467.427 33.7853 468.886 33.7245 470.77C33.6637 472.653 35.1222 474.294 37.006 474.355C37.1275 474.355 37.1883 474.355 37.3098 474.355ZM88.9626 468.582C90.2387 468.582 91.2718 469.615 91.2718 470.891C91.2718 472.167 90.2387 473.2 88.9626 473.2H37.3098C36.0337 473.2 35.0006 472.167 35.0006 470.891C35.0006 469.615 36.0337 468.582 37.3098 468.582H88.9626Z" fill="#373738"/>
<path d="M37.3118 500.424H88.9646C90.5446 500.364 91.76 499.027 91.6992 497.447C91.6384 495.988 90.4231 494.773 88.9646 494.712H37.3118C35.7319 494.651 34.395 495.867 34.3342 497.447C34.2734 499.027 35.4888 500.364 37.0688 500.424C37.1295 500.485 37.1903 500.485 37.3118 500.424Z" fill="#373738"/>
<path d="M37.3114 501.032H88.9642C90.848 501.032 92.428 499.452 92.428 497.568C92.428 495.684 90.9088 494.165 88.9642 494.104H37.3114C35.4276 494.104 33.8477 495.624 33.8477 497.568C33.8477 499.513 35.3669 501.032 37.3114 501.032ZM88.9642 495.259C90.2403 495.32 91.2126 496.414 91.1519 497.69C91.0911 498.905 90.1188 499.817 88.9642 499.877H37.3114C36.0353 499.938 34.9415 498.966 34.8807 497.69C34.8199 496.414 35.7922 495.32 37.0684 495.259C37.1291 495.259 37.2507 495.259 37.3114 495.259H88.9642Z" fill="#373738"/>
<path d="M37.3118 529.29H88.9646C90.5446 529.35 91.8815 528.135 91.9423 526.555C92.003 524.975 90.7877 523.638 89.2077 523.577C89.1469 523.577 89.0254 523.577 88.9646 523.577H37.3118C35.7319 523.517 34.395 524.732 34.3342 526.312C34.2734 527.892 35.4888 529.229 37.0688 529.29C37.1295 529.29 37.1903 529.29 37.3118 529.29Z" fill="#373738"/>
<path d="M37.3114 529.836H88.9642C90.848 529.836 92.428 528.256 92.428 526.372C92.428 524.488 90.9088 522.969 88.9642 522.908H37.3114C35.4276 522.908 33.8477 524.427 33.8477 526.372C33.8477 528.317 35.3669 529.836 37.3114 529.836ZM88.9642 524.124C90.2403 524.184 91.2126 525.278 91.1519 526.554C91.0911 527.709 90.1796 528.681 88.9642 528.742H37.3114C36.0353 528.803 34.9415 527.83 34.8807 526.554C34.8199 525.278 35.7922 524.184 37.0684 524.124C37.1291 524.124 37.2507 524.124 37.3114 524.124H88.9642Z" fill="#373738"/>
<path d="M37.3092 555.966H88.962C90.542 555.966 91.8181 554.69 91.8181 553.11C91.8181 551.53 90.542 550.254 88.962 550.254H37.3092C35.7293 550.254 34.4531 551.53 34.4531 553.11C34.4531 554.69 35.6685 555.966 37.3092 555.966C37.3092 555.966 37.2485 555.966 37.3092 555.966Z" fill="#373738"/>
<path d="M37.3114 556.513H88.9642C90.848 556.513 92.428 554.933 92.3672 553.049C92.3672 551.166 90.848 549.646 88.9642 549.646H37.3114C35.4276 549.646 33.8477 551.166 33.8477 553.049C33.8477 554.994 35.3669 556.513 37.3114 556.513C37.3114 556.513 37.2507 556.513 37.3114 556.513ZM88.9642 550.801C90.2403 550.801 91.2734 551.834 91.2734 553.11C91.2734 554.386 90.2403 555.419 88.9642 555.419H37.3114C36.0353 555.419 35.0022 554.386 35.0022 553.11C35.0022 551.834 36.0353 550.801 37.3114 550.801H88.9642Z" fill="#373738"/>
<path d="M37.3092 584.77H88.962C90.542 584.77 91.8181 583.494 91.8181 581.914C91.8181 580.334 90.542 579.058 88.962 579.058H37.3092C35.7293 579.058 34.4531 580.334 34.4531 581.914C34.4531 583.494 35.6685 584.77 37.3092 584.77C37.3092 584.77 37.2485 584.77 37.3092 584.77Z" fill="#373738"/>
<path d="M37.3098 585.378H88.9626C90.8464 585.318 92.3656 583.677 92.2441 581.793C92.1833 580.031 90.7248 578.572 88.9626 578.512H37.3098C35.426 578.451 33.7853 579.909 33.7245 581.793C33.6637 583.677 35.1222 585.318 37.006 585.378C37.1275 585.378 37.1883 585.378 37.3098 585.378ZM88.9626 579.605C90.2387 579.605 91.211 580.638 91.211 581.915C91.211 583.191 90.1779 584.224 88.9626 584.224H37.3098C36.0337 584.224 35.0006 583.191 35.0006 581.915C35.0006 580.638 36.0337 579.605 37.3098 579.605H88.9626Z" fill="#373738"/>
<path d="M37.3113 611.448H88.9641C90.544 611.448 91.8202 610.171 91.8202 608.591C91.8202 607.011 90.544 605.735 88.9641 605.735H37.3113C35.7313 605.735 34.4552 607.011 34.4552 608.591C34.3944 610.171 35.6706 611.448 37.3113 611.448Z" fill="#373738"/>
<path d="M37.3114 612.055H88.9642C90.848 612.055 92.428 610.475 92.3672 608.591C92.3672 606.708 90.848 605.188 88.9642 605.188H37.3114C35.4276 605.188 33.8477 606.708 33.8477 608.591C33.8477 610.475 35.3669 612.055 37.3114 612.055C37.3114 612.055 37.2507 612.055 37.3114 612.055ZM88.9642 606.282C90.2403 606.343 91.2126 607.437 91.1519 608.713C91.0911 609.868 90.1796 610.84 88.9642 610.901H37.3114C36.0353 610.961 34.9415 609.989 34.8807 608.713C34.8199 607.437 35.7922 606.343 37.0684 606.282C37.1291 606.282 37.2507 606.282 37.3114 606.282H88.9642Z" fill="#373738"/>
<path d="M89.6322 665.835C91.8806 665.835 93.6429 664.012 93.6429 661.763V109.018C93.6429 106.769 91.8199 104.946 89.5715 104.946C87.323 104.946 85.5 106.769 85.5 109.018V661.763C85.5608 664.012 87.3838 665.835 89.6322 665.835Z" fill="#373738"/>
<path d="M89.6301 666.382C92.1823 666.382 94.2485 664.316 94.2485 661.763V109.018C94.37 106.466 92.3646 104.339 89.8124 104.217C87.2601 104.096 85.1333 106.101 85.0117 108.653C85.0117 108.775 85.0117 108.896 85.0117 109.018V661.763C85.0117 664.316 87.0778 666.382 89.6301 666.382ZM89.6301 105.554C91.5139 105.554 93.0939 107.073 93.0939 109.018V661.763C93.1546 663.708 91.6962 665.288 89.7516 665.409C87.807 665.47 86.2271 664.012 86.1055 662.067C86.1055 661.946 86.1055 661.885 86.1055 661.763V109.018C86.1663 107.073 87.6855 105.554 89.6301 105.554Z" fill="#373738"/>
<path d="M35.852 665.835C38.1004 665.835 39.9235 664.012 39.9235 661.763V109.018C39.8627 106.769 37.9789 105.068 35.7305 105.129C33.6036 105.189 31.9021 106.891 31.8413 109.018V661.763C31.7806 664.012 33.6036 665.835 35.852 665.835C35.852 665.835 35.7912 665.835 35.852 665.835Z" fill="#373738"/>
<path d="M35.8518 666.382C38.404 666.382 40.4701 664.316 40.5309 661.763V109.018C40.5309 106.466 38.4648 104.399 35.9125 104.399C33.3603 104.399 31.2942 106.466 31.2942 109.018V661.763C31.1726 664.316 33.2387 666.382 35.8518 666.382C35.8518 666.382 35.791 666.382 35.8518 666.382ZM35.8518 105.554C37.7963 105.554 39.3155 107.073 39.3155 109.018V661.763C39.3763 663.708 37.9179 665.288 35.9733 665.409C34.0287 665.531 32.4488 664.012 32.3272 662.067C32.3272 661.946 32.3272 661.885 32.3272 661.763V109.018C32.388 107.134 33.9072 105.554 35.8518 105.554Z" fill="#373738"/>
<path d="M954.173 495.086H889.715V455.72L710.613 236.646L729.489 223.673L895.909 331.336L928.161 455.72L954.173 495.086Z" fill="#9F4006"/>
<path d="M954.173 495.086L921.316 459.67H889.715V495.086H954.173Z" fill="#773005"/>
<path d="M531.293 455.719L561.749 331.335L714.165 225.962L881.506 342.939L909.112 455.719V670.977H531.293V455.719Z" fill="#E44C2D"/>
<path d="M542.31 455.72H240.531V671H542.31V455.72Z" fill="#BF1811"/>
<g opacity="0.14">
<path opacity="0.14" d="M882.942 348.842H542.312V338.226H874.772L881.505 342.939L882.942 348.842Z" fill="#590F0F"/>
<path opacity="0.14" d="M856.077 317.78H542.312V328.373H856.077V317.78Z" fill="#590F0F"/>
<path opacity="0.14" d="M824.274 295.718H542.312V306.311H824.274V295.718Z" fill="#590F0F"/>
<path opacity="0.14" d="M799.81 277.493H542.312V288.087H799.81V277.493Z" fill="#590F0F"/>
<path opacity="0.14" d="M794.715 259.044H542.312V269.638H794.715V259.044Z" fill="#590F0F"/>
<path opacity="0.14" d="M887.52 367.538H542.312V356.944H884.939L887.52 367.538Z" fill="#590F0F"/>
<path opacity="0.14" d="M892.099 386.256H542.312V375.64H889.518L892.099 386.256Z" fill="#590F0F"/>
<path opacity="0.14" d="M896.677 404.951H542.312V394.358H894.096L896.677 404.951Z" fill="#590F0F"/>
<path opacity="0.14" d="M901.256 423.67H542.312V413.054H898.675L901.256 423.67Z" fill="#590F0F"/>
<path opacity="0.14" d="M905.834 442.365H542.312V431.771H903.253L905.834 442.365Z" fill="#590F0F"/>
<path opacity="0.14" d="M909.111 449.255H542.312V459.848H909.111V449.255Z" fill="#590F0F"/>
<path opacity="0.14" d="M909.111 466.717H542.312V477.31H909.111V466.717Z" fill="#590F0F"/>
<path opacity="0.14" d="M909.111 482.518H542.312V493.111H909.111V482.518Z" fill="#590F0F"/>
</g>
<path d="M236.18 455.719L266.636 331.336H572.769L542.313 455.719H236.18Z" fill="#C7AE92"/>
<path d="M266.582 331.336L423.307 223.673H729.485L572.76 331.336H266.582Z" fill="#EADCC3"/>
<path d="M504.133 495.086H198L236.177 455.72H542.31L504.133 495.086Z" fill="#EADBC5"/>
<path d="M747.981 223.673L586.475 335.443L556.131 459.67L523.296 495.086H504.129L542.306 455.72L572.762 331.336L729.487 223.673H747.981Z" fill="white"/>
<path d="M729.488 223.673L890.994 335.443L921.315 459.67L954.173 495.086H973.34L935.163 455.72L904.707 331.336L747.982 223.673H729.488Z" fill="white"/>
<path d="M881.497 342.939L890.991 335.443L739.562 229.643L729.328 236.578L881.497 342.939Z" fill="#A3440A"/>
<path d="M586.633 202.509H579.316V196.09L586.633 202.509Z" fill="#878752"/>
<path d="M526.888 192.072H463.484V245.331H526.888V192.072Z" fill="#BF1811"/>
<path d="M526.891 245.331L560.713 223.673H579.319V192.072L553.105 169L526.891 192.072V245.331Z" fill="#E44C2D"/>
<path d="M447.555 198.424L481.063 169H553.108L519.599 198.424H447.555Z" fill="#EADCC3"/>
<path d="M519.599 198.402H447.555V202.487H519.599V198.402Z" fill="#C7AE92"/>
<path d="M519.594 202.509L553.102 173.085V169L519.594 198.424V202.509Z" fill="#FBFFF3"/>
<path d="M586.633 202.509L553.102 173.085V169L586.633 198.424V202.509Z" fill="#FBFFF3"/>
<g opacity="0.14">
<path opacity="0.14" d="M542.306 502.447H240.527V513.041H542.306V502.447Z" fill="#590F0F"/>
<path opacity="0.14" d="M542.306 521.165H240.527V531.759H542.306V521.165Z" fill="#590F0F"/>
<path opacity="0.14" d="M542.306 539.861H240.527V550.455H542.306V539.861Z" fill="#590F0F"/>
<path opacity="0.14" d="M542.306 558.579H240.527V569.173H542.306V558.579Z" fill="#590F0F"/>
<path opacity="0.14" d="M542.306 577.275H240.527V587.869H542.306V577.275Z" fill="#590F0F"/>
<path opacity="0.14" d="M542.306 595.993H240.527V606.587H542.306V595.993Z" fill="#590F0F"/>
<path opacity="0.14" d="M542.306 613.477H240.527V624.07H542.306V613.477Z" fill="#590F0F"/>
<path opacity="0.14" d="M542.306 630.938H240.527V641.531H542.306V630.938Z" fill="#590F0F"/>
<path opacity="0.14" d="M542.306 646.738H240.527V657.332H542.306V646.738Z" fill="#590F0F"/>
</g>
<g opacity="0.14">
<path opacity="0.14" d="M909.111 502.447H542.312V513.041H909.111V502.447Z" fill="#590F0F"/>
<path opacity="0.14" d="M909.111 521.166H542.312V531.759H909.111V521.166Z" fill="#590F0F"/>
<path opacity="0.14" d="M909.111 539.861H542.312V550.455H909.111V539.861Z" fill="#590F0F"/>
<path opacity="0.14" d="M909.111 558.579H542.312V569.173H909.111V558.579Z" fill="#590F0F"/>
<path opacity="0.14" d="M909.111 577.275H542.312V587.869H909.111V577.275Z" fill="#590F0F"/>
<path opacity="0.14" d="M909.111 595.993H542.312V606.587H909.111V595.993Z" fill="#590F0F"/>
<path opacity="0.14" d="M909.111 613.477H542.312V624.07H909.111V613.477Z" fill="#590F0F"/>
<path opacity="0.14" d="M909.111 630.938H542.312V641.532H909.111V630.938Z" fill="#590F0F"/>
<path opacity="0.14" d="M909.111 646.738H542.312V657.332H909.111V646.738Z" fill="#590F0F"/>
</g>
<path d="M717.838 488.442H572.941V652.035H717.838V488.442Z" fill="#6E4A34"/>
<path d="M582.3 493.11H572.941V652.035H582.3V493.11Z" fill="#722828"/>
<path d="M717.867 493.11H708.508V652.035H717.867V493.11Z" fill="#722828"/>
<path d="M572.941 493.111V502.47H717.838V493.111H572.941Z" fill="#722828"/>
<path d="M708.511 493.11L640.73 574.895H650.09L717.87 493.11H708.511Z" fill="#722828"/>
<path d="M582.3 493.11L650.081 574.895H640.722L572.941 493.11H582.3Z" fill="#722828"/>
<path d="M704.628 652.036L640.73 574.896H650.09L713.987 652.036H704.628Z" fill="#722828"/>
<path d="M586.187 652.036L650.085 574.896H640.726L576.828 652.036H586.187Z" fill="#722828"/>
<path d="M582.3 488.442H572.941V652.035H582.3V488.442Z" fill="#FCF9DE"/>
<path d="M717.867 488.442H708.508V652.035H717.867V488.442Z" fill="#FCF9DE"/>
<path d="M572.969 488.443V497.802H717.866V488.443H572.969Z" fill="#FCF9DE"/>
<path d="M572.941 652.034V661.394H717.838V652.034H572.941Z" fill="#FCF9DE"/>
<path d="M708.511 488.42L640.73 570.227H650.09L717.87 488.42H708.511Z" fill="#FCF9DE"/>
<path d="M582.3 488.42L650.081 570.227H640.722L572.941 488.42H582.3Z" fill="#FCF9DE"/>
<path d="M708.511 652.035L640.73 570.228H650.09L717.87 652.035H708.511Z" fill="#FCF9DE"/>
<path d="M582.3 652.035L650.081 570.228H640.722L572.941 652.035H582.3Z" fill="#FCF9DE"/>
<path d="M887.651 488.442H742.754V652.035H887.651V488.442Z" fill="#6E4A34"/>
<path d="M751.933 490.866H742.574V649.791H751.933V490.866Z" fill="#722828"/>
<path d="M887.476 490.866H878.117V649.791H887.476V490.866Z" fill="#722828"/>
<path d="M742.574 490.844V500.203H887.471V490.844H742.574Z" fill="#722828"/>
<path d="M878.112 490.866L810.332 572.651H819.691L887.471 490.866H878.112Z" fill="#722828"/>
<path d="M751.911 490.866L819.691 572.651H810.332L742.574 490.866H751.911Z" fill="#722828"/>
<path d="M874.252 649.791L810.332 572.651H819.691L883.589 649.791H874.252Z" fill="#722828"/>
<path d="M755.793 649.791L819.69 572.651H810.331L746.434 649.791H755.793Z" fill="#722828"/>
<path d="M752.113 488.442H742.754V652.035H752.113V488.442Z" fill="#FCF9DE"/>
<path d="M887.652 488.442H878.293V652.035H887.652V488.442Z" fill="#FCF9DE"/>
<path d="M742.754 488.42V497.779H887.651V488.42H742.754Z" fill="#FCF9DE"/>
<path d="M742.754 652.012V661.371H887.651V652.012H742.754Z" fill="#FCF9DE"/>
<path d="M878.297 488.42L810.539 570.227H819.876L887.656 488.42H878.297Z" fill="#FCF9DE"/>
<path d="M752.091 488.42L819.871 570.227H810.534L742.754 488.42H752.091Z" fill="#FCF9DE"/>
<path d="M878.297 652.035L810.539 570.228H819.876L887.656 652.035H878.297Z" fill="#FCF9DE"/>
<path d="M752.091 652.035L819.871 570.228H810.534L742.754 652.035H752.091Z" fill="#FCF9DE"/>
<path d="M258.512 601.469V660.294H319.177V601.469H258.512Z" fill="#6E4A34"/>
<path d="M314.958 661.17H322.027V602.345H314.958V661.17Z" fill="#722828"/>
<path d="M261.383 661.17H268.453V602.345H261.383V661.17Z" fill="#722828"/>
<path d="M322.027 661.147V654.077H261.362V661.147H322.027Z" fill="#722828"/>
<path d="M322.027 609.392V602.322H265.581V609.392H322.027Z" fill="#722828"/>
<path d="M314.344 660.316H321.414V601.491H314.344V660.316Z" fill="#FCF9DE"/>
<path d="M260.751 660.316H267.82V601.491H260.751V660.316Z" fill="#FCF9DE"/>
<path d="M321.398 660.317V653.247H260.733V660.317H321.398Z" fill="#FCF9DE"/>
<path d="M321.398 608.561V601.491H260.733V608.561H321.398Z" fill="#FCF9DE"/>
<path d="M258.512 549.714V608.539H319.177V549.714H258.512Z" fill="#6E4A34"/>
<path d="M314.958 606.317H322.027V550.59H314.958V606.317Z" fill="#722828"/>
<path d="M261.383 606.317H268.453V550.59H261.383V606.317Z" fill="#722828"/>
<path d="M322.027 557.636V550.566H261.362V557.636H322.027Z" fill="#722828"/>
<path d="M314.344 608.562H321.414V549.736H314.344V608.562Z" fill="#FCF9DE"/>
<path d="M260.751 608.562H267.82V549.736H260.751V608.562Z" fill="#FCF9DE"/>
<path d="M321.398 608.561V601.491H260.733V608.561H321.398Z" fill="#FCF9DE"/>
<path d="M321.398 556.806V549.736H260.733V556.806H321.398Z" fill="#FCF9DE"/>
<path d="M729.597 358.941H733.592C754.783 358.941 775.106 367.359 790.09 382.344C805.074 397.328 813.492 417.651 813.492 438.841V445.058H649.652V438.886C649.646 428.386 651.71 417.988 655.726 408.286C659.741 398.584 665.63 389.768 673.054 382.344C680.479 374.919 689.295 369.03 698.997 365.015C708.699 360.999 719.097 358.936 729.597 358.941V358.941Z" fill="#6E4A34"/>
<path d="M734.089 356.697H738.084C759.275 356.697 779.598 365.115 794.582 380.099C809.566 395.084 817.984 415.406 817.984 436.597V442.814H654.145V436.642C654.139 426.142 656.202 415.744 660.218 406.042C664.233 396.34 670.122 387.524 677.547 380.099C684.971 372.675 693.787 366.786 703.489 362.771C713.191 358.755 723.589 356.691 734.089 356.697V356.697Z" stroke="#FCF9DE" stroke-width="4" stroke-miterlimit="10"/>
<path opacity="0.29" d="M907.34 448.47L904.849 442.366L900.517 431.772L897.196 423.67L892.864 413.054L889.542 404.952L885.211 394.358L881.889 386.256L877.557 375.64L874.236 367.538L869.904 356.945L866.605 348.842L864.181 342.94L856.572 338.226L729.361 259.539L609.736 338.226L602.576 342.94L601.028 348.842L598.918 356.945L596.157 367.538L594.047 375.64L591.287 386.256L589.177 394.358L586.394 404.952L584.284 413.054L581.524 423.67L579.414 431.772L576.654 442.366L569.876 468.333L542.315 497.779L523.305 495.086L556.162 459.67L560.382 442.366L562.963 431.772L564.96 423.67L567.541 413.054L569.516 404.952L572.097 394.358L574.073 386.256L576.676 375.64L578.651 367.538L581.232 356.945L583.207 348.842L585.811 338.226L586.484 335.443L729.361 236.579L874.774 338.226L881.507 342.94L882.944 348.842L884.941 356.945L887.522 367.538L889.52 375.64L892.101 386.256L894.098 394.358L896.679 404.952L898.677 413.054L901.258 423.67L903.255 431.772L905.836 442.366L907.34 448.47Z" fill="#590F0F"/>
<path d="M463.484 245.332L393.348 244.254L423.31 223.673H463.484V245.332Z" fill="#F2EADB"/>
<path d="M560.713 223.673L526.891 245.332H697.935L729.491 223.673H560.713Z" fill="#F2EADB"/>
</svg>
