<svg width="1009" height="2770" viewBox="0 0 1009 2770" fill="none" xmlns="http://www.w3.org/2000/svg">
<g clip-path="url(#clip0_332_491)">
<path d="M1008.59 2639.02C1008.59 2639.92 1008.59 2640.84 1008.59 2641.71C1008.59 2646.2 1008.4 2650.75 1008.19 2655.34C1008.12 2657.05 1008.03 2658.76 1007.93 2660.48C1007.87 2661.83 1007.79 2663.18 1007.69 2664.53C1007.59 2666.04 1007.48 2667.55 1007.37 2669.05C1007.29 2670.13 1007.21 2671.2 1007.12 2672.28C1006.92 2674.62 1006.72 2676.96 1006.47 2679.32C1006.37 2680.4 1006.27 2681.48 1006.15 2682.56C1005.97 2684.27 1005.78 2685.98 1005.57 2687.71C1005.42 2689.01 1005.26 2690.33 1005.08 2691.67C1004.7 2694.79 1004.27 2697.92 1003.8 2701.1L1003.31 2704.32C1003.09 2705.67 1002.88 2707.12 1002.64 2708.51C1002.41 2709.9 1002.19 2711.21 1001.95 2712.55C1001.8 2713.43 1001.64 2714.32 1001.47 2715.25C1001.23 2716.6 1000.97 2718.03 1000.71 2719.41C1000.71 2719.41 1000.71 2719.51 1000.71 2719.56C1000.71 2719.62 1000.71 2719.67 1000.71 2719.72C999.345 2726.81 997.787 2734 996.033 2741.29C995.815 2742.19 995.596 2743.09 995.365 2743.98C994.974 2745.59 994.565 2747.19 994.138 2748.79C992.584 2754.73 990.889 2760.72 989.053 2766.75H471.503C471.503 2766.75 464.551 2735.46 461.729 2689.11C461.306 2682 460.966 2674.54 460.775 2666.79C460.648 2661.98 460.579 2657.06 460.57 2652.05C460.57 2644.92 460.679 2637.59 460.952 2630.11C463.188 2567.72 475.947 2494.17 515.178 2432.46C563.025 2357.09 632.71 2267.95 671.124 2107.46C685.301 2048.29 695.224 1979.44 698.223 1897.93C699.357 1900.03 700.363 1902.2 701.236 1904.42C704.518 1912.59 706.121 1921.33 705.952 1930.12C705.813 1938.92 703.827 1947.6 700.118 1955.6C701.236 1953.73 702.422 1951.87 703.485 1949.92L704.848 1946.9C705.364 1945.9 705.819 1944.87 706.211 1943.82C711.016 1930.59 711.318 1916.17 707.07 1902.75C705.122 1896.48 702.281 1890.51 698.632 1885.03C701.359 1786.66 694.107 1670.32 672.446 1531.15C582.15 951.031 695.988 1017.27 756.962 692.12C824.915 329.404 602.598 342.516 646.287 115.353C646.287 115.353 657.724 77.4457 684.06 64.7111L685.123 64.2125C698.837 58.0405 716.476 58.7008 738.546 74.7506C739.809 75.649 741.09 76.6192 742.39 77.6613C810.834 131.74 745.961 95.6786 724.669 92.0401C723.701 91.8766 722.717 91.8269 721.738 91.8919C721.447 91.8919 721.161 91.9188 720.879 91.9727L720.02 92.1075L719.161 92.2961L718.616 92.4444L718.071 92.6195C715.535 93.5031 713.19 94.8518 711.16 96.5949C707.453 99.8254 704.332 103.658 701.931 107.928C701.604 108.467 701.304 109.02 700.991 109.572C700.677 110.125 700.377 110.704 700.091 111.284L699.477 112.51C698.905 113.709 698.36 114.936 697.842 116.202V116.283C691.503 131.821 689.826 151.792 697.992 166.952C698.537 167.977 699.137 168.987 699.791 169.971C719.202 199.47 726.972 216.948 768.712 257.375C810.452 297.803 842.5 343.621 852.206 375.356L852.615 376.704C852.819 377.364 853.037 378.052 853.242 378.712C855.968 387.067 859.226 396.433 862.538 407.591L863.07 409.41C864.338 413.695 865.578 418.25 866.791 423.115C867.132 424.463 867.473 425.918 867.814 427.346C867.977 428.074 868.155 428.802 868.318 429.529C868.482 430.244 868.645 430.958 868.795 431.686C868.945 432.413 869.123 433.141 869.272 433.869C869.845 436.564 870.399 439.317 870.936 442.129C871.045 442.668 871.14 443.207 871.235 443.76C871.481 445.108 871.726 446.455 871.958 447.803C872.19 449.15 872.367 450.201 872.558 451.414L873.048 454.568C873.28 456.198 873.526 457.856 873.757 459.54C873.935 460.78 874.098 462.047 874.262 463.327C874.425 464.607 874.589 466.022 874.739 467.37C874.889 468.717 875.025 469.903 875.161 471.183C875.298 472.463 875.407 473.474 875.516 474.647C875.734 476.884 875.938 479.174 876.116 481.492C876.211 482.651 876.306 483.81 876.388 484.996C876.797 490.647 877.111 496.567 877.329 502.757C877.329 503.97 877.41 505.183 877.438 506.409C877.847 521.92 877.601 539.156 876.456 558.372C870.159 664.333 861.898 711.862 813.356 880.108C764.814 1048.35 749.287 1251.56 813.356 1430.72C816.573 1439.7 819.667 1448.39 822.639 1456.79C822.639 1456.79 822.639 1456.9 822.639 1456.97C823.375 1459.08 824.125 1461.19 824.861 1463.26L825.979 1466.46C826.128 1466.86 826.265 1467.26 826.401 1467.67C826.783 1468.73 827.151 1469.8 827.519 1470.85C829.373 1476.13 831.172 1481.28 832.972 1486.33C833.49 1487.82 833.994 1489.28 834.498 1490.75C835.861 1494.8 837.225 1498.72 838.588 1502.58C838.915 1503.54 839.228 1504.48 839.556 1505.43C841.019 1509.71 842.441 1513.92 843.822 1518.05L846.549 1526.14C849.002 1533.6 851.324 1540.81 853.514 1547.78C853.508 1547.84 853.508 1547.89 853.514 1547.94C856.827 1558.48 859.826 1568.52 862.566 1578.18C863.002 1579.72 863.425 1581.24 863.847 1582.75C864.365 1584.64 864.883 1586.51 865.387 1588.37L866.124 1591.07L866.287 1591.71C866.287 1591.94 866.396 1592.16 866.464 1592.37C866.481 1592.46 866.503 1592.55 866.532 1592.63C866.846 1593.82 867.146 1594.99 867.446 1596.15C867.637 1596.88 867.828 1597.6 868.005 1598.33C868.568 1600.53 869.113 1602.71 869.641 1604.85C869.995 1606.29 870.336 1607.72 870.677 1609.15C871.322 1611.85 871.935 1614.5 872.517 1617.12C872.953 1619.03 873.376 1620.94 873.771 1622.83C874.003 1623.89 874.221 1624.95 874.439 1626C875.107 1629.19 875.802 1632.36 876.334 1635.51C876.647 1637.13 876.947 1638.76 877.233 1640.36C877.52 1641.97 877.833 1643.7 878.106 1645.36C878.378 1647.02 878.624 1648.39 878.869 1649.92C879.155 1651.72 879.442 1653.53 879.701 1655.31C879.932 1656.84 880.15 1658.38 880.369 1659.92C880.369 1660.36 880.491 1660.79 880.546 1661.26C880.75 1662.69 880.927 1664.12 881.118 1665.55L881.65 1669.86L881.773 1670.9C882.127 1674 882.468 1677.08 882.768 1680.2C883.268 1685.26 883.695 1690.38 884.049 1695.55C884.158 1697.18 884.267 1698.82 884.363 1700.48C884.458 1702.14 884.567 1703.91 884.649 1705.64C884.731 1707.36 884.812 1709.1 884.894 1710.85C884.976 1712.61 885.031 1714.36 885.085 1716.12C885.14 1717.89 885.194 1719.44 885.235 1721.11C885.235 1721.32 885.235 1721.53 885.235 1721.74C885.235 1723.63 885.317 1725.53 885.344 1727.44C885.371 1729.36 885.344 1731.28 885.412 1733.22C885.48 1735.16 885.412 1737.05 885.412 1738.99C885.412 1757.14 884.785 1776.6 883.64 1798.2C883.386 1803.01 883.072 1807.93 882.7 1812.95C878.61 1870.26 868.4 1940.16 867.705 2022.2C867.65 2029.05 867.65 2035.96 867.705 2042.95C867.705 2046.12 867.759 2049.3 867.868 2052.51C867.95 2056.01 868.046 2059.53 868.155 2063.06C868.155 2064.22 868.155 2065.36 868.264 2066.52C868.332 2068.1 868.386 2069.66 868.455 2071.24C868.455 2072.59 868.564 2073.93 868.632 2075.28C868.714 2077.09 868.795 2078.89 868.891 2080.67C869.082 2084.35 869.286 2088.04 869.531 2091.78V2091.88L869.9 2097.5C870.036 2099.42 870.186 2101.34 870.336 2103.27C870.486 2105.2 870.622 2106.95 870.772 2108.8L870.908 2111.36C871.017 2112.57 871.126 2113.78 871.222 2114.99C871.399 2116.95 871.576 2118.9 871.767 2120.86C871.931 2122.6 872.108 2124.35 872.285 2126.1C872.285 2126.31 872.285 2126.53 872.353 2126.75C872.558 2128.71 872.762 2130.68 872.98 2132.66C873.38 2136.26 873.803 2139.9 874.248 2143.59L874.452 2145.26C874.671 2147.04 874.902 2148.85 875.148 2150.65C875.393 2152.46 875.598 2154.16 875.843 2155.91C876.443 2160.22 877.07 2164.56 877.724 2168.93C878.351 2172.97 879.005 2177.13 879.701 2181.27C880.355 2185.2 881.064 2189.18 881.773 2193.17C881.773 2193.36 881.773 2193.56 881.882 2193.75C882.25 2195.84 882.645 2197.94 883.054 2200.04C883.885 2204.39 884.744 2208.79 885.644 2213.19L886.666 2218.06L887.321 2221.1C888.084 2224.7 888.875 2228.29 889.693 2231.88L890.715 2236.21C891.015 2237.56 891.315 2238.91 891.642 2240.15C892.024 2241.78 892.419 2243.41 892.828 2245.04C893.355 2247.22 893.9 2249.4 894.464 2251.59C894.968 2253.62 895.5 2255.63 896.031 2257.7C896.713 2260.31 897.408 2262.91 898.117 2265.52C898.649 2267.49 899.18 2269.46 899.739 2271.44C900.216 2273.16 900.707 2274.9 901.211 2276.64C902.611 2281.59 904.074 2286.56 905.601 2291.57C906.164 2293.43 906.737 2295.29 907.318 2297.15C908.227 2300.2 909.199 2303.27 910.235 2306.37C910.835 2308.24 911.449 2310.11 912.076 2312C912.821 2314.29 913.584 2316.58 914.366 2318.87C914.666 2319.77 914.979 2320.68 915.293 2321.57L915.456 2322.05L915.538 2322.29L915.947 2323.47C916.588 2325.33 917.228 2327.19 917.896 2329.06C918.564 2330.93 919.123 2332.56 919.764 2334.33C923.881 2345.85 928.315 2357.5 933.068 2369.28C933.832 2371.2 934.609 2373.1 935.399 2375.03C936.19 2376.95 936.967 2378.85 937.785 2380.78C940.975 2388.42 944.305 2396.12 947.777 2403.89C950.639 2410.27 953.588 2416.68 956.624 2423.12C956.719 2423.32 956.801 2423.52 956.91 2423.73C957.019 2423.93 957.06 2424.06 957.142 2424.23C958.505 2427.22 960.004 2430.24 961.463 2433.25C962.662 2435.72 963.876 2438.2 965.102 2440.68C965.102 2440.8 965.225 2440.92 965.293 2441.04L965.375 2441.2L965.675 2441.77L965.879 2442.19L966.111 2442.63L966.929 2444.26C967.065 2444.56 967.229 2444.87 967.393 2445.21C968.129 2446.72 969.015 2448.59 970.024 2450.8L970.392 2451.58C971.087 2453.1 971.837 2454.8 972.627 2456.63L973.418 2458.48C973.568 2458.82 973.704 2459.15 973.854 2459.51L974.536 2461.12C975.013 2462.28 975.517 2463.51 976.021 2464.76C976.93 2466.99 977.839 2469.36 978.748 2471.86C979.225 2473.12 979.716 2474.4 980.193 2475.73C980.67 2477.06 981.174 2478.43 981.679 2479.77C982.333 2481.62 983.042 2483.53 983.682 2485.5C983.846 2486 984.009 2486.5 984.187 2487L985.277 2490.27C985.591 2491.23 985.904 2492.18 986.218 2493.17C986.381 2493.68 986.559 2494.22 986.722 2494.76C987.022 2495.66 987.322 2496.61 987.622 2497.63C987.745 2498.01 987.854 2498.4 987.976 2498.79C988.885 2501.71 989.794 2504.73 990.703 2507.86C990.703 2507.99 990.703 2508.13 990.812 2508.26C991.439 2510.47 992.061 2512.72 992.679 2515L992.802 2515.47C993.102 2516.6 993.402 2517.76 993.715 2518.92C993.797 2519.26 993.879 2519.61 993.974 2519.96C994.233 2520.97 994.479 2521.99 994.738 2523.02C997.641 2534.77 1000.34 2547.57 1002.55 2561.32C1002.75 2562.6 1002.96 2563.89 1003.15 2565.18C1003.38 2566.71 1003.61 2568.23 1003.83 2569.78C1004.01 2571 1004.18 2572.24 1004.35 2573.5L1004.47 2574.44C1004.65 2575.79 1004.81 2577 1004.96 2578.29C1005.15 2579.83 1005.34 2581.38 1005.51 2582.93C1005.63 2583.99 1005.75 2585.06 1005.86 2586.14C1006.22 2589.35 1006.53 2592.61 1006.8 2595.89V2595.98C1006.92 2597.42 1007.05 2598.86 1007.16 2600.31C1007.16 2600.65 1007.16 2600.99 1007.16 2601.33C1007.26 2602.67 1007.36 2604.02 1007.44 2605.46C1007.55 2607.05 1007.65 2608.67 1007.73 2610.27C1007.85 2612.27 1007.95 2614.32 1008.01 2616.32C1008.01 2617.54 1008.11 2618.76 1008.16 2620C1008.45 2626.26 1008.59 2632.59 1008.59 2639.02Z" fill="#FB6198"/>
<path d="M994.003 2748.76H492.361C492.361 2748.76 485.409 2717.47 482.601 2671.1C481.906 2659.61 481.456 2647.17 481.442 2634.06C481.347 2567.55 492.184 2483.57 536.05 2414.4C623.415 2276.76 783.6 2093.22 693.318 1513.1C603.036 932.974 716.859 999.221 777.834 674.062C845.787 311.36 623.47 324.472 667.159 97.2957C671.001 85.5936 676.697 74.5681 684.035 64.6303L685.098 64.1317C698.811 57.9597 716.451 58.62 738.52 74.6698C739.783 75.5681 741.065 76.5384 742.364 77.5805C810.808 131.659 745.936 95.5978 724.643 91.9593C723.676 91.7958 722.692 91.746 721.712 91.811C717.769 92.2245 714.063 93.8723 711.134 96.5141C705.9 100.867 701.197 107.861 697.816 116.121V116.202C691.273 131.322 689.528 151.347 697.966 166.872C698.511 167.896 699.111 168.906 699.766 169.89C719.177 199.389 726.947 216.867 768.687 257.295C810.427 297.722 842.475 343.54 852.18 375.276C856.474 389.291 862.949 405.987 868.293 429.422C875.027 458.947 879.948 499.186 876.472 558.264C870.174 664.225 861.913 711.754 813.371 880C764.829 1048.25 749.303 1251.45 813.371 1430.61C877.44 1609.77 891.071 1660.59 883.765 1798.23C876.458 1935.87 822.6 2152.2 965.309 2440.63C965.132 2440.63 1039.07 2576.15 994.003 2748.76Z" fill="#FB6198"/>
<path opacity="0.17" d="M460.597 2652.02C460.597 2657.03 460.665 2661.95 460.802 2666.76C460.802 2666.76 458.58 2663.65 455.117 2657.8C456.455 2648.45 458.413 2639.19 460.979 2630.1C460.597 2637.56 460.597 2644.89 460.597 2652.02Z" fill="white"/>
<path opacity="0.17" d="M1000.63 2719.41C1000.63 2719.41 1000.63 2719.51 1000.63 2719.56C1000.63 2719.62 1000.63 2719.67 1000.63 2719.72C999.198 2729.56 997.002 2739.27 994.056 2748.76L988.971 2766.73H471.503C471.503 2766.73 464.551 2735.44 461.729 2689.08C461.306 2681.98 460.966 2674.51 460.775 2666.76C460.648 2661.95 460.579 2657.03 460.57 2652.02C460.57 2644.89 460.679 2637.56 460.952 2630.08C461.806 2627.02 462.747 2623.93 463.774 2620.82C468.02 2607.95 473.318 2595.43 479.614 2583.4C481.154 2580.42 482.79 2577.41 484.507 2574.39C511.171 2527.34 558.009 2475.7 636.622 2422.94C690.072 2387.07 745.552 2303.01 788.587 2191.16C802.415 2155.03 814.327 2118.22 824.275 2080.86V2080.86C844.419 2005.24 857.389 1927.93 863.016 1849.92C872.258 1722.19 862.048 1586.5 822.489 1456.77C822.489 1456.77 822.489 1456.87 822.489 1456.94C824.234 1461.21 838.601 1496.94 853.269 1547.81C853.263 1547.86 853.263 1547.92 853.269 1547.97C866.901 1595.3 880.723 1655.78 884.853 1716.18C884.853 1716.18 884.853 1716.3 884.853 1716.35C886.939 1743.64 886.483 1771.06 883.49 1798.26C882.818 1803.87 882.15 1809.53 881.486 1815.24C874.112 1878.09 867.269 1945.75 866.982 2017.2C866.982 2019.18 866.982 2021.16 866.982 2023.14C866.982 2047.62 867.828 2072.52 869.709 2097.81C869.872 2100.1 870.05 2102.39 870.227 2104.7C873.175 2142.53 878.538 2180.14 886.285 2217.3C893.472 2251.7 902.851 2285.61 914.366 2318.83C914.666 2319.73 914.979 2320.64 915.293 2321.53L915.456 2322.01L915.538 2322.25V2322.41C917.297 2327.23 925.953 2350.86 937.349 2378.56C937.485 2378.89 937.621 2379.24 937.771 2379.59C938.098 2380.4 938.426 2381.22 938.766 2382.03C944.301 2395.51 950.408 2409.7 956.624 2423.08C956.719 2423.28 956.801 2423.48 956.91 2423.69C957.019 2423.89 957.06 2424.02 957.142 2424.18C959.786 2429.87 962.458 2435.4 965.103 2440.64C965.103 2440.76 965.225 2440.88 965.293 2441L965.375 2441.16C966.943 2444.3 968.497 2447.51 970.024 2450.76L970.392 2451.54C972.109 2455.21 973.79 2458.94 975.435 2462.74C994.342 2506.35 1007.95 2557.14 1006.79 2595.92V2596C1006.95 2598.78 1008.66 2668.53 1000.63 2719.41Z" fill="#4E4700"/>
<path opacity="0.17" d="M813.194 1430.61C813.194 1430.61 701.96 1275.41 745.036 1045.42C788.112 815.424 860.005 780.131 870.065 438.423C870.065 438.423 905.589 611.79 813.194 880C813.194 880 715.946 1171.36 813.194 1430.61Z" fill="#4E4700"/>
<path opacity="0.17" d="M994.003 2748.76L988.918 2766.73L920.051 2769.49C929.757 2715.42 938.604 2611.31 897.109 2494.83C838.657 2330.68 783.122 2163.6 867.12 2017.17C870.155 2011.86 873.386 2006.58 876.812 2001.33C876.498 2002.43 866.615 2037.79 870.296 2104.67C872.578 2142.57 877.948 2180.23 886.354 2217.28C896.673 2263.9 912.799 2317.77 937.418 2378.54C937.554 2378.88 937.69 2379.23 937.84 2379.58C937.99 2379.93 938.045 2380.11 938.154 2380.38C938.372 2380.93 938.604 2381.47 938.835 2382.02C952.385 2415.22 964.735 2441.31 975.545 2462.79C994.452 2506.4 1008.06 2557.19 1006.9 2595.98C1006.88 2595.98 1009.71 2700.84 994.003 2748.76Z" fill="#4E4700"/>
<path d="M869.874 2097.61C869.842 2097.67 869.801 2097.73 869.751 2097.77C857.428 2113.94 843.761 2130.44 828.748 2147.27C814.843 2162.79 801.453 2177.42 788.575 2191.15C617.513 2373.95 534.428 2412.15 485.886 2562.64C483.723 2569.32 481.628 2576.24 479.602 2583.39C473.945 2603.37 468.778 2625.26 464.007 2649.54C462.899 2655.15 461.817 2660.88 460.763 2666.75C460.763 2666.75 458.541 2663.64 455.079 2657.79C436.72 2626.06 424.537 2591.22 419.159 2555.06C409.454 2489.89 419.759 2402.93 497.704 2312.81C580.721 2216.8 636.651 2149.65 671.112 2107.43C680.477 2095.95 688.26 2086.33 694.572 2078.46C696.907 2075.55 699.043 2072.88 700.979 2070.44C711.38 2057.37 716.137 2051.15 716.137 2051.15C716.137 2051.15 808.75 1943.34 863.031 1849.88C869.929 1838.01 876.213 1826.37 881.597 1815.21C881.965 1814.46 882.32 1813.72 882.661 1812.97C891.903 1793.51 898.364 1775.59 900.586 1760.55C914.218 1668.78 881.979 1670.1 881.979 1670.1C881.979 1670.1 881.42 1666.79 880.466 1661.29C877.889 1646.66 872.369 1616.63 866.453 1592.68C866.423 1592.6 866.401 1592.52 866.384 1592.43C866.275 1591.98 866.166 1591.55 866.044 1591.08C864.68 1585.54 863.317 1580.38 861.859 1575.84C864.994 1586.82 883.342 1599.25 901.472 1622.52C910.469 1634.07 918.375 1644.3 921.919 1649.09C952.032 1689.56 1049.91 1860.93 869.874 2097.61Z" fill="#EB598D"/>
<path d="M840.714 1080.57C840.714 1079.69 840.714 1078.8 840.646 1077.88C840.577 1076.96 840.646 1076.13 840.523 1075.18C840.4 1074.24 840.427 1073.45 840.359 1072.6C840.291 1071.75 840.237 1070.89 840.155 1070.04C840.005 1068.34 839.828 1066.68 839.61 1065.04C839.514 1064.26 839.405 1063.47 839.296 1062.71C839.304 1062.67 839.304 1062.63 839.296 1062.6V1062.6C839.132 1061.52 838.969 1060.47 838.792 1059.43C838.614 1058.39 838.437 1057.4 838.246 1056.41C838.246 1056.41 838.246 1056.33 838.246 1056.29C838.042 1055.2 837.81 1054.12 837.578 1053.06C837.388 1052.22 837.197 1051.37 836.992 1050.55C836.788 1049.73 836.57 1048.83 836.352 1047.99C836.215 1047.48 836.079 1046.97 835.929 1046.47C835.779 1045.97 835.602 1045.25 835.411 1044.65C835.22 1044.04 835.043 1043.4 834.852 1042.78C834.593 1041.93 834.321 1041.1 834.048 1040.28C833.23 1037.82 832.344 1035.42 831.417 1033.11C831.117 1032.36 830.804 1031.6 830.49 1030.86C829.999 1029.7 829.495 1028.56 828.977 1027.44C828.772 1026.98 828.554 1026.52 828.336 1026.09C827.75 1024.84 827.137 1023.61 826.523 1022.41C825.16 1019.72 823.797 1017.28 822.297 1014.91C821.848 1014.15 821.384 1013.42 820.934 1012.7L819.653 1010.74C818.89 1009.58 818.113 1008.45 817.336 1007.36C817.036 1006.93 816.722 1006.51 816.422 1006.09C814.8 1003.87 813.164 1001.8 811.542 999.855C811.092 999.316 810.656 998.79 810.179 998.278C808.361 996.176 806.594 994.249 804.876 992.497L803.731 991.351C801.673 989.303 799.737 987.538 798.006 986.042L797.297 985.435C794.83 983.333 792.785 981.81 791.408 980.813L790.659 980.288L789.541 979.546L789.391 979.452C784.211 1004.98 782.575 1019.03 782.575 1019.03L791.844 1029.62C800.828 1042.01 831.158 1077.15 726.304 1172.2C676.262 1217.56 634.209 1249.1 602.938 1284.3C581.386 1308.56 564.96 1334.57 554.614 1368.01C548.507 1387.72 544.527 1410.01 542.823 1436.04C534.289 1567.35 681.129 1645.87 687.836 1649.39L688.067 1649.51C688.073 1649.48 688.073 1649.45 688.067 1649.42C687.767 1646.57 686.895 1639.28 685.736 1629.84C685.232 1625.79 684.687 1621.23 684.1 1616.51C682.546 1604.03 680.815 1590.06 679.329 1578.14L675.785 1549.84L648.168 1526.67C516.623 1373.93 722.923 1344.23 807.385 1193.46C808.162 1192.11 808.911 1190.77 809.647 1189.42C811.129 1186.72 812.546 1184.03 813.9 1181.33C815.264 1178.64 816.627 1176.04 817.799 1173.44C822.469 1163.71 826.565 1153.73 830.067 1143.53C830.476 1142.35 830.872 1141.16 831.24 1139.99C838.355 1117.71 841.041 1097.97 840.714 1080.57ZM824.574 1033.41C824.574 1033.6 824.574 1033.77 824.574 1033.96C824.657 1035.95 824.935 1037.92 825.405 1039.85C825.514 1040.38 825.651 1040.88 825.801 1041.37C826.423 1043.29 827.255 1045.13 828.282 1046.87C829.054 1050.51 829.645 1054.16 830.054 1057.81C827.841 1056.19 825.88 1054.26 824.233 1052.07C822.421 1049.63 820.962 1046.95 819.898 1044.11C818.869 1041.14 818.228 1038.05 817.99 1034.92C817.874 1033.28 817.874 1031.63 817.99 1029.99C818.195 1027.04 818.744 1024.13 819.626 1021.31C821.497 1025.23 823.145 1029.25 824.56 1033.36L824.574 1033.41Z" fill="#EB598D"/>
<path d="M904.455 587.237C882.127 671.34 822.898 695.044 822.898 695.044C646.859 801.382 708.829 871.847 703.976 882.763C702.613 885.849 701.018 889.784 699.464 893.84C697.91 897.896 696.301 902.222 694.992 905.847C693.002 911.237 691.612 915.28 691.612 915.28C691.612 915.28 631.933 843.777 675.172 774.969C686.773 756.494 705.789 738.221 735.383 721.564C735.383 721.564 817.077 671.367 840.346 652.838C863.615 634.308 905.955 580.755 877.029 504.28L871.753 452.196V451.967C871.753 451.967 930.028 490.871 904.455 587.237Z" fill="#E25185"/>
<path d="M639.565 1164.23C639.32 1181.75 639.375 1195.56 639.375 1195.56C606.359 1097.19 435.051 1103.08 281.668 1131.49C128.286 1159.89 83.6148 1100.9 50.6128 1055.01L44.4513 1046.44C10.7677 999.666 -38.8649 930.346 50.6128 1032.21C70.6103 1054.97 93.7022 1068.69 118.934 1076.06C126.435 1078.24 134.084 1079.89 141.822 1080.99C160.183 1083.69 179.459 1083.69 199.333 1081.88C204.286 1081.45 209.284 1080.9 214.328 1080.24C289.479 1070.5 371.773 1039.11 444.825 1033.15C578.796 1022.24 642.878 1099.44 642.878 1099.44C640.71 1111.56 639.879 1141.1 639.565 1164.23Z" fill="#EB598D"/>
<path opacity="0.7" d="M639.705 1195.95C606.689 1097.58 435.381 1103.47 281.998 1131.88C128.616 1160.28 83.945 1101.29 50.9429 1055.4L44.8359 1046.83C77.838 1082.66 118.583 1111.6 175.795 1120.07C272.742 1134.45 277.227 1103.31 461.404 1102.11C565.794 1101.44 616.027 1135.22 639.977 1164.62C639.65 1182.1 639.705 1195.95 639.705 1195.95Z" fill="#ECDE76"/>
<path opacity="0.7" d="M694.57 2078.45C664.58 2146.43 622.391 2201.52 514.21 2322.36C443.462 2401.37 423.015 2490.18 419.144 2555.09C409.438 2489.92 419.743 2402.96 497.689 2312.83C611.608 2181.08 668.125 2111.67 694.57 2078.45Z" fill="#ECDE76"/>
<path opacity="0.17" d="M828.732 2147.28C599.081 2403.58 511.784 2406.22 463.992 2649.55C454.204 2399.04 644.092 2293.64 824.261 2080.87C1021.61 1847.74 901.443 1622.56 901.443 1622.56C910.44 1634.11 918.346 1644.34 921.89 1649.13C954.061 1692.35 1063.67 1885.1 828.732 2147.28Z" fill="#4E4700"/>
<path opacity="0.7" d="M688.054 1649.46H687.836C681.129 1645.94 534.289 1567.42 542.823 1436.11C544.527 1410.07 548.507 1387.78 554.614 1368.08C550.988 1403.86 554.614 1475.19 573.18 1511.8C596 1556.93 648.154 1606.03 685.723 1629.9C686.881 1639.32 687.754 1646.61 688.054 1649.46Z" fill="#ECDE76"/>
<path opacity="0.17" d="M831.186 1140.02C830.818 1141.19 830.423 1142.38 830.014 1143.56C826.524 1153.76 822.427 1163.74 817.746 1173.46C816.505 1176.06 815.21 1178.71 813.847 1181.36C812.484 1184.02 811.121 1186.75 809.594 1189.45C808.858 1190.79 808.108 1192.14 807.331 1193.49C722.815 1344.26 516.569 1373.96 648.114 1526.69L675.732 1549.87L679.276 1578.17C655.312 1562 627.19 1538.07 614.594 1508.74C590.507 1452.67 588.994 1420.93 614.594 1373.01C635.859 1333.22 845.118 1189.74 829.973 1057.75C829.564 1054.1 828.973 1050.45 828.201 1046.8C827.232 1042.24 825.989 1037.74 824.48 1033.33C823.072 1029.2 821.429 1025.15 819.559 1021.2C812.879 1006.96 802.969 992.982 789.283 979.425L789.433 979.52L790.551 980.261L791.3 980.786C792.663 981.783 794.722 983.306 797.189 985.408L797.898 986.015C799.629 987.511 801.565 989.276 803.623 991.324L804.768 992.47C806.486 994.222 808.253 996.149 810.071 998.251C810.521 998.763 810.957 999.289 811.434 999.828C813.056 1001.77 814.692 1003.87 816.314 1006.07C816.614 1006.48 816.928 1006.9 817.228 1007.33C818.005 1008.43 818.782 1009.56 819.545 1010.72L820.826 1012.67C821.276 1013.4 821.74 1014.13 822.189 1014.88C823.634 1017.25 825.052 1019.76 826.415 1022.39C827.029 1023.59 827.642 1024.81 828.228 1026.07C828.446 1026.51 828.664 1026.97 828.869 1027.41C829.387 1028.53 829.891 1029.68 830.382 1030.84C830.696 1031.58 831.009 1032.33 831.309 1033.09C832.236 1035.39 833.122 1037.79 833.94 1040.26C834.213 1041.08 834.485 1041.9 834.744 1042.75C834.935 1043.37 835.126 1043.99 835.303 1044.62C835.48 1045.25 835.657 1045.83 835.821 1046.44C835.985 1047.05 836.107 1047.45 836.244 1047.96C836.462 1048.8 836.68 1049.66 836.884 1050.52C837.089 1051.39 837.28 1052.19 837.47 1053.03C837.702 1054.09 837.934 1055.17 838.138 1056.26C838.138 1056.26 838.138 1056.35 838.138 1056.39C838.329 1057.37 838.52 1058.38 838.684 1059.4C838.847 1060.43 839.024 1061.49 839.188 1062.57C839.196 1062.61 839.196 1062.64 839.188 1062.68C839.297 1063.45 839.406 1064.23 839.502 1065.01C839.72 1066.65 839.91 1068.31 840.047 1070.01C840.129 1070.86 840.197 1071.71 840.251 1072.57C840.306 1073.43 840.374 1074.28 840.415 1075.16C840.456 1076.03 840.51 1076.91 840.538 1077.85C840.565 1078.8 840.606 1079.62 840.606 1080.55C841.042 1097.97 838.356 1117.71 831.186 1140.02Z" fill="#4E4700"/>
<path opacity="0.7" d="M695.063 905.807C693.072 911.197 691.682 915.24 691.682 915.24C691.682 915.24 632.003 843.737 675.242 774.929C656.267 819.736 678.459 874.677 695.063 905.807Z" fill="#ECDE76"/>
<path opacity="0.17" d="M904.457 587.237C882.128 671.34 822.899 695.044 822.899 695.044C646.861 801.382 708.83 871.847 703.977 882.763C702.614 885.849 701.019 889.784 699.465 893.84C688.123 876.483 676.455 845.462 695.157 803.552C718.208 751.831 761.407 727.292 791.287 708.533C821.168 689.775 864.121 659.926 885.809 617.086C907.497 574.247 905.193 545.22 901.962 520.869C898.936 497.96 882.523 467.747 871.782 452.236V452.007C871.782 452.007 930.03 490.871 904.457 587.237Z" fill="#4E4700"/>
<path opacity="0.21" d="M868.183 429.408C867.406 427.75 816.806 321.601 768.673 287.17C722.203 253.885 636.583 136.16 711.025 96.5005C705.79 100.853 701.087 107.847 697.707 116.108V116.189C691.164 131.309 689.419 151.334 697.857 166.858C698.402 167.882 699.002 168.893 699.656 169.877C719.067 199.375 726.837 216.853 768.577 257.281C810.317 297.708 842.365 343.526 852.071 375.262C856.324 389.277 862.799 405.973 868.183 429.408Z" fill="#ECDE76"/>
<path d="M212.993 1081.8C205.729 1089.55 196.654 1095.43 186.562 1098.92L182.758 1100.26C181.473 1100.63 180.166 1100.92 178.846 1101.14L174.879 1101.93L170.79 1102.28C165.242 1102.84 159.639 1102.54 154.187 1101.38C148.546 1100.14 143.108 1098.13 138.033 1095.4C132.848 1092.44 128.061 1088.85 123.788 1084.71C121.568 1082.51 119.505 1080.16 117.613 1077.68C112.011 1070.43 107.848 1062.2 105.345 1053.42C104.468 1050.47 103.794 1047.46 103.327 1044.42C103.068 1042.92 102.973 1041.39 102.823 1039.86C102.614 1038.34 102.514 1036.8 102.523 1035.26C102.523 1033.71 102.427 1032.14 102.523 1030.61L102.932 1025.96L103.75 1021.42C104.022 1019.91 104.513 1018.45 104.895 1016.97C108.267 1005.48 115.603 995.519 125.628 988.818C130.492 985.649 135.917 983.418 141.618 982.241C143.05 981.999 144.481 981.689 145.939 981.554L150.315 981.312C151.815 981.312 153.355 981.446 154.882 981.554C156.411 981.709 157.927 981.966 159.421 982.322C165.571 983.817 171.311 986.638 176.229 990.583C181.354 994.672 185.58 999.753 188.647 1005.51C191.688 1011.3 193.572 1017.62 194.195 1024.11C194.94 1030.58 194.074 1037.14 191.673 1043.21C189.382 1048.98 185.558 1054.04 180.605 1057.85C175.748 1061.47 169.911 1063.58 163.838 1063.91C160.685 1064.11 157.522 1063.73 154.514 1062.77C149.827 1061.31 145.602 1058.67 142.245 1055.12C138.745 1051.44 136.176 1047 134.748 1042.16C133.822 1039 133.362 1035.73 133.385 1032.44C133.43 1029.17 134.12 1025.94 135.416 1022.92C136.622 1020.07 138.435 1017.51 140.732 1015.41C142.961 1013.37 145.627 1011.87 148.529 1011C151.456 1010.17 154.544 1010.05 157.526 1010.66C160.657 1011.38 163.532 1012.93 165.842 1015.14C168.169 1017.36 169.917 1020.1 170.938 1023.14C171.959 1026.17 172.221 1029.4 171.703 1032.56C171.129 1035.49 169.625 1038.17 167.409 1040.2C165.324 1042.09 162.605 1043.15 159.776 1043.18C158.365 1043.21 156.966 1042.92 155.686 1042.33C154.353 1041.74 153.16 1040.87 152.183 1039.8C151.217 1038.75 150.467 1037.52 149.974 1036.19C149.483 1034.85 149.243 1033.44 149.266 1032.02C149.43 1033.35 149.827 1034.65 150.438 1035.85C151.058 1037.02 151.89 1038.06 152.892 1038.93C153.797 1039.74 154.873 1040.33 156.04 1040.67C157.156 1041.02 158.337 1041.1 159.489 1040.9C161.738 1040.58 163.795 1039.47 165.283 1037.78C166.746 1036.04 167.636 1033.9 167.832 1031.64C167.969 1029.34 167.558 1027.03 166.632 1024.91C165.722 1022.81 164.32 1020.97 162.543 1019.52C160.899 1018.23 158.927 1017.42 156.845 1017.17C154.815 1016.98 152.77 1017.29 150.888 1018.06C149.007 1018.81 147.321 1019.96 145.953 1021.44C144.542 1022.97 143.465 1024.78 142.791 1026.74C142.131 1028.73 141.845 1030.83 141.945 1032.92C142.099 1035.12 142.558 1037.29 143.309 1039.37C144.827 1043.36 147.53 1046.82 151.065 1049.27C152.73 1050.36 154.575 1051.16 156.518 1051.63C158.414 1052.1 160.386 1052.21 162.325 1051.95C166.349 1051.54 170.152 1049.93 173.23 1047.33C176.391 1044.67 178.777 1041.23 180.141 1037.36C180.5 1036.38 180.796 1035.37 181.027 1034.35C181.218 1033.33 181.382 1032.29 181.491 1031.24L181.6 1029.64C181.6 1029.11 181.6 1028.57 181.6 1028.06C181.584 1026.95 181.493 1025.84 181.327 1024.74C180.814 1020.28 179.425 1015.96 177.238 1012.02C175.117 1008.21 172.232 1004.86 168.759 1002.19C165.436 999.586 161.572 997.745 157.445 996.795L154.418 996.31C153.396 996.31 152.387 996.189 151.351 996.175L148.161 996.391C147.112 996.485 146.076 996.755 145.081 996.89C140.95 997.769 137.021 999.401 133.494 1001.7C126.141 1006.6 120.739 1013.87 118.213 1022.28C117.927 1023.37 117.518 1024.42 117.3 1025.53L116.645 1028.88L116.304 1032.3C116.182 1033.44 116.304 1034.62 116.209 1035.75C116.182 1036.93 116.236 1038.11 116.373 1039.28C116.495 1040.48 116.523 1041.71 116.713 1042.9C117.055 1045.29 117.533 1047.66 118.145 1050C121.409 1063.16 129.373 1074.71 140.569 1082.53C141.387 1083.12 142.218 1083.67 143.063 1084.2C147.077 1086.6 151.401 1088.45 155.918 1089.7C160.389 1090.89 165.016 1091.42 169.645 1091.26L173.162 1091.18L176.611 1090.7C177.778 1090.59 178.938 1090.42 180.087 1090.18L183.494 1089.37C188.608 1088.05 193.515 1086.05 198.08 1083.42C203.015 1083.02 207.986 1082.48 212.993 1081.8Z" fill="#EB598D"/>
<path d="M830.014 1057.76C827.802 1056.14 825.841 1054.2 824.193 1052.02C822.381 1049.58 820.922 1046.9 819.859 1044.06C818.829 1041.08 818.188 1038 817.95 1034.86C817.834 1033.22 817.834 1031.57 817.95 1029.93C818.156 1026.99 818.705 1024.07 819.586 1021.25C821.456 1025.2 823.099 1029.25 824.507 1033.38C824.507 1033.57 824.507 1033.75 824.507 1033.93C824.59 1035.92 824.868 1037.89 825.338 1039.82C825.448 1040.35 825.584 1040.85 825.734 1041.35C826.356 1043.26 827.188 1045.11 828.215 1046.84C829.042 1050.47 829.642 1054.1 830.014 1057.76Z" fill="#9B8E00"/>
<path d="M838.78 1059.49C838.957 1060.52 839.12 1061.57 839.284 1062.65C838.861 1062.5 838.439 1062.36 838.016 1062.18L836.04 1061.39C835.394 1061.08 834.766 1060.75 834.158 1060.37L832.305 1059.32L830.56 1058.07L830.069 1057.72C829.66 1054.07 829.069 1050.42 828.297 1046.78C828.529 1047.17 828.76 1047.55 829.006 1047.92C830.373 1049.95 832.035 1051.77 833.94 1053.31L835.303 1054.49L836.858 1055.48C837.28 1055.77 837.689 1056.08 838.139 1056.33C838.139 1056.33 838.139 1056.41 838.139 1056.45C838.425 1057.45 838.616 1058.46 838.78 1059.49Z" fill="#8E8200"/>
<path d="M871.85 1025.63C871.021 1029 869.539 1032.17 867.488 1034.97C865.503 1037.81 862.845 1040.12 859.745 1041.71C856.805 1043.22 853.51 1043.92 850.203 1043.75C846.986 1043.51 843.911 1042.34 841.37 1040.38C840.038 1039.37 838.909 1038.12 838.043 1036.7C836.69 1034.49 835.929 1031.97 835.835 1029.39C835.747 1026.72 836.293 1024.06 837.43 1021.63C838.18 1020.05 839.158 1018.59 840.334 1017.29C841.506 1016 842.924 1014.96 844.505 1014.21C845.991 1013.48 847.618 1013.08 849.276 1013.03C850.885 1012.99 852.483 1013.31 853.951 1013.96C855.412 1014.65 856.684 1015.67 857.659 1016.94C858.654 1018.31 859.257 1019.91 859.404 1021.59C859.549 1023.28 859.278 1024.98 858.613 1026.55C857.949 1028.11 856.91 1029.5 855.587 1030.58C854.319 1031.55 852.773 1032.1 851.171 1032.14C849.675 1032.17 848.219 1031.66 847.081 1030.7C846.5 1030.22 846.034 1029.63 845.718 1028.95C845.399 1028.25 845.227 1027.49 845.214 1026.73C845.202 1025.97 845.336 1025.23 845.609 1024.53C845.885 1023.83 846.287 1023.18 846.795 1022.62C846.391 1023.21 846.091 1023.86 845.909 1024.56C845.744 1025.23 845.707 1025.94 845.8 1026.63C845.883 1027.26 846.101 1027.87 846.44 1028.41C846.77 1028.97 847.24 1029.43 847.804 1029.76C848.816 1030.41 850.03 1030.67 851.225 1030.51C852.424 1030.32 853.536 1029.78 854.415 1028.95C855.269 1028.07 855.912 1027.02 856.296 1025.86C856.677 1024.71 856.771 1023.49 856.569 1022.29C856.37 1021.21 855.869 1020.21 855.124 1019.39C854.37 1018.62 853.434 1018.03 852.397 1017.7C851.384 1017.34 850.302 1017.22 849.235 1017.35C848.13 1017.46 847.062 1017.81 846.1 1018.36C845.135 1018.93 844.282 1019.67 843.578 1020.54C842.864 1021.47 842.277 1022.49 841.833 1023.57C841.032 1025.7 840.895 1028.01 841.438 1030.22C841.723 1031.23 842.184 1032.18 842.801 1033.03C843.395 1033.88 844.144 1034.6 845.009 1035.17C846.765 1036.39 848.85 1037.06 850.993 1037.09C853.195 1037.12 855.364 1036.56 857.278 1035.48C857.749 1035.21 858.204 1034.92 858.641 1034.6C859.077 1034.24 859.5 1033.89 859.922 1033.5L860.536 1032.91C860.726 1032.71 860.904 1032.48 861.081 1032.28C861.471 1031.83 861.826 1031.36 862.144 1030.86C863.513 1028.9 864.481 1026.69 864.993 1024.35C865.494 1022.1 865.527 1019.76 865.088 1017.49C864.67 1015.31 863.777 1013.25 862.471 1011.44L861.435 1010.2C861.026 1009.84 860.658 1009.46 860.249 1009.1L858.886 1008.09C858.436 1007.75 857.932 1007.51 857.523 1007.21C855.559 1006.15 853.416 1005.44 851.198 1005.14C846.531 1004.56 841.805 1005.6 837.825 1008.07C837.321 1008.41 836.789 1008.69 836.312 1009.06L834.867 1010.18L833.504 1011.42C833.068 1011.83 832.673 1012.33 832.25 1012.76C831.825 1013.23 831.434 1013.72 831.078 1014.23C830.696 1014.76 830.273 1015.26 829.933 1015.8C829.224 1016.87 828.578 1017.98 827.997 1019.12C827.442 1020.22 826.95 1021.35 826.525 1022.51C825.229 1026 824.583 1029.69 824.616 1033.41C823.208 1029.28 821.565 1025.23 819.695 1021.28C820.269 1019.48 820.966 1017.73 821.781 1016.03C821.945 1015.68 822.122 1015.32 822.299 1014.97C822.858 1013.86 823.477 1012.78 824.153 1011.74C824.575 1011.05 825.08 1010.39 825.516 1009.75C825.97 1009.06 826.476 1008.41 827.029 1007.81C827.574 1007.19 828.092 1006.46 828.679 1005.95L830.478 1004.23L832.414 1002.7C833.054 1002.2 833.777 1001.78 834.445 1001.35C839.839 997.96 846.258 996.531 852.602 997.308C855.657 997.734 858.603 998.726 861.285 1000.23C861.953 1000.62 862.648 1001 863.262 1001.44L865.088 1002.86C865.688 1003.37 866.261 1003.96 866.833 1004.53C867.384 1005.12 867.899 1005.75 868.374 1006.4C870.298 1009.13 871.592 1012.24 872.163 1015.51C872.744 1018.87 872.637 1022.31 871.85 1025.63V1025.63Z" fill="#8E8200"/>
<path d="M644.282 1610.69C649.824 1613.03 654.433 1617.1 657.395 1622.29C658.876 1624.92 659.933 1627.75 660.53 1630.7C661.105 1633.61 661.128 1636.61 660.599 1639.53C660.111 1642.44 659.055 1645.22 657.491 1647.73C655.837 1650.29 653.589 1652.43 650.934 1653.96C648.172 1655.53 645.097 1656.49 641.923 1656.76C638.617 1657.04 635.288 1656.66 632.136 1655.63C630.515 1655.11 628.953 1654.43 627.474 1653.6C625.137 1652.33 623.046 1650.66 621.299 1648.68C619.57 1646.69 618.229 1644.41 617.346 1641.94C616.468 1639.61 616.074 1637.14 616.187 1634.66C616.288 1632.27 616.911 1629.93 618.013 1627.8C618.721 1626.38 619.687 1625.1 620.862 1624.02C623.272 1621.82 626.394 1620.54 629.669 1620.42C633.002 1620.3 636.293 1621.18 639.102 1622.96C640.495 1623.84 641.714 1624.96 642.7 1626.27C643.661 1627.55 644.361 1629 644.759 1630.55C645.125 1631.92 645.181 1633.36 644.922 1634.76C644.675 1636.11 644.095 1637.38 643.232 1638.46C643.638 1637.25 643.796 1635.97 643.695 1634.7C643.594 1633.43 643.238 1632.2 642.646 1631.06C642.113 1629.99 641.388 1629.01 640.506 1628.19C639.612 1627.37 638.578 1626.71 637.452 1626.24C635.425 1625.33 633.166 1625.06 630.977 1625.46C628.906 1625.83 627.026 1626.89 625.647 1628.46C625.038 1629.21 624.576 1630.07 624.284 1630.98C623.886 1631.93 623.638 1632.93 623.548 1633.95C623.357 1636.01 623.69 1638.09 624.516 1640C625.327 1641.97 626.603 1643.71 628.237 1645.09C629.07 1645.8 629.985 1646.41 630.963 1646.91C631.952 1647.46 632.993 1647.91 634.072 1648.26C636.187 1648.95 638.417 1649.24 640.642 1649.11C642.781 1648.98 644.871 1648.42 646.776 1647.45C648.672 1646.5 650.33 1645.15 651.629 1643.49C652.964 1641.7 653.97 1639.7 654.601 1637.57C657.245 1628.99 653.51 1617.82 644.282 1610.69Z" fill="#C9CA59"/>
<path d="M706.199 1943.8C705.807 1944.85 705.352 1945.87 704.836 1946.87L703.473 1949.89C702.409 1951.84 701.224 1953.7 700.106 1955.58C703.814 1947.57 705.801 1938.89 705.94 1930.09C706.108 1921.3 704.505 1912.57 701.224 1904.39C700.35 1902.17 699.344 1900 698.211 1897.9C698.375 1893.64 698.515 1889.34 698.634 1885C702.282 1890.48 705.123 1896.45 707.071 1902.72C711.314 1916.14 711.008 1930.57 706.199 1943.8Z" fill="#FB6198"/>
<path d="M698.619 1886.97C698.537 1890.04 698.442 1893.07 698.319 1896.09C696.206 1892.12 693.504 1888.49 690.304 1885.31L688.627 1883.71C688.082 1883.18 687.441 1882.74 686.855 1882.24L685.083 1880.8L683.174 1879.53C680.708 1877.88 678.037 1876.55 675.227 1875.57C672.484 1874.66 669.635 1874.1 666.748 1873.91C663.923 1873.8 661.095 1874.06 658.338 1874.68C652.94 1875.95 648.039 1878.76 644.243 1882.77C643.296 1883.75 642.417 1884.79 641.612 1885.89C641.216 1886.43 640.876 1887.04 640.508 1887.62C640.124 1888.17 639.787 1888.75 639.499 1889.36C639.24 1889.95 638.885 1890.51 638.654 1891.15L637.972 1893.01L637.468 1894.95C637.291 1895.59 637.263 1896.3 637.127 1896.92C636.412 1902.38 637.497 1907.92 640.221 1912.72C641.58 1915.13 643.314 1917.32 645.36 1919.19C645.865 1919.61 646.369 1920.09 646.914 1920.54L648.618 1921.74C649.191 1922.1 649.763 1922.4 650.336 1922.73L652.122 1923.54C654.539 1924.47 657.127 1924.87 659.714 1924.73C662.253 1924.59 664.724 1923.88 666.937 1922.64C669.15 1921.4 671.045 1919.68 672.474 1917.6C672.845 1917.09 673.174 1916.56 673.455 1916C673.591 1915.74 673.755 1915.48 673.891 1915.2L674.232 1914.34C674.451 1913.77 674.633 1913.18 674.777 1912.59C674.915 1911.98 675.01 1911.37 675.064 1910.75C675.296 1908.2 674.874 1905.63 673.837 1903.28C672.792 1900.86 671.146 1898.75 669.052 1897.13C668.061 1896.34 666.947 1895.71 665.753 1895.27C664.604 1894.85 663.393 1894.63 662.168 1894.6C659.689 1894.58 657.281 1895.42 655.352 1896.96C654.392 1897.76 653.576 1898.71 652.94 1899.79C652.321 1900.84 651.94 1902.01 651.822 1903.22C651.674 1904.5 651.795 1905.79 652.176 1907.02C652.558 1908.27 653.183 1909.44 654.016 1910.46C654.845 1911.49 655.879 1912.35 657.056 1912.98C658.212 1913.59 659.519 1913.86 660.825 1913.76C662.13 1913.66 663.381 1913.2 664.431 1912.43C665.488 1911.66 666.314 1910.63 666.817 1909.43C667.293 1908.14 667.355 1906.73 666.994 1905.39C666.597 1903.98 665.763 1902.72 664.608 1901.79C664.044 1901.3 663.379 1900.93 662.659 1900.7C661.956 1900.48 661.212 1900.4 660.478 1900.49C659.72 1900.58 658.991 1900.83 658.338 1901.23C657.69 1901.62 657.136 1902.14 656.716 1902.76C657.056 1902.04 657.554 1901.39 658.174 1900.88C658.8 1900.37 659.53 1900 660.314 1899.8C661.164 1899.62 662.041 1899.62 662.891 1899.8C663.772 1899.96 664.611 1900.29 665.358 1900.78C666.907 1901.79 668.103 1903.24 668.779 1904.95C669.464 1906.66 669.602 1908.54 669.175 1910.34C668.675 1912.08 667.687 1913.66 666.326 1914.88C664.958 1916.09 663.27 1916.89 661.459 1917.18C659.535 1917.51 657.558 1917.3 655.748 1916.58C653.905 1915.84 652.246 1914.72 650.881 1913.29C649.518 1911.85 648.445 1910.17 647.719 1908.33C647.022 1906.52 646.689 1904.59 646.737 1902.66C646.8 1900.73 647.264 1898.84 648.1 1897.1C648.913 1895.43 650.01 1893.91 651.345 1892.6C653.401 1890.6 655.984 1889.2 658.801 1888.56C661.696 1887.93 664.708 1888.05 667.539 1888.92C669.499 1889.51 671.344 1890.42 672.992 1891.62C676.252 1893.87 678.878 1896.91 680.621 1900.45C682.365 1903.99 683.168 1907.9 682.956 1911.83C682.756 1915.62 681.538 1919.29 679.426 1922.45C677.425 1925.52 674.745 1928.1 671.588 1930C668.338 1931.9 664.691 1933.03 660.928 1933.31C657.063 1933.59 653.184 1933.04 649.559 1931.68C648.625 1931.35 647.714 1930.95 646.833 1930.5C645.974 1930.03 645.088 1929.57 644.27 1929.04L641.925 1927.4C641.162 1926.82 640.453 1926.17 639.731 1925.55C636.898 1922.98 634.496 1919.98 632.615 1916.67C628.935 1910.14 627.5 1902.6 628.525 1895.19C628.703 1894.3 628.798 1893.4 629.057 1892.49L629.766 1889.89L630.734 1887.39C631.075 1886.57 631.538 1885.8 631.933 1885C632.332 1884.22 632.787 1883.47 633.296 1882.75C633.774 1882.04 634.223 1881.3 634.741 1880.61C640.038 1873.65 647.737 1868.85 656.375 1867.13C659.862 1866.5 663.419 1866.32 666.953 1866.61C670.523 1867.01 674.025 1867.88 677.367 1869.18C680.722 1870.51 683.874 1872.29 686.732 1874.48L688.859 1876.07L690.835 1877.83C691.476 1878.44 692.199 1878.99 692.757 1879.65L694.516 1881.62C696.003 1883.31 697.373 1885.1 698.619 1886.97Z" fill="#B3A500"/>
<path d="M64.8984 958.794C117.912 945.399 120.788 990.475 120.979 994.801C120.988 994.913 120.988 995.026 120.979 995.138C73.8816 1011.57 65.1983 960.707 64.8984 958.794Z" fill="#AA9F1E"/>
<path d="M64.8984 958.794L120.938 995.071C120.638 995.071 120.938 995.071 120.938 995.071C73.8816 1011.57 65.1983 960.708 64.8984 958.794Z" fill="#CCBE16"/>
<path d="M478.948 968.671C524.177 999.1 491.911 1031.08 488.735 1034.06L488.49 1034.29C444.855 1010.26 477.693 970.167 478.948 968.671Z" fill="#AA9F1E"/>
<path d="M478.948 968.671L488.49 1034.22C488.285 1033.99 488.49 1034.22 488.49 1034.22C444.855 1010.26 477.693 970.167 478.948 968.671Z" fill="#CCBE16"/>
<path d="M972.219 1614.65C977.154 1668.55 931.679 1664.17 927.33 1663.65H926.99C918.088 1615.03 970.27 1614.65 972.219 1614.65Z" fill="#AA9F1E"/>
<path d="M972.218 1614.65L927.07 1663.57C927.07 1663.27 927.07 1663.57 927.07 1663.57C918.087 1615.03 970.268 1614.65 972.218 1614.65Z" fill="#CCBE16"/>
<path d="M572.159 2144.74C623.427 2163.6 599.818 2202.29 597.459 2205.93L597.268 2206.21C549.108 2193.16 571.314 2146.47 572.159 2144.74Z" fill="#AA9F1E"/>
<path d="M572.161 2144.74L597.284 2206.12C597.039 2205.96 597.284 2206.12 597.284 2206.12C549.11 2193.16 571.316 2146.47 572.161 2144.74Z" fill="#CCBE16"/>
<path d="M594.352 2208.77C568.452 2225.91 555.243 2196.44 554.82 2195.3C584.81 2179.13 593.589 2205.97 594.352 2208.56" fill="#AA9F1E"/>
<path d="M594.352 2208.77C568.452 2225.92 555.243 2196.44 554.82 2195.3L594.352 2208.77Z" fill="#CCBE16"/>
<path d="M573.289 1643.37C593.382 1611.85 616.447 1633.03 618.587 1635.12L618.764 1635.28C603.074 1665.56 574.366 1644.19 573.289 1643.37Z" fill="#AA9F1E"/>
<path d="M573.289 1643.37L618.71 1635.28C618.546 1635.43 618.71 1635.28 618.71 1635.28C603.074 1665.56 574.366 1644.19 573.289 1643.37Z" fill="#CCBE16"/>
<path d="M600.102 2202.71C580.432 2183.65 603.81 2167.08 604.696 2166.46C624.244 2189.17 602.378 2201.5 600.252 2202.63" fill="#AA9F1E"/>
<path d="M600.102 2202.71C580.432 2183.65 603.81 2167.08 604.696 2166.46L600.102 2202.68" fill="#CCBE16"/>
<path d="M638.081 1879.57C641.296 1878.25 643.864 1875.74 645.237 1872.58C645.958 1870.91 646.391 1869.14 646.519 1867.34C646.64 1865.45 646.418 1863.55 645.864 1861.74C645.323 1859.86 644.461 1858.07 643.315 1856.47C642.112 1854.81 640.579 1853.41 638.809 1852.35C637.04 1851.29 635.071 1850.6 633.023 1850.32C631.032 1850.05 629.005 1850.2 627.08 1850.77C626.124 1851.04 625.208 1851.43 624.354 1851.93C623.017 1852.66 621.855 1853.67 620.946 1854.88C620.019 1856.11 619.364 1857.51 619.024 1859.01C618.664 1860.51 618.618 1862.07 618.887 1863.59C619.154 1865.14 619.719 1866.63 620.55 1867.97C621.101 1868.89 621.79 1869.73 622.595 1870.45C624.172 1871.88 626.177 1872.76 628.307 1872.97C630.275 1873.17 632.252 1872.69 633.909 1871.62C634.7 1871.11 635.366 1870.43 635.859 1869.63C636.365 1868.81 636.686 1867.89 636.799 1866.93C636.924 1866.03 636.845 1865.11 636.568 1864.24C636.282 1863.35 635.819 1862.54 635.204 1861.84C635.885 1863.31 635.963 1864.99 635.422 1866.51C635.189 1867.17 634.812 1867.78 634.318 1868.28C633.837 1868.78 633.251 1869.17 632.601 1869.42C631.362 1869.95 629.984 1870.06 628.675 1869.75C627.322 1869.43 626.096 1868.71 625.158 1867.7C624.754 1867.21 624.424 1866.67 624.176 1866.1C623.863 1865.5 623.634 1864.86 623.495 1864.2C623.208 1862.93 623.25 1861.62 623.618 1860.38C623.954 1859.19 624.608 1858.11 625.512 1857.26C625.959 1856.83 626.464 1856.47 627.012 1856.19C627.582 1855.87 628.191 1855.61 628.825 1855.44C630.112 1855.04 631.467 1854.92 632.805 1855.07C634.175 1855.23 635.503 1855.64 636.717 1856.29C637.974 1856.97 639.088 1857.89 640.003 1858.98C640.955 1860.14 641.731 1861.43 642.306 1862.81C643.484 1865.69 643.709 1868.86 642.95 1871.87C642.191 1874.88 640.486 1877.58 638.081 1879.57V1879.57Z" fill="#B3A500"/>
<path d="M667.251 699.532C717.511 720.904 691.992 758.367 689.443 761.898L689.252 762.167C641.801 746.751 666.324 701.23 667.251 699.532Z" fill="#AA9F1E"/>
<path d="M667.249 699.532L689.264 762.073C689.019 761.885 689.264 762.073 689.264 762.073C641.799 746.751 666.322 701.23 667.249 699.532Z" fill="#CCBE16"/>
<path d="M702.189 713.749C724 744.743 694.869 757.707 692.034 758.866L691.816 758.946C669.433 732.48 701.003 714.422 702.189 713.749Z" fill="#AA9F1E"/>
<path d="M702.191 713.749L691.872 758.906C691.79 758.717 691.872 758.906 691.872 758.906C669.434 732.48 701.005 714.422 702.191 713.749Z" fill="#CCBE16"/>
<path d="M146.322 1160.88C140.474 1129.24 167.642 1129.38 170.246 1129.48H170.437C178.425 1157.78 147.481 1160.77 146.322 1160.88Z" fill="#AA9F1E"/>
<path d="M146.324 1160.88L170.398 1129.51C170.398 1129.68 170.398 1129.51 170.398 1129.51C178.427 1157.78 147.483 1160.77 146.324 1160.88Z" fill="#CCBE16"/>
<path d="M687.728 0.0405273C732.957 30.4825 700.691 62.4607 697.515 65.4388L697.256 65.668C653.635 41.6136 686.474 1.53635 687.728 0.0405273Z" fill="#AA9F1E"/>
<path d="M687.729 0.0405273L697.271 65.5871C697.066 65.358 697.271 65.5871 697.271 65.5871C653.636 41.6135 686.475 1.53635 687.729 0.0405273Z" fill="#CCBE16"/>
</g>
<defs>
<clipPath id="clip0_332_491">
<rect width="1008.56" height="2769.49" fill="white"/>
</clipPath>
</defs>
</svg>
