<svg width="740" height="2056" viewBox="0 0 740 2056" fill="none" xmlns="http://www.w3.org/2000/svg">
<g clip-path="url(#clip0_136_429)">
<path d="M739.891 1958.33C739.891 1959 739.891 1959.68 739.891 1960.33C739.891 1963.66 739.751 1967.04 739.601 1970.44C739.551 1971.71 739.481 1972.98 739.411 1974.26C739.364 1975.26 739.304 1976.26 739.231 1977.26C739.161 1978.38 739.081 1979.5 739.001 1980.62C738.941 1981.42 738.881 1982.21 738.811 1983.01C738.671 1984.75 738.521 1986.49 738.341 1988.24C738.268 1989.04 738.188 1989.84 738.101 1990.64C737.971 1991.91 737.831 1993.18 737.681 1994.46C737.568 1995.43 737.448 1996.41 737.321 1997.4C737.041 1999.72 736.721 2002.04 736.381 2004.4L736.021 2006.79C735.861 2007.79 735.701 2008.87 735.531 2009.9C735.361 2010.93 735.201 2011.9 735.021 2012.9C734.911 2013.55 734.791 2014.21 734.671 2014.9C734.491 2015.9 734.301 2016.96 734.111 2017.99C734.111 2017.99 734.111 2018.06 734.111 2018.1C734.116 2018.14 734.116 2018.18 734.111 2018.22C733.111 2023.48 731.968 2028.81 730.681 2034.22C730.521 2034.89 730.361 2035.56 730.191 2036.22C729.904 2037.41 729.604 2038.6 729.291 2039.79C728.151 2044.2 726.908 2048.64 725.561 2053.12H345.891C345.891 2053.12 340.791 2029.9 338.721 1995.5C338.411 1990.23 338.161 1984.69 338.021 1978.94C337.928 1975.37 337.878 1971.72 337.871 1968C337.871 1962.71 337.951 1957.27 338.151 1951.72C339.791 1905.42 349.151 1850.84 377.931 1805.05C413.031 1749.12 464.151 1682.97 492.331 1563.88C502.731 1519.97 510.011 1468.88 512.211 1408.39C513.043 1409.95 513.781 1411.56 514.421 1413.21C516.829 1419.27 518.005 1425.76 517.881 1432.28C517.779 1438.81 516.322 1445.25 513.601 1451.19C514.421 1449.8 515.291 1448.42 516.071 1446.97L517.071 1444.73C517.45 1443.99 517.783 1443.23 518.071 1442.45C521.596 1432.63 521.817 1421.93 518.701 1411.97C517.272 1407.32 515.188 1402.89 512.511 1398.82C514.511 1325.82 509.191 1239.49 493.301 1136.22C427.061 705.73 510.571 754.88 555.301 513.6C605.151 244.44 442.061 254.17 474.111 85.6C474.111 85.6 482.501 57.47 501.821 48.02L502.601 47.65C512.661 43.07 525.601 43.56 541.791 55.47C542.718 56.1367 543.658 56.8567 544.611 57.63C594.821 97.76 547.231 71 531.611 68.3C530.901 68.1787 530.18 68.1418 529.461 68.1901C529.248 68.1901 529.038 68.2101 528.831 68.2501L528.201 68.35L527.571 68.49L527.171 68.6L526.771 68.73C524.911 69.3857 523.19 70.3865 521.701 71.68C518.982 74.0773 516.692 76.9216 514.931 80.09C514.691 80.49 514.471 80.9001 514.241 81.3101C514.011 81.7201 513.791 82.15 513.581 82.58L513.131 83.49C512.711 84.38 512.311 85.29 511.931 86.23V86.29C507.281 97.82 506.051 112.64 512.041 123.89C512.441 124.65 512.881 125.4 513.361 126.13C527.601 148.02 533.301 160.99 563.921 190.99C594.541 220.99 618.051 254.99 625.171 278.54L625.471 279.54C625.621 280.03 625.781 280.54 625.931 281.03C627.931 287.23 630.321 294.18 632.751 302.46L633.141 303.81C634.071 306.99 634.981 310.37 635.871 313.98C636.121 314.98 636.371 316.06 636.621 317.12C636.741 317.66 636.871 318.2 636.991 318.74C637.111 319.27 637.231 319.8 637.341 320.34C637.451 320.88 637.581 321.42 637.691 321.96C638.111 323.96 638.518 326.003 638.911 328.09C638.991 328.49 639.061 328.89 639.131 329.3C639.311 330.3 639.491 331.3 639.661 332.3C639.831 333.3 639.961 334.08 640.101 334.98L640.461 337.32C640.631 338.53 640.811 339.76 640.981 341.01C641.111 341.93 641.231 342.87 641.351 343.82C641.471 344.77 641.591 345.82 641.701 346.82C641.811 347.82 641.911 348.7 642.011 349.65C642.111 350.6 642.191 351.35 642.271 352.22C642.431 353.88 642.581 355.58 642.711 357.3C642.781 358.16 642.851 359.02 642.911 359.9C643.211 364.093 643.441 368.487 643.601 373.08C643.601 373.98 643.661 374.88 643.681 375.79C643.981 387.3 643.801 400.09 642.961 414.35C638.341 492.98 632.281 528.25 596.671 653.1C561.061 777.95 549.671 928.74 596.671 1061.69C599.031 1068.36 601.301 1074.81 603.481 1081.04C603.481 1081.04 603.481 1081.12 603.481 1081.17C604.021 1082.74 604.571 1084.3 605.111 1085.84L605.931 1088.21C606.041 1088.51 606.141 1088.81 606.241 1089.11C606.521 1089.9 606.791 1090.69 607.061 1091.47C608.421 1095.39 609.741 1099.21 611.061 1102.96C611.441 1104.06 611.811 1105.15 612.181 1106.24C613.181 1109.24 614.181 1112.15 615.181 1115.02C615.421 1115.73 615.651 1116.43 615.891 1117.13C616.964 1120.31 618.008 1123.43 619.021 1126.5L621.021 1132.5C622.821 1138.03 624.524 1143.39 626.131 1148.56C626.127 1148.6 626.127 1148.64 626.131 1148.68C628.561 1156.5 630.761 1163.95 632.771 1171.12C633.091 1172.26 633.401 1173.39 633.711 1174.51C634.091 1175.91 634.471 1177.3 634.841 1178.68L635.381 1180.68L635.501 1181.16C635.501 1181.33 635.581 1181.49 635.631 1181.65C635.643 1181.71 635.66 1181.78 635.681 1181.84C635.911 1182.72 636.131 1183.59 636.351 1184.45C636.491 1184.99 636.631 1185.53 636.761 1186.07C637.174 1187.7 637.574 1189.32 637.961 1190.91C638.221 1191.98 638.471 1193.04 638.721 1194.1C639.194 1196.1 639.644 1198.07 640.071 1200.01C640.391 1201.43 640.701 1202.85 640.991 1204.25C641.161 1205.04 641.321 1205.82 641.481 1206.6C641.971 1208.97 642.481 1211.32 642.871 1213.66C643.101 1214.86 643.321 1216.07 643.531 1217.26C643.741 1218.45 643.971 1219.74 644.171 1220.97C644.371 1222.2 644.551 1223.22 644.731 1224.35C644.941 1225.69 645.151 1227.03 645.341 1228.35C645.511 1229.49 645.671 1230.63 645.831 1231.77C645.831 1232.1 645.921 1232.42 645.961 1232.77C646.111 1233.83 646.241 1234.89 646.381 1235.95L646.771 1239.15L646.861 1239.92C647.121 1242.22 647.371 1244.51 647.591 1246.82C647.958 1250.58 648.271 1254.38 648.531 1258.21C648.611 1259.42 648.691 1260.64 648.761 1261.87C648.831 1263.1 648.911 1264.42 648.971 1265.7C649.031 1266.98 649.091 1268.27 649.151 1269.57C649.211 1270.87 649.251 1272.17 649.291 1273.48C649.331 1274.79 649.371 1275.94 649.401 1277.18C649.401 1277.34 649.401 1277.49 649.401 1277.65C649.401 1279.05 649.461 1280.46 649.481 1281.88C649.501 1283.3 649.481 1284.73 649.531 1286.17C649.581 1287.61 649.531 1289.01 649.531 1290.45C649.531 1303.92 649.071 1318.36 648.231 1334.39C648.044 1337.96 647.814 1341.6 647.541 1345.33C644.541 1387.86 637.051 1439.73 636.541 1500.61C636.501 1505.69 636.501 1510.82 636.541 1516.01C636.541 1518.36 636.581 1520.72 636.661 1523.1C636.721 1525.7 636.791 1528.31 636.871 1530.93C636.871 1531.79 636.871 1532.64 636.951 1533.5C637.001 1534.67 637.041 1535.83 637.091 1537C637.091 1538 637.171 1539 637.221 1540C637.281 1541.34 637.341 1542.68 637.411 1544C637.551 1546.73 637.701 1549.47 637.881 1552.24V1552.32L638.151 1556.49C638.251 1557.91 638.361 1559.34 638.471 1560.77C638.581 1562.2 638.681 1563.5 638.791 1564.87L638.891 1566.77C638.971 1567.67 639.051 1568.57 639.121 1569.47C639.251 1570.92 639.381 1572.37 639.521 1573.82C639.641 1575.11 639.771 1576.41 639.901 1577.71C639.901 1577.87 639.901 1578.03 639.951 1578.19C640.101 1579.65 640.251 1581.11 640.411 1582.58C640.704 1585.25 641.014 1587.95 641.341 1590.69L641.491 1591.93C641.651 1593.25 641.821 1594.59 642.001 1595.93C642.181 1597.27 642.331 1598.53 642.511 1599.83C642.951 1603.03 643.411 1606.25 643.891 1609.49C644.351 1612.49 644.831 1615.58 645.341 1618.65C645.821 1621.57 646.341 1624.52 646.861 1627.48C646.861 1627.62 646.861 1627.77 646.941 1627.91C647.211 1629.46 647.501 1631.02 647.801 1632.58C648.411 1635.81 649.041 1639.07 649.701 1642.34L650.451 1645.95L650.931 1648.21C651.491 1650.88 652.071 1653.54 652.671 1656.21L653.421 1659.42C653.641 1660.42 653.861 1661.42 654.101 1662.34C654.381 1663.55 654.671 1664.76 654.971 1665.97C655.358 1667.59 655.758 1669.21 656.171 1670.83C656.541 1672.34 656.931 1673.83 657.321 1675.37C657.821 1677.3 658.331 1679.24 658.851 1681.17C659.241 1682.63 659.631 1684.09 660.041 1685.56C660.391 1686.84 660.751 1688.13 661.121 1689.42C662.148 1693.09 663.221 1696.79 664.341 1700.5C664.754 1701.88 665.174 1703.26 665.601 1704.64C666.268 1706.91 666.981 1709.19 667.741 1711.48C668.181 1712.87 668.631 1714.26 669.091 1715.66C669.638 1717.36 670.198 1719.06 670.771 1720.76C670.991 1721.43 671.221 1722.1 671.451 1722.76L671.571 1723.12L671.631 1723.3L671.931 1724.17C672.401 1725.55 672.871 1726.93 673.361 1728.32C673.851 1729.71 674.261 1730.92 674.731 1732.23C677.751 1740.78 681.004 1749.42 684.491 1758.17C685.051 1759.59 685.621 1761 686.201 1762.43C686.781 1763.86 687.351 1765.27 687.951 1766.7C690.291 1772.37 692.734 1778.08 695.281 1783.85C697.381 1788.58 699.544 1793.34 701.771 1798.12C701.841 1798.27 701.901 1798.42 701.981 1798.57C702.061 1798.72 702.091 1798.82 702.151 1798.94C703.151 1801.16 704.251 1803.4 705.321 1805.64C706.201 1807.47 707.091 1809.31 707.991 1811.15C707.991 1811.24 708.081 1811.33 708.131 1811.42L708.191 1811.54L708.411 1811.96L708.561 1812.27L708.731 1812.6L709.331 1813.81C709.431 1814.03 709.551 1814.26 709.671 1814.51C710.211 1815.63 710.861 1817.02 711.601 1818.66L711.871 1819.24C712.381 1820.37 712.931 1821.63 713.511 1822.99L714.091 1824.36C714.201 1824.61 714.301 1824.86 714.411 1825.12L714.911 1826.32C715.261 1827.18 715.631 1828.09 716.001 1829.02C716.668 1830.67 717.334 1832.43 718.001 1834.29C718.351 1835.22 718.711 1836.17 719.061 1837.16C719.411 1838.15 719.781 1839.16 720.151 1840.16C720.631 1841.53 721.151 1842.95 721.621 1844.41C721.741 1844.78 721.861 1845.15 721.991 1845.52L722.791 1847.95C723.021 1848.66 723.251 1849.37 723.481 1850.1C723.601 1850.48 723.731 1850.88 723.851 1851.28C724.071 1851.95 724.291 1852.66 724.511 1853.41C724.601 1853.69 724.681 1853.98 724.771 1854.27C725.438 1856.44 726.104 1858.68 726.771 1861C726.771 1861.1 726.771 1861.2 726.851 1861.3C727.311 1862.94 727.768 1864.61 728.221 1866.3L728.311 1866.65C728.531 1867.49 728.751 1868.35 728.981 1869.21C729.041 1869.46 729.101 1869.72 729.171 1869.98C729.361 1870.73 729.541 1871.49 729.731 1872.25C731.861 1880.97 733.841 1890.47 735.461 1900.67C735.611 1901.62 735.761 1902.58 735.901 1903.54C736.071 1904.67 736.241 1905.8 736.401 1906.95C736.531 1907.86 736.661 1908.78 736.781 1909.71L736.871 1910.41C737.001 1911.41 737.121 1912.31 737.231 1913.27C737.371 1914.41 737.511 1915.56 737.631 1916.71C737.721 1917.5 737.811 1918.29 737.891 1919.09C738.151 1921.47 738.381 1923.89 738.581 1926.33V1926.39C738.671 1927.46 738.761 1928.53 738.841 1929.61C738.841 1929.86 738.841 1930.11 738.841 1930.36C738.921 1931.36 738.991 1932.36 739.051 1933.43C739.131 1934.61 739.201 1935.81 739.261 1937C739.351 1938.48 739.421 1940 739.471 1941.49C739.471 1942.39 739.541 1943.3 739.581 1944.22C739.788 1948.86 739.891 1953.56 739.891 1958.33Z" fill="#91AD2D"/>
<path d="M729.19 2039.77H361.19C361.19 2039.77 356.09 2016.55 354.03 1982.14C353.52 1973.61 353.19 1964.38 353.18 1954.65C353.11 1905.3 361.06 1842.98 393.24 1791.65C457.33 1689.51 574.84 1553.31 508.61 1122.82C442.38 692.33 525.88 741.49 570.61 500.2C620.46 231.05 457.37 240.78 489.42 72.2C492.239 63.5162 496.418 55.3345 501.8 47.96L502.58 47.59C512.64 43.01 525.58 43.5 541.77 55.41C542.697 56.0766 543.637 56.7966 544.59 57.57C594.8 97.7 547.21 70.94 531.59 68.24C530.88 68.1187 530.159 68.0817 529.44 68.13C526.548 68.4368 523.829 69.6596 521.68 71.62C517.84 74.85 514.39 80.04 511.91 86.17V86.23C507.11 97.45 505.83 112.31 512.02 123.83C512.42 124.59 512.86 125.34 513.34 126.07C527.58 147.96 533.28 160.93 563.9 190.93C594.52 220.93 618.03 254.93 625.15 278.48C628.3 288.88 633.05 301.27 636.97 318.66C641.91 340.57 645.52 370.43 642.97 414.27C638.35 492.9 632.29 528.17 596.68 653.02C561.07 777.87 549.68 928.66 596.68 1061.61C643.68 1194.56 653.68 1232.27 648.32 1334.41C642.96 1436.55 603.45 1597.08 708.14 1811.11C708.01 1811.11 762.25 1911.68 729.19 2039.77Z" fill="#91AD2D"/>
<path opacity="0.17" d="M337.891 1967.98C337.891 1971.7 337.941 1975.35 338.041 1978.92C338.041 1978.92 336.411 1976.61 333.871 1972.27C334.853 1965.33 336.289 1958.46 338.171 1951.71C337.891 1957.25 337.891 1962.69 337.891 1967.98Z" fill="white"/>
<path opacity="0.17" d="M734.051 2017.99C734.051 2017.99 734.051 2018.06 734.051 2018.1C734.056 2018.14 734.056 2018.18 734.051 2018.22C733.003 2025.52 731.392 2032.72 729.231 2039.77L725.501 2053.1H345.891C345.891 2053.1 340.791 2029.88 338.721 1995.48C338.411 1990.21 338.161 1984.67 338.021 1978.92C337.928 1975.35 337.878 1971.7 337.871 1967.98C337.871 1962.69 337.951 1957.25 338.151 1951.7C338.778 1949.43 339.468 1947.14 340.221 1944.83C343.336 1935.27 347.222 1925.99 351.841 1917.06C352.971 1914.85 354.171 1912.61 355.431 1910.37C374.991 1875.46 409.351 1837.14 467.021 1797.99C506.231 1771.37 546.931 1708.99 578.501 1625.99C588.645 1599.18 597.384 1571.86 604.681 1544.14V1544.14C619.459 1488.02 628.974 1430.65 633.101 1372.77C639.881 1277.98 632.391 1177.29 603.371 1081.02C603.371 1081.02 603.371 1081.1 603.371 1081.15C604.651 1084.32 615.191 1110.83 625.951 1148.58C625.947 1148.62 625.947 1148.66 625.951 1148.7C635.951 1183.82 646.091 1228.7 649.121 1273.52C649.121 1273.52 649.121 1273.61 649.121 1273.65C650.651 1293.9 650.317 1314.24 648.121 1334.43C647.628 1338.6 647.138 1342.8 646.651 1347.03C641.241 1393.67 636.221 1443.88 636.011 1496.9C636.011 1498.37 636.011 1499.84 636.011 1501.31C636.011 1519.47 636.631 1537.95 638.011 1556.72C638.131 1558.42 638.261 1560.12 638.391 1561.83C640.554 1589.9 644.488 1617.81 650.171 1645.39C655.444 1670.91 662.324 1696.08 670.771 1720.73C670.991 1721.4 671.221 1722.07 671.451 1722.73L671.571 1723.09L671.631 1723.27V1723.39C672.921 1726.96 679.271 1744.5 687.631 1765.05C687.731 1765.3 687.831 1765.56 687.941 1765.82C688.181 1766.42 688.421 1767.03 688.671 1767.63C692.731 1777.63 697.211 1788.16 701.771 1798.09C701.841 1798.24 701.901 1798.39 701.981 1798.54C702.061 1798.69 702.091 1798.79 702.151 1798.91C704.091 1803.13 706.051 1807.23 707.991 1811.12C707.991 1811.21 708.081 1811.3 708.131 1811.39L708.191 1811.51C709.341 1813.84 710.481 1816.22 711.601 1818.63L711.871 1819.21C713.131 1821.93 714.364 1824.7 715.571 1827.52C729.441 1859.88 739.421 1897.57 738.571 1926.35V1926.41C738.691 1928.47 739.941 1980.23 734.051 2017.99Z" fill="#4E4700"/>
<path opacity="0.17" d="M596.551 1061.61C596.551 1061.61 514.951 946.44 546.551 775.77C578.151 605.1 630.891 578.91 638.271 325.34C638.271 325.34 664.331 453.99 596.551 653.02C596.551 653.02 525.211 869.23 596.551 1061.61Z" fill="#4E4700"/>
<path opacity="0.17" d="M729.189 2039.77L725.459 2053.1L674.939 2055.15C682.059 2015.03 688.549 1937.77 658.109 1851.33C615.229 1729.52 574.489 1605.54 636.109 1496.88C638.336 1492.94 640.706 1489.02 643.219 1485.12C642.989 1485.94 635.739 1512.18 638.439 1561.81C640.114 1589.93 644.053 1617.88 650.219 1645.37C657.789 1679.97 669.619 1719.94 687.679 1765.04C687.779 1765.29 687.879 1765.55 687.989 1765.81C688.099 1766.07 688.139 1766.2 688.219 1766.4C688.379 1766.81 688.549 1767.21 688.719 1767.62C698.659 1792.26 707.719 1811.62 715.649 1827.56C729.519 1859.92 739.499 1897.61 738.649 1926.39C738.639 1926.39 740.709 2004.21 729.189 2039.77Z" fill="#4E4700"/>
<path d="M638.129 1556.57C638.106 1556.61 638.076 1556.66 638.04 1556.69C629 1568.69 618.973 1580.93 607.96 1593.42C597.76 1604.94 587.936 1615.79 578.489 1625.98C452.999 1761.63 392.049 1789.98 356.439 1901.65C354.853 1906.61 353.316 1911.74 351.829 1917.05C347.679 1931.88 343.889 1948.12 340.389 1966.14C339.576 1970.3 338.783 1974.56 338.009 1978.91C338.009 1978.91 336.38 1976.6 333.84 1972.26C320.372 1948.72 311.434 1922.86 307.489 1896.03C300.369 1847.67 307.929 1783.14 365.109 1716.26C426.009 1645.02 467.039 1595.19 492.319 1563.86C499.189 1555.34 504.9 1548.2 509.53 1542.36C511.243 1540.2 512.81 1538.22 514.23 1536.41C521.86 1526.71 525.35 1522.09 525.35 1522.09C525.35 1522.09 593.289 1442.09 633.109 1372.74C638.169 1363.93 642.78 1355.29 646.73 1347.01C647 1346.45 647.259 1345.9 647.509 1345.35C654.289 1330.91 659.03 1317.61 660.66 1306.45C670.66 1238.35 647.009 1239.33 647.009 1239.33C647.009 1239.33 646.6 1236.87 645.9 1232.79C644.01 1221.93 639.959 1199.65 635.619 1181.88C635.598 1181.82 635.581 1181.75 635.569 1181.69C635.489 1181.36 635.409 1181.04 635.319 1180.69C634.319 1176.58 633.319 1172.75 632.249 1169.38C634.549 1177.53 648.009 1186.75 661.309 1204.02C667.909 1212.59 673.709 1220.18 676.309 1223.74C698.399 1253.77 770.199 1380.94 638.129 1556.57Z" fill="#779D15"/>
<path d="M616.742 801.86C616.742 801.2 616.742 800.54 616.692 799.86C616.642 799.18 616.692 798.56 616.602 797.86C616.512 797.16 616.532 796.57 616.482 795.94C616.432 795.31 616.392 794.67 616.332 794.04C616.222 792.78 616.092 791.55 615.932 790.33C615.862 789.75 615.782 789.17 615.702 788.6C615.707 788.574 615.707 788.546 615.702 788.52V788.52C615.582 787.72 615.462 786.94 615.332 786.17C615.202 785.4 615.072 784.66 614.932 783.93C614.932 783.93 614.932 783.87 614.932 783.84C614.782 783.03 614.612 782.23 614.442 781.44C614.302 780.82 614.162 780.19 614.012 779.58C613.862 778.97 613.702 778.3 613.542 777.68C613.442 777.3 613.342 776.92 613.232 776.55C613.122 776.18 612.992 775.65 612.852 775.2C612.712 774.75 612.582 774.27 612.442 773.81C612.252 773.18 612.052 772.57 611.852 771.96C611.252 770.13 610.602 768.35 609.922 766.64C609.702 766.08 609.472 765.52 609.242 764.97C608.882 764.11 608.512 763.26 608.132 762.43C607.982 762.09 607.822 761.75 607.662 761.43C607.232 760.5 606.782 759.59 606.332 758.7C605.332 756.7 604.332 754.89 603.232 753.13C602.902 752.57 602.562 752.03 602.232 751.49L601.292 750.04C600.732 749.18 600.162 748.34 599.592 747.53C599.372 747.21 599.142 746.9 598.922 746.59C597.732 744.94 596.532 743.4 595.342 741.96C595.012 741.56 594.692 741.17 594.342 740.79C593.008 739.23 591.712 737.8 590.452 736.5L589.612 735.65C588.102 734.13 586.682 732.82 585.412 731.71L584.892 731.26C583.082 729.7 581.582 728.57 580.572 727.83L580.022 727.44L579.202 726.89L579.092 726.82C575.292 745.76 574.092 756.19 574.092 756.19L580.892 764.05C587.482 773.24 609.732 799.32 532.812 869.85C496.102 903.51 465.252 926.92 442.312 953.04C426.502 971.04 414.452 990.34 406.862 1015.16C402.382 1029.78 399.462 1046.32 398.212 1065.64C391.952 1163.08 499.672 1221.35 504.592 1223.96L504.762 1224.05C504.766 1224.03 504.766 1224 504.762 1223.98C504.542 1221.87 503.902 1216.46 503.052 1209.45C502.682 1206.45 502.282 1203.06 501.852 1199.56C500.712 1190.3 499.442 1179.93 498.352 1171.09L495.752 1150.09L475.492 1132.89C378.992 1019.55 530.332 997.51 592.292 885.63C592.862 884.63 593.412 883.63 593.952 882.63C595.038 880.63 596.078 878.63 597.072 876.63C598.072 874.63 599.072 872.7 599.932 870.77C603.358 863.553 606.363 856.144 608.932 848.58C609.232 847.7 609.522 846.82 609.792 845.95C615.012 829.42 616.982 814.77 616.742 801.86ZM604.902 766.86C604.902 767 604.902 767.13 604.902 767.27C604.963 768.743 605.167 770.207 605.512 771.64C605.592 772.03 605.692 772.4 605.802 772.77C606.258 774.192 606.868 775.56 607.622 776.85C608.188 779.55 608.622 782.257 608.922 784.97C607.299 783.765 605.86 782.33 604.652 780.71C603.322 778.897 602.252 776.908 601.472 774.8C600.717 772.596 600.246 770.304 600.072 767.98C599.987 766.762 599.987 765.539 600.072 764.32C600.223 762.134 600.625 759.973 601.272 757.88C602.645 760.79 603.853 763.775 604.892 766.82L604.902 766.86Z" fill="#779D15"/>
<path d="M663.501 435.77C647.121 498.18 603.671 515.77 603.671 515.77C474.531 594.68 519.991 646.97 516.431 655.07C515.431 657.36 514.261 660.28 513.121 663.29C511.981 666.3 510.801 669.51 509.841 672.2C508.381 676.2 507.361 679.2 507.361 679.2C507.361 679.2 463.581 626.14 495.301 575.08C503.811 561.37 517.761 547.81 539.471 535.45C539.471 535.45 599.401 498.2 616.471 484.45C633.541 470.7 664.601 430.96 643.381 374.21L639.511 335.56V335.39C639.511 335.39 682.261 364.26 663.501 435.77Z" fill="#9EB52C"/>
<path d="M469.179 863.94C468.999 876.94 469.039 887.19 469.039 887.19C444.819 814.19 319.149 818.56 206.629 839.64C94.109 860.72 61.339 816.94 37.129 782.89L32.6091 776.53C7.89906 741.82 -28.511 690.38 37.129 765.97C51.799 782.86 68.739 793.04 87.249 798.51C92.7518 800.127 98.3626 801.35 104.039 802.17C117.509 804.17 131.649 804.17 146.229 802.83C149.862 802.51 153.529 802.103 157.229 801.61C212.359 794.38 272.729 771.09 326.319 766.67C424.599 758.57 471.609 815.86 471.609 815.86C470.019 824.85 469.409 846.77 469.179 863.94Z" fill="#779D15"/>
<path opacity="0.7" d="M469.281 887.48C445.061 814.48 319.391 818.85 206.871 839.93C94.3506 861.01 61.5806 817.23 37.3706 783.18L32.8906 776.82C57.1006 803.41 86.9906 824.88 128.961 831.17C200.081 841.84 203.371 818.73 338.481 817.84C415.061 817.34 451.911 842.41 469.481 864.23C469.241 877.2 469.281 887.48 469.281 887.48Z" fill="#ECDE76"/>
<path opacity="0.7" d="M509.532 1542.35C487.532 1592.8 456.582 1633.68 377.222 1723.35C325.322 1781.98 310.322 1847.88 307.482 1896.05C300.362 1847.69 307.922 1783.16 365.102 1716.28C448.672 1618.51 490.132 1567 509.532 1542.35Z" fill="#ECDE76"/>
<path opacity="0.17" d="M607.95 1593.43C439.48 1783.62 375.44 1785.58 340.38 1966.15C333.2 1780.25 472.5 1702.04 604.67 1544.15C749.44 1371.15 661.29 1204.05 661.29 1204.05C667.89 1212.62 673.69 1220.21 676.29 1223.77C699.89 1255.84 780.3 1398.87 607.95 1593.43Z" fill="#4E4700"/>
<path opacity="0.7" d="M504.752 1224.01H504.592C499.672 1221.4 391.952 1163.13 398.212 1065.69C399.462 1046.37 402.382 1029.83 406.862 1015.21C404.202 1041.76 406.862 1094.69 420.482 1121.86C437.222 1155.35 475.482 1191.78 503.042 1209.5C503.892 1216.49 504.532 1221.9 504.752 1224.01Z" fill="#ECDE76"/>
<path opacity="0.17" d="M609.749 845.97C609.479 846.84 609.189 847.72 608.889 848.6C606.329 856.167 603.324 863.577 599.889 870.79C598.979 872.72 598.029 874.68 597.029 876.65C596.029 878.62 595.029 880.65 593.909 882.65C593.369 883.65 592.819 884.65 592.249 885.65C530.249 997.53 378.949 1019.57 475.449 1132.91L495.709 1150.11L498.309 1171.11C480.729 1159.11 460.099 1141.35 450.859 1119.59C433.189 1077.98 432.079 1054.43 450.859 1018.87C466.459 989.34 619.969 882.87 608.859 784.92C608.559 782.213 608.126 779.507 607.559 776.8C606.849 773.416 605.937 770.076 604.829 766.8C603.797 763.734 602.591 760.73 601.219 757.8C596.319 747.23 589.049 736.86 579.009 726.8L579.119 726.87L579.939 727.42L580.489 727.81C581.489 728.55 582.999 729.68 584.809 731.24L585.329 731.69C586.599 732.8 588.019 734.11 589.529 735.63L590.369 736.48C591.629 737.78 592.926 739.21 594.259 740.77C594.589 741.15 594.909 741.54 595.259 741.94C596.449 743.38 597.649 744.94 598.839 746.57C599.059 746.88 599.289 747.19 599.509 747.51C600.079 748.32 600.649 749.16 601.209 750.02L602.149 751.47C602.479 752.01 602.819 752.55 603.149 753.11C604.209 754.87 605.249 756.73 606.249 758.68C606.699 759.57 607.149 760.48 607.579 761.41C607.739 761.74 607.899 762.08 608.049 762.41C608.429 763.24 608.799 764.09 609.159 764.95C609.389 765.5 609.619 766.06 609.839 766.62C610.519 768.33 611.169 770.11 611.769 771.94C611.969 772.55 612.169 773.16 612.359 773.79C612.499 774.25 612.639 774.71 612.769 775.18C612.899 775.65 613.029 776.08 613.149 776.53C613.269 776.98 613.359 777.28 613.459 777.66C613.619 778.28 613.779 778.92 613.929 779.56C614.079 780.2 614.219 780.8 614.359 781.42C614.529 782.21 614.699 783.01 614.849 783.82C614.849 783.82 614.849 783.88 614.849 783.91C614.989 784.64 615.129 785.39 615.249 786.15C615.369 786.91 615.499 787.7 615.619 788.5C615.625 788.526 615.625 788.554 615.619 788.58C615.699 789.15 615.779 789.73 615.849 790.31C616.009 791.53 616.149 792.76 616.249 794.02C616.309 794.65 616.359 795.28 616.399 795.92C616.439 796.56 616.489 797.19 616.519 797.84C616.549 798.49 616.589 799.14 616.609 799.84C616.629 800.54 616.659 801.15 616.659 801.84C616.979 814.77 615.009 829.42 609.749 845.97Z" fill="#4E4700"/>
<path opacity="0.7" d="M509.892 672.17C508.432 676.17 507.412 679.17 507.412 679.17C507.412 679.17 463.632 626.11 495.352 575.05C481.432 608.3 497.712 649.07 509.892 672.17Z" fill="#ECDE76"/>
<path opacity="0.17" d="M663.499 435.77C647.119 498.18 603.669 515.77 603.669 515.77C474.529 594.68 519.989 646.97 516.429 655.07C515.429 657.36 514.259 660.28 513.119 663.29C504.799 650.41 496.239 627.39 509.959 596.29C526.869 557.91 558.559 539.7 580.479 525.78C602.399 511.86 633.909 489.71 649.819 457.92C665.729 426.13 664.039 404.59 661.669 386.52C659.449 369.52 647.409 347.1 639.529 335.59V335.42C639.529 335.42 682.259 364.26 663.499 435.77Z" fill="#4E4700"/>
<path opacity="0.21" d="M636.891 318.65C636.321 317.42 599.201 238.65 563.891 213.1C529.801 188.4 466.991 101.04 521.601 71.6101C517.761 74.8401 514.311 80.0301 511.831 86.1601V86.2201C507.031 97.4401 505.751 112.3 511.941 123.82C512.341 124.58 512.781 125.33 513.261 126.06C527.501 147.95 533.201 160.92 563.821 190.92C594.441 220.92 617.951 254.92 625.071 278.47C628.191 288.87 632.941 301.26 636.891 318.65Z" fill="#ECDE76"/>
<path d="M156.251 802.77C150.922 808.524 144.265 812.884 136.861 815.47L134.071 816.47C133.128 816.742 132.169 816.959 131.201 817.12L128.291 817.71L125.291 817.97C121.221 818.386 117.111 818.159 113.111 817.3C108.973 816.381 104.984 814.886 101.261 812.86C97.4567 810.668 93.9454 808.004 90.8108 804.93C89.1822 803.297 87.6686 801.552 86.2808 799.71C82.171 794.332 79.1172 788.224 77.2808 781.71C76.6376 779.519 76.1432 777.287 75.8008 775.03C75.6108 773.92 75.5408 772.78 75.4308 771.65C75.2776 770.517 75.204 769.374 75.2108 768.23C75.2108 767.08 75.1408 765.92 75.2108 764.78L75.5108 761.33L76.1108 757.96C76.3108 756.84 76.6708 755.76 76.9508 754.66C79.4248 746.134 84.8062 738.743 92.1608 733.77C95.7284 731.419 99.7083 729.763 103.891 728.89C104.941 728.71 105.991 728.48 107.061 728.38L110.271 728.2C111.371 728.2 112.501 728.3 113.621 728.38C114.742 728.495 115.855 728.686 116.951 728.95C121.463 730.059 125.673 732.152 129.281 735.08C133.041 738.114 136.141 741.885 138.391 746.16C140.621 750.456 142.003 755.141 142.461 759.96C143.007 764.763 142.372 769.628 140.611 774.13C138.93 778.417 136.125 782.172 132.491 785C128.928 787.686 124.646 789.249 120.191 789.49C117.878 789.643 115.557 789.358 113.351 788.65C109.913 787.561 106.813 785.605 104.351 782.97C101.783 780.243 99.8982 776.946 98.8508 773.35C98.1712 771.007 97.8344 768.579 97.8508 766.14C97.8836 763.712 98.3898 761.314 99.3408 759.08C100.225 756.962 101.556 755.059 103.241 753.5C104.875 751.991 106.831 750.873 108.961 750.23C111.108 749.612 113.373 749.526 115.561 749.98C117.858 750.513 119.966 751.661 121.661 753.3C123.368 754.948 124.651 756.985 125.399 759.237C126.148 761.488 126.341 763.888 125.961 766.23C125.539 768.406 124.436 770.392 122.811 771.9C121.281 773.303 119.286 774.091 117.211 774.11C116.176 774.131 115.15 773.916 114.211 773.48C113.233 773.039 112.358 772.398 111.641 771.6C110.933 770.82 110.382 769.91 110.021 768.92C109.66 767.93 109.484 766.883 109.501 765.83C109.622 766.819 109.913 767.78 110.361 768.67C110.816 769.537 111.426 770.313 112.161 770.96C112.825 771.556 113.614 771.997 114.471 772.25C115.289 772.505 116.156 772.563 117.001 772.42C118.651 772.184 120.16 771.36 121.251 770.1C122.325 768.81 122.977 767.222 123.121 765.55C123.221 763.838 122.92 762.125 122.241 760.55C121.573 758.997 120.545 757.626 119.241 756.55C118.035 755.595 116.588 754.993 115.061 754.81C113.572 754.669 112.072 754.896 110.691 755.47C109.311 756.025 108.074 756.883 107.071 757.98C106.035 759.117 105.246 760.454 104.751 761.91C104.267 763.39 104.057 764.945 104.131 766.5C104.244 768.132 104.58 769.74 105.131 771.28C106.245 774.247 108.228 776.808 110.821 778.63C112.042 779.442 113.396 780.034 114.821 780.38C116.212 780.733 117.659 780.815 119.081 780.62C122.033 780.313 124.823 779.117 127.081 777.19C129.4 775.219 131.15 772.664 132.151 769.79C132.414 769.061 132.631 768.316 132.801 767.56C132.941 766.8 133.061 766.03 133.141 765.25L133.221 764.06C133.221 763.67 133.221 763.27 133.221 762.89C133.209 762.066 133.142 761.245 133.021 760.43C132.644 757.118 131.625 753.912 130.021 750.99C128.465 748.159 126.349 745.675 123.801 743.69C121.363 741.761 118.529 740.395 115.501 739.69L113.281 739.33C112.531 739.33 111.791 739.24 111.031 739.23L108.691 739.39C107.921 739.46 107.161 739.66 106.431 739.76C103.401 740.413 100.518 741.623 97.9308 743.33C92.5365 746.966 88.5737 752.364 86.7208 758.6C86.5108 759.41 86.2108 760.19 86.0508 761.01L85.5708 763.5L85.3208 766.04C85.2308 766.88 85.3208 767.76 85.2508 768.6C85.2309 769.475 85.271 770.35 85.3708 771.22C85.4608 772.11 85.4808 773.02 85.6208 773.9C85.8715 775.675 86.222 777.434 86.6708 779.17C89.0658 788.936 94.9075 797.509 103.121 803.31C103.721 803.75 104.331 804.16 104.951 804.55C107.895 806.33 111.068 807.702 114.381 808.63C117.661 809.516 121.055 809.907 124.451 809.79L127.031 809.73L129.561 809.37C130.417 809.29 131.268 809.163 132.111 808.99L134.611 808.39C138.362 807.41 141.962 805.923 145.311 803.97C148.931 803.677 152.577 803.277 156.251 802.77Z" fill="#779D15"/>
<path d="M608.89 784.93C607.267 783.725 605.829 782.29 604.62 780.67C603.291 778.857 602.221 776.868 601.44 774.76C600.685 772.555 600.215 770.263 600.04 767.94C599.955 766.721 599.955 765.498 600.04 764.28C600.191 762.094 600.594 759.933 601.24 757.84C602.612 760.769 603.817 763.774 604.85 766.84C604.85 766.98 604.85 767.11 604.85 767.25C604.911 768.723 605.115 770.186 605.46 771.62C605.54 772.01 605.64 772.38 605.75 772.75C606.207 774.172 606.817 775.54 607.57 776.83C608.177 779.517 608.617 782.216 608.89 784.93Z" fill="#9B8E00"/>
<path d="M615.319 786.21C615.449 786.98 615.569 787.76 615.689 788.56C615.379 788.45 615.069 788.34 614.759 788.21L613.309 787.62C612.835 787.396 612.375 787.145 611.929 786.87L610.569 786.09L609.289 785.16L608.929 784.9C608.629 782.193 608.196 779.487 607.629 776.78C607.799 777.07 607.969 777.35 608.149 777.63C609.152 779.135 610.371 780.483 611.769 781.63L612.769 782.5L613.909 783.24C614.219 783.45 614.519 783.68 614.849 783.87C614.849 783.87 614.849 783.93 614.849 783.96C615.059 784.7 615.199 785.45 615.319 786.21Z" fill="#8E8200"/>
<path d="M639.58 761.09C638.972 763.585 637.885 765.939 636.38 768.02C634.924 770.126 632.974 771.843 630.7 773.02C628.543 774.138 626.127 774.66 623.7 774.53C621.34 774.358 619.085 773.488 617.22 772.03C616.243 771.281 615.416 770.355 614.78 769.3C613.787 767.661 613.229 765.795 613.16 763.88C613.095 761.895 613.496 759.922 614.33 758.12C614.88 756.949 615.598 755.864 616.46 754.9C617.321 753.944 618.36 753.166 619.52 752.61C620.61 752.07 621.804 751.773 623.02 751.74C624.201 751.71 625.373 751.946 626.45 752.43C627.522 752.937 628.455 753.695 629.17 754.64C629.9 755.654 630.342 756.846 630.45 758.09C630.557 759.345 630.358 760.608 629.87 761.769C629.383 762.931 628.621 763.957 627.65 764.76C626.72 765.479 625.586 765.885 624.41 765.92C623.313 765.944 622.245 765.563 621.41 764.85C620.984 764.497 620.642 764.053 620.41 763.55C620.176 763.031 620.05 762.469 620.04 761.9C620.032 761.343 620.13 760.79 620.33 760.27C620.533 759.748 620.828 759.267 621.2 758.85C620.904 759.29 620.684 759.777 620.55 760.29C620.429 760.794 620.402 761.316 620.47 761.83C620.531 762.298 620.691 762.749 620.94 763.15C621.182 763.564 621.527 763.908 621.94 764.15C622.683 764.632 623.574 764.83 624.45 764.71C625.33 764.569 626.146 764.165 626.79 763.55C627.417 762.9 627.888 762.117 628.17 761.26C628.45 760.406 628.518 759.497 628.37 758.61C628.224 757.809 627.857 757.064 627.31 756.46C626.757 755.882 626.071 755.449 625.31 755.2C624.567 754.939 623.773 754.85 622.99 754.94C622.18 755.026 621.396 755.282 620.69 755.69C619.983 756.117 619.357 756.665 618.84 757.31C618.316 758 617.886 758.757 617.56 759.56C616.973 761.137 616.872 762.855 617.27 764.49C617.48 765.239 617.818 765.947 618.27 766.58C618.706 767.206 619.256 767.746 619.89 768.17C621.179 769.072 622.708 769.566 624.28 769.59C625.895 769.61 627.487 769.199 628.89 768.4C629.236 768.199 629.57 767.979 629.89 767.74C630.21 767.48 630.52 767.22 630.83 766.93L631.28 766.49C631.42 766.34 631.55 766.17 631.68 766.02C631.966 765.69 632.227 765.339 632.46 764.97C633.465 763.511 634.175 761.871 634.55 760.14C634.918 758.466 634.942 756.734 634.62 755.05C634.313 753.432 633.658 751.9 632.7 750.56L631.94 749.64C631.64 749.37 631.37 749.09 631.07 748.82L630.07 748.07C629.74 747.82 629.37 747.64 629.07 747.42C627.63 746.63 626.057 746.108 624.43 745.88C621.007 745.45 617.54 746.22 614.62 748.06C614.25 748.31 613.86 748.52 613.51 748.79L612.45 749.62L611.45 750.54C611.13 750.85 610.84 751.22 610.53 751.54C610.219 751.883 609.931 752.247 609.67 752.63C609.39 753.02 609.08 753.39 608.83 753.79C608.311 754.586 607.837 755.41 607.41 756.26C607.003 757.075 606.642 757.913 606.33 758.77C605.38 761.36 604.906 764.101 604.93 766.86C603.897 763.794 602.692 760.79 601.32 757.86C601.742 756.527 602.253 755.224 602.85 753.96C602.97 753.7 603.1 753.44 603.23 753.18C603.641 752.356 604.095 751.555 604.59 750.78C604.9 750.27 605.27 749.78 605.59 749.3C605.923 748.793 606.294 748.311 606.7 747.86C607.1 747.4 607.48 746.86 607.91 746.48L609.23 745.21L610.65 744.07C611.12 743.7 611.65 743.39 612.14 743.07C616.098 740.554 620.807 739.494 625.46 740.07C627.701 740.386 629.862 741.123 631.83 742.24C632.32 742.53 632.83 742.81 633.28 743.14L634.62 744.19C635.06 744.57 635.48 745.01 635.9 745.43C636.305 745.87 636.682 746.334 637.03 746.82C638.442 748.842 639.391 751.15 639.81 753.58C640.236 756.074 640.158 758.627 639.58 761.09V761.09Z" fill="#8E8200"/>
<path d="M472.639 1195.24C476.705 1196.97 480.086 1200 482.259 1203.85C483.346 1205.8 484.122 1207.9 484.559 1210.09C484.981 1212.25 484.998 1214.47 484.609 1216.64C484.252 1218.8 483.477 1220.87 482.329 1222.73C481.116 1224.63 479.467 1226.21 477.519 1227.35C475.494 1228.52 473.238 1229.23 470.909 1229.43C468.484 1229.64 466.042 1229.35 463.73 1228.59C462.541 1228.2 461.395 1227.7 460.309 1227.08C458.595 1226.14 457.062 1224.91 455.779 1223.43C454.511 1221.96 453.528 1220.26 452.879 1218.43C452.236 1216.71 451.947 1214.87 452.029 1213.03C452.103 1211.26 452.56 1209.52 453.369 1207.94C453.889 1206.88 454.597 1205.93 455.459 1205.13C457.227 1203.5 459.517 1202.55 461.92 1202.46C464.365 1202.37 466.779 1203.03 468.839 1204.35C469.861 1205 470.756 1205.83 471.48 1206.8C472.185 1207.75 472.697 1208.83 472.989 1209.98C473.258 1211 473.299 1212.06 473.109 1213.1C472.928 1214.1 472.503 1215.05 471.869 1215.85C472.168 1214.95 472.283 1214 472.209 1213.06C472.135 1212.12 471.874 1211.2 471.439 1210.36C471.049 1209.56 470.517 1208.84 469.869 1208.23C469.214 1207.62 468.456 1207.13 467.629 1206.78C466.142 1206.11 464.485 1205.9 462.879 1206.2C461.36 1206.48 459.981 1207.26 458.969 1208.43C458.523 1208.99 458.183 1209.62 457.969 1210.3C457.677 1211 457.495 1211.74 457.429 1212.5C457.289 1214.03 457.533 1215.58 458.139 1216.99C458.735 1218.45 459.671 1219.75 460.869 1220.77C461.48 1221.3 462.152 1221.75 462.869 1222.12C463.595 1222.53 464.359 1222.86 465.149 1223.12C466.702 1223.63 468.337 1223.85 469.969 1223.75C471.539 1223.66 473.072 1223.24 474.469 1222.52C475.86 1221.82 477.077 1220.81 478.029 1219.58C479.009 1218.26 479.747 1216.77 480.209 1215.19C482.149 1208.82 479.409 1200.53 472.639 1195.24Z" fill="#C9CA59"/>
<path d="M518.059 1442.43C517.772 1443.21 517.438 1443.97 517.059 1444.71L516.059 1446.95C515.279 1448.4 514.409 1449.78 513.589 1451.17C516.31 1445.23 517.767 1438.79 517.869 1432.26C517.993 1425.74 516.817 1419.25 514.409 1413.19C513.769 1411.54 513.031 1409.93 512.199 1408.37C512.319 1405.21 512.423 1402.02 512.509 1398.8C515.186 1402.87 517.27 1407.3 518.699 1411.95C521.812 1421.91 521.587 1432.61 518.059 1442.43Z" fill="#91AD2D"/>
<path d="M512.5 1400.26C512.44 1402.54 512.37 1404.79 512.28 1407.03C510.73 1404.08 508.748 1401.39 506.4 1399.03L505.17 1397.84C504.77 1397.45 504.3 1397.12 503.87 1396.75L502.57 1395.68L501.17 1394.74C499.361 1393.51 497.401 1392.53 495.34 1391.8C493.328 1391.13 491.238 1390.71 489.12 1390.57C487.047 1390.49 484.973 1390.68 482.95 1391.14C478.99 1392.08 475.395 1394.17 472.61 1397.14C471.916 1397.87 471.271 1398.64 470.68 1399.46C470.39 1399.86 470.14 1400.31 469.87 1400.74C469.589 1401.15 469.341 1401.58 469.13 1402.03C468.94 1402.47 468.68 1402.89 468.51 1403.36L468.01 1404.74L467.64 1406.18C467.51 1406.66 467.49 1407.18 467.39 1407.64C466.866 1411.69 467.662 1415.81 469.66 1419.37C470.657 1421.16 471.929 1422.78 473.43 1424.17C473.8 1424.48 474.17 1424.84 474.57 1425.17L475.82 1426.06C476.24 1426.33 476.66 1426.55 477.08 1426.8L478.39 1427.4C480.163 1428.09 482.062 1428.39 483.96 1428.28C485.822 1428.18 487.635 1427.65 489.259 1426.73C490.882 1425.81 492.272 1424.53 493.32 1422.99C493.593 1422.61 493.834 1422.22 494.04 1421.8C494.14 1421.61 494.26 1421.42 494.36 1421.21L494.61 1420.57C494.77 1420.15 494.904 1419.71 495.01 1419.27C495.111 1418.82 495.181 1418.37 495.22 1417.91C495.391 1416.01 495.081 1414.11 494.32 1412.36C493.554 1410.57 492.346 1409 490.81 1407.8C490.083 1407.21 489.266 1406.75 488.39 1406.42C487.547 1406.11 486.658 1405.94 485.76 1405.92C483.942 1405.91 482.175 1406.53 480.76 1407.67C480.055 1408.26 479.457 1408.97 478.99 1409.77C478.536 1410.55 478.257 1411.42 478.17 1412.32C478.062 1413.27 478.151 1414.23 478.43 1415.14C478.71 1416.07 479.169 1416.94 479.78 1417.69C480.388 1418.46 481.147 1419.1 482.01 1419.56C482.858 1420.01 483.817 1420.21 484.775 1420.14C485.732 1420.07 486.65 1419.72 487.42 1419.15C488.196 1418.58 488.801 1417.82 489.17 1416.93C489.52 1415.97 489.565 1414.92 489.3 1413.93C489.009 1412.88 488.398 1411.95 487.55 1411.26C487.136 1410.89 486.649 1410.62 486.12 1410.45C485.604 1410.28 485.059 1410.23 484.52 1410.29C483.964 1410.36 483.429 1410.55 482.95 1410.84C482.475 1411.13 482.069 1411.52 481.76 1411.98C482.01 1411.44 482.375 1410.96 482.83 1410.58C483.29 1410.2 483.825 1409.93 484.4 1409.78C485.023 1409.65 485.667 1409.65 486.29 1409.78C486.936 1409.9 487.552 1410.15 488.1 1410.51C489.237 1411.26 490.114 1412.33 490.61 1413.6C491.112 1414.87 491.214 1416.27 490.9 1417.6C490.533 1418.9 489.809 1420.06 488.81 1420.97C487.807 1421.87 486.568 1422.46 485.24 1422.68C483.829 1422.92 482.378 1422.76 481.05 1422.23C479.699 1421.68 478.481 1420.85 477.48 1419.79C476.48 1418.72 475.693 1417.47 475.16 1416.11C474.649 1414.77 474.405 1413.34 474.44 1411.9C474.487 1410.47 474.827 1409.07 475.44 1407.78C476.036 1406.54 476.841 1405.41 477.82 1404.44C479.329 1402.95 481.223 1401.91 483.29 1401.44C485.414 1400.97 487.624 1401.06 489.7 1401.71C491.138 1402.14 492.491 1402.82 493.7 1403.71C496.092 1405.38 498.018 1407.64 499.297 1410.26C500.576 1412.89 501.166 1415.79 501.01 1418.71C500.864 1421.52 499.969 1424.24 498.42 1426.59C496.953 1428.87 494.987 1430.78 492.67 1432.19C490.286 1433.6 487.611 1434.44 484.85 1434.65C482.015 1434.86 479.169 1434.44 476.51 1433.44C475.825 1433.19 475.157 1432.9 474.51 1432.56C473.88 1432.21 473.23 1431.87 472.63 1431.48L470.91 1430.26C470.35 1429.83 469.83 1429.35 469.3 1428.89C467.222 1426.98 465.46 1424.76 464.08 1422.3C461.381 1417.45 460.328 1411.86 461.08 1406.36C461.21 1405.7 461.28 1405.03 461.47 1404.36L461.99 1402.43L462.7 1400.57C462.95 1399.96 463.29 1399.39 463.58 1398.8C463.872 1398.22 464.207 1397.66 464.58 1397.13C464.93 1396.6 465.26 1396.05 465.64 1395.54C469.526 1390.37 475.173 1386.82 481.51 1385.54C484.068 1385.07 486.678 1384.94 489.27 1385.15C491.889 1385.45 494.458 1386.09 496.91 1387.06C499.371 1388.05 501.683 1389.37 503.78 1390.99L505.34 1392.17L506.79 1393.48C507.26 1393.93 507.79 1394.34 508.2 1394.83L509.49 1396.29C510.581 1397.54 511.586 1398.87 512.5 1400.26Z" fill="#B3A500"/>
<path d="M47.6094 711.49C86.4994 701.55 88.6094 735 88.7494 738.21C88.7558 738.293 88.7558 738.377 88.7494 738.46C54.1994 750.65 47.8294 712.91 47.6094 711.49Z" fill="#AA9F1E"/>
<path d="M47.6094 711.49L88.7194 738.41C88.4994 738.41 88.7194 738.41 88.7194 738.41C54.1994 750.65 47.8294 712.91 47.6094 711.49Z" fill="#CCBE16"/>
<path d="M351.351 718.82C384.531 741.4 360.861 765.13 358.531 767.34L358.351 767.51C326.341 749.68 350.431 719.93 351.351 718.82Z" fill="#AA9F1E"/>
<path d="M351.351 718.82L358.351 767.46C358.201 767.29 358.351 767.46 358.351 767.46C326.341 749.68 350.431 719.93 351.351 718.82Z" fill="#CCBE16"/>
<path d="M713.21 1198.18C716.83 1238.18 683.47 1234.93 680.28 1234.54H680.03C673.5 1198.46 711.78 1198.18 713.21 1198.18Z" fill="#AA9F1E"/>
<path d="M713.21 1198.18L680.09 1234.48C680.09 1234.26 680.09 1234.48 680.09 1234.48C673.5 1198.46 711.78 1198.18 713.21 1198.18Z" fill="#CCBE16"/>
<path d="M419.733 1591.54C457.343 1605.54 440.023 1634.25 438.293 1636.95L438.153 1637.16C402.823 1627.47 419.113 1592.83 419.733 1591.54Z" fill="#AA9F1E"/>
<path d="M419.731 1591.54L438.161 1637.09C437.981 1636.97 438.161 1637.09 438.161 1637.09C402.821 1627.47 419.111 1592.83 419.731 1591.54Z" fill="#CCBE16"/>
<path d="M436.012 1639.06C417.012 1651.78 407.322 1629.91 407.012 1629.06C429.012 1617.06 435.452 1636.98 436.012 1638.9" fill="#AA9F1E"/>
<path d="M436.012 1639.06C417.012 1651.78 407.322 1629.91 407.012 1629.06L436.012 1639.06Z" fill="#CCBE16"/>
<path d="M420.559 1219.49C435.299 1196.1 452.219 1211.82 453.789 1213.37L453.919 1213.49C442.409 1235.96 421.349 1220.1 420.559 1219.49Z" fill="#AA9F1E"/>
<path d="M420.559 1219.49L453.879 1213.49C453.759 1213.6 453.879 1213.49 453.879 1213.49C442.409 1235.96 421.349 1220.1 420.559 1219.49Z" fill="#CCBE16"/>
<path d="M440.229 1634.56C425.799 1620.42 442.949 1608.12 443.599 1607.66C457.939 1624.51 441.899 1633.66 440.339 1634.5" fill="#AA9F1E"/>
<path d="M440.229 1634.56C425.799 1620.42 442.949 1608.12 443.599 1607.66L440.229 1634.54" fill="#CCBE16"/>
<path d="M468.089 1394.77C470.448 1393.79 472.332 1391.93 473.339 1389.58C473.868 1388.35 474.186 1387.03 474.279 1385.69C474.369 1384.29 474.206 1382.88 473.799 1381.54C473.403 1380.14 472.77 1378.82 471.929 1377.63C471.046 1376.4 469.922 1375.35 468.624 1374.57C467.326 1373.78 465.882 1373.27 464.379 1373.06C462.918 1372.86 461.432 1372.98 460.019 1373.4C459.318 1373.6 458.646 1373.89 458.019 1374.26C457.039 1374.8 456.187 1375.55 455.519 1376.45C454.84 1377.36 454.359 1378.4 454.109 1379.51C453.846 1380.62 453.812 1381.78 454.009 1382.91C454.205 1384.06 454.619 1385.16 455.229 1386.16C455.633 1386.85 456.139 1387.47 456.729 1388C457.886 1389.06 459.357 1389.72 460.919 1389.87C462.363 1390.02 463.814 1389.66 465.029 1388.87C465.609 1388.49 466.098 1387.98 466.459 1387.39C466.831 1386.78 467.066 1386.1 467.149 1385.39C467.241 1384.72 467.183 1384.04 466.979 1383.39C466.77 1382.73 466.43 1382.13 465.979 1381.61C466.479 1382.7 466.536 1383.95 466.139 1385.08C465.968 1385.57 465.692 1386.02 465.329 1386.39C464.976 1386.76 464.546 1387.05 464.069 1387.24C463.161 1387.63 462.15 1387.71 461.189 1387.48C460.197 1387.24 459.298 1386.71 458.609 1385.96C458.313 1385.6 458.071 1385.2 457.889 1384.77C457.659 1384.32 457.491 1383.85 457.389 1383.36C457.179 1382.42 457.21 1381.45 457.479 1380.53C457.726 1379.65 458.206 1378.84 458.869 1378.21C459.197 1377.9 459.567 1377.63 459.969 1377.42C460.387 1377.18 460.834 1376.99 461.299 1376.86C462.244 1376.57 463.238 1376.48 464.219 1376.59C465.224 1376.71 466.198 1377.01 467.089 1377.49C468.011 1378 468.828 1378.68 469.499 1379.49C470.198 1380.35 470.768 1381.31 471.189 1382.33C472.053 1384.47 472.219 1386.82 471.662 1389.05C471.105 1391.29 469.854 1393.29 468.089 1394.77V1394.77Z" fill="#B3A500"/>
<path d="M489.49 519.1C526.36 534.96 507.64 562.76 505.77 565.38L505.63 565.58C470.82 554.14 488.81 520.36 489.49 519.1Z" fill="#AA9F1E"/>
<path d="M489.488 519.1L505.638 565.51C505.458 565.37 505.638 565.51 505.638 565.51C470.818 554.14 488.808 520.36 489.488 519.1Z" fill="#CCBE16"/>
<path d="M515.119 529.65C531.119 552.65 509.749 562.27 507.669 563.13L507.509 563.19C491.089 543.55 514.249 530.15 515.119 529.65Z" fill="#AA9F1E"/>
<path d="M515.118 529.65L507.548 563.16C507.488 563.02 507.548 563.16 507.548 563.16C491.088 543.55 514.248 530.15 515.118 529.65Z" fill="#CCBE16"/>
<path d="M107.342 861.45C103.052 837.97 122.982 838.08 124.892 838.15H125.032C130.892 859.15 108.192 861.37 107.342 861.45Z" fill="#AA9F1E"/>
<path d="M107.34 861.45L125 838.17C125 838.3 125 838.17 125 838.17C130.89 859.15 108.19 861.37 107.34 861.45Z" fill="#CCBE16"/>
<path d="M504.51 0.0300293C537.69 22.62 514.02 46.35 511.69 48.56L511.5 48.73C479.5 30.88 503.59 1.14003 504.51 0.0300293Z" fill="#AA9F1E"/>
<path d="M504.511 0.0300293L511.511 48.67C511.361 48.5 511.511 48.67 511.511 48.67C479.501 30.88 503.591 1.14003 504.511 0.0300293Z" fill="#CCBE16"/>
</g>
<defs>
<clipPath id="clip0_136_429">
<rect width="739.87" height="2055.15" fill="white"/>
</clipPath>
</defs>
</svg>
