<svg width="1920" height="195" viewBox="0 0 1920 195" fill="none" xmlns="http://www.w3.org/2000/svg">
<path d="M1920 4.43164H0V125.704H1920V4.43164Z" fill="#EEF8FF"/>
<path d="M113.4 72.8848C113.412 88.4335 111.492 103.778 107.79 117.729C107.07 120.474 106.28 123.126 105.44 125.704C103.538 131.486 101.331 136.903 98.8505 141.876C89.5904 160.486 76.9201 172.019 63.3177 174.221C49.7152 176.424 36.159 169.135 25.3005 153.782C19.2536 145.232 14.2316 134.443 10.5534 122.1C6.87527 109.757 4.62137 96.1302 3.93488 82.0853C3.24839 68.0405 4.14432 53.8843 6.56575 40.516C8.98719 27.1477 12.8812 14.8593 18.0005 4.43154C18.7405 2.92932 19.5005 1.46418 20.2905 0.0546875H96.8305C97.5305 1.29727 98.2005 2.57694 98.8305 3.89371L99.1005 4.43154C108.314 23.1317 113.415 47.554 113.4 72.8848Z" fill="#EEF8FF"/>
<path d="M245.251 72.8848C245.251 92.2283 240.771 110.311 232.991 125.704C232.611 126.464 232.231 127.206 231.831 127.948C216.831 156.026 190.641 174.61 160.831 174.61C136.311 174.61 114.231 161.998 98.8309 141.876C95.7236 137.848 92.8065 133.337 90.1109 128.393C89.6309 127.503 89.1709 126.538 88.7209 125.704C80.9409 110.311 76.4609 92.321 76.4609 72.8848C76.4609 46.5124 84.7709 22.4953 98.4609 4.43154L98.8709 3.89371C99.8709 2.57076 100.914 1.29109 102.001 0.0546875H219.761C220.981 1.46418 222.151 2.92932 223.281 4.43154C236.931 22.4953 245.251 46.5124 245.251 72.8848Z" fill="#EEF8FF"/>
<path d="M231.528 155.044C242.596 155.044 251.568 138.404 251.568 117.878C251.568 97.3518 242.596 80.7119 231.528 80.7119C220.46 80.7119 211.488 97.3518 211.488 117.878C211.488 138.404 220.46 155.044 231.528 155.044Z" fill="#EEF8FF"/>
<path d="M290.081 168.749C317.171 168.749 339.131 147.293 339.131 120.826C339.131 94.3591 317.171 72.9033 290.081 72.9033C262.992 72.9033 241.031 94.3591 241.031 120.826C241.031 147.293 262.992 168.749 290.081 168.749Z" fill="#EEF8FF"/>
<path d="M354.421 172.662C372.774 172.662 387.651 151.206 387.651 124.739C387.651 98.2722 372.774 76.8164 354.421 76.8164C336.069 76.8164 321.191 98.2722 321.191 124.739C321.191 151.206 336.069 172.662 354.421 172.662Z" fill="#EEF8FF"/>
<path d="M502.089 194.195C571.705 194.195 628.139 156.531 628.139 110.07C628.139 63.6092 571.705 25.9453 502.089 25.9453C432.474 25.9453 376.039 63.6092 376.039 110.07C376.039 156.531 432.474 194.195 502.089 194.195Z" fill="#EEF8FF"/>
<path d="M628.659 153.097C637.688 153.097 645.009 139.521 645.009 122.774C645.009 106.027 637.688 92.4512 628.659 92.4512C619.629 92.4512 612.309 106.027 612.309 122.774C612.309 139.521 619.629 153.097 628.659 153.097Z" fill="#EEF8FF"/>
<path d="M749.438 76.798C749.44 82.3837 749.223 87.9622 748.788 93.4894C747.345 111.925 743.508 129.433 737.608 144.509C731.251 160.777 722.714 173.685 712.842 181.959C702.971 190.233 692.106 193.586 681.321 191.687C670.537 189.787 660.206 182.701 651.351 171.129C642.495 159.557 635.421 143.899 630.828 125.704C630.418 124.109 630.028 122.495 629.668 120.863C629.088 118.248 628.548 115.578 628.068 112.851C626.932 106.448 626.105 99.8686 625.598 93.1927C625.594 93.125 625.594 93.0564 625.598 92.9887C625.192 87.6247 624.989 82.2147 624.988 76.798C624.971 50.4763 629.828 24.942 638.748 4.46865C639.398 2.96643 640.058 1.51984 640.748 0.0917969H733.698C734.388 1.51984 735.058 2.96643 735.698 4.46865C741.986 18.9255 746.293 35.9924 748.248 54.209C749.042 61.6486 749.44 69.2144 749.438 76.798Z" fill="#EEF8FF"/>
<path d="M787.409 174.628C820.612 174.628 847.529 143.972 847.529 106.156C847.529 68.3404 820.612 37.6846 787.409 37.6846C754.206 37.6846 727.289 68.3404 727.289 106.156C727.289 143.972 754.206 174.628 787.409 174.628Z" fill="#EEF8FF"/>
<path d="M846.48 157.01C853.472 157.01 859.14 146.498 859.14 133.531C859.14 120.564 853.472 110.052 846.48 110.052C839.488 110.052 833.82 120.564 833.82 133.531C833.82 146.498 839.488 157.01 846.48 157.01Z" fill="#EEF8FF"/>
<path d="M877.599 162.889C891.29 162.889 902.389 142.305 902.389 116.913C902.389 91.5214 891.29 70.9375 877.599 70.9375C863.907 70.9375 852.809 91.5214 852.809 116.913C852.809 142.305 863.907 162.889 877.599 162.889Z" fill="#EEF8FF"/>
<path d="M997.841 182.436C1055.8 182.436 1102.79 156.164 1102.79 123.757C1102.79 91.3489 1055.8 65.0771 997.841 65.0771C939.878 65.0771 892.891 91.3489 892.891 123.757C892.891 156.164 939.878 182.436 997.841 182.436Z" fill="#EEF8FF"/>
<path d="M1120.73 151.13C1137.04 151.13 1150.26 126.611 1150.26 96.364C1150.26 66.1174 1137.04 41.5977 1120.73 41.5977C1104.42 41.5977 1091.2 66.1174 1091.2 96.364C1091.2 126.611 1104.42 151.13 1120.73 151.13Z" fill="#EEF8FF"/>
<path d="M1176.63 172.644C1199.93 172.644 1218.82 148.124 1218.82 117.878C1218.82 87.631 1199.93 63.1113 1176.63 63.1113C1153.33 63.1113 1134.44 87.631 1134.44 117.878C1134.44 148.124 1153.33 172.644 1176.63 172.644Z" fill="#EEF8FF"/>
<path d="M1385.48 170.697C1480.44 170.697 1557.41 144.425 1557.41 112.017C1557.41 79.6096 1480.44 53.3379 1385.48 53.3379C1290.53 53.3379 1213.55 79.6096 1213.55 112.017C1213.55 144.425 1290.53 170.697 1385.48 170.697Z" fill="#EEF8FF"/>
<path d="M1558.47 180.47C1574.78 180.47 1588 155.95 1588 125.704C1588 95.4572 1574.78 70.9375 1558.47 70.9375C1542.16 70.9375 1528.94 95.4572 1528.94 125.704C1528.94 155.95 1542.16 180.47 1558.47 180.47Z" fill="#EEF8FF"/>
<path d="M1698.75 180.471C1769.24 180.471 1826.38 145.879 1826.38 103.208C1826.38 60.537 1769.24 25.9453 1698.75 25.9453C1628.26 25.9453 1571.12 60.537 1571.12 103.208C1571.12 145.879 1628.26 180.471 1698.75 180.471Z" fill="#EEF8FF"/>
<path d="M1512.05 176.557C1528.36 176.557 1541.58 152.037 1541.58 121.791C1541.58 91.5441 1528.36 67.0244 1512.05 67.0244C1495.74 67.0244 1482.52 91.5441 1482.52 121.791C1482.52 152.037 1495.74 176.557 1512.05 176.557Z" fill="#EEF8FF"/>
<path d="M1920 0.055638V194.797C1918.66 194.871 1917.83 194.835 1916.5 194.835C1877.72 194.835 1843.53 169.937 1826.52 125.705C1825.59 123.294 1824.71 120.827 1823.89 118.286C1820.13 107.113 1817.45 94.8128 1815.97 81.9362C1815.57 78.4444 1815.27 74.9157 1815.07 71.365C1814.85 67.6327 1814.74 63.8808 1814.74 60.1261C1814.79 40.4869 1817.68 21.2337 1823.12 4.37685C1823.57 2.89317 1824.05 1.44659 1824.56 0L1920 0.055638Z" fill="#EEF8FF"/>
<path d="M1920 0.0546875V194.793C1905.5 195.481 1861.57 167.349 1844.5 139.419C1833.9 121.842 1833.86 100.622 1826 77.8087C1823.84 80.7143 1821.68 83.497 1819.51 86.198C1818.35 87.6507 1817.18 89.0626 1816.01 90.454C1797.32 112.661 1777.09 128.923 1756.01 138.682C1714.45 158.08 1674.83 150.959 1645.07 138.682C1613.49 125.566 1593 106.455 1593 106.455L1588 123.581L1587.28 125.443C1585.49 130.085 1583.56 134.506 1581.51 138.682C1580.67 140.38 1579.84 141.976 1579.02 143.449C1562.7 172.935 1549.15 161.517 1541.88 150.509C1541.48 149.895 1541.1 149.302 1540.74 148.708C1539.04 145.958 1537.49 142.844 1536.11 139.419C1533.93 142.32 1531.62 144.774 1529.2 146.744C1518.95 154.928 1511.32 148.79 1505.9 138.682C1498.24 124.4 1495 102.363 1495 102.363C1491.36 108.345 1487.52 113.814 1483.51 118.732C1476.97 126.732 1470.05 133.388 1462.87 138.6C1417.57 171.809 1364.27 151.225 1340.1 138.6C1331.86 134.385 1327 131.009 1327 131.009C1321.78 134.44 1316.43 137.006 1311 138.682C1300.33 141.907 1289.48 141.907 1278.81 138.682C1256.2 132.093 1237.16 113.35 1225.68 99.6208C1221.64 94.8781 1217.74 89.6442 1214 83.9472C1213 87.794 1211.94 91.3952 1210.89 94.7918C1203.16 119.775 1194.73 132.953 1186.41 138.682C1179.12 143.485 1171.28 143.485 1163.99 138.682C1158.69 135.297 1153.64 130.429 1148.99 124.216C1145 119.044 1141.28 113.052 1137.88 106.332C1127.51 136.82 1101.74 116.563 1091.25 106.66L1089.76 105.207C1089.71 105.172 1089.66 105.123 1089.62 105.064C1088.27 103.754 1087.35 102.751 1086.96 102.301L1086.75 102.076C1073.69 120.492 1057.32 132.093 1039.67 138.764C1005.37 151.757 966.28 146.457 937.4 138.764C912.4 132.114 895.11 123.663 895.11 123.663C893.307 129.03 891.265 134.044 889.01 138.641C879.24 158.039 871.9 150.059 867.22 138.641C864.584 132.054 862.484 124.64 861 116.686C860.257 125.016 858.293 132.687 855.37 138.682C851.79 145.905 847.11 149.424 842.84 146.396C841.818 145.678 840.859 144.628 840 143.286C839.127 141.954 838.338 140.408 837.65 138.682C832.43 125.75 834 106.455 834 106.455C798.71 159.88 765.36 127.08 748.79 103.14C744.91 97.6404 741.264 91.48 737.89 84.7247L727.3 115.785L727 116.686C723.477 124.83 719.549 132.202 715.28 138.682C693.28 171.83 672.57 158.08 658.28 138.682C650.995 128.633 644.495 116.389 639 102.363C638.85 104.266 638.64 106.455 638.38 108.501C637.21 117.954 634.81 128.963 629.67 133.301C628.758 134.045 627.804 134.553 626.83 134.815C626.224 134.996 625.612 135.091 625 135.101C620.32 135.101 617.18 126.139 615.15 116.686C613.683 109.455 612.626 101.902 612 94.178C596.629 114.775 579.647 129.828 561.79 138.682C522.24 158.898 481.06 151.47 449.4 138.682C416.6 125.443 394 106.455 394 106.455L384 131.009C382.72 133.737 381.447 136.295 380.18 138.682C379.74 139.5 379.3 140.278 378.87 141.055C355.38 182.306 334.43 154.376 325.76 138.682C324.253 136.01 322.839 133.124 321.53 130.047C319.521 133.153 317.431 136.035 315.27 138.682C293.2 165.691 273.88 153.435 261.67 138.682C256.633 132.693 252.032 125.289 248 116.686C245.57 128.84 241.89 135.49 237.83 138.682C235.909 140.168 233.882 141.005 231.83 141.158C228.603 141.377 225.379 140.542 222.28 138.682C219.055 136.85 215.942 134.276 213 131.009C210.89 133.792 208.76 136.349 206.64 138.682C172.45 176.27 137.64 157.548 116.72 138.682C113.37 135.674 110.37 132.666 107.79 129.883C104.065 125.94 100.461 121.533 97 116.686C96.51 123.765 95.77 131.336 91.89 138.682C91.328 139.731 90.7406 140.721 90.13 141.649C85.89 148.094 78.85 154.253 67 159.655C40 171.932 34 143.286 34 143.286C31.9687 153.155 29.0131 162.115 25.3 169.661C17.42 185.58 7.49 192.128 0 194.788V0.0546875H1920Z" fill="white"/>
<path d="M381.559 66.1653C383.624 69.4978 386.244 71.0463 388.86 70.4805C391.475 69.9148 393.879 67.2794 395.559 63.137C397.18 67.2783 399.305 70.475 401.721 72.4067C404.136 74.3385 406.758 74.9375 409.322 74.1438C411.886 73.3502 414.304 71.1916 416.332 67.8845C418.36 64.5773 419.928 60.2376 420.879 55.3002C419.044 58.8165 416.86 61.4798 414.476 63.1078C412.091 64.7357 409.563 65.2898 407.064 64.7321C404.565 64.1743 402.155 62.518 399.998 59.8764C397.842 57.2349 395.989 53.6706 394.569 49.4277C392.369 59.5767 386.639 65.9198 381.559 66.1653Z" fill="white"/>
</svg>
