<svg width="1367" height="173" viewBox="0 0 1367 173" fill="none" xmlns="http://www.w3.org/2000/svg">
<path d="M462.922 35.7298V20.0098L307.232 20.0098V35.7298L462.922 35.7298Z" fill="#A6835C"/>
<path d="M462.93 63.4895V47.7695L307.24 47.7695V63.4895L462.93 63.4895Z" fill="#A6835C"/>
<path d="M462.922 91.26V75.54L307.232 75.54V91.26L462.922 91.26Z" fill="#A6835C"/>
<path d="M462.93 119.02V103.3L307.24 103.3V119.02L462.93 119.02Z" fill="#A6835C"/>
<path d="M462.922 146.79V131.07H307.232V146.79H462.922Z" fill="#A6835C"/>
<path d="M162.512 35.7298V20.0098L6.82175 20.0098V35.7298L162.512 35.7298Z" fill="#A6835C"/>
<path d="M162.52 63.4895V47.7695L6.82956 47.7695V63.4895L162.52 63.4895Z" fill="#A6835C"/>
<path d="M162.512 91.26V75.54L6.82172 75.54V91.26L162.512 91.26Z" fill="#A6835C"/>
<path d="M162.52 119.02V103.3L6.82953 103.3V119.02L162.52 119.02Z" fill="#A6835C"/>
<path d="M162.52 146.79V131.07H6.82956V146.79H162.52Z" fill="#A6835C"/>
<path d="M311.328 35.7298V20.0098L155.638 20.0098V35.7298L311.328 35.7298Z" fill="#A6835C"/>
<path d="M311.34 63.4895V47.7695L155.65 47.7695V63.4895L311.34 63.4895Z" fill="#A6835C"/>
<path d="M311.328 91.26V75.54L155.638 75.54V91.26L311.328 91.26Z" fill="#A6835C"/>
<path d="M311.34 119.02V103.3L155.65 103.3V119.02L311.34 119.02Z" fill="#A6835C"/>
<path d="M311.34 146.79V131.07H155.65V146.79H311.34Z" fill="#A6835C"/>
<path d="M23.22 0H0V172.64H23.22V0Z" fill="#C3996B"/>
<path d="M171.029 0H147.809V172.64H171.029V0Z" fill="#C3996B"/>
<path d="M318.841 0H295.621V172.64H318.841V0Z" fill="#C3996B"/>
<path d="M914.23 35.7297V20.0098L758.54 20.0098V35.7297L914.23 35.7297Z" fill="#A6835C"/>
<path d="M914.238 63.4895V47.7695L758.548 47.7695V63.4895L914.238 63.4895Z" fill="#A6835C"/>
<path d="M914.23 91.26V75.54L758.54 75.54V91.26L914.23 91.26Z" fill="#A6835C"/>
<path d="M914.238 119.02V103.3L758.548 103.3V119.02L914.238 119.02Z" fill="#A6835C"/>
<path d="M914.23 146.79V131.07H758.54V146.79H914.23Z" fill="#A6835C"/>
<path d="M613.82 35.72V20L458.13 20V35.72L613.82 35.72Z" fill="#A6835C"/>
<path d="M613.828 63.4896V47.7695L458.138 47.7695V63.4896L613.828 63.4896Z" fill="#A6835C"/>
<path d="M613.828 91.2601V75.54L458.138 75.54V91.2601L613.828 91.2601Z" fill="#A6835C"/>
<path d="M613.828 119.02V103.3L458.138 103.3V119.02L613.828 119.02Z" fill="#A6835C"/>
<path d="M613.828 146.79V131.07H458.138V146.79H613.828Z" fill="#A6835C"/>
<path d="M762.637 35.72V20L606.947 20V35.72L762.637 35.72Z" fill="#A6835C"/>
<path d="M762.648 63.4896V47.7695L606.958 47.7695V63.4896L762.648 63.4896Z" fill="#A6835C"/>
<path d="M762.637 91.2601V75.54L606.947 75.54V91.2601L762.637 91.2601Z" fill="#A6835C"/>
<path d="M762.648 119.02V103.3L606.958 103.3V119.02L762.648 119.02Z" fill="#A6835C"/>
<path d="M762.648 146.79V131.07H606.958V146.79H762.648Z" fill="#A6835C"/>
<path d="M474.529 0H451.309V172.64H474.529V0Z" fill="#C3996B"/>
<path d="M622.337 0H599.117V172.64H622.337V0Z" fill="#C3996B"/>
<path d="M770.15 0H746.93V172.64H770.15V0Z" fill="#C3996B"/>
<path d="M1366.52 35.7297V20.0098L1210.83 20.0098V35.7297L1366.52 35.7297Z" fill="#A6835C"/>
<path d="M1366.52 63.5002V47.7803L1210.83 47.7803V63.5002L1366.52 63.5002Z" fill="#A6835C"/>
<path d="M1366.52 91.26V75.54L1210.83 75.54V91.26L1366.52 91.26Z" fill="#A6835C"/>
<path d="M1366.52 119.031V103.311L1210.83 103.311V119.031L1366.52 119.031Z" fill="#A6835C"/>
<path d="M1366.52 146.79V131.07H1210.83V146.79H1366.52Z" fill="#A6835C"/>
<path d="M1066.11 35.7297V20.0098L910.423 20.0098V35.7297L1066.11 35.7297Z" fill="#A6835C"/>
<path d="M1066.12 63.4905V47.7705L910.431 47.7705V63.4905L1066.12 63.4905Z" fill="#A6835C"/>
<path d="M1066.11 91.26V75.54L910.423 75.54V91.26L1066.11 91.26Z" fill="#A6835C"/>
<path d="M1066.12 119.03V103.31L910.431 103.31V119.03L1066.12 119.03Z" fill="#A6835C"/>
<path d="M1066.11 146.79V131.07H910.423V146.79H1066.11Z" fill="#A6835C"/>
<path d="M1214.93 35.7297V20.0098L1059.24 20.0098V35.7297L1214.93 35.7297Z" fill="#A6835C"/>
<path d="M1214.94 63.4895V47.7695L1059.25 47.7695V63.4895L1214.94 63.4895Z" fill="#A6835C"/>
<path d="M1214.93 91.26V75.54L1059.24 75.54V91.26L1214.93 91.26Z" fill="#A6835C"/>
<path d="M1214.94 119.03V103.31L1059.25 103.31V119.03L1214.94 119.03Z" fill="#A6835C"/>
<path d="M1214.93 146.79V131.07H1059.24V146.79H1214.93Z" fill="#A6835C"/>
<path d="M926.822 0H903.602V172.64H926.822V0Z" fill="#C3996B"/>
<path d="M1074.63 0H1051.41V172.64H1074.63V0Z" fill="#C3996B"/>
<path d="M1222.44 0H1199.22V172.64H1222.44V0Z" fill="#C3996B"/>
</svg>
